<svg xmlns="http://www.w3.org/2000/svg" xmlns:xlink="http://www.w3.org/1999/xlink" width="76.999" height="76.999" viewBox="0 0 76.999 76.999">
  <defs>
    <clipPath id="clip-path">
      <path id="path4266" d="M0-682.665H46.618v46.618H0Z" transform="translate(0 682.665)" fill="#7053e8"/>
    </clipPath>
  </defs>
  <g id="Grupo_1064103" data-name="Grupo 1064103" transform="translate(-830.5 -4369.103)">
    <circle id="Elipse_4724" data-name="Elipse 4724" cx="38.5" cy="38.5" r="38.5" transform="translate(830.5 4369.103)" fill="#fec759"/>
    <g id="g4260" transform="translate(845.69 5066.958)">
      <g id="g4262" transform="translate(0 -682.665)">
        <g id="g4264" clip-path="url(#clip-path)">
          <g id="g4270" transform="translate(5.428 4.599)">
            <path id="path4272" d="M-81.192-253.944a18,18,0,0,0,2.137-4.549,20.444,20.444,0,0,0,.681-3.383A3.563,3.563,0,0,0-79.4-264.81l-7.747-7.747" transform="translate(87.142 272.557)" fill="none" stroke="#7053e8" stroke-linecap="round" stroke-linejoin="round" stroke-miterlimit="10" stroke-width="1.7"/>
          </g>
          <g id="g4274" transform="translate(11.376 23.689)">
            <path id="path4276" d="M-4.357-87.73a.737.737,0,0,0,.553-.062,2.271,2.271,0,0,0,.913-3.079L-4.676-94.16" transform="translate(4.676 94.16)" fill="none" stroke="#7053e8" stroke-linecap="round" stroke-linejoin="round" stroke-miterlimit="10" stroke-width="1.7"/>
          </g>
          <g id="g4278" transform="translate(0.683 9.344)">
            <path id="path4280" d="M0,0,6.446,5.574" fill="none" stroke="#7053e8" stroke-linecap="round" stroke-linejoin="round" stroke-miterlimit="10" stroke-width="1.7"/>
          </g>
          <g id="g4282" transform="translate(9.927 26.209)">
            <path id="path4284" d="M0-71.467a.737.737,0,0,0,.6-.048,2.271,2.271,0,0,0,.913-3.079L.364-76.705" transform="translate(0 76.705)" fill="none" stroke="#7053e8" stroke-linecap="round" stroke-linejoin="round" stroke-miterlimit="10" stroke-width="1.7"/>
          </g>
          <g id="g4286" transform="translate(5.119 19.894)">
            <path id="path4288" d="M-10.2,0l-.748,2.522" transform="translate(10.948)" fill="none" stroke="#7053e8" stroke-linecap="round" stroke-linejoin="round" stroke-miterlimit="10" stroke-width="1.7"/>
          </g>
          <g id="g4290" transform="translate(3.955 24.71)">
            <path id="path4292" d="M-3.394-10.843-3.643-10-.029-3.749a.739.739,0,0,0,.992.28h0a2.271,2.271,0,0,0,.913-3.079L-.052-10.1.4-11.637" transform="translate(3.643 11.637)" fill="none" stroke="#7053e8" stroke-linecap="round" stroke-linejoin="round" stroke-miterlimit="10" stroke-width="1.7"/>
          </g>
          <g id="g4294" transform="translate(5.825 13.595)">
            <path id="path4296" d="M-83.064-32.786c-.031,1.414-.72,3.242-1.757,3.876-.134.082-.553.3-.553.3l1.432,2.639a2.542,2.542,0,0,1-1.022,3.447.839.839,0,0,1-1.112-.293l-2.919-4.677-.156-3.441a2.622,2.622,0,0,1,.663-1.864l1.512-1.694,1.281-.7" transform="translate(89.152 35.189)" fill="none" stroke="#7053e8" stroke-linecap="round" stroke-linejoin="round" stroke-miterlimit="10" stroke-width="1.7"/>
          </g>
          <g id="g4298" transform="translate(32.566 23.54)">
            <path id="path4300" d="M-39.076,0a17.987,17.987,0,0,0-2.159,4.583,20.441,20.441,0,0,0-.681,3.383A3.563,3.563,0,0,0-40.894,10.9l7.579,7.579" transform="translate(41.94)" fill="none" stroke="#7053e8" stroke-linecap="round" stroke-linejoin="round" stroke-miterlimit="10" stroke-width="1.7"/>
          </g>
          <g id="g4302" transform="translate(33.349 16.639)">
            <path id="path4304" d="M-21.939-.042a.736.736,0,0,0-.42.086,2.271,2.271,0,0,0-.913,3.079l1.76,3.242" transform="translate(23.547 0.046)" fill="none" stroke="#7053e8" stroke-linecap="round" stroke-linejoin="round" stroke-miterlimit="10" stroke-width="1.7"/>
          </g>
          <g id="g4306" transform="translate(39.657 31.861)">
            <path id="path4308" d="M-85.663-73.861l-6.279-5.414" transform="translate(91.941 79.274)" fill="none" stroke="#7053e8" stroke-linecap="round" stroke-linejoin="round" stroke-miterlimit="10" stroke-width="1.7"/>
          </g>
          <g id="g4310" transform="translate(35.073 15.297)">
            <path id="path4312" d="M-24.778-.728a.738.738,0,0,0-.628.036,2.271,2.271,0,0,0-.913,3.079L-25.173,4.5" transform="translate(26.594 0.781)" fill="none" stroke="#7053e8" stroke-linecap="round" stroke-linejoin="round" stroke-miterlimit="10" stroke-width="1.7"/>
          </g>
          <g id="g4314" transform="translate(37.037 13.818)">
            <path id="path4316" d="M-53.311-177.211l1.887-6.365-3.613-6.254a.739.739,0,0,0-.992-.28,2.271,2.271,0,0,0-.913,3.079l1.928,3.552-.46,1.553" transform="translate(57.218 190.2)" fill="none" stroke="#7053e8" stroke-linecap="round" stroke-linejoin="round" stroke-miterlimit="10" stroke-width="1.7"/>
          </g>
          <g id="g4318" transform="translate(34.872 20.423)">
            <path id="path4320" d="M0-141.4c.031-1.414.72-3.242,1.757-3.876.134-.082.553-.3.553-.3L.877-148.217A2.542,2.542,0,0,1,1.9-151.664a.839.839,0,0,1,1.112.293l2.919,4.677.156,3.441a2.621,2.621,0,0,1-.663,1.864L3.91-139.694l-1.28.7" transform="translate(0 151.766)" fill="none" stroke="#7053e8" stroke-linecap="round" stroke-linejoin="round" stroke-miterlimit="10" stroke-width="1.7"/>
          </g>
          <g id="g4322" transform="translate(4.599 32.398)">
            <path id="path4324" d="M-254.521-39.15a17.979,17.979,0,0,0-4.591-2.165A20.456,20.456,0,0,0-262.495-42a3.564,3.564,0,0,0-2.934,1.021l-7.747,7.747" transform="translate(273.175 42.019)" fill="none" stroke="#7053e8" stroke-linecap="round" stroke-linejoin="round" stroke-miterlimit="10" stroke-width="1.7"/>
          </g>
          <g id="g4326" transform="translate(23.666 33.182)">
            <path id="path4328" d="M-88.336-22.261a.736.736,0,0,0-.084-.443,2.271,2.271,0,0,0-3.079-.913l-3.311,1.8" transform="translate(94.81 23.892)" fill="none" stroke="#7053e8" stroke-linecap="round" stroke-linejoin="round" stroke-miterlimit="10" stroke-width="1.7"/>
          </g>
          <g id="g4330" transform="translate(9.344 39.419)">
            <path id="path4332" d="M0-88.9,5.635-95.42" transform="translate(0 95.42)" fill="none" stroke="#7053e8" stroke-linecap="round" stroke-linejoin="round" stroke-miterlimit="10" stroke-width="1.7"/>
          </g>
          <g id="g4334" transform="translate(26.209 34.906)">
            <path id="path4336" d="M-71.63-23.848a.737.737,0,0,0-.06-.56,2.271,2.271,0,0,0-3.079-.913l-2.111,1.146" transform="translate(76.88 25.596)" fill="none" stroke="#7053e8" stroke-linecap="round" stroke-linejoin="round" stroke-miterlimit="10" stroke-width="1.7"/>
          </g>
          <g id="g4338" transform="translate(19.898 36.869)">
            <path id="path4340" d="M0-52.985l6.446,1.91L12.7-54.688a.739.739,0,0,0,.28-.992A2.271,2.271,0,0,0,9.9-56.593L6.348-54.665,4.8-55.123" transform="translate(0 56.869)" fill="none" stroke="#7053e8" stroke-linecap="round" stroke-linejoin="round" stroke-miterlimit="10" stroke-width="1.7"/>
          </g>
          <g id="g4342" transform="translate(13.595 34.705)">
            <path id="path4344" d="M-32.785,0c1.414.031,3.242.72,3.876,1.757.082.134.3.553.3.553L-25.97.877A2.542,2.542,0,0,1-22.523,1.9a.839.839,0,0,1-.293,1.112L-27.493,5.93l-3.441.156A2.622,2.622,0,0,1-32.8,5.422L-34.493,3.91l-.695-1.281" transform="translate(35.188)" fill="none" stroke="#7053e8" stroke-linecap="round" stroke-linejoin="round" stroke-miterlimit="10" stroke-width="1.7"/>
          </g>
          <g id="g4346" transform="translate(23.548 11.194)">
            <path id="path4348" d="M0,0A18.415,18.415,0,0,0,3.148,1.652" fill="none" stroke="#7053e8" stroke-linecap="round" stroke-linejoin="round" stroke-miterlimit="10" stroke-width="1.7"/>
          </g>
          <g id="g4350" transform="translate(16.639 11.21)">
            <path id="path4352" d="M-.084-5.783A.736.736,0,0,0,0-5.335a2.271,2.271,0,0,0,3.079.913L6.366-6.207" transform="translate(0.091 6.207)" fill="none" stroke="#7053e8" stroke-linecap="round" stroke-linejoin="round" stroke-miterlimit="10" stroke-width="1.7"/>
          </g>
          <g id="g4354" transform="translate(31.848 0.683)">
            <path id="path4356" d="M-74.032,0l-5.426,6.293" transform="translate(79.458)" fill="none" stroke="#7053e8" stroke-linecap="round" stroke-linejoin="round" stroke-miterlimit="10" stroke-width="1.7"/>
          </g>
          <g id="g4358" transform="translate(29.781 5.428)">
            <path id="path4360" d="M0-113.631c.631.126,1.218.213,1.724.272a3.564,3.564,0,0,0,2.934-1.021l7.579-7.579" transform="translate(0 121.96)" fill="none" stroke="#7053e8" stroke-linecap="round" stroke-linejoin="round" stroke-miterlimit="10" stroke-width="1.7"/>
          </g>
          <g id="g4362" transform="translate(15.297 9.682)">
            <path id="path4364" d="M-1.011,0A.738.738,0,0,0-1,.675a2.271,2.271,0,0,0,3.079.913L4.2.442" transform="translate(1.085)" fill="none" stroke="#7053e8" stroke-linecap="round" stroke-linejoin="round" stroke-miterlimit="10" stroke-width="1.7"/>
          </g>
          <g id="g4366" transform="translate(13.818 3.788)">
            <path id="path4368" d="M-179.258-26.346l-6.515-1.931-6.254,3.613a.739.739,0,0,0-.28.992,2.271,2.271,0,0,0,3.079.913l3.552-1.928,1.468.435" transform="translate(192.396 28.277)" fill="none" stroke="#7053e8" stroke-linecap="round" stroke-linejoin="round" stroke-miterlimit="10" stroke-width="1.7"/>
          </g>
          <g id="g4370" transform="translate(20.423 5.658)">
            <path id="path4372" d="M-141.4-83.064c-1.414-.031-3.242-.72-3.876-1.757-.082-.134-.3-.553-.3-.553l-2.639,1.432a2.542,2.542,0,0,1-3.447-1.022.839.839,0,0,1,.293-1.112l4.677-2.919,3.441-.156a2.622,2.622,0,0,1,1.864.663l1.694,1.512.7,1.281" transform="translate(151.766 89.152)" fill="none" stroke="#7053e8" stroke-linecap="round" stroke-linejoin="round" stroke-miterlimit="10" stroke-width="1.7"/>
          </g>
          <g id="g4374" transform="translate(16.862 18.477)">
            <path id="path4376" d="M-13.36-86.182a3.779,3.779,0,0,1,.127-5.21,3.779,3.779,0,0,1,5.341,0,3.779,3.779,0,0,1,5.341,0,3.779,3.779,0,0,1,0,5.341L-7.379-81.22a.725.725,0,0,1-1.026,0l-2.68-2.68" transform="translate(14.34 92.499)" fill="none" stroke="#7053e8" stroke-linecap="round" stroke-linejoin="round" stroke-miterlimit="10" stroke-width="1.7"/>
          </g>
        </g>
      </g>
    </g>
  </g>
</svg>
