<svg xmlns="http://www.w3.org/2000/svg" width="70" height="70" viewBox="0 0 70 70">
  <g id="Grupo_1064020" data-name="Grupo 1064020" transform="translate(-755 -1392)">
    <circle id="Elipse_8234" data-name="Elipse 8234" cx="35" cy="35" r="35" transform="translate(755 1392)" fill="#ffebc5"/>
    <g id="explorador" transform="translate(772.193 1403.999)">
      <g id="Grupo_1063945" data-name="Grupo 1063945" transform="translate(0.742 0.742)">
        <g id="Grupo_1063917" data-name="Grupo 1063917" transform="translate(20.033)">
          <path id="Trazado_796648" data-name="Trazado 796648" d="M233.643,15.207h0a32.059,32.059,0,0,0-5.933-1.068v-.66A5.9,5.9,0,0,0,224,8h2.226A7.42,7.42,0,0,1,233.643,15.207Z" transform="translate(-224 -8)" fill="#cf9e76"/>
        </g>
        <g id="Grupo_1063918" data-name="Grupo 1063918" transform="translate(8.906 0)">
          <path id="Trazado_796649" data-name="Trazado 796649" d="M111.447,8h2.226a5.9,5.9,0,0,0-3.71,5.479v.66a32.059,32.059,0,0,0-5.933,1.068h0A7.42,7.42,0,0,1,111.447,8Z" transform="translate(-104.03 -8)" fill="#cf9e76"/>
        </g>
        <g id="Grupo_1063919" data-name="Grupo 1063919" transform="translate(14.839 0)">
          <path id="Trazado_796650" data-name="Trazado 796650" d="M176.9,13.479v.66c-1.405-.133-2.9-.2-4.452-.2s-3.047.071-4.452.2v-.66A5.9,5.9,0,0,1,171.71,8h1.484A5.9,5.9,0,0,1,176.9,13.479Z" transform="translate(-168 -8)" fill="#dfb28b"/>
        </g>
        <g id="Grupo_1063920" data-name="Grupo 1063920" transform="translate(29.679 10.177)">
          <path id="Trazado_796651" data-name="Trazado 796651" d="M332.452,120.908c0,1.246-1.7,2.372-4.452,3.179V117.73C330.747,118.537,332.452,119.663,332.452,120.908Z" transform="translate(-328 -117.73)" fill="#dfb28b"/>
        </g>
        <g id="Grupo_1063921" data-name="Grupo 1063921" transform="translate(4.452 10.177)">
          <path id="Trazado_796652" data-name="Trazado 796652" d="M60.452,123.134v.953C57.7,123.28,56,122.154,56,120.908s1.7-2.372,4.452-3.178Z" transform="translate(-56 -117.73)" fill="#dfb28b"/>
        </g>
        <g id="Grupo_1063922" data-name="Grupo 1063922" transform="translate(4.452 5.936)">
          <path id="Trazado_796653" data-name="Trazado 796653" d="M64.9,75.339a29.467,29.467,0,0,0-4.452.9C57.7,77.048,56,78.174,56,79.42V76.452c0-1.246,1.706-2.372,4.455-3.179A32.059,32.059,0,0,1,66.387,72.2c1.405-.133,2.9-.2,4.452-.2s3.047.071,4.452.2a32.06,32.06,0,0,1,5.933,1.068c2.749.807,4.455,1.934,4.455,3.179V79.42c0-1.246-1.7-2.371-4.452-3.178a29.467,29.467,0,0,0-4.452-.9c-.942-.124-1.936-.219-2.968-.282-.959-.058-1.951-.089-2.968-.089s-2.009.031-2.968.089C66.839,75.12,65.846,75.215,64.9,75.339Z" transform="translate(-56 -72)" fill="#d3a06c"/>
        </g>
        <g id="Grupo_1063923" data-name="Grupo 1063923" transform="translate(7.42 25.227)">
          <path id="Trazado_796654" data-name="Trazado 796654" d="M110.259,282.481A6.663,6.663,0,0,0,105.065,280h-.742l-1.484,4.452-.435-.435a3.583,3.583,0,0,0-5.066,0l-.435.435L95.42,280H94.8A7.423,7.423,0,0,1,88,290.388a1.483,1.483,0,0,1,1.484,1.484,1.484,1.484,0,1,1,1.484,1.484,1.484,1.484,0,0,1-1.484-1.484v4.452h8.9l1.484-4.452,4.452-2.968,2.226,2.968h.742V287.42h4.452v-.742A6.646,6.646,0,0,0,110.259,282.481Z" transform="translate(-88 -280)" fill="#fcd770"/>
        </g>
        <g id="Grupo_1063924" data-name="Grupo 1063924" transform="translate(19.291 25.227)">
          <path id="Trazado_796655" data-name="Trazado 796655" d="M220.452,280l-1.484,4.452-.435-.435A3.583,3.583,0,0,0,216,282.968L218.226,280Z" transform="translate(-216 -280)" fill="#ffc729"/>
        </g>
        <g id="Grupo_1063925" data-name="Grupo 1063925" transform="translate(14.839 25.227)">
          <path id="Trazado_796656" data-name="Trazado 796656" d="M170.226,280l2.226,2.968a3.583,3.583,0,0,0-2.533,1.049l-.435.435L168,280Z" transform="translate(-168 -280)" fill="#ffc729"/>
        </g>
        <g id="Grupo_1063926" data-name="Grupo 1063926" transform="translate(20.783 39.324)">
          <path id="Trazado_796657" data-name="Trazado 796657" d="M236.533,435.71l-3.327,1.331a2.145,2.145,0,0,1-.8.153,2.168,2.168,0,0,1-.321-.024l1.476-4.428L235.05,432v2.226A1.483,1.483,0,0,0,236.533,435.71Z" transform="translate(-232.09 -432)" fill="#69d6f4"/>
        </g>
        <g id="Grupo_1063927" data-name="Grupo 1063927" transform="translate(17.807 37.098)">
          <path id="Trazado_796658" data-name="Trazado 796658" d="M204.452,410.968l-1.476,4.428a2.14,2.14,0,0,1-1.393-.833L200,412.452,201.484,408Z" transform="translate(-200 -408)" fill="#69d6f4"/>
        </g>
        <g id="Grupo_1063928" data-name="Grupo 1063928" transform="translate(19.291 34.13)">
          <path id="Trazado_796659" data-name="Trazado 796659" d="M220.452,376l2.226,2.968h-.742a1.484,1.484,0,0,0-1.484,1.484v.742l-1.484.742L216,378.968Z" transform="translate(-216 -376)" fill="#4fc1e9"/>
        </g>
        <g id="Grupo_1063929" data-name="Grupo 1063929" transform="translate(26.711 32.646)">
          <path id="Trazado_796660" data-name="Trazado 796660" d="M300.452,360v5.936a2.968,2.968,0,0,1-2.968,2.968v-2.968A1.484,1.484,0,0,0,296,364.452V360Z" transform="translate(-296 -360)" fill="#f0d0b4"/>
        </g>
        <g id="Grupo_1063930" data-name="Grupo 1063930" transform="translate(21.517 15.581)">
          <path id="Trazado_796661" data-name="Trazado 796661" d="M248.162,176.953v11.173a6.663,6.663,0,0,0-5.194-2.481H240v-1.484a6.048,6.048,0,0,0,5.193-5.936h.743A2.226,2.226,0,0,0,248.162,176Z" transform="translate(-240 -176)" fill="#656d78"/>
        </g>
        <g id="Grupo_1063931" data-name="Grupo 1063931" transform="translate(25.227 9.275)">
          <path id="Trazado_796662" data-name="Trazado 796662" d="M284.452,108.9v5.4a2.226,2.226,0,0,0-2.226-2.226h-.742A1.484,1.484,0,0,1,280,110.6V108A29.467,29.467,0,0,1,284.452,108.9Z" transform="translate(-280 -108)" fill="#656d78"/>
        </g>
        <g id="Grupo_1063932" data-name="Grupo 1063932" transform="translate(16.323 8.904)">
          <path id="Trazado_796663" data-name="Trazado 796663" d="M186.968,104v4.452h-1.484A1.484,1.484,0,0,1,184,106.968v-2.879C184.959,104.031,185.951,104,186.968,104Z" transform="translate(-184 -104)" fill="#656d78"/>
        </g>
        <g id="Grupo_1063933" data-name="Grupo 1063933" transform="translate(19.291 8.904)">
          <path id="Trazado_796664" data-name="Trazado 796664" d="M218.968,104.089v2.879a1.484,1.484,0,0,1-1.484,1.484H216V104C217.016,104,218.009,104.031,218.968,104.089Z" transform="translate(-216 -104)" fill="#656d78"/>
        </g>
        <g id="Grupo_1063934" data-name="Grupo 1063934" transform="translate(8.904 15.581)">
          <path id="Trazado_796665" data-name="Trazado 796665" d="M104,176a2.226,2.226,0,0,0,2.226,2.226h.743a6.048,6.048,0,0,0,5.193,5.936v1.484h-2.844a7.431,7.431,0,0,0-5.318-4.3h0V176Z" transform="translate(-104 -176)" fill="#656d78"/>
        </g>
        <g id="Grupo_1063935" data-name="Grupo 1063935" transform="translate(8.904 9.275)">
          <path id="Trazado_796666" data-name="Trazado 796666" d="M108.452,108v2.6a1.484,1.484,0,0,1-1.484,1.484h-.742A2.226,2.226,0,0,0,104,114.307v-5.4A29.467,29.467,0,0,1,108.452,108Z" transform="translate(-104 -108)" fill="#656d78"/>
        </g>
        <g id="Grupo_1063936" data-name="Grupo 1063936" transform="translate(5.936 40.066)">
          <path id="Trazado_796667" data-name="Trazado 796667" d="M74.968,441.484v1.484a1.484,1.484,0,1,1-2.968,0v-1.484h1.484A1.484,1.484,0,0,0,74.968,440Z" transform="translate(-72 -440)" fill="#969faa"/>
        </g>
        <g id="Grupo_1063937" data-name="Grupo 1063937" transform="translate(26.71 13.355)">
          <path id="Trazado_796668" data-name="Trazado 796668" d="M295.991,156.4V152h.742a2.226,2.226,0,0,1,0,4.452h-.743C295.991,156.434,295.991,156.417,295.991,156.4Z" transform="translate(-295.99 -152)" fill="#f0d0b4"/>
        </g>
        <g id="Grupo_1063938" data-name="Grupo 1063938" transform="translate(11.871 8.993)">
          <path id="Trazado_796669" data-name="Trazado 796669" d="M150.839,109.323v4.4c0,.018,0,.035,0,.053a6.048,6.048,0,0,1-5.193,5.936v1.484l-2.226,2.968-2.226-2.968V119.71A6.048,6.048,0,0,1,136,113.775c0-.018,0-.035,0-.053v-4.4a1.484,1.484,0,0,0,1.484-1.484v-2.6c.942-.124,1.936-.219,2.968-.282v2.879a1.484,1.484,0,0,0,1.484,1.484H144.9a1.484,1.484,0,0,0,1.484-1.484V104.96c1.032.063,2.026.158,2.968.282v2.6A1.484,1.484,0,0,0,150.839,109.323Z" transform="translate(-136 -104.96)" fill="#f0d0b4"/>
        </g>
        <g id="Grupo_1063939" data-name="Grupo 1063939" transform="translate(8.904 13.355)">
          <path id="Trazado_796670" data-name="Trazado 796670" d="M106.968,156.452h-.742a2.226,2.226,0,0,1,0-4.452h.742v4.4c0,.018,0,.035,0,.053Z" transform="translate(-104 -152)" fill="#f0d0b4"/>
        </g>
        <g id="Grupo_1063940" data-name="Grupo 1063940" transform="translate(23.743 37.098)">
          <path id="Trazado_796671" data-name="Trazado 796671" d="M268.452,409.484v2.968a1.484,1.484,0,0,1-1.484,1.484h-1.484A1.484,1.484,0,0,1,264,412.452v-2.968A1.484,1.484,0,0,1,265.484,408h1.484A1.484,1.484,0,0,1,268.452,409.484Z" transform="translate(-264 -408)" fill="#f0d0b4"/>
        </g>
        <g id="Grupo_1063941" data-name="Grupo 1063941" transform="translate(8.992 35.714)">
          <circle id="Elipse_8249" data-name="Elipse 8249" cx="1.346" cy="1.346" r="1.346" transform="translate(0 0)" fill="#f0d0b4"/>
        </g>
        <g id="Grupo_1063942" data-name="Grupo 1063942" transform="translate(4.452 35.614)">
          <path id="Trazado_796672" data-name="Trazado 796672" d="M58.968,392a1.484,1.484,0,0,1,1.484,1.484v2.968a1.484,1.484,0,0,1-1.484,1.484H57.484A1.484,1.484,0,0,1,56,396.452v-2.968A1.484,1.484,0,0,1,57.484,392Z" transform="translate(-56 -392)" fill="#f0d0b4"/>
        </g>
        <g id="Grupo_1063943" data-name="Grupo 1063943" transform="translate(0 20.775)">
          <path id="Trazado_796673" data-name="Trazado 796673" d="M22.222,236.452a7.418,7.418,0,1,1-5.318-4.3A7.4,7.4,0,0,1,22.222,236.452Z" transform="translate(-8 -232)" fill="#ccd1d9"/>
        </g>
        <g id="Grupo_1063944" data-name="Grupo 1063944" transform="translate(2.937 23.604)">
          <circle id="Elipse_8250" data-name="Elipse 8250" cx="4.373" cy="4.373" r="4.373" transform="translate(0 0)" fill="#69d6f4"/>
        </g>
      </g>
      <g id="Grupo_1063946" data-name="Grupo 1063946" transform="translate(0)">
        <path id="Trazado_796674" data-name="Trazado 796674" d="M187.734,214.979a3.126,3.126,0,0,0,2.811-1.737l.078-.157-1.327-.664-.078.157a1.659,1.659,0,0,1-2.968,0l-.078-.157-1.327.664.078.157A3.126,3.126,0,0,0,187.734,214.979Z" transform="translate(-167.701 -192.72)"/>
        <path id="Trazado_796675" data-name="Trazado 796675" d="M31.124,7.391A8.158,8.158,0,0,0,23,0H17.065A8.158,8.158,0,0,0,8.942,7.391C6,8.338,4.452,9.627,4.452,11.129V14.1c0,1.5,1.537,2.78,4.452,3.726v2.986c-.244-.022-.492-.034-.742-.034A8.161,8.161,0,0,0,4.95,36.439a2.214,2.214,0,0,0-.5,1.4v2.968a2.23,2.23,0,0,0,1.484,2.1v.869a2.226,2.226,0,1,0,4.452,0v-.742h7.791l1.36,1.814a2.884,2.884,0,0,0,3.379.947l3.194-1.278h1.341a2.229,2.229,0,0,0,2.117-1.539,3.715,3.715,0,0,0,3.077-3.655V32.646A7.381,7.381,0,0,0,31.162,28.2V17.823c2.915-.946,4.452-2.228,4.452-3.726V11.129c0-1.5-1.551-2.791-4.49-3.738Zm-1.553-.437a34.122,34.122,0,0,0-4.345-.744A6.613,6.613,0,0,0,23.253,1.49,6.633,6.633,0,0,1,29.571,6.954Zm-10.13-5.47h1.184A5.131,5.131,0,0,1,23.74,6.073c-1.2-.091-2.441-.137-3.707-.137s-2.509.047-3.707.137a5.131,5.131,0,0,1,3.115-4.589Zm-2.628.006A6.613,6.613,0,0,0,14.84,6.211a34.139,34.139,0,0,0-4.345.744A6.634,6.634,0,0,1,16.813,1.49Zm-7.06,7.2A37.346,37.346,0,0,1,20.033,7.42a37.346,37.346,0,0,1,10.28,1.273c2.818.845,3.818,1.841,3.818,2.437v.629a11.788,11.788,0,0,0-3.391-1.52A38.848,38.848,0,0,0,20.033,8.9,38.848,38.848,0,0,0,9.327,10.239a11.79,11.79,0,0,0-3.391,1.52v-.629c0-.6,1-1.592,3.818-2.437Zm13.99,30.632v.283l-.6.3-1.95-1.95,3.115-2.076L25.3,37.2a2.23,2.23,0,0,0-1.56,2.124Zm-13.355-23a1.486,1.486,0,0,1,1.484-1.484v2.968A1.486,1.486,0,0,1,10.387,16.323Zm0-4.842a28.579,28.579,0,0,1,2.968-.611v1.744a.743.743,0,0,1-.742.742h-.742a2.949,2.949,0,0,0-1.484.4Zm2.968,3.23a2.229,2.229,0,0,0,1.484-2.1V10.671q.727-.083,1.484-.142v2.084a2.212,2.212,0,0,0,.157.82,2.23,2.23,0,0,0-1.641,2.147v.742h1.484v-.742a.742.742,0,0,1,1.484,0v.742h1.484v-.742a2.216,2.216,0,0,0-.128-.742H20.9a2.216,2.216,0,0,0-.128.742v.742h1.484v-.742a.742.742,0,0,1,1.484,0v.742h1.484v-.742a2.23,2.23,0,0,0-1.641-2.147,2.214,2.214,0,0,0,.157-.82V10.529q.756.059,1.484.142v1.942a2.23,2.23,0,0,0,1.484,2.1V18.5a5.333,5.333,0,0,1-4.557,5.254l-.637.091v1.88L20.033,27.7l-1.484-1.979v-1.88l-.637-.091A5.333,5.333,0,0,1,13.355,18.5Zm8.9-2.1a.743.743,0,0,1-.742.742h-.742V10.393q.75.011,1.484.045Zm-2.968.742h-.742a.743.743,0,0,1-.742-.742V10.438q.733-.033,1.484-.045Zm8.9,1.484a1.484,1.484,0,0,1,0,2.968Zm0-1.484h-.742a.743.743,0,0,1-.742-.742V10.87a28.531,28.531,0,0,1,2.968.611v2.273A2.949,2.949,0,0,0,28.195,13.355ZM22.63,26.711h.825l-.792,2.375a4.281,4.281,0,0,0-1.3-.684ZM17.065,25.1v.13H15.43a8.183,8.183,0,0,0-.812-1.276A6.792,6.792,0,0,0,17.065,25.1Zm.371,1.614L18.7,28.4a4.28,4.28,0,0,0-1.3.684l-.792-2.375Zm9.275,2.968V36.6l-2.053-2.738-3.882,2.588V29.777a2.822,2.822,0,0,1,1.267.734l1.284,1.284,1.694-5.083h.207a5.942,5.942,0,0,1,5.936,5.936H28.195V29.679Zm-1.484-4.452H23V25.1a6.787,6.787,0,0,0,5.146-5.806h.048a2.949,2.949,0,0,0,1.484-.4v7.823a7.38,7.38,0,0,0-4.452-1.488ZM5.936,14.1c0-.532.8-1.381,2.968-2.158v4.317C6.734,15.48,5.936,14.632,5.936,14.1Zm4.452,4.794a2.949,2.949,0,0,0,1.484.4h.048a6.791,6.791,0,0,0,1.264,3.216,8.145,8.145,0,0,0-2.8-1.424Zm-8.9,10.045a6.678,6.678,0,1,1,6.678,6.678A6.685,6.685,0,0,1,1.484,28.937Zm10.387,8.9a.742.742,0,1,1-.742-.742A.743.743,0,0,1,11.871,37.84ZM8.9,43.776a.742.742,0,0,1-1.484,0v-.742h.742a2.215,2.215,0,0,0,.742-.127Zm0-2.968a.743.743,0,0,1-.742.742H6.678a.743.743,0,0,1-.742-.742V37.84a.743.743,0,0,1,.742-.742H8.162a.743.743,0,0,1,.742.742Zm1.484-.87a2.225,2.225,0,0,0,1.929-3.98,8.18,8.18,0,0,0,3.9-5.727l.521,1.562,1.284-1.284a2.823,2.823,0,0,1,1.267-.734V37.72l-1.277,3.83H10.387Zm8.988,2.219.981-2.944,1.795,1.795-1.089,3.268a1.394,1.394,0,0,1-.337-.318Zm3.237,2.161.995-2.985.135-.068v1.025a2.215,2.215,0,0,0,.483,1.382Zm5.582-2.027a.743.743,0,0,1-.742.742H25.969a.743.743,0,0,1-.742-.742V39.324a.743.743,0,0,1,.742-.742h1.484a.743.743,0,0,1,.742.742Zm1.484-.87v-2.1a2.23,2.23,0,0,0-1.484-2.1v-3.1h2.968v5.194A2.23,2.23,0,0,1,29.679,41.422Zm1.484-25.166V11.939c2.171.777,2.968,1.627,2.968,2.158S33.332,15.48,31.162,16.256Z" transform="translate(0)"/>
        <path id="Trazado_796676" data-name="Trazado 796676" d="M42.387,261.194a5.194,5.194,0,1,0-5.194,5.194A5.2,5.2,0,0,0,42.387,261.194Zm-8.9,0a3.71,3.71,0,1,1,3.71,3.71A3.714,3.714,0,0,1,33.484,261.194Z" transform="translate(-29.032 -232.257)"/>
      </g>
    </g>
  </g>
</svg>
