<svg xmlns="http://www.w3.org/2000/svg" xmlns:xlink="http://www.w3.org/1999/xlink" width="190" height="190" viewBox="0 0 190 190">
  <defs>
    <clipPath id="clip-path">
      <rect id="Rectángulo_373510" data-name="Rectángulo 373510" width="190" height="190" rx="10" transform="translate(180 2503)" fill="#fff" stroke="#707070" stroke-width="1"/>
    </clipPath>
    <clipPath id="clip-path-2">
      <rect id="Rectángulo_373509" data-name="Rectángulo 373509" width="223.887" height="228.795" fill="none"/>
    </clipPath>
    <clipPath id="clip-path-3">
      <rect id="Rectángulo_373502" data-name="Rectángulo 373502" width="197.78" height="197.779" fill="none"/>
    </clipPath>
    <clipPath id="clip-path-5">
      <rect id="Rectángulo_373503" data-name="Rectángulo 373503" width="208.105" height="64.875" fill="none"/>
    </clipPath>
    <clipPath id="clip-path-6">
      <path id="Trazado_796940" data-name="Trazado 796940" d="M280.535,378.1a17.413,17.413,0,0,0-3.5.754,31.336,31.336,0,0,1-14.585.368,3.784,3.784,0,0,0-3.827,1.153,5.849,5.849,0,0,0-1.064,3.58,12.96,12.96,0,0,0,5.243,10.468,14.291,14.291,0,0,0,11.911,2.258,13.58,13.58,0,0,0,9.026-7.763,16.545,16.545,0,0,0,1.112-6.166,4.975,4.975,0,0,0-1.026-3.584,4.09,4.09,0,0,0-2.964-1.077c-.11,0-.219,0-.328.009" transform="translate(-257.559 -378.089)" fill="none"/>
    </clipPath>
    <clipPath id="clip-path-8">
      <rect id="Rectángulo_373505" data-name="Rectángulo 373505" width="46.853" height="22.913" fill="none"/>
    </clipPath>
  </defs>
  <g id="Enmascarar_grupo_1059015" data-name="Enmascarar grupo 1059015" transform="translate(-180 -2503)" clip-path="url(#clip-path)">
    <g id="Grupo_1064065" data-name="Grupo 1064065" transform="translate(159.108 2484.448)">
      <g id="Grupo_1064064" data-name="Grupo 1064064" clip-path="url(#clip-path-2)">
        <rect id="Rectángulo_373501" data-name="Rectángulo 373501" width="197.78" height="197.78" transform="translate(17.772 17.029)" fill="#fff0cf"/>
        <g id="Grupo_1064046" data-name="Grupo 1064046" transform="translate(17.772 17.03)">
          <g id="Grupo_1064045" data-name="Grupo 1064045" clip-path="url(#clip-path-3)">
            <path id="Trazado_796862" data-name="Trazado 796862" d="M4.565,70c-4.931,11.781.718,26.875,12.207,32.617,4.857,2.428,10.342,3.269,15.513,4.941s10.39,4.519,12.731,9.386c3.216,6.689,0,14.494-2.784,21.37s-4.91,15.413-.152,21.128c7.387,8.875,23.7,3.1,28.282,13.7,4.477,10.357,16.366,21.111,39.376,21.111,12.326,0-3.767,1.731,7.683.739,43.923-3.808,39.647-24.852,51.806-40.817,5.652-7.421,17.755-6.609,24.358-13.214,6.094-6.1,5.29-15.954,4.12-24.457s-1.824-18.416,4.429-24.352c3.643-3.459,8.929-4.738,12.729-8.026,6.2-5.367,6.966-14.493,7.283-22.649Q223,39.4,223.862,17.332c.095-2.429,0-5.268-1.972-6.71a7.684,7.684,0,0,0-4.257-1.04L7.283.035c-1.7-.077-3.543-.112-4.911.885C.554,2.244.314,4.8.248,7.035-.5,32.254.288,57.518,4.565,70" transform="translate(-17.772 -17.03)" fill="#fffaeb"/>
          </g>
        </g>
        <g id="Grupo_1064051" data-name="Grupo 1064051" transform="translate(17.772 17.03)">
          <g id="Grupo_1064050" data-name="Grupo 1064050" clip-path="url(#clip-path-3)">
            <g id="Grupo_1064049" data-name="Grupo 1064049" transform="translate(-6.054 146.89)" opacity="0.8">
              <g id="Grupo_1064048" data-name="Grupo 1064048">
                <g id="Grupo_1064047" data-name="Grupo 1064047" clip-path="url(#clip-path-5)">
                  <path id="Trazado_796863" data-name="Trazado 796863" d="M108.817,453c-2.03-.663-4.147-1.381-5.657-2.968s-2.155-4.333-.831-6.047a8.75,8.75,0,0,1-4.526-3.577c-.945-1.765-.624-4.382,1.087-5.242-1.566-1.188-3.282-2.643-3.427-4.658-.178-2.472,2.3-4.376,4.647-4.391s4.522,1.289,6.562,2.552c1.121-2.2,4.257-2.413,6.276-1.042s3.14,3.8,4.006,6.152c2.012-1.964,5.543-1.089,7.365,1.134s2.31,5.309,2.433,8.222a2.734,2.734,0,0,1,3.8-.629,6.8,6.8,0,0,1,2.44,3.643c2.4,6.976.615,14.647-1.862,21.989a49.092,49.092,0,0,1-18.885-6.051,10.5,10.5,0,0,1-4.422-3.92c-.952-1.8-.78-4.392.991-5.167" transform="translate(-69.414 -421.482)" fill="#74a847"/>
                  <path id="Trazado_796864" data-name="Trazado 796864" d="M142.715,480.642a71.059,71.059,0,0,0-29.186-36.393" transform="translate(-80.339 -432.442)" fill="none" stroke="#d1cd5c" stroke-linecap="round" stroke-linejoin="round" stroke-width="2"/>
                  <path id="Trazado_796865" data-name="Trazado 796865" d="M119.315,449.557a26.693,26.693,0,0,1,7.848,1.038,22.965,22.965,0,0,0-2.416-8.614" transform="translate(-83.837 -431.071)" fill="none" stroke="#d1cd5c" stroke-linecap="round" stroke-linejoin="round" stroke-width="2"/>
                  <path id="Trazado_796866" data-name="Trazado 796866" d="M135.694,472.221a45.278,45.278,0,0,1,11.354,2.767,27.947,27.947,0,0,0-.734-11.507" transform="translate(-93.737 -444.067)" fill="none" stroke="#d1cd5c" stroke-linecap="round" stroke-linejoin="round" stroke-width="2"/>
                  <path id="Trazado_796867" data-name="Trazado 796867" d="M149.527,494.471a42.936,42.936,0,0,1,11.651,3.471,23.766,23.766,0,0,0,.941-12.3" transform="translate(-102.098 -457.46)" fill="none" stroke="#d1cd5c" stroke-linecap="round" stroke-linejoin="round" stroke-width="2"/>
                  <path id="Trazado_796868" data-name="Trazado 796868" d="M75.45,505.192a16.9,16.9,0,0,1-6.655-6.47,6.254,6.254,0,0,1-.915-2.617,2.843,2.843,0,0,1,1.025-2.469,3.332,3.332,0,0,1,3.547,0,6.47,6.47,0,0,1,2.363,2.742,10.431,10.431,0,0,1,.635,8.817" transform="translate(-52.743 -461.983)" fill="#d1cd5c"/>
                  <path id="Trazado_796869" data-name="Trazado 796869" d="M80.506,510.882a65.207,65.207,0,0,0-4.062-8.146" transform="translate(-57.924 -467.794)" fill="none" stroke="#74a847" stroke-linecap="round" stroke-linejoin="round" stroke-width="2"/>
                  <path id="Trazado_796870" data-name="Trazado 796870" d="M98.322,506.617A18.753,18.753,0,0,1,93.4,496.345a5.3,5.3,0,0,1,.217-2.827,2.5,2.5,0,0,1,2.317-1.549c1.284.08,2.132,1.291,2.637,2.411a13.878,13.878,0,0,1-.244,12.237" transform="translate(-68.116 -461.284)" fill="#d1cd5c"/>
                  <path id="Trazado_796871" data-name="Trazado 796871" d="M103.127,513.937a57.821,57.821,0,0,0-1.952-9.584" transform="translate(-72.872 -468.771)" fill="none" stroke="#74a847" stroke-linecap="round" stroke-linejoin="round" stroke-width="2"/>
                  <path id="Trazado_796872" data-name="Trazado 796872" d="M118.322,513.907a10.163,10.163,0,0,1-2.438-5.159,24.687,24.687,0,0,1-.2-5.679,6.782,6.782,0,0,1,.535-2.74,2.444,2.444,0,0,1,4.4-.3,5.457,5.457,0,0,1,.757,2.322c.493,3.556-.268,7.24-3.052,11.552" transform="translate(-81.598 -465.406)" fill="#d1cd5c"/>
                  <path id="Trazado_796873" data-name="Trazado 796873" d="M122.13,521.172l-.095-9.87" transform="translate(-85.481 -472.971)" fill="none" stroke="#74a847" stroke-linecap="round" stroke-linejoin="round" stroke-width="2"/>
                  <path id="Trazado_796874" data-name="Trazado 796874" d="M69.552,523.955a20.333,20.333,0,0,0-11.478.925,5.509,5.509,0,0,0-2.087,1.255,2.085,2.085,0,0,0-.509,2.189,2.963,2.963,0,0,0,2.378,1.417,10.117,10.117,0,0,0,6.35-1.394,25.174,25.174,0,0,0,5.346-4.392" transform="translate(-45.169 -480.358)" fill="#d1cd5c"/>
                  <path id="Trazado_796875" data-name="Trazado 796875" d="M65.434,528.287l9.8-3.1" transform="translate(-51.269 -481.364)" fill="none" stroke="#74a847" stroke-linecap="round" stroke-linejoin="round" stroke-width="2"/>
                  <path id="Trazado_796876" data-name="Trazado 796876" d="M93.512,531.377a29.89,29.89,0,0,0-6.617-.435,10.4,10.4,0,0,0-6.031,2.265c-.97.848-1.721,2.149-1.252,3.329a2.963,2.963,0,0,0,2.725,1.6,7.025,7.025,0,0,0,3.208-.905,35.279,35.279,0,0,0,7.967-5.856" transform="translate(-59.752 -484.811)" fill="#d1cd5c"/>
                  <path id="Trazado_796877" data-name="Trazado 796877" d="M88.6,536.705l9.7-3.509" transform="translate(-65.268 -486.205)" fill="none" stroke="#74a847" stroke-linecap="round" stroke-linejoin="round" stroke-width="2"/>
                  <path id="Trazado_796878" data-name="Trazado 796878" d="M110.982,540.154a15.675,15.675,0,0,0-10.7,2.7,5.657,5.657,0,0,0-1.686,1.689,2.437,2.437,0,0,0-.182,2.258,2.824,2.824,0,0,0,2.4,1.39,6.262,6.262,0,0,0,2.824-.638,14.405,14.405,0,0,0,7.35-7.4" transform="translate(-71.081 -490.351)" fill="#d1cd5c"/>
                  <path id="Trazado_796879" data-name="Trazado 796879" d="M108.271,545.912a49.03,49.03,0,0,0,8.713-4.806" transform="translate(-77.161 -490.986)" fill="none" stroke="#74a847" stroke-linecap="round" stroke-linejoin="round" stroke-width="2"/>
                  <path id="Trazado_796880" data-name="Trazado 796880" d="M134.989,521.69a20.59,20.59,0,0,1-.841-9.715,4.757,4.757,0,0,1,1.557-3.239,2.882,2.882,0,0,1,2.969-.25,3.057,3.057,0,0,1,1.464,2,6.054,6.054,0,0,1-.024,2.475,14.528,14.528,0,0,1-5.125,8.723" transform="translate(-92.657 -471.088)" fill="#d1cd5c"/>
                  <path id="Trazado_796881" data-name="Trazado 796881" d="M136.991,528.053l1.988-10.463" transform="translate(-94.521 -476.772)" fill="none" stroke="#74a847" stroke-linecap="round" stroke-linejoin="round" stroke-width="2"/>
                  <path id="Trazado_796882" data-name="Trazado 796882" d="M48.533,513.349a17.812,17.812,0,0,0-15.177-4.8,6.086,6.086,0,0,0-2.638.951,2.39,2.39,0,0,0-1.051,2.348c.269,1.18,1.611,1.841,2.842,2.185,4.446,1.24,9.184.484,16.024-.687" transform="translate(-29.623 -471.175)" fill="#d1cd5c"/>
                  <path id="Trazado_796883" data-name="Trazado 796883" d="M92.691,534.807C81.1,524.454,64.939,517.956,48.027,516.846" transform="translate(-40.747 -476.323)" fill="none" stroke="#74a847" stroke-linecap="round" stroke-linejoin="round" stroke-width="2"/>
                  <path id="Trazado_796884" data-name="Trazado 796884" d="M451.591,521.434c2.3.38,4.7.753,6.9.007s4.082-3.007,3.558-5.274c2.093.164,4.341.067,6.069-1.124s2.6-3.81,1.309-5.465c2.077-.343,4.424-.862,5.479-2.684,1.3-2.236-.274-5.251-2.575-6.426s-5.027-1.025-7.6-.846c-.106-2.619-3.089-4.373-5.694-4.083s-4.807,2.017-6.726,3.8c-1.086-2.841-4.952-3.764-7.751-2.576s-4.677,3.848-6.119,6.526c-.143-1.564-1.886-2.6-3.451-2.471a6.933,6.933,0,0,0-4.05,2.218c-5.525,5.369-7.247,13.464-8.142,21.591a55.3,55.3,0,0,0,21.3,3.65,11.107,11.107,0,0,0,6.122-1.5c1.75-1.219,2.758-3.743,1.369-5.348" transform="translate(-267.275 -463.425)" fill="#d1cd5c"/>
                  <path id="Trazado_796885" data-name="Trazado 796885" d="M419.4,541.753c11.607-11.3,27.953-18.458,45.181-19.778" transform="translate(-265.218 -479.423)" fill="none" stroke="#74a847" stroke-linecap="round" stroke-linejoin="round" stroke-width="2"/>
                  <path id="Trazado_796886" data-name="Trazado 796886" d="M507.774,520a30.661,30.661,0,0,0-8.182-2.905,22.731,22.731,0,0,1,6.28-6.9" transform="translate(-313.691 -472.3)" fill="none" stroke="#74a847" stroke-linecap="round" stroke-linejoin="round" stroke-width="2"/>
                  <path id="Trazado_796887" data-name="Trazado 796887" d="M474.133,529.285a51.476,51.476,0,0,0-12.411-3.014,27.635,27.635,0,0,1,5.94-10.453" transform="translate(-290.801 -475.701)" fill="none" stroke="#74a847" stroke-linecap="round" stroke-linejoin="round" stroke-width="2"/>
                  <path id="Trazado_796888" data-name="Trazado 796888" d="M449.455,541.869a48.494,48.494,0,0,0-13.022-2.5,23.7,23.7,0,0,1,4.654-12.031" transform="translate(-275.516 -482.665)" fill="none" stroke="#74a847" stroke-linecap="round" stroke-linejoin="round" stroke-width="2"/>
                  <path id="Trazado_796889" data-name="Trazado 796889" d="M440.643,435.232a17.447,17.447,0,0,0,1.608-9.566,6.983,6.983,0,0,0-.85-2.851,2.917,2.917,0,0,0-5.393.419,6.788,6.788,0,0,0-.3,3.792,11.913,11.913,0,0,0,4.93,8.206" transform="translate(-275.001 -418.509)" fill="#74a847"/>
                  <path id="Trazado_796890" data-name="Trazado 796890" d="M445.977,441.6a71.437,71.437,0,0,1-1.621-9.571" transform="translate(-280.305 -425.054)" fill="none" stroke="#d1cd5c" stroke-linecap="round" stroke-linejoin="round" stroke-width="2"/>
                  <path id="Trazado_796891" data-name="Trazado 796891" d="M423.548,449.654A20.594,20.594,0,0,0,421.34,437.7a6.1,6.1,0,0,0-1.936-2.39,2.589,2.589,0,0,0-2.916-.051c-1.035.806-1,2.37-.732,3.654a15.9,15.9,0,0,0,7.793,10.743" transform="translate(-262.921 -426.748)" fill="#74a847"/>
                  <path id="Trazado_796892" data-name="Trazado 796892" d="M428.772,457.267a65.751,65.751,0,0,1-4.293-9.641" transform="translate(-268.29 -434.483)" fill="none" stroke="#d1cd5c" stroke-linecap="round" stroke-linejoin="round" stroke-width="2"/>
                  <path id="Trazado_796893" data-name="Trazado 796893" d="M410.646,467.89a11.174,11.174,0,0,0-1.139-5.984,28.374,28.374,0,0,0-3.348-5.168,7.8,7.8,0,0,0-2.151-2.131,2.766,2.766,0,0,0-2.887-.063,2.669,2.669,0,0,0-1.013,2.322,6.119,6.119,0,0,0,.8,2.5c1.788,3.445,4.715,6.285,9.739,8.527" transform="translate(-253.557 -438.435)" fill="#74a847"/>
                  <path id="Trazado_796894" data-name="Trazado 796894" d="M417.214,474.583l-6.039-8.833" transform="translate(-260.249 -445.438)" fill="none" stroke="#d1cd5c" stroke-linecap="round" stroke-linejoin="round" stroke-width="2"/>
                  <path id="Trazado_796895" data-name="Trazado 796895" d="M445.407,450.891a19.658,19.658,0,0,1,10.264-5.75,5.659,5.659,0,0,1,2.54-.079A2.378,2.378,0,0,1,460,446.718a2.954,2.954,0,0,1-1.13,2.622,9.907,9.907,0,0,1-6.225,2.4,26.564,26.564,0,0,1-7.236-.845" transform="translate(-280.94 -432.865)" fill="#74a847"/>
                  <path id="Trazado_796896" data-name="Trazado 796896" d="M456.844,452.662l-10.2,2.856" transform="translate(-281.688 -437.527)" fill="none" stroke="#d1cd5c" stroke-linecap="round" stroke-linejoin="round" stroke-width="2"/>
                  <path id="Trazado_796897" data-name="Trazado 796897" d="M430.046,471.513a28.63,28.63,0,0,1,5.316-4.175,10.376,10.376,0,0,1,6.5-1.439c1.345.2,2.786.926,3.121,2.244a2.958,2.958,0,0,1-1.308,2.986,6.925,6.925,0,0,1-3.269,1.032,36.847,36.847,0,0,1-10.356-.647" transform="translate(-271.655 -445.477)" fill="#74a847"/>
                  <path id="Trazado_796898" data-name="Trazado 796898" d="M442.642,473.966,432.276,476.4" transform="translate(-273.003 -450.404)" fill="none" stroke="#d1cd5c" stroke-linecap="round" stroke-linejoin="round" stroke-width="2"/>
                  <path id="Trazado_796899" data-name="Trazado 796899" d="M422.011,490.667a15.418,15.418,0,0,1,10.708-3.73,6.089,6.089,0,0,1,2.471.536,2.538,2.538,0,0,1,.392,4.513,6.126,6.126,0,0,1-2.78,1.05,15.453,15.453,0,0,1-10.79-2.369" transform="translate(-266.798 -458.235)" fill="#74a847"/>
                  <path id="Trazado_796900" data-name="Trazado 796900" d="M433.01,495.183a50.046,50.046,0,0,1-10.336.715" transform="translate(-267.199 -463.229)" fill="none" stroke="#d1cd5c" stroke-linecap="round" stroke-linejoin="round" stroke-width="2"/>
                  <path id="Trazado_796901" data-name="Trazado 796901" d="M400.4,484.718a23.587,23.587,0,0,0-5.313-9.121,5.361,5.361,0,0,0-3.323-1.989,2.8,2.8,0,0,0-2.661,1.478,3.251,3.251,0,0,0,.007,2.621,6.972,6.972,0,0,0,1.555,2.187,16.223,16.223,0,0,0,9.735,4.824" transform="translate(-246.741 -450.184)" fill="#74a847"/>
                  <path id="Trazado_796902" data-name="Trazado 796902" d="M406.368,490.952l-8.164-8.167" transform="translate(-252.408 -455.735)" fill="none" stroke="#d1cd5c" stroke-linecap="round" stroke-linejoin="round" stroke-width="2"/>
                  <path id="Trazado_796903" data-name="Trazado 796903" d="M414.363,509.3a12,12,0,0,1,9.293-3.306,5.477,5.477,0,0,1,2.362.665,2.668,2.668,0,0,1,1.342,1.97,2.785,2.785,0,0,1-1.784,2.6,6.858,6.858,0,0,1-3.315.34,19.541,19.541,0,0,1-7.9-2.271" transform="translate(-262.176 -469.737)" fill="#74a847"/>
                  <path id="Trazado_796904" data-name="Trazado 796904" d="M414.863,513.708a41.112,41.112,0,0,1,9.334-.555" transform="translate(-262.478 -474.053)" fill="none" stroke="#d1cd5c" stroke-linecap="round" stroke-linejoin="round" stroke-width="2"/>
                  <path id="Trazado_796905" data-name="Trazado 796905" d="M454.858,428.028a17.312,17.312,0,0,1,9.84-12.956,6.062,6.062,0,0,1,2.816-.665,2.692,2.692,0,0,1,2.343,1.486c.5,1.2-.219,2.56-1.045,3.57-2.985,3.648-7.454,5.689-13.955,8.564" transform="translate(-286.652 -414.4)" fill="#74a847"/>
                  <path id="Trazado_796906" data-name="Trazado 796906" d="M409.915,469.852c3.369-15.846,12.983-30.879,26.574-41.549" transform="translate(-259.487 -422.803)" fill="none" stroke="#d1cd5c" stroke-linecap="round" stroke-linejoin="round" stroke-width="2"/>
                </g>
              </g>
            </g>
            <path id="Trazado_796907" data-name="Trazado 796907" d="M175.05,483.418s4.544-34.888,45.786-34.888c46.081,0,50.478,32.723,50.478,32.723Z" transform="translate(-123.579 -288.139)" fill="#49c9a1"/>
            <path id="Trazado_796908" data-name="Trazado 796908" d="M287.219,438.02s-1.535,10.763-11.155,10.763c-9.3,0-12.27-10.823-12.27-10.823.107-.044.206-.087.3-.138,3.809-1.875,2.729-8.212,2.729-8.212l17.349,1.938a11.9,11.9,0,0,0,.206,3.212c.712,3.2,2.836,3.259,2.836,3.259" transform="translate(-177.22 -276.703)" fill="#ffa382"/>
            <path id="Trazado_796909" data-name="Trazado 796909" d="M284.848,434.76c-5.1,2.286-14.244,5.573-20.284,3.062,3.809-1.875,2.729-8.212,2.729-8.212l17.349,1.938a11.9,11.9,0,0,0,.206,3.212" transform="translate(-177.685 -276.703)" fill="#eb7563"/>
            <path id="Trazado_796910" data-name="Trazado 796910" d="M211.405,396.573a23.831,23.831,0,0,1-10.737-.118,12.885,12.885,0,0,1-8.264-6.487c-1.556-3.258-1.133-7.528,1.466-10.034a7.381,7.381,0,0,1,10.29.517c2.594,5.431,5.189,10.862,7.244,16.122" transform="translate(-133.522 -245.562)" fill="#ffa382"/>
            <path id="Trazado_796911" data-name="Trazado 796911" d="M210.726,387.525c-1.289-2.072-4.564-2.43-6.526-.945a5.762,5.762,0,0,0-1.638,6.594,8.6,8.6,0,0,0,5.354,4.72,16.469,16.469,0,0,0,7.363.48c-1.346-3.312-2.108-6.918-4.553-10.849" transform="translate(-139.962 -250.146)" fill="#eb7563"/>
            <path id="Trazado_796912" data-name="Trazado 796912" d="M202.07,391.973a5.393,5.393,0,0,1,8.218-5.683" transform="translate(-139.839 -250.003)" fill="none" stroke="#c43945" stroke-linecap="round" stroke-linejoin="round" stroke-width="2"/>
            <path id="Trazado_796913" data-name="Trazado 796913" d="M346.707,396.573a23.831,23.831,0,0,0,10.737-.118,12.885,12.885,0,0,0,8.264-6.487c1.556-3.258,1.133-7.528-1.466-10.034a7.381,7.381,0,0,0-10.29.517c-2.594,5.431-5.189,10.862-7.244,16.122" transform="translate(-227.336 -245.562)" fill="#ffa382"/>
            <path id="Trazado_796914" data-name="Trazado 796914" d="M357.748,387.525c1.289-2.072,4.564-2.43,6.526-.945a5.762,5.762,0,0,1,1.638,6.594,8.6,8.6,0,0,1-5.354,4.72,16.468,16.468,0,0,1-7.363.48c1.346-3.312,2.108-6.918,4.553-10.849" transform="translate(-231.257 -250.146)" fill="#eb7563"/>
            <path id="Trazado_796915" data-name="Trazado 796915" d="M373.721,391.973a5.393,5.393,0,0,0-8.218-5.683" transform="translate(-238.697 -250.003)" fill="none" stroke="#c43945" stroke-linecap="round" stroke-linejoin="round" stroke-width="2"/>
            <path id="Trazado_796916" data-name="Trazado 796916" d="M194.921,286.348c-2.8-3.1-5.3-6.734-6-11a9.217,9.217,0,0,1-7.761-5.99,9.894,9.894,0,0,1,1.72-9.462,13.456,13.456,0,0,1-5.109-10.13,14.749,14.749,0,0,1,4.4-10.628,17.02,17.02,0,0,1,10.025-4.648c-2-1.99-1.672-5.6.023-7.764s4.344-3.163,6.922-3.688a27.879,27.879,0,0,1,18.74,2.826,6.694,6.694,0,0,1,2.381-5.971,6.773,6.773,0,0,1,6.1-.848,13.867,13.867,0,0,1,5.388,3.538,46.535,46.535,0,0,1,6.281,8.108,21.815,21.815,0,0,1,9.143-2.632,11.319,11.319,0,0,1,8.69,3.483,9.794,9.794,0,0,1,1.764,9.931,15.9,15.9,0,0,1,6.406,6.587c3.141,6.249.68,16-4.5,19.061C258.011,275.3,256,280,250.141,289.509c-17.65,2.359-36.127,2.366-55.22-3.161" transform="translate(-125.219 -149.212)" fill="#4f2b36"/>
            <path id="Trazado_796917" data-name="Trazado 796917" d="M275.935,315.893a86.662,86.662,0,0,1-1.032,9.861c-.945,5.312-2.88,11.515-7.108,16.55-4.648,5.542-12.065,9.671-23.991,9.671-11.313,0-18.568-4.173-23.219-9.652-4.32-5.083-6.4-11.289-7.389-16.321a44.234,44.234,0,0,1-.894-9.327c2.085-13.757,12.275-25.367,12.564-25.656-.19.36-4.525,8.512-.752,8.512,3.319,0,11.548-4.528,14.774-7.531-3.349,5.037-1.614,7.318,3.473,6.645,6.118-.809,16.9-7.5,16.9-7.5s.251,10.6,4.632,11.064c2.433.26,4.316-2.512,4.316-2.512,3.88,5.079,7.728,16.194,7.728,16.194" transform="translate(-146.09 -192.934)" fill="#ffa382"/>
            <path id="Trazado_796918" data-name="Trazado 796918" d="M350.111,376.392c-.945,5.312-2.88,11.515-7.108,16.55a10.667,10.667,0,0,1-6.009-6.9,9.375,9.375,0,0,1,4.062-10.178,8.457,8.457,0,0,1,9.054.526" transform="translate(-221.299 -243.572)" fill="#eb6563"/>
            <path id="Trazado_796919" data-name="Trazado 796919" d="M344.355,389.738l-1.2,2.822" transform="translate(-225.188 -252.603)" fill="none" stroke="#c43945" stroke-linecap="round" stroke-linejoin="round" stroke-width="2"/>
            <path id="Trazado_796920" data-name="Trazado 796920" d="M353.526,386.316l-1.887,6.531" transform="translate(-230.317 -250.535)" fill="none" stroke="#c43945" stroke-linecap="round" stroke-linejoin="round" stroke-width="2"/>
            <path id="Trazado_796921" data-name="Trazado 796921" d="M361.32,391.191l-.993,2.247" transform="translate(-235.568 -253.481)" fill="none" stroke="#c43945" stroke-linecap="round" stroke-linejoin="round" stroke-width="2"/>
            <path id="Trazado_796922" data-name="Trazado 796922" d="M228.007,386.043a10.665,10.665,0,0,1-6.044,6.918c-4.32-5.083-6.4-11.289-7.389-16.321a8.436,8.436,0,0,1,9.371-.775,9.375,9.375,0,0,1,4.062,10.178" transform="translate(-147.469 -243.572)" fill="#eb6563"/>
            <path id="Trazado_796923" data-name="Trazado 796923" d="M223.966,393.367l-.509,3.054" transform="translate(-152.839 -254.797)" fill="none" stroke="#c43945" stroke-linecap="round" stroke-linejoin="round" stroke-width="2"/>
            <path id="Trazado_796924" data-name="Trazado 796924" d="M231.34,386.932l-.509,7.761" transform="translate(-157.296 -250.907)" fill="none" stroke="#c43945" stroke-linecap="round" stroke-linejoin="round" stroke-width="2"/>
            <path id="Trazado_796925" data-name="Trazado 796925" d="M240.08,394.011l-.7,2.608" transform="translate(-162.463 -255.186)" fill="none" stroke="#c43945" stroke-linecap="round" stroke-linejoin="round" stroke-width="2"/>
            <path id="Trazado_796926" data-name="Trazado 796926" d="M230.061,337.3c.537-4.171,3.586-7.615,8.01-7.615s7.526,1.821,6.719,9.568c-.264,2.533-1.8,4.283-5.073,4.4-4.421.157-10.34-1.037-9.656-6.353" transform="translate(-156.797 -216.304)" fill="#fff"/>
            <path id="Trazado_796927" data-name="Trazado 796927" d="M243.035,330.316a8.021,8.021,0,0,0-5.257-1.061,9.1,9.1,0,0,0-7.871,5.812,10.7,10.7,0,0,0-.631,5.416,7.844,7.844,0,0,1-.858-5.863,8.825,8.825,0,0,1,3.38-5.207c3.274-2.312,8.755-2.584,11.237.9" transform="translate(-155.706 -215.095)" fill="#4f2b36"/>
            <path id="Trazado_796928" data-name="Trazado 796928" d="M244.2,339.493c0-3.09,2.125-5.6,4.747-5.6s4.747,2.505,4.747,5.6-2.125,5.6-4.747,5.6-4.747-2.505-4.747-5.6" transform="translate(-165.374 -218.851)" fill="#4f2b36"/>
            <path id="Trazado_796929" data-name="Trazado 796929" d="M247.887,337.982a2.406,2.406,0,1,1,.4,3.646,2.612,2.612,0,0,1-.4-3.646" transform="translate(-167.275 -220.506)" fill="#fff"/>
            <path id="Trazado_796930" data-name="Trazado 796930" d="M332.319,337.3c-.537-4.171-3.586-7.615-8.01-7.615s-7.526,1.821-6.719,9.568c.264,2.533,1.152,4.3,4.424,4.412,4.421.157,10.989-1.05,10.305-6.366" transform="translate(-209.659 -216.304)" fill="#fff"/>
            <path id="Trazado_796931" data-name="Trazado 796931" d="M319.463,330.316c2.483-3.487,7.962-3.214,11.237-.9a8.825,8.825,0,0,1,3.38,5.207,7.844,7.844,0,0,1-.858,5.863,10.7,10.7,0,0,0-.631-5.416,9.1,9.1,0,0,0-7.871-5.812,8.019,8.019,0,0,0-5.257,1.06" transform="translate(-210.868 -215.095)" fill="#4f2b36"/>
            <path id="Trazado_796932" data-name="Trazado 796932" d="M316.97,339.493c0-3.09,2.125-5.6,4.747-5.6s4.747,2.505,4.747,5.6-2.126,5.6-4.747,5.6-4.747-2.505-4.747-5.6" transform="translate(-209.362 -218.851)" fill="#4f2b36"/>
            <path id="Trazado_796933" data-name="Trazado 796933" d="M320.661,337.982a2.406,2.406,0,1,1,.4,3.646,2.612,2.612,0,0,1-.4-3.646" transform="translate(-211.263 -220.506)" fill="#fff"/>
            <path id="Trazado_796934" data-name="Trazado 796934" d="M318.4,309.146a8.638,8.638,0,0,1,8.776-3.093,9.29,9.29,0,0,1,6.556,6.957,17.369,17.369,0,0,0-15.332-3.864" transform="translate(-210.224 -201.875)" fill="#4f2b36"/>
            <path id="Trazado_796935" data-name="Trazado 796935" d="M241.844,309.241a8.637,8.637,0,0,0-8.741-3.191,9.288,9.288,0,0,0-6.633,6.884c3.748-4.039,10.66-5.313,15.373-3.693" transform="translate(-154.66 -201.886)" fill="#4f2b36"/>
            <path id="Trazado_796936" data-name="Trazado 796936" d="M287.938,358.57s-.275,2.98.2,3.758" transform="translate(-191.766 -233.764)" fill="none" stroke="#c43945" stroke-linecap="round" stroke-linejoin="round" stroke-width="2"/>
            <path id="Trazado_796937" data-name="Trazado 796937" d="M262.452,379.22a31.335,31.335,0,0,0,14.585-.368,17.449,17.449,0,0,1,3.5-.754,4.243,4.243,0,0,1,3.291,1.068,4.972,4.972,0,0,1,1.026,3.584,16.529,16.529,0,0,1-1.112,6.166,13.58,13.58,0,0,1-9.026,7.763,14.291,14.291,0,0,1-11.911-2.257,12.961,12.961,0,0,1-5.243-10.468,5.85,5.85,0,0,1,1.064-3.58,3.785,3.785,0,0,1,3.827-1.153" transform="translate(-173.451 -245.562)" fill="#c43945"/>
          </g>
        </g>
        <g id="Grupo_1064053" data-name="Grupo 1064053" transform="translate(101.88 149.557)">
          <g id="Grupo_1064052" data-name="Grupo 1064052" clip-path="url(#clip-path-6)">
            <path id="Trazado_796938" data-name="Trazado 796938" d="M257.424,377.507a13.852,13.852,0,0,0,2.222,5.118c.536.761,1.355,1.543,2.261,1.329a1.758,1.758,0,0,0,1.2-1.577,18.2,18.2,0,0,1,0-1.972,25.815,25.815,0,0,1,17.615-.459,4.9,4.9,0,0,0-.787,1.671,1.667,1.667,0,0,0,.553,1.669,1.614,1.614,0,0,0,1.56.071,3.881,3.881,0,0,0,1.26-1.02,15.368,15.368,0,0,0,2.8-4.563,5.512,5.512,0,0,0-3.563-3.861,16.032,16.032,0,0,0-5.4-.8c-6.723-.21-13.892-.212-19.721,4.392" transform="translate(-257.477 -375.042)" fill="#fff"/>
            <path id="Trazado_796939" data-name="Trazado 796939" d="M266.079,410.428a14.453,14.453,0,0,1,23.387-.6,19.244,19.244,0,0,1-11.9,4.636c-4.338.131-8.707-1.274-11.491-4.037" transform="translate(-262.709 -393.849)" fill="#eb6563"/>
          </g>
        </g>
        <g id="Grupo_1064061" data-name="Grupo 1064061" transform="translate(17.772 17.03)">
          <g id="Grupo_1064060" data-name="Grupo 1064060" clip-path="url(#clip-path-3)">
            <path id="Trazado_796941" data-name="Trazado 796941" d="M204.949,489.861,260.4,471.822l-3.992-8.034s-34.011-6.629-51.559,12.486c-17.547-19.115-51.558-12.486-51.558-12.486l-3.992,8.034,55.455,18.039v.062l.095-.031.1.031Z" transform="translate(-108.017 -296.69)" fill="#fff"/>
            <path id="Trazado_796942" data-name="Trazado 796942" d="M200.7,489.474v18.744l-4.94-.233-43.2-2.026-3.652-10.385L142.554,477.5l-.237-.677.738-.822c18.6-3.793,40.129-4.588,52.571,9.932a4.115,4.115,0,0,0-.563,2.518c.242,1.2,5.639,1.02,5.639,1.02" transform="translate(-103.794 -303.321)" fill="#ff9e3d"/>
            <g id="Grupo_1064056" data-name="Grupo 1064056" transform="translate(45.115 181.75)" opacity="0.302">
              <g id="Grupo_1064055" data-name="Grupo 1064055">
                <g id="Grupo_1064054" data-name="Grupo 1064054" clip-path="url(#clip-path-8)">
                  <path id="Trazado_796943" data-name="Trazado 796943" d="M205.836,525.441l-43.2-2.026-3.652-10.385c7.856-6.354,23.733-13.015,45.675-9.554l-.9,2.325Z" transform="translate(-158.983 -502.528)" fill="#de662a"/>
                </g>
              </g>
            </g>
            <path id="Trazado_796944" data-name="Trazado 796944" d="M200.7,489.474v.923c-2.238.235-6.016-.277-6.7-1.077-.866-1.015.29-3.38.29-3.38-12.894-12.894-31.682-12.49-51.977-9.115l.738-.822c18.6-3.793,40.129-4.588,52.571,9.932a4.115,4.115,0,0,0-.563,2.518c.242,1.2,5.639,1.02,5.639,1.02" transform="translate(-103.794 -303.321)" fill="#ffca75"/>
            <path id="Trazado_796945" data-name="Trazado 796945" d="M289.559,489.474v18.744l4.94-.233,43.2-2.026,3.652-10.385,6.355-18.071.237-.677-.739-.822c-18.6-3.793-40.129-4.588-52.571,9.932a4.115,4.115,0,0,1,.563,2.518c-.242,1.2-5.639,1.02-5.639,1.02" transform="translate(-192.793 -303.321)" fill="#ff9e3d"/>
            <g id="Grupo_1064059" data-name="Grupo 1064059" transform="translate(101.705 181.75)" opacity="0.302">
              <g id="Grupo_1064058" data-name="Grupo 1064058">
                <g id="Grupo_1064057" data-name="Grupo 1064057" clip-path="url(#clip-path-8)">
                  <path id="Trazado_796946" data-name="Trazado 796946" d="M302.047,525.441l43.2-2.026L348.9,513.03c-7.856-6.354-23.733-13.015-45.675-9.554l.9,2.325Z" transform="translate(-302.047 -502.528)" fill="#de662a"/>
                </g>
              </g>
            </g>
            <path id="Trazado_796947" data-name="Trazado 796947" d="M289.559,489.474v.923c2.238.235,6.016-.277,6.7-1.077.866-1.015-.29-3.38-.29-3.38,12.894-12.894,31.682-12.49,51.977-9.115l-.739-.822c-18.6-3.793-40.129-4.588-52.571,9.932a4.115,4.115,0,0,1,.563,2.518c-.242,1.2-5.639,1.02-5.639,1.02" transform="translate(-192.793 -303.321)" fill="#ffca75"/>
            <path id="Trazado_796948" data-name="Trazado 796948" d="M143.391,523.672c-3.125-3.125-8.59-10.354-8.46-13.311s3.258-7.082,6.282-9.083,11-4.486,11.574-1.865-5.269,5.459-5.952,6.324,8.043-5.208,10.2-2.392-4.357,7.387-4.357,7.387,6.59-4.827,7.759-.956-2.763,5.474-2.763,5.474,3.3-1.608,3.72,1.009-8.039,10.469-12.117,10.469c-3.063-.024-4.994-2.162-5.889-3.058" transform="translate(-99.329 -318.211)" fill="#ffa382"/>
            <path id="Trazado_796949" data-name="Trazado 796949" d="M150.927,521.047a17.24,17.24,0,0,1,5.936-3.381" transform="translate(-108.998 -329.928)" fill="none" stroke="#c43945" stroke-linecap="round" stroke-linejoin="round" stroke-width="2"/>
            <path id="Trazado_796950" data-name="Trazado 796950" d="M161.533,535.632l7.158-4.584" transform="translate(-115.409 -338.017)" fill="none" stroke="#c43945" stroke-linecap="round" stroke-linejoin="round" stroke-width="2"/>
            <path id="Trazado_796951" data-name="Trazado 796951" d="M169.887,547.377a56.369,56.369,0,0,0,9.232-6.166" transform="translate(-120.459 -344.159)" fill="none" stroke="#c43945" stroke-linecap="round" stroke-linejoin="round" stroke-width="2"/>
            <path id="Trazado_796952" data-name="Trazado 796952" d="M406,523.672c3.125-3.125,8.59-10.354,8.46-13.311s-3.258-7.082-6.282-9.083-11-4.486-11.574-1.865,5.269,5.459,5.952,6.324-8.043-5.208-10.2-2.392,4.357,7.387,4.357,7.387-6.59-4.827-7.759-.956,2.763,5.474,2.763,5.474-3.3-1.608-3.72,1.009,8.039,10.469,12.117,10.469c3.063-.024,4.994-2.162,5.889-3.058" transform="translate(-252.282 -318.211)" fill="#ffa382"/>
            <path id="Trazado_796953" data-name="Trazado 796953" d="M429.86,521.047a17.24,17.24,0,0,0-5.936-3.381" transform="translate(-274.009 -329.928)" fill="none" stroke="#c43945" stroke-linecap="round" stroke-linejoin="round" stroke-width="2"/>
            <path id="Trazado_796954" data-name="Trazado 796954" d="M417.388,535.632l-7.158-4.584" transform="translate(-265.732 -338.017)" fill="none" stroke="#c43945" stroke-linecap="round" stroke-linejoin="round" stroke-width="2"/>
            <path id="Trazado_796955" data-name="Trazado 796955" d="M405.863,547.377a56.387,56.387,0,0,1-9.233-6.166" transform="translate(-257.511 -344.159)" fill="none" stroke="#c43945" stroke-linecap="round" stroke-linejoin="round" stroke-width="2"/>
          </g>
        </g>
        <g id="Grupo_1064063" data-name="Grupo 1064063">
          <g id="Grupo_1064062" data-name="Grupo 1064062" clip-path="url(#clip-path-2)">
            <path id="Trazado_796956" data-name="Trazado 796956" d="M171.383,101.283l6.3-.412a2.642,2.642,0,0,1,1.123.1.881.881,0,0,1,.5.514,4.249,4.249,0,0,1,.129,1.969.8.8,0,0,1-.36.535,2.611,2.611,0,0,1-1.19.311l-8.339.546q-1.622.106-1.957-.756a3.649,3.649,0,0,1-.216-1.173l-.843-12.879a6.847,6.847,0,0,1-.018-.8,1.857,1.857,0,0,1,.18-.628q.284-.647,1.766-.744,1.622-.106,1.979.731a4.617,4.617,0,0,1,.195,1.2Z" transform="translate(-100.643 -53.102)" fill="#ff6e70"/>
            <path id="Trazado_796957" data-name="Trazado 796957" d="M211.18,101.023a2.82,2.82,0,0,1-.568,2.154,2.21,2.21,0,0,1-1.519.786l-5.49.359a1.273,1.273,0,0,0,.836,1.039,3.042,3.042,0,0,0,1.558.34,6.388,6.388,0,0,0,2.09-.416l.249-.109a2.345,2.345,0,0,1,.91-.315q.741-.049,1.342.959a2.566,2.566,0,0,1,.371,1.046q.135,2.062-4.8,2.384a7.457,7.457,0,0,1-3.085-.391,5.179,5.179,0,0,1-2.176-1.428,6.671,6.671,0,0,1-1.734-4.1,6.072,6.072,0,0,1,1.582-4.792,6.688,6.688,0,0,1,4.6-2.057,5.277,5.277,0,0,1,4.874,1.962,4.719,4.719,0,0,1,.96,2.577m-4.843,1q.88-.058.832-.8a1.047,1.047,0,0,0-.461-.83,1.82,1.82,0,0,0-1.18-.248,2.349,2.349,0,0,0-1.454.712,1.725,1.725,0,0,0-.655,1.357Z" transform="translate(-120.371 -58.308)" fill="#ff6e70"/>
            <path id="Trazado_796958" data-name="Trazado 796958" d="M241.491,94.212q1.406.513,1.462,1.37a1.74,1.74,0,0,1-.134.8,3.734,3.734,0,0,0-.159.406l-5.181,13.972q-.157.452-.269.692a1.433,1.433,0,0,1-.376.467,1.132,1.132,0,0,1-.682.254,3.5,3.5,0,0,1-1.25-.267q-1.406-.513-1.46-1.347a32.117,32.117,0,0,1,1.877-5.45L230.2,97.65a2.591,2.591,0,0,1-.538-1.105q-.049-.741,1.154-1.564a2.719,2.719,0,0,1,1.2-.544,1.278,1.278,0,0,1,.73.138,1.409,1.409,0,0,1,.43.356q.14.189,1.415,2.071t2.428,3.505q.091-.379,1.064-2.943t1.043-2.733a2.308,2.308,0,0,1,.241-.411,1,1,0,0,1,.82-.449,3.315,3.315,0,0,1,1.307.241" transform="translate(-138.817 -56.798)" fill="#ff6e70"/>
            <path id="Trazado_796959" data-name="Trazado 796959" d="M284.063,80.47a1.829,1.829,0,0,1,1.269-.688,4.084,4.084,0,0,1,1.108.044,2.025,2.025,0,0,1,.619.227.976.976,0,0,1,.357.477,4.761,4.761,0,0,1,.2,1.22l.844,12.9a6.656,6.656,0,0,1,.017.8,1.846,1.846,0,0,1-.18.628q-.283.647-1.766.744-1.437.094-1.823-.485a1.843,1.843,0,0,1-.261-.623,7.676,7.676,0,0,1-.09-.843l-.541-8.27-.283.3a2.9,2.9,0,0,1-1.574.824,2,2,0,0,1-1.454-.719,2.309,2.309,0,0,1-.824-1.388,2,2,0,0,1,.744-1.421L284,80.521Z" transform="translate(-169.047 -48.214)" fill="#ff6e70"/>
            <path id="Trazado_796960" data-name="Trazado 796960" d="M317.424,88.818a5.2,5.2,0,0,1-1.614,4.3,6.583,6.583,0,0,1-8.547.571,5.2,5.2,0,0,1-2.162-4.07,4.054,4.054,0,0,1,.351-1.919,4.743,4.743,0,0,1,.851-1.393l.458-.472q-.171-.128-.418-.344a4.3,4.3,0,0,1-.68-.968,3.609,3.609,0,0,1-.487-1.585,4.756,4.756,0,0,1,1.468-3.865,5.921,5.921,0,0,1,3.888-1.743,5.7,5.7,0,0,1,4.036,1.248,4.96,4.96,0,0,1,1.92,3.736,3.329,3.329,0,0,1-.244,1.435,4.23,4.23,0,0,1-.612,1.134l-.324.393a6.046,6.046,0,0,1,.553.441,6.209,6.209,0,0,1,.917,1.208,3.972,3.972,0,0,1,.647,1.888m-7.606,1.8a2.056,2.056,0,0,0,1.589.454,1.979,1.979,0,0,0,1.492-.656,1.747,1.747,0,0,0,.432-1.227,1.725,1.725,0,0,0-.6-1.159,2,2,0,0,0-1.566-.456,2.064,2.064,0,0,0-1.5.646,1.678,1.678,0,0,0-.455,1.228,1.719,1.719,0,0,0,.612,1.17m2.56-8.17a1.239,1.239,0,0,0-.451-.843,1.564,1.564,0,0,0-1.2-.329,1.507,1.507,0,0,0-1.121.469,1.245,1.245,0,0,0-.314.892,1.268,1.268,0,0,0,.464.865,1.542,1.542,0,0,0,1.185.341,1.469,1.469,0,0,0,1.108-.491,1.3,1.3,0,0,0,.324-.905" transform="translate(-184.41 -46.735)" fill="#ff6e70"/>
            <path id="Trazado_796961" data-name="Trazado 796961" d="M339.965,77.812a5.3,5.3,0,0,1,1.785-1.7,6.554,6.554,0,0,1,5.605-.379,5.411,5.411,0,0,1,1.978,1.429,7.823,7.823,0,0,1,1.243,2.106,13.94,13.94,0,0,1,.985,4.379,11.007,11.007,0,0,1-1.372,6.766,5.079,5.079,0,0,1-1.765,1.651,6.677,6.677,0,0,1-5.56.352,5.352,5.352,0,0,1-2-1.394,7.888,7.888,0,0,1-1.265-2.081,14.132,14.132,0,0,1-.967-4.473,12.724,12.724,0,0,1,.285-4,9.78,9.78,0,0,1,1.047-2.663m5.414,10.917q2.386-.156,2.089-4.7l-.009-.139q-.3-4.656-2.667-4.5t-2.058,4.822q.306,4.668,2.645,4.515" transform="translate(-204.66 -45.5)" fill="#ff6e70"/>
            <path id="Trazado_796962" data-name="Trazado 796962" d="M381.905,73.64a1,1,0,0,1,.608-.493,4.481,4.481,0,0,1,1.173-.205,3.736,3.736,0,0,1,1.18.074,1.08,1.08,0,0,1,.658.446,1.755,1.755,0,0,1,.26.6,7.044,7.044,0,0,1,.087.809l.843,12.879a3.057,3.057,0,0,1-.133,1.347,1.093,1.093,0,0,1-.634.612,3.885,3.885,0,0,1-1.115.212,3.934,3.934,0,0,1-1.073-.046,1.822,1.822,0,0,1-.621-.239.905.905,0,0,1-.332-.443,3.9,3.9,0,0,1-.218-1.2L382.4,85.17l-6.278.411q-1.622.106-1.981-.755a3.442,3.442,0,0,1-.181-.988,4.5,4.5,0,0,1,.009-.931l1.415-7.886q.1-.542.19-.828a1.3,1.3,0,0,1,.383-.56,1.228,1.228,0,0,1,.782-.307,3.97,3.97,0,0,1,1.076.093q1.65.333,1.719,1.376a3.968,3.968,0,0,1-.1.984.169.169,0,0,0-.019.071l-1.043,5.745,3.776-.247-.414-6.324a6.359,6.359,0,0,1-.017-.79,1.656,1.656,0,0,1,.182-.593" transform="translate(-226.028 -44.081)" fill="#ff6e70"/>
            <path id="Trazado_796963" data-name="Trazado 796963" d="M179.706,155.216a.982.982,0,0,1,.583-.515,4.981,4.981,0,0,1,2.34-.153.973.973,0,0,1,.646.446,1.983,1.983,0,0,1,.248.6,6.761,6.761,0,0,1,.087.8l.9,13.829a6.653,6.653,0,0,1,.017.8,1.65,1.65,0,0,1-.181.605q-.306.648-1.916.754t-1.87-1.017a3.421,3.421,0,0,1-2.637,1.289,5.152,5.152,0,0,1-3.918-1.57,6.112,6.112,0,0,1-.544-8.491,5.149,5.149,0,0,1,3.668-2.078,3.261,3.261,0,0,1,2.74.984l-.318-4.865a6.922,6.922,0,0,1-.018-.8,1.884,1.884,0,0,1,.169-.616m-2.94,12.836a1.955,1.955,0,0,0,1.5.53,1.849,1.849,0,0,0,1.384-.719,2.011,2.011,0,0,0,.477-1.415,2.144,2.144,0,0,0-.636-1.366,1.827,1.827,0,0,0-1.514-.553,1.874,1.874,0,0,0-1.441.735,2.09,2.09,0,0,0-.464,1.438,1.963,1.963,0,0,0,.693,1.35" transform="translate(-103.966 -93.369)" fill="#ff6e70"/>
            <path id="Trazado_796964" data-name="Trazado 796964" d="M218.763,171.1a2.82,2.82,0,0,1-.568,2.154,2.21,2.21,0,0,1-1.519.786l-5.49.359a1.274,1.274,0,0,0,.836,1.039,3.05,3.05,0,0,0,1.558.339,6.388,6.388,0,0,0,2.09-.416l.249-.109a2.343,2.343,0,0,1,.91-.315q.741-.049,1.342.959a2.565,2.565,0,0,1,.371,1.046q.135,2.062-4.8,2.385a7.454,7.454,0,0,1-3.084-.392,5.174,5.174,0,0,1-2.176-1.428,6.67,6.67,0,0,1-1.734-4.1,6.069,6.069,0,0,1,1.582-4.792,6.688,6.688,0,0,1,4.6-2.057,5.277,5.277,0,0,1,4.874,1.962,4.719,4.719,0,0,1,.96,2.577m-4.843,1q.879-.058.831-.8a1.047,1.047,0,0,0-.461-.83,1.82,1.82,0,0,0-1.18-.249,2.348,2.348,0,0,0-1.454.712A1.725,1.725,0,0,0,211,172.3Z" transform="translate(-124.955 -100.667)" fill="#ff6e70"/>
            <path id="Trazado_796965" data-name="Trazado 796965" d="M265.9,164.236a3.038,3.038,0,0,1,1.369.132,1.1,1.1,0,0,1,.588.636,4.138,4.138,0,0,1,.217,1.172,3.726,3.726,0,0,1-.074,1.18.97.97,0,0,1-.458.634,3.05,3.05,0,0,1-1.418.372l-9.057.593a1.928,1.928,0,0,1-1.477-.532,2.039,2.039,0,0,1-.7-1.42,3.553,3.553,0,0,1,.718-2.362,8.359,8.359,0,0,1,1.978-1.945q1.178-.832,2.358-1.643a9.514,9.514,0,0,0,1.988-1.793,2.854,2.854,0,0,0,.74-2.026,1.67,1.67,0,0,0-.2-.58,2.64,2.64,0,0,0-.4-.6,1.833,1.833,0,0,0-.644-.411,2.638,2.638,0,0,0-1.172-.133,1.763,1.763,0,0,0-1.25.629,1.924,1.924,0,0,0-.543,1.117l-.058.539.009.139a6.132,6.132,0,0,1,.015.767,1.654,1.654,0,0,1-.182.593q-.312.579-1.771.674-1.622.106-1.981-.754a4.335,4.335,0,0,1-.193-1.174,6.289,6.289,0,0,1,1.443-4.433,6.3,6.3,0,0,1,9.048-.568,6.432,6.432,0,0,1,2.026,4.3,5.625,5.625,0,0,1-.415,2.54,6.074,6.074,0,0,1-1.265,1.99,10.968,10.968,0,0,1-2.923,2.262l-.564.269.008.116Z" transform="translate(-153.704 -91.501)" fill="#ff6e70"/>
            <path id="Trazado_796966" data-name="Trazado 796966" d="M291.682,151.547a5.293,5.293,0,0,1,1.785-1.7,6.554,6.554,0,0,1,5.605-.379,5.407,5.407,0,0,1,1.978,1.43A7.827,7.827,0,0,1,302.294,153a13.939,13.939,0,0,1,.984,4.379,11,11,0,0,1-1.372,6.766,5.076,5.076,0,0,1-1.765,1.651,6.677,6.677,0,0,1-5.56.352,5.351,5.351,0,0,1-2-1.394,7.868,7.868,0,0,1-1.264-2.081,14.12,14.12,0,0,1-.968-4.473,12.709,12.709,0,0,1,.285-4,9.754,9.754,0,0,1,1.047-2.663m5.414,10.917q2.386-.156,2.089-4.7l-.009-.138q-.3-4.657-2.667-4.5t-2.058,4.822q.306,4.668,2.645,4.514" transform="translate(-175.476 -90.068)" fill="#ff6e70"/>
            <path id="Trazado_796967" data-name="Trazado 796967" d="M329.3,148.086a1.829,1.829,0,0,1,1.269-.688,4.084,4.084,0,0,1,1.108.044,2.029,2.029,0,0,1,.619.227.976.976,0,0,1,.357.477,4.765,4.765,0,0,1,.2,1.221l.844,12.9a6.65,6.65,0,0,1,.017.8,1.846,1.846,0,0,1-.18.628q-.283.647-1.766.744-1.436.094-1.823-.485a1.847,1.847,0,0,1-.262-.623,7.712,7.712,0,0,1-.09-.843l-.541-8.27-.283.3a2.9,2.9,0,0,1-1.574.824,2,2,0,0,1-1.454-.719,2.314,2.314,0,0,1-.824-1.388,2,2,0,0,1,.745-1.421l3.574-3.677Z" transform="translate(-196.392 -89.084)" fill="#ff6e70"/>
            <path id="Trazado_796968" data-name="Trazado 796968" d="M362.017,156.936a5.16,5.16,0,0,1-1.423,4.025,5.739,5.739,0,0,1-3.963,1.841,5.448,5.448,0,0,1-4.667-1.637,7.824,7.824,0,0,1-1.855-4.892,11.055,11.055,0,0,1,2.03-7.554,8.547,8.547,0,0,1,6.675-3.415,2.826,2.826,0,0,1,1.3.136,1.105,1.105,0,0,1,.587.624,3.763,3.763,0,0,1,.212,1.1,3.913,3.913,0,0,1-.046,1.073,1.832,1.832,0,0,1-.238.621.907.907,0,0,1-.443.331,4.54,4.54,0,0,1-1.335.226,5.359,5.359,0,0,0-1.82.445,4.209,4.209,0,0,0-1.35.879,4.27,4.27,0,0,0-1.139,1.8l-.094.332a4.077,4.077,0,0,1,1.688-.506,5.578,5.578,0,0,1,4.026,1.26,4.583,4.583,0,0,1,1.857,3.31m-5.727,2.073q1.784-.117,1.682-1.669a1.494,1.494,0,0,0-.471-.969,1.641,1.641,0,0,0-1.327-.379,1.976,1.976,0,0,0-1.339.518,1.2,1.2,0,0,0-.418.9,2.952,2.952,0,0,0,.1.668,1.984,1.984,0,0,0,.254.495q.359.513,1.517.436" transform="translate(-211.601 -87.82)" fill="#ff6e70"/>
          </g>
        </g>
      </g>
    </g>
  </g>
</svg>
