<svg xmlns="http://www.w3.org/2000/svg" xmlns:xlink="http://www.w3.org/1999/xlink" width="510.515" height="400" viewBox="0 0 510.515 400">
  <defs>
    <clipPath id="clip-path">
      <rect id="Rectángulo_373933" data-name="Rectángulo 373933" width="510.515" height="400" fill="none"/>
    </clipPath>
  </defs>
  <g id="Grupo_1065335" data-name="Grupo 1065335" transform="translate(7235 9047)">
    <g id="Grupo_1065299" data-name="Grupo 1065299" transform="translate(-7235 -9047)">
      <g id="Grupo_1065298" data-name="Grupo 1065298" clip-path="url(#clip-path)">
        <path id="Trazado_799794" data-name="Trazado 799794" d="M454.621,384.141H450.54a1,1,0,0,1,0-2h4.032a1.021,1.021,0,0,1,1.024,1,.979.979,0,0,1-.975,1m-8.111,0h-4.03a1,1,0,0,1,0-2h4.03a1,1,0,0,1,0,2m-8.059,0h-4.032a1,1,0,0,1,0-2h4.032a1,1,0,1,1,0,2m-8.062,0h-4.03a1,1,0,0,1,0-2h4.03a1,1,0,0,1,0,2m-8.06,0H418.3a1,1,0,0,1,0-2h4.031a1,1,0,0,1,0,2m-8.061,0h-4.03a1,1,0,0,1,0-2h4.03a1,1,0,0,1,0,2m-8.061,0h-4.029a1,1,0,0,1,0-2h4.029a1,1,0,0,1,0,2m-8.059,0h-4.03a1,1,0,0,1,0-2h4.03a1,1,0,1,1,0,2m-8.061,0h-4.03a1,1,0,0,1,0-2h4.03a1,1,0,0,1,0,2m-8.06,0H378a1,1,0,1,1,0-2h4.03a1,1,0,0,1,0,2m-8.061,0h-4.03a1,1,0,0,1,0-2h4.03a1,1,0,0,1,0,2m-8.06,0h-4.031a1,1,0,0,1,0-2h4.031a1,1,0,0,1,0,2m-8.061,0h-4.03a1,1,0,0,1,0-2h4.03a1,1,0,0,1,0,2m-8.06,0h-4.031a1,1,0,0,1,0-2h4.031a1,1,0,0,1,0,2m-8.061,0h-4.03a1,1,0,0,1,0-2h4.03a1,1,0,0,1,0,2m-8.06,0h-4.031a1,1,0,1,1,0-2h4.031a1,1,0,0,1,0,2m-8.061,0h-4.03a1,1,0,0,1,0-2h4.03a1,1,0,0,1,0,2m-8.061,0h-4.03a1,1,0,0,1,0-2h4.03a1,1,0,0,1,0,2m-8.06,0h-4.029a1,1,0,0,1,0-2h4.029a1,1,0,1,1,0,2m-8.06,0h-4.03a1,1,0,0,1,0-2h4.03a1,1,0,0,1,0,2m-8.06,0h-4.03a1,1,0,0,1,0-2h4.03a1,1,0,0,1,0,2m-8.061,0h-4.03a1,1,0,0,1,0-2h4.03a1,1,0,0,1,0,2m-8.06,0H273.21a1,1,0,0,1,0-2h4.031a1,1,0,0,1,0,2m-8.061,0h-4.03a1,1,0,0,1,0-2h4.03a1,1,0,1,1,0,2m-8.06,0h-4.031a1,1,0,0,1,0-2h4.031a1,1,0,0,1,0,2m-8.061,0h-4.03a1,1,0,0,1,0-2h4.03a1,1,0,0,1,0,2m-8.06,0h-4.031a1,1,0,0,1,0-2H245a1,1,0,0,1,0,2m-8.061,0h-4.03a1,1,0,0,1,0-2h4.03a1,1,0,0,1,0,2m-8.061,0h-4.03a1,1,0,0,1,0-2h4.03a1,1,0,0,1,0,2m-8.06,0h-4.029a1,1,0,0,1,0-2h4.029a1,1,0,1,1,0,2m-8.06,0h-4.03a1,1,0,0,1,0-2h4.03a1,1,0,0,1,0,2m-8.06,0h-4.031a1,1,0,0,1,0-2H204.7a1,1,0,1,1,0,2m-8.061,0h-4.03a1,1,0,0,1,0-2h4.03a1,1,0,0,1,0,2m-8.06,0h-4.031a1,1,0,0,1,0-2h4.031a1,1,0,0,1,0,2m-8.057-.051-.093,0a12.861,12.861,0,0,1-4.2-1.125,1,1,0,0,1,.836-1.817,10.85,10.85,0,0,0,3.548.949,1,1,0,0,1-.091,2m278.053-.639a1,1,0,0,1-.335-1.943,10.944,10.944,0,0,0,3.206-1.795,1,1,0,0,1,1.254,1.559,12.982,12.982,0,0,1-3.789,2.121,1.015,1.015,0,0,1-.336.058M173.329,380.8a1,1,0,0,1-.693-.279,13.091,13.091,0,0,1-2.594-3.481,1,1,0,1,1,1.78-.912,11.061,11.061,0,0,0,2.2,2.95,1,1,0,0,1-.692,1.722m291.407-2.3a1,1,0,0,1-.845-1.533,10.906,10.906,0,0,0,1.407-3.393,1,1,0,1,1,1.951.443,12.918,12.918,0,0,1-1.666,4.015,1,1,0,0,1-.847.468m-295.008-4.744a1,1,0,0,1-.99-.867,13.063,13.063,0,0,1-.117-1.746v-2.412a1,1,0,0,1,2,0v2.412a11.09,11.09,0,0,0,.1,1.479,1,1,0,0,1-.857,1.125,1.03,1.03,0,0,1-.135.009m296.844-2.968a1,1,0,0,1-1-1v-4.031a1,1,0,0,1,2,0v4.031a1,1,0,0,1-1,1M169.621,365.7a1,1,0,0,1-1-1v-4.03a1,1,0,0,1,2,0v4.03a1,1,0,0,1-1,1m296.951-2.974a1,1,0,0,1-1-1V357.7a1,1,0,1,1,2,0v4.03a1,1,0,0,1-1,1m-296.951-5.087a1,1,0,0,1-1-1v-4.03a1,1,0,0,1,2,0v4.03a1,1,0,0,1-1,1m296.951-2.973a1,1,0,0,1-1-1v-4.031a1,1,0,0,1,2,0v4.031a1,1,0,0,1-1,1m-296.951-5.087a1,1,0,0,1-1-1v-4.031a1,1,0,0,1,2,0v4.031a1,1,0,0,1-1,1M466.572,346.6a1,1,0,0,1-1-1v-4.03a1,1,0,0,1,2,0v4.03a1,1,0,0,1-1,1m-296.951-5.087a1,1,0,0,1-1-1v-4.03a1,1,0,0,1,2,0v4.03a1,1,0,0,1-1,1m296.951-2.973a1,1,0,0,1-1-1v-4.031a1,1,0,0,1,2,0v4.031a1,1,0,0,1-1,1m-296.951-5.087a1,1,0,0,1-1-1v-4.031a1,1,0,0,1,2,0v4.031a1,1,0,0,1-1,1m296.951-2.974a1,1,0,0,1-1-1v-4.03a1,1,0,0,1,2,0v4.03a1,1,0,0,1-1,1M169.621,325.4a1,1,0,0,1-1-1v-4.03a1,1,0,0,1,2,0v4.03a1,1,0,0,1-1,1m296.951-2.974a1,1,0,0,1-1-1v-4.03a1,1,0,0,1,2,0v4.03a1,1,0,0,1-1,1m-296.951-5.086a1,1,0,0,1-1-1V312.3a1,1,0,0,1,2,0v4.031a1,1,0,0,1-1,1m296.951-2.974a1,1,0,0,1-1-1v-4.03a1,1,0,0,1,2,0v4.03a1,1,0,0,1-1,1m-296.951-5.086a1,1,0,0,1-1-1v-4.03a1,1,0,0,1,2,0v4.03a1,1,0,0,1-1,1M466.572,306.3a1,1,0,0,1-1-1v-4.029a1,1,0,0,1,2,0V305.3a1,1,0,0,1-1,1m-296.951-5.086a1,1,0,0,1-1-1v-4.03a1,1,0,0,1,2,0v4.03a1,1,0,0,1-1,1m296.951-2.973a1,1,0,0,1-1-1v-4.03a1,1,0,0,1,2,0v4.03a1,1,0,0,1-1,1m-296.951-5.087a1,1,0,0,1-1-1v-4.03a1,1,0,0,1,2,0v4.03a1,1,0,0,1-1,1m296.951-2.974a1,1,0,0,1-1-1v-4.03a1,1,0,0,1,2,0v4.03a1,1,0,0,1-1,1m-296.951-5.087a1,1,0,0,1-1-1v-4.03a1,1,0,0,1,2,0v4.03a1,1,0,0,1-1,1m296.951-2.973a1,1,0,0,1-1-1V277.09a1,1,0,0,1,2,0v4.031a1,1,0,0,1-1,1m-296.951-5.087a1,1,0,0,1-1-1V272a1,1,0,0,1,2,0v4.03a1,1,0,0,1-1,1m296.951-2.974a1,1,0,0,1-1-1v-4.03a1,1,0,0,1,2,0v4.03a1,1,0,0,1-1,1m-296.951-5.087a1,1,0,0,1-1-1v-4.03a1,1,0,0,1,2,0v4.03a1,1,0,0,1-1,1M466.572,266a1,1,0,0,1-1-1v-4.031a1,1,0,0,1,2,0V265a1,1,0,0,1-1,1m-296.951-5.087a1,1,0,0,1-1-1v-4.031a1,1,0,0,1,2,0v4.031a1,1,0,0,1-1,1m296.951-2.974a1,1,0,0,1-1-1v-4.03a1,1,0,0,1,2,0v4.03a1,1,0,0,1-1,1m-296.951-5.087a1,1,0,0,1-1-1v-4.03a1,1,0,0,1,2,0v4.03a1,1,0,0,1-1,1m296.951-2.973a1,1,0,0,1-1-1v-4.031a1,1,0,0,1,2,0v4.031a1,1,0,0,1-1,1m-296.951-5.087a1,1,0,0,1-1-1v-4.031a1,1,0,0,1,2,0v4.031a1,1,0,0,1-1,1m296.951-2.974a1,1,0,0,1-1-1v-4.03a1,1,0,0,1,2,0v4.03a1,1,0,0,1-1,1m-296.951-5.087a1,1,0,0,1-1-1V231.7a1,1,0,0,1,2,0v4.03a1,1,0,0,1-1,1m296.951-2.974a1,1,0,0,1-1-1v-4.03a1,1,0,0,1,2,0v4.03a1,1,0,0,1-1,1m-296.951-5.086a1,1,0,0,1-1-1V223.64a1,1,0,0,1,2,0v4.031a1,1,0,0,1-1,1M466.572,225.7a1,1,0,0,1-1-1v-4.03a1,1,0,1,1,2,0v4.03a1,1,0,0,1-1,1M169.621,220.61a1,1,0,0,1-1-1v-4.03a1,1,0,0,1,2,0v4.03a1,1,0,0,1-1,1m0-8.061a1,1,0,0,1-1-1V207.52a1,1,0,0,1,2,0v4.029a1,1,0,0,1-1,1m0-8.059a1,1,0,0,1-1-1v-4.03a1,1,0,0,1,2,0v4.03a1,1,0,0,1-1,1m0-8.061a1,1,0,0,1-1-1V191.4a1,1,0,0,1,2,0v4.03a1,1,0,0,1-1,1m0-8.06a1,1,0,0,1-1-1v-4.03a1,1,0,0,1,2,0v4.03a1,1,0,0,1-1,1m0-8.061a1,1,0,0,1-1-1v-4.03a1,1,0,0,1,2,0v4.03a1,1,0,0,1-1,1m296.951-2.973a1,1,0,0,1-1-1V172.3a1,1,0,0,1,2,0v4.031a1,1,0,0,1-1,1m-296.951-5.087a1,1,0,0,1-1-1v-4.031a1,1,0,0,1,2,0v4.031a1,1,0,0,1-1,1m296.951-2.974a1,1,0,0,1-1-1v-4.03a1,1,0,0,1,2,0v4.03a1,1,0,0,1-1,1m-296.951-5.087a1,1,0,0,1-1-1v-4.03a1,1,0,0,1,2,0v4.03a1,1,0,0,1-1,1m296.951-2.973a1,1,0,0,1-1-1v-4.031a1,1,0,1,1,2,0v4.031a1,1,0,0,1-1,1m-296.951-5.087a1,1,0,0,1-1-1V151.1a1,1,0,0,1,2,0v4.031a1,1,0,0,1-1,1m296.951-2.974a1,1,0,0,1-1-1v-4.03a1,1,0,0,1,2,0v4.03a1,1,0,0,1-1,1m-296.951-5.087a1,1,0,0,1-1-1v-4.03a1,1,0,0,1,2,0v4.03a1,1,0,0,1-1,1m296.951-2.974a1,1,0,0,1-1-1v-4.03a1,1,0,0,1,2,0v4.03a1,1,0,0,1-1,1m-296.951-5.087a1,1,0,0,1-1-1v-4.03a1,1,0,0,1,2,0v4.03a1,1,0,0,1-1,1m296.951-2.973a1,1,0,0,1-1-1V132a1,1,0,0,1,2,0v4.03a1,1,0,0,1-1,1m-296.951-5.087a1,1,0,0,1-1-1v-4.03a1,1,0,0,1,2,0v4.03a1,1,0,0,1-1,1m296.951-2.974a1,1,0,0,1-1-1v-4.03a1,1,0,0,1,2,0v4.03a1,1,0,0,1-1,1m-296.951-5.086a1,1,0,0,1-1-1v-4.03a1,1,0,0,1,2,0v4.03a1,1,0,0,1-1,1m296.951-2.974a1,1,0,0,1-1-1V115.88a1,1,0,1,1,2,0v4.031a1,1,0,0,1-1,1m-296.951-5.086a1,1,0,0,1-1-1v-4.03a1,1,0,1,1,2,0v4.03a1,1,0,0,1-1,1m296.951-2.974a1,1,0,0,1-1-1v-4.03a1,1,0,0,1,2,0v4.03a1,1,0,0,1-1,1m-296.951-5.087a1,1,0,0,1-1-1v-4.03a1,1,0,0,1,2,0v4.03a1,1,0,0,1-1,1m296.951-2.973a1,1,0,0,1-1-1V99.76a1,1,0,0,1,2,0v4.031a1,1,0,0,1-1,1M169.621,99.7a1,1,0,0,1-1-1V94.673a1,1,0,0,1,2,0V98.7a1,1,0,0,1-1,1M466.572,96.73a1,1,0,0,1-1-1V91.7a1,1,0,0,1,2,0v4.03a1,1,0,0,1-1,1M169.621,91.643a1,1,0,0,1-1-1v-4.03a1,1,0,0,1,2,0v4.03a1,1,0,0,1-1,1M466.572,88.67a1,1,0,0,1-1-1V83.639a1,1,0,0,1,2,0V87.67a1,1,0,0,1-1,1M169.621,83.583a1,1,0,0,1-1-1V78.552a1,1,0,0,1,2,0v4.031a1,1,0,0,1-1,1m296.951-2.974a1,1,0,0,1-1-1v-4.03a1,1,0,0,1,2,0v4.03a1,1,0,0,1-1,1M169.621,75.522a1,1,0,0,1-1-1v-4.03a1,1,0,0,1,2,0v4.03a1,1,0,0,1-1,1m296.951-2.974a1,1,0,0,1-1-1v-4.03a1,1,0,0,1,2,0v4.03a1,1,0,0,1-1,1M169.621,67.462a1,1,0,0,1-1-1V62.431a1,1,0,1,1,2,0v4.031a1,1,0,0,1-1,1m296.951-2.974a1,1,0,0,1-1-1v-4.03a1,1,0,0,1,2,0v4.03a1,1,0,0,1-1,1M169.621,59.4a1,1,0,0,1-1-1v-4.03a1,1,0,0,1,2,0V58.4a1,1,0,0,1-1,1m296.951-2.974a1,1,0,0,1-1-1V51.4a1,1,0,0,1,2,0v4.03a1,1,0,0,1-1,1M169.621,51.34a1,1,0,0,1-1-1V46.31a1,1,0,1,1,2,0v4.03a1,1,0,0,1-1,1m296.951-2.973a1,1,0,0,1-1-1v-4.03a1,1,0,0,1,2,0v4.03a1,1,0,0,1-1,1M169.621,43.28a1,1,0,0,1-1-1V38.25a1,1,0,0,1,2,0v4.03a1,1,0,0,1-1,1m296.951-2.974a1,1,0,0,1-1-1v-4.03a1,1,0,0,1,2,0v4.03a1,1,0,0,1-1,1M169.621,35.219a1,1,0,0,1-1-1v-4.03a1,1,0,0,1,2,0v4.03a1,1,0,0,1-1,1m296.951-2.973a1,1,0,0,1-1-1V28.859a10.866,10.866,0,0,0-.1-1.5,1,1,0,1,1,1.98-.273,12.939,12.939,0,0,1,.123,1.774v2.387a1,1,0,0,1-1,1M169.924,27.183a1.012,1.012,0,0,1-.224-.025,1,1,0,0,1-.751-1.2,12.852,12.852,0,0,1,1.674-4.012,1,1,0,1,1,1.691,1.068,10.879,10.879,0,0,0-1.416,3.391,1,1,0,0,1-.974.776M465.249,24.4a1,1,0,0,1-.888-.542,11.117,11.117,0,0,0-2.206-2.945,1,1,0,0,1,1.381-1.448,13.087,13.087,0,0,1,2.6,3.477,1,1,0,0,1-.888,1.458M174.143,20.492a1,1,0,0,1-.626-1.78,12.957,12.957,0,0,1,3.794-2.114,1,1,0,0,1,.666,1.885,11,11,0,0,0-3.21,1.789,1,1,0,0,1-.624.22m285.382-1.557a.986.986,0,0,1-.414-.091,10.892,10.892,0,0,0-3.552-.941,1,1,0,0,1-.9-1.086.986.986,0,0,1,1.086-.906,12.876,12.876,0,0,1,4.2,1.115,1,1,0,0,1-.418,1.909M181.6,17.86a1,1,0,0,1-.058-2l.084,0h4a1,1,0,1,1,0,2Zm0-1.03v0Zm270.027,1.029h-4.031a1,1,0,1,1,0-2h4.031a1,1,0,1,1,0,2m-8.061,0h-4.03a1,1,0,1,1,0-2h4.03a1,1,0,1,1,0,2m-8.061,0h-4.03a1,1,0,1,1,0-2h4.03a1,1,0,1,1,0,2m-8.06,0h-4.03a1,1,0,1,1,0-2h4.03a1,1,0,1,1,0,2m-8.061,0h-4.03a1,1,0,1,1,0-2h4.03a1,1,0,1,1,0,2m-8.06,0h-4.03a1,1,0,1,1,0-2h4.03a1,1,0,1,1,0,2m-8.061,0h-4.03a1,1,0,1,1,0-2h4.03a1,1,0,1,1,0,2m-8.06,0h-4.031a1,1,0,1,1,0-2H395.2a1,1,0,1,1,0,2m-8.061,0h-4.03a1,1,0,1,1,0-2h4.03a1,1,0,1,1,0,2m-8.06,0h-4.031a1,1,0,1,1,0-2h4.031a1,1,0,1,1,0,2m-8.061,0h-4.029a1,1,0,1,1,0-2h4.029a1,1,0,1,1,0,2m-8.059,0h-4.031a1,1,0,1,1,0-2h4.031a1,1,0,1,1,0,2m-8.061,0h-4.03a1,1,0,1,1,0-2h4.03a1,1,0,1,1,0,2m-8.061,0H342.8a1,1,0,1,1,0-2h4.03a1,1,0,1,1,0,2m-8.06,0h-4.03a1,1,0,1,1,0-2h4.03a1,1,0,1,1,0,2m-8.061,0h-4.03a1,1,0,1,1,0-2h4.03a1,1,0,1,1,0,2m-8.06,0h-4.03a1,1,0,1,1,0-2h4.03a1,1,0,1,1,0,2m-8.061,0h-4.03a1,1,0,1,1,0-2h4.03a1,1,0,1,1,0,2m-8.06,0H302.5a1,1,0,1,1,0-2h4.031a1,1,0,1,1,0,2m-8.061,0h-4.03a1,1,0,1,1,0-2h4.03a1,1,0,1,1,0,2m-8.06,0h-4.031a1,1,0,1,1,0-2h4.031a1,1,0,1,1,0,2m-8.061,0h-4.03a1,1,0,1,1,0-2h4.03a1,1,0,1,1,0,2m-8.06,0h-4.03a1,1,0,1,1,0-2h4.03a1,1,0,1,1,0,2m-8.06,0H262.2a1,1,0,1,1,0-2h4.03a1,1,0,1,1,0,2m-8.061,0h-4.03a1,1,0,1,1,0-2h4.03a1,1,0,1,1,0,2m-8.06,0h-4.03a1,1,0,1,1,0-2h4.03a1,1,0,1,1,0,2m-8.061,0h-4.03a1,1,0,1,1,0-2h4.03a1,1,0,1,1,0,2m-8.06,0h-4.031a1,1,0,1,1,0-2h4.031a1,1,0,1,1,0,2m-8.061,0H221.9a1,1,0,1,1,0-2h4.03a1,1,0,1,1,0,2m-8.06,0h-4.031a1,1,0,1,1,0-2h4.031a1,1,0,1,1,0,2m-8.061,0h-4.03a1,1,0,1,1,0-2h4.03a1,1,0,1,1,0,2m-8.06,0h-4.031a1,1,0,1,1,0-2h4.031a1,1,0,1,1,0,2m-8.061,0h-4.03a1,1,0,1,1,0-2h4.03a1,1,0,1,1,0,2" fill="#7053e8"/>
      </g>
    </g>
    <path id="Trazado_800964" data-name="Trazado 800964" d="M4.5-2.635h5.964V0H1.074V-14.212H4.5ZM15.344,0H12.035V-10.561h3.309Zm-1.23-14.8h3.475l-2.713,3.065H12.191Zm6.364,4.236.107,1.24A3.581,3.581,0,0,1,23.6-10.756a3.013,3.013,0,0,1,2.465.986A4.693,4.693,0,0,1,26.91-6.8V0h-3.3V-6.667a1.782,1.782,0,0,0-.322-1.176,1.49,1.49,0,0,0-1.171-.376,1.569,1.569,0,0,0-1.435.761V0H17.394V-10.561ZM33.84.2a5.429,5.429,0,0,1-3.934-1.449,5.005,5.005,0,0,1-1.5-3.773V-5.3A6.486,6.486,0,0,1,29-8.16a4.392,4.392,0,0,1,1.752-1.918,5.289,5.289,0,0,1,2.733-.678A4.572,4.572,0,0,1,37-9.375a5.427,5.427,0,0,1,1.288,3.851v1.279h-6.54a2.371,2.371,0,0,0,.771,1.4,2.294,2.294,0,0,0,1.542.508,2.956,2.956,0,0,0,2.44-1.093l1.5,1.776A4.2,4.2,0,0,1,36.266-.307,5.888,5.888,0,0,1,33.84.2ZM33.47-8.219q-1.445,0-1.718,1.913H35.07v-.254a1.629,1.629,0,0,0-.4-1.225A1.592,1.592,0,0,0,33.47-8.219ZM45.563,0a3.714,3.714,0,0,1-.312-.947A3.059,3.059,0,0,1,42.713.2a3.747,3.747,0,0,1-2.538-.9,2.874,2.874,0,0,1-1.044-2.269,2.954,2.954,0,0,1,1.269-2.6,6.464,6.464,0,0,1,3.69-.878H45.1v-.556q0-1.454-1.259-1.454a1.027,1.027,0,0,0-1.171,1.152H39.385a2.953,2.953,0,0,1,1.3-2.489,5.471,5.471,0,0,1,3.324-.957,4.8,4.8,0,0,1,3.192.986,3.428,3.428,0,0,1,1.2,2.7v4.675a4.788,4.788,0,0,0,.449,2.225V0ZM43.5-2.147a1.835,1.835,0,0,0,1.02-.264,1.652,1.652,0,0,0,.581-.6V-4.695h-.957q-1.718,0-1.718,1.542a.942.942,0,0,0,.3.727A1.1,1.1,0,0,0,43.5-2.147Zm12.25-.82a.76.76,0,0,0-.439-.673,6.681,6.681,0,0,0-1.669-.527,7.611,7.611,0,0,1-2.03-.717,3.4,3.4,0,0,1-1.22-1.079,2.576,2.576,0,0,1-.42-1.454,2.919,2.919,0,0,1,1.2-2.4,4.945,4.945,0,0,1,3.143-.942,5.479,5.479,0,0,1,3.358.947,2.961,2.961,0,0,1,1.269,2.489h-3.3q0-1.269-1.337-1.269a1.326,1.326,0,0,0-.869.288.892.892,0,0,0-.351.717.818.818,0,0,0,.429.713,4.058,4.058,0,0,0,1.371.449A11.851,11.851,0,0,1,56.544-6a3.006,3.006,0,0,1,2.382,2.938A2.766,2.766,0,0,1,57.642-.713,5.629,5.629,0,0,1,54.319.2,5.744,5.744,0,0,1,51.9-.293,4.048,4.048,0,0,1,50.239-1.62a3.006,3.006,0,0,1-.6-1.767h3.075a1.271,1.271,0,0,0,.488,1.069,2.008,2.008,0,0,0,1.2.337,1.579,1.579,0,0,0,1.01-.273A.874.874,0,0,0,55.753-2.967Z" transform="translate(-6797.497 -8852.071)" fill="#7053e8"/>
    <g id="Grupo_1065301" data-name="Grupo 1065301" transform="translate(-7235 -9047)">
      <g id="Grupo_1065300" data-name="Grupo 1065300" clip-path="url(#clip-path)">
        <text id="de_acción" data-name="de acción" transform="translate(424.033 211.794)" fill="#7053e8" font-size="19.99" font-family="Roboto-Black, Roboto" font-weight="800"><tspan x="0" y="0">de acción</tspan></text>
        <path id="Trazado_799795" data-name="Trazado 799795" d="M200,0C89.543,0,0,89.543,0,200S89.543,400,200,400s200-89.543,200-200S310.457,0,200,0m0,311.418A111.418,111.418,0,1,1,311.418,200,111.419,111.419,0,0,1,200,311.418" fill="#fff"/>
        <path id="Trazado_799796" data-name="Trazado 799796" d="M310.734,80.834a17.477,17.477,0,0,0-12.105-6.087,4.458,4.458,0,0,1-3.207-7.084l15.966-21.976a189.576,189.576,0,0,0-222.8-.03l.021.03,15.967,21.976a4.458,4.458,0,0,0,7.728-.861,17.5,17.5,0,1,1,17.52,23.992,4.469,4.469,0,0,0-3.294,7.086L141.511,118.5a99.678,99.678,0,0,1,116.977,0l14.98-20.619a4.469,4.469,0,0,1,7.757.943,17.5,17.5,0,1,0,29.509-17.989" fill="#fcf5e9"/>
        <path id="Trazado_799797" data-name="Trazado 799797" d="M346.6,267.8a17.47,17.47,0,0,0,2.048-13.394,4.458,4.458,0,0,1,5.746-5.239l25.835,8.394a189.577,189.577,0,0,0-68.82-211.9l-.022.03L295.421,67.663a4.458,4.458,0,0,0,3.208,7.084,17.5,17.5,0,1,1-17.4,24.076,4.468,4.468,0,0,0-7.757-.943L258.488,118.5a99.678,99.678,0,0,1,36.147,111.252l24.238,7.875a4.469,4.469,0,0,1,1.5,7.669A17.5,17.5,0,1,0,346.6,267.8" fill="#afcdf5"/>
        <path id="Trazado_799798" data-name="Trazado 799798" d="M40.958,229.511a17.473,17.473,0,0,0,6.215,12.04,4.458,4.458,0,0,1-1.569,7.616L19.77,257.561A189.578,189.578,0,0,0,200,388.543v-27.2a4.458,4.458,0,0,0-6.758-3.846,17.5,17.5,0,1,1-.072-29.708,4.468,4.468,0,0,0,6.83-3.8V298.507a99.677,99.677,0,0,1-94.635-68.758l-24.239,7.876A4.469,4.469,0,0,1,75.4,232.3a17.5,17.5,0,1,0-34.447-2.791" fill="#afcdf5"/>
        <path id="Trazado_799799" data-name="Trazado 799799" d="M121.836,57.17a17.475,17.475,0,0,0-9.53,9.632,4.458,4.458,0,0,1-7.728.861L88.611,45.687A189.576,189.576,0,0,0,19.735,257.572l.035-.012L45.6,249.166a4.458,4.458,0,0,0,1.569-7.616A17.5,17.5,0,1,1,75.4,232.3a4.468,4.468,0,0,0,5.721,5.322l24.237-7.875A99.678,99.678,0,0,1,141.512,118.5L126.532,97.88a4.469,4.469,0,0,1,3.294-7.086,17.5,17.5,0,1,0-7.99-33.624" fill="#ffa69d"/>
        <path id="Trazado_799800" data-name="Trazado 799800" d="M179.87,359.686a17.471,17.471,0,0,0,13.371-2.191A4.459,4.459,0,0,1,200,361.341v27.164A189.579,189.579,0,0,0,380.266,257.571l-.036-.011-25.835-8.394a4.458,4.458,0,0,0-5.745,5.239,17.5,17.5,0,1,1-28.276-9.112,4.469,4.469,0,0,0-1.5-7.669l-24.238-7.875A99.677,99.677,0,0,1,200,298.505v25.486a4.468,4.468,0,0,1-6.83,3.8,17.5,17.5,0,1,0-13.3,31.9" fill="#ffa69d"/>
        <path id="Trazado_799801" data-name="Trazado 799801" d="M183.892,356.279a13.272,13.272,0,1,1,.006,0Zm1.547-7.688-4.041-3.873h9.774a1.282,1.282,0,0,0,1.285-1.278v-.863a1.282,1.282,0,0,0-1.278-1.284H181.4l4.041-3.875a1.286,1.286,0,0,0,.039-1.818l-.018-.019-.588-.583a1.28,1.28,0,0,0-1.81,0l0,0-7.1,7.094a1.278,1.278,0,0,0-.005,1.809l.005.005,7.1,7.1a1.28,1.28,0,0,0,1.81.005l0-.005.588-.583a1.287,1.287,0,0,0-.007-1.819l-.014-.014Z" fill="#7053e8"/>
        <path id="Trazado_799802" data-name="Trazado 799802" d="M46.136,232.518a13.274,13.274,0,1,1,17.023,7.912,13.274,13.274,0,0,1-17.023-7.912l0,0m7.752-1.186,2.251-5.125,3.354,9.18a1.281,1.281,0,0,0,1.641.769l.007,0,.8-.294a1.281,1.281,0,0,0,.768-1.641l0-.006-3.354-9.182,5.027,2.466a1.285,1.285,0,0,0,1.721-.587l.011-.023.345-.753a1.279,1.279,0,0,0-.616-1.7l-.006,0-9.1-4.237a1.281,1.281,0,0,0-1.7.616l0,.007L50.8,229.924a1.28,1.28,0,0,0,.616,1.7l.007,0,.749.353a1.287,1.287,0,0,0,1.706-.631l.008-.018Z" fill="#7053e8"/>
        <path id="Trazado_799803" data-name="Trazado 799803" d="M120.975,61.953a13.274,13.274,0,1,1-3.7,18.405,13.273,13.273,0,0,1,3.7-18.405l0,0m2.972,7.257,5.51.985-8.136,5.416a1.28,1.28,0,0,0-.362,1.775l0,.006.474.713a1.282,1.282,0,0,0,1.776.361l.005,0,8.137-5.416-1.217,5.465a1.285,1.285,0,0,0,.975,1.535l.025.006.813.159a1.28,1.28,0,0,0,1.509-1v-.007l1.982-9.841a1.278,1.278,0,0,0-1-1.509h-.007l-9.848-1.977a1.28,1.28,0,0,0-1.509,1l0,.007-.166.812a1.285,1.285,0,0,0,1.013,1.509l.02,0Z" fill="#7053e8"/>
        <path id="Trazado_799804" data-name="Trazado 799804" d="M305.342,81.669a14.784,14.784,0,1,1-.005,0l.005,0m-5.819,5.258.942,5.518-7.854-5.818a1.283,1.283,0,0,0-1.793.262l0,.006-.51.688a1.282,1.282,0,0,0,.263,1.793l.005,0,7.855,5.818-5.554.709a1.285,1.285,0,0,0-1.113,1.438l0,.025.126.819a1.28,1.28,0,0,0,1.451,1.081h.007l9.929-1.473a1.279,1.279,0,0,0,1.081-1.452v-.007l-1.48-9.934a1.278,1.278,0,0,0-1.451-1.081h-.007l-.82.118a1.286,1.286,0,0,0-1.077,1.465l0,.02Z" fill="#7053e8"/>
        <path id="Trazado_799805" data-name="Trazado 799805" d="M344.671,262.67a13.255,13.255,0,1,1,0-.006l0,.006m-6.8-3.9-4.953,2.608,3.093-9.272a1.28,1.28,0,0,0-.8-1.623l-.006,0-.813-.271a1.28,1.28,0,0,0-1.622.806l0,.005-3.094,9.273-2.4-5.06a1.286,1.286,0,0,0-1.712-.613l-.023.012-.739.373a1.279,1.279,0,0,0-.578,1.715l0,.007,4.481,8.982a1.28,1.28,0,0,0,1.715.577l.007,0,8.985-4.489a1.28,1.28,0,0,0,.577-1.715l0-.007-.367-.743a1.285,1.285,0,0,0-1.727-.568l-.018.009Z" fill="#7053e8"/>
        <path id="Trazado_799806" data-name="Trazado 799806" d="M204.915,111v83.929h83.928A83.928,83.928,0,0,0,204.915,111" fill="#fec759"/>
        <path id="Trazado_799807" data-name="Trazado 799807" d="M111.156,194.928h83.929V111a83.929,83.929,0,0,0-83.929,83.928" fill="#fec759"/>
        <path id="Trazado_799808" data-name="Trazado 799808" d="M195.085,289V205.071H111.156A83.929,83.929,0,0,0,195.085,289" fill="#fec759"/>
        <path id="Trazado_799809" data-name="Trazado 799809" d="M288.844,205.072H204.916V289a83.929,83.929,0,0,0,83.928-83.929" fill="#fec759"/>
        <path id="Trazado_799810" data-name="Trazado 799810" d="M238.667,200A38.667,38.667,0,1,1,200,161.333,38.667,38.667,0,0,1,238.667,200" fill="#fff"/>
      </g>
    </g>
    <path id="Trazado_800965" data-name="Trazado 800965" d="M8.321-4.7H3.735V0H.891V-11.8H8.783v2.2H3.735v2.714H8.321Zm5.247,2.5H9.67L8.99,0H5.951l4.327-11.8h2.674L17.311,0H14.256ZM10.351-4.4h2.536L11.615-8.491Zm13.9,1.264a1.169,1.169,0,0,0-.442-.972,5.488,5.488,0,0,0-1.552-.721,14.886,14.886,0,0,1-1.815-.721,3.437,3.437,0,0,1-2.293-3.1,2.775,2.775,0,0,1,.571-1.73,3.7,3.7,0,0,1,1.616-1.167,6.29,6.29,0,0,1,2.35-.417,5.5,5.5,0,0,1,2.281.454,3.611,3.611,0,0,1,1.568,1.292A3.375,3.375,0,0,1,27.1-8.3H24.263a1.426,1.426,0,0,0-.442-1.118,1.721,1.721,0,0,0-1.2-.4,1.941,1.941,0,0,0-1.2.336,1.031,1.031,0,0,0-.442.855,1.039,1.039,0,0,0,.486.822,6.131,6.131,0,0,0,1.71.762,10.473,10.473,0,0,1,2.009.847A3.377,3.377,0,0,1,27.1-3.152,2.881,2.881,0,0,1,25.932-.721a5.19,5.19,0,0,1-3.2.883,6.35,6.35,0,0,1-2.6-.515,3.915,3.915,0,0,1-1.75-1.41A3.673,3.673,0,0,1,17.8-3.824h2.852a1.809,1.809,0,0,0,.49,1.4,2.317,2.317,0,0,0,1.592.45,1.83,1.83,0,0,0,1.114-.3A1,1,0,0,0,24.255-3.136ZM35.874-5H31.4v2.812h5.283V0H28.557V-11.8H36.7v2.2H31.4v2.487h4.473Zm8.054,1.864a1.169,1.169,0,0,0-.442-.972,5.488,5.488,0,0,0-1.552-.721,14.886,14.886,0,0,1-1.815-.721,3.437,3.437,0,0,1-2.293-3.1,2.775,2.775,0,0,1,.571-1.73,3.7,3.7,0,0,1,1.616-1.167,6.29,6.29,0,0,1,2.35-.417,5.5,5.5,0,0,1,2.281.454,3.611,3.611,0,0,1,1.568,1.292A3.375,3.375,0,0,1,46.771-8.3H43.936a1.426,1.426,0,0,0-.442-1.118,1.721,1.721,0,0,0-1.2-.4,1.941,1.941,0,0,0-1.2.336,1.031,1.031,0,0,0-.442.855,1.039,1.039,0,0,0,.486.822,6.131,6.131,0,0,0,1.71.762,10.473,10.473,0,0,1,2.009.847,3.377,3.377,0,0,1,1.912,3.038A2.881,2.881,0,0,1,45.6-.721a5.19,5.19,0,0,1-3.2.883,6.35,6.35,0,0,1-2.6-.515,3.915,3.915,0,0,1-1.75-1.41,3.673,3.673,0,0,1-.587-2.062h2.852a1.809,1.809,0,0,0,.49,1.4,2.317,2.317,0,0,0,1.592.45,1.83,1.83,0,0,0,1.114-.3A1,1,0,0,0,43.927-3.136Z" transform="translate(-7059.441 -8842.15)" fill="#7053e8"/>
    <path id="Trazado_800966" data-name="Trazado 800966" d="M2.412,0H.8V-7.82H2.412ZM5.258-5.812l.048.65a2.042,2.042,0,0,1,1.67-.757,1.55,1.55,0,0,1,1.542.886,2,2,0,0,1,1.746-.886,1.733,1.733,0,0,1,1.407.551,2.531,2.531,0,0,1,.462,1.657V0H10.576V-3.706a1.107,1.107,0,0,0-.193-.722A.857.857,0,0,0,9.7-4.657a.969.969,0,0,0-.967.666L8.739,0H7.187V-3.7a1.093,1.093,0,0,0-.2-.73.865.865,0,0,0-.677-.226,1.006,1.006,0,0,0-.956.548V0H3.8V-5.812Zm13.3,2.959A3.485,3.485,0,0,1,17.948-.7,1.955,1.955,0,0,1,16.3.107,1.811,1.811,0,0,1,14.878-.5V2.234H13.326V-5.812h1.439l.054.569a1.824,1.824,0,0,1,1.472-.677,1.968,1.968,0,0,1,1.67.795,3.58,3.58,0,0,1,.6,2.191ZM17-2.965a2.287,2.287,0,0,0-.287-1.251.936.936,0,0,0-.835-.44,1.016,1.016,0,0,0-1,.559v2.379a1.034,1.034,0,0,0,1.015.575Q17-1.144,17-2.965ZM21.157,0H19.6V-8.25h1.558ZM25.11.107a2.853,2.853,0,0,1-2.081-.784,2.787,2.787,0,0,1-.8-2.089v-.15a3.511,3.511,0,0,1,.338-1.566,2.483,2.483,0,0,1,.959-1.063,2.691,2.691,0,0,1,1.415-.373,2.412,2.412,0,0,1,1.877.752A3.056,3.056,0,0,1,27.5-3.035V-2.4H23.8a1.442,1.442,0,0,0,.454.913,1.372,1.372,0,0,0,.959.344,1.675,1.675,0,0,0,1.4-.65l.763.854a2.33,2.33,0,0,1-.945.771A3.1,3.1,0,0,1,25.11.107Zm-.177-4.77a.972.972,0,0,0-.749.312,1.609,1.609,0,0,0-.368.892h2.159v-.124a1.147,1.147,0,0,0-.279-.8A1,1,0,0,0,24.933-4.662Zm4.9-1.149.048.65a2.042,2.042,0,0,1,1.67-.757,1.55,1.55,0,0,1,1.542.886,2,2,0,0,1,1.746-.886,1.733,1.733,0,0,1,1.407.551,2.531,2.531,0,0,1,.462,1.657V0H35.154V-3.706a1.107,1.107,0,0,0-.193-.722.857.857,0,0,0-.682-.228.969.969,0,0,0-.967.666L33.317,0H31.765V-3.7a1.093,1.093,0,0,0-.2-.73.865.865,0,0,0-.677-.226,1.006,1.006,0,0,0-.956.548V0H28.381V-5.812ZM40.579.107A2.853,2.853,0,0,1,38.5-.677a2.787,2.787,0,0,1-.8-2.089v-.15a3.511,3.511,0,0,1,.338-1.566,2.483,2.483,0,0,1,.959-1.063,2.691,2.691,0,0,1,1.415-.373,2.412,2.412,0,0,1,1.877.752,3.056,3.056,0,0,1,.685,2.132V-2.4h-3.7a1.442,1.442,0,0,0,.454.913,1.372,1.372,0,0,0,.959.344,1.675,1.675,0,0,0,1.4-.65l.763.854a2.33,2.33,0,0,1-.945.771A3.1,3.1,0,0,1,40.579.107ZM40.4-4.662a.972.972,0,0,0-.749.312,1.609,1.609,0,0,0-.368.892h2.159v-.124a1.147,1.147,0,0,0-.279-.8A1,1,0,0,0,40.4-4.662Zm4.877-1.149.048.671A2.029,2.029,0,0,1,47-5.919a1.686,1.686,0,0,1,1.375.542,2.531,2.531,0,0,1,.462,1.622V0H47.282V-3.717a1.007,1.007,0,0,0-.215-.717.962.962,0,0,0-.714-.223,1.068,1.068,0,0,0-.983.559V0H43.818V-5.812Zm6.59-1.429v1.429h.994v1.139h-.994v2.9a.693.693,0,0,0,.124.462.62.62,0,0,0,.473.14,2.475,2.475,0,0,0,.457-.038V-.032a3.2,3.2,0,0,1-.94.14,1.482,1.482,0,0,1-1.665-1.649V-4.673h-.849V-5.812h.849V-7.24ZM57.095,0a1.724,1.724,0,0,1-.156-.521,1.878,1.878,0,0,1-1.466.628,2.063,2.063,0,0,1-1.415-.494A1.589,1.589,0,0,1,53.5-1.633a1.642,1.642,0,0,1,.685-1.418,3.379,3.379,0,0,1,1.979-.5h.714v-.333a.958.958,0,0,0-.207-.645.813.813,0,0,0-.653-.242.925.925,0,0,0-.615.188.639.639,0,0,0-.223.516H53.625A1.559,1.559,0,0,1,53.937-5a2.059,2.059,0,0,1,.881-.674A3.21,3.21,0,0,1,56.1-5.919a2.536,2.536,0,0,1,1.705.54,1.888,1.888,0,0,1,.631,1.517v2.519a2.778,2.778,0,0,0,.231,1.251V0ZM55.811-1.08a1.337,1.337,0,0,0,.634-.153,1,1,0,0,0,.43-.411v-1h-.58q-1.166,0-1.241.806l-.005.091a.621.621,0,0,0,.2.478A.793.793,0,0,0,55.811-1.08Zm6.23-.064a1.018,1.018,0,0,0,.7-.236.828.828,0,0,0,.279-.628h1.456a1.991,1.991,0,0,1-.322,1.082,2.126,2.126,0,0,1-.867.763,2.715,2.715,0,0,1-1.217.271A2.523,2.523,0,0,1,60.1-.685a3.135,3.135,0,0,1-.72-2.189v-.1A3.1,3.1,0,0,1,60.1-5.119a2.494,2.494,0,0,1,1.96-.8,2.444,2.444,0,0,1,1.748.62,2.2,2.2,0,0,1,.669,1.652H63.019a1.058,1.058,0,0,0-.279-.733.934.934,0,0,0-.709-.282.935.935,0,0,0-.819.395,2.285,2.285,0,0,0-.277,1.281v.161a2.314,2.314,0,0,0,.274,1.289A.947.947,0,0,0,62.042-1.144ZM66.988,0H65.431V-5.812h1.558ZM65.339-7.315a.764.764,0,0,1,.234-.575.878.878,0,0,1,.636-.226.88.88,0,0,1,.634.226.76.76,0,0,1,.236.575.762.762,0,0,1-.239.58.882.882,0,0,1-.631.226.882.882,0,0,1-.631-.226A.762.762,0,0,1,65.339-7.315Zm2.686,4.356A3.447,3.447,0,0,1,68.358-4.5a2.438,2.438,0,0,1,.959-1.047,2.8,2.8,0,0,1,1.453-.371,2.646,2.646,0,0,1,1.92.72,2.889,2.889,0,0,1,.83,1.955l.011.4A3.038,3.038,0,0,1,72.784-.7a2.6,2.6,0,0,1-2,.808A2.608,2.608,0,0,1,68.774-.7a3.091,3.091,0,0,1-.749-2.191Zm1.552.113a2.166,2.166,0,0,0,.312,1.265,1.028,1.028,0,0,0,.892.438,1.031,1.031,0,0,0,.881-.432,2.371,2.371,0,0,0,.317-1.383,2.145,2.145,0,0,0-.317-1.257,1.031,1.031,0,0,0-.892-.446,1.014,1.014,0,0,0-.881.443A2.411,2.411,0,0,0,69.577-2.847Zm1.5-5.4h1.692L71.28-6.585H70.018Zm4.839,2.438.048.671a2.029,2.029,0,0,1,1.67-.779,1.686,1.686,0,0,1,1.375.542,2.531,2.531,0,0,1,.462,1.622V0H77.918V-3.717a1.007,1.007,0,0,0-.215-.717.962.962,0,0,0-.714-.223,1.068,1.068,0,0,0-.983.559V0H74.454V-5.812Z" transform="translate(-7108.564 -8829.816) rotate(45)" fill="#242758"/>
    <path id="Trazado_800967" data-name="Trazado 800967" d="M5.4-3.2H2.31V0H.7V-7.82H5.79v1.305H2.31V-4.5H5.4Zm.755.236A3.447,3.447,0,0,1,6.491-4.5,2.438,2.438,0,0,1,7.45-5.548,2.8,2.8,0,0,1,8.9-5.919a2.646,2.646,0,0,1,1.92.72,2.889,2.889,0,0,1,.83,1.955l.011.4A3.038,3.038,0,0,1,10.917-.7a2.6,2.6,0,0,1-2,.808A2.608,2.608,0,0,1,6.907-.7,3.091,3.091,0,0,1,6.158-2.89Zm1.552.113a2.166,2.166,0,0,0,.312,1.265,1.028,1.028,0,0,0,.892.438,1.031,1.031,0,0,0,.881-.432,2.371,2.371,0,0,0,.317-1.383,2.145,2.145,0,0,0-.317-1.257A1.031,1.031,0,0,0,8.9-4.662a1.014,1.014,0,0,0-.881.443A2.41,2.41,0,0,0,7.71-2.847Zm8.175-1.509a4.217,4.217,0,0,0-.559-.043,1.137,1.137,0,0,0-1.155.6V0H12.62V-5.812h1.466l.043.693a1.438,1.438,0,0,1,1.294-.8,1.626,1.626,0,0,1,.483.07Zm2.2-1.456.048.65a2.042,2.042,0,0,1,1.67-.757,1.55,1.55,0,0,1,1.542.886,2,2,0,0,1,1.746-.886,1.733,1.733,0,0,1,1.407.551,2.531,2.531,0,0,1,.462,1.657V0H23.4V-3.706a1.107,1.107,0,0,0-.193-.722.857.857,0,0,0-.682-.228.969.969,0,0,0-.967.666L21.568,0H20.016V-3.7a1.093,1.093,0,0,0-.2-.73.865.865,0,0,0-.677-.226,1.006,1.006,0,0,0-.956.548V0H16.632V-5.812ZM29.635-.591a1.947,1.947,0,0,1-1.59.7A1.836,1.836,0,0,1,26.619-.43,2.293,2.293,0,0,1,26.117-2V-5.812h1.552v3.754q0,.908.827.908A1.121,1.121,0,0,0,29.582-1.7V-5.812h1.558V0H29.678ZM33.948,0H32.391V-8.25h1.558Zm4.646,0a1.724,1.724,0,0,1-.156-.521,1.878,1.878,0,0,1-1.466.628,2.063,2.063,0,0,1-1.415-.494A1.589,1.589,0,0,1,35-1.633a1.642,1.642,0,0,1,.685-1.418,3.379,3.379,0,0,1,1.979-.5h.714v-.333a.958.958,0,0,0-.207-.645.813.813,0,0,0-.653-.242.925.925,0,0,0-.615.188.639.639,0,0,0-.223.516H35.124A1.559,1.559,0,0,1,35.436-5a2.059,2.059,0,0,1,.881-.674A3.21,3.21,0,0,1,37.6-5.919a2.536,2.536,0,0,1,1.705.54,1.888,1.888,0,0,1,.631,1.517v2.519a2.778,2.778,0,0,0,.231,1.251V0ZM37.311-1.08a1.337,1.337,0,0,0,.634-.153,1,1,0,0,0,.43-.411v-1h-.58q-1.166,0-1.241.806l-.005.091a.621.621,0,0,0,.2.478A.793.793,0,0,0,37.311-1.08Zm6.23-.064a1.018,1.018,0,0,0,.7-.236.828.828,0,0,0,.279-.628h1.456a1.991,1.991,0,0,1-.322,1.082,2.126,2.126,0,0,1-.867.763,2.715,2.715,0,0,1-1.217.271A2.523,2.523,0,0,1,41.6-.685a3.135,3.135,0,0,1-.72-2.189v-.1A3.1,3.1,0,0,1,41.6-5.119a2.494,2.494,0,0,1,1.96-.8,2.444,2.444,0,0,1,1.748.62,2.2,2.2,0,0,1,.669,1.652H44.519a1.058,1.058,0,0,0-.279-.733.934.934,0,0,0-.709-.282.935.935,0,0,0-.819.395,2.285,2.285,0,0,0-.277,1.281v.161a2.314,2.314,0,0,0,.274,1.289A.947.947,0,0,0,43.541-1.144ZM48.5,0H46.941V-5.812H48.5ZM46.85-7.315a.764.764,0,0,1,.234-.575.878.878,0,0,1,.636-.226.88.88,0,0,1,.634.226.76.76,0,0,1,.236.575.762.762,0,0,1-.239.58.882.882,0,0,1-.631.226.882.882,0,0,1-.631-.226A.762.762,0,0,1,46.85-7.315Zm2.686,4.356A3.447,3.447,0,0,1,49.868-4.5a2.438,2.438,0,0,1,.959-1.047,2.8,2.8,0,0,1,1.453-.371,2.646,2.646,0,0,1,1.92.72,2.889,2.889,0,0,1,.83,1.955l.011.4A3.038,3.038,0,0,1,54.294-.7a2.6,2.6,0,0,1-2,.808A2.608,2.608,0,0,1,50.284-.7a3.091,3.091,0,0,1-.749-2.191Zm1.552.113A2.166,2.166,0,0,0,51.4-1.582a1.028,1.028,0,0,0,.892.438,1.031,1.031,0,0,0,.881-.432,2.371,2.371,0,0,0,.317-1.383,2.145,2.145,0,0,0-.317-1.257,1.031,1.031,0,0,0-.892-.446,1.014,1.014,0,0,0-.881.443A2.41,2.41,0,0,0,51.087-2.847Zm1.5-5.4h1.692L52.79-6.585H51.528Zm4.839,2.438.048.671a2.029,2.029,0,0,1,1.67-.779,1.686,1.686,0,0,1,1.375.542,2.531,2.531,0,0,1,.462,1.622V0H59.429V-3.717a1.007,1.007,0,0,0-.215-.717.962.962,0,0,0-.714-.223,1.068,1.068,0,0,0-.983.559V0H55.964V-5.812Z" transform="translate(-7010.594 -8780.579) rotate(-45)" fill="#242758"/>
    <path id="Trazado_800968" data-name="Trazado 800968" d="M4.753-2.052a.827.827,0,0,0-.322-.7,4.227,4.227,0,0,0-1.16-.516A8.224,8.224,0,0,1,1.944-3.8,2.168,2.168,0,0,1,.612-5.742,1.888,1.888,0,0,1,.969-6.872,2.33,2.33,0,0,1,2-7.648a3.861,3.861,0,0,1,1.5-.279,3.515,3.515,0,0,1,1.493.3,2.378,2.378,0,0,1,1.018.857A2.242,2.242,0,0,1,6.37-5.511H4.759a1.055,1.055,0,0,0-.338-.835,1.391,1.391,0,0,0-.951-.3,1.486,1.486,0,0,0-.918.25.788.788,0,0,0-.328.658.755.755,0,0,0,.384.639,4.339,4.339,0,0,0,1.131.483,4.885,4.885,0,0,1,2,1.026A2.043,2.043,0,0,1,6.37-2.063,1.882,1.882,0,0,1,5.6-.47,3.362,3.362,0,0,1,3.534.107a3.993,3.993,0,0,1-1.644-.33A2.6,2.6,0,0,1,.76-1.128,2.318,2.318,0,0,1,.371-2.46H1.987q0,1.294,1.547,1.294a1.5,1.5,0,0,0,.9-.234A.76.76,0,0,0,4.753-2.052ZM10.033.107A2.853,2.853,0,0,1,7.952-.677a2.787,2.787,0,0,1-.8-2.089v-.15a3.511,3.511,0,0,1,.338-1.566,2.483,2.483,0,0,1,.959-1.063,2.691,2.691,0,0,1,1.415-.373,2.412,2.412,0,0,1,1.877.752,3.056,3.056,0,0,1,.685,2.132V-2.4h-3.7a1.442,1.442,0,0,0,.454.913,1.372,1.372,0,0,0,.959.344,1.675,1.675,0,0,0,1.4-.65L12.3-.94a2.33,2.33,0,0,1-.945.771A3.1,3.1,0,0,1,10.033.107Zm-.177-4.77a.972.972,0,0,0-.749.312,1.609,1.609,0,0,0-.368.892H10.9v-.124a1.147,1.147,0,0,0-.279-.8A1,1,0,0,0,9.856-4.662Zm3.223,1.713A3.406,3.406,0,0,1,13.715-5.1a2.062,2.062,0,0,1,1.716-.816,1.809,1.809,0,0,1,1.488.655l.064-.548h1.407V-.193a2.484,2.484,0,0,1-.346,1.327,2.225,2.225,0,0,1-.975.859,3.427,3.427,0,0,1-1.472.3,3.187,3.187,0,0,1-1.246-.255,2.212,2.212,0,0,1-.918-.658L14.121.43a1.818,1.818,0,0,0,1.407.65,1.331,1.331,0,0,0,.961-.33,1.239,1.239,0,0,0,.344-.937V-.5A1.8,1.8,0,0,1,15.42.107a2.057,2.057,0,0,1-1.695-.819,3.405,3.405,0,0,1-.647-2.173Zm1.552.113A2.115,2.115,0,0,0,14.948-1.6a1.009,1.009,0,0,0,.87.448,1.078,1.078,0,0,0,1.015-.532V-4.125a1.076,1.076,0,0,0-1-.532,1.015,1.015,0,0,0-.878.457A2.384,2.384,0,0,0,14.631-2.836ZM23.064-.591a1.947,1.947,0,0,1-1.59.7A1.836,1.836,0,0,1,20.048-.43,2.293,2.293,0,0,1,19.545-2V-5.812H21.1v3.754q0,.908.827.908A1.121,1.121,0,0,0,23.01-1.7V-5.812h1.558V0H23.107ZM27.377,0H25.819V-5.812h1.558ZM25.728-7.315a.764.764,0,0,1,.234-.575.878.878,0,0,1,.636-.226.88.88,0,0,1,.634.226.76.76,0,0,1,.236.575.762.762,0,0,1-.239.58.882.882,0,0,1-.631.226.882.882,0,0,1-.631-.226A.762.762,0,0,1,25.728-7.315Zm4.383,1.5.048.65a2.042,2.042,0,0,1,1.67-.757,1.55,1.55,0,0,1,1.542.886,2,2,0,0,1,1.746-.886,1.733,1.733,0,0,1,1.407.551,2.531,2.531,0,0,1,.462,1.657V0H35.428V-3.706a1.107,1.107,0,0,0-.193-.722.857.857,0,0,0-.682-.228.969.969,0,0,0-.967.666L33.591,0H32.039V-3.7a1.093,1.093,0,0,0-.2-.73.865.865,0,0,0-.677-.226,1.006,1.006,0,0,0-.956.548V0H28.655V-5.812ZM39.816,0H38.258V-5.812h1.558ZM38.167-7.315A.764.764,0,0,1,38.4-7.89a.878.878,0,0,1,.636-.226.88.88,0,0,1,.634.226.76.76,0,0,1,.236.575.762.762,0,0,1-.239.58.882.882,0,0,1-.631.226.882.882,0,0,1-.631-.226A.762.762,0,0,1,38.167-7.315Zm5.6,7.423a2.853,2.853,0,0,1-2.081-.784,2.787,2.787,0,0,1-.8-2.089v-.15a3.511,3.511,0,0,1,.338-1.566,2.483,2.483,0,0,1,.959-1.063A2.691,2.691,0,0,1,43.6-5.919a2.412,2.412,0,0,1,1.877.752,3.056,3.056,0,0,1,.685,2.132V-2.4h-3.7a1.442,1.442,0,0,0,.454.913,1.372,1.372,0,0,0,.959.344,1.675,1.675,0,0,0,1.4-.65l.763.854a2.33,2.33,0,0,1-.945.771A3.1,3.1,0,0,1,43.769.107Zm-.177-4.77a.972.972,0,0,0-.749.312,1.609,1.609,0,0,0-.368.892h2.159v-.124a1.147,1.147,0,0,0-.279-.8A1,1,0,0,0,43.592-4.662Zm4.877-1.149.048.671a2.029,2.029,0,0,1,1.67-.779,1.686,1.686,0,0,1,1.375.542,2.531,2.531,0,0,1,.462,1.622V0H50.472V-3.717a1.007,1.007,0,0,0-.215-.717.962.962,0,0,0-.714-.223,1.068,1.068,0,0,0-.983.559V0H47.008V-5.812Zm6.59-1.429v1.429h.994v1.139h-.994v2.9a.693.693,0,0,0,.124.462.62.62,0,0,0,.473.14,2.475,2.475,0,0,0,.457-.038V-.032a3.2,3.2,0,0,1-.94.14,1.482,1.482,0,0,1-1.665-1.649V-4.673h-.849V-5.812h.849V-7.24Zm1.28,4.281A3.447,3.447,0,0,1,56.672-4.5a2.438,2.438,0,0,1,.959-1.047,2.8,2.8,0,0,1,1.453-.371A2.646,2.646,0,0,1,61-5.2a2.889,2.889,0,0,1,.83,1.955l.011.4A3.038,3.038,0,0,1,61.1-.7a2.6,2.6,0,0,1-2,.808A2.608,2.608,0,0,1,57.088-.7a3.091,3.091,0,0,1-.749-2.191Zm1.552.113A2.166,2.166,0,0,0,58.2-1.582a1.028,1.028,0,0,0,.892.438,1.031,1.031,0,0,0,.881-.432,2.371,2.371,0,0,0,.317-1.383,2.145,2.145,0,0,0-.317-1.257,1.031,1.031,0,0,0-.892-.446,1.014,1.014,0,0,0-.881.443A2.41,2.41,0,0,0,57.891-2.847Z" transform="translate(-7099.529 -8869.608) rotate(-45)" fill="#242758"/>
    <path id="Trazado_800969" data-name="Trazado 800969" d="M2.766-2.2,3.84-5.812H5.505L3.169.9l-.129.306A1.771,1.771,0,0,1,1.321,2.347a2.442,2.442,0,0,1-.688-.1V1.069l.236.005A1.277,1.277,0,0,0,1.528.94.882.882,0,0,0,1.869.494L2.052.016.016-5.812h1.67Zm8.766,2.3A2.853,2.853,0,0,1,9.45-.677a2.787,2.787,0,0,1-.8-2.089v-.15a3.511,3.511,0,0,1,.338-1.566,2.483,2.483,0,0,1,.959-1.063,2.691,2.691,0,0,1,1.415-.373,2.412,2.412,0,0,1,1.877.752,3.056,3.056,0,0,1,.685,2.132V-2.4h-3.7a1.442,1.442,0,0,0,.454.913,1.372,1.372,0,0,0,.959.344,1.675,1.675,0,0,0,1.4-.65L13.8-.94a2.33,2.33,0,0,1-.945.771A3.1,3.1,0,0,1,11.532.107Zm-.177-4.77a.972.972,0,0,0-.749.312,1.609,1.609,0,0,0-.368.892H12.4v-.124a1.147,1.147,0,0,0-.279-.8A1,1,0,0,0,11.355-4.662ZM16.842-1.9l1.08-3.916h1.622L17.583,0H16.1l-1.96-5.812h1.622ZM23.436,0a1.724,1.724,0,0,1-.156-.521,1.878,1.878,0,0,1-1.466.628A2.063,2.063,0,0,1,20.4-.387a1.589,1.589,0,0,1-.561-1.246,1.642,1.642,0,0,1,.685-1.418,3.379,3.379,0,0,1,1.979-.5h.714v-.333a.958.958,0,0,0-.207-.645.813.813,0,0,0-.653-.242.925.925,0,0,0-.615.188.639.639,0,0,0-.223.516H19.966A1.559,1.559,0,0,1,20.278-5a2.059,2.059,0,0,1,.881-.674,3.21,3.21,0,0,1,1.278-.244,2.536,2.536,0,0,1,1.705.54,1.888,1.888,0,0,1,.631,1.517v2.519A2.778,2.778,0,0,0,25-.091V0ZM22.152-1.08a1.337,1.337,0,0,0,.634-.153,1,1,0,0,0,.43-.411v-1h-.58q-1.166,0-1.241.806l-.005.091a.621.621,0,0,0,.2.478A.793.793,0,0,0,22.152-1.08ZM27.6,0H26.047V-8.25H27.6Zm4.759-.591a1.947,1.947,0,0,1-1.59.7A1.836,1.836,0,0,1,29.347-.43,2.293,2.293,0,0,1,28.845-2V-5.812H30.4v3.754q0,.908.827.908A1.121,1.121,0,0,0,32.309-1.7V-5.812h1.558V0H32.406ZM38.405,0a1.724,1.724,0,0,1-.156-.521,1.878,1.878,0,0,1-1.466.628,2.063,2.063,0,0,1-1.415-.494,1.589,1.589,0,0,1-.561-1.246,1.642,1.642,0,0,1,.685-1.418,3.379,3.379,0,0,1,1.979-.5h.714v-.333a.958.958,0,0,0-.207-.645.813.813,0,0,0-.653-.242.925.925,0,0,0-.615.188.639.639,0,0,0-.223.516H34.936A1.559,1.559,0,0,1,35.247-5a2.059,2.059,0,0,1,.881-.674,3.21,3.21,0,0,1,1.278-.244,2.536,2.536,0,0,1,1.705.54,1.888,1.888,0,0,1,.631,1.517v2.519a2.778,2.778,0,0,0,.231,1.251V0ZM37.122-1.08a1.337,1.337,0,0,0,.634-.153,1,1,0,0,0,.43-.411v-1h-.58q-1.166,0-1.241.806l-.005.091a.621.621,0,0,0,.2.478A.793.793,0,0,0,37.122-1.08Zm6.23-.064a1.018,1.018,0,0,0,.7-.236.828.828,0,0,0,.279-.628h1.456a1.991,1.991,0,0,1-.322,1.082,2.126,2.126,0,0,1-.867.763,2.715,2.715,0,0,1-1.217.271,2.523,2.523,0,0,1-1.966-.792,3.135,3.135,0,0,1-.72-2.189v-.1a3.1,3.1,0,0,1,.714-2.143,2.494,2.494,0,0,1,1.96-.8,2.444,2.444,0,0,1,1.748.62,2.2,2.2,0,0,1,.669,1.652H44.33a1.058,1.058,0,0,0-.279-.733.934.934,0,0,0-.709-.282.935.935,0,0,0-.819.395,2.285,2.285,0,0,0-.277,1.281v.161a2.314,2.314,0,0,0,.274,1.289A.947.947,0,0,0,43.352-1.144ZM48.31,0H46.752V-5.812H48.31ZM46.661-7.315a.764.764,0,0,1,.234-.575.878.878,0,0,1,.636-.226.88.88,0,0,1,.634.226.76.76,0,0,1,.236.575.762.762,0,0,1-.239.58.882.882,0,0,1-.631.226.882.882,0,0,1-.631-.226A.762.762,0,0,1,46.661-7.315Zm2.686,4.356A3.447,3.447,0,0,1,49.679-4.5a2.438,2.438,0,0,1,.959-1.047,2.8,2.8,0,0,1,1.453-.371,2.646,2.646,0,0,1,1.92.72,2.889,2.889,0,0,1,.83,1.955l.011.4A3.038,3.038,0,0,1,54.105-.7a2.6,2.6,0,0,1-2,.808A2.608,2.608,0,0,1,50.1-.7a3.091,3.091,0,0,1-.749-2.191Zm1.552.113a2.166,2.166,0,0,0,.312,1.265,1.028,1.028,0,0,0,.892.438,1.031,1.031,0,0,0,.881-.432A2.371,2.371,0,0,0,53.3-2.959a2.145,2.145,0,0,0-.317-1.257,1.031,1.031,0,0,0-.892-.446,1.014,1.014,0,0,0-.881.443A2.41,2.41,0,0,0,50.9-2.847Zm1.5-5.4h1.692L52.6-6.585H51.339Zm4.839,2.438.048.671a2.029,2.029,0,0,1,1.67-.779,1.686,1.686,0,0,1,1.375.542,2.531,2.531,0,0,1,.462,1.622V0H59.24V-3.717a1.007,1.007,0,0,0-.215-.717.962.962,0,0,0-.714-.223,1.068,1.068,0,0,0-.983.559V0H55.776V-5.812Z" transform="translate(-7091.043 -8861.122) rotate(-45)" fill="#242758"/>
    <path id="Trazado_800970" data-name="Trazado 800970" d="M6.837-2.6A2.767,2.767,0,0,1,5.906-.618,3.273,3.273,0,0,1,3.69.107,2.943,2.943,0,0,1,1.324-.905a4.151,4.151,0,0,1-.862-2.78v-.478a4.688,4.688,0,0,1,.4-1.987A2.979,2.979,0,0,1,2-7.469a3.182,3.182,0,0,1,1.716-.459A3.188,3.188,0,0,1,5.892-7.2a2.974,2.974,0,0,1,.956,2.036H5.237a1.633,1.633,0,0,0-.422-1.1,1.561,1.561,0,0,0-1.1-.341,1.369,1.369,0,0,0-1.206.577,3.236,3.236,0,0,0-.411,1.791v.591a3.463,3.463,0,0,0,.384,1.853,1.344,1.344,0,0,0,1.211.585A1.591,1.591,0,0,0,4.8-1.55,1.54,1.54,0,0,0,5.226-2.6ZM11.161,0a1.724,1.724,0,0,1-.156-.521A1.878,1.878,0,0,1,9.539.107,2.063,2.063,0,0,1,8.124-.387a1.589,1.589,0,0,1-.561-1.246,1.642,1.642,0,0,1,.685-1.418,3.379,3.379,0,0,1,1.979-.5h.714v-.333a.958.958,0,0,0-.207-.645.813.813,0,0,0-.653-.242.925.925,0,0,0-.615.188.639.639,0,0,0-.223.516H7.691A1.559,1.559,0,0,1,8-5a2.059,2.059,0,0,1,.881-.674,3.21,3.21,0,0,1,1.278-.244,2.536,2.536,0,0,1,1.705.54A1.888,1.888,0,0,1,12.5-3.862v2.519a2.778,2.778,0,0,0,.231,1.251V0ZM9.877-1.08a1.337,1.337,0,0,0,.634-.153,1,1,0,0,0,.43-.411v-1h-.58q-1.166,0-1.241.806l-.005.091a.621.621,0,0,0,.2.478A.793.793,0,0,0,9.877-1.08ZM15.329,0H13.771V-8.25h1.558Zm2.917,0H16.688V-5.812h1.558ZM16.6-7.315a.764.764,0,0,1,.234-.575.878.878,0,0,1,.636-.226.88.88,0,0,1,.634.226.76.76,0,0,1,.236.575.762.762,0,0,1-.239.58.882.882,0,0,1-.631.226.882.882,0,0,1-.631-.226A.762.762,0,0,1,16.6-7.315Zm2.686,4.367a3.5,3.5,0,0,1,.61-2.165,1.978,1.978,0,0,1,1.668-.806,1.78,1.78,0,0,1,1.4.634V-8.25h1.558V0h-1.4l-.075-.618a1.827,1.827,0,0,1-1.493.725A1.973,1.973,0,0,1,19.9-.7,3.615,3.615,0,0,1,19.282-2.949Zm1.552.113a2.288,2.288,0,0,0,.285,1.251.928.928,0,0,0,.827.435,1.039,1.039,0,0,0,1.015-.607V-4.05a1.024,1.024,0,0,0-1-.607Q20.834-4.657,20.834-2.836ZM29.09,0a1.724,1.724,0,0,1-.156-.521,1.878,1.878,0,0,1-1.466.628,2.063,2.063,0,0,1-1.415-.494,1.589,1.589,0,0,1-.561-1.246,1.642,1.642,0,0,1,.685-1.418,3.379,3.379,0,0,1,1.979-.5h.714v-.333a.958.958,0,0,0-.207-.645.813.813,0,0,0-.653-.242.925.925,0,0,0-.615.188.639.639,0,0,0-.223.516H25.62A1.559,1.559,0,0,1,25.932-5a2.059,2.059,0,0,1,.881-.674,3.21,3.21,0,0,1,1.278-.244,2.536,2.536,0,0,1,1.705.54,1.888,1.888,0,0,1,.631,1.517v2.519a2.778,2.778,0,0,0,.231,1.251V0ZM27.806-1.08a1.337,1.337,0,0,0,.634-.153,1,1,0,0,0,.43-.411v-1h-.58q-1.166,0-1.241.806l-.005.091a.621.621,0,0,0,.2.478A.793.793,0,0,0,27.806-1.08Zm3.572-1.869a3.5,3.5,0,0,1,.61-2.165,1.978,1.978,0,0,1,1.668-.806,1.78,1.78,0,0,1,1.4.634V-8.25h1.558V0h-1.4l-.075-.618a1.827,1.827,0,0,1-1.493.725A1.973,1.973,0,0,1,32-.7,3.615,3.615,0,0,1,31.378-2.949Zm1.552.113a2.288,2.288,0,0,0,.285,1.251.928.928,0,0,0,.827.435,1.039,1.039,0,0,0,1.015-.607V-4.05a1.024,1.024,0,0,0-1-.607Q32.93-4.657,32.93-2.836Zm9.8.639L43.8-5.812h1.665L43.13.9,43,1.208a1.771,1.771,0,0,1-1.719,1.139,2.442,2.442,0,0,1-.687-.1V1.069l.236.005A1.277,1.277,0,0,0,41.489.94.882.882,0,0,0,41.83.494l.183-.478L39.977-5.812h1.67Zm11.322-.655A3.485,3.485,0,0,1,53.44-.7a1.955,1.955,0,0,1-1.646.808A1.811,1.811,0,0,1,50.37-.5V2.234H48.818V-5.812h1.439l.054.569a1.824,1.824,0,0,1,1.472-.677,1.968,1.968,0,0,1,1.67.795,3.58,3.58,0,0,1,.6,2.191ZM52.5-2.965a2.287,2.287,0,0,0-.287-1.251.936.936,0,0,0-.835-.44,1.016,1.016,0,0,0-1,.559v2.379a1.034,1.034,0,0,0,1.015.575Q52.5-1.144,52.5-2.965ZM57.686.107A2.853,2.853,0,0,1,55.6-.677a2.787,2.787,0,0,1-.8-2.089v-.15a3.511,3.511,0,0,1,.338-1.566A2.483,2.483,0,0,1,56.1-5.546a2.691,2.691,0,0,1,1.415-.373,2.412,2.412,0,0,1,1.877.752,3.056,3.056,0,0,1,.685,2.132V-2.4h-3.7a1.442,1.442,0,0,0,.454.913,1.372,1.372,0,0,0,.959.344,1.675,1.675,0,0,0,1.4-.65l.763.854a2.33,2.33,0,0,1-.945.771A3.1,3.1,0,0,1,57.686.107Zm-.177-4.77a.972.972,0,0,0-.749.312,1.609,1.609,0,0,0-.368.892H58.55v-.124a1.147,1.147,0,0,0-.279-.8A1,1,0,0,0,57.508-4.662Zm6.714.306a4.217,4.217,0,0,0-.559-.043,1.137,1.137,0,0,0-1.155.6V0H60.957V-5.812h1.466l.043.693a1.438,1.438,0,0,1,1.294-.8,1.626,1.626,0,0,1,.483.07ZM67.371-7.24v1.429h.994v1.139h-.994v2.9a.693.693,0,0,0,.124.462.62.62,0,0,0,.473.14,2.475,2.475,0,0,0,.457-.038V-.032a3.2,3.2,0,0,1-.94.14,1.482,1.482,0,0,1-1.665-1.649V-4.673H64.97V-5.812h.849V-7.24ZM70.867,0H69.31V-5.812h1.558ZM69.218-7.315a.764.764,0,0,1,.234-.575.878.878,0,0,1,.636-.226.88.88,0,0,1,.634.226.76.76,0,0,1,.236.575.762.762,0,0,1-.239.58.882.882,0,0,1-.631.226.882.882,0,0,1-.631-.226A.762.762,0,0,1,69.218-7.315Zm4.356,1.5.048.671a2.029,2.029,0,0,1,1.67-.779,1.686,1.686,0,0,1,1.375.542,2.531,2.531,0,0,1,.462,1.622V0H75.578V-3.717a1.007,1.007,0,0,0-.215-.717.962.962,0,0,0-.714-.223,1.068,1.068,0,0,0-.983.559V0H72.113V-5.812ZM80.981.107A2.853,2.853,0,0,1,78.9-.677a2.787,2.787,0,0,1-.8-2.089v-.15a3.511,3.511,0,0,1,.338-1.566,2.483,2.483,0,0,1,.959-1.063,2.691,2.691,0,0,1,1.415-.373,2.412,2.412,0,0,1,1.877.752,3.056,3.056,0,0,1,.685,2.132V-2.4h-3.7a1.442,1.442,0,0,0,.454.913,1.372,1.372,0,0,0,.959.344,1.675,1.675,0,0,0,1.4-.65l.763.854a2.33,2.33,0,0,1-.945.771A3.1,3.1,0,0,1,80.981.107ZM80.8-4.662a.972.972,0,0,0-.749.312,1.609,1.609,0,0,0-.368.892h2.159v-.124a1.147,1.147,0,0,0-.279-.8A1,1,0,0,0,80.8-4.662Zm4.877-1.149.048.671a2.029,2.029,0,0,1,1.67-.779,1.686,1.686,0,0,1,1.375.542,2.531,2.531,0,0,1,.462,1.622V0H87.684V-3.717a1.007,1.007,0,0,0-.215-.717.962.962,0,0,0-.714-.223,1.068,1.068,0,0,0-.983.559V0H84.22V-5.812ZM92.83-1.144a1.018,1.018,0,0,0,.7-.236.828.828,0,0,0,.279-.628h1.456a1.991,1.991,0,0,1-.322,1.082,2.126,2.126,0,0,1-.867.763,2.715,2.715,0,0,1-1.217.271,2.523,2.523,0,0,1-1.966-.792,3.135,3.135,0,0,1-.72-2.189v-.1a3.1,3.1,0,0,1,.714-2.143,2.494,2.494,0,0,1,1.96-.8,2.444,2.444,0,0,1,1.748.62,2.2,2.2,0,0,1,.669,1.652H93.807a1.058,1.058,0,0,0-.279-.733.934.934,0,0,0-.709-.282A.935.935,0,0,0,92-4.267a2.285,2.285,0,0,0-.277,1.281v.161A2.314,2.314,0,0,0,92-1.536.947.947,0,0,0,92.83-1.144ZM97.787,0H96.23V-5.812h1.558ZM96.138-7.315a.764.764,0,0,1,.234-.575.878.878,0,0,1,.636-.226.88.88,0,0,1,.634.226.76.76,0,0,1,.236.575.762.762,0,0,1-.239.58.882.882,0,0,1-.631.226.882.882,0,0,1-.631-.226A.762.762,0,0,1,96.138-7.315ZM102.433,0a1.724,1.724,0,0,1-.156-.521,1.878,1.878,0,0,1-1.466.628A2.063,2.063,0,0,1,99.4-.387a1.589,1.589,0,0,1-.561-1.246,1.642,1.642,0,0,1,.685-1.418,3.379,3.379,0,0,1,1.979-.5h.714v-.333a.958.958,0,0,0-.207-.645.813.813,0,0,0-.653-.242.925.925,0,0,0-.615.188.639.639,0,0,0-.223.516H98.963A1.559,1.559,0,0,1,99.275-5a2.059,2.059,0,0,1,.881-.674,3.21,3.21,0,0,1,1.278-.244,2.536,2.536,0,0,1,1.705.54,1.888,1.888,0,0,1,.631,1.517v2.519A2.778,2.778,0,0,0,104-.091V0ZM101.15-1.08a1.337,1.337,0,0,0,.634-.153,1,1,0,0,0,.43-.411v-1h-.58q-1.166,0-1.241.806l-.005.091a.621.621,0,0,0,.2.478A.793.793,0,0,0,101.15-1.08Z" transform="translate(-7076.729 -8994.611)" fill="#242758"/>
    <path id="Trazado_800971" data-name="Trazado 800971" d="M.354-2.949a3.5,3.5,0,0,1,.61-2.165,1.978,1.978,0,0,1,1.668-.806,1.78,1.78,0,0,1,1.4.634V-8.25H5.591V0h-1.4L4.114-.618A1.827,1.827,0,0,1,2.621.107,1.973,1.973,0,0,1,.975-.7,3.615,3.615,0,0,1,.354-2.949Zm1.552.113a2.288,2.288,0,0,0,.285,1.251.928.928,0,0,0,.827.435,1.039,1.039,0,0,0,1.015-.607V-4.05a1.024,1.024,0,0,0-1-.607Q1.907-4.657,1.907-2.836ZM9.469.107A2.853,2.853,0,0,1,7.388-.677a2.787,2.787,0,0,1-.8-2.089v-.15a3.511,3.511,0,0,1,.338-1.566,2.483,2.483,0,0,1,.959-1.063A2.691,2.691,0,0,1,9.3-5.919a2.412,2.412,0,0,1,1.877.752,3.056,3.056,0,0,1,.685,2.132V-2.4h-3.7a1.442,1.442,0,0,0,.454.913,1.372,1.372,0,0,0,.959.344,1.675,1.675,0,0,0,1.4-.65l.763.854a2.33,2.33,0,0,1-.945.771A3.1,3.1,0,0,1,9.469.107Zm-.177-4.77a.972.972,0,0,0-.749.312,1.609,1.609,0,0,0-.368.892h2.159v-.124a1.147,1.147,0,0,0-.279-.8A1,1,0,0,0,9.292-4.662ZM17.118,0H15.56V-8.25h1.558Zm4.646,0a1.724,1.724,0,0,1-.156-.521,1.878,1.878,0,0,1-1.466.628,2.063,2.063,0,0,1-1.415-.494,1.589,1.589,0,0,1-.561-1.246,1.642,1.642,0,0,1,.685-1.418,3.379,3.379,0,0,1,1.979-.5h.714v-.333a.958.958,0,0,0-.207-.645.813.813,0,0,0-.653-.242.925.925,0,0,0-.615.188.639.639,0,0,0-.223.516H18.294A1.559,1.559,0,0,1,18.605-5a2.059,2.059,0,0,1,.881-.674,3.21,3.21,0,0,1,1.278-.244,2.536,2.536,0,0,1,1.705.54A1.888,1.888,0,0,1,23.1-3.862v2.519a2.778,2.778,0,0,0,.231,1.251V0ZM20.48-1.08a1.337,1.337,0,0,0,.634-.153,1,1,0,0,0,.43-.411v-1h-.58q-1.166,0-1.241.806l-.005.091a.621.621,0,0,0,.2.478A.793.793,0,0,0,20.48-1.08Zm6.961-.526a.5.5,0,0,0-.282-.448,3.2,3.2,0,0,0-.905-.293q-2.073-.435-2.073-1.762A1.6,1.6,0,0,1,24.823-5.4,2.589,2.589,0,0,1,26.5-5.919a2.787,2.787,0,0,1,1.77.521,1.642,1.642,0,0,1,.663,1.354H27.382a.751.751,0,0,0-.215-.551.909.909,0,0,0-.671-.218.929.929,0,0,0-.607.177.56.56,0,0,0-.215.451.478.478,0,0,0,.244.416,2.514,2.514,0,0,0,.824.274,6.734,6.734,0,0,1,.978.26A1.606,1.606,0,0,1,28.95-1.67a1.516,1.516,0,0,1-.682,1.286,2.943,2.943,0,0,1-1.762.491,3.073,3.073,0,0,1-1.3-.26,2.176,2.176,0,0,1-.889-.714A1.66,1.66,0,0,1,24-1.848H25.47a.81.81,0,0,0,.306.634,1.214,1.214,0,0,0,.763.22,1.124,1.124,0,0,0,.674-.169A.526.526,0,0,0,27.441-1.606ZM36.056,0A1.724,1.724,0,0,1,35.9-.521a1.878,1.878,0,0,1-1.466.628,2.063,2.063,0,0,1-1.415-.494,1.589,1.589,0,0,1-.561-1.246,1.642,1.642,0,0,1,.685-1.418,3.379,3.379,0,0,1,1.979-.5h.714v-.333a.958.958,0,0,0-.207-.645.813.813,0,0,0-.653-.242.925.925,0,0,0-.615.188.639.639,0,0,0-.223.516H32.586A1.559,1.559,0,0,1,32.9-5a2.059,2.059,0,0,1,.881-.674,3.21,3.21,0,0,1,1.278-.244,2.536,2.536,0,0,1,1.705.54,1.888,1.888,0,0,1,.631,1.517v2.519a2.778,2.778,0,0,0,.231,1.251V0ZM34.772-1.08a1.337,1.337,0,0,0,.634-.153,1,1,0,0,0,.43-.411v-1h-.58q-1.166,0-1.241.806l-.005.091a.621.621,0,0,0,.2.478A.793.793,0,0,0,34.772-1.08ZM40.444-7.24v1.429h.994v1.139h-.994v2.9a.693.693,0,0,0,.124.462.62.62,0,0,0,.473.14,2.475,2.475,0,0,0,.457-.038V-.032a3.2,3.2,0,0,1-.94.14,1.482,1.482,0,0,1-1.665-1.649V-4.673h-.849V-5.812h.849V-7.24ZM44.978.107A2.853,2.853,0,0,1,42.9-.677a2.787,2.787,0,0,1-.8-2.089v-.15a3.511,3.511,0,0,1,.338-1.566,2.483,2.483,0,0,1,.959-1.063,2.691,2.691,0,0,1,1.415-.373,2.412,2.412,0,0,1,1.877.752,3.056,3.056,0,0,1,.685,2.132V-2.4h-3.7a1.442,1.442,0,0,0,.454.913,1.372,1.372,0,0,0,.959.344,1.675,1.675,0,0,0,1.4-.65l.763.854a2.33,2.33,0,0,1-.945.771A3.1,3.1,0,0,1,44.978.107ZM44.8-4.662a.972.972,0,0,0-.749.312,1.609,1.609,0,0,0-.368.892h2.159v-.124a1.147,1.147,0,0,0-.279-.8A1,1,0,0,0,44.8-4.662Zm4.877-1.149.048.671a2.029,2.029,0,0,1,1.67-.779,1.686,1.686,0,0,1,1.375.542,2.531,2.531,0,0,1,.462,1.622V0H51.681V-3.717a1.007,1.007,0,0,0-.215-.717.962.962,0,0,0-.714-.223,1.068,1.068,0,0,0-.983.559V0H48.216V-5.812Zm7.149,4.667a1.018,1.018,0,0,0,.7-.236.828.828,0,0,0,.279-.628h1.456a1.991,1.991,0,0,1-.322,1.082,2.126,2.126,0,0,1-.867.763,2.715,2.715,0,0,1-1.217.271,2.523,2.523,0,0,1-1.966-.792,3.135,3.135,0,0,1-.72-2.189v-.1a3.1,3.1,0,0,1,.714-2.143,2.494,2.494,0,0,1,1.96-.8,2.444,2.444,0,0,1,1.748.62,2.2,2.2,0,0,1,.669,1.652H57.8a1.058,1.058,0,0,0-.279-.733.934.934,0,0,0-.709-.282A.935.935,0,0,0,56-4.267a2.285,2.285,0,0,0-.277,1.281v.161a2.314,2.314,0,0,0,.274,1.289A.947.947,0,0,0,56.826-1.144ZM61.784,0H60.226V-5.812h1.558ZM60.135-7.315a.764.764,0,0,1,.234-.575A.878.878,0,0,1,61-8.116a.88.88,0,0,1,.634.226.76.76,0,0,1,.236.575.762.762,0,0,1-.239.58A.882.882,0,0,1,61-6.51a.882.882,0,0,1-.631-.226A.762.762,0,0,1,60.135-7.315ZM62.82-2.959A3.447,3.447,0,0,1,63.153-4.5a2.438,2.438,0,0,1,.959-1.047,2.8,2.8,0,0,1,1.453-.371,2.646,2.646,0,0,1,1.92.72,2.889,2.889,0,0,1,.83,1.955l.011.4A3.038,3.038,0,0,1,67.579-.7a2.6,2.6,0,0,1-2,.808A2.608,2.608,0,0,1,63.57-.7,3.091,3.091,0,0,1,62.82-2.89Zm1.552.113a2.166,2.166,0,0,0,.312,1.265,1.028,1.028,0,0,0,.892.438,1.031,1.031,0,0,0,.881-.432,2.371,2.371,0,0,0,.317-1.383,2.145,2.145,0,0,0-.317-1.257,1.031,1.031,0,0,0-.892-.446,1.014,1.014,0,0,0-.881.443A2.41,2.41,0,0,0,64.373-2.847ZM70.71-5.812l.048.671a2.029,2.029,0,0,1,1.67-.779,1.686,1.686,0,0,1,1.375.542,2.531,2.531,0,0,1,.462,1.622V0H72.714V-3.717a1.007,1.007,0,0,0-.215-.717.962.962,0,0,0-.714-.223A1.068,1.068,0,0,0,70.8-4.1V0H69.25V-5.812ZM78.117.107a2.853,2.853,0,0,1-2.081-.784,2.787,2.787,0,0,1-.8-2.089v-.15a3.511,3.511,0,0,1,.338-1.566,2.483,2.483,0,0,1,.959-1.063,2.691,2.691,0,0,1,1.415-.373,2.412,2.412,0,0,1,1.877.752,3.056,3.056,0,0,1,.685,2.132V-2.4h-3.7a1.442,1.442,0,0,0,.454.913,1.372,1.372,0,0,0,.959.344,1.675,1.675,0,0,0,1.4-.65l.763.854a2.33,2.33,0,0,1-.945.771A3.1,3.1,0,0,1,78.117.107Zm-.177-4.77a.972.972,0,0,0-.749.312,1.609,1.609,0,0,0-.368.892h2.159v-.124a1.147,1.147,0,0,0-.279-.8A1,1,0,0,0,77.94-4.662Zm6.6,3.056a.5.5,0,0,0-.282-.448,3.2,3.2,0,0,0-.905-.293q-2.073-.435-2.073-1.762A1.6,1.6,0,0,1,81.917-5.4,2.589,2.589,0,0,1,83.6-5.919a2.787,2.787,0,0,1,1.77.521,1.642,1.642,0,0,1,.663,1.354H84.477a.751.751,0,0,0-.215-.551.909.909,0,0,0-.671-.218.929.929,0,0,0-.607.177.56.56,0,0,0-.215.451.478.478,0,0,0,.244.416,2.514,2.514,0,0,0,.824.274,6.734,6.734,0,0,1,.978.26,1.606,1.606,0,0,1,1.23,1.563,1.516,1.516,0,0,1-.682,1.286A2.943,2.943,0,0,1,83.6.107a3.073,3.073,0,0,1-1.3-.26,2.176,2.176,0,0,1-.889-.714,1.66,1.66,0,0,1-.322-.98h1.472a.81.81,0,0,0,.306.634,1.214,1.214,0,0,0,.763.22,1.124,1.124,0,0,0,.674-.169A.526.526,0,0,0,84.536-1.606Z" transform="translate(-7067.906 -8982.61)" fill="#242758"/>
    <path id="Trazado_800972" data-name="Trazado 800972" d="M6.886-.988a2.8,2.8,0,0,1-1.23.808A5.151,5.151,0,0,1,3.894.107,3.49,3.49,0,0,1,2.114-.336,2.956,2.956,0,0,1,.932-1.622,4.527,4.527,0,0,1,.5-3.6v-.532A4.808,4.808,0,0,1,.9-6.163,2.92,2.92,0,0,1,2.038-7.474a3.28,3.28,0,0,1,1.743-.454,3.266,3.266,0,0,1,2.175.663,2.835,2.835,0,0,1,.929,1.931H5.317a1.559,1.559,0,0,0-.475-.983A1.518,1.518,0,0,0,3.83-6.628a1.429,1.429,0,0,0-1.251.618,3.248,3.248,0,0,0-.435,1.837v.5A3.092,3.092,0,0,0,2.61-1.815a1.6,1.6,0,0,0,1.37.628,1.787,1.787,0,0,0,1.294-.387V-2.922H3.808V-4.109H6.886Zm3.878,1.1A2.853,2.853,0,0,1,8.682-.677a2.787,2.787,0,0,1-.8-2.089v-.15a3.511,3.511,0,0,1,.338-1.566,2.483,2.483,0,0,1,.959-1.063,2.691,2.691,0,0,1,1.415-.373,2.412,2.412,0,0,1,1.877.752,3.056,3.056,0,0,1,.685,2.132V-2.4h-3.7a1.442,1.442,0,0,0,.454.913,1.372,1.372,0,0,0,.959.344,1.675,1.675,0,0,0,1.4-.65l.763.854a2.33,2.33,0,0,1-.945.771A3.1,3.1,0,0,1,10.764.107Zm-.177-4.77a.972.972,0,0,0-.749.312,1.609,1.609,0,0,0-.368.892h2.159v-.124a1.147,1.147,0,0,0-.279-.8A1,1,0,0,0,10.586-4.662Zm6.6,3.056a.5.5,0,0,0-.282-.448A3.2,3.2,0,0,0,16-2.347q-2.073-.435-2.073-1.762A1.6,1.6,0,0,1,14.564-5.4a2.589,2.589,0,0,1,1.678-.518,2.787,2.787,0,0,1,1.77.521,1.642,1.642,0,0,1,.663,1.354H17.123a.751.751,0,0,0-.215-.551.909.909,0,0,0-.671-.218.929.929,0,0,0-.607.177.56.56,0,0,0-.215.451.478.478,0,0,0,.244.416,2.514,2.514,0,0,0,.824.274,6.734,6.734,0,0,1,.978.26,1.606,1.606,0,0,1,1.23,1.563,1.516,1.516,0,0,1-.682,1.286,2.943,2.943,0,0,1-1.762.491,3.073,3.073,0,0,1-1.3-.26,2.176,2.176,0,0,1-.889-.714,1.66,1.66,0,0,1-.322-.98h1.472a.81.81,0,0,0,.306.634,1.214,1.214,0,0,0,.763.22,1.124,1.124,0,0,0,.674-.169A.526.526,0,0,0,17.182-1.606ZM21.549-7.24v1.429h.994v1.139h-.994v2.9a.693.693,0,0,0,.124.462.62.62,0,0,0,.473.14,2.475,2.475,0,0,0,.457-.038V-.032a3.2,3.2,0,0,1-.94.14A1.482,1.482,0,0,1,20-1.542V-4.673h-.849V-5.812H20V-7.24ZM25.045,0H23.488V-5.812h1.558ZM23.4-7.315a.764.764,0,0,1,.234-.575.878.878,0,0,1,.636-.226.88.88,0,0,1,.634.226.76.76,0,0,1,.236.575.762.762,0,0,1-.239.58.882.882,0,0,1-.631.226.882.882,0,0,1-.631-.226A.762.762,0,0,1,23.4-7.315Zm2.686,4.356A3.447,3.447,0,0,1,26.415-4.5a2.438,2.438,0,0,1,.959-1.047,2.8,2.8,0,0,1,1.453-.371,2.646,2.646,0,0,1,1.92.72,2.889,2.889,0,0,1,.83,1.955l.011.4A3.038,3.038,0,0,1,30.841-.7a2.6,2.6,0,0,1-2,.808A2.608,2.608,0,0,1,26.831-.7a3.091,3.091,0,0,1-.749-2.191Zm1.552.113a2.166,2.166,0,0,0,.312,1.265,1.028,1.028,0,0,0,.892.438,1.031,1.031,0,0,0,.881-.432,2.371,2.371,0,0,0,.317-1.383,2.145,2.145,0,0,0-.317-1.257,1.031,1.031,0,0,0-.892-.446,1.014,1.014,0,0,0-.881.443A2.41,2.41,0,0,0,27.634-2.847Zm1.5-5.4h1.692L29.337-6.585H28.075Zm4.839,2.438.048.671a2.029,2.029,0,0,1,1.67-.779,1.686,1.686,0,0,1,1.375.542,2.531,2.531,0,0,1,.462,1.622V0H35.976V-3.717a1.007,1.007,0,0,0-.215-.717.962.962,0,0,0-.714-.223,1.068,1.068,0,0,0-.983.559V0H32.511V-5.812Z" transform="translate(-6915.304 -8886.086)" fill="#242758"/>
    <path id="Trazado_800973" data-name="Trazado 800973" d="M2.455-7.24v1.429h.994v1.139H2.455v2.9a.693.693,0,0,0,.124.462.62.62,0,0,0,.473.14,2.475,2.475,0,0,0,.457-.038V-.032a3.2,3.2,0,0,1-.94.14A1.482,1.482,0,0,1,.9-1.542V-4.673H.054V-5.812H.9V-7.24ZM6.988.107A2.853,2.853,0,0,1,4.906-.677a2.787,2.787,0,0,1-.8-2.089v-.15a3.511,3.511,0,0,1,.338-1.566A2.483,2.483,0,0,1,5.4-5.546a2.691,2.691,0,0,1,1.415-.373,2.412,2.412,0,0,1,1.877.752,3.056,3.056,0,0,1,.685,2.132V-2.4h-3.7a1.442,1.442,0,0,0,.454.913,1.372,1.372,0,0,0,.959.344,1.675,1.675,0,0,0,1.4-.65l.763.854a2.33,2.33,0,0,1-.945.771A3.1,3.1,0,0,1,6.988.107Zm-.177-4.77a.972.972,0,0,0-.749.312,1.609,1.609,0,0,0-.368.892H7.853v-.124a1.147,1.147,0,0,0-.279-.8A1,1,0,0,0,6.811-4.662Zm6.714.306a4.217,4.217,0,0,0-.559-.043,1.137,1.137,0,0,0-1.155.6V0H10.259V-5.812h1.466l.043.693a1.438,1.438,0,0,1,1.294-.8,1.626,1.626,0,0,1,.483.07Zm4.012,0a4.217,4.217,0,0,0-.559-.043,1.137,1.137,0,0,0-1.155.6V0H14.271V-5.812h1.466l.043.693a1.438,1.438,0,0,1,1.294-.8,1.626,1.626,0,0,1,.483.07ZM19.921,0H18.364V-5.812h1.558ZM18.272-7.315a.764.764,0,0,1,.234-.575.878.878,0,0,1,.636-.226.88.88,0,0,1,.634.226.76.76,0,0,1,.236.575.762.762,0,0,1-.239.58.882.882,0,0,1-.631.226.882.882,0,0,1-.631-.226A.762.762,0,0,1,18.272-7.315Zm4.786.075v1.429h.994v1.139h-.994v2.9a.693.693,0,0,0,.124.462.62.62,0,0,0,.473.14,2.475,2.475,0,0,0,.457-.038V-.032a3.2,3.2,0,0,1-.94.14,1.482,1.482,0,0,1-1.665-1.649V-4.673h-.849V-5.812h.849V-7.24Zm1.291,4.281A3.447,3.447,0,0,1,24.682-4.5a2.438,2.438,0,0,1,.959-1.047,2.8,2.8,0,0,1,1.453-.371,2.646,2.646,0,0,1,1.92.72,2.889,2.889,0,0,1,.83,1.955l.011.4A3.038,3.038,0,0,1,29.107-.7a2.6,2.6,0,0,1-2,.808A2.608,2.608,0,0,1,25.1-.7a3.091,3.091,0,0,1-.749-2.191Zm1.552.113a2.166,2.166,0,0,0,.312,1.265,1.028,1.028,0,0,0,.892.438,1.031,1.031,0,0,0,.881-.432A2.371,2.371,0,0,0,28.3-2.959a2.145,2.145,0,0,0-.317-1.257,1.031,1.031,0,0,0-.892-.446,1.014,1.014,0,0,0-.881.443A2.41,2.41,0,0,0,25.9-2.847Zm8.175-1.509a4.217,4.217,0,0,0-.559-.043,1.137,1.137,0,0,0-1.155.6V0H30.81V-5.812h1.466l.043.693a1.438,1.438,0,0,1,1.294-.8,1.626,1.626,0,0,1,.483.07ZM36.46,0H34.9V-5.812H36.46ZM34.812-7.315a.764.764,0,0,1,.234-.575.878.878,0,0,1,.636-.226.88.88,0,0,1,.634.226.76.76,0,0,1,.236.575.762.762,0,0,1-.239.58.882.882,0,0,1-.631.226.882.882,0,0,1-.631-.226A.762.762,0,0,1,34.812-7.315ZM41.106,0a1.724,1.724,0,0,1-.156-.521,1.878,1.878,0,0,1-1.466.628,2.063,2.063,0,0,1-1.415-.494,1.589,1.589,0,0,1-.561-1.246,1.642,1.642,0,0,1,.685-1.418,3.379,3.379,0,0,1,1.979-.5h.714v-.333a.958.958,0,0,0-.207-.645.813.813,0,0,0-.653-.242.925.925,0,0,0-.615.188.639.639,0,0,0-.223.516H37.637A1.559,1.559,0,0,1,37.948-5a2.059,2.059,0,0,1,.881-.674,3.21,3.21,0,0,1,1.278-.244,2.536,2.536,0,0,1,1.705.54,1.888,1.888,0,0,1,.631,1.517v2.519a2.778,2.778,0,0,0,.231,1.251V0ZM39.823-1.08a1.337,1.337,0,0,0,.634-.153,1,1,0,0,0,.43-.411v-1h-.58q-1.166,0-1.241.806l-.005.091a.621.621,0,0,0,.2.478A.793.793,0,0,0,39.823-1.08ZM45.274,0H43.717V-8.25h1.558Z" transform="translate(-6917.943 -8874.084)" fill="#242758"/>
    <path id="Trazado_800974" data-name="Trazado 800974" d="M2.8-7.82,4.813-2.148l2-5.672H8.927V0H7.31V-2.138l.161-3.69L5.36,0H4.254L2.148-5.822,2.31-2.138V0H.7V-7.82ZM9.99-2.959A3.447,3.447,0,0,1,10.323-4.5a2.438,2.438,0,0,1,.959-1.047,2.8,2.8,0,0,1,1.453-.371,2.646,2.646,0,0,1,1.92.72,2.889,2.889,0,0,1,.83,1.955l.011.4A3.038,3.038,0,0,1,14.749-.7a2.6,2.6,0,0,1-2,.808A2.608,2.608,0,0,1,10.74-.7,3.091,3.091,0,0,1,9.99-2.89Zm1.552.113a2.166,2.166,0,0,0,.312,1.265,1.028,1.028,0,0,0,.892.438,1.031,1.031,0,0,0,.881-.432,2.371,2.371,0,0,0,.317-1.383,2.145,2.145,0,0,0-.317-1.257,1.031,1.031,0,0,0-.892-.446,1.014,1.014,0,0,0-.881.443A2.41,2.41,0,0,0,11.542-2.847Zm6.927.951,1.08-3.916h1.622L19.211,0H17.728l-1.96-5.812H17.39ZM23.491,0H21.934V-5.812h1.558ZM21.842-7.315a.764.764,0,0,1,.234-.575.878.878,0,0,1,.636-.226.88.88,0,0,1,.634.226.76.76,0,0,1,.236.575.762.762,0,0,1-.239.58.882.882,0,0,1-.631.226.882.882,0,0,1-.631-.226A.762.762,0,0,1,21.842-7.315ZM26.408,0H24.85V-8.25h1.558Zm2.917,0H27.767V-5.812h1.558ZM27.675-7.315a.764.764,0,0,1,.234-.575.878.878,0,0,1,.636-.226.88.88,0,0,1,.634.226.76.76,0,0,1,.236.575.762.762,0,0,1-.239.58.882.882,0,0,1-.631.226.882.882,0,0,1-.631-.226A.762.762,0,0,1,27.675-7.315Zm4.71,6.064h2.841V0H30.4V-.945l2.734-3.609H30.485V-5.812h4.657v.918ZM39.567,0a1.724,1.724,0,0,1-.156-.521,1.878,1.878,0,0,1-1.466.628A2.063,2.063,0,0,1,36.53-.387a1.589,1.589,0,0,1-.561-1.246,1.642,1.642,0,0,1,.685-1.418,3.379,3.379,0,0,1,1.979-.5h.714v-.333a.958.958,0,0,0-.207-.645.813.813,0,0,0-.653-.242.925.925,0,0,0-.615.188.639.639,0,0,0-.223.516H36.1A1.559,1.559,0,0,1,36.409-5a2.059,2.059,0,0,1,.881-.674,3.21,3.21,0,0,1,1.278-.244,2.536,2.536,0,0,1,1.705.54A1.888,1.888,0,0,1,40.9-3.862v2.519a2.778,2.778,0,0,0,.231,1.251V0ZM38.283-1.08a1.337,1.337,0,0,0,.634-.153,1,1,0,0,0,.43-.411v-1h-.58q-1.166,0-1.241.806l-.005.091a.621.621,0,0,0,.2.478A.793.793,0,0,0,38.283-1.08Zm6.23-.064a1.018,1.018,0,0,0,.7-.236.828.828,0,0,0,.279-.628h1.456a1.991,1.991,0,0,1-.322,1.082,2.126,2.126,0,0,1-.867.763,2.715,2.715,0,0,1-1.217.271,2.523,2.523,0,0,1-1.966-.792,3.135,3.135,0,0,1-.72-2.189v-.1a3.1,3.1,0,0,1,.714-2.143,2.494,2.494,0,0,1,1.96-.8,2.444,2.444,0,0,1,1.748.62,2.2,2.2,0,0,1,.669,1.652H45.491a1.058,1.058,0,0,0-.279-.733.934.934,0,0,0-.709-.282.935.935,0,0,0-.819.395,2.285,2.285,0,0,0-.277,1.281v.161a2.314,2.314,0,0,0,.274,1.289A.947.947,0,0,0,44.514-1.144ZM49.471,0H47.914V-5.812h1.558ZM47.822-7.315a.764.764,0,0,1,.234-.575.878.878,0,0,1,.636-.226.88.88,0,0,1,.634.226.76.76,0,0,1,.236.575.762.762,0,0,1-.239.58.882.882,0,0,1-.631.226.882.882,0,0,1-.631-.226A.762.762,0,0,1,47.822-7.315Zm2.686,4.356A3.447,3.447,0,0,1,50.841-4.5,2.438,2.438,0,0,1,51.8-5.548a2.8,2.8,0,0,1,1.453-.371,2.646,2.646,0,0,1,1.92.72A2.889,2.889,0,0,1,56-3.244l.011.4A3.038,3.038,0,0,1,55.267-.7a2.6,2.6,0,0,1-2,.808A2.608,2.608,0,0,1,51.257-.7a3.091,3.091,0,0,1-.749-2.191Zm1.552.113a2.166,2.166,0,0,0,.312,1.265,1.028,1.028,0,0,0,.892.438,1.031,1.031,0,0,0,.881-.432,2.371,2.371,0,0,0,.317-1.383,2.145,2.145,0,0,0-.317-1.257,1.031,1.031,0,0,0-.892-.446,1.014,1.014,0,0,0-.881.443A2.41,2.41,0,0,0,52.06-2.847Zm1.5-5.4h1.692L53.763-6.585H52.5ZM58.4-5.812l.048.671a2.029,2.029,0,0,1,1.67-.779,1.686,1.686,0,0,1,1.375.542,2.531,2.531,0,0,1,.462,1.622V0H60.4V-3.717a1.007,1.007,0,0,0-.215-.717.962.962,0,0,0-.714-.223,1.068,1.068,0,0,0-.983.559V0H56.937V-5.812Z" transform="translate(-6992.941 -8722.395)" fill="#242758"/>
    <path id="Trazado_800975" data-name="Trazado 800975" d="M3.744-1.606a.5.5,0,0,0-.282-.448,3.2,3.2,0,0,0-.905-.293Q.483-2.782.483-4.109A1.6,1.6,0,0,1,1.125-5.4,2.589,2.589,0,0,1,2.8-5.919a2.787,2.787,0,0,1,1.77.521,1.642,1.642,0,0,1,.663,1.354H3.685a.751.751,0,0,0-.215-.551A.909.909,0,0,0,2.8-4.812a.929.929,0,0,0-.607.177.56.56,0,0,0-.215.451.478.478,0,0,0,.244.416,2.514,2.514,0,0,0,.824.274,6.734,6.734,0,0,1,.978.26A1.606,1.606,0,0,1,5.253-1.67,1.516,1.516,0,0,1,4.571-.384,2.943,2.943,0,0,1,2.809.107a3.073,3.073,0,0,1-1.3-.26A2.176,2.176,0,0,1,.623-.867,1.66,1.66,0,0,1,.3-1.848H1.772a.81.81,0,0,0,.306.634,1.214,1.214,0,0,0,.763.22,1.124,1.124,0,0,0,.674-.169A.526.526,0,0,0,3.744-1.606ZM6.01-2.959A3.447,3.447,0,0,1,6.343-4.5,2.438,2.438,0,0,1,7.3-5.548a2.8,2.8,0,0,1,1.453-.371,2.646,2.646,0,0,1,1.92.72,2.889,2.889,0,0,1,.83,1.955l.011.4A3.038,3.038,0,0,1,10.769-.7a2.6,2.6,0,0,1-2,.808A2.608,2.608,0,0,1,6.76-.7,3.091,3.091,0,0,1,6.01-2.89Zm1.552.113a2.166,2.166,0,0,0,.312,1.265,1.028,1.028,0,0,0,.892.438,1.031,1.031,0,0,0,.881-.432,2.371,2.371,0,0,0,.317-1.383,2.145,2.145,0,0,0-.317-1.257,1.031,1.031,0,0,0-.892-.446,1.014,1.014,0,0,0-.881.443A2.41,2.41,0,0,0,7.563-2.847Zm7.326,1.7a1.018,1.018,0,0,0,.7-.236.828.828,0,0,0,.279-.628h1.456A1.991,1.991,0,0,1,17-.927a2.126,2.126,0,0,1-.867.763,2.715,2.715,0,0,1-1.217.271A2.523,2.523,0,0,1,12.95-.685a3.135,3.135,0,0,1-.72-2.189v-.1a3.1,3.1,0,0,1,.714-2.143,2.494,2.494,0,0,1,1.96-.8,2.444,2.444,0,0,1,1.748.62,2.2,2.2,0,0,1,.669,1.652H15.866a1.058,1.058,0,0,0-.279-.733.934.934,0,0,0-.709-.282.935.935,0,0,0-.819.395,2.285,2.285,0,0,0-.277,1.281v.161a2.314,2.314,0,0,0,.274,1.289A.947.947,0,0,0,14.889-1.144ZM19.846,0H18.289V-5.812h1.558ZM18.2-7.315a.764.764,0,0,1,.234-.575.878.878,0,0,1,.636-.226.88.88,0,0,1,.634.226.76.76,0,0,1,.236.575.762.762,0,0,1-.239.58.882.882,0,0,1-.631.226.882.882,0,0,1-.631-.226A.762.762,0,0,1,18.2-7.315ZM24.492,0a1.724,1.724,0,0,1-.156-.521A1.878,1.878,0,0,1,22.87.107a2.063,2.063,0,0,1-1.415-.494,1.589,1.589,0,0,1-.561-1.246,1.642,1.642,0,0,1,.685-1.418,3.379,3.379,0,0,1,1.979-.5h.714v-.333a.958.958,0,0,0-.207-.645.813.813,0,0,0-.653-.242.925.925,0,0,0-.615.188.639.639,0,0,0-.223.516H21.022A1.559,1.559,0,0,1,21.334-5a2.059,2.059,0,0,1,.881-.674,3.21,3.21,0,0,1,1.278-.244,2.536,2.536,0,0,1,1.705.54,1.888,1.888,0,0,1,.631,1.517v2.519a2.778,2.778,0,0,0,.231,1.251V0ZM23.208-1.08a1.337,1.337,0,0,0,.634-.153,1,1,0,0,0,.43-.411v-1h-.58q-1.166,0-1.241.806l-.005.091a.621.621,0,0,0,.2.478A.793.793,0,0,0,23.208-1.08ZM28.66,0H27.1V-8.25H28.66Z" transform="translate(-6976.31 -8710.394)" fill="#242758"/>
    <path id="Trazado_800976" data-name="Trazado 800976" d="M4.753-2.052a.827.827,0,0,0-.322-.7,4.227,4.227,0,0,0-1.16-.516A8.224,8.224,0,0,1,1.944-3.8,2.168,2.168,0,0,1,.612-5.742,1.888,1.888,0,0,1,.969-6.872,2.33,2.33,0,0,1,2-7.648a3.861,3.861,0,0,1,1.5-.279,3.515,3.515,0,0,1,1.493.3,2.378,2.378,0,0,1,1.018.857A2.242,2.242,0,0,1,6.37-5.511H4.759a1.055,1.055,0,0,0-.338-.835,1.391,1.391,0,0,0-.951-.3,1.486,1.486,0,0,0-.918.25.788.788,0,0,0-.328.658.754.754,0,0,0,.384.639,4.339,4.339,0,0,0,1.131.483,4.885,4.885,0,0,1,2,1.026A2.043,2.043,0,0,1,6.37-2.062,1.882,1.882,0,0,1,5.6-.47,3.362,3.362,0,0,1,3.534.107a3.993,3.993,0,0,1-1.644-.33A2.6,2.6,0,0,1,.76-1.128,2.318,2.318,0,0,1,.371-2.46H1.987q0,1.294,1.547,1.294a1.5,1.5,0,0,0,.9-.234A.76.76,0,0,0,4.753-2.052ZM10.033.107A2.853,2.853,0,0,1,7.952-.677a2.787,2.787,0,0,1-.8-2.089v-.15a3.511,3.511,0,0,1,.338-1.566,2.483,2.483,0,0,1,.959-1.063,2.691,2.691,0,0,1,1.415-.373,2.412,2.412,0,0,1,1.877.752,3.056,3.056,0,0,1,.685,2.132V-2.4h-3.7a1.442,1.442,0,0,0,.454.913,1.372,1.372,0,0,0,.959.344,1.675,1.675,0,0,0,1.4-.65L12.3-.94a2.33,2.33,0,0,1-.945.771A3.1,3.1,0,0,1,10.033.107Zm-.177-4.77a.972.972,0,0,0-.749.312,1.609,1.609,0,0,0-.368.892H10.9v-.124a1.147,1.147,0,0,0-.279-.8A1,1,0,0,0,9.856-4.662Zm3.223,1.713A3.406,3.406,0,0,1,13.715-5.1a2.062,2.062,0,0,1,1.716-.816,1.809,1.809,0,0,1,1.488.655l.064-.548h1.407V-.193a2.484,2.484,0,0,1-.346,1.327,2.225,2.225,0,0,1-.975.859,3.427,3.427,0,0,1-1.472.3,3.187,3.187,0,0,1-1.246-.255,2.212,2.212,0,0,1-.918-.658L14.121.43a1.818,1.818,0,0,0,1.407.65,1.331,1.331,0,0,0,.961-.33,1.239,1.239,0,0,0,.344-.937V-.5A1.8,1.8,0,0,1,15.42.107a2.057,2.057,0,0,1-1.695-.819,3.405,3.405,0,0,1-.647-2.173Zm1.552.113A2.115,2.115,0,0,0,14.948-1.6a1.009,1.009,0,0,0,.87.448,1.078,1.078,0,0,0,1.015-.532V-4.125a1.076,1.076,0,0,0-1-.532,1.015,1.015,0,0,0-.878.457A2.384,2.384,0,0,0,14.631-2.836ZM23.063-.591a1.947,1.947,0,0,1-1.59.7A1.836,1.836,0,0,1,20.048-.43,2.293,2.293,0,0,1,19.545-2V-5.812H21.1v3.754q0,.908.827.908A1.121,1.121,0,0,0,23.01-1.7V-5.812h1.558V0H23.106ZM27.376,0H25.819V-5.812h1.558ZM25.728-7.315a.764.764,0,0,1,.234-.575.878.878,0,0,1,.636-.226.88.88,0,0,1,.634.226.76.76,0,0,1,.236.575.762.762,0,0,1-.239.58.882.882,0,0,1-.631.226.882.882,0,0,1-.631-.226A.762.762,0,0,1,25.728-7.315Zm4.383,1.5.048.65a2.042,2.042,0,0,1,1.67-.757,1.55,1.55,0,0,1,1.542.886,2,2,0,0,1,1.746-.886,1.733,1.733,0,0,1,1.407.551,2.531,2.531,0,0,1,.462,1.657V0H35.428V-3.706a1.107,1.107,0,0,0-.193-.722.857.857,0,0,0-.682-.228.969.969,0,0,0-.967.666L33.591,0H32.039V-3.7a1.093,1.093,0,0,0-.2-.73.865.865,0,0,0-.677-.226,1.006,1.006,0,0,0-.956.548V0H28.655V-5.812ZM39.816,0H38.258V-5.812h1.558ZM38.167-7.315A.764.764,0,0,1,38.4-7.89a.878.878,0,0,1,.636-.226.88.88,0,0,1,.634.226.76.76,0,0,1,.236.575.762.762,0,0,1-.239.58.882.882,0,0,1-.631.226.882.882,0,0,1-.631-.226A.762.762,0,0,1,38.167-7.315Zm5.6,7.423a2.853,2.853,0,0,1-2.081-.784,2.787,2.787,0,0,1-.8-2.089v-.15a3.511,3.511,0,0,1,.338-1.566,2.483,2.483,0,0,1,.959-1.063A2.691,2.691,0,0,1,43.6-5.919a2.412,2.412,0,0,1,1.877.752,3.056,3.056,0,0,1,.685,2.132V-2.4h-3.7a1.442,1.442,0,0,0,.454.913,1.372,1.372,0,0,0,.959.344,1.675,1.675,0,0,0,1.4-.65l.763.854a2.33,2.33,0,0,1-.945.771A3.1,3.1,0,0,1,43.769.107Zm-.177-4.77a.972.972,0,0,0-.749.312,1.609,1.609,0,0,0-.368.892h2.159v-.124a1.147,1.147,0,0,0-.279-.8A1,1,0,0,0,43.592-4.662Zm4.877-1.149.048.671a2.029,2.029,0,0,1,1.67-.779,1.686,1.686,0,0,1,1.375.542,2.531,2.531,0,0,1,.462,1.622V0H50.472V-3.717a1.007,1.007,0,0,0-.215-.717.962.962,0,0,0-.714-.223,1.068,1.068,0,0,0-.983.559V0H47.008V-5.812Zm6.59-1.429v1.429h.994v1.139h-.994v2.9a.693.693,0,0,0,.124.462.62.62,0,0,0,.473.14,2.475,2.475,0,0,0,.457-.038V-.032a3.2,3.2,0,0,1-.94.14,1.482,1.482,0,0,1-1.665-1.649V-4.673h-.849V-5.812h.849V-7.24Zm1.28,4.281A3.447,3.447,0,0,1,56.672-4.5a2.438,2.438,0,0,1,.959-1.047,2.8,2.8,0,0,1,1.453-.371A2.646,2.646,0,0,1,61-5.2a2.889,2.889,0,0,1,.83,1.955l.011.4A3.038,3.038,0,0,1,61.1-.7a2.6,2.6,0,0,1-2,.808A2.608,2.608,0,0,1,57.088-.7a3.091,3.091,0,0,1-.749-2.191Zm1.552.113A2.166,2.166,0,0,0,58.2-1.582a1.028,1.028,0,0,0,.892.438,1.031,1.031,0,0,0,.881-.432,2.371,2.371,0,0,0,.317-1.383,2.145,2.145,0,0,0-.317-1.257,1.031,1.031,0,0,0-.892-.446,1.014,1.014,0,0,0-.881.443A2.41,2.41,0,0,0,57.891-2.847Z" transform="translate(-7155.026 -8742.106)" fill="#242758"/>
    <path id="Trazado_800977" data-name="Trazado 800977" d="M2.766-2.2,3.84-5.812H5.505L3.169.9l-.129.306A1.771,1.771,0,0,1,1.321,2.347a2.442,2.442,0,0,1-.687-.1V1.069l.236.005A1.277,1.277,0,0,0,1.528.94.882.882,0,0,0,1.869.494L2.052.016.016-5.812h1.67Zm8.766,2.3A2.853,2.853,0,0,1,9.45-.677a2.787,2.787,0,0,1-.8-2.089v-.15a3.511,3.511,0,0,1,.338-1.566,2.483,2.483,0,0,1,.959-1.063,2.691,2.691,0,0,1,1.415-.373,2.412,2.412,0,0,1,1.877.752,3.056,3.056,0,0,1,.685,2.132V-2.4h-3.7a1.442,1.442,0,0,0,.454.913,1.372,1.372,0,0,0,.959.344,1.675,1.675,0,0,0,1.4-.65L13.8-.94a2.33,2.33,0,0,1-.945.771A3.1,3.1,0,0,1,11.532.107Zm-.177-4.77a.972.972,0,0,0-.749.312,1.609,1.609,0,0,0-.368.892H12.4v-.124a1.147,1.147,0,0,0-.279-.8A1,1,0,0,0,11.354-4.662ZM16.842-1.9l1.08-3.916h1.622L17.583,0H16.1l-1.96-5.812h1.622ZM23.436,0a1.724,1.724,0,0,1-.156-.521,1.878,1.878,0,0,1-1.466.628A2.063,2.063,0,0,1,20.4-.387a1.589,1.589,0,0,1-.561-1.246,1.642,1.642,0,0,1,.685-1.418,3.379,3.379,0,0,1,1.979-.5h.714v-.333a.958.958,0,0,0-.207-.645.813.813,0,0,0-.653-.242.925.925,0,0,0-.615.188.639.639,0,0,0-.223.516H19.966A1.559,1.559,0,0,1,20.278-5a2.059,2.059,0,0,1,.881-.674,3.21,3.21,0,0,1,1.278-.244,2.536,2.536,0,0,1,1.705.54,1.888,1.888,0,0,1,.631,1.517v2.519A2.778,2.778,0,0,0,25-.091V0ZM22.152-1.08a1.337,1.337,0,0,0,.634-.153,1,1,0,0,0,.43-.411v-1h-.58q-1.166,0-1.241.806l-.005.091a.621.621,0,0,0,.2.478A.793.793,0,0,0,22.152-1.08ZM27.6,0H26.046V-8.25H27.6Zm4.759-.591a1.947,1.947,0,0,1-1.59.7A1.836,1.836,0,0,1,29.347-.43,2.293,2.293,0,0,1,28.845-2V-5.812H30.4v3.754q0,.908.827.908A1.121,1.121,0,0,0,32.309-1.7V-5.812h1.558V0H32.406ZM38.405,0a1.724,1.724,0,0,1-.156-.521,1.878,1.878,0,0,1-1.466.628,2.063,2.063,0,0,1-1.415-.494,1.589,1.589,0,0,1-.561-1.246,1.642,1.642,0,0,1,.685-1.418,3.379,3.379,0,0,1,1.979-.5h.714v-.333a.958.958,0,0,0-.207-.645.813.813,0,0,0-.653-.242.925.925,0,0,0-.615.188.639.639,0,0,0-.223.516H34.936A1.559,1.559,0,0,1,35.247-5a2.059,2.059,0,0,1,.881-.674,3.21,3.21,0,0,1,1.278-.244,2.536,2.536,0,0,1,1.705.54,1.888,1.888,0,0,1,.631,1.517v2.519a2.778,2.778,0,0,0,.231,1.251V0ZM37.122-1.08a1.337,1.337,0,0,0,.634-.153,1,1,0,0,0,.43-.411v-1h-.58q-1.166,0-1.241.806l-.005.091a.621.621,0,0,0,.2.478A.793.793,0,0,0,37.122-1.08Zm6.23-.064a1.018,1.018,0,0,0,.7-.236.828.828,0,0,0,.279-.628h1.456a1.991,1.991,0,0,1-.322,1.082,2.126,2.126,0,0,1-.867.763,2.715,2.715,0,0,1-1.217.271,2.523,2.523,0,0,1-1.966-.792,3.135,3.135,0,0,1-.72-2.189v-.1a3.1,3.1,0,0,1,.714-2.143,2.494,2.494,0,0,1,1.96-.8,2.444,2.444,0,0,1,1.748.62,2.2,2.2,0,0,1,.669,1.652H44.33a1.058,1.058,0,0,0-.279-.733.934.934,0,0,0-.709-.282.935.935,0,0,0-.819.395,2.285,2.285,0,0,0-.277,1.281v.161a2.314,2.314,0,0,0,.274,1.289A.947.947,0,0,0,43.352-1.144ZM48.31,0H46.752V-5.812H48.31ZM46.661-7.315a.764.764,0,0,1,.234-.575.878.878,0,0,1,.636-.226.88.88,0,0,1,.634.226.76.76,0,0,1,.236.575.762.762,0,0,1-.239.58.882.882,0,0,1-.631.226.882.882,0,0,1-.631-.226A.762.762,0,0,1,46.661-7.315Zm2.686,4.356A3.447,3.447,0,0,1,49.679-4.5a2.438,2.438,0,0,1,.959-1.047,2.8,2.8,0,0,1,1.453-.371,2.646,2.646,0,0,1,1.92.72,2.889,2.889,0,0,1,.83,1.955l.011.4A3.038,3.038,0,0,1,54.105-.7a2.6,2.6,0,0,1-2,.808A2.608,2.608,0,0,1,50.1-.7a3.091,3.091,0,0,1-.749-2.191Zm1.552.113a2.166,2.166,0,0,0,.312,1.265,1.028,1.028,0,0,0,.892.438,1.031,1.031,0,0,0,.881-.432A2.371,2.371,0,0,0,53.3-2.959a2.145,2.145,0,0,0-.317-1.257,1.031,1.031,0,0,0-.892-.446,1.014,1.014,0,0,0-.881.443A2.41,2.41,0,0,0,50.9-2.847Zm1.5-5.4h1.692L52.6-6.585H51.339Zm4.839,2.438.048.671a2.029,2.029,0,0,1,1.67-.779,1.686,1.686,0,0,1,1.375.542,2.531,2.531,0,0,1,.462,1.622V0H59.24V-3.717a1.007,1.007,0,0,0-.215-.717.962.962,0,0,0-.714-.223,1.068,1.068,0,0,0-.983.559V0H55.775V-5.812Z" transform="translate(-7154.598 -8730.105)" fill="#242758"/>
    <path id="Trazado_800978" data-name="Trazado 800978" d="M6.886-.988a2.8,2.8,0,0,1-1.23.808A5.151,5.151,0,0,1,3.894.107,3.49,3.49,0,0,1,2.114-.336,2.956,2.956,0,0,1,.932-1.622,4.527,4.527,0,0,1,.5-3.6v-.532A4.808,4.808,0,0,1,.9-6.163,2.92,2.92,0,0,1,2.038-7.474a3.28,3.28,0,0,1,1.743-.454,3.266,3.266,0,0,1,2.175.663,2.835,2.835,0,0,1,.929,1.931H5.317a1.559,1.559,0,0,0-.475-.983A1.518,1.518,0,0,0,3.83-6.628a1.429,1.429,0,0,0-1.251.618,3.248,3.248,0,0,0-.435,1.837v.5A3.092,3.092,0,0,0,2.61-1.815a1.6,1.6,0,0,0,1.37.628,1.787,1.787,0,0,0,1.294-.387V-2.922H3.808V-4.109H6.886Zm3.878,1.1A2.853,2.853,0,0,1,8.682-.677a2.787,2.787,0,0,1-.8-2.089v-.15a3.511,3.511,0,0,1,.338-1.566,2.483,2.483,0,0,1,.959-1.063,2.691,2.691,0,0,1,1.415-.373,2.412,2.412,0,0,1,1.877.752,3.056,3.056,0,0,1,.685,2.132V-2.4h-3.7a1.442,1.442,0,0,0,.454.913,1.372,1.372,0,0,0,.959.344,1.675,1.675,0,0,0,1.4-.65l.763.854a2.33,2.33,0,0,1-.945.771A3.1,3.1,0,0,1,10.764.107Zm-.177-4.77a.972.972,0,0,0-.749.312,1.609,1.609,0,0,0-.368.892h2.159v-.124a1.147,1.147,0,0,0-.279-.8A1,1,0,0,0,10.586-4.662Zm6.6,3.056a.5.5,0,0,0-.282-.448A3.2,3.2,0,0,0,16-2.347q-2.073-.435-2.073-1.762A1.6,1.6,0,0,1,14.564-5.4a2.589,2.589,0,0,1,1.678-.518,2.787,2.787,0,0,1,1.77.521,1.642,1.642,0,0,1,.663,1.354H17.123a.751.751,0,0,0-.215-.551.909.909,0,0,0-.671-.218.929.929,0,0,0-.607.177.56.56,0,0,0-.215.451.478.478,0,0,0,.244.416,2.514,2.514,0,0,0,.824.274,6.734,6.734,0,0,1,.978.26,1.606,1.606,0,0,1,1.23,1.563,1.516,1.516,0,0,1-.682,1.286,2.943,2.943,0,0,1-1.762.491,3.073,3.073,0,0,1-1.3-.26,2.176,2.176,0,0,1-.889-.714,1.66,1.66,0,0,1-.322-.98h1.472a.81.81,0,0,0,.306.634,1.214,1.214,0,0,0,.763.22,1.124,1.124,0,0,0,.674-.169A.526.526,0,0,0,17.182-1.606ZM21.549-7.24v1.429h.994v1.139h-.994v2.9a.693.693,0,0,0,.124.462.62.62,0,0,0,.473.14,2.475,2.475,0,0,0,.457-.038V-.032a3.2,3.2,0,0,1-.94.14A1.482,1.482,0,0,1,20-1.542V-4.673h-.849V-5.812H20V-7.24ZM25.045,0H23.488V-5.812h1.558ZM23.4-7.315a.764.764,0,0,1,.234-.575.878.878,0,0,1,.636-.226.88.88,0,0,1,.634.226.76.76,0,0,1,.236.575.762.762,0,0,1-.239.58.882.882,0,0,1-.631.226.882.882,0,0,1-.631-.226A.762.762,0,0,1,23.4-7.315Zm2.686,4.356A3.447,3.447,0,0,1,26.415-4.5a2.438,2.438,0,0,1,.959-1.047,2.8,2.8,0,0,1,1.453-.371,2.646,2.646,0,0,1,1.92.72,2.889,2.889,0,0,1,.83,1.955l.011.4A3.038,3.038,0,0,1,30.841-.7a2.6,2.6,0,0,1-2,.808A2.608,2.608,0,0,1,26.831-.7a3.091,3.091,0,0,1-.749-2.191Zm1.552.113a2.166,2.166,0,0,0,.312,1.265,1.028,1.028,0,0,0,.892.438,1.031,1.031,0,0,0,.881-.432,2.371,2.371,0,0,0,.317-1.383,2.145,2.145,0,0,0-.317-1.257,1.031,1.031,0,0,0-.892-.446,1.014,1.014,0,0,0-.881.443A2.41,2.41,0,0,0,27.634-2.847Zm1.5-5.4h1.692L29.337-6.585H28.075Zm4.839,2.438.048.671a2.029,2.029,0,0,1,1.67-.779,1.686,1.686,0,0,1,1.375.542,2.531,2.531,0,0,1,.462,1.622V0H35.976V-3.717a1.007,1.007,0,0,0-.215-.717.962.962,0,0,0-.714-.223,1.068,1.068,0,0,0-.983.559V0H32.511V-5.812ZM41.2-2.949a3.5,3.5,0,0,1,.61-2.165,1.978,1.978,0,0,1,1.668-.806,1.78,1.78,0,0,1,1.4.634V-8.25h1.558V0h-1.4l-.075-.618a1.827,1.827,0,0,1-1.493.725A1.973,1.973,0,0,1,41.822-.7,3.615,3.615,0,0,1,41.2-2.949Zm1.552.113a2.288,2.288,0,0,0,.285,1.251.928.928,0,0,0,.827.435,1.039,1.039,0,0,0,1.015-.607V-4.05a1.024,1.024,0,0,0-1-.607Q42.754-4.657,42.754-2.836ZM50.316.107a2.853,2.853,0,0,1-2.081-.784,2.787,2.787,0,0,1-.8-2.089v-.15a3.511,3.511,0,0,1,.338-1.566,2.483,2.483,0,0,1,.959-1.063,2.691,2.691,0,0,1,1.415-.373,2.412,2.412,0,0,1,1.877.752,3.056,3.056,0,0,1,.685,2.132V-2.4h-3.7a1.442,1.442,0,0,0,.454.913,1.372,1.372,0,0,0,.959.344,1.675,1.675,0,0,0,1.4-.65l.763.854a2.33,2.33,0,0,1-.945.771A3.1,3.1,0,0,1,50.316.107Zm-.177-4.77a.972.972,0,0,0-.749.312,1.609,1.609,0,0,0-.368.892h2.159v-.124a1.147,1.147,0,0,0-.279-.8A1,1,0,0,0,50.139-4.662Z" transform="translate(-7197.586 -8901.893)" fill="#242758"/>
    <path id="Trazado_800979" data-name="Trazado 800979" d="M3.013-1.144a1.018,1.018,0,0,0,.7-.236.828.828,0,0,0,.279-.628H5.446A1.991,1.991,0,0,1,5.124-.927a2.126,2.126,0,0,1-.867.763A2.715,2.715,0,0,1,3.04.107,2.523,2.523,0,0,1,1.074-.685a3.135,3.135,0,0,1-.72-2.189v-.1a3.1,3.1,0,0,1,.714-2.143,2.494,2.494,0,0,1,1.96-.8,2.444,2.444,0,0,1,1.748.62,2.2,2.2,0,0,1,.669,1.652H3.991a1.058,1.058,0,0,0-.279-.733A.934.934,0,0,0,3-4.662a.935.935,0,0,0-.819.395,2.285,2.285,0,0,0-.277,1.281v.161a2.314,2.314,0,0,0,.274,1.289A.947.947,0,0,0,3.013-1.144ZM6.091-2.959A3.447,3.447,0,0,1,6.424-4.5a2.438,2.438,0,0,1,.959-1.047,2.8,2.8,0,0,1,1.453-.371,2.646,2.646,0,0,1,1.92.72,2.889,2.889,0,0,1,.83,1.955l.011.4A3.038,3.038,0,0,1,10.85-.7a2.6,2.6,0,0,1-2,.808A2.608,2.608,0,0,1,6.84-.7,3.091,3.091,0,0,1,6.091-2.89Zm1.552.113a2.166,2.166,0,0,0,.312,1.265,1.028,1.028,0,0,0,.892.438,1.031,1.031,0,0,0,.881-.432,2.371,2.371,0,0,0,.317-1.383,2.145,2.145,0,0,0-.317-1.257,1.031,1.031,0,0,0-.892-.446,1.014,1.014,0,0,0-.881.443A2.41,2.41,0,0,0,7.643-2.847Zm6.338-2.965.048.671a2.029,2.029,0,0,1,1.67-.779,1.686,1.686,0,0,1,1.375.542,2.531,2.531,0,0,1,.462,1.622V0H15.984V-3.717a1.007,1.007,0,0,0-.215-.717.962.962,0,0,0-.714-.223,1.068,1.068,0,0,0-.983.559V0H12.52V-5.812Zm4.49,2.852A3.447,3.447,0,0,1,18.8-4.5a2.438,2.438,0,0,1,.959-1.047,2.8,2.8,0,0,1,1.453-.371,2.646,2.646,0,0,1,1.92.72,2.889,2.889,0,0,1,.83,1.955l.011.4A3.038,3.038,0,0,1,23.23-.7a2.6,2.6,0,0,1-2,.808A2.608,2.608,0,0,1,19.22-.7a3.091,3.091,0,0,1-.749-2.191Zm1.552.113a2.166,2.166,0,0,0,.312,1.265,1.028,1.028,0,0,0,.892.438,1.031,1.031,0,0,0,.881-.432,2.371,2.371,0,0,0,.317-1.383,2.145,2.145,0,0,0-.317-1.257,1.031,1.031,0,0,0-.892-.446,1.014,1.014,0,0,0-.881.443A2.41,2.41,0,0,0,20.023-2.847Zm7.326,1.7a1.018,1.018,0,0,0,.7-.236.828.828,0,0,0,.279-.628h1.456A1.991,1.991,0,0,1,29.46-.927a2.126,2.126,0,0,1-.867.763,2.715,2.715,0,0,1-1.217.271,2.523,2.523,0,0,1-1.966-.792,3.135,3.135,0,0,1-.72-2.189v-.1a3.1,3.1,0,0,1,.714-2.143,2.494,2.494,0,0,1,1.96-.8,2.444,2.444,0,0,1,1.748.62,2.2,2.2,0,0,1,.669,1.652H28.327a1.058,1.058,0,0,0-.279-.733.934.934,0,0,0-.709-.282.935.935,0,0,0-.819.395,2.285,2.285,0,0,0-.277,1.281v.161a2.314,2.314,0,0,0,.274,1.289A.947.947,0,0,0,27.35-1.144ZM32.307,0H30.75V-5.812h1.558ZM30.658-7.315a.764.764,0,0,1,.234-.575.878.878,0,0,1,.636-.226.88.88,0,0,1,.634.226.76.76,0,0,1,.236.575.762.762,0,0,1-.239.58.882.882,0,0,1-.631.226.882.882,0,0,1-.631-.226A.762.762,0,0,1,30.658-7.315Zm4.383,1.5.048.65a2.042,2.042,0,0,1,1.67-.757,1.55,1.55,0,0,1,1.542.886,2,2,0,0,1,1.746-.886,1.733,1.733,0,0,1,1.407.551,2.531,2.531,0,0,1,.462,1.657V0H40.358V-3.706a1.107,1.107,0,0,0-.193-.722.857.857,0,0,0-.682-.228.969.969,0,0,0-.967.666L38.521,0H36.969V-3.7a1.093,1.093,0,0,0-.2-.73.865.865,0,0,0-.677-.226,1.006,1.006,0,0,0-.956.548V0H33.585V-5.812ZM44.747,0H43.189V-5.812h1.558ZM43.1-7.315a.764.764,0,0,1,.234-.575.878.878,0,0,1,.636-.226.88.88,0,0,1,.634.226.76.76,0,0,1,.236.575.762.762,0,0,1-.239.58.882.882,0,0,1-.631.226.882.882,0,0,1-.631-.226A.762.762,0,0,1,43.1-7.315ZM48.7.107a2.853,2.853,0,0,1-2.081-.784,2.787,2.787,0,0,1-.8-2.089v-.15a3.511,3.511,0,0,1,.338-1.566,2.483,2.483,0,0,1,.959-1.063,2.691,2.691,0,0,1,1.415-.373,2.412,2.412,0,0,1,1.877.752,3.056,3.056,0,0,1,.685,2.132V-2.4h-3.7a1.442,1.442,0,0,0,.454.913,1.372,1.372,0,0,0,.959.344,1.675,1.675,0,0,0,1.4-.65l.763.854a2.33,2.33,0,0,1-.945.771A3.1,3.1,0,0,1,48.7.107Zm-.177-4.77a.972.972,0,0,0-.749.312,1.609,1.609,0,0,0-.368.892h2.159v-.124a1.147,1.147,0,0,0-.279-.8A1,1,0,0,0,48.522-4.662ZM53.4-5.812l.048.671a2.029,2.029,0,0,1,1.67-.779,1.686,1.686,0,0,1,1.375.542,2.531,2.531,0,0,1,.462,1.622V0H55.4V-3.717a1.007,1.007,0,0,0-.215-.717.962.962,0,0,0-.714-.223,1.068,1.068,0,0,0-.983.559V0H51.938V-5.812ZM59.99-7.24v1.429h.994v1.139H59.99v2.9a.693.693,0,0,0,.124.462.62.62,0,0,0,.473.14,2.475,2.475,0,0,0,.457-.038V-.032a3.2,3.2,0,0,1-.94.14,1.482,1.482,0,0,1-1.665-1.649V-4.673h-.849V-5.812h.849V-7.24ZM61.3-2.959A3.447,3.447,0,0,1,61.635-4.5a2.438,2.438,0,0,1,.959-1.047,2.8,2.8,0,0,1,1.453-.371,2.646,2.646,0,0,1,1.92.72,2.889,2.889,0,0,1,.83,1.955l.011.4A3.038,3.038,0,0,1,66.061-.7a2.6,2.6,0,0,1-2,.808A2.608,2.608,0,0,1,62.052-.7,3.091,3.091,0,0,1,61.3-2.89Zm1.552.113a2.166,2.166,0,0,0,.312,1.265,1.028,1.028,0,0,0,.892.438,1.031,1.031,0,0,0,.881-.432,2.371,2.371,0,0,0,.317-1.383,2.145,2.145,0,0,0-.317-1.257,1.031,1.031,0,0,0-.892-.446,1.014,1.014,0,0,0-.881.443A2.41,2.41,0,0,0,62.855-2.847Z" transform="translate(-7204.746 -8889.891)" fill="#242758"/>
    <path id="Trazado_800980" data-name="Trazado 800980" d="M2.412,0H.8V-7.82H2.412ZM3.561-2.949a3.5,3.5,0,0,1,.61-2.165,1.978,1.978,0,0,1,1.668-.806,1.78,1.78,0,0,1,1.4.634V-8.25H8.8V0H7.4L7.321-.618A1.827,1.827,0,0,1,5.828.107,1.973,1.973,0,0,1,4.181-.7,3.615,3.615,0,0,1,3.561-2.949Zm1.552.113A2.288,2.288,0,0,0,5.4-1.584a.928.928,0,0,0,.827.435A1.039,1.039,0,0,0,7.24-1.756V-4.05a1.024,1.024,0,0,0-1-.607Q5.113-4.657,5.113-2.836ZM12.676.107a2.853,2.853,0,0,1-2.081-.784,2.787,2.787,0,0,1-.8-2.089v-.15a3.511,3.511,0,0,1,.338-1.566,2.483,2.483,0,0,1,.959-1.063A2.691,2.691,0,0,1,12.5-5.919a2.412,2.412,0,0,1,1.877.752,3.056,3.056,0,0,1,.685,2.132V-2.4h-3.7a1.442,1.442,0,0,0,.454.913,1.372,1.372,0,0,0,.959.344,1.675,1.675,0,0,0,1.4-.65l.763.854A2.33,2.33,0,0,1,14-.169,3.1,3.1,0,0,1,12.676.107ZM12.5-4.662a.972.972,0,0,0-.749.312,1.609,1.609,0,0,0-.368.892h2.159v-.124a1.147,1.147,0,0,0-.279-.8A1,1,0,0,0,12.5-4.662Zm4.877-1.149.048.671a2.029,2.029,0,0,1,1.67-.779,1.686,1.686,0,0,1,1.375.542,2.531,2.531,0,0,1,.462,1.622V0H19.379V-3.717a1.007,1.007,0,0,0-.215-.717.962.962,0,0,0-.714-.223,1.068,1.068,0,0,0-.983.559V0H15.915V-5.812Zm6.59-1.429v1.429h.994v1.139h-.994v2.9a.693.693,0,0,0,.124.462.62.62,0,0,0,.473.14,2.475,2.475,0,0,0,.457-.038V-.032a3.2,3.2,0,0,1-.94.14,1.482,1.482,0,0,1-1.665-1.649V-4.673h-.849V-5.812h.849V-7.24ZM27.462,0H25.9V-5.812h1.558ZM25.814-7.315a.764.764,0,0,1,.234-.575.878.878,0,0,1,.636-.226.88.88,0,0,1,.634.226.76.76,0,0,1,.236.575.762.762,0,0,1-.239.58.882.882,0,0,1-.631.226.882.882,0,0,1-.631-.226A.762.762,0,0,1,25.814-7.315ZM29.117,0V-4.673h-.865V-5.812h.865V-6.08a2.179,2.179,0,0,1,.674-1.689,2.712,2.712,0,0,1,1.872-.594,6.209,6.209,0,0,1,1.762.317L33.2-6.762a6.873,6.873,0,0,0-.816-.2,4.011,4.011,0,0,0-.623-.046q-1.085,0-1.085.961v.236h1.144v1.139H30.674V0ZM34.15,0H32.592V-5.812H34.15Zm3.7-1.144a1.018,1.018,0,0,0,.7-.236.828.828,0,0,0,.279-.628h1.456a1.991,1.991,0,0,1-.322,1.082,2.126,2.126,0,0,1-.867.763,2.715,2.715,0,0,1-1.217.271,2.523,2.523,0,0,1-1.966-.792,3.135,3.135,0,0,1-.72-2.189v-.1a3.1,3.1,0,0,1,.714-2.143,2.494,2.494,0,0,1,1.96-.8,2.444,2.444,0,0,1,1.748.62,2.2,2.2,0,0,1,.669,1.652H38.828a1.058,1.058,0,0,0-.279-.733.934.934,0,0,0-.709-.282.935.935,0,0,0-.819.395,2.285,2.285,0,0,0-.277,1.281v.161a2.314,2.314,0,0,0,.274,1.289A.947.947,0,0,0,37.85-1.144ZM44.537,0a1.724,1.724,0,0,1-.156-.521,1.878,1.878,0,0,1-1.466.628A2.063,2.063,0,0,1,41.5-.387a1.589,1.589,0,0,1-.561-1.246,1.642,1.642,0,0,1,.685-1.418,3.379,3.379,0,0,1,1.979-.5h.714v-.333a.958.958,0,0,0-.207-.645.813.813,0,0,0-.653-.242.925.925,0,0,0-.615.188.639.639,0,0,0-.223.516H41.068A1.559,1.559,0,0,1,41.379-5a2.059,2.059,0,0,1,.881-.674,3.21,3.21,0,0,1,1.278-.244,2.536,2.536,0,0,1,1.705.54,1.888,1.888,0,0,1,.631,1.517v2.519a2.778,2.778,0,0,0,.231,1.251V0ZM43.254-1.08a1.337,1.337,0,0,0,.634-.153,1,1,0,0,0,.43-.411v-1h-.58q-1.166,0-1.241.806l-.005.091a.621.621,0,0,0,.2.478A.793.793,0,0,0,43.254-1.08Zm6.23-.064a1.018,1.018,0,0,0,.7-.236.828.828,0,0,0,.279-.628h1.456a1.991,1.991,0,0,1-.322,1.082,2.126,2.126,0,0,1-.867.763,2.715,2.715,0,0,1-1.217.271,2.523,2.523,0,0,1-1.966-.792,3.135,3.135,0,0,1-.72-2.189v-.1a3.1,3.1,0,0,1,.714-2.143,2.494,2.494,0,0,1,1.96-.8,2.444,2.444,0,0,1,1.748.62,2.2,2.2,0,0,1,.669,1.652H50.462a1.058,1.058,0,0,0-.279-.733.934.934,0,0,0-.709-.282.935.935,0,0,0-.819.395,2.285,2.285,0,0,0-.277,1.281v.161a2.314,2.314,0,0,0,.274,1.289A.947.947,0,0,0,49.484-1.144ZM54.442,0H52.884V-5.812h1.558ZM52.793-7.315a.764.764,0,0,1,.234-.575.878.878,0,0,1,.636-.226.88.88,0,0,1,.634.226.76.76,0,0,1,.236.575.762.762,0,0,1-.239.58.882.882,0,0,1-.631.226.882.882,0,0,1-.631-.226A.762.762,0,0,1,52.793-7.315Zm2.686,4.356A3.447,3.447,0,0,1,55.811-4.5a2.438,2.438,0,0,1,.959-1.047,2.8,2.8,0,0,1,1.453-.371,2.646,2.646,0,0,1,1.92.72,2.889,2.889,0,0,1,.83,1.955l.011.4A3.038,3.038,0,0,1,60.237-.7a2.6,2.6,0,0,1-2,.808A2.608,2.608,0,0,1,56.227-.7a3.091,3.091,0,0,1-.749-2.191Zm1.552.113a2.166,2.166,0,0,0,.312,1.265,1.028,1.028,0,0,0,.892.438,1.031,1.031,0,0,0,.881-.432,2.371,2.371,0,0,0,.317-1.383,2.145,2.145,0,0,0-.317-1.257,1.031,1.031,0,0,0-.892-.446,1.014,1.014,0,0,0-.881.443A2.41,2.41,0,0,0,57.03-2.847Zm1.5-5.4h1.692L58.733-6.585H57.471Zm4.839,2.438.048.671a2.029,2.029,0,0,1,1.67-.779,1.686,1.686,0,0,1,1.375.542,2.531,2.531,0,0,1,.462,1.622V0H65.372V-3.717a1.007,1.007,0,0,0-.215-.717.962.962,0,0,0-.714-.223,1.068,1.068,0,0,0-.983.559V0H61.907V-5.812Z" transform="translate(-7015.379 -8907.372) rotate(45)" fill="#242758"/>
  </g>
</svg>
