<svg xmlns="http://www.w3.org/2000/svg" xmlns:xlink="http://www.w3.org/1999/xlink" width="190" height="190" viewBox="0 0 190 190">
  <defs>
    <clipPath id="clip-path">
      <circle id="Elipse_8272" data-name="Elipse 8272" cx="95" cy="95" r="95" transform="translate(285 4911)" fill="#fff" stroke="#707070" stroke-width="1"/>
    </clipPath>
    <clipPath id="clip-path-2">
      <rect id="Rectángulo_373639" data-name="Rectángulo 373639" width="238.312" height="138.691" fill="none"/>
    </clipPath>
    <clipPath id="clip-path-4">
      <rect id="Rectángulo_373634" data-name="Rectángulo 373634" width="31.008" height="9.173" fill="none"/>
    </clipPath>
  </defs>
  <g id="Enmascarar_grupo_1059022" data-name="Enmascarar grupo 1059022" transform="translate(-285 -4911)" clip-path="url(#clip-path)">
    <rect id="Rectángulo_373628" data-name="Rectángulo 373628" width="1240" height="422" rx="10" transform="translate(180 4768)" fill="#e3eefc"/>
    <circle id="Elipse_8271" data-name="Elipse 8271" cx="95" cy="95" r="95" transform="translate(285 4911)" fill="#ffe0dd"/>
    <g id="Grupo_1064205" data-name="Grupo 1064205" transform="translate(265 4928.36)">
      <g id="Grupo_1064204" data-name="Grupo 1064204" clip-path="url(#clip-path-2)">
        <path id="Trazado_797869" data-name="Trazado 797869" d="M8.328,96.543,0,119.218H238.311l-8.974-13-6.555-9.5-.123-.178Z" transform="translate(0 19.473)" fill="#d79247"/>
        <rect id="Rectángulo_373629" data-name="Rectángulo 373629" width="56.252" height="23.015" transform="translate(78.251 115.676)" fill="#e2b07a"/>
        <path id="Trazado_797870" data-name="Trazado 797870" d="M160.011,96.69v22.5h37.051v-13l-6.555-9.5Z" transform="translate(32.275 19.503)" fill="#e2b07a"/>
        <g id="Grupo_1064203" data-name="Grupo 1064203">
          <g id="Grupo_1064202" data-name="Grupo 1064202" clip-path="url(#clip-path-2)">
            <path id="Trazado_797871" data-name="Trazado 797871" d="M80.756,105.193c0,1.126-8.937,2.039-19.963,2.039s-19.961-.913-19.961-2.039,8.937-2.039,19.961-2.039,19.963.913,19.963,2.039" transform="translate(8.236 20.806)" fill="#a97335"/>
            <rect id="Rectángulo_373630" data-name="Rectángulo 373630" width="39.018" height="22.497" transform="translate(162.944 116.194)" fill="#b96c38"/>
            <rect id="Rectángulo_373631" data-name="Rectángulo 373631" width="9.677" height="22.675" transform="translate(192.284 116.016)" fill="#b7923a"/>
            <path id="Trazado_797872" data-name="Trazado 797872" d="M159.775,116.563H107.617a1.918,1.918,0,0,1-1.909-2.105l1.047-10.747a1.92,1.92,0,0,1,1.911-1.734h49.553a1.919,1.919,0,0,1,1.9,1.644l1.557,10.748a1.92,1.92,0,0,1-1.9,2.194" transform="translate(21.32 20.569)" fill="#c59a57"/>
            <path id="Trazado_797873" data-name="Trazado 797873" d="M159.775,115.668H107.617a1.918,1.918,0,0,1-1.909-2.105l1.047-10.747a1.92,1.92,0,0,1,1.911-1.734h49.553a1.919,1.919,0,0,1,1.9,1.644l1.557,10.748a1.92,1.92,0,0,1-1.9,2.194" transform="translate(21.32 20.388)" fill="#ead59c"/>
            <rect id="Rectángulo_373632" data-name="Rectángulo 373632" width="3.712" height="2.793" transform="translate(14.4 102.53)" fill="#d7dcdf"/>
            <path id="Trazado_797874" data-name="Trazado 797874" d="M16.192,87.645H12.337l-2.46,6.673h8.775Z" transform="translate(1.992 17.678)" fill="#d7dcdf"/>
            <path id="Trazado_797875" data-name="Trazado 797875" d="M15.445,87.645H12.67L10.9,94.318h6.315Z" transform="translate(2.199 17.678)" fill="#c8c9cb"/>
            <path id="Trazado_797876" data-name="Trazado 797876" d="M15.718,85.826H12.083a.4.4,0,0,1-.4-.4V83.437a.4.4,0,0,1,.4-.4h3.635a.4.4,0,0,1,.4.4v1.986a.4.4,0,0,1-.4.4" transform="translate(2.356 16.748)" fill="#c6c4af"/>
            <path id="Trazado_797877" data-name="Trazado 797877" d="M13.508,84.763H12.071a.392.392,0,0,1-.392-.392v-.542a.393.393,0,0,1,.392-.393h1.437a.393.393,0,0,1,.392.393v.542a.392.392,0,0,1-.392.392" transform="translate(2.356 16.829)" fill="#eff0f0"/>
            <path id="Trazado_797878" data-name="Trazado 797878" d="M14.369,84.539H11.845a.181.181,0,1,1,0-.362h2.524a.181.181,0,1,1,0,.362" transform="translate(2.353 16.979)" fill="#939f9a"/>
            <path id="Trazado_797879" data-name="Trazado 797879" d="M15.679,83.8H13.155a.181.181,0,0,1,0-.363h2.524a.181.181,0,0,1,0,.363" transform="translate(2.617 16.829)" fill="#939f9a"/>
            <path id="Trazado_797880" data-name="Trazado 797880" d="M16.015,85.472H11.854a.344.344,0,1,1,0-.687h4.161a.344.344,0,1,1,0,.687" transform="translate(2.322 17.101)" fill="#939f9a"/>
            <path id="Trazado_797881" data-name="Trazado 797881" d="M18.565,109.856H10.3a1.241,1.241,0,0,1-1.238-1.318l.936-14.92a1.24,1.24,0,0,1,1.238-1.163h6.4a1.24,1.24,0,0,1,1.238,1.163l.936,14.92a1.241,1.241,0,0,1-1.238,1.318" transform="translate(1.826 18.648)" fill="#9c7002"/>
            <path id="Trazado_797882" data-name="Trazado 797882" d="M18.651,108.486a1.207,1.207,0,0,1-.725,1.225.915.915,0,0,1-.286.048H10.889a.885.885,0,0,1-.478-.142,1.258,1.258,0,0,1-.532-1.131l.342-6.459.4-7.554.022-.412a1.1,1.1,0,0,1,1.011-1.122h5.223a1.1,1.1,0,0,1,1.011,1.122l.088,1.651.358,6.772Z" transform="translate(1.992 18.746)" fill="#e79524"/>
            <path id="Trazado_797883" data-name="Trazado 797883" d="M18.274,102.484a9.667,9.667,0,0,1-8.11-.457l.4-7.555.02-.412A1.1,1.1,0,0,1,11.6,92.939h5.223A1.1,1.1,0,0,1,17.83,94.06l.087,1.652Z" transform="translate(2.05 18.746)" fill="#ffb504"/>
            <path id="Trazado_797884" data-name="Trazado 797884" d="M17.849,95.712a5.032,5.032,0,0,1-3.168,1.074A4.643,4.643,0,0,1,10.5,94.473l.02-.412a1.1,1.1,0,0,1,1.011-1.122h5.223a1.1,1.1,0,0,1,1.011,1.122Z" transform="translate(2.117 18.746)" fill="#ffe100"/>
            <path id="Trazado_797885" data-name="Trazado 797885" d="M17.836,107.262a.9.9,0,0,1-.286.048H10.8a.885.885,0,0,1-.478-.142c.232-1.181,1.823-2.1,3.752-2.1,1.977,0,3.6.963,3.764,2.189" transform="translate(2.082 21.193)" fill="#ffe100"/>
            <path id="Trazado_797886" data-name="Trazado 797886" d="M12.511,87.75a.251.251,0,0,1-.251-.251v-1.68a.251.251,0,0,1,.5,0V87.5a.251.251,0,0,1-.251.251" transform="translate(2.473 17.259)" fill="#eff0f0"/>
            <path id="Trazado_797887" data-name="Trazado 797887" d="M11.409,94.018a.53.53,0,0,1-.375-.649l1.239-4.636a.529.529,0,1,1,1.023.274l-1.238,4.636a.53.53,0,0,1-.649.375" transform="translate(2.222 17.818)" fill="#eff0f0"/>
            <path id="Trazado_797888" data-name="Trazado 797888" d="M51.379,108.813c0,1.126-8.937,2.039-19.963,2.039s-19.961-.913-19.961-2.039,8.937-2.039,19.961-2.039,19.963.913,19.963,2.039" transform="translate(2.311 21.537)" fill="#a97335"/>
            <path id="Trazado_797889" data-name="Trazado 797889" d="M36.54,100.095a7.089,7.089,0,1,1-14.178,0c0-3.915,3.353-5.914,7.268-5.914s6.91,2,6.91,5.914" transform="translate(4.51 18.997)" fill="#b92d1c"/>
            <path id="Trazado_797890" data-name="Trazado 797890" d="M33.558,99.582a5.269,5.269,0,0,1-10.539,0c0-2.911,2.494-4.4,5.4-4.4s5.136,1.485,5.136,4.4" transform="translate(4.643 19.199)" fill="#d83529"/>
            <path id="Trazado_797891" data-name="Trazado 797891" d="M43.31,102.487c0,3.875-3.872,7.08-7.747,7.08a7.017,7.017,0,0,1-7.017-7.017c0-3.877,1.668-7.52,7.382-6.03,6.276-.988,7.382,2.091,7.382,5.966" transform="translate(5.758 19.4)" fill="#f1ad15"/>
            <path id="Trazado_797892" data-name="Trazado 797892" d="M33.417,107.221H32.07a2.494,2.494,0,0,1-2.488-2.488V100.02a2.5,2.5,0,0,1,2.488-2.488h1.347A2.5,2.5,0,0,1,35.9,100.02v4.714a2.5,2.5,0,0,1-2.488,2.488" transform="translate(5.967 19.672)" fill="#fec90d"/>
            <path id="Trazado_797893" data-name="Trazado 797893" d="M38.682,107.221H37.63a2.4,2.4,0,0,1-2.388-2.389V99.921a2.4,2.4,0,0,1,2.388-2.389h1.053a2.4,2.4,0,0,1,2.389,2.389v4.911a2.4,2.4,0,0,1-2.389,2.389" transform="translate(7.108 19.672)" fill="#fec90d"/>
            <path id="Trazado_797894" data-name="Trazado 797894" d="M27.611,93.129A2,2,0,0,1,28.3,95.15l-.842.278a2.335,2.335,0,0,0,2.314-.216c-.618-.061-.864-.093-.864-.093s-.017-1.727-.842-2.238Z" transform="translate(5.538 18.734)" fill="#ceab2e"/>
            <path id="Trazado_797895" data-name="Trazado 797895" d="M33.459,97.669a1.823,1.823,0,0,1,1.411.9c.442-.753,1.887-.9,1.887-.9s-1-.242-1.1-1.084a2.24,2.24,0,0,0-1.916-2.413c-.534.659-.691.659-.691.659s1.884.095,1.7,1.477c-.22.722-1.288,1.362-1.288,1.362" transform="translate(6.666 18.995)" fill="#8dc63f"/>
            <path id="Trazado_797896" data-name="Trazado 797896" d="M28.807,103.612c0,3.5-3.174,6.344-7.089,6.344s-7.089-2.84-7.089-6.344,2.745-5.959,7.089-5.59c5.281-.369,7.089,2.086,7.089,5.59" transform="translate(2.951 19.764)" fill="#be4d1b"/>
            <path id="Trazado_797897" data-name="Trazado 797897" d="M28.135,103.56c0,3.219-2.917,5.829-6.514,5.829s-6.513-2.61-6.513-5.829,2.522-5.475,6.513-5.136c4.854-.339,6.514,1.917,6.514,5.136" transform="translate(3.047 19.845)" fill="#eb5f21"/>
            <path id="Trazado_797898" data-name="Trazado 797898" d="M24.08,102.674a2.325,2.325,0,1,1-2.326-2.324,2.327,2.327,0,0,1,2.326,2.324" transform="translate(3.919 20.241)" fill="#f19463"/>
            <path id="Trazado_797899" data-name="Trazado 797899" d="M16.942,99.151l.678.654a8.491,8.491,0,0,0-2.532,4.313,4.69,4.69,0,0,1,1.854-4.967" transform="translate(3.025 19.999)" fill="#f19463"/>
            <path id="Trazado_797900" data-name="Trazado 797900" d="M42.436,108.868H17.32l-1.738-2.319h28.59Z" transform="translate(3.143 21.491)" fill="#dab969"/>
            <path id="Trazado_797901" data-name="Trazado 797901" d="M46.034,106.841H14.5a.845.845,0,0,1-.845-.845.858.858,0,0,1,.845-.9H46.034a.845.845,0,0,1,.845.845.858.858,0,0,1-.845.9" transform="translate(2.754 21.199)" fill="#ffd385"/>
            <path id="Trazado_797902" data-name="Trazado 797902" d="M39.267,101.8a.7.7,0,0,1-.695-.695V98.45a.695.695,0,1,1,1.389,0V101.1a.7.7,0,0,1-.695.695" transform="translate(7.78 19.717)" fill="#ffe27a"/>
            <path id="Trazado_797903" data-name="Trazado 797903" d="M34.219,102.067a.741.741,0,0,1-.784-.723V99.35a.726.726,0,0,1,.723-.723.741.741,0,0,1,.784.723v1.994a.726.726,0,0,1-.723.723" transform="translate(6.744 19.893)" fill="#ffe27a"/>
            <path id="Trazado_797904" data-name="Trazado 797904" d="M22.311,99.055s-1.444.144-1.887.9a1.826,1.826,0,0,0-1.411-.9s1.068-.641,1.288-1.363a1.093,1.093,0,0,0-.085-.644,1.555,1.555,0,0,0,.636-.508,3.217,3.217,0,0,1,.361,1.429c.094.842,1.1,1.086,1.1,1.086" transform="translate(3.835 19.472)" fill="#699b31"/>
            <path id="Trazado_797905" data-name="Trazado 797905" d="M143.179,105.607a3.659,3.659,0,0,1-.143.595,3.595,3.595,0,0,1-6.987-.893,15.517,15.517,0,0,1,7.13.3" transform="translate(27.441 21.183)" fill="#eb5f21"/>
            <path id="Trazado_797906" data-name="Trazado 797906" d="M142.178,105.477a2.8,2.8,0,0,1-.107.443,2.672,2.672,0,0,1-5.195-.671,11.523,11.523,0,0,1,5.3.227" transform="translate(27.608 21.186)" fill="#be4d1b"/>
            <path id="Trazado_797907" data-name="Trazado 797907" d="M148.138,102.836a3.546,3.546,0,0,1-.145.595,3.594,3.594,0,0,1-6.985-.893,15.523,15.523,0,0,1,7.131.3" transform="translate(28.441 20.624)" fill="#eb5f21"/>
            <path id="Trazado_797908" data-name="Trazado 797908" d="M147.136,102.7a2.789,2.789,0,0,1-.107.442,2.672,2.672,0,0,1-5.195-.669,11.522,11.522,0,0,1,5.3.227" transform="translate(28.608 20.627)" fill="#be4d1b"/>
            <path id="Trazado_797909" data-name="Trazado 797909" d="M154.335,109.457a3.592,3.592,0,0,1-7.13-.3,15.517,15.517,0,0,1,7.13.3" transform="translate(29.692 21.96)" fill="#eb5f21"/>
            <path id="Trazado_797910" data-name="Trazado 797910" d="M153.333,109.327a2.784,2.784,0,0,1-.107.442,2.672,2.672,0,0,1-5.195-.669,11.522,11.522,0,0,1,5.3.227" transform="translate(29.858 21.963)" fill="#be4d1b"/>
            <path id="Trazado_797911" data-name="Trazado 797911" d="M139.169,104.2a3.591,3.591,0,1,0,6.892,2.02,15.893,15.893,0,0,1-6.892-2.02" transform="translate(28.039 21.017)" fill="#eb5f21"/>
            <path id="Trazado_797912" data-name="Trazado 797912" d="M139.786,104.522a2.756,2.756,0,1,0,5.289,1.55,12.2,12.2,0,0,1-5.289-1.55" transform="translate(28.171 21.082)" fill="#be4d1b"/>
            <path id="Trazado_797913" data-name="Trazado 797913" d="M152.441,107.741a3.592,3.592,0,0,1-6.508-2.926,15.518,15.518,0,0,1,6.508,2.926" transform="translate(29.401 21.141)" fill="#eb5f21"/>
            <path id="Trazado_797914" data-name="Trazado 797914" d="M151.548,107.259a2.671,2.671,0,0,1-4.838-2.181,11.545,11.545,0,0,1,4.838,2.181" transform="translate(29.566 21.194)" fill="#be4d1b"/>
            <path id="Trazado_797915" data-name="Trazado 797915" d="M148.967,107.985a3.591,3.591,0,0,1-6.045-3.791,15.52,15.52,0,0,1,6.045,3.791" transform="translate(28.757 21.016)" fill="#eb5f21"/>
            <path id="Trazado_797916" data-name="Trazado 797916" d="M148.141,107.387a2.616,2.616,0,0,1-.312.332,2.671,2.671,0,0,1-4.18-3.156,11.51,11.51,0,0,1,4.492,2.824" transform="translate(28.922 21.091)" fill="#be4d1b"/>
            <path id="Trazado_797917" data-name="Trazado 797917" d="M71.692,108.125c0,2.53-1.579,4.582-3.529,4.582s-3.528-2.053-3.528-4.582a5.6,5.6,0,0,1,.066-.882c.316-2.108,1.745-3.7,3.462-3.7a3.111,3.111,0,0,1,2.351,1.168,5.232,5.232,0,0,1,1.179,3.414" transform="translate(13.037 20.885)" fill="#d3d3c9"/>
            <path id="Trazado_797918" data-name="Trazado 797918" d="M78.965,108.125c0,2.53-1.583,4.582-3.529,4.582s-3.528-2.053-3.528-4.582a5.557,5.557,0,0,1,.066-.878c.312-2.109,1.745-3.7,3.462-3.7a3.111,3.111,0,0,1,2.351,1.168,5.232,5.232,0,0,1,1.179,3.414" transform="translate(14.504 20.885)" fill="#d3d3c9"/>
            <path id="Trazado_797919" data-name="Trazado 797919" d="M86.31,108.01c0,2.53-1.579,4.582-3.529,4.582s-3.528-2.053-3.528-4.582a5.6,5.6,0,0,1,.066-.882c.316-2.108,1.745-3.7,3.462-3.7a3.122,3.122,0,0,1,2.351,1.164,5.237,5.237,0,0,1,1.179,3.418" transform="translate(15.985 20.862)" fill="#d3d3c9"/>
            <path id="Trazado_797920" data-name="Trazado 797920" d="M93.75,108.01c0,2.53-1.583,4.582-3.529,4.582s-3.528-2.053-3.528-4.582a5.556,5.556,0,0,1,.066-.878c.312-2.109,1.745-3.7,3.462-3.7a3.111,3.111,0,0,1,2.351,1.168,5.234,5.234,0,0,1,1.179,3.414" transform="translate(17.486 20.862)" fill="#d3d3c9"/>
            <path id="Trazado_797921" data-name="Trazado 797921" d="M70.5,104.711c-.316,2.109-1.745,3.7-3.463,3.7a3.115,3.115,0,0,1-2.349-1.167c.316-2.109,1.745-3.7,3.463-3.7a3.109,3.109,0,0,1,2.349,1.167" transform="translate(13.048 20.885)" fill="#e6e6e3"/>
            <path id="Trazado_797922" data-name="Trazado 797922" d="M77.775,104.711c-.316,2.109-1.745,3.7-3.463,3.7a3.12,3.12,0,0,1-2.349-1.164c.314-2.109,1.745-3.7,3.463-3.7a3.109,3.109,0,0,1,2.349,1.167" transform="translate(14.515 20.885)" fill="#e6e6e3"/>
            <path id="Trazado_797923" data-name="Trazado 797923" d="M85.12,104.592c-.312,2.109-1.745,3.7-3.463,3.7a3.114,3.114,0,0,1-2.349-1.168c.316-2.109,1.745-3.7,3.463-3.7a3.12,3.12,0,0,1,2.349,1.164" transform="translate(15.996 20.862)" fill="#e6e6e3"/>
            <path id="Trazado_797924" data-name="Trazado 797924" d="M92.56,104.6c-.316,2.109-1.745,3.7-3.463,3.7a3.12,3.12,0,0,1-2.349-1.164c.314-2.109,1.745-3.7,3.463-3.7A3.109,3.109,0,0,1,92.56,104.6" transform="translate(17.497 20.862)" fill="#e6e6e3"/>
            <path id="Trazado_797925" data-name="Trazado 797925" d="M69.6,108.66c0,2.531-1.579,4.582-3.528,4.582s-3.528-2.051-3.528-4.582,1.579-4.582,3.528-4.582,3.528,2.051,3.528,4.582" transform="translate(12.615 20.993)" fill="#f7f7f7"/>
            <path id="Trazado_797926" data-name="Trazado 797926" d="M76.872,108.66c0,2.531-1.579,4.582-3.528,4.582s-3.528-2.051-3.528-4.582,1.579-4.582,3.528-4.582,3.528,2.051,3.528,4.582" transform="translate(14.082 20.993)" fill="#f7f7f7"/>
            <path id="Trazado_797927" data-name="Trazado 797927" d="M84.218,108.545c0,2.531-1.579,4.582-3.528,4.582s-3.528-2.051-3.528-4.582,1.579-4.582,3.528-4.582,3.528,2.051,3.528,4.582" transform="translate(15.564 20.97)" fill="#f7f7f7"/>
            <path id="Trazado_797928" data-name="Trazado 797928" d="M91.658,108.545c0,2.531-1.579,4.582-3.528,4.582s-3.528-2.051-3.528-4.582,1.579-4.582,3.528-4.582,3.528,2.051,3.528,4.582" transform="translate(17.064 20.97)" fill="#f7f7f7"/>
            <path id="Trazado_797929" data-name="Trazado 797929" d="M99.828,109.578V110.6c0,.817-.324,1.478-.726,1.478H62.233c-.4,0-.722-.661-.722-1.478v-1.023c0-.81.321-1.471.722-1.471H99.1c.4,0,.726.661.726,1.471" transform="translate(12.407 21.805)" fill="#bebeb7"/>
            <path id="Trazado_797930" data-name="Trazado 797930" d="M69.907,108.2a5.93,5.93,0,0,1-.088,1.023c-.379,2.175-1.937,3.806-3.806,3.806s-3.426-1.631-3.8-3.806a5.93,5.93,0,0,1-.088-1.023,6.182,6.182,0,0,1,.066-.893h7.654a6.181,6.181,0,0,1,.066.893" transform="translate(12.53 21.644)" fill="#d3d3c9"/>
            <path id="Trazado_797931" data-name="Trazado 797931" d="M77.314,108.2a5.929,5.929,0,0,1-.088,1.023c-.379,2.175-1.937,3.806-3.806,3.806s-3.426-1.631-3.8-3.806a5.93,5.93,0,0,1-.088-1.023,6.18,6.18,0,0,1,.066-.893h7.654a6.181,6.181,0,0,1,.066.893" transform="translate(14.024 21.644)" fill="#d3d3c9"/>
            <path id="Trazado_797932" data-name="Trazado 797932" d="M84.721,108.2a5.93,5.93,0,0,1-.088,1.023c-.379,2.175-1.937,3.806-3.806,3.806s-3.426-1.631-3.8-3.806a5.93,5.93,0,0,1-.088-1.023,6.182,6.182,0,0,1,.066-.893h7.654a6.182,6.182,0,0,1,.066.893" transform="translate(15.518 21.644)" fill="#d3d3c9"/>
            <path id="Trazado_797933" data-name="Trazado 797933" d="M92.128,108.2a5.93,5.93,0,0,1-.088,1.023c-.379,2.175-1.937,3.806-3.806,3.806s-3.426-1.631-3.8-3.806a5.93,5.93,0,0,1-.088-1.023,6.18,6.18,0,0,1,.066-.893h7.654a6.182,6.182,0,0,1,.066.893" transform="translate(17.012 21.644)" fill="#d3d3c9"/>
            <path id="Trazado_797934" data-name="Trazado 797934" d="M100.877,108.274v.494a.712.712,0,0,1-.713.713H61.241a.71.71,0,0,1-.71-.713v-.494a.71.71,0,0,1,.71-.71h38.923a.712.712,0,0,1,.713.71" transform="translate(12.209 21.696)" fill="#adafa1"/>
            <path id="Trazado_797935" data-name="Trazado 797935" d="M100.679,108.019v.494a.712.712,0,0,1-.713.713H63.75a.71.71,0,0,1-.71-.713v-.494a.709.709,0,0,1,.71-.71H99.966a.711.711,0,0,1,.713.71" transform="translate(12.715 21.644)" fill="#bebeb7"/>
            <path id="Trazado_797936" data-name="Trazado 797936" d="M98.425,108.019v.494a.712.712,0,0,1-.713.713H61.5a.71.71,0,0,1-.71-.713v-.494a.709.709,0,0,1,.71-.71H97.712a.711.711,0,0,1,.713.71" transform="translate(12.261 21.644)" fill="#deded6"/>
            <path id="Trazado_797937" data-name="Trazado 797937" d="M137.079,109.325c.179.97-1.675,1.7-4.177,1.966s-4.613-.311-4.718-1.292c-.19-1.775,1.837-1.994,4.339-2.26s4.136-.692,4.556,1.586" transform="translate(25.853 21.687)" fill="#7cba42"/>
            <path id="Trazado_797938" data-name="Trazado 797938" d="M136.47,108.389c.088.834-1.658,1.747-3.9,2.039s-4.134-.149-4.224-.983,1.657-1.747,3.9-2.039,4.136.148,4.225.983" transform="translate(25.886 21.646)" fill="#f1f4d1"/>
            <path id="Trazado_797939" data-name="Trazado 797939" d="M135.133,108.477c.075.984-1.846,1.512-4.362,1.512s-4.554-.8-4.554-1.787c0-1.786,2.039-1.786,4.554-1.786s4.187-.249,4.362,2.061" transform="translate(25.458 21.463)" fill="#7cba42"/>
            <path id="Trazado_797940" data-name="Trazado 797940" d="M134.62,107.51c0,.839-1.834,1.561-4.1,1.613s-4.1-.586-4.1-1.426,1.834-1.561,4.1-1.613,4.1.586,4.1,1.426" transform="translate(25.501 21.397)" fill="#f1f4d1"/>
            <path id="Trazado_797941" data-name="Trazado 797941" d="M129.032,110.955c.075.984-1.846,1.512-4.362,1.512s-4.554-.8-4.554-1.787c0-1.785,2.039-1.786,4.554-1.786s4.187-.249,4.362,2.061" transform="translate(24.227 21.963)" fill="#7cba42"/>
            <path id="Trazado_797942" data-name="Trazado 797942" d="M128.52,109.989c0,.839-1.834,1.561-4.1,1.613s-4.1-.586-4.1-1.425,1.834-1.562,4.1-1.614,4.1.588,4.1,1.426" transform="translate(24.27 21.897)" fill="#f1f4d1"/>
            <path id="Trazado_797943" data-name="Trazado 797943" d="M132.845,107.573c.074.984-1.846,1.512-4.362,1.512s-4.554-.8-4.554-1.787c0-1.786,2.039-1.786,4.554-1.786s4.187-.249,4.362,2.061" transform="translate(24.997 21.281)" fill="#7cba42"/>
            <path id="Trazado_797944" data-name="Trazado 797944" d="M132.333,106.607c0,.839-1.834,1.561-4.1,1.613s-4.1-.586-4.1-1.425,1.834-1.562,4.1-1.614,4.1.586,4.1,1.426" transform="translate(25.04 21.215)" fill="#f1f4d1"/>
            <path id="Trazado_797945" data-name="Trazado 797945" d="M129.488,100.988a5.125,5.125,0,1,1-5.123-5.124,4.74,4.74,0,0,1,.733.055l4.29,4.073a4.872,4.872,0,0,1,.1,1" transform="translate(24.051 19.336)" fill="#57882e"/>
            <path id="Trazado_797946" data-name="Trazado 797946" d="M129.905,102.394a4.61,4.61,0,1,1-4.61-4.61,4.609,4.609,0,0,1,4.61,4.61" transform="translate(24.343 19.723)" fill="#7cba42"/>
            <path id="Trazado_797947" data-name="Trazado 797947" d="M128.289,102.411a3.407,3.407,0,1,1-3.407-3.4,3.4,3.4,0,0,1,3.407,3.4" transform="translate(24.502 19.971)" fill="#f1f4d1"/>
            <path id="Trazado_797948" data-name="Trazado 797948" d="M152.991,31.588a4.772,4.772,0,0,1-.69.84c-2.548,2.526-9.045,5.123-9.045,5.123S115.97,18.1,113.3,18.2l-2.676.094a53.3,53.3,0,0,1,.212-8.533,8.943,8.943,0,0,1,.645-2.486C113.667,4.8,126.573-.994,134.75.147a29.9,29.9,0,0,1,15.2,13.507c.757,1.691,4.462,15.275,3.038,17.934" transform="translate(22.296 0)" fill="#f7f7f7"/>
            <path id="Trazado_797949" data-name="Trazado 797949" d="M152.3,31.949c-2.548,2.526-9.045,5.123-9.045,5.123S115.97,17.619,113.3,17.72l-2.676.094a53.3,53.3,0,0,1,.212-8.533c2.987-2.626,15.1-7.85,22.9-6.758,6.219,8.353,16.922,11.109,15.2,13.5-1.466,2.032.534,12.266,3.366,15.926" transform="translate(22.296 0.479)" fill="#e6e6e6"/>
            <path id="Trazado_797950" data-name="Trazado 797950" d="M115.017,16.295c-.07-.284,3.033-3.324,3.9-5.509,3.531-.951,12.554,0,12.554,0s6.834,7.125,10.826,8.93c1.333,4.844,1.257,7.594,2.387,10.019a32.93,32.93,0,0,1-.959,4.229s-28.643-17.383-28.712-17.669" transform="translate(23.199 2.09)" fill="#ccc"/>
            <path id="Trazado_797951" data-name="Trazado 797951" d="M149.913,46.623l-5.268-.489s-15.9-10.008-13.762-20.862c0,0,3.6,1.513,7.5,3.505,2.747,1.4,7.793,2.926,10.981,5.089a7.962,7.962,0,0,1,2.224,2.1,3.74,3.74,0,0,1,.5,1c1.274,3.961-2.175,9.652-2.175,9.652" transform="translate(26.36 5.097)" fill="#a6693a"/>
            <path id="Trazado_797952" data-name="Trazado 797952" d="M129.87,25.427a43.293,43.293,0,0,0,10.468,10.312C146.694,40,145.423,46.1,145.423,46.1s-8.7.147-15.552-9,0-11.678,0-11.678" transform="translate(25.581 5.129)" fill="#874b1c"/>
            <path id="Trazado_797953" data-name="Trazado 797953" d="M130.465,25.946a43.319,43.319,0,0,0,8.187,12.2c5.374,5.444,2.9,11.171,2.9,11.171s-8.551-1.6-13.433-11.933,2.342-11.44,2.342-11.44" transform="translate(25.501 5.233)" fill="#693812"/>
            <path id="Trazado_797954" data-name="Trazado 797954" d="M130.777,61.923s.216,12.023,0,13.9c-.216,2.132-4.5,20.048-5.555,21.328-5.154,3.2-7.768,5.5-7.676,6.27s.828,6.446,1.667,8.027c1.678,3.164,2.8,1.573,2.8,1.573l-.868-4.48s.485-2.311.822-3.424,3.567-1.583,4.377-1.311c2.245.753,1.559,4.5,4.267,5.215,1.387.085.153-2.987.153-2.987s-.034-3.473.013-4.963a27.4,27.4,0,0,0-.256-3.665s6.311-13,7.788-19.964c1.152-6.18-2.2-19.627-2.2-19.627Z" transform="translate(23.709 11.661)" fill="#f7b97e"/>
            <path id="Trazado_797955" data-name="Trazado 797955" d="M128.711,47.807a11.624,11.624,0,0,0-.768,6.6,92.994,92.994,0,0,1,.768,9.537l4.872-1.156s-3.886-14.848-4.872-14.978" transform="translate(25.775 9.643)" fill="#faf59b"/>
            <path id="Trazado_797956" data-name="Trazado 797956" d="M131.264,41.956s-3.95,13.126,1.881,24.361,33.9,41.554,33.9,41.554h8.705s-.9-21.764-3.6-27.167a50.1,50.1,0,0,0-7.155-10.17l-1.611-1.7s-.822.175-7.66-19.208c-3.386-6.141-5.57-7.5-17.193-8.355Z" transform="translate(26.213 8.323)" fill="#f5f098"/>
            <path id="Trazado_797957" data-name="Trazado 797957" d="M138.335,41.135c-.422.308,2.423.338,4.181,6.556,1.681,5.946,3.356,13.5-3.759,16.439-7.187,2.965-7.767-17.983-7.5-19.009-.394-.276-2.431,2.09-2.431,2.09s2.631,15.71,2.665,26.919c1.881,2.347,5.763,3.279,5.763,3.279,2.855,8.2,0,30.486,0,30.486h30.016S163.5,84.33,159.6,76.739a19.2,19.2,0,0,0,5.62-6.179l-1.611-1.7s-3.708,5.268-6.56,4.159c-8.555-9.663-9.289-16.888-10.777-23.367s-3.948-8.008-3.948-8.008Z" transform="translate(25.985 8.297)" fill="#ff829a"/>
            <path id="Trazado_797958" data-name="Trazado 797958" d="M137.142,96.82l-.7.476-20.326,11.845s7.8,1.424,21.709-8.393c1.985-1.985-.681-3.928-.681-3.928" transform="translate(23.421 19.529)" fill="#dae2f0"/>
            <path id="Trazado_797959" data-name="Trazado 797959" d="M149.824,91.769a2.28,2.28,0,0,1-1.085,1.964l-14.324,8.522-.294-3.093-.011-.123L133.03,98.8s13.406-8.851,15.486-9.441a.935.935,0,0,1,1.029.674,4.928,4.928,0,0,1,.279,1.735" transform="translate(26.832 18.022)" fill="#647080"/>
            <path id="Trazado_797960" data-name="Trazado 797960" d="M149.641,91.654a2.28,2.28,0,0,1-1.085,1.964l-14.324,8.522-.294-3.093c3.66-2.359,13.446-8.611,15.259-9.117.061-.006.117-.011.166-.011a4.929,4.929,0,0,1,.279,1.735" transform="translate(27.015 18.137)" fill="#3a414a"/>
            <path id="Trazado_797961" data-name="Trazado 797961" d="M137.351,97.552,116.54,109.064s7.415,2.36,21.324-7.457c-.125-1.008-.513-4.056-.513-4.056" transform="translate(23.506 19.676)" fill="#a5acb5"/>
            <path id="Trazado_797962" data-name="Trazado 797962" d="M144.161,86.7l-3.219,1.7s-3.477,2.2-3.764,4.828a20.6,20.6,0,0,1-3.588,5.481l5.02-2.8s.8,3.754.13,4.241-2.873,1.783-2.873,1.783,1.757,2.162,3.075,1.561,8.215-7.189,8.711-8.99-1.56-7.576-3.491-7.805" transform="translate(26.945 17.487)" fill="#ffce9e"/>
            <path id="Trazado_797963" data-name="Trazado 797963" d="M154.016,65.227A37.259,37.259,0,0,1,136.8,73.8c-.011-.028-3.788-.935-5.7-3.216,5.391.54,13.089-1.2,19.258-11.431a50.892,50.892,0,0,0,3.65,6.069" transform="translate(26.445 11.932)" fill="#e84d6b"/>
            <path id="Trazado_797964" data-name="Trazado 797964" d="M152.419,71.194l1.369,1.253s4.767-8-.768-23.017c-3.2-9.17-8.031-4.047-8.031-4.047Z" transform="translate(29.245 8.866)" fill="#d6cf65"/>
            <path id="Trazado_797965" data-name="Trazado 797965" d="M138.513,97.647a8.225,8.225,0,0,1-.535,2.786c-.441.618-2.384-.942-2.384-.942Z" transform="translate(27.35 19.696)" fill="#f7b97e"/>
            <path id="Trazado_797966" data-name="Trazado 797966" d="M140.79,88.263l-.638.823s-.31,8.361-.249,9.383,6-3.311,6.477-4.2-1.792-6-1.792-6a4.549,4.549,0,0,0-3.8,0" transform="translate(28.217 17.725)" fill="#f7b97e"/>
            <path id="Trazado_797967" data-name="Trazado 797967" d="M147.431,58.131s3.788,20.247-7.723,36.408c.716,2.67,4.274,1.545,6.71-1.827s8.027-12.755,8.714-19.142c.3-2.746,0-17.32,0-17.32Z" transform="translate(28.179 11.346)" fill="#ffce9e"/>
            <path id="Trazado_797968" data-name="Trazado 797968" d="M145.978,60.637c-.185-.7-4.379-14.818-.4-16.259,4.133-1.5,7.739-1.006,8.714,14.381-2.179,1.3-8.315,1.878-8.315,1.878" transform="translate(29.019 8.838)" fill="#faf59b"/>
            <path id="Trazado_797969" data-name="Trazado 797969" d="M117.884,38.033a20.062,20.062,0,0,1,.459,11.8c-1.694,6.727,14.756,10.3,17.237-2.242s-17.7-9.56-17.7-9.56" transform="translate(23.777 7.609)" fill="#a6693a"/>
            <path id="Trazado_797970" data-name="Trazado 797970" d="M118.646,36.841s5.281,10.771,4.724,14.888,9.116,4.544,11.872-3.051-9.314-14.36-16.6-11.837" transform="translate(23.931 7.323)" fill="#874b1c"/>
            <path id="Trazado_797971" data-name="Trazado 797971" d="M115.795,21.319s-1.557-.615-1.2-1.638a92.819,92.819,0,0,1,4.881-8.241c.413-.475,23.4.57,21.6,19.948-12.918-1.33-25.275-10.069-25.275-10.069" transform="translate(23.103 2.291)" fill="#f7f7f7"/>
            <path id="Trazado_797972" data-name="Trazado 797972" d="M124.135,48.664c1.115-.625,6.434-3.361,6.8-2.85s3.033,1.484,3.428,8.366c1.072,9.05,6.727-3.9,6.2-10.021-1.634-1.467-4.721-5.306-7.083-13.193-6.9,1.738-10.455,18.324-9.34,17.7" transform="translate(24.998 6.246)" fill="#f5ad67"/>
            <path id="Trazado_797973" data-name="Trazado 797973" d="M132.163,32.751s4.069,7.745-1.623,12.751a46.572,46.572,0,0,0-5.929,2.387Z" transform="translate(25.134 6.606)" fill="#d99048"/>
            <path id="Trazado_797974" data-name="Trazado 797974" d="M134.293,29.119s4.773,5.521.74,6.3c1.39,4.952.827,6.846.285,7.713-.752,1.2-6.033,6.761-8.706,7.89-.506.213-1.328.941-3.731-1.208a16.013,16.013,0,0,1-8.915-10.938L112.872,35.6s-3.605-7.535,1.58-13.4,15.358-2.62,19.841,6.917" transform="translate(22.52 3.887)" fill="#ffce9e"/>
            <path id="Trazado_797975" data-name="Trazado 797975" d="M117.707,39.558s-.316-4.415-3.973-6.508c1.785-.451,4.688,1.339,3.973,6.508" transform="translate(22.94 6.653)" fill="#f5ad67"/>
            <path id="Trazado_797976" data-name="Trazado 797976" d="M117.166,23.322c-.233-.245-.368-.4-.406-.44.006.04.034.145.078.3.022.084.044.178.078.284.362,1.28,1.357,4.267,2.937,5.458a8.461,8.461,0,0,1-4.6-5.708,7.824,7.824,0,0,0-2.592,1.09,8.491,8.491,0,0,1,.717-2.882,6.573,6.573,0,0,1,.579-1.056,8.886,8.886,0,0,1,5.184-3.549,1.262,1.262,0,0,1,.15.011c4.033.178,7.448,1.947,11.047,4.539.8.573,1.608,1.191,2.437,1.836,2.454,1.93,5.063,4.133,8.061,6.4.383.29.773.584,1.173.874-10.44,4.261-19.447-2.164-23.281-5.636-.707-.633-1.234-1.173-1.568-1.524" transform="translate(22.725 3.393)" fill="#a6693a"/>
            <path id="Trazado_797977" data-name="Trazado 797977" d="M112.312,31.734a7.809,7.809,0,0,0,.184.84c-5.23-1.1-3.21-7.943,2.7-10.363l.161-.067s-3.994,4.183-3.043,9.591" transform="translate(22.083 4.466)" fill="#a6693a"/>
            <path id="Trazado_797978" data-name="Trazado 797978" d="M112.149,31.734c-3.487-1.708-1.809-7.037,2.882-9.523l.161-.067s-3.994,4.183-3.043,9.591" transform="translate(22.246 4.466)" fill="#8f5528"/>
            <path id="Trazado_797979" data-name="Trazado 797979" d="M123.785,42.653a4.571,4.571,0,0,1-.935.794,1.548,1.548,0,0,1-.565.285,1.053,1.053,0,0,1-.657-.094,1.7,1.7,0,0,1,.507-.379,3.138,3.138,0,0,1,.54-.167,8.962,8.962,0,0,0,1.079-.478Z" transform="translate(24.533 8.596)" fill="#d99048"/>
            <path id="Trazado_797980" data-name="Trazado 797980" d="M112.977,34.151a1.032,1.032,0,0,1,.282-.871,2,2,0,0,1,.845-.458,1.578,1.578,0,0,1,.9-.085,1.363,1.363,0,0,1,.741.584l-.023.1a1.991,1.991,0,0,1-.829.3,2.482,2.482,0,0,1-.695-.111,1.382,1.382,0,0,0-.643.07.738.738,0,0,0-.477.471Z" transform="translate(22.785 6.595)" fill="#6b3c18"/>
            <path id="Trazado_797981" data-name="Trazado 797981" d="M122.3,29.815a3.3,3.3,0,0,0-2.075.622c-.3.2-.5.512-.817.686a3.47,3.47,0,0,1-.5.272,2.568,2.568,0,0,1-.595.239l-.078-.061a2.123,2.123,0,0,1,.517-1.192,2.593,2.593,0,0,1,1.108-.648,3.168,3.168,0,0,1,2.469-.012Z" transform="translate(23.848 5.945)" fill="#6b3c18"/>
            <path id="Trazado_797982" data-name="Trazado 797982" d="M114.315,36.244s.633,1.406,1.621,1.411c.875-.221,1.31-1.262.436-2.647-1.78.4-2.628.047-2.057,1.237" transform="translate(23.022 7.061)" fill="#fff"/>
            <path id="Trazado_797983" data-name="Trazado 797983" d="M116.6,35.081l.119-.049c.053.123-.049.047-.075.084l-.26.066-.518.136-1.049.233a4.85,4.85,0,0,1-1.07.167,2.322,2.322,0,0,1-1.088-.232,8.756,8.756,0,0,1,1.05-.261,9.843,9.843,0,0,1,1.054-.067l1.062-.085.534-.037.269-.018.068,0c.048.032.049-.072.072.077-.022.008-.157.037-.157.037Z" transform="translate(22.724 7.061)" fill="#231f20"/>
            <path id="Trazado_797984" data-name="Trazado 797984" d="M115.857,35.912c.493.616.6,1.35.238,1.639s-1.054.024-1.547-.591-.6-1.351-.238-1.639,1.054-.025,1.547.591" transform="translate(23.013 7.101)" fill="#231f20"/>
            <path id="Trazado_797985" data-name="Trazado 797985" d="M115.626,35.942a.431.431,0,1,1-.431-.431.432.432,0,0,1,.431.431" transform="translate(23.148 7.163)" fill="#fff"/>
            <path id="Trazado_797986" data-name="Trazado 797986" d="M120.667,34s.715,1.43,1.7,1.435c.874-.221,1.484-1.5.876-3.072-1.781.4-3.151.446-2.58,1.637" transform="translate(24.312 6.527)" fill="#fff"/>
            <path id="Trazado_797987" data-name="Trazado 797987" d="M123.657,32.36a15.29,15.29,0,0,1-2.232.667,4.584,4.584,0,0,1-1.166.177,2.61,2.61,0,0,1-1.169-.274,9.721,9.721,0,0,1,1.144-.22c.37-.049.75-.041,1.13-.073.758-.073,1.52-.187,2.278-.324Z" transform="translate(24.021 6.517)" fill="#231f20"/>
            <path id="Trazado_797988" data-name="Trazado 797988" d="M122.421,33.506c.493.616.549,1.39.125,1.729s-1.167.115-1.66-.5-.549-1.39-.125-1.729,1.167-.115,1.66.5" transform="translate(24.301 6.625)" fill="#231f20"/>
            <path id="Trazado_797989" data-name="Trazado 797989" d="M122.131,33.544a.431.431,0,1,1-.431-.431.432.432,0,0,1,.431.431" transform="translate(24.46 6.679)" fill="#fff"/>
            <path id="Trazado_797990" data-name="Trazado 797990" d="M119.468,41.29a6.562,6.562,0,0,0,3.692-2.114.464.464,0,0,1,.773.311c.119,1.219-.485,3.41-2.075,3.814-1.064.27-2.071-.559-2.685-1.231a.471.471,0,0,1,.3-.781" transform="translate(24.013 7.876)" fill="#be1e2d"/>
            <path id="Trazado_797991" data-name="Trazado 797991" d="M119.385,41.416a6.6,6.6,0,0,0,3.38-1.717.25.25,0,0,1,.427.207c-.392,1.917-2.9,2.61-3.241,2.49a2.248,2.248,0,0,1-.708-.59.234.234,0,0,1,.142-.389" transform="translate(24.04 7.993)" fill="#fff"/>
            <path id="Trazado_797992" data-name="Trazado 797992" d="M115.6,33.35a6.04,6.04,0,0,1,2.15,4.982,5.967,5.967,0,0,1-.27,1.4l-.1.333a.3.3,0,0,0,.01.181.186.186,0,0,0,.108.109,2.7,2.7,0,0,0,.275.117,3.258,3.258,0,0,0,2.509-.321,2.573,2.573,0,0,1-2.667.8,1.7,1.7,0,0,1-.359-.151.685.685,0,0,1-.333-.4.747.747,0,0,1,.016-.5l.118-.322a5.082,5.082,0,0,0,.327-1.289,5.98,5.98,0,0,0-1.816-4.909Z" transform="translate(23.311 6.727)" fill="#d99048"/>
            <path id="Trazado_797993" data-name="Trazado 797993" d="M123.5,48.948s-3.251-.181-4.944-1.913l-.355,1.34s1.2,4.175,5.261,1.19Z" transform="translate(23.841 9.487)" fill="#c7824e"/>
            <path id="Trazado_797994" data-name="Trazado 797994" d="M149.412,34.527c.228,5.357-7.621,4.985-7.944,4.267,4.574-1.225,5.581-4.329,5.719-6.37a7.968,7.968,0,0,1,2.226,2.1" transform="translate(28.534 6.54)" fill="#c7824e"/>
            <path id="Trazado_797995" data-name="Trazado 797995" d="M140.255,29.607c-.078.044-.161.089-.256.133-5.941.8-16.889-1.9-21.851-4.9a8.622,8.622,0,0,1-1.819-1.38,2.315,2.315,0,0,1-.745-1.418c-.095-2.147,1.63-4.016,3.126-5.218,4.033.178,7.449,1.947,11.048,4.539.8.573,1.607,1.191,2.436,1.836,2.454,1.93,5.063,4.133,8.061,6.4" transform="translate(23.313 3.394)" fill="#8f5528"/>
            <path id="Trazado_797996" data-name="Trazado 797996" d="M132.661,22.609a19.039,19.039,0,0,1-15.615.117c-.106-.043-.217-.088-.328-.137a27.354,27.354,0,0,1-3.455-1.758,6.651,6.651,0,0,1,.579-1.059c3.337,1.537,8.834,2.9,16.382,1,.8.574,1.608,1.192,2.437,1.836" transform="translate(22.845 3.988)" fill="#c7824e"/>
            <path id="Trazado_797997" data-name="Trazado 797997" d="M83.5,75.864a6.8,6.8,0,0,1-4.451-3.729c-1.958-2.25-2.224-3.378-1.483-4.3s1.275-.969,1.424-.536,5.855,7.542,5.855,7.542Z" transform="translate(15.568 13.522)" fill="#f5ad67"/>
            <path id="Trazado_797998" data-name="Trazado 797998" d="M90.823,69.519a6.044,6.044,0,1,1-6.043-6.043,6.043,6.043,0,0,1,6.043,6.043" transform="translate(15.881 12.803)" fill="#f16526"/>
            <path id="Trazado_797999" data-name="Trazado 797999" d="M90.694,68.812a6.044,6.044,0,0,1-11.321,2.945,7.878,7.878,0,0,0,3.475.8c.032,0,.062,0,.1,0A7.907,7.907,0,0,0,90.15,67.7c.1-.234.186-.475.262-.719a6.081,6.081,0,0,1,.282,1.835" transform="translate(16.01 13.509)" fill="#d34c22"/>
            <path id="Trazado_798000" data-name="Trazado 798000" d="M90.005,68.927a4.851,4.851,0,1,1-4.85-4.85,4.85,4.85,0,0,1,4.85,4.85" transform="translate(16.198 12.924)" fill="#ed1c24"/>
            <path id="Trazado_798001" data-name="Trazado 798001" d="M89.595,68.222a4.85,4.85,0,0,1-4.852,4.85,4.793,4.793,0,0,1-2.4-.636,7.9,7.9,0,0,0,7.2-4.861,4.4,4.4,0,0,1,.046.647" transform="translate(16.609 13.63)" fill="#a61115"/>
            <path id="Trazado_798002" data-name="Trazado 798002" d="M81.236,67.988a.932.932,0,1,1-.931-.931.931.931,0,0,1,.931.931" transform="translate(16.01 13.526)" fill="#fccdbc"/>
            <path id="Trazado_798003" data-name="Trazado 798003" d="M89.45,66.911a.441.441,0,0,0-.018.519c.534.859,2.294,3.836,1.61,4.7-.757.957-1.911,2.691-5.64,2.837a.967.967,0,0,0-.883.667c-1.271,3.9-3.547,11.028-14.132,14.891a69.633,69.633,0,0,0-.68,7.734s9.412-2.358,13.258-7.169,4.677-12.144,4.677-13.363c2.287-1.219,5.021-3.07,5.916-5.808.675-2.911-.478-7.253-1.962-6.972a.349.349,0,0,0-.244.493,11.314,11.314,0,0,1,.864,4.634c-.286-2.3-2.055-3.974-2.766-3.16" transform="translate(14.06 13.097)" fill="#ffce9e"/>
            <path id="Trazado_798004" data-name="Trazado 798004" d="M78.621,67.084a.556.556,0,0,1,.133.767.571.571,0,0,1-.711.335c-.234-.119-.127-.377.032-.681s.312-.54.546-.421" transform="translate(15.714 13.525)" fill="#ffce9e"/>
            <path id="Trazado_798005" data-name="Trazado 798005" d="M84.632,69.233l2.6,3.171,1.143-1.442s-3.222-3.9-3.742-1.729" transform="translate(17.07 13.832)" fill="#ffce9e"/>
            <path id="Trazado_798006" data-name="Trazado 798006" d="M81.619,83.827s-5.189,2.807-7.762,3.01l-4.031-.6-11.675-.77s-5.367,1.265-6.9,1.547c-2.45.281-7.147-2.82-7.147-2.82l-1.559,8.079,4.226,2.262-.019,4.91h27.64l.794-4.993,6.653-1.787Z" transform="translate(8.581 16.908)" fill="#e6e6e6"/>
            <path id="Trazado_798007" data-name="Trazado 798007" d="M72.976,85.189l-.616.294a18.534,18.534,0,0,0-.963,3.722A29.907,29.907,0,0,0,73.732,93l2.287-.615Z" transform="translate(14.399 17.183)" fill="#ccc"/>
            <path id="Trazado_798008" data-name="Trazado 798008" d="M65.6,93.309l-4.5-2.871A19.222,19.222,0,0,1,57.1,92.914c-1.09-.912-1.591-3.844-1.809-5.779-.711.35-1.952.957-2.135.984l.334-2.192,1.657-1.479,10.458.028s.317-.4,2.086,1.636a10.339,10.339,0,0,1-2.086,7.2" transform="translate(10.721 17.033)" fill="#ccc"/>
            <path id="Trazado_798009" data-name="Trazado 798009" d="M38.115,83.666a8.085,8.085,0,0,0-3.481,4.61c-.333,3.2,2.43,8.794,8.476,6.576,4.8-2.135,5.473-6.951,3.975-9.355a30.593,30.593,0,0,0-8.97-1.83" transform="translate(6.98 16.876)" fill="#ccc"/>
            <path id="Trazado_798010" data-name="Trazado 798010" d="M50.92,85.678,49.5,98.34h5.409V86.072Z" transform="translate(9.984 17.281)" fill="#8dc63f"/>
            <path id="Trazado_798011" data-name="Trazado 798011" d="M65.965,85.9l-1.42,12.662h5.409V86.294Z" transform="translate(13.019 17.326)" fill="#8dc63f"/>
            <path id="Trazado_798012" data-name="Trazado 798012" d="M76.746,92.349a.861.861,0,0,1,.827,1.09c-2.381,8.751-9.745,15.122-18.461,15.122S43.032,102.19,40.65,93.439a.861.861,0,0,1,.828-1.09Z" transform="translate(8.193 18.627)" fill="#74b6c2"/>
            <path id="Trazado_798013" data-name="Trazado 798013" d="M76.411,94.09a19.036,19.036,0,0,1-1.847,4.356,17.689,17.689,0,0,1-31.008,0A19.036,19.036,0,0,1,41.71,94.09a.779.779,0,0,1,.779-.973H75.633a.779.779,0,0,1,.779.973" transform="translate(8.407 18.782)" fill="#d7ebf5"/>
            <path id="Trazado_798014" data-name="Trazado 798014" d="M53.07,99.017a4.453,4.453,0,0,1-5.924,4.206,19.192,19.192,0,0,1-2.8-2.938,4.331,4.331,0,0,1-.184-1.268,4.453,4.453,0,0,1,8.906,0" transform="translate(8.908 19.074)" fill="#eb4e44"/>
            <path id="Trazado_798015" data-name="Trazado 798015" d="M63.541,101.385a5.492,5.492,0,1,1-5.492-5.492,5.492,5.492,0,0,1,5.492,5.492" transform="translate(10.601 19.342)" fill="#c93e35"/>
            <path id="Trazado_798016" data-name="Trazado 798016" d="M62.4,97.115A5.492,5.492,0,1,1,56.9,91.623,5.492,5.492,0,0,1,62.4,97.115" transform="translate(10.37 18.481)" fill="#eb4e44"/>
            <rect id="Rectángulo_373633" data-name="Rectángulo 373633" width="10.208" height="0.924" transform="translate(63.158 110.976)" fill="#74b6c2"/>
            <path id="Trazado_798017" data-name="Trazado 798017" d="M68.214,101.006a5.825,5.825,0,0,1-.106,1.079,17.986,17.986,0,0,1-6.758,4.238,5.491,5.491,0,1,1,6.864-5.318" transform="translate(11.543 19.266)" fill="#ff6359"/>
            <path id="Trazado_798018" data-name="Trazado 798018" d="M57.857,101.011a5.493,5.493,0,0,1-5.046,5.474,17.359,17.359,0,0,1-5.123-2.6,4.445,4.445,0,0,1-.345-.662,5.4,5.4,0,0,1-.467-2.209,5.5,5.5,0,0,1,4.306-5.363,5.592,5.592,0,0,1,1.185-.127,5.491,5.491,0,0,1,5.491,5.491" transform="translate(9.455 19.267)" fill="#ff6359"/>
            <path id="Trazado_798019" data-name="Trazado 798019" d="M55.038,84.437s.035,6.323,1.5,7.83a19.663,19.663,0,0,0,4.006-2.476l4.5,2.867a10.834,10.834,0,0,0,2.264-6.427,22.248,22.248,0,0,0-2.264-2.406Z" transform="translate(11.101 16.908)" fill="#f7f7f7"/>
            <path id="Trazado_798020" data-name="Trazado 798020" d="M55.537,84.683s3.857,4.883,4.905,5.142l4.336-2.336a8.314,8.314,0,0,1,3.233-3.823c-13.072.8-12.474,1.017-12.474,1.017" transform="translate(11.201 16.876)" fill="#f5ad67"/>
            <path id="Trazado_798021" data-name="Trazado 798021" d="M55.105,85.081s4.378,4.944,13.3-1.161c-8.3-2.212-13.3,1.161-13.3,1.161" transform="translate(11.115 16.775)" fill="#d99048"/>
            <path id="Trazado_798022" data-name="Trazado 798022" d="M62.948,67.11l3.915,1.2a1.5,1.5,0,0,1,.993.987l.178.568a1.5,1.5,0,0,0,.806.917l2.045.937a1.5,1.5,0,0,1,.875,1.364v1.343a1.5,1.5,0,0,0,.179.711l.348.645a1.5,1.5,0,0,1-.067,1.536l-1.151,1.815c-.642.975-1.855.437-2.36-.615L63.448,67.538Z" transform="translate(12.697 13.536)" fill="#a6693a"/>
            <path id="Trazado_798023" data-name="Trazado 798023" d="M56.851,85.581l-.49,1.027s-.445.927-.445.927a.821.821,0,0,1-.745.467H53.315a.832.832,0,0,1-.833-.829v-.5a.827.827,0,0,0-1.611-.264c-.175.51-.023,1.019-.661,1.214-1.051.323-2.764-1.167-3.736-1.732a.82.82,0,0,1-.412-.708l-.018-1.565a.835.835,0,0,1,.763-.833l.514-.042a.832.832,0,0,0,.74-.63l.177-.727a.851.851,0,0,0-.089-.61l-.254-.44a.832.832,0,0,1,.18-1.047l1.1-.94a.832.832,0,0,1,1.12.037l.481.467.6.592,1.6,1.56.6.584,2.1,2.055,1.008.985a.826.826,0,0,1,.167.949" transform="translate(9.287 15.763)" fill="#a6693a"/>
            <path id="Trazado_798024" data-name="Trazado 798024" d="M46.081,94.173c-.413.124-5.791,1.5-8.807-1.938s-1.63-5.549-1.267-5.731,4.826-2.157,7.842-.9A30.58,30.58,0,0,1,49.7,89.038s-2.226,4.719-3.62,5.135" transform="translate(7.135 17.183)" fill="#ffce9e"/>
            <path id="Trazado_798025" data-name="Trazado 798025" d="M50.264,87.95l.853-.663a3.748,3.748,0,0,1,2.276,1.085,12.734,12.734,0,0,0,1.448,3.921c-1.7,1.962-3.845-2.715-4.577-4.343" transform="translate(10.138 17.606)" fill="#f0b071"/>
            <path id="Trazado_798026" data-name="Trazado 798026" d="M46.323,96.85s-2.87-.3-3.74-4.052c-.4-1.74,2.292-4.032,6.04-4.877l3.2-.786s-1.4,7.965-5.5,9.715" transform="translate(8.581 17.575)" fill="#f0b071"/>
            <path id="Trazado_798027" data-name="Trazado 798027" d="M43.939,91.846s-1.086.242-.422,1.93,2.659,3.5,2.961,1.93c1.624,3.078,2.06,2.594,3.072,1.811,2.179.6,1.81-3.68,1.87-5.309a20.621,20.621,0,0,1,.422,3.8s1.267,1.025,1.75-1.267-.028-6.757-1.07-7.421-1.765.483-2.067.663-5.369,3.559-5.731,3.62a2.872,2.872,0,0,0-.785.242" transform="translate(8.734 17.572)" fill="#ffce9e"/>
            <path id="Trazado_798028" data-name="Trazado 798028" d="M71.939,86.121c-2.629,3.287-10.618,4.444-13.077,2.25-1.75,3.4-4.989-.958-4.989-.958C41.5,75.7,51.628,67.726,51.628,67.726s6.957-6.68,13.835-2.037c3.467,2.337,3.523,3.35,5.841,7.128.112.111.218.222.32.333a9.239,9.239,0,0,1,2.06,3.532,10.482,10.482,0,0,1-1.745,9.438" transform="translate(9.626 12.919)" fill="#ffce9e"/>
            <path id="Trazado_798029" data-name="Trazado 798029" d="M64.312,78.089A2.552,2.552,0,1,1,61.2,76.972a2.354,2.354,0,0,1,3.112,1.118" transform="translate(11.997 15.487)" fill="#f9a986"/>
            <path id="Trazado_798030" data-name="Trazado 798030" d="M69.8,75.155a2.271,2.271,0,0,1-2.694-1.24,2.128,2.128,0,0,1,.634-2.292,9.239,9.239,0,0,1,2.06,3.532" transform="translate(13.511 14.447)" fill="#f9a986"/>
            <path id="Trazado_798031" data-name="Trazado 798031" d="M68.464,79.624a2.185,2.185,0,0,1-1.119,1.291c-.889.345-1.7-.356-2.264-1.079a7.336,7.336,0,0,1-.767-1.269A7.1,7.1,0,0,0,68.621,75.7a7.1,7.1,0,0,1-.156,3.922" transform="translate(12.972 15.269)" fill="#be1e2d"/>
            <path id="Trazado_798032" data-name="Trazado 798032" d="M68.336,79.052a2.185,2.185,0,0,1-1.119,1.291c-.889.345-1.7-.356-2.264-1.079a2.323,2.323,0,0,1,1.8-.723,2.5,2.5,0,0,1,1.585.512" transform="translate(13.101 15.842)" fill="#ff8282"/>
            <path id="Trazado_798033" data-name="Trazado 798033" d="M65.916,79.954a12.625,12.625,0,0,1,1.977-.834c-.417,1.368-1.8,1.2-1.977.834" transform="translate(13.295 15.959)" fill="#fff"/>
            <path id="Trazado_798034" data-name="Trazado 798034" d="M65.05,78.357s2.4-1,3.1-2.17c.455,2.647-2.293,3.325-3.1,2.17" transform="translate(13.121 15.367)" fill="#fff"/>
            <path id="Trazado_798035" data-name="Trazado 798035" d="M44.511,90.843q.571,1.045,1.106,2.111a7.849,7.849,0,0,1,.519,1.071A5.143,5.143,0,0,1,46.4,95.2a3.523,3.523,0,0,1-.725-.983,7.962,7.962,0,0,1-.427-1.108q-.413-1.114-.788-2.247Z" transform="translate(8.969 18.323)" fill="#d99048"/>
            <path id="Trazado_798036" data-name="Trazado 798036" d="M46.9,90.393a22.089,22.089,0,0,1,1.328,3.124,10.722,10.722,0,0,1,.493,1.628,7.916,7.916,0,0,1,.142,1.705,8.455,8.455,0,0,1-.622-1.587c-.161-.536-.258-1.088-.391-1.633a32.046,32.046,0,0,0-1-3.216Z" transform="translate(9.45 18.232)" fill="#d99048"/>
            <path id="Trazado_798037" data-name="Trazado 798037" d="M64.091,72.786c.179.373.547.844.841.716.386-.126.737-.525,1.4-.411a.844.844,0,0,1,.5.729,2.183,2.183,0,0,1-.034.733,4.31,4.31,0,0,1-.466,1.312,9.7,9.7,0,0,1,.006-1.363c.012-.407.012-.923-.162-1a.756.756,0,0,0-.516.048c-.207.066-.4.166-.65.239a.652.652,0,0,1-.695-.345,2.2,2.2,0,0,1-.276-.642Z" transform="translate(12.918 14.681)" fill="#d99048"/>
            <path id="Trazado_798038" data-name="Trazado 798038" d="M63.411,68.706a.275.275,0,0,1-.216-.1.278.278,0,0,1,.041-.392,2.2,2.2,0,0,1,1.937-.476.277.277,0,0,1,.186.346.281.281,0,0,1-.345.187,1.653,1.653,0,0,0-1.429.376.278.278,0,0,1-.174.061" transform="translate(12.734 13.65)" fill="#a6693a"/>
            <path id="Trazado_798039" data-name="Trazado 798039" d="M55.415,83.42c-.19.4-.357.792-.5,1.162a17.372,17.372,0,0,0-.612,1.87,12.978,12.978,0,0,0-.3,1.389s-3.5-2.176-4.161-5.843a4.784,4.784,0,0,1,.177-2.208,11.481,11.481,0,0,1,1.323-2.842,22.891,22.891,0,0,1,2.662-3.434s4.957,7.1,1.407,9.906" transform="translate(10.042 14.828)" fill="#a6693a"/>
            <path id="Trazado_798040" data-name="Trazado 798040" d="M56.36,86.974l-1.287,1.393H53.313a.831.831,0,0,1-.833-.828v-.5a.826.826,0,0,0-1.61-.264c-.177.51-.024,1.019-.662,1.214-1.05.323-2.764-1.167-3.736-1.732a.822.822,0,0,1-.411-.708l-.019-1.565a.837.837,0,0,1,.764-.834l.513-.041a.832.832,0,0,0,.74-.63l.177-.727a.851.851,0,0,0-.088-.61l-.255-.44a.832.832,0,0,1,.18-1.047l1.1-.94a.832.832,0,0,1,1.12.037l.482.467A11.481,11.481,0,0,1,52.1,76.379l.394-.042-1.116,3.477-.231.722s.828.935,1.347.865a3.824,3.824,0,0,1,.481-.028,2.885,2.885,0,0,1,.427.028s.088.242.171.556c.144.564.269,1.365-.171,1.485-.681.19-.342,1.7-.342,1.7a5.91,5.91,0,0,0,2,.735c.9.745,1.3,1.092,1.3,1.092" transform="translate(9.287 15.397)" fill="#8f582c"/>
            <path id="Trazado_798041" data-name="Trazado 798041" d="M76.582,83.019s-1,3.838-.663,4.681a29.234,29.234,0,0,0,3.235,3.869s-2.659,1.863-3.3,1.512-3.334-2.879-3.583-3.71.913-5.915.913-5.915l3.4-1.718,1.079.618Z" transform="translate(14.569 16.487)" fill="#f7f7f7"/>
            <path id="Trazado_798042" data-name="Trazado 798042" d="M44.293,85.143a13.088,13.088,0,0,0-8.215.415,5.918,5.918,0,0,1,8.609-1.524c1.846.808,2.427,1.81,1.929,2.885Z" transform="translate(7.277 16.702)" fill="#e6e6e6"/>
            <path id="Trazado_798043" data-name="Trazado 798043" d="M67.693,67.712l-2.945-1.45s2.409-2.544,2.945-4.284-4.016-7.935-5.756-8.721-12.852.832-17,3.638c-4.149,3.075-7.363,19.541-5.22,25.7,1.74,4.284,3.881,3.469,3.881,3.469l6.292-3.871L51.518,85.2a.6.6,0,0,0,1.043.031c2.116-3.436,9.961-15.7,15.132-17.521" transform="translate(7.872 10.702)" fill="#f7f7f7"/>
            <path id="Trazado_798044" data-name="Trazado 798044" d="M63.48,63.623l3.748-2.008s-2.409-4.55-5.756-6.626c-5.221-.871-14.324,2.763-15.262,3.422s-1.339,11.637-4.016,15.653c-1.74,3.749-.536,12.3.937,11.637s6.292-3.872,6.292-3.872S56.787,57.2,63.48,63.623" transform="translate(8.337 11.064)" fill="#e6e6e6"/>
            <path id="Trazado_798045" data-name="Trazado 798045" d="M59.046,56.25s-.937,6.154-5.355,8.965c-1.339,2.141-7.631,10.922-7.631,10.922v6.214l2.409-.8S56.1,61.6,59.046,63.207s4.284,2.409,4.284,2.409a34.018,34.018,0,0,0,2.945-4.284c-1.607.536-5.623-1.061-7.229-5.082" transform="translate(9.29 11.346)" fill="#ccc"/>
            <path id="Trazado_798046" data-name="Trazado 798046" d="M66.993,72.388a.507.507,0,0,1-.1.093,1.5,1.5,0,0,1-1.913-.367,1.248,1.248,0,0,1-.26-1.172,1.877,1.877,0,0,0,.387-.255,1.621,1.621,0,0,0,.5-.671,1.4,1.4,0,0,1,.973.379,2.093,2.093,0,0,1,.288.323,1.375,1.375,0,0,1,.13,1.669" transform="translate(13.043 14.122)" fill="#fff"/>
            <path id="Trazado_798047" data-name="Trazado 798047" d="M66.961,72.373c-.421.251-1.074-.036-1.526-.653a2,2,0,0,1-.406-1.021,1.643,1.643,0,0,0,.5-.672c0-.022.013-.04.017-.056a1.339,1.339,0,0,1,.957.436,2.029,2.029,0,0,1,.288.322c.056.085.107.154.147.228.336.57.358,1.176.025,1.416" transform="translate(13.117 14.113)" fill="#231f20"/>
            <path id="Trazado_798048" data-name="Trazado 798048" d="M66.11,70.959a.432.432,0,1,1-.465-.4.431.431,0,0,1,.465.4" transform="translate(13.161 14.232)" fill="#fff"/>
            <path id="Trazado_798049" data-name="Trazado 798049" d="M61.907,76.9a.534.534,0,0,1-.112.084,1.356,1.356,0,0,1-2.04-1.709,1.912,1.912,0,0,0,.406-.222,1.636,1.636,0,0,0,.55-.628,1.406,1.406,0,0,1,.94.457,2.032,2.032,0,0,1,.262.345,1.377,1.377,0,0,1-.006,1.674" transform="translate(12.025 15.013)" fill="#fff"/>
            <path id="Trazado_798050" data-name="Trazado 798050" d="M61.861,76.892c-.44.218-1.068-.123-1.468-.773a2.02,2.02,0,0,1-.323-1.051,1.638,1.638,0,0,0,.552-.628.372.372,0,0,1,.022-.056,1.347,1.347,0,0,1,.918.512,2.081,2.081,0,0,1,.262.345c.049.089.094.161.127.239.29.6.262,1.2-.089,1.413" transform="translate(12.116 15.003)" fill="#231f20"/>
            <path id="Trazado_798051" data-name="Trazado 798051" d="M61.122,75.415a.431.431,0,1,1-.431-.431.432.432,0,0,1,.431.431" transform="translate(12.154 15.124)" fill="#fff"/>
            <path id="Trazado_798052" data-name="Trazado 798052" d="M57.383,74.563a.287.287,0,0,1-.275-.323,3.7,3.7,0,0,1,2.145-2.689.283.283,0,0,1,.362.154.279.279,0,0,1-.153.363,3.158,3.158,0,0,0-1.8,2.263.28.28,0,0,1-.275.233" transform="translate(11.518 14.428)" fill="#a6693a"/>
            <path id="Trazado_798053" data-name="Trazado 798053" d="M61.447,74.113a6.435,6.435,0,0,1-1.363,1.442,3.1,3.1,0,0,1-.847.549,2.33,2.33,0,0,1-1.009.155,3.99,3.99,0,0,1,.793-.6c.266-.165.564-.273.84-.43a8.569,8.569,0,0,0,1.548-1.146Z" transform="translate(11.745 14.943)" fill="#231f20"/>
            <path id="Trazado_798054" data-name="Trazado 798054" d="M59.156,67.942a6.961,6.961,0,0,1,2.187-2.65,1.627,1.627,0,0,1,2.29.862,1.446,1.446,0,0,1,.043.83l-1.155-.461Z" transform="translate(11.932 13.132)" fill="#a6693a"/>
            <path id="Trazado_798055" data-name="Trazado 798055" d="M57.336,70.592s.219-2.673,1.263-3.481,2.986-.34,3.009.088a3.248,3.248,0,0,1-.309,2.419c-.928-1.064-1.3-.987-1.3-.987l-1.174.3Z" transform="translate(11.565 13.447)" fill="#a6693a"/>
            <path id="Trazado_798056" data-name="Trazado 798056" d="M64.75,71.054a5.979,5.979,0,0,0,.619-.958,5.067,5.067,0,0,1,.2-.49l.3-.481a.687.687,0,0,1,.16.653,1.249,1.249,0,0,1-.335.537,3.625,3.625,0,0,1-.916.776Z" transform="translate(13.06 13.943)" fill="#231f20"/>
            <g id="Grupo_1064201" data-name="Grupo 1064201" transform="translate(51.964 117.228)" opacity="0.56">
              <g id="Grupo_1064200" data-name="Grupo 1064200">
                <g id="Grupo_1064199" data-name="Grupo 1064199" clip-path="url(#clip-path-4)">
                  <path id="Trazado_798057" data-name="Trazado 798057" d="M74.25,97.552a17.689,17.689,0,0,1-31.008,0Z" transform="translate(-43.242 -97.552)" fill="#f7f7f7"/>
                </g>
              </g>
            </g>
            <path id="Trazado_798058" data-name="Trazado 798058" d="M54.284,100.107a.565.565,0,1,1-.565-.565.565.565,0,0,1,.565.565" transform="translate(10.721 20.078)" fill="#fff"/>
            <path id="Trazado_798059" data-name="Trazado 798059" d="M52.073,98.581a.565.565,0,1,1-.565-.565.565.565,0,0,1,.565.565" transform="translate(10.275 19.77)" fill="#fff"/>
            <path id="Trazado_798060" data-name="Trazado 798060" d="M49.568,97.8a.715.715,0,1,1-.715-.715.714.714,0,0,1,.715.715" transform="translate(9.71 19.582)" fill="#fff"/>
            <path id="Trazado_798061" data-name="Trazado 798061" d="M65.676,99.052a.565.565,0,1,1-.565-.565.565.565,0,0,1,.565.565" transform="translate(13.019 19.865)" fill="#fff"/>
            <path id="Trazado_798062" data-name="Trazado 798062" d="M67.5,95.988a.565.565,0,1,1-.565-.565.564.564,0,0,1,.565.565" transform="translate(13.386 19.247)" fill="#fff"/>
            <path id="Trazado_798063" data-name="Trazado 798063" d="M45.65,96.288a.565.565,0,1,1-.565-.565.565.565,0,0,1,.565.565" transform="translate(8.98 19.308)" fill="#fff"/>
            <path id="Trazado_798064" data-name="Trazado 798064" d="M64.242,99.8a.3.3,0,1,1-.3-.3.3.3,0,0,1,.3.3" transform="translate(12.836 20.069)" fill="#fff"/>
            <path id="Trazado_798065" data-name="Trazado 798065" d="M63.488,97.8a.3.3,0,1,1-.3-.3.3.3,0,0,1,.3.3" transform="translate(12.683 19.666)" fill="#fff"/>
            <path id="Trazado_798066" data-name="Trazado 798066" d="M48.492,101.42a.3.3,0,1,1-.3-.3.3.3,0,0,1,.3.3" transform="translate(9.659 20.396)" fill="#fff"/>
            <path id="Trazado_798067" data-name="Trazado 798067" d="M49.927,98.678a.3.3,0,1,1-.3-.3.3.3,0,0,1,.3.3" transform="translate(9.948 19.842)" fill="#fff"/>
            <path id="Trazado_798068" data-name="Trazado 798068" d="M62.152,98.426a.3.3,0,1,1-.3-.3.3.3,0,0,1,.3.3" transform="translate(12.414 19.792)" fill="#fff"/>
            <path id="Trazado_798069" data-name="Trazado 798069" d="M66.081,94.617a.3.3,0,1,1-.3-.3.3.3,0,0,1,.3.3" transform="translate(13.206 19.023)" fill="#fff"/>
            <path id="Trazado_798070" data-name="Trazado 798070" d="M68.276,94.113a.3.3,0,1,1-.3-.3.3.3,0,0,1,.3.3" transform="translate(13.649 18.922)" fill="#fff"/>
            <rect id="Rectángulo_373635" data-name="Rectángulo 373635" width="3.712" height="2.793" transform="translate(190.429 101.422)" fill="#d7dcdf"/>
            <path id="Trazado_798071" data-name="Trazado 798071" d="M162.674,86.723h-3.855l-2.46,6.673h8.775Z" transform="translate(31.538 17.492)" fill="#d7dcdf"/>
            <path id="Trazado_798072" data-name="Trazado 798072" d="M161.928,86.723h-2.775l-1.77,6.673H163.7Z" transform="translate(31.744 17.492)" fill="#c8c9cb"/>
            <path id="Trazado_798073" data-name="Trazado 798073" d="M162.2,84.9h-3.635a.4.4,0,0,1-.4-.4V82.515a.4.4,0,0,1,.4-.4H162.2a.4.4,0,0,1,.4.4V84.5a.4.4,0,0,1-.4.4" transform="translate(31.902 16.562)" fill="#c6c4af"/>
            <path id="Trazado_798074" data-name="Trazado 798074" d="M159.991,83.84h-1.437a.392.392,0,0,1-.392-.392v-.542a.392.392,0,0,1,.392-.393h1.437a.392.392,0,0,1,.392.393v.542a.392.392,0,0,1-.392.392" transform="translate(31.902 16.643)" fill="#eff0f0"/>
            <path id="Trazado_798075" data-name="Trazado 798075" d="M160.851,83.616h-2.524a.181.181,0,1,1,0-.362h2.524a.181.181,0,1,1,0,.362" transform="translate(31.898 16.793)" fill="#939f9a"/>
            <path id="Trazado_798076" data-name="Trazado 798076" d="M162.162,82.876h-2.526a.181.181,0,0,1,0-.363h2.526a.181.181,0,0,1,0,.363" transform="translate(32.163 16.643)" fill="#939f9a"/>
            <path id="Trazado_798077" data-name="Trazado 798077" d="M162.5,84.55h-4.161a.344.344,0,1,1,0-.687H162.5a.344.344,0,0,1,0,.687" transform="translate(31.868 16.915)" fill="#939f9a"/>
            <path id="Trazado_798078" data-name="Trazado 798078" d="M165.047,108.934h-8.27a1.24,1.24,0,0,1-1.238-1.318l.936-14.92a1.24,1.24,0,0,1,1.238-1.163h6.4a1.24,1.24,0,0,1,1.238,1.163l.936,14.92a1.24,1.24,0,0,1-1.238,1.318" transform="translate(31.372 18.462)" fill="#9c7002"/>
            <path id="Trazado_798079" data-name="Trazado 798079" d="M165.134,107.564a1.207,1.207,0,0,1-.725,1.225.909.909,0,0,1-.286.048h-6.751a.885.885,0,0,1-.478-.142,1.258,1.258,0,0,1-.532-1.131l.342-6.459.4-7.554.022-.412a1.1,1.1,0,0,1,1.011-1.122h5.223a1.1,1.1,0,0,1,1.011,1.122l.088,1.651.358,6.773Z" transform="translate(31.538 18.56)" fill="#e79524"/>
            <path id="Trazado_798080" data-name="Trazado 798080" d="M164.757,101.561a9.662,9.662,0,0,1-8.11-.458l.4-7.554.022-.412a1.1,1.1,0,0,1,1.011-1.122H163.3a1.1,1.1,0,0,1,1.012,1.122l.087,1.652Z" transform="translate(31.596 18.56)" fill="#ffb504"/>
            <path id="Trazado_798081" data-name="Trazado 798081" d="M164.332,94.79a5.032,5.032,0,0,1-3.168,1.074,4.645,4.645,0,0,1-4.186-2.314l.022-.411a1.1,1.1,0,0,1,1.011-1.122h5.223a1.1,1.1,0,0,1,1.011,1.122Z" transform="translate(31.663 18.56)" fill="#ffe100"/>
            <path id="Trazado_798082" data-name="Trazado 798082" d="M164.319,106.34a.9.9,0,0,1-.286.048h-6.751a.885.885,0,0,1-.478-.142c.232-1.181,1.823-2.1,3.752-2.1,1.977,0,3.6.963,3.764,2.189" transform="translate(31.628 21.008)" fill="#ffe100"/>
            <path id="Trazado_798083" data-name="Trazado 798083" d="M158.994,86.827a.252.252,0,0,1-.251-.251V84.9a.251.251,0,0,1,.5,0v1.68a.252.252,0,0,1-.251.251" transform="translate(32.019 17.073)" fill="#eff0f0"/>
            <path id="Trazado_798084" data-name="Trazado 798084" d="M157.892,93.1a.53.53,0,0,1-.375-.649l1.239-4.636a.53.53,0,0,1,1.024.274l-1.239,4.636a.53.53,0,0,1-.649.375" transform="translate(31.768 17.632)" fill="#eff0f0"/>
            <path id="Trazado_798085" data-name="Trazado 798085" d="M103.866,94.757c1.252,2.647-3.888,4.533-9.654,5.843s-11.366,1.012-11.231-1.1c.136-2.137,4.391-2.314,10.159-3.624s10.013-2.628,10.726-1.119" transform="translate(16.737 18.977)" fill="#669647"/>
            <path id="Trazado_798086" data-name="Trazado 798086" d="M102.713,94.711c1.038,2.193-3.221,3.755-8,4.84s-9.415.839-9.3-.911c.113-1.77,3.638-1.918,8.417-3s8.3-2.176,8.887-.927" transform="translate(17.227 18.991)" fill="#7cba42"/>
            <path id="Trazado_798087" data-name="Trazado 798087" d="M113.132,97.005c.636,2.859-4.794,3.559-10.708,3.559s-11.307-1.53-10.707-3.559c.606-2.054,4.794-1.285,10.707-1.285s10.347-.345,10.708,1.285" transform="translate(18.49 19.279)" fill="#669647"/>
            <path id="Trazado_798088" data-name="Trazado 798088" d="M111.982,96.816c.526,2.369-3.972,2.949-8.871,2.949s-9.368-1.268-8.872-2.949c.5-1.7,3.972-1.063,8.872-1.063s8.571-.287,8.871,1.063" transform="translate(19.001 19.29)" fill="#7cba42"/>
            <path id="Trazado_798089" data-name="Trazado 798089" d="M118.646,99.026c.636,2.859-4.794,3.559-10.708,3.559s-11.307-1.53-10.707-3.559c.606-2.054,4.794-1.285,10.707-1.285s10.347-.345,10.708,1.285" transform="translate(19.602 19.686)" fill="#669647"/>
            <path id="Trazado_798090" data-name="Trazado 798090" d="M117.5,98.837c.526,2.369-3.972,2.949-8.871,2.949s-9.367-1.268-8.872-2.949c.5-1.7,3.972-1.064,8.872-1.064s8.571-.287,8.871,1.064" transform="translate(20.113 19.698)" fill="#7cba42"/>
            <path id="Trazado_798091" data-name="Trazado 798091" d="M103.265,98.385a.432.432,0,1,1-.422-.34.387.387,0,0,1,.422.34" transform="translate(20.658 19.776)" fill="#669647"/>
            <path id="Trazado_798092" data-name="Trazado 798092" d="M105.226,99.432a.432.432,0,1,1-.422-.34.387.387,0,0,1,.422.34" transform="translate(21.054 19.987)" fill="#669647"/>
            <path id="Trazado_798093" data-name="Trazado 798093" d="M109.006,98.668a.433.433,0,1,1-.423-.34.389.389,0,0,1,.423.34" transform="translate(21.816 19.833)" fill="#669647"/>
            <path id="Trazado_798094" data-name="Trazado 798094" d="M111.642,99.245a.432.432,0,1,1-.422-.34.387.387,0,0,1,.422.34" transform="translate(22.348 19.949)" fill="#669647"/>
            <path id="Trazado_798095" data-name="Trazado 798095" d="M107.924,100.218a.432.432,0,1,1-.422-.34.387.387,0,0,1,.422.34" transform="translate(21.598 20.146)" fill="#669647"/>
            <path id="Trazado_798096" data-name="Trazado 798096" d="M96.7,96.409a.432.432,0,1,1-.423-.34.388.388,0,0,1,.423.34" transform="translate(19.334 19.377)" fill="#669647"/>
            <path id="Trazado_798097" data-name="Trazado 798097" d="M96.347,98.1a.432.432,0,1,1-.422-.34.387.387,0,0,1,.422.34" transform="translate(19.263 19.719)" fill="#669647"/>
            <path id="Trazado_798098" data-name="Trazado 798098" d="M101.4,96.877a.432.432,0,1,1-.422-.34.388.388,0,0,1,.422.34" transform="translate(20.283 19.472)" fill="#669647"/>
            <path id="Trazado_798099" data-name="Trazado 798099" d="M104.875,96.317a.432.432,0,1,1-.422-.34.387.387,0,0,1,.422.34" transform="translate(20.983 19.359)" fill="#669647"/>
            <path id="Trazado_798100" data-name="Trazado 798100" d="M107.924,96.126a.432.432,0,1,1-.422-.34.388.388,0,0,1,.422.34" transform="translate(21.598 19.32)" fill="#669647"/>
            <path id="Trazado_798101" data-name="Trazado 798101" d="M106.629,97.16a.432.432,0,1,1-.422-.34.388.388,0,0,1,.422.34" transform="translate(21.337 19.529)" fill="#669647"/>
            <path id="Trazado_798102" data-name="Trazado 798102" d="M88.071,97.658a.432.432,0,1,1-.422-.34.388.388,0,0,1,.422.34" transform="translate(17.594 19.629)" fill="#669647"/>
            <path id="Trazado_798103" data-name="Trazado 798103" d="M90.213,96.409a.432.432,0,1,1-.422-.34.387.387,0,0,1,.422.34" transform="translate(18.026 19.377)" fill="#669647"/>
            <path id="Trazado_798104" data-name="Trazado 798104" d="M98.709,95.157a.432.432,0,1,1-.422-.34.388.388,0,0,1,.422.34" transform="translate(19.739 19.125)" fill="#669647"/>
            <path id="Trazado_798105" data-name="Trazado 798105" d="M161.287,109.418c-.214,1-1.21,1.616-3.343,1.973-3.025,1.646-4.671,1.074-5.3-.935a3.73,3.73,0,0,1,1.038-3.725,4.965,4.965,0,0,1,2.055-1.244c2.343-.737,4.752.292,5.385,2.3a3.275,3.275,0,0,1,.168,1.63" transform="translate(30.757 21.229)" fill="#906c6b"/>
            <path id="Trazado_798106" data-name="Trazado 798106" d="M161.151,109.418a6.507,6.507,0,0,1-2.532.838c-3.025,1.649-4.67,1.074-5.3-.931a3.494,3.494,0,0,1,.227-2.593,4.965,4.965,0,0,1,2.055-1.244c2.343-.737,4.752.292,5.385,2.3a3.275,3.275,0,0,1,.168,1.63" transform="translate(30.893 21.229)" fill="#af8886"/>
            <path id="Trazado_798107" data-name="Trazado 798107" d="M156.927,105.813c.127.34-.383.846-1.14,1.13s-1.474.238-1.6-.1.383-.846,1.14-1.13,1.474-.238,1.6.1" transform="translate(31.095 21.285)" fill="#906c6b"/>
            <path id="Trazado_798108" data-name="Trazado 798108" d="M156.9,110.449a1.266,1.266,0,0,1-.721,1.145c-.714.225-1.626-.649-2.034-1.954s.175-2.862.889-3.086a.425.425,0,0,1,.107-.023c.666-.084,1.195,1.059,1.584,2.3a3.836,3.836,0,0,1,.175,1.622" transform="translate(31.064 21.487)" fill="#c7ab9e"/>
            <path id="Trazado_798109" data-name="Trazado 798109" d="M156.737,110.449c-.666-.016-1.418-.834-1.782-1.986a3.287,3.287,0,0,1,.023-1.931c.666-.084,1.195,1.059,1.584,2.3a3.836,3.836,0,0,1,.175,1.622" transform="translate(31.228 21.487)" fill="#d4c8b8"/>
            <path id="Trazado_798110" data-name="Trazado 798110" d="M154.4,111.811a.964.964,0,0,0,.659-.493,3.642,3.642,0,0,1-.96-1.6,3.13,3.13,0,0,1,.5-2.825.624.624,0,0,0-.574-.238c-.738.113-1.555,1.568-1.344,2.921s.979,2.352,1.718,2.235" transform="translate(30.789 21.511)" fill="#c7ab9e"/>
            <path id="Trazado_798111" data-name="Trazado 798111" d="M156.57,108.874a4.212,4.212,0,0,1,.178.866c.556.72,1.252,1.082,1.76.847.677-.315.763-1.574.191-2.817s-2.052-2-2.73-1.688a.74.74,0,0,0-.362.784,5.735,5.735,0,0,1,.963,2.008" transform="translate(31.386 21.383)" fill="#e1d8cd"/>
            <path id="Trazado_798112" data-name="Trazado 798112" d="M158.72,107.839a3.687,3.687,0,0,1,.368,1.828,1.048,1.048,0,0,0,1-.026c.615-.422.493-1.679-.276-2.812s-2.351-1.638-2.967-1.216a.577.577,0,0,0-.25.49,3.209,3.209,0,0,1,2.127,1.736" transform="translate(31.585 21.273)" fill="#e1d8cd"/>
            <path id="Trazado_798113" data-name="Trazado 798113" d="M156.7,106.176a1.02,1.02,0,0,0-.467.117.6.6,0,0,0-.318.523.2.2,0,0,0-.006.061,1.411,1.411,0,0,0-1.12.169s.234-2.227-1.714-2.379a.713.713,0,0,1-.091-.237c-.094-.439.425-.546.425-.546a4.366,4.366,0,0,1,3.291,2.292" transform="translate(30.854 20.954)" fill="#e1d8cd"/>
            <path id="Trazado_798114" data-name="Trazado 798114" d="M156.228,106.212a.6.6,0,0,0-.318.523.337.337,0,0,0-.052.038c-.439-.2-1.074.192-1.074.192s.234-2.227-1.714-2.379a.722.722,0,0,1-.091-.237.659.659,0,0,1,.175-.068,4.343,4.343,0,0,1,3.074,1.931" transform="translate(30.856 21.034)" fill="#c7ab9e"/>
            <path id="Trazado_798115" data-name="Trazado 798115" d="M166.855,110.334a2.482,2.482,0,0,1-.922,2.152c-.759.548-2.013.695-3.856.334-3.122.435-4.109-.38-4.109-2.486a4.116,4.116,0,0,1,4.164-3.8c.091-.006.185-.01.279-.01,2.454,0,4.444,1.708,4.444,3.811" transform="translate(31.863 21.486)" fill="#906c6b"/>
            <path id="Trazado_798116" data-name="Trazado 798116" d="M166.518,110.334a2.482,2.482,0,0,1-.922,2.152,9.614,9.614,0,0,1-1.851-.2c-3.122.435-4.109-.38-4.109-2.486a3.743,3.743,0,0,1,2.158-3.269c.091-.006.185-.01.279-.01,2.454,0,4.444,1.708,4.444,3.811" transform="translate(32.199 21.486)" fill="#af8886"/>
            <path id="Trazado_798117" data-name="Trazado 798117" d="M163.6,107.338c0,.324-.689.586-1.538.586s-1.538-.262-1.538-.586.689-.586,1.538-.586,1.538.262,1.538.586" transform="translate(32.377 21.532)" fill="#906c6b"/>
            <path id="Trazado_798118" data-name="Trazado 798118" d="M164.24,110.153c0,1.366-.606,2.474-1.353,2.474s-1.354-1.108-1.354-2.474.184-2.679.931-2.679,1.776,1.312,1.776,2.679" transform="translate(32.582 21.678)" fill="#e1d8cd"/>
            <path id="Trazado_798119" data-name="Trazado 798119" d="M164.633,112.285a.962.962,0,0,1-.776-.273,3.647,3.647,0,0,0,.435-1.815,3.133,3.133,0,0,0-1.327-2.544.619.619,0,0,1,.477-.4c.737-.114,1.954,1.029,2.158,2.382s-.227,2.538-.967,2.649" transform="translate(32.87 21.632)" fill="#d4c8b8"/>
            <path id="Trazado_798120" data-name="Trazado 798120" d="M161.79,110.177a4.177,4.177,0,0,0,.091.88,2.786,2.786,0,0,1-.6.994,1.021,1.021,0,0,1-.828.344c-.74-.1-1.2-1.273-1.029-2.629s1.347-2.515,2.086-2.431c.312.038.494.279.591.639a5.71,5.71,0,0,0-.315,2.2" transform="translate(32.15 21.649)" fill="#c7ab9e"/>
            <path id="Trazado_798121" data-name="Trazado 798121" d="M161.642,110.176a4.177,4.177,0,0,0,.091.88,2.786,2.786,0,0,1-.6.994c-.708-.143-1.143-1.3-.975-2.616a3.315,3.315,0,0,1,1.2-2.1c.312.038.494.279.591.639a5.71,5.71,0,0,0-.315,2.2" transform="translate(32.298 21.649)" fill="#d4c8b8"/>
            <path id="Trazado_798122" data-name="Trazado 798122" d="M159.493,109.834a3.675,3.675,0,0,0,.2,1.853,1.05,1.05,0,0,1-.961.276c-.714-.217-.973-1.454-.58-2.765s1.75-2.269,2.464-2.051a.576.576,0,0,1,.386.392,3.2,3.2,0,0,0-1.506,2.3" transform="translate(31.862 21.606)" fill="#c7ab9e"/>
            <path id="Trazado_798123" data-name="Trazado 798123" d="M160.942,107.055a.63.63,0,0,1,.133.038,1.217,1.217,0,0,0-.149.036c.006-.026.01-.052.016-.075" transform="translate(32.459 21.593)" fill="#c7ab9e"/>
            <path id="Trazado_798124" data-name="Trazado 798124" d="M163.691,105.12c-1.815.731-.922,2.784-.922,2.784a2,2,0,0,0-.445-.052c-.074-.185-.8-2.074.928-2.769.072-.334-.042-.5-.185-.577.046-.023.069-.032.069-.032a.488.488,0,0,1,.555.645" transform="translate(32.698 21.072)" fill="#e1d8cd"/>
            <path id="Trazado_798125" data-name="Trazado 798125" d="M163.49,105.078c-1.723.695-1,2.584-.928,2.769a.343.343,0,0,0-.062,0,.846.846,0,0,0-.61.224.731.731,0,0,0-.109-.221.7.7,0,0,0-.708-.243.569.569,0,0,0-.133-.04,4.381,4.381,0,0,1,2.363-3.07c.147.082.26.244.189.578" transform="translate(32.462 21.078)" fill="#c7ab9e"/>
            <path id="Trazado_798126" data-name="Trazado 798126" d="M162.307,107.3s-.025-.006-.068-.013a.342.342,0,0,1,.062,0l.006.017" transform="translate(32.724 21.639)" fill="#c7ab9e"/>
            <path id="Trazado_798127" data-name="Trazado 798127" d="M175.113,107.639a2.482,2.482,0,0,1-.922,2.152c-.759.548-2.013.695-3.856.334-3.122.435-4.109-.38-4.109-2.486a4.116,4.116,0,0,1,4.164-3.8c.091-.006.185-.01.279-.01,2.454,0,4.444,1.708,4.444,3.811" transform="translate(33.528 20.942)" fill="#906c6b"/>
            <path id="Trazado_798128" data-name="Trazado 798128" d="M174.776,107.639a2.482,2.482,0,0,1-.922,2.152,9.615,9.615,0,0,1-1.851-.2c-3.122.435-4.109-.38-4.109-2.486a3.743,3.743,0,0,1,2.158-3.269c.091-.006.185-.01.279-.01,2.454,0,4.444,1.708,4.444,3.811" transform="translate(33.865 20.942)" fill="#af8886"/>
            <path id="Trazado_798129" data-name="Trazado 798129" d="M171.854,104.643c0,.324-.689.586-1.538.586s-1.538-.262-1.538-.586.689-.586,1.538-.586,1.538.262,1.538.586" transform="translate(34.043 20.989)" fill="#906c6b"/>
            <path id="Trazado_798130" data-name="Trazado 798130" d="M172.5,107.458c0,1.366-.606,2.474-1.353,2.474s-1.354-1.108-1.354-2.474.184-2.679.931-2.679,1.776,1.312,1.776,2.679" transform="translate(34.247 21.134)" fill="#e1d8cd"/>
            <path id="Trazado_798131" data-name="Trazado 798131" d="M172.891,109.59a.962.962,0,0,1-.776-.273,3.647,3.647,0,0,0,.435-1.815,3.13,3.13,0,0,0-1.327-2.544.619.619,0,0,1,.477-.4c.737-.114,1.954,1.029,2.158,2.382s-.227,2.538-.967,2.649" transform="translate(34.536 21.088)" fill="#d4c8b8"/>
            <path id="Trazado_798132" data-name="Trazado 798132" d="M170.048,107.483a4.177,4.177,0,0,0,.091.88,2.77,2.77,0,0,1-.6.993,1.026,1.026,0,0,1-.828.345c-.74-.1-1.2-1.273-1.029-2.629s1.347-2.515,2.086-2.431c.312.038.494.279.591.639a5.706,5.706,0,0,0-.315,2.2" transform="translate(33.815 21.105)" fill="#c7ab9e"/>
            <path id="Trazado_798133" data-name="Trazado 798133" d="M169.9,107.482a4.178,4.178,0,0,0,.091.88,2.77,2.77,0,0,1-.6.993c-.708-.142-1.143-1.294-.975-2.615a3.315,3.315,0,0,1,1.2-2.1c.312.038.494.279.591.639a5.706,5.706,0,0,0-.315,2.2" transform="translate(33.963 21.106)" fill="#d4c8b8"/>
            <path id="Trazado_798134" data-name="Trazado 798134" d="M167.751,107.139a3.678,3.678,0,0,0,.2,1.853,1.05,1.05,0,0,1-.961.276c-.714-.217-.973-1.454-.58-2.766s1.75-2.268,2.463-2.05a.576.576,0,0,1,.386.392,3.205,3.205,0,0,0-1.506,2.3" transform="translate(33.528 21.062)" fill="#c7ab9e"/>
            <path id="Trazado_798135" data-name="Trazado 798135" d="M169.2,104.36a.63.63,0,0,1,.133.038,1.282,1.282,0,0,0-.15.036c.007-.026.011-.052.017-.075" transform="translate(34.125 21.05)" fill="#c7ab9e"/>
            <path id="Trazado_798136" data-name="Trazado 798136" d="M171.95,102.425c-1.815.731-.922,2.784-.922,2.784a2,2,0,0,0-.445-.052c-.075-.185-.8-2.074.928-2.769.072-.334-.042-.5-.185-.577.046-.023.069-.032.069-.032a.488.488,0,0,1,.555.645" transform="translate(34.364 20.529)" fill="#e1d8cd"/>
            <path id="Trazado_798137" data-name="Trazado 798137" d="M171.748,102.383c-1.723.695-1,2.584-.929,2.769a.335.335,0,0,0-.061,0,.846.846,0,0,0-.61.224.731.731,0,0,0-.109-.221.7.7,0,0,0-.708-.243.569.569,0,0,0-.133-.04,4.381,4.381,0,0,1,2.363-3.07c.147.082.26.244.189.578" transform="translate(34.127 20.534)" fill="#c7ab9e"/>
            <path id="Trazado_798138" data-name="Trazado 798138" d="M170.564,104.606s-.025-.006-.068-.013a.349.349,0,0,1,.062,0l.006.017" transform="translate(34.389 21.096)" fill="#c7ab9e"/>
            <path id="Trazado_798139" data-name="Trazado 798139" d="M177.763,101.653a1.176,1.176,0,0,1-.532.123h-4.759a1.227,1.227,0,0,1-1.22-1.36l.734-6.645.16-1.454a1.226,1.226,0,0,1,.965-1.065,1.2,1.2,0,0,1,.255-.028h2.969a1.226,1.226,0,0,1,1.22,1.092l.16,1.454.735,6.645a1.222,1.222,0,0,1-.687,1.238" transform="translate(34.54 18.4)" fill="#cdbdac"/>
            <path id="Trazado_798140" data-name="Trazado 798140" d="M177.763,101.648a1.176,1.176,0,0,1-.532.123h-4.759a1.227,1.227,0,0,1-1.22-1.36l.734-6.645.16-1.454a1.226,1.226,0,0,1,.965-1.065c.425,3.051,1.6,8.573,4.652,10.4" transform="translate(34.54 18.405)" fill="#b2a898"/>
            <path id="Trazado_798141" data-name="Trazado 798141" d="M177.075,94.787h-4.714l-.447,4.344a1,1,0,0,0,.949,1.138h3.708a1,1,0,0,0,.951-1.138Z" transform="translate(34.674 19.119)" fill="#f1f0f4"/>
            <path id="Trazado_798142" data-name="Trazado 798142" d="M177.592,93.769h-5.729l.16-1.454a1.226,1.226,0,0,1,1.22-1.092h2.969a1.226,1.226,0,0,1,1.22,1.092Z" transform="translate(34.665 18.4)" fill="#9a9898"/>
            <path id="Trazado_798143" data-name="Trazado 798143" d="M177.2,93.769h-5.054l.141-1.454a1.142,1.142,0,0,1,1.077-1.092h2.62a1.142,1.142,0,0,1,1.077,1.092Z" transform="translate(34.722 18.4)" fill="#727372"/>
            <path id="Trazado_798144" data-name="Trazado 798144" d="M176.536,93.74h-3.921l.108-1.354c.047-.579.407-1.017.835-1.017h2.032c.428,0,.788.437.835,1.017Z" transform="translate(34.817 18.429)" fill="#dad4d8"/>
            <rect id="Rectángulo_373636" data-name="Rectángulo 373636" width="5.345" height="0.273" transform="translate(206.75 110.442)" fill="#727372"/>
            <rect id="Rectángulo_373637" data-name="Rectángulo 373637" width="5.345" height="0.207" transform="translate(206.75 111.75)" fill="#727372"/>
            <path id="Trazado_798145" data-name="Trazado 798145" d="M175.868,100.965H175.1l-.534-7.49h.766Z" transform="translate(35.211 18.854)" fill="#fff"/>
          </g>
        </g>
      </g>
    </g>
  </g>
</svg>
