<svg xmlns="http://www.w3.org/2000/svg" xmlns:xlink="http://www.w3.org/1999/xlink" width="190" height="190" viewBox="0 0 190 190">
  <defs>
    <clipPath id="clip-path">
      <circle id="Elipse_8278" data-name="Elipse 8278" cx="95" cy="95" r="95" transform="translate(285 4911)" fill="#fff" stroke="#707070" stroke-width="1"/>
    </clipPath>
    <clipPath id="clip-path-2">
      <rect id="Rect치ngulo_373670" data-name="Rect치ngulo 373670" width="219.644" height="169.141" fill="none"/>
    </clipPath>
  </defs>
  <g id="Enmascarar_grupo_1059025" data-name="Enmascarar grupo 1059025" transform="translate(-285 -4911)" clip-path="url(#clip-path)">
    <rect id="Rect치ngulo_373669" data-name="Rect치ngulo 373669" width="1240" height="422" rx="10" transform="translate(180 4768)" fill="#e3eefc"/>
    <circle id="Elipse_8277" data-name="Elipse 8277" cx="95" cy="95" r="95" transform="translate(285 4911)" fill="#ffe0dd"/>
    <g id="Grupo_1064269" data-name="Grupo 1064269" transform="translate(277 4921)">
      <g id="Grupo_1064268" data-name="Grupo 1064268" clip-path="url(#clip-path-2)">
        <path id="Trazado_798464" data-name="Trazado 798464" d="M111.708,80.293s15.022-8.177,19.37-11.022c3.509-2.978,3.8-4.973,3.8-4.973l5.059-26.5-5.129-.167s-4.941,22.762-5.167,23.742-3.726,2.9-3.726,2.9L111.33,77.836Z" fill="#eb9a5c"/>
        <path id="Trazado_798465" data-name="Trazado 798465" d="M112.3,77.669s-.961-1.161-4.62,1.982a17.009,17.009,0,0,1-4.916,2.942c-1.089,1.437,1.425,2.147,4.564-.514.263,2.573-.866,7.12-3.657,11.4-.228,1.683,2.461-.359,4.878-4.056a37.6,37.6,0,0,0,4.125-9.439c.2-.828.153-2.112-.374-2.316" fill="#eb9a5c"/>
        <path id="Trazado_798466" data-name="Trazado 798466" d="M158.576,138.944l-1.24,11.644,4.241.622,2.541-10.345Z" fill="#eb9a5c"/>
        <path id="Trazado_798467" data-name="Trazado 798467" d="M138.467,164.508a3.013,3.013,0,1,1,4.105,1.143,3.013,3.013,0,0,1-4.105-1.143" fill="#bdacae"/>
        <path id="Trazado_798468" data-name="Trazado 798468" d="M139.676,163.826a1.625,1.625,0,1,1,2.213.616,1.625,1.625,0,0,1-2.213-.616" fill="#4a4243"/>
        <path id="Trazado_798469" data-name="Trazado 798469" d="M145.2,165.6a3.013,3.013,0,1,1,4.229.519,3.013,3.013,0,0,1-4.229-.519" fill="#bdacae"/>
        <path id="Trazado_798470" data-name="Trazado 798470" d="M146.3,164.744a1.624,1.624,0,1,1,2.28.28,1.624,1.624,0,0,1-2.28-.28" fill="#4a4243"/>
        <path id="Trazado_798471" data-name="Trazado 798471" d="M151.295,166.425a3.013,3.013,0,1,1,4.229.519,3.013,3.013,0,0,1-4.229-.519" fill="#bdacae"/>
        <path id="Trazado_798472" data-name="Trazado 798472" d="M152.389,165.571a1.624,1.624,0,1,1,2.28.28,1.624,1.624,0,0,1-2.28-.28" fill="#4a4243"/>
        <path id="Trazado_798473" data-name="Trazado 798473" d="M157.388,167.252a3.013,3.013,0,1,1,4.229.519,3.013,3.013,0,0,1-4.229-.519" fill="#bdacae"/>
        <path id="Trazado_798474" data-name="Trazado 798474" d="M158.482,166.4a1.624,1.624,0,1,1,2.28.28,1.624,1.624,0,0,1-2.28-.28" fill="#4a4243"/>
        <path id="Trazado_798475" data-name="Trazado 798475" d="M159.762,165.913a.557.557,0,0,1-.07,0l-18.278-2.479a.517.517,0,0,1,.139-1.024l18.278,2.48a.516.516,0,0,1-.069,1.027" fill="#4a4243"/>
        <path id="Trazado_798476" data-name="Trazado 798476" d="M158.787,160.493s-.445,3.936.488,4.838l-2.172-.246s.458-2.548-2.689-2.9-8.968-1.111-8.968-1.111a2.256,2.256,0,0,0-2.354,2.065c-1.169-.132-1.609-.218-1.609-.218s1.247-2.306.658-3.856c15.712,1.78,16.646,1.432,16.646,1.432" fill="#4a4243"/>
        <path id="Trazado_798477" data-name="Trazado 798477" d="M163.512,149.418a1.367,1.367,0,0,0-1.3-1.628c-1.529-.1-6.3-2.491-6.658-.98s-1.694,4.046-1.759,4.9c-.068.894-3.168,1.675-6.314,2.883-3.122,1.2-5.484.834-6.32,1.1-1.175.37-2.629,2.565-.661,3.866l19.96,2.736a2.2,2.2,0,0,0,2.48-1.84,5.186,5.186,0,0,0-.2-2.781c-.8-1.7-.509-3.562.767-8.257" fill="#42759e"/>
        <path id="Trazado_798478" data-name="Trazado 798478" d="M150.8,160.972s6.565-4.329,7.252-4.627a1.607,1.607,0,0,1,2.186,1c.336,1.118.783,4.951.783,4.951Z" fill="#26577d"/>
        <path id="Trazado_798479" data-name="Trazado 798479" d="M145.158,155.845l.2.854a.572.572,0,0,0,.624.437,17.135,17.135,0,0,0,8.332-2.866,1.746,1.746,0,0,0,.78-.644,5.21,5.21,0,0,0,.579-1.592.573.573,0,0,0-.31-.682l-.871-.4a.524.524,0,0,0-.675.146c-.814,1.429-2.512,2.219-8.238,4.061a.592.592,0,0,0-.425.69" fill="#b3ac76"/>
        <path id="Trazado_798480" data-name="Trazado 798480" d="M147.359,160.5s-2.38-3.047-7.633-3.388c-1.005-.044-.448,2.309.777,2.448s6.856.94,6.856.94" fill="#b3ac76"/>
        <path id="Trazado_798481" data-name="Trazado 798481" d="M153.794,148.359a1.5,1.5,0,0,1,1.833-1.1l3.188.783a1.489,1.489,0,1,1-.706,2.892l-3.188-.783a1.5,1.5,0,0,1-1.127-1.789" fill="#b3ac76"/>
        <path id="Trazado_798482" data-name="Trazado 798482" d="M195.662,122.285l8.224,8.335,2.919-2.707-5.771-8.339Z" fill="#eb9a5c"/>
        <path id="Trazado_798483" data-name="Trazado 798483" d="M202.454,154.217a3.013,3.013,0,1,1,3.485-2.452,3.013,3.013,0,0,1-3.485,2.452" fill="#bdacae"/>
        <path id="Trazado_798484" data-name="Trazado 798484" d="M202.692,152.849a1.625,1.625,0,1,1,1.879-1.322,1.624,1.624,0,0,1-1.879,1.322" fill="#4a4243"/>
        <path id="Trazado_798485" data-name="Trazado 798485" d="M207.564,149.7a3.013,3.013,0,1,1,3.081-2.943,3.012,3.012,0,0,1-3.081,2.943" fill="#bdacae"/>
        <path id="Trazado_798486" data-name="Trazado 798486" d="M207.6,148.309a1.624,1.624,0,1,1,1.661-1.587,1.624,1.624,0,0,1-1.661,1.587" fill="#4a4243"/>
        <path id="Trazado_798487" data-name="Trazado 798487" d="M212.063,145.507a3.013,3.013,0,1,1,3.081-2.943,3.012,3.012,0,0,1-3.081,2.943" fill="#bdacae"/>
        <path id="Trazado_798488" data-name="Trazado 798488" d="M212.1,144.119a1.624,1.624,0,1,1,1.661-1.587,1.624,1.624,0,0,1-1.661,1.587" fill="#4a4243"/>
        <path id="Trazado_798489" data-name="Trazado 798489" d="M216.563,141.316a3.013,3.013,0,1,1,3.081-2.943,3.012,3.012,0,0,1-3.081,2.943" fill="#bdacae"/>
        <path id="Trazado_798490" data-name="Trazado 798490" d="M216.594,139.928a1.624,1.624,0,1,1,1.661-1.587,1.624,1.624,0,0,1-1.661,1.587" fill="#4a4243"/>
        <path id="Trazado_798491" data-name="Trazado 798491" d="M203.134,151.391a.516.516,0,0,1-.352-.894l13.5-12.571a.516.516,0,0,1,.7.756l-13.5,12.571a.518.518,0,0,1-.352.138" fill="#4a4243"/>
        <path id="Trazado_798492" data-name="Trazado 798492" d="M212.22,135.951s2.764,2.838,4.052,2.687l-1.566,1.525s-1.681-1.968-3.951.241-6.541,6.235-6.541,6.235a2.257,2.257,0,0,0,.107,3.13c-.842.82-1.187,1.106-1.187,1.106s-.995-2.425-2.567-2.952c11.33-11.029,11.653-11.972,11.653-11.972" fill="#4a4243"/>
        <path id="Trazado_798493" data-name="Trazado 798493" d="M206.644,125.279a1.368,1.368,0,0,0-2.082-.028c-1.048,1.118-5.918,3.3-4.975,4.531s2.058,3.874,2.679,4.467c.648.619-.711,3.513-1.769,6.712-1.05,3.175-2.829,4.772-3.155,5.585-.457,1.144.32,3.659,2.573,2.961l14.762-13.71a2.2,2.2,0,0,0,.147-3.086,5.18,5.18,0,0,0-2.277-1.607c-1.825-.461-3.079-1.863-5.9-5.825" fill="#42759e"/>
        <path id="Trazado_798494" data-name="Trazado 798494" d="M207.533,142.433s.808-7.822,1.013-8.543a1.608,1.608,0,0,1,2.161-1.055c1.079.448,4.328,2.531,4.328,2.531Z" fill="#26577d"/>
        <path id="Trazado_798495" data-name="Trazado 798495" d="M199.99,143.553l.789.383a.571.571,0,0,0,.733-.206,17.133,17.133,0,0,0,3.062-8.262,1.755,1.755,0,0,0-.005-1.012A5.2,5.2,0,0,0,203.7,133a.574.574,0,0,0-.724-.193l-.865.419a.523.523,0,0,0-.314.614c.592,1.535.126,3.35-2.076,8.947a.59.59,0,0,0,.265.766" fill="#b3ac76"/>
        <path id="Trazado_798496" data-name="Trazado 798496" d="M204.985,144.8s-3.865-.089-7.458,3.76c-.669.749,1.5,1.81,2.388.949s5.07-4.709,5.07-4.709" fill="#b3ac76"/>
        <path id="Trazado_798497" data-name="Trazado 798497" d="M199.668,132.128a1.5,1.5,0,0,1,.308-2.117l2.625-1.971a1.489,1.489,0,1,1,1.791,2.378l-2.626,1.971a1.5,1.5,0,0,1-2.1-.261" fill="#b3ac76"/>
        <path id="Trazado_798498" data-name="Trazado 798498" d="M144.873,72.514l1.78,4.2s2,20.813,8.55,31.8c2.718,7.571,2.311,10.4,2.311,10.4s.934,8.938.407,26.309a35.426,35.426,0,0,0,5.283.737s4.781-20.9,4.335-24.576c-.339-2.793-2.916-5.947-2.916-5.947l-1.036-7.575L161.2,67.659l-13.314-.314Z" fill="#736668"/>
        <path id="Trazado_798499" data-name="Trazado 798499" d="M155.2,108.521s2.066,8.492,2.311,10.4a23.651,23.651,0,0,1,7.109-3.477s-.559-4.31-1.036-7.575a51.568,51.568,0,0,0-8.384.65" fill="#292d30"/>
        <path id="Trazado_798500" data-name="Trazado 798500" d="M155.495,109.695s-1.754,4.873,1.728,7.717c1.955-2.339.462-6.921-1.728-7.717" fill="#615658"/>
        <path id="Trazado_798501" data-name="Trazado 798501" d="M145.756,71.837s15.676,22.538,27.021,29.882c5.382,4.564,22.649,19.582,27.635,25.541,2.365-3.5,3.984-3.327,3.984-3.327s-10.952-18.447-12.931-19.8-6.626-2.524-6.626-2.524l-6.008-7.193s-9.125-15.046-11.321-18.728c-.375-7.006.539-8.524-8.142-15.2-4.94.222-13.612,11.347-13.612,11.347" fill="#8c7d7f"/>
        <path id="Trazado_798502" data-name="Trazado 798502" d="M172.777,101.72s6.381,5.582,8.241,6.869c1.652-1.456,3.821-6.976,3.821-6.976s-5.217-6.034-6.008-7.192c-1.379,1.716-6.054,7.3-6.054,7.3" fill="#292d30"/>
        <path id="Trazado_798503" data-name="Trazado 798503" d="M139.88,17.434c0,.4.068,5.949,5.854,6.292s21.118,2.192,17.412,14.191c-2.344,3.459-6.549,2.993-9.03,1.7s-13.654-7.675-15.382-15,1.146-7.182,1.146-7.182" fill="#292d30"/>
        <path id="Trazado_798504" data-name="Trazado 798504" d="M138.235,27.743l2.945-.591a27.248,27.248,0,0,1,9.2,4.246c-.08,5.212,1.813,25.593,8.985,29.092-6.563,10.98-14.494,12.023-14.494,12.023a52.852,52.852,0,0,1-9.047-18.134,4.389,4.389,0,0,1-2.654-2.984c-1-3.1.683-13.489,2.623-19.477,2.212-4.938,2.44-4.175,2.44-4.175" fill="#c92a2b"/>
        <path id="Trazado_798505" data-name="Trazado 798505" d="M145.151,39.269s4.777,5.481,7.2,8.047L151.2,40.8Z" fill="#a21f1f"/>
        <path id="Trazado_798506" data-name="Trazado 798506" d="M133.172,51.4s4.182,1.9,11.254-1.707a28.459,28.459,0,0,1-8.6,4.691s-1.886-.28-2.654-2.984" fill="#a21f1f"/>
        <path id="Trazado_798507" data-name="Trazado 798507" d="M178.637,61.7a9.574,9.574,0,0,0,.345,4.49c.789,1.874,4.227,4.96,3.429,9.438,1.507,1.2,2.357-1.62,1.249-5.059-.515-1.6-.606-2.615.446-2.869,1.21-.292,4.536-.958,9.263,2.742,2.209.649,2.53-.388,2.2-.81-1-.121-4.266-3.4-4.266-3.4l-11.048-5.19a1.294,1.294,0,0,0-1.618.656" fill="#ffc58c"/>
        <path id="Trazado_798508" data-name="Trazado 798508" d="M165.6,44.024l-2.866-.312-17.585-4.443s-3.52-5.936,1.746-9.012c1.836.1,20.258,7.1,20.258,7.1l4.335,2.79s8.559,20.649,9.043,21.142c-.663,1.877-2.055,1.708-2.055,1.708s-8.369-9.935-11.132-16.525a5.058,5.058,0,0,1-1.744-2.443" fill="#ffc58c"/>
        <path id="Trazado_798509" data-name="Trazado 798509" d="M129.424,60.252a33.639,33.639,0,0,1,6.291,4.3.728.728,0,0,1,.1.853c-1.291,2.267-1.591,5-5.692,4.918a.742.742,0,0,1-.494-.208c-2.106-2.033-3.126-4.968-3.712-5.85-.249-.375-.135-.995.309-1.07,1.126-.191,1.543-.9,2.212-2.627a.707.707,0,0,1,.988-.32" fill="#292d30"/>
        <path id="Trazado_798510" data-name="Trazado 798510" d="M135.022,65.215c-1.078.23-2.872,1.616-4,4.011a.8.8,0,0,0,.573,1.13c2.114.386,4.205-1.558,4.363-4.419a.762.762,0,0,0-.94-.722" fill="#615658"/>
        <path id="Trazado_798511" data-name="Trazado 798511" d="M162.737,43.712a33.813,33.813,0,0,1,2.076-7.356.728.728,0,0,1,.777-.367c2.56.5,4.671.229,5.9,4.153a.742.742,0,0,1-.04.536,35.067,35.067,0,0,1-4.015,6.1c-.277.356-.782,0-1-.4-.539-1.009-.543-1.359-3.086-1.832a.743.743,0,0,1-.618-.837" fill="#292d30"/>
        <path id="Trazado_798512" data-name="Trazado 798512" d="M174.764,102.076c1.44.063,3.742.646,5.356,4.484a.831.831,0,0,1-.636,1.175c-2.927.142-5.538-2.783-5.61-4.795a.845.845,0,0,1,.89-.864" fill="#615658"/>
        <path id="Trazado_798513" data-name="Trazado 798513" d="M165.658,36.8a5.822,5.822,0,0,0,4.5,2.832.8.8,0,0,0,.888-.906,3.743,3.743,0,0,0-5-3.05.765.765,0,0,0-.385,1.124" fill="#615658"/>
        <path id="Trazado_798514" data-name="Trazado 798514" d="M118.7,12.952s-.362,5.289.116,5.924,2.142,3.505-.516,5.348c-1.038.462,1.6,1.03,2.185,1.218.518,1.191,2.042,5.334,3.723,7.2,1.823.044,9.387-3.037,9.387-3.037s2.669,2.363,2.984,3.716c-.381,2.688-.938,8.292-.209,8.263s1.857-8.917,4.81-14.427c-1.5-.867-2.727-1.649-2.936-5.176s-6.342-11.95-6.342-11.95Z" fill="#ffc58c"/>
        <path id="Trazado_798515" data-name="Trazado 798515" d="M133.594,29.6s-1.146-.631-1.635-.892c-.441.037-7.416,3.845-7.886,3.77.113.5,1.716.129,3.6-.487s5.922-2.391,5.922-2.391" fill="#eb9a5c"/>
        <path id="Trazado_798516" data-name="Trazado 798516" d="M131.8,23.626a2.263,2.263,0,0,0,2.843-.285,3.311,3.311,0,0,0,.855-3.39,9.3,9.3,0,0,1,.9.6s-.236,5.959-4.6,3.074" fill="#eb9a5c"/>
        <path id="Trazado_798517" data-name="Trazado 798517" d="M117.629,8.369c-.067.167-4.041,5.642.4,6.4a13.537,13.537,0,0,1-.97-1.605s1.381,1.724,5.8.6c3.346-.433,5.244.837,5.374,2.362s1.617,4.663,5.209,3.356c2.452.123,3.952,1.155,5.447,5.59.183-1.146.289-1.4,1.936-5.088A13.762,13.762,0,0,0,137.5,3.875c-6.028-5.65-17.05-2.578-19.869,4.494" fill="#292d30"/>
        <path id="Trazado_798518" data-name="Trazado 798518" d="M121.281,27.365a7.4,7.4,0,0,0,2.658-1.553.127.127,0,0,1,.219.1,4.863,4.863,0,0,1-2.09,3.214c-.656-1.474-.787-1.763-.787-1.763" fill="#be1e2d"/>
        <path id="Trazado_798519" data-name="Trazado 798519" d="M121.328,27.474l.307.688a3.377,3.377,0,0,0,2.114-2.044,7.061,7.061,0,0,1-2.421,1.356" fill="#fff"/>
        <path id="Trazado_798520" data-name="Trazado 798520" d="M123.252,17.091a3.116,3.116,0,0,0-1.139.112c-.172.054-.282.2-.436.205a4.778,4.778,0,0,1-.626.03l-.061-.053a.8.8,0,0,1,.33-.7,1.034,1.034,0,0,1,.725-.123,2.308,2.308,0,0,1,1.238.457Z" fill="#735f52"/>
        <path id="Trazado_798521" data-name="Trazado 798521" d="M124.123,19.723a1.748,1.748,0,0,1-1,1.733c-.441.115-.95-.356-1.136-1.054s.019-1.357.461-1.472,1.489.1,1.676.793" fill="#fff"/>
        <path id="Trazado_798522" data-name="Trazado 798522" d="M123.244,19.962c.171.641.022,1.236-.333,1.329s-.781-.351-.952-.992-.022-1.236.333-1.329.781.351.952.992" fill="#4a4243"/>
        <path id="Trazado_798523" data-name="Trazado 798523" d="M123.054,19.635a.274.274,0,1,1-.382-.064.274.274,0,0,1,.382.064" fill="#fff"/>
        <path id="Trazado_798524" data-name="Trazado 798524" d="M123.648,19.169a2.386,2.386,0,0,0-.935-.372c-.163-.024-.32,0-.474-.014s-.315-.014-.514-.057a.711.711,0,0,1,.5-.3,1.059,1.059,0,0,1,.564.095,2.045,2.045,0,0,1,.888.624Z" fill="#231f20"/>
        <path id="Trazado_798525" data-name="Trazado 798525" d="M118.394,24.838s2.252.146,2.514.14c-.187.693-1.008.7-2.514-.14" fill="#eb9a5c"/>
        <path id="Trazado_798526" data-name="Trazado 798526" d="M132.89,14.966s-3.546,16.2-3.661,16.55c-.428.781-1.727.937-1.966.535l3.762-17.686Z" fill="#645b5b"/>
        <path id="Trazado_798527" data-name="Trazado 798527" d="M142.583,16.1c-.014.224-.037.444-.06.664a14.032,14.032,0,0,1-.586,2.7.839.839,0,0,1-1.106.523l-24.715-9.7a.845.845,0,0,1-.456-1.147,14.188,14.188,0,0,1,26.631,3.019,13.9,13.9,0,0,1,.292,3.938" fill="#645b5b"/>
        <path id="Trazado_798528" data-name="Trazado 798528" d="M142.844,15.006c-.015.224-.037.444-.061.664a13.546,13.546,0,0,1-.467,2.305c-.035.134-.074.269-.119.4a.84.84,0,0,1-1.106.523l-21.32-8.368L116.377,9.2a.845.845,0,0,1-.456-1.147,14.187,14.187,0,0,1,26.63,3.019,13.9,13.9,0,0,1,.293,3.938" fill="#ff512e"/>
        <path id="Trazado_798529" data-name="Trazado 798529" d="M142.458,16.746c-.012.193-.029.386-.05.576-.023.22-.055.436-.091.653-.036.134-.076.269-.12.4a.839.839,0,0,1-1.106.522L119.77,10.528A11.862,11.862,0,0,1,131.3,3.793,12.09,12.09,0,0,1,142.2,13.345a12.37,12.37,0,0,1,.254,3.4" fill="#cc4125"/>
        <path id="Trazado_798530" data-name="Trazado 798530" d="M141.278,8.672a17.582,17.582,0,0,0-9.336-5c-5.06-.725-10.768,2.534-13.045,6.518-1.63-.592-1.445-.682-1.445-.682a14.235,14.235,0,0,1,14.383-6.531s7.022.915,9.443,5.7" fill="#4a4243"/>
        <path id="Trazado_798531" data-name="Trazado 798531" d="M142.783,15.67c-3.87-2.862-11.789-5.983-17.6-6.505a.148.148,0,0,1-.017-.292,27.646,27.646,0,0,1,12.879.194,15.93,15.93,0,0,1,4.5,2,13.815,13.815,0,0,1,.317,3.447c0,.162-.012.326-.023.491-.016.223-.038.441-.062.663" fill="#2d2728"/>
        <path id="Trazado_798532" data-name="Trazado 798532" d="M142.868,14.516a42.218,42.218,0,0,0-13.125-5.321.147.147,0,0,1,.01-.291,31.837,31.837,0,0,1,8.3.164,15.934,15.934,0,0,1,4.5,2,13.862,13.862,0,0,1,.317,3.447" fill="#4a4243"/>
        <path id="Trazado_798533" data-name="Trazado 798533" d="M56.968,145.868l-.092,9.412,4.033.557.2-4.562Z" fill="#eb9a5c"/>
        <path id="Trazado_798534" data-name="Trazado 798534" d="M43.575,167.754a2.343,2.343,0,1,1,3.264.567,2.342,2.342,0,0,1-3.264-.567" fill="#bdacae"/>
        <path id="Trazado_798535" data-name="Trazado 798535" d="M44.458,167.133a1.263,1.263,0,1,1,1.76.306,1.262,1.262,0,0,1-1.76-.306" fill="#4a4243"/>
        <path id="Trazado_798536" data-name="Trazado 798536" d="M48.87,168.078a2.343,2.343,0,1,1,3.312.075,2.344,2.344,0,0,1-3.312-.075" fill="#bdacae"/>
        <path id="Trazado_798537" data-name="Trazado 798537" d="M49.651,167.332a1.263,1.263,0,1,1,1.786.041,1.263,1.263,0,0,1-1.786-.041" fill="#4a4243"/>
        <path id="Trazado_798538" data-name="Trazado 798538" d="M53.649,168.247a2.343,2.343,0,1,1,3.312.075,2.343,2.343,0,0,1-3.312-.075" fill="#bdacae"/>
        <path id="Trazado_798539" data-name="Trazado 798539" d="M54.429,167.5a1.263,1.263,0,1,1,1.786.041,1.263,1.263,0,0,1-1.786-.041" fill="#4a4243"/>
        <path id="Trazado_798540" data-name="Trazado 798540" d="M58.427,168.417a2.343,2.343,0,1,1,3.312.075,2.343,2.343,0,0,1-3.312-.075" fill="#bdacae"/>
        <path id="Trazado_798541" data-name="Trazado 798541" d="M59.207,167.671a1.263,1.263,0,1,1,1.786.041,1.263,1.263,0,0,1-1.786-.041" fill="#4a4243"/>
        <path id="Trazado_798542" data-name="Trazado 798542" d="M60.121,167.2l-14.349-.508a.4.4,0,0,1-.387-.416.406.406,0,0,1,.415-.387l14.335.508a.4.4,0,0,1-.014.8" fill="#4a4243"/>
        <path id="Trazado_798543" data-name="Trazado 798543" d="M58.988,163.079s-.04,3.08.751,3.706l-1.7-.023s.158-2.007-2.3-2.04-7.026-.167-7.026-.167a1.754,1.754,0,0,0-1.662,1.78c-.914-.012-1.261-.045-1.261-.045s.787-1.88.211-3.034c12.295.164,12.991-.177,12.991-.177" fill="#4a4243"/>
        <path id="Trazado_798544" data-name="Trazado 798544" d="M61.79,154.145a1.065,1.065,0,0,0-1.13-1.16c-1.191.038-5.068-1.441-5.228-.244s-1,3.262-.981,3.929c.015.7-2.324,1.541-4.665,2.719-2.322,1.169-4.178,1.068-4.805,1.337-.879.377-1.835,2.188-.212,3.042l15.655.577A1.707,1.707,0,0,0,62.2,162.73a4.011,4.011,0,0,0-.368-2.136c-.75-1.257-.668-2.717-.043-6.449" fill="#ee4088"/>
        <path id="Trazado_798545" data-name="Trazado 798545" d="M52.847,164.066s4.746-3.856,5.254-4.14a1.25,1.25,0,0,1,1.769.608c.347.839.988,3.77.988,3.77Z" fill="#ab2e62"/>
        <path id="Trazado_798546" data-name="Trazado 798546" d="M48.083,160.535l.224.645a.445.445,0,0,0,.516.29,13.328,13.328,0,0,0,6.227-2.861,1.356,1.356,0,0,0,.553-.558,4.037,4.037,0,0,0,.325-1.277.447.447,0,0,0-.292-.5l-.706-.245a.407.407,0,0,0-.51.165c-.52,1.169-1.773,1.911-6.061,3.778a.461.461,0,0,0-.276.567" fill="#fff"/>
        <path id="Trazado_798547" data-name="Trazado 798547" d="M50.145,163.966a8.373,8.373,0,0,0-6.168-2.033c-.78.044-.169,1.822.791,1.835s5.377.2,5.377.2" fill="#fff"/>
        <path id="Trazado_798548" data-name="Trazado 798548" d="M54.188,154.075a1.165,1.165,0,0,1,1.333-.995l2.528.36a1.158,1.158,0,1,1-.323,2.292l-2.528-.36a1.164,1.164,0,0,1-1.01-1.3" fill="#fff"/>
        <path id="Trazado_798549" data-name="Trazado 798549" d="M84.509,119.1l5.356-8.092-2.446-1.9L85,111.685Z" fill="#eb9a5c"/>
        <path id="Trazado_798550" data-name="Trazado 798550" d="M108.152,109.131a2.343,2.343,0,1,1-2.321-2.365,2.343,2.343,0,0,1,2.321,2.365" fill="#bdacae"/>
        <path id="Trazado_798551" data-name="Trazado 798551" d="M107.072,109.121a1.263,1.263,0,1,1-1.251-1.275,1.262,1.262,0,0,1,1.251,1.275" fill="#4a4243"/>
        <path id="Trazado_798552" data-name="Trazado 798552" d="M104.039,105.78a2.343,2.343,0,1,1-2.647-1.993,2.343,2.343,0,0,1,2.647,1.993" fill="#bdacae"/>
        <path id="Trazado_798553" data-name="Trazado 798553" d="M102.97,105.93a1.263,1.263,0,1,1-1.427-1.075,1.263,1.263,0,0,1,1.427,1.075" fill="#4a4243"/>
        <path id="Trazado_798554" data-name="Trazado 798554" d="M100.256,102.855a2.343,2.343,0,1,1-2.647-1.993,2.343,2.343,0,0,1,2.647,1.993" fill="#bdacae"/>
        <path id="Trazado_798555" data-name="Trazado 798555" d="M99.187,103.006a1.263,1.263,0,1,1-1.427-1.075,1.263,1.263,0,0,1,1.427,1.075" fill="#4a4243"/>
        <path id="Trazado_798556" data-name="Trazado 798556" d="M96.474,99.931a2.343,2.343,0,1,1-2.647-1.993,2.343,2.343,0,0,1,2.647,1.993" fill="#bdacae"/>
        <path id="Trazado_798557" data-name="Trazado 798557" d="M95.4,100.082a1.263,1.263,0,1,1-1.427-1.075,1.263,1.263,0,0,1,1.427,1.075" fill="#4a4243"/>
        <path id="Trazado_798558" data-name="Trazado 798558" d="M27.963,93.775l.525-.558s.57-.067.4.6-.929-.039-.929-.039" fill="#4a4243"/>
        <path id="Trazado_798559" data-name="Trazado 798559" d="M70.827,89.744s.242,1.183,1.054,1c.591-.555.223-1.593.223-1.593Z" fill="#4a4243"/>
        <path id="Trazado_798560" data-name="Trazado 798560" d="M8.711,88.794S6.3,87.526,5.764,85.715l.376-.473a13.562,13.562,0,0,0,3.267,2.283,6.945,6.945,0,0,1,3.75,2.163,2.725,2.725,0,0,1-.857,2.339,28.509,28.509,0,0,1-2.835.493c-1.45.167-8.146-.678-7.235-1.675-2.25-1-3.749-2.195.321-2.051s6.16,0,6.16,0" fill="#ffc58c"/>
        <path id="Trazado_798561" data-name="Trazado 798561" d="M40.457,92.8l-2.631-.284A55.124,55.124,0,0,1,30.8,94.145c-3.539-.4-15.719-4.01-17.659-4.569a1.655,1.655,0,0,0-.544,2.856c.7.776,12.9,6.907,14.8,7.14s6.7.155,13.066-1.863c.078-2.949,0-4.908,0-4.908" fill="#ffc58c"/>
        <path id="Trazado_798562" data-name="Trazado 798562" d="M55.151,80.3s1.435,2.631,5.012,1.507,4.325-.579,4.824.6c2.08-.148,2.2,3.678,1.06,6.049s-3.46,5.676-5.254,6.227-8.2-1.971-10.311-8.4,3.35-7.259,4.669-5.99" fill="#615658"/>
        <path id="Trazado_798563" data-name="Trazado 798563" d="M55.151,83.111a3.948,3.948,0,0,0,3.906,2.454c2.9-.212,4.856-3.056,6.235-2.959a4.754,4.754,0,0,0-4.718.8c-1.856,1.681-4.379.536-5.423-.3" fill="#4a4243"/>
        <path id="Trazado_798564" data-name="Trazado 798564" d="M50.106,80.519s-.161,4.146,2.234,4.652c.114,1.874,6.641,8.16,13.121,4.4.941,2.094-.21,5.333-5,5.165-4.28-.6-9.2-5.127-9.976-8.449a4.479,4.479,0,0,1-.376-5.773" fill="#4a4243"/>
        <path id="Trazado_798565" data-name="Trazado 798565" d="M61.11,151.275c-.911.329-4.191-.423-4.191-.423l-.355-11.987-.509-5.917-2.492-15.422-.426-1.591-.589-.993s10.359-.032,10.058,1.874c-.221,1.388-.6,8.424-1.036,11.746-.16,1.231-.269,4.329-.269,4.329a7.212,7.212,0,0,0,.779,4.846c1.785,3.514,1.02,7.484-.97,13.538" fill="#27aae1"/>
        <path id="Trazado_798566" data-name="Trazado 798566" d="M62.606,116.816c-.221,1.388-.6,8.424-1.036,11.746-1.075-5.143-5.383-9.271-8.007-11.036l-.426-1.591-.589-.993s.568-1.758,1.86-1.711c3.026.11,8.409,2.25,8.2,3.585" fill="#1376a1"/>
        <path id="Trazado_798567" data-name="Trazado 798567" d="M51.932,113.334s2.591,4.241,9.178,4.241c3.769,4.559,11.4,9.279,11.4,9.279s4.992.63,6.376-.348,8.927-12.251,8.927-12.251-2.57-2.321-2.818-2.569a91.947,91.947,0,0,0-8.962,8.289,1.11,1.11,0,0,1-1.937,0,89.4,89.4,0,0,1-8.051-9.666s.719-1.933-3.477-6.113c-4.437.8-10.639,9.138-10.639,9.138" fill="#27aae1"/>
        <path id="Trazado_798568" data-name="Trazado 798568" d="M61.3,132.892s-4.943.667-5.249.055v-.51a5.157,5.157,0,0,0,.51,6.429,39.834,39.834,0,0,1,5.515-1.128,10.433,10.433,0,0,1-.776-4.846" fill="#4a4243"/>
        <path id="Trazado_798569" data-name="Trazado 798569" d="M74.1,119.975a14.844,14.844,0,0,1-2.143,6.531c1.021,2.143,3.661,4.082,6.933,0-.5-.408-2.853-6.531-2.853-6.531s-.712.918-1.937,0" fill="#4a4243"/>
        <path id="Trazado_798570" data-name="Trazado 798570" d="M37.826,92.518a39.179,39.179,0,0,0,1.437,6.1c5.327-1.427,6.674-1.655,6.674-1.655s1.03-6.586-2.932-6.27Z" fill="#cc4125"/>
        <path id="Trazado_798571" data-name="Trazado 798571" d="M62.654,103.785c-1.111,6.419-9.187,11.237-10.495,11.157-6.11-6.856-12.574-14.655-9.212-24.1.02-.053.036-.1.057-.153,0,0,6.471-5.336,12.071-2.788-.024.317-.056.646-.088.987-.309,3.362-.538,8.024,7.667,14.892" fill="#ff884b"/>
        <path id="Trazado_798572" data-name="Trazado 798572" d="M55.075,87.906c-.024.317-.056.646-.088.987-5.192,2.355-9.432,2.427-12.04,1.954.02-.052.036-.1.056-.153,0,0,6.471-5.336,12.072-2.788" fill="#e86929"/>
        <path id="Trazado_798573" data-name="Trazado 798573" d="M2.23,90.845s2.753.283,3.491.34l-.085-.256s-4.82-.914-5.251-1.11c-.459.315.872.927,1.845,1.026" fill="#eb9a5c"/>
        <path id="Trazado_798574" data-name="Trazado 798574" d="M9.042,88.819s1.119,1.689,2.617,1.278c-1.056,1.705-2.982.017-2.617-1.278" fill="#eb9a5c"/>
        <path id="Trazado_798575" data-name="Trazado 798575" d="M83.73,83.782l-.565.474s.565,1.672,3.385,1.3c1.288.491,2.208,2.023,2.576,2.269.981-.491.185-1.712-.981-2.575-.682-1.009.577-1.349,1.791-1.411s5.282.167,5.607-1.086c1.554-.447,1.431-.861,1.37-1.359-.43.115-9.075.361-13.183,2.384" fill="#eb9a5c"/>
        <path id="Trazado_798576" data-name="Trazado 798576" d="M55.525,94.389a122.872,122.872,0,0,0,13.244-3.5l4.321-1.532s2.441-.228,10.351-5.283c.858-.027.841.254.841.254s.919.981,4.537-.613,7.051-1.676,7.542-2.647c.122-.664-.429-.565-2.453-.277s-7.725-.592-10.485.277l-.981.011s-9.69,2.17-11.13,3.568A79.034,79.034,0,0,1,57.08,88.121a11.32,11.32,0,0,0-1.555,6.268" fill="#ffc58c"/>
        <path id="Trazado_798577" data-name="Trazado 798577" d="M37.168,67.992a30.5,30.5,0,0,0-.9,3.991c.316,1.254,1.737,4.568-3.422,5.411-.474.423.38,1.285,1.295,1.8a17.618,17.618,0,0,0,.39,6.887,24.035,24.035,0,0,0,8.983,2.737,11.805,11.805,0,0,1,1.938,4.741.519.519,0,0,0,.937.2c3.391-4.834,4.088-5.89,4.088-5.89s-.977-.883,0-1.58c1.689-1.287,5.582-3.39,6.532-6.75s-8.633-14.268-19.846-11.55" fill="#ffc58c"/>
        <path id="Trazado_798578" data-name="Trazado 798578" d="M44.064,85.826s-5.642,1.331-9.528.256c.357.712,6.664,2.678,8.983,2.737a7.556,7.556,0,0,0,1.723-3.874,1.752,1.752,0,0,1-1.178.881" fill="#eb9a5c"/>
        <path id="Trazado_798579" data-name="Trazado 798579" d="M44.755,82.777s1.933,2.393,4.634-.908a2.409,2.409,0,0,1,.224,1.746S46,85.739,44.755,82.777" fill="#d99048"/>
        <path id="Trazado_798580" data-name="Trazado 798580" d="M35.96,69.795c-.564.341-.321,3.012,3.066,1.816a20.987,20.987,0,0,0-3.066-1.816" fill="#4a4243"/>
        <path id="Trazado_798581" data-name="Trazado 798581" d="M57.414,80.3c-.558,2.419-3.081,3.783-5.075,4.867a14.957,14.957,0,0,0-1.858,1.123c-1.673-1.34-1.235-3.707-1.091-4.425,0,0,1.192-2.054,0-3.294-1.36-1.412-3.3.285-3.3.285l-.906-.478c-2.488-1.576-1.457-6.6-1.457-6.6S58.18,77,57.414,80.3" fill="#615658"/>
        <path id="Trazado_798582" data-name="Trazado 798582" d="M52.339,85.17a14.863,14.863,0,0,0-1.857,1.123A4.483,4.483,0,0,1,50.1,80.52s-.16,4.144,2.235,4.65" fill="#4a4243"/>
        <path id="Trazado_798583" data-name="Trazado 798583" d="M47,74.034,39.5,88.127l1.716.335,7.4-13.633Z" fill="#4a4243"/>
        <path id="Trazado_798584" data-name="Trazado 798584" d="M59.258,77.775c-.032.205-.072.4-.112.606a13.035,13.035,0,0,1-.775,2.439.775.775,0,0,1-1.063.385L35.4,70.136a.782.782,0,0,1-.321-1.1A13.119,13.119,0,0,1,59.33,74.124a12.8,12.8,0,0,1-.072,3.651" fill="#4a4243"/>
        <path id="Trazado_798585" data-name="Trazado 798585" d="M50.355,91.876s.137,3.571,7.329,7.109a82.36,82.36,0,0,1-3.665-8.3Z" fill="#e86929"/>
        <path id="Trazado_798586" data-name="Trazado 798586" d="M58.442,87.829s1.354,1.587,1.5,5.8c-8.589,2.817-8.865.511-9.465-1.425s.941-4.373,4.593-4.294a26.823,26.823,0,0,0,3.368-.079" fill="#cc4125"/>
        <path id="Trazado_798587" data-name="Trazado 798587" d="M59.593,76.789c-.032.205-.072.4-.112.606a12.8,12.8,0,0,1-.63,2.082c-.044.12-.093.241-.145.357a.775.775,0,0,1-1.063.385l-18.9-9.548L35.73,69.15a.782.782,0,0,1-.321-1.1,13.119,13.119,0,0,1,24.256,5.083,12.8,12.8,0,0,1-.072,3.651" fill="#ff512e"/>
        <path id="Trazado_798588" data-name="Trazado 798588" d="M59.087,78.357c-.028.176-.06.353-.1.526-.04.2-.088.4-.141.593-.044.121-.092.241-.144.357a.776.776,0,0,1-1.063.386l-18.9-9.549a10.967,10.967,0,0,1,11.193-5.2A11.177,11.177,0,0,1,59.147,75.2a11.363,11.363,0,0,1-.06,3.153" fill="#cc4125"/>
        <path id="Trazado_798589" data-name="Trazado 798589" d="M58.7,70.822a16.262,16.262,0,0,0-8.162-5.416c-4.6-1.1-10.132,1.4-12.573,4.873-1.449-.687-1.271-.754-1.271-.754A13.161,13.161,0,0,1,50.5,64.758s6.386,1.449,8.2,6.064" fill="#4a4243"/>
        <path id="Trazado_798590" data-name="Trazado 798590" d="M30.639,99.612l.79.04a1.766,1.766,0,0,1-.79,1.075,7.136,7.136,0,0,1-4.008-.4,8.322,8.322,0,0,1,.618-6.915c.1-.165.477-.221.67-.213.241.012.309,0,.57.02a10.093,10.093,0,0,0-.847,2.805.673.673,0,0,0,1.316.031,7.891,7.891,0,0,1,1.035-2.688c.606.057,1.051.109,1.051.109a.637.637,0,0,1,.385.67H30.8s-1.287,1.821-.156,5.468" fill="#4a4243"/>
        <path id="Trazado_798591" data-name="Trazado 798591" d="M73.009,90.241a5.932,5.932,0,0,1-1.1.489c-.189-1.994-.654-3.269-1.625-2.884-.413.164-.612.459-.484,1.369a12.606,12.606,0,0,1,.157,1.956.4.4,0,0,1-.269.365c-.4.139-.737.249-.921.306-.75.224-.846-.654-.846-.654s.14-.048.469-.173a10.6,10.6,0,0,0-1.472-4.9,1.985,1.985,0,0,0-.847.18c-.188-.718.967-1.159,2.239-1.5,1.256-.333,2.624-.566,3-.145,1.8,1.437,1.926,5.364,1.7,5.589" fill="#4a4243"/>
        <path id="Trazado_798592" data-name="Trazado 798592" d="M59.593,76.789c-.032.205-.072.4-.112.606a38.284,38.284,0,0,0-15.639-7.51.136.136,0,0,1,.012-.269c9.188-.9,14.046,2.086,15.811,3.522a12.8,12.8,0,0,1-.072,3.651" fill="#4a4243"/>
        <path id="Trazado_798593" data-name="Trazado 798593" d="M37.856,81.11a1.258,1.258,0,0,1-.585,1.044,2.191,2.191,0,0,1-1.1.415,2.7,2.7,0,0,1-1.113-.117c-.173-.071-.345-.134-.51-.212a3.356,3.356,0,0,1-.459-.345l.014-.058a6.124,6.124,0,0,0,2,.134,2.912,2.912,0,0,0,.964-.239A1.515,1.515,0,0,0,37.8,81.1Z" fill="#be1e2d"/>
        <path id="Trazado_798594" data-name="Trazado 798594" d="M40.12,74.293a2.047,2.047,0,0,0-.611-.485,2.056,2.056,0,0,1-.325-.123,2.279,2.279,0,0,1-.32-.282.5.5,0,0,1,.484-.171.73.73,0,0,1,.393.268,1.573,1.573,0,0,1,.423.773Z" fill="#735f52"/>
        <path id="Trazado_798595" data-name="Trazado 798595" d="M39.45,76.934c-.252.671-.8,1.084-1.222.923s-.562-.836-.31-1.507.8-1.084,1.222-.923.562.836.31,1.507" fill="#fff"/>
        <path id="Trazado_798596" data-name="Trazado 798596" d="M39.188,76.721c-.232.616-.7,1.011-1.036.881s-.428-.734-.2-1.351.7-1.01,1.036-.881.429.735.2,1.351" fill="#4a4243"/>
        <path id="Trazado_798597" data-name="Trazado 798597" d="M39.223,76.347a.272.272,0,1,1-.272-.272.272.272,0,0,1,.272.272" fill="#fff"/>
        <path id="Trazado_798598" data-name="Trazado 798598" d="M39.558,76.075a1.776,1.776,0,0,0-.331-.714c-.082-.1-.189-.145-.265-.227s-.175-.154-.286-.288a.49.49,0,0,1,.487-.007.725.725,0,0,1,.305.369,1.5,1.5,0,0,1,.126.867Z" fill="#231f20"/>
        <path id="Trazado_798599" data-name="Trazado 798599" d="M32.756,77.892a18.533,18.533,0,0,0,2.876,1.444c-.9.332-1.956.275-2.876-1.444" fill="#eb9a5c"/>
        <path id="Trazado_798600" data-name="Trazado 798600" d="M48.014,82.016a1.568,1.568,0,0,1-2.158.265,1.219,1.219,0,0,1-.229-1.192.9.9,0,1,0,.987-1.263,1.405,1.405,0,0,1,1.757.04,1.577,1.577,0,0,1-.357,2.15" fill="#eb9a5c"/>
        <path id="Trazado_798601" data-name="Trazado 798601" d="M105.5,109.432a.393.393,0,0,1-.245-.084l-11.348-8.772a.4.4,0,0,1,.49-.635l11.348,8.772a.4.4,0,0,1-.245.719" fill="#4a4243"/>
        <path id="Trazado_798602" data-name="Trazado 798602" d="M92.9,103.94s1.829-2.479,1.551-3.448l1.367,1.01s-1.3,1.538.683,3,5.609,4.233,5.609,4.233a1.756,1.756,0,0,0,2.389-.476c.735.543,1,.772,1,.772s-1.735,1.069-1.941,2.341c-9.892-7.3-10.656-7.432-10.656-7.432" fill="#4a4243"/>
        <path id="Trazado_798603" data-name="Trazado 798603" d="M85.419,109.564a1.064,1.064,0,0,0,.241,1.6c.99.663,3.276,4.125,4.1,3.247s2.713-2.068,3.09-2.619c.393-.576,2.785.1,5.373.511,2.569.4,4.018,1.569,4.684,1.716.935.207,2.767-.706,1.947-2.347l-12.381-9.6a1.708,1.708,0,0,0-2.386.276,4.036,4.036,0,0,0-.947,1.95c-.123,1.459-1.041,2.6-3.725,5.264" fill="#ee4088"/>
        <path id="Trazado_798604" data-name="Trazado 798604" d="M98.469,106.72s-6.1.365-6.683.3a1.25,1.25,0,0,1-1.082-1.525c.208-.885,1.4-3.64,1.4-3.64Z" fill="#ab2e62"/>
        <path id="Trazado_798605" data-name="Trazado 798605" d="M100.279,112.366l.195-.655a.445.445,0,0,0-.251-.536,13.328,13.328,0,0,0-6.726-1.308,1.365,1.365,0,0,0-.776.131,4.048,4.048,0,0,0-1.008.848.447.447,0,0,0-.057.58l.431.61a.407.407,0,0,0,.511.164c1.1-.647,2.554-.519,7.127.465a.459.459,0,0,0,.554-.3" fill="#fff"/>
        <path id="Trazado_798606" data-name="Trazado 798606" d="M100.605,108.376a8.37,8.37,0,0,0,3.825,5.248c.66.42,1.2-1.381.428-1.951s-4.253-3.3-4.253-3.3" fill="#fff"/>
        <path id="Trazado_798607" data-name="Trazado 798607" d="M91.554,114.053a1.167,1.167,0,0,1-1.664.031l-1.843-1.766a1.158,1.158,0,1,1,1.6-1.674l1.843,1.766a1.164,1.164,0,0,1,.064,1.643" fill="#fff"/>
      </g>
    </g>
  </g>
</svg>
