<svg xmlns="http://www.w3.org/2000/svg" xmlns:xlink="http://www.w3.org/1999/xlink" width="70" height="70" viewBox="0 0 70 70">
  <defs>
    <clipPath id="clip-path">
      <path id="path1610" d="M0-682.665H49.45v49.45H0Z" transform="translate(0 682.665)"/>
    </clipPath>
  </defs>
  <g id="Grupo_1063907" data-name="Grupo 1063907" transform="translate(-388.455 -1387.455)">
    <circle id="Elipse_8234" data-name="Elipse 8234" cx="35" cy="35" r="35" transform="translate(388.455 1387.455)" fill="#ffebc5"/>
    <g id="g1596" transform="translate(398.73 1397.73)">
      <g id="g1598" transform="translate(19.586 34.722)">
        <path id="path1600" d="M-50.558-55.468l-3.948-2.113,1.187-2.218,3.948,2.113Z" transform="translate(54.507 59.8)" fill="#ffbd86"/>
      </g>
      <g id="g1602" transform="translate(24.528 34.722)">
        <path id="path1604" d="M-15.2-56.841l4.149-2.221-1.187-2.218-4.149,2.221Z" transform="translate(16.392 61.28)" fill="#ffbd86"/>
      </g>
      <g id="g1606" transform="translate(0 0)">
        <g id="g1608" clip-path="url(#clip-path)">
          <g id="g1614" transform="translate(3.102 32.548)">
            <path id="path1616" d="M-238.811-33.4l-1.085,2.45a.315.315,0,0,1-.4.168l-1.956-.729a.106.106,0,0,0-.144.1v4.289h-15.067v-6.643A2.243,2.243,0,0,1-255.218-36h11.547a4.368,4.368,0,0,1,2.353.688l2.388,1.527a.315.315,0,0,1,.119.393" transform="translate(257.461 36.004)" fill="#fe646f"/>
          </g>
          <g id="g1618" transform="translate(15.271 37.068)">
            <path id="path1620" d="M0-55.9H2.9V-60.19l-1.4-.074A1.423,1.423,0,0,0,0-58.843Z" transform="translate(0 60.267)" fill="#fd4755"/>
          </g>
          <g id="g1622" transform="translate(13.994 32.548)">
            <path id="path1624" d="M-67.231-8.808A4.369,4.369,0,0,0-69.584-9.5h-2.9a4.368,4.368,0,0,1,2.353.688l2.272,1.453a.552.552,0,0,1,.234.613l-.492,1.761,1.907.711a.315.315,0,0,0,.4-.168l1.085-2.45a.315.315,0,0,0-.119-.393Z" transform="translate(72.481 9.496)" fill="#fd4755"/>
          </g>
          <g id="g1626" transform="translate(27.671 32.548)">
            <path id="path1628" d="M-.346-33.4l1.085,2.45a.315.315,0,0,0,.4.168l1.956-.729a.106.106,0,0,1,.144.1v4.289H18.3v-6.643A2.243,2.243,0,0,0,16.061-36H4.514a4.368,4.368,0,0,0-2.353.688L-.227-33.789a.315.315,0,0,0-.119.393" transform="translate(0.373 36.004)" fill="#8379c1"/>
          </g>
          <g id="g1630" transform="translate(41.208 32.548)">
            <path id="path1632" d="M-37.1,0H-40a2.243,2.243,0,0,1,2.243,2.243V8.885h2.9V2.243A2.243,2.243,0,0,0-37.1,0" transform="translate(40)" fill="#6e61b6"/>
          </g>
          <g id="g1634" transform="translate(29.066 16.406)">
            <path id="path1636" d="M-245.012-87.31a3.737,3.737,0,0,1-1.821,4.983,17.3,17.3,0,0,1-7.562,1.76,17.291,17.291,0,0,1-7.63-1.794,3.713,3.713,0,0,1-1.754-4.948l3.288-6.819h12.19Z" transform="translate(264.146 94.128)" fill="#c86d36"/>
          </g>
          <path id="path1638" d="M121.359-294.785H117.05v-3.28h4.309Z" transform="translate(-108.572 325.924)" fill="#fed2a4"/>
          <path id="path1640" d="M146.794-294.785h2.155v-3.28h-2.155Z" transform="translate(-136.161 325.924)" fill="#ffbd86"/>
          <g id="g1642" transform="translate(0.724 17.649)">
            <path id="path1644" d="M-51.079-36.02c0,1.554-.953,2.813-2.13,2.813s-1.859-1.446-1.859-3,.683-2.626,1.859-2.626,2.13,1.259,2.13,2.813" transform="translate(55.068 38.833)" fill="#ffbd86"/>
          </g>
          <g id="g1646" transform="translate(16.557 17.649)">
            <path id="path1648" d="M0-36.02c0,1.554.953,2.813,2.13,2.813s1.859-1.446,1.859-3-.683-2.626-1.859-2.626S0-37.574,0-36.02" transform="translate(0 38.833)" fill="#ffbd86"/>
          </g>
          <g id="g1650" transform="translate(3.786 10.556)">
            <path id="path1652" d="M0-147.381v-4.66a6.849,6.849,0,0,1,6.849-6.849,6.849,6.849,0,0,1,6.849,6.849v4.635a6.862,6.862,0,0,1-6.862,6.862A6.836,6.836,0,0,1,0-147.381" transform="translate(0 158.89)" fill="#fed2a4"/>
          </g>
          <g id="g1654" transform="translate(2.628 8.113)">
            <path id="path1656" d="M-102.507,0c-9.864,0-7.832,8.636-7.832,8.636a8.255,8.255,0,0,0,.985,3.533,1.981,1.981,0,0,0,1.794-1.975c-.012-1.789-.111-4.361,5.054-4.361s5.066,2.572,5.055,4.361a1.981,1.981,0,0,0,1.794,1.975,8.258,8.258,0,0,0,.985-3.533S-92.642,0-102.507,0" transform="translate(110.512)" fill="#9b5e5e"/>
          </g>
          <g id="g1658" transform="translate(9.184 8.113)">
            <path id="path1660" d="M-18.551,0c-.515,0-1,.025-1.449.07,7.647.755,6.589,7.539,6.409,8.462a8.379,8.379,0,0,1,.1,1.662A1.981,1.981,0,0,0-11.7,12.169a8.258,8.258,0,0,0,.985-3.533S-8.687,0-18.551,0" transform="translate(20)" fill="#855151"/>
          </g>
          <g id="g1662" transform="translate(6.47 30.798)">
            <path id="path1664" d="M-98.186-3.569a.606.606,0,0,0-.641-.267,15.634,15.634,0,0,1-2.861.254,15.633,15.633,0,0,1-2.861-.254.606.606,0,0,0-.641.267L-105.8-2.49a.482.482,0,0,0,.4.693,20.907,20.907,0,0,0,3.713.37,20.906,20.906,0,0,0,3.713-.37.482.482,0,0,0,.4-.693Z" transform="translate(105.854 3.848)" fill="#eae7ea"/>
          </g>
          <path id="path1666" d="M506.127-294.785h4.309v-3.28h-4.309Z" transform="translate(-469.465 325.924)" fill="#fed2a4"/>
          <path id="path1668" d="M538.025-294.785h-2.155v-3.28h2.155Z" transform="translate(-497.054 325.924)" fill="#ffbd86"/>
          <g id="g1670" transform="translate(44.736 17.649)">
            <path id="path1672" d="M0-36.02c0,1.554.953,2.813,2.13,2.813s1.859-1.446,1.859-3-.683-2.626-1.859-2.626S0-37.574,0-36.02" transform="translate(0 38.833)" fill="#ffbd86"/>
          </g>
          <g id="g1674" transform="translate(28.904 17.649)">
            <path id="path1676" d="M-51.079-36.02c0,1.554-.953,2.813-2.13,2.813s-1.859-1.446-1.859-3,.683-2.626,1.859-2.626,2.13,1.259,2.13,2.813" transform="translate(55.068 38.833)" fill="#ffbd86"/>
          </g>
          <g id="g1678" transform="translate(31.965 10.556)">
            <path id="path1680" d="M-175.407-147.381v-4.66a6.849,6.849,0,0,0-6.849-6.849,6.849,6.849,0,0,0-6.849,6.849v4.635a6.862,6.862,0,0,0,6.862,6.862,6.836,6.836,0,0,0,6.836-6.836" transform="translate(189.105 158.89)" fill="#fed2a4"/>
          </g>
          <g id="g1682" transform="translate(34.649 30.798)">
            <path id="path1684" d="M-8.492-3.569a.606.606,0,0,1,.641-.267,15.634,15.634,0,0,0,2.861.254,15.633,15.633,0,0,0,2.861-.254.606.606,0,0,1,.641.267L-.882-2.49a.482.482,0,0,1-.4.693,20.906,20.906,0,0,1-3.713.37A20.906,20.906,0,0,1-8.7-1.8a.482.482,0,0,1-.4-.693Z" transform="translate(9.155 3.848)" fill="#eae7ea"/>
          </g>
          <g id="g1686" transform="translate(31.05 8.016)">
            <path id="path1688" d="M-194.94-134.77a11.828,11.828,0,0,1-7.3-5.39.191.191,0,0,0-.326,0,11.828,11.828,0,0,1-7.3,5.39.144.144,0,0,1-.171-.12c-.189-1.278-1.228-10.4,7.63-10.4s7.819,9.126,7.63,10.4a.144.144,0,0,1-.171.12" transform="translate(210.164 145.294)" fill="#d77f4a"/>
          </g>
          <g id="g1690" transform="translate(37.366 8.016)">
            <path id="path1692" d="M-18.551,0A11.222,11.222,0,0,0-20,.091c6.311.82,6.461,7.048,6.272,9.487a9.659,9.659,0,0,0,2.636.947.144.144,0,0,0,.171-.12C-10.733,9.126-9.694,0-18.551,0" transform="translate(20)" fill="#c86d36"/>
          </g>
          <g id="g1694" transform="translate(23.151 35.787)">
            <path id="path1696" d="M-13.655-49.173h1.015a1.07,1.07,0,0,0,1.066-1.066v-1.707a1.069,1.069,0,0,0-1.066-1.066h-1.015a1.069,1.069,0,0,0-1.066,1.066v1.707a1.07,1.07,0,0,0,1.066,1.066" transform="translate(14.721 53.013)" fill="#fed2a4"/>
          </g>
          <g id="g1698" transform="translate(20.756 37.567)">
            <path id="path1700" d="M-30.486-16.321-32.867-17.6" transform="translate(32.867 17.596)" fill="none" stroke="#000" stroke-linecap="round" stroke-linejoin="round" stroke-miterlimit="10" stroke-width="1.5"/>
          </g>
          <g id="g1702" transform="translate(21.778 35.259)">
            <path id="path1704" d="M-20.439-10.944l-1.6-.855" transform="translate(22.035 11.799)" fill="none" stroke="#000" stroke-linecap="round" stroke-linejoin="round" stroke-miterlimit="10" stroke-width="1.5"/>
          </g>
          <g id="g1706" transform="translate(26.075 35.259)">
            <path id="path1708" d="M-20.451,0l-1.6.855" transform="translate(22.048)" fill="none" stroke="#000" stroke-linecap="round" stroke-linejoin="round" stroke-miterlimit="10" stroke-width="1.5"/>
          </g>
          <g id="g1710" transform="translate(26.369 37.567)">
            <path id="path1712" d="M-29.766,0l-2.325,1.244" transform="translate(32.091)" fill="none" stroke="#000" stroke-linecap="round" stroke-linejoin="round" stroke-miterlimit="10" stroke-width="1.5"/>
          </g>
          <g id="g1714" transform="translate(29.065 22.825)">
            <path id="path1716" d="M-7.17,0l-.193.4A3.714,3.714,0,0,0-5.609,5.349,17.083,17.083,0,0,0-.133,7" transform="translate(7.73)" fill="none" stroke="#000" stroke-linecap="round" stroke-linejoin="round" stroke-miterlimit="10" stroke-width="1.5"/>
          </g>
          <g id="g1718" transform="translate(40.971 22.844)">
            <path id="path1720" d="M-90.221,0l.183.381a3.738,3.738,0,0,1-1.821,4.983,17.083,17.083,0,0,1-5.408,1.619" transform="translate(97.266)" fill="none" stroke="#000" stroke-linecap="round" stroke-linejoin="round" stroke-miterlimit="10" stroke-width="1.5"/>
          </g>
          <g id="g1722" transform="translate(3.102 32.548)">
            <path id="path1724" d="M-149.276,0h2.131a4.371,4.371,0,0,1,2.354.688l2.388,1.527a.315.315,0,0,1,.119.393l-1.085,2.45a.315.315,0,0,1-.4.168l-1.957-.73a.107.107,0,0,0-.143.1V8.885h-15.067V2.243A2.242,2.242,0,0,1-158.691,0h1.167" transform="translate(160.933)" fill="none" stroke="#000" stroke-linecap="round" stroke-linejoin="round" stroke-miterlimit="10" stroke-width="1.5"/>
          </g>
          <g id="g1726" transform="translate(8.479 28.658)">
            <path id="path1728" d="M0-27.73V-29.9" transform="translate(0 29.896)" fill="none" stroke="#000" stroke-linecap="round" stroke-linejoin="round" stroke-miterlimit="10" stroke-width="1.5"/>
          </g>
          <g id="g1730" transform="translate(12.787 28.652)">
            <path id="path1732" d="M0-27.8v-2.171" transform="translate(0 29.969)" fill="none" stroke="#000" stroke-linecap="round" stroke-linejoin="round" stroke-miterlimit="10" stroke-width="1.5"/>
          </g>
          <g id="g1734" transform="translate(0.724 17.649)">
            <path id="path1736" d="M-28.235-.482a1.58,1.58,0,0,0-.346-.038c-1.176,0-1.859,1.073-1.859,2.626s.683,3,1.859,3a1.793,1.793,0,0,0,1.237-.524" transform="translate(30.44 0.52)" fill="none" stroke="#000" stroke-linecap="round" stroke-linejoin="round" stroke-miterlimit="10" stroke-width="1.5"/>
          </g>
          <g id="g1738" transform="translate(17.447 17.649)">
            <path id="path1740" d="M0-65.3a1.794,1.794,0,0,0,1.239.526c1.176,0,1.859-1.446,1.859-3S2.415-70.4,1.239-70.4a1.571,1.571,0,0,0-.345.038h0" transform="translate(0 70.4)" fill="none" stroke="#000" stroke-linecap="round" stroke-linejoin="round" stroke-miterlimit="10" stroke-width="1.5"/>
          </g>
          <g id="g1742" transform="translate(3.786 20.281)">
            <path id="path1744" d="M-175.408-.012V1.745a6.862,6.862,0,0,1-6.862,6.861,6.816,6.816,0,0,1-4.834-2,6.816,6.816,0,0,1-2-4.834V-.013" transform="translate(189.106 0.013)" fill="none" stroke="#000" stroke-linecap="round" stroke-linejoin="round" stroke-miterlimit="10" stroke-width="1.5"/>
          </g>
          <g id="g1746" transform="translate(7.635 24.56)">
            <path id="path1748" d="M-76.777,0A4.19,4.19,0,0,1-79.8,1.335,4.177,4.177,0,0,1-82.773,0" transform="translate(82.773)" fill="none" stroke="#000" stroke-linecap="round" stroke-linejoin="round" stroke-miterlimit="10" stroke-width="1.5"/>
          </g>
          <g id="g1750" transform="translate(9.958 23.284)">
            <path id="path1752" d="M0,0A2.252,2.252,0,0,0,1.355,0" fill="none" stroke="#000" stroke-linecap="round" stroke-linejoin="round" stroke-miterlimit="10" stroke-width="1.5"/>
          </g>
          <g id="g1754" transform="translate(7.077 18.173)">
            <path id="path1756" d="M-23.471-1.808a3.045,3.045,0,0,0-1.833,0" transform="translate(25.304 1.949)" fill="none" stroke="#000" stroke-linecap="round" stroke-linejoin="round" stroke-miterlimit="10" stroke-width="1.5"/>
          </g>
          <g id="g1758" transform="translate(12.36 18.173)">
            <path id="path1760" d="M0-1.808a3.045,3.045,0,0,1,1.833,0" transform="translate(0 1.949)" fill="none" stroke="#000" stroke-linecap="round" stroke-linejoin="round" stroke-miterlimit="10" stroke-width="1.5"/>
          </g>
          <g id="g1762" transform="translate(8.122 20.79)">
            <path id="path1764" d="M0,0V.359" fill="none" stroke="#000" stroke-linecap="round" stroke-linejoin="round" stroke-miterlimit="10" stroke-width="1.5"/>
          </g>
          <g id="g1766" transform="translate(13.149 20.79)">
            <path id="path1768" d="M0,0V.359" fill="none" stroke="#000" stroke-linecap="round" stroke-linejoin="round" stroke-miterlimit="10" stroke-width="1.5"/>
          </g>
          <g id="g1770" transform="translate(2.628 8.113)">
            <path id="path1772" d="M-3.36-60.739a8.936,8.936,0,0,0-.089,3.893,8.255,8.255,0,0,0,.985,3.533A1.981,1.981,0,0,0-.67-55.289c-.012-1.789-.111-4.361,5.054-4.361s5.066,2.572,5.055,4.361a1.981,1.981,0,0,0,1.794,1.975,8.258,8.258,0,0,0,.985-3.533s2.029-8.636-7.836-8.636c-3,0-4.9.8-6.094,1.914" transform="translate(3.623 65.483)" fill="none" stroke="#000" stroke-linecap="round" stroke-linejoin="round" stroke-miterlimit="10" stroke-width="1.5"/>
          </g>
          <g id="g1774" transform="translate(6.47 30.798)">
            <path id="path1776" d="M-98.186-3.569a.606.606,0,0,0-.641-.267,15.634,15.634,0,0,1-2.861.254,15.633,15.633,0,0,1-2.861-.254.606.606,0,0,0-.641.267L-105.8-2.49a.482.482,0,0,0,.4.693,20.907,20.907,0,0,0,3.713.37,20.906,20.906,0,0,0,3.713-.37.482.482,0,0,0,.4-.693Z" transform="translate(105.854 3.848)" fill="none" stroke="#000" stroke-linecap="round" stroke-linejoin="round" stroke-miterlimit="10" stroke-width="1.5"/>
          </g>
          <g id="g1778" transform="translate(27.672 32.548)">
            <path id="path1780" d="M-170.134-113.781h-9.677v-4.289a.107.107,0,0,0-.143-.1l-1.957.73a.315.315,0,0,1-.4-.168l-1.085-2.45a.316.316,0,0,1,.119-.393l2.388-1.527a4.371,4.371,0,0,1,2.354-.688h2.132" transform="translate(183.42 122.666)" fill="none" stroke="#000" stroke-linecap="round" stroke-linejoin="round" stroke-miterlimit="10" stroke-width="1.5"/>
          </g>
          <g id="g1782" transform="translate(42.939 32.548)">
            <path id="path1784" d="M0,0H1.167A2.242,2.242,0,0,1,3.408,2.243V8.885H1.436" fill="none" stroke="#000" stroke-linecap="round" stroke-linejoin="round" stroke-miterlimit="10" stroke-width="1.5"/>
          </g>
          <g id="g1786" transform="translate(36.662 28.647)">
            <path id="path1788" d="M0-27.926v-2.181" transform="translate(0 30.107)" fill="none" stroke="#000" stroke-linecap="round" stroke-linejoin="round" stroke-miterlimit="10" stroke-width="1.5"/>
          </g>
          <g id="g1790" transform="translate(40.971 28.653)">
            <path id="path1792" d="M0-27.857v-2.175" transform="translate(0 30.032)" fill="none" stroke="#000" stroke-linecap="round" stroke-linejoin="round" stroke-miterlimit="10" stroke-width="1.5"/>
          </g>
          <g id="g1794" transform="translate(45.629 17.649)">
            <path id="path1796" d="M-11.5-.458a1.648,1.648,0,0,1,.339-.036C-9.987-.493-9.3.58-9.3,2.133s-.683,3-1.859,3A1.793,1.793,0,0,1-12.4,4.608" transform="translate(12.4 0.493)" fill="none" stroke="#000" stroke-linecap="round" stroke-linejoin="round" stroke-miterlimit="10" stroke-width="1.5"/>
          </g>
          <g id="g1798" transform="translate(28.904 17.649)">
            <path id="path1800" d="M-28.136-.458a1.575,1.575,0,0,0-.338-.036c-1.176,0-1.859,1.073-1.859,2.626s.683,3,1.859,3a1.794,1.794,0,0,0,1.239-.526" transform="translate(30.333 0.493)" fill="none" stroke="#000" stroke-linecap="round" stroke-linejoin="round" stroke-miterlimit="10" stroke-width="1.5"/>
          </g>
          <g id="g1802" transform="translate(31.965 18.397)">
            <path id="path1804" d="M-175.408-.012V3.655a6.816,6.816,0,0,1-2,4.834,6.816,6.816,0,0,1-4.834,2,6.862,6.862,0,0,1-6.862-6.861V-.013" transform="translate(189.106 0.013)" fill="none" stroke="#000" stroke-linecap="round" stroke-linejoin="round" stroke-miterlimit="10" stroke-width="1.5"/>
          </g>
          <g id="g1806" transform="translate(35.819 24.56)">
            <path id="path1808" d="M0,0A4.19,4.19,0,0,0,3.018,1.335,4.177,4.177,0,0,0,6,0" fill="none" stroke="#000" stroke-linecap="round" stroke-linejoin="round" stroke-miterlimit="10" stroke-width="1.5"/>
          </g>
          <g id="g1810" transform="translate(38.137 23.284)">
            <path id="path1812" d="M-17.348,0A2.252,2.252,0,0,1-18.7,0" transform="translate(18.703)" fill="none" stroke="#000" stroke-linecap="round" stroke-linejoin="round" stroke-miterlimit="10" stroke-width="1.5"/>
          </g>
          <g id="g1814" transform="translate(40.539 18.173)">
            <path id="path1816" d="M0-1.808a3.045,3.045,0,0,1,1.833,0" transform="translate(0 1.949)" fill="none" stroke="#000" stroke-linecap="round" stroke-linejoin="round" stroke-miterlimit="10" stroke-width="1.5"/>
          </g>
          <g id="g1818" transform="translate(35.256 18.173)">
            <path id="path1820" d="M-23.471-1.808a3.045,3.045,0,0,0-1.833,0" transform="translate(25.304 1.949)" fill="none" stroke="#000" stroke-linecap="round" stroke-linejoin="round" stroke-miterlimit="10" stroke-width="1.5"/>
          </g>
          <g id="g1822" transform="translate(41.328 20.79)">
            <path id="path1824" d="M0,0V.359" fill="none" stroke="#000" stroke-linecap="round" stroke-linejoin="round" stroke-miterlimit="10" stroke-width="1.5"/>
          </g>
          <g id="g1826" transform="translate(36.301 20.79)">
            <path id="path1828" d="M0,0V.359" fill="none" stroke="#000" stroke-linecap="round" stroke-linejoin="round" stroke-miterlimit="10" stroke-width="1.5"/>
          </g>
          <g id="g1830" transform="translate(34.649 30.798)">
            <path id="path1832" d="M-8.492-3.569a.606.606,0,0,1,.641-.267,15.634,15.634,0,0,0,2.861.254,15.633,15.633,0,0,0,2.861-.254.606.606,0,0,1,.641.267L-.882-2.49a.482.482,0,0,1-.4.693,20.906,20.906,0,0,1-3.713.37A20.906,20.906,0,0,1-8.7-1.8a.482.482,0,0,1-.4-.693Z" transform="translate(9.155 3.848)" fill="none" stroke="#000" stroke-linecap="round" stroke-linejoin="round" stroke-miterlimit="10" stroke-width="1.5"/>
          </g>
          <g id="g1834" transform="translate(31.05 8.016)">
            <path id="path1836" d="M-194.94-134.77a11.828,11.828,0,0,1-7.3-5.39.191.191,0,0,0-.326,0,11.828,11.828,0,0,1-7.3,5.39.144.144,0,0,1-.171-.12c-.189-1.278-1.228-10.4,7.63-10.4s7.819,9.126,7.63,10.4A.144.144,0,0,1-194.94-134.77Z" transform="translate(210.164 145.294)" fill="none" stroke="#000" stroke-linecap="round" stroke-linejoin="round" stroke-miterlimit="10" stroke-width="1.5"/>
          </g>
          <g id="g1838" transform="translate(23.151 35.787)">
            <path id="path1840" d="M-13.655-49.173h1.015a1.07,1.07,0,0,0,1.066-1.066v-1.707a1.069,1.069,0,0,0-1.066-1.066h-1.015a1.069,1.069,0,0,0-1.066,1.066v1.707A1.07,1.07,0,0,0-13.655-49.173Z" transform="translate(14.721 53.013)" fill="none" stroke="#000" stroke-linecap="round" stroke-linejoin="round" stroke-miterlimit="10" stroke-width="1.5"/>
          </g>
        </g>
      </g>
    </g>
  </g>
</svg>
