<svg xmlns="http://www.w3.org/2000/svg" width="85" height="85" viewBox="0 0 85 85">
  <g id="Grupo_1064383" data-name="Grupo 1064383" transform="translate(-180 -446)">
    <rect id="Rectángulo_373435" data-name="Rectángulo 373435" width="85" height="85" rx="5" transform="translate(180 446)" fill="#ffa69d"/>
    <g id="informe-medico" transform="translate(199.738 458.264)">
      <g id="Grupo_1064384" data-name="Grupo 1064384" transform="translate(0.743 6.207)">
        <path id="Trazado_798723" data-name="Trazado 798723" d="M42.618,63.709a4.305,4.305,0,0,1,4.305,4.305v34.418a4.305,4.305,0,0,1-4.305,4.305H11.8A4.305,4.305,0,0,1,7.5,102.432V68.014A4.305,4.305,0,0,1,11.8,63.709H42.618Z" transform="translate(-7.499 -58.68)" fill="#a6e7f0"/>
        <path id="Trazado_798724" data-name="Trazado 798724" d="M104.3,63.71v1.606a4.07,4.07,0,0,0,4.065,4.065H120.47a4.07,4.07,0,0,0,4.065-4.065V63.71Z" transform="translate(-94.704 -58.681)" fill="#6bd9e7"/>
        <path id="Trazado_798725" data-name="Trazado 798725" d="M271.276,158.676c-.092.039-.184.079-.275.122l-1.247.582-1.247-.582a8.415,8.415,0,0,0-8.7,14.285l8.146,6.291a2.942,2.942,0,0,0,3.325.189V158.676Z" transform="translate(-231.852 -143.634)" fill="#6bd9e7"/>
        <path id="Trazado_798726" data-name="Trazado 798726" d="M69.646,93.71a1.333,1.333,0,0,1,1.332,1.332V129.46a1.333,1.333,0,0,1-1.332,1.332H38.832A1.333,1.333,0,0,1,37.5,129.46V95.042a1.333,1.333,0,0,1,1.332-1.332Z" transform="translate(-34.527 -85.708)" fill="#f9f7f8"/>
        <path id="Trazado_798727" data-name="Trazado 798727" d="M268.3,179.606v-20.9a8.415,8.415,0,0,0-8.5,14.377l8.146,6.291A2.916,2.916,0,0,0,268.3,179.606Z" transform="translate(-231.853 -143.634)" fill="#efedef"/>
        <path id="Trazado_798728" data-name="Trazado 798728" d="M106.69,93.71a4.072,4.072,0,0,0,3.828,2.7h12.108a4.072,4.072,0,0,0,3.828-2.7Z" transform="translate(-96.86 -85.708)" fill="#efedef"/>
        <path id="Trazado_798729" data-name="Trazado 798729" d="M138.487,15.175H137.3a.249.249,0,0,1-.249-.249v-.733a1.228,1.228,0,0,0-1.228-1.228h-6.775a1.228,1.228,0,0,0-1.228,1.228v.733a.249.249,0,0,1-.249.249H126.38a2.083,2.083,0,0,0-2.083,2.083V19.6a2.083,2.083,0,0,0,2.083,2.083h12.108A2.083,2.083,0,0,0,140.57,19.6V17.258A2.083,2.083,0,0,0,138.487,15.175Z" transform="translate(-112.722 -12.965)" fill="#f9f7f8"/>
        <path id="Trazado_798730" data-name="Trazado 798730" d="M298,180.966a6.433,6.433,0,0,0-8.134-2.354l-1.692.79a.929.929,0,0,1-.785,0l-1.692-.79a6.433,6.433,0,0,0-8.769,8.018l.607.268.414.986-.251.233a6.422,6.422,0,0,0,1.347,1.416l8.146,6.291a.968.968,0,0,0,1.183,0l8.146-6.291a6.415,6.415,0,0,0,1.579-1.772l-.11-.277.342-.874.422-.336A6.423,6.423,0,0,0,298,180.966Z" transform="translate(-249.879 -161.651)" fill="#f37c7c"/>
      </g>
      <g id="Grupo_1064385" data-name="Grupo 1064385" transform="translate(0 5.464)">
        <path id="Trazado_798731" data-name="Trazado 798731" d="M40.167,88.221a.743.743,0,0,0-.743.743v6.712a3.566,3.566,0,0,1-3.562,3.562H5.048a3.566,3.566,0,0,1-3.562-3.562V61.258A3.566,3.566,0,0,1,5.048,57.7h4.3a.743.743,0,1,0,0-1.487h-4.3A5.054,5.054,0,0,0,0,61.258V95.676a5.054,5.054,0,0,0,5.048,5.048H35.862a5.054,5.054,0,0,0,5.048-5.048V88.964A.743.743,0,0,0,40.167,88.221Z" transform="translate(0 -51.181)"/>
        <path id="Trazado_798732" data-name="Trazado 798732" d="M311.743,57.7h4.3a3.566,3.566,0,0,1,3.562,3.562V65.9a.743.743,0,1,0,1.487,0V61.258a5.054,5.054,0,0,0-5.048-5.048h-4.3a.743.743,0,1,0,0,1.487Z" transform="translate(-280.178 -51.181)"/>
        <path id="Trazado_798733" data-name="Trazado 798733" d="M30.743,177.61a.743.743,0,0,0-.743.743v26.692a2.077,2.077,0,0,0,2.075,2.075H62.889a2.077,2.077,0,0,0,2.075-2.075v-6.683a.743.743,0,1,0-1.487,0v6.683a.589.589,0,0,1-.588.589H32.075a.589.589,0,0,1-.588-.589V178.353a.743.743,0,0,0-.743-.743Z" transform="translate(-27.027 -160.549)"/>
        <path id="Trazado_798734" data-name="Trazado 798734" d="M36.562,86.21H32.075A2.077,2.077,0,0,0,30,88.285v4.559a.743.743,0,1,0,1.487,0V88.285a.589.589,0,0,1,.588-.588h4.486a.743.743,0,0,0,0-1.487Z" transform="translate(-27.027 -78.208)"/>
        <path id="Trazado_798735" data-name="Trazado 798735" d="M309.833,87.7h4.486a.589.589,0,0,1,.589.588v4.669a.743.743,0,1,0,1.487,0V88.285a2.077,2.077,0,0,0-2.075-2.075h-4.486a.743.743,0,1,0,0,1.487Z" transform="translate(-278.458 -78.208)"/>
        <path id="Trazado_798736" data-name="Trazado 798736" d="M119.623,15.669h3.456a.743.743,0,0,0,0-1.487h-3.456a1.341,1.341,0,0,1-1.34-1.34V10.5a1.341,1.341,0,0,1,1.34-1.34h1.189a.993.993,0,0,0,.992-.992V7.435a.485.485,0,0,1,.485-.485h6.775a.485.485,0,0,1,.485.485v.733a.993.993,0,0,0,.992.992h1.189a1.341,1.341,0,0,1,1.34,1.34v2.342a1.341,1.341,0,0,1-1.34,1.34h-5.484a.743.743,0,1,0,0,1.487h5.484a2.829,2.829,0,0,0,2.826-2.826V10.5a2.829,2.829,0,0,0-2.826-2.826h-.695V7.435a1.973,1.973,0,0,0-1.971-1.971h-6.775a1.973,1.973,0,0,0-1.971,1.971v.239h-.695A2.829,2.829,0,0,0,116.8,10.5v2.342A2.829,2.829,0,0,0,119.623,15.669Z" transform="translate(-105.222 -5.464)"/>
        <path id="Trazado_798737" data-name="Trazado 798737" d="M181.317,54.351a.743.743,0,0,0-.743-.743h-4.714a.743.743,0,0,0,0,1.487h4.714A.743.743,0,0,0,181.317,54.351Z" transform="translate(-157.761 -48.837)"/>
        <path id="Trazado_798738" data-name="Trazado 798738" d="M291.861,173.858a7.2,7.2,0,0,0-9.073-2.626l-1.693.79a.185.185,0,0,1-.157,0l-1.692-.79a7.176,7.176,0,0,0-7.421,12.182l8.146,6.291a1.712,1.712,0,0,0,2.092,0l3.107-2.4a.743.743,0,0,0-.909-1.177l-3.107,2.4a.225.225,0,0,1-.275,0l-8.146-6.291a5.7,5.7,0,0,1-.865-.828h3.117a.743.743,0,0,0,.716-.545l.837-3.026,2.327,6.453a.743.743,0,0,0,.7.491h0a.743.743,0,0,0,.7-.485l2.208-5.953.667,2.183a.743.743,0,0,0,.711.526h6.594a5.7,5.7,0,0,1-1.143,1.184l-2.512,1.94a.743.743,0,0,0,.909,1.177l2.512-1.94a7.176,7.176,0,0,0,1.652-9.556Zm-7.462,5.709-1.15-3.76a.743.743,0,0,0-1.408-.041l-2.266,6.109-2.43-6.739a.743.743,0,0,0-1.415.054l-1.309,4.734h-3.461a5.689,5.689,0,0,1,7.658-7.344l1.692.79a1.668,1.668,0,0,0,1.414,0l1.692-.79a5.687,5.687,0,0,1,7.792,6.988H284.4Z" transform="translate(-242.371 -154.201)"/>
        <path id="Trazado_798739" data-name="Trazado 798739" d="M76.717,149.981h3.493a1.54,1.54,0,0,0,1.538-1.538v-3.851a1.54,1.54,0,0,0-1.538-1.538H76.717a1.539,1.539,0,0,0-1.538,1.538v3.851A1.539,1.539,0,0,0,76.717,149.981Zm-.051-5.389a.051.051,0,0,1,.051-.051h3.493a.051.051,0,0,1,.051.051v3.851a.051.051,0,0,1-.051.051H76.717a.051.051,0,0,1-.051-.051Z" transform="translate(-67.728 -129.418)"/>
        <path id="Trazado_798740" data-name="Trazado 798740" d="M75.179,247.168a1.539,1.539,0,0,0,1.538,1.538h3.493a1.54,1.54,0,0,0,1.538-1.538v-3.851a1.54,1.54,0,0,0-1.538-1.538H76.717a1.539,1.539,0,0,0-1.538,1.538Zm1.487-3.851a.051.051,0,0,1,.051-.051h3.493a.051.051,0,0,1,.051.051v3.851a.051.051,0,0,1-.051.051H76.717a.051.051,0,0,1-.051-.051Z" transform="translate(-67.728 -218.359)"/>
        <path id="Trazado_798741" data-name="Trazado 798741" d="M75.179,345.892a1.539,1.539,0,0,0,1.538,1.538h3.493a1.54,1.54,0,0,0,1.538-1.538v-3.851a1.539,1.539,0,0,0-1.538-1.538H76.717a1.539,1.539,0,0,0-1.538,1.538Zm1.487-3.851a.051.051,0,0,1,.051-.051h3.493a.051.051,0,0,1,.051.051v3.851a.051.051,0,0,1-.051.051H76.717a.051.051,0,0,1-.051-.051Z" transform="translate(-67.728 -307.299)"/>
        <path id="Trazado_798742" data-name="Trazado 798742" d="M156.959,148.246h8.647a.743.743,0,1,0,0-1.487h-8.647a.743.743,0,0,0,0,1.487Z" transform="translate(-140.734 -132.756)"/>
        <path id="Trazado_798743" data-name="Trazado 798743" d="M156.959,196.256h8.647a.743.743,0,1,0,0-1.487h-8.647a.743.743,0,0,0,0,1.487Z" transform="translate(-140.734 -176.008)"/>
        <path id="Trazado_798744" data-name="Trazado 798744" d="M156.959,246.707h8.647a.743.743,0,1,0,0-1.487h-8.647a.743.743,0,1,0,0,1.487Z" transform="translate(-140.734 -221.459)"/>
        <path id="Trazado_798745" data-name="Trazado 798745" d="M166.8,293.23h-9.836a.743.743,0,0,0,0,1.487H166.8a.743.743,0,1,0,0-1.487Z" transform="translate(-140.734 -264.711)"/>
        <path id="Trazado_798746" data-name="Trazado 798746" d="M170.643,343.682H156.959a.743.743,0,1,0,0,1.487h13.684a.743.743,0,1,0,0-1.487Z" transform="translate(-140.734 -310.163)"/>
        <path id="Trazado_798747" data-name="Trazado 798747" d="M173.777,391.692H156.959a.743.743,0,0,0,0,1.487h16.818a.743.743,0,0,0,0-1.487Z" transform="translate(-140.734 -353.415)"/>
      </g>
    </g>
  </g>
</svg>
