<svg xmlns="http://www.w3.org/2000/svg" width="76.999" height="76.999" viewBox="0 0 76.999 76.999">
  <g id="Grupo_1064398" data-name="Grupo 1064398" transform="translate(-200 -4110.103)">
    <circle id="Elipse_4724" data-name="Elipse 4724" cx="38.5" cy="38.5" r="38.5" transform="translate(200 4110.103)" fill="#fec759"/>
    <g id="pediatrics" transform="translate(216 4125.103)">
      <path id="Trazado_798772" data-name="Trazado 798772" d="M341.519,202.525l-.035-.1h0a10.549,10.549,0,0,0-3.885-4.957l-2.591-1.783" transform="translate(-305.334 -177.589)" fill="none" stroke="#7053e8" stroke-linecap="round" stroke-linejoin="round" stroke-miterlimit="10" stroke-width="1.7"/>
      <path id="Trazado_798773" data-name="Trazado 798773" d="M62.688,22.413l-.143-.528a3.547,3.547,0,0,1,.1-2.176l.239-.635a8.527,8.527,0,0,0-3.118-10h0a8.781,8.781,0,0,0-8.763-.725l-.1.047a10.533,10.533,0,0,0-5.752,11.921" transform="translate(-43.108 -7.501)" fill="none" stroke="#7053e8" stroke-linecap="round" stroke-linejoin="round" stroke-miterlimit="10" stroke-width="1.7"/>
      <path id="Trazado_798774" data-name="Trazado 798774" d="M130.108,199.407l-.664-.29a15.312,15.312,0,0,0-8.029-1.163l-2.3.287" transform="translate(-110.203 -179.528)" fill="none" stroke="#7053e8" stroke-linecap="round" stroke-linejoin="round" stroke-miterlimit="10" stroke-width="1.7"/>
      <path id="Trazado_798775" data-name="Trazado 798775" d="M339.23,134.375l1.806-.394a5.581,5.581,0,0,0,4.348-4.738,5.443,5.443,0,0,0,.046-.711,5.6,5.6,0,0,0-.214-1.531,2.456,2.456,0,0,0-2.365-1.8,2.488,2.488,0,0,0-.473.046,2.455,2.455,0,0,0-1.981,2.289.846.846,0,0,1-1.249.7l-.04-.022a10.871,10.871,0,0,0-4.177-1.276" transform="translate(-305.264 -113.879)" fill="none" stroke="#7053e8" stroke-linecap="round" stroke-linejoin="round" stroke-miterlimit="10" stroke-width="1.7"/>
      <path id="Trazado_798776" data-name="Trazado 798776" d="M256.45,147.385a13.7,13.7,0,0,1,4.189-1.915" transform="translate(-234.332 -132.2)" fill="none" stroke="#7053e8" stroke-linecap="round" stroke-linejoin="round" stroke-miterlimit="10" stroke-width="1.7"/>
      <path id="Trazado_798777" data-name="Trazado 798777" d="M218.353,172.663a7.975,7.975,0,0,0,1.494-2.423h0a6.943,6.943,0,0,0-1.4-7.279l-.555-.593a2.566,2.566,0,0,0-3.529-.205h0a2.566,2.566,0,0,0-.86,2.462l.217,1.071" transform="translate(-195.472 -146.739)" fill="none" stroke="#7053e8" stroke-linecap="round" stroke-linejoin="round" stroke-miterlimit="10" stroke-width="1.7"/>
      <path id="Trazado_798778" data-name="Trazado 798778" d="M110.363,106.466h0a1.692,1.692,0,0,0-2.384,1.169l-.035.159a2.705,2.705,0,0,0,1.478,3.013h0" transform="translate(-100.055 -96.797)" fill="none" stroke="#7053e8" stroke-linecap="round" stroke-linejoin="round" stroke-miterlimit="10" stroke-width="1.7"/>
      <path id="Trazado_798779" data-name="Trazado 798779" d="M177.6,139.924h.537a2.671,2.671,0,0,1,1.3.34h0" transform="translate(-163.067 -127.187)" fill="none" stroke="#7053e8" stroke-linecap="round" stroke-linejoin="round" stroke-miterlimit="10" stroke-width="1.7"/>
      <path id="Trazado_798780" data-name="Trazado 798780" d="M443.35,154.075V143.644a2.865,2.865,0,0,1,.024-.376l0-.025a2.953,2.953,0,0,1,2.927-2.553,1.1,1.1,0,0,1,1.1,1.1v14.171a3.261,3.261,0,0,1-.724,2.049l-2.328,2.885" transform="translate(-403.255 -127.88)" fill="none" stroke="#7053e8" stroke-linecap="round" stroke-linejoin="round" stroke-miterlimit="10" stroke-width="1.7"/>
      <path id="Trazado_798781" data-name="Trazado 798781" d="M381.043,390.158l-.487-3.059a5.87,5.87,0,0,1,1.229-4.608l3.633-4.5" transform="translate(-346.435 -342.355)" fill="none" stroke="#7053e8" stroke-linecap="round" stroke-linejoin="round" stroke-miterlimit="10" stroke-width="1.7"/>
      <path id="Trazado_798782" data-name="Trazado 798782" d="M341.044,264.587l6.224-6.172a2.122,2.122,0,0,1,2.985,0h0a2.122,2.122,0,0,1,.072,2.946l-5.975,6.5" transform="translate(-310.789 -233.726)" fill="none" stroke="#7053e8" stroke-linecap="round" stroke-linejoin="round" stroke-miterlimit="10" stroke-width="1.7"/>
      <line id="Línea_1630" data-name="Línea 1630" y1="4.56" transform="translate(25.92 43.243)" fill="none" stroke="#7053e8" stroke-linecap="round" stroke-linejoin="round" stroke-miterlimit="10" stroke-width="1.7"/>
      <path id="Trazado_798783" data-name="Trazado 798783" d="M26.49,148.375V141.79a1.1,1.1,0,0,1,1.1-1.1,2.952,2.952,0,0,1,2.954,2.954v10.431" transform="translate(-26.49 -127.88)" fill="none" stroke="#7053e8" stroke-linecap="round" stroke-linejoin="round" stroke-miterlimit="10" stroke-width="1.7"/>
      <path id="Trazado_798784" data-name="Trazado 798784" d="M26.49,255.59v4.22a3.261,3.261,0,0,0,.724,2.049l8.075,10.006a5.87,5.87,0,0,1,1.229,4.608l-.487,3.059" transform="translate(-26.49 -231.728)" fill="none" stroke="#7053e8" stroke-linecap="round" stroke-linejoin="round" stroke-miterlimit="10" stroke-width="1.7"/>
      <path id="Trazado_798785" data-name="Trazado 798785" d="M78.513,264.614l-6.251-6.2a2.122,2.122,0,0,0-2.985,0h0a2.122,2.122,0,0,0-.072,2.946l5.975,6.5" transform="translate(-64.592 -233.727)" fill="none" stroke="#7053e8" stroke-linecap="round" stroke-linejoin="round" stroke-miterlimit="10" stroke-width="1.7"/>
      <line id="Línea_1631" data-name="Línea 1631" y1="4.56" transform="translate(18.23 43.243)" fill="none" stroke="#7053e8" stroke-linecap="round" stroke-linejoin="round" stroke-miterlimit="10" stroke-width="1.7"/>
      <path id="Trazado_798786" data-name="Trazado 798786" d="M164.875,292.242a8.974,8.974,0,1,0-1.832-2.838" transform="translate(-149.319 -251.106)" fill="none" stroke="#7053e8" stroke-linecap="round" stroke-linejoin="round" stroke-miterlimit="10" stroke-width="1.7"/>
      <path id="Trazado_798787" data-name="Trazado 798787" d="M205.613,323.449h3.2v-3.2h3.293v3.2h3.2v3.293h-3.2v3.2h-3.293v-3.2h-3.2Z" transform="translate(-188.385 -290.168)" fill="none" stroke="#7053e8" stroke-linecap="round" stroke-linejoin="round" stroke-miterlimit="10" stroke-width="1.7"/>
    </g>
  </g>
</svg>
