<svg xmlns="http://www.w3.org/2000/svg" width="76.999" height="76.999" viewBox="0 0 76.999 76.999">
  <g id="Grupo_1064399" data-name="Grupo 1064399" transform="translate(-515 -4110)">
    <circle id="Elipse_4724" data-name="Elipse 4724" cx="38.5" cy="38.5" r="38.5" transform="translate(515 4110)" fill="#fec759"/>
    <g id="asistance" transform="translate(532.465 4126.8)">
      <path id="Trazado_798788" data-name="Trazado 798788" d="M38.9,20.554V5.139A5.145,5.145,0,0,0,33.766,0H7.341A5.145,5.145,0,0,0,2.2,5.139V20.554a2.2,2.2,0,1,0,0,4.4H2.98A6.613,6.613,0,0,0,9.543,30.83h7.34v5.138H8.809A2.936,2.936,0,0,0,5.873,38.9v.734a1.468,1.468,0,0,0,1.468,1.468h.135a2.2,2.2,0,1,0,4.134,0H29.5a2.2,2.2,0,1,0,4.134,0h.135a1.468,1.468,0,0,0,1.468-1.468V38.9A2.936,2.936,0,0,0,32.3,35.968H24.224V30.83h7.34a6.613,6.613,0,0,0,6.563-5.872H38.9a2.2,2.2,0,1,0,0-4.4ZM3.671,5.139a3.674,3.674,0,0,1,3.67-3.67H33.766a3.674,3.674,0,0,1,3.67,3.67V20.554h-2.6a4.4,4.4,0,1,0-6.548,0h-2.6V9.543a2.2,2.2,0,1,0-4.4,0v2.936H15.01l.336-1.569a2.957,2.957,0,0,0-.587-2.5,2.854,2.854,0,0,0-2.23-1.074H8.121a2.236,2.236,0,0,0-2.24,2.011A2.186,2.186,0,0,0,6.5,11.084a2.1,2.1,0,0,0,1.542.661h2.148L9.62,15.32A2.965,2.965,0,0,0,9.6,16.588a4.443,4.443,0,0,0-.061.661,4.732,4.732,0,0,0,1.333,3.305h-7.2ZM28.628,17.617a2.936,2.936,0,1,1,2.936,2.936A2.936,2.936,0,0,1,28.628,17.617Zm-6.606,2.936h-3.67V13.947h2.936v.734a.734.734,0,0,0,1.468,0V9.543a.734.734,0,1,1,1.468,0v11.01Zm-7.707,0a3.255,3.255,0,0,1-3.124-2.271,2.378,2.378,0,0,0,.555.069A2.5,2.5,0,0,0,14.167,16.4l.527-2.449h2.189v6.606Zm-.4-9.953-.529,2.463c0,.019-.009.037-.012.056l-.636,2.966a1.022,1.022,0,0,1-1,.8.632.632,0,0,1-.53-.228,1.277,1.277,0,0,1-.139-1.056l.61-3.853h.074a.734.734,0,0,0,0-1.468H8.04a.667.667,0,0,1-.493-.22.725.725,0,0,1-.2-.587.769.769,0,0,1,.777-.661h4.408a1.4,1.4,0,0,1,1.088.527,1.494,1.494,0,0,1,.294,1.264ZM10.277,41.84a.734.734,0,1,1-.734-.734A.734.734,0,0,1,10.277,41.84Zm22.021,0a.734.734,0,1,1-.734-.734A.734.734,0,0,1,32.3,41.84ZM33.766,38.9v.734H7.341V38.9a1.468,1.468,0,0,1,1.468-1.468H32.3A1.468,1.468,0,0,1,33.766,38.9Zm-11.01-2.936h-4.4V30.83h4.4Zm8.808-6.606H9.543a5.146,5.146,0,0,1-5.086-4.4H36.65a5.146,5.146,0,0,1-5.086,4.4ZM38.9,23.49H2.2a.734.734,0,1,1,0-1.468H38.9a.734.734,0,1,1,0,1.468Zm0,0" transform="translate(0 -0.001)" fill="#7053e8"/>
      <path id="Trazado_798789" data-name="Trazado 798789" d="M333.535,35.6h4.4a.734.734,0,0,1,.734.734V40a.734.734,0,1,0,1.468,0v-3.67a2.2,2.2,0,0,0-2.2-2.2h-4.4a.734.734,0,0,0,0,1.468Zm0,0" transform="translate(-304.173 -31.197)" fill="#7053e8"/>
      <path id="Trazado_798790" data-name="Trazado 798790" d="M290.867,35.6h.734a.734.734,0,1,0,0-1.468h-.734a.734.734,0,1,0,0,1.468Zm0,0" transform="translate(-265.176 -31.197)" fill="#7053e8"/>
    </g>
  </g>
</svg>
