<svg xmlns="http://www.w3.org/2000/svg" width="85" height="85" viewBox="0 0 85 85">
  <g id="Grupo_1064442" data-name="Grupo 1064442" transform="translate(-180 -446)">
    <rect id="Rectángulo_373435" data-name="Rectángulo 373435" width="85" height="85" rx="5" transform="translate(180 446)" fill="#ffa69d"/>
    <g id="children_1_" data-name="children(1)" transform="translate(191.098 399.378)">
      <g id="Grupo_1064451" data-name="Grupo 1064451" transform="translate(0.92 65.966)">
        <g id="Grupo_1064446" data-name="Grupo 1064446" transform="translate(0 0)">
          <path id="Trazado_798824" data-name="Trazado 798824" d="M36.636,67.224a24.316,24.316,0,0,0-3.423.158,9.851,9.851,0,0,0-6.6,3.278,3.446,3.446,0,0,1-3.625,1.02l-1.2-.384s-.613,12.846,3.093,14.462h23.7V79.17A11.947,11.947,0,0,0,36.636,67.224Z" transform="translate(-20.004 -67.222)" fill="#d77f4a"/>
          <path id="Trazado_798825" data-name="Trazado 798825" d="M31.668,335.278v0H28.041a5,5,0,0,0-5,5v8.306H49.72V340.27a5,5,0,0,0-5-5H41.1v0h-9.43Z" transform="translate(-21.139 -302.394)" fill="#3c87d0"/>
          <path id="Trazado_798826" data-name="Trazado 798826" d="M93.192,304.593v3.767a4.715,4.715,0,1,0,9.43,0v-3.767Z" transform="translate(-82.681 -275.476)" fill="#ffb09e"/>
          <path id="Trazado_798827" data-name="Trazado 798827" d="M93.192,308.36a4.762,4.762,0,0,0,.045.642,11.5,11.5,0,0,0,9.338.022,4.759,4.759,0,0,0,.047-.664v-3.767h-9.43Z" transform="translate(-82.681 -275.476)" fill="#ffa78f"/>
          <path id="Trazado_798828" data-name="Trazado 798828" d="M17.189,201.521H11.36a3.86,3.86,0,1,1,0-7.72h5.829Z" transform="translate(-7.5 -178.274)" fill="#ffb09e"/>
          <path id="Trazado_798829" data-name="Trazado 798829" d="M177.056,193.8h5.829a3.86,3.86,0,0,1,0,7.72h-5.829Z" transform="translate(-156.258 -178.274)" fill="#ffa78f"/>
          <path id="Trazado_798830" data-name="Trazado 798830" d="M39.279,127.664v4.254a11.352,11.352,0,0,0,22.7,0v-4.254a11.352,11.352,0,0,0-22.7,0Z" transform="translate(-35.381 -110.405)" fill="#ffcebf"/>
          <g id="Grupo_1064443" data-name="Grupo 1064443" transform="translate(5.561 23.134)">
            <path id="Trazado_798831" data-name="Trazado 798831" d="M55.877,257.96H53.905a1.069,1.069,0,1,1,0-2.139h1.972a1.069,1.069,0,0,1,0,2.139Z" transform="translate(-52.836 -255.821)" fill="#fe8f83"/>
          </g>
          <path id="Trazado_798832" data-name="Trazado 798832" d="M125.793,116.506a11.552,11.552,0,0,0-1.279.105,11.267,11.267,0,0,1,9.739,11.109v4.254a11.267,11.267,0,0,1-9.739,11.109,11.494,11.494,0,0,0,1.279.105,11.281,11.281,0,0,0,10.968-11.215V127.72A11.281,11.281,0,0,0,125.793,116.506Z" transform="translate(-110.161 -110.461)" fill="#ffb09e"/>
          <path id="Trazado_798833" data-name="Trazado 798833" d="M73.1,67.336H71.1c-.326.018-.774.058-1.891.146a9.85,9.85,0,0,0-6.429,3.093v4.987a7.287,7.287,0,0,0,7.287,7.287H84.576V79.27A11.944,11.944,0,0,0,73.1,67.336Z" transform="translate(-55.996 -67.322)" fill="#d77f4a"/>
          <path id="Trazado_798834" data-name="Trazado 798834" d="M122.511,67.336h-2.006c-.275.015-.638.046-1.412.108a11.946,11.946,0,0,1,10.27,11.826v3.579h4.623V79.27A11.944,11.944,0,0,0,122.511,67.336Z" transform="translate(-105.405 -67.322)" fill="#c86d36"/>
          <g id="Grupo_1064444" data-name="Grupo 1064444" transform="translate(19.788 32.88)">
            <path id="Trazado_798835" data-name="Trazado 798835" d="M172.614,335.275h-3.626v0h-.171a4.994,4.994,0,0,1,4.851,4.992v8.306h3.942V340.27A5,5,0,0,0,172.614,335.275Z" transform="translate(-168.816 -335.275)" fill="#0078c8"/>
          </g>
          <g id="Grupo_1064445" data-name="Grupo 1064445" transform="translate(20.781 23.134)">
            <path id="Trazado_798836" data-name="Trazado 798836" d="M179.955,257.96h-1.972a1.069,1.069,0,1,1,0-2.139h1.972a1.069,1.069,0,0,1,0,2.139Z" transform="translate(-176.914 -255.821)" fill="#fe8f83"/>
          </g>
        </g>
        <g id="Grupo_1064450" data-name="Grupo 1064450" transform="translate(26.836 3.206)">
          <path id="Trazado_798837" data-name="Trazado 798837" d="M270.741,341.071h-.49a4.821,4.821,0,0,0-4.821,4.821v7.9h24.586v-7.9a4.821,4.821,0,0,0-4.821-4.821Z" transform="translate(-260.628 -310.686)" fill="#f07281"/>
          <path id="Trazado_798838" data-name="Trazado 798838" d="M398.324,341.071h-3.948a4.821,4.821,0,0,1,4.821,4.821v7.9h3.948v-7.9A4.821,4.821,0,0,0,398.324,341.071Z" transform="translate(-373.757 -310.686)" fill="#eb5569"/>
          <path id="Trazado_798839" data-name="Trazado 798839" d="M335.484,280.155a4.2,4.2,0,0,1-4.2-4.2V265.851h8.4v10.105A4.2,4.2,0,0,1,335.484,280.155Z" transform="translate(-318.405 -244.692)" fill="#ffb09e"/>
          <path id="Trazado_798840" data-name="Trazado 798840" d="M331.286,275.359a10.229,10.229,0,0,0,8.4,0v-9.5h-8.4v9.507Z" transform="translate(-318.406 -244.693)" fill="#ffa78f"/>
          <path id="Trazado_798841" data-name="Trazado 798841" d="M443.69,266.541h2.1v-5.778a6.11,6.11,0,0,0-6.11-6.11h-2.1v5.778A6.11,6.11,0,0,0,443.69,266.541Z" transform="translate(-411.661 -234.868)" fill="#5a5a5a"/>
          <path id="Trazado_798842" data-name="Trazado 798842" d="M439.678,254.653h-2.1v.176a6.112,6.112,0,0,1,4.655,5.934v5.6a6.122,6.122,0,0,0,1.455.176h2.1v-5.778a6.11,6.11,0,0,0-6.11-6.11Z" transform="translate(-411.661 -234.868)" fill="#444"/>
          <path id="Trazado_798843" data-name="Trazado 798843" d="M228.379,266.541h-2.1v-5.778a6.11,6.11,0,0,1,6.11-6.11h2.1v5.778a6.11,6.11,0,0,1-6.11,6.11Z" transform="translate(-226.28 -234.868)" fill="#5a5a5a"/>
          <path id="Trazado_798844" data-name="Trazado 798844" d="M263.362,216.637h-5.2a3.44,3.44,0,1,1,0-6.881h5.2Z" transform="translate(-251.229 -195.478)" fill="#ffb09e"/>
          <path id="Trazado_798845" data-name="Trazado 798845" d="M405.588,209.756h5.2a3.44,3.44,0,0,1,0,6.881h-5.2Z" transform="translate(-383.593 -195.478)" fill="#ffa78f"/>
          <path id="Trazado_798846" data-name="Trazado 798846" d="M293.114,140.93a10.057,10.057,0,0,0-10.119,9.994v3.783a10.12,10.12,0,0,0,20.238,0v-3.783A10.057,10.057,0,0,0,293.114,140.93Z" transform="translate(-276.038 -135.095)" fill="#ffcebf"/>
          <path id="Trazado_798847" data-name="Trazado 798847" d="M354.284,140.93a10.321,10.321,0,0,0-1.567.12,10.035,10.035,0,0,1,8.552,9.875v3.783a10.035,10.035,0,0,1-8.552,9.875,10.322,10.322,0,0,0,1.567.12,10.057,10.057,0,0,0,10.119-9.994v-3.783A10.057,10.057,0,0,0,354.284,140.93Z" transform="translate(-337.208 -135.095)" fill="#ffb09e"/>
          <g id="Grupo_1064447" data-name="Grupo 1064447" transform="translate(8.436 21.239)">
            <path id="Trazado_798848" data-name="Trazado 798848" d="M298.027,268.593H296.1a1.044,1.044,0,1,1,0-2.089h1.926a1.044,1.044,0,1,1,0,2.089Z" transform="translate(-295.056 -266.504)" fill="#fe8f83"/>
          </g>
          <g id="Grupo_1064448" data-name="Grupo 1064448" transform="translate(21.74 21.239)">
            <path id="Trazado_798849" data-name="Trazado 798849" d="M406.48,268.593h-1.926a1.044,1.044,0,0,1,0-2.089h1.926a1.044,1.044,0,0,1,0,2.089Z" transform="translate(-403.509 -266.504)" fill="#fe8f83"/>
          </g>
          <path id="Trazado_798850" data-name="Trazado 798850" d="M275.989,93.358a1.073,1.073,0,0,1-2.146,0,11.577,11.577,0,0,0-11.577,11.577v2.7h6.755a5.894,5.894,0,0,0,5.894-5.894,5.894,5.894,0,0,0,5.894,5.894h6.755v-2.7A11.577,11.577,0,0,0,275.989,93.358Z" transform="translate(-257.853 -93.358)" fill="#5a5a5a"/>
          <g id="Grupo_1064449" data-name="Grupo 1064449" transform="translate(17.357 0)">
            <path id="Trazado_798851" data-name="Trazado 798851" d="M368.563,93.358a1.068,1.068,0,0,0-.779.337,11.58,11.58,0,0,1,8.8,11.24v2.7h3.554v-2.7A11.577,11.577,0,0,0,368.563,93.358Z" transform="translate(-367.784 -93.358)" fill="#444"/>
          </g>
        </g>
      </g>
      <g id="Grupo_1064452" data-name="Grupo 1064452" transform="translate(0 65.791)">
        <path id="Trazado_798852" data-name="Trazado 798852" d="M347.262,271.783a3.022,3.022,0,0,0,3.019-3.019.92.92,0,1,0-1.84,0,1.179,1.179,0,1,1-2.357,0,.92.92,0,0,0-1.84,0A3.022,3.022,0,0,0,347.262,271.783Z" transform="translate(-302.017 -243.059)"/>
        <path id="Trazado_798853" data-name="Trazado 798853" d="M401.595,231.317a.92.92,0,0,0,.92-.92v-.961a.92.92,0,0,0-.114-1.833h-.806a.92.92,0,0,0-.92.92V230.4A.92.92,0,0,0,401.595,231.317Z" transform="translate(-351.527 -207.755)"/>
        <path id="Trazado_798854" data-name="Trazado 798854" d="M316.264,229.437v.961a.92.92,0,0,0,1.84,0v-1.874a.92.92,0,0,0-.92-.92h-.806a.92.92,0,0,0-.114,1.833Z" transform="translate(-276.763 -207.755)"/>
        <path id="Trazado_798855" data-name="Trazado 798855" d="M58.994,88.6a4.264,4.264,0,0,0-.663-4.646.914.914,0,0,0,.168-.529c0-2.717.136-4.329-.682-6.666a.92.92,0,0,0-1.737.607,13.561,13.561,0,0,1,.579,5.138H50.992a4.833,4.833,0,0,1-4.828-4.827.92.92,0,0,0-1.84,0A4.833,4.833,0,0,1,39.5,82.5H33.83V80.789A10.38,10.38,0,0,1,44.2,70.421a.126.126,0,0,1,.126.126.92.92,0,0,0,1.84,0,.126.126,0,0,1,.126-.126,10.372,10.372,0,0,1,7.818,3.558A.92.92,0,1,0,55.5,72.769a12.211,12.211,0,0,0-9.205-4.189,1.954,1.954,0,0,0-1.046.3,1.954,1.954,0,0,0-1.046-.3A12.223,12.223,0,0,0,31.99,80.79v2.634a.916.916,0,0,0,.168.529,4.28,4.28,0,0,0-.744,1.187A4.651,4.651,0,0,0,29.6,81.812v-3.5A12.529,12.529,0,0,0,17.083,65.793a24.365,24.365,0,0,0-3.4.156,10.45,10.45,0,0,0-7.965,4.726l-2.77-.886a.92.92,0,0,0-1.2.832A43.3,43.3,0,0,0,2.584,81.35a4.67,4.67,0,0,0,1.478,8.808A11.947,11.947,0,0,0,9.572,97.7H7.636a5.775,5.775,0,0,0-5.768,5.768v8.062a.92.92,0,0,0,.92.92H4.316a.92.92,0,1,0,0-1.84H3.708v-7.142a3.933,3.933,0,0,1,3.929-3.929h2.676a5.5,5.5,0,0,0,10.84,0h2.677a3.933,3.933,0,0,1,3.929,3.929v7.142H8.609a.92.92,0,1,0,0,1.84H28.678a.92.92,0,0,0,.92-.92v-8.062a5.736,5.736,0,0,0-.424-2.166h1.478a6.839,6.839,0,0,0,2.615-.518,5.585,5.585,0,0,0-.9,3.043v7.7a.92.92,0,0,0,.92.92H57.263a.92.92,0,0,0,.92-.92v-7.7a5.585,5.585,0,0,0-.878-3.01,6.839,6.839,0,0,0,2.532.485h2.046a.92.92,0,0,0,.92-.92V94.752A6.923,6.923,0,0,0,58.994,88.6ZM39.5,84.343a6.67,6.67,0,0,0,5.748-3.291,6.671,6.671,0,0,0,5.748,3.291h4.135a2.435,2.435,0,1,1-.1,4.869.917.917,0,0,0-.946.767,8.97,8.97,0,0,1-16.617,2.978.922.922,0,0,0-.052-.111,8.9,8.9,0,0,1-.848-2.118c0-.015-.007-.03-.011-.044-.052-.208-.1-.428-.148-.7a.92.92,0,0,0-.946-.767,2.435,2.435,0,1,1-.1-4.869l.1,0a.913.913,0,0,0,.116,0H39.5Zm5.763,18.818a3.178,3.178,0,0,1-3.175-3.175V98.821a10.84,10.84,0,0,0,6.349-.009v1.175a3.179,3.179,0,0,1-3.011,3.17Q45.342,103.161,45.26,103.161ZM37.988,98.21h0a5.6,5.6,0,0,0-1.8.3,6.848,6.848,0,0,0,1.189-2.625,10.679,10.679,0,0,0,2.872,2.18v.146Zm12.286-.161a10.713,10.713,0,0,0,2.842-2.165,6.846,6.846,0,0,0,1.17,2.6c-1.05-.339-1.6-.271-4.011-.271v-.161ZM3.559,71.915l2.295.733a.92.92,0,0,0,1.085-.431,8.618,8.618,0,0,1,6.89-4.434,23.111,23.111,0,0,1,3.253-.15A10.687,10.687,0,0,1,27.757,78.307v2.658c-.8-.173-.55-.1-13.167-.1A6.158,6.158,0,0,1,8.554,75.9a.921.921,0,0,0-1.575-.452A11.977,11.977,0,0,0,4.22,80.288a40.687,40.687,0,0,1-.661-8.373ZM5.73,89.122a.92.92,0,0,0-.907-.768H4.786c-.038,0-.077,0-.116,0a2.83,2.83,0,0,1-.1-5.658h.011c.068,0,.137,0,.2,0H4.8a.919.919,0,0,0,.934-.767,10.032,10.032,0,0,1,1.283-3.494q.137-.229.287-.452a8.011,8.011,0,0,0,7.29,4.714h12.3a2.861,2.861,0,0,1,1.313.394l.022.011a2.831,2.831,0,0,1-1.468,5.252c-.039,0-.077,0-.116,0a.922.922,0,0,0-.944.768,10.126,10.126,0,0,1-19.97,0Zm9.817,13.157A3.663,3.663,0,0,1,12.1,99c0-.013,0-.027,0-.04q-.006-.06-.009-.12a12.041,12.041,0,0,0,7.3-.011,3.662,3.662,0,0,1-3.835,3.448ZM23.829,97.7h-1.97a11.947,11.947,0,0,0,5.51-7.546,4.683,4.683,0,0,0,3.742-2.932,4.24,4.24,0,0,0,.384,1.373,6.923,6.923,0,0,0-3.809,6.153v4.435A5.745,5.745,0,0,0,23.829,97.7Zm5.7,1.762V94.752a5.07,5.07,0,0,1,3.131-4.663,4.313,4.313,0,0,0,2.083.921,10.885,10.885,0,0,0,.951,2.518v.9a5.044,5.044,0,0,1-5.038,5.038H29.525Zm26.817,11.148H34.208v-6.783a3.785,3.785,0,0,1,3.781-3.781h2.257a5.014,5.014,0,0,0,10.028,0h2.288a3.785,3.785,0,0,1,3.781,3.781v6.783Zm4.621-11.148H59.837A5.044,5.044,0,0,1,54.8,94.428v-.9a10.88,10.88,0,0,0,.951-2.518,4.272,4.272,0,0,0,1.994-.853c.029-.023.06-.044.088-.067a5.07,5.07,0,0,1,3.131,4.663Z" transform="translate(0 -65.791)"/>
        <path id="Trazado_798856" data-name="Trazado 798856" d="M104.762,266.479a3.269,3.269,0,0,0,3.266-3.266.92.92,0,1,0-1.84,0,1.426,1.426,0,0,1-2.852,0,.92.92,0,1,0-1.84,0A3.27,3.27,0,0,0,104.762,266.479Z" transform="translate(-89.046 -238.189)"/>
        <path id="Trazado_798857" data-name="Trazado 798857" d="M77.588,217.564a.92.92,0,0,0-.92.92v2.034a.92.92,0,0,0,1.84,0v-2.034A.92.92,0,0,0,77.588,217.564Z" transform="translate(-67.264 -198.947)"/>
        <path id="Trazado_798858" data-name="Trazado 798858" d="M165.492,221.438a.92.92,0,0,0,.92-.92v-2.034a.92.92,0,0,0-1.84,0v2.034A.92.92,0,0,0,165.492,221.438Z" transform="translate(-144.385 -198.947)"/>
      </g>
    </g>
  </g>
</svg>
