<svg xmlns="http://www.w3.org/2000/svg" width="190" height="105.677" viewBox="0 0 190 105.677">
  <g id="Grupo_1064454" data-name="Grupo 1064454" transform="translate(-180 -6373.323)">
    <rect id="Rectángulo_373693" data-name="Rectángulo 373693" width="190" height="86" rx="10" transform="translate(180 6393)" fill="#ffebc5"/>
    <g id="boy_1_" data-name="boy(1)" transform="translate(186.059 6367.324)">
      <g id="Grupo_1064546" data-name="Grupo 1064546" transform="translate(52.493 7.5)">
        <path id="Trazado_798946" data-name="Trazado 798946" d="M249.9,257.14v7.839a9.419,9.419,0,0,1-9.419,9.419H213.948a66.184,66.184,0,0,1-4.986-17.258Z" transform="translate(-180.939 -212.429)" fill="#73da8c"/>
        <path id="Trazado_798947" data-name="Trazado 798947" d="M103.521,274.4H83.863a9.419,9.419,0,0,1-9.421-9.419V257.14H98.535A66.184,66.184,0,0,0,103.521,274.4Z" transform="translate(-70.511 -212.429)" fill="#29ce69"/>
        <circle id="Elipse_8318" data-name="Elipse 8318" cx="7.117" cy="7.117" r="7.117" transform="translate(58.661 32.272)" fill="#ffcbbe"/>
        <circle id="Elipse_8319" data-name="Elipse 8319" cx="7.117" cy="7.117" r="7.117" transform="translate(0 32.272)" fill="#ffcbbe"/>
        <path id="Trazado_798948" data-name="Trazado 798948" d="M281.2,419.529h-1.135c-11.523-4.21-17.3-11.105-17.774-18.539h14.556a24.254,24.254,0,0,1,8.162,13.927A3.878,3.878,0,0,1,281.2,419.529Z" transform="translate(-224.717 -330.516)" fill="#f8ea69"/>
        <path id="Trazado_798949" data-name="Trazado 798949" d="M165.282,419.529H126.346a3.879,3.879,0,0,1-3.809-4.612A24.266,24.266,0,0,1,130.7,400.99h16.809A66.333,66.333,0,0,0,165.282,419.529Z" transform="translate(-109.933 -330.516)" fill="#f6ca56"/>
        <path id="Trazado_798950" data-name="Trazado 798950" d="M267.157,385.138a16.132,16.132,0,0,1-6.888,9.808c-6.206-2.857-10.333-8.284-9.722-13.266h11.221A24.279,24.279,0,0,1,267.157,385.138Z" transform="translate(-215.027 -314.664)" fill="#73da8c"/>
        <path id="Trazado_798951" data-name="Trazado 798951" d="M192.918,394.946a16.111,16.111,0,0,1-24.476-9.808,24.238,24.238,0,0,1,5.389-3.458H183.2A64.83,64.83,0,0,0,192.918,394.946Z" transform="translate(-147.676 -314.664)" fill="#29ce69"/>
        <path id="Trazado_798952" data-name="Trazado 798952" d="M261.167,381.68a10.193,10.193,0,0,1-5.319,8.728c-4.444-2.095-6.608-5.291-5.8-8.728Z" transform="translate(-214.531 -314.664)" fill="#ffcbbe"/>
        <path id="Trazado_798953" data-name="Trazado 798953" d="M214.169,390.408a10.194,10.194,0,0,1-15.057-8.728h9.261A64.52,64.52,0,0,0,214.169,390.408Z" transform="translate(-172.853 -314.664)" fill="#ffb39d"/>
        <path id="Trazado_798954" data-name="Trazado 798954" d="M229,92.517a29.458,29.458,0,0,1-29.322,29.457c-16.3-16.483-15.3-43.088-4.494-58.591A29.469,29.469,0,0,1,229,92.517Z" transform="translate(-163.093 -53.109)" fill="#ffddcf"/>
        <path id="Trazado_798955" data-name="Trazado 798955" d="M121.123,123.451h-.134a29.458,29.458,0,0,1-4.359-58.591A66.441,66.441,0,0,0,121.123,123.451Z" transform="translate(-84.54 -54.587)" fill="#ffcbbe"/>
        <path id="Trazado_798956" data-name="Trazado 798956" d="M74.137,138.765a24.889,24.889,0,0,0-5.429,10.242,18.654,18.654,0,0,1-5.626.74,34.939,34.939,0,0,1,.448-5.581S67.581,137.95,74.137,138.765Z" transform="translate(-61.186 -115.195)" fill="#5972a5"/>
        <path id="Trazado_798957" data-name="Trazado 798957" d="M222.02,112.027a64.792,64.792,0,0,1-20.086,8.7,9.8,9.8,0,0,1,1.834-11.054C210.008,108.975,216.957,109.584,222.02,112.027Z" transform="translate(-174.413 -91.152)" fill="#687daa"/>
        <path id="Trazado_798958" data-name="Trazado 798958" d="M154.532,110.92a65.506,65.506,0,0,0-1.834,11.054,92.4,92.4,0,0,1-10.83,2.165.715.715,0,0,1-.813-.668,25.386,25.386,0,0,1,1.372-8.747C145.2,112.82,149.648,111.468,154.532,110.92Z" transform="translate(-125.178 -92.397)" fill="#5972a5"/>
        <path id="Trazado_798959" data-name="Trazado 798959" d="M398.377,150.329a21.44,21.44,0,0,1-5.625-.749,24.562,24.562,0,0,0-5.4-10.18,12.677,12.677,0,0,1,10.578,5.355A34.648,34.648,0,0,1,398.377,150.329Z" transform="translate(-327.379 -115.777)" fill="#687daa"/>
        <ellipse id="Elipse_8320" data-name="Elipse 8320" cx="5.257" cy="4.187" rx="5.257" ry="4.187" transform="translate(16.942 41.628)" fill="#ffa1ac"/>
        <ellipse id="Elipse_8321" data-name="Elipse 8321" cx="5.257" cy="4.187" rx="5.257" ry="4.187" transform="translate(45.439 41.628)" fill="#ffa1ac"/>
        <path id="Trazado_798960" data-name="Trazado 798960" d="M253.551,36.561c-8.964-6.75-22.45-8.722-34.1-8.815-2.524.038-5.056.145-7.569.347-1.824-8.639,2.744-17.654,8.686-20.493A34.562,34.562,0,0,1,253.551,36.561Z" transform="translate(-183 -7.582)" fill="#73da8c"/>
        <path id="Trazado_798961" data-name="Trazado 798961" d="M100.8,7.518a59.848,59.848,0,0,0-8.686,20.493c-9.718.788-19.139,3.032-26.536,8.461A34.562,34.562,0,0,1,99.686,7.5Q100.248,7.5,100.8,7.518Z" transform="translate(-63.238 -7.5)" fill="#29ce69"/>
        <path id="Trazado_798962" data-name="Trazado 798962" d="M239.308,49.772a.718.718,0,0,1-.787.842,86.822,86.822,0,0,0-10.325-.606c-2,0-3.955.066-5.867.193-.761-3.075.722-6.842,3.365-8.14.2-.013.394-.02.595-.02H230.1A9.346,9.346,0,0,1,239.308,49.772Z" transform="translate(-191.748 -35.855)" fill="#687daa"/>
        <path id="Trazado_798963" data-name="Trazado 798963" d="M202.51,42.15a59.865,59.865,0,0,0-3.365,8.14c-1.515.1-3,.239-4.457.413a.715.715,0,0,1-.79-.828A9.346,9.346,0,0,1,202.51,42.15Z" transform="translate(-168.564 -35.944)" fill="#5972a5"/>
      </g>
      <g id="_x32_6_Boy" transform="translate(52.493 7.5)">
        <path id="Trazado_798964" data-name="Trazado 798964" d="M123.513,395.5a24.116,24.116,0,0,0-.973,3.559,3.879,3.879,0,0,0,3.808,4.613h40.072a3.879,3.879,0,0,0,3.808-4.613,24.32,24.32,0,0,0-13.552-17.386" transform="translate(-109.936 -314.658)" fill="none" stroke="#000" stroke-linecap="round" stroke-linejoin="round" stroke-miterlimit="10" stroke-width="3"/>
        <path id="Trazado_798965" data-name="Trazado 798965" d="M153.973,381.673a24.384,24.384,0,0,0-9.721,8.247" transform="translate(-127.818 -314.658)" fill="none" stroke="#000" stroke-linecap="round" stroke-linejoin="round" stroke-miterlimit="10" stroke-width="3"/>
        <path id="Trazado_798966" data-name="Trazado 798966" d="M168.441,400.989a16.111,16.111,0,0,0,31.364,0" transform="translate(-147.675 -330.515)" fill="none" stroke="#000" stroke-linecap="round" stroke-linejoin="round" stroke-miterlimit="10" stroke-width="3"/>
        <path id="Trazado_798967" data-name="Trazado 798967" d="M415.7,212.335a7.116,7.116,0,0,0,5.947-11.918" transform="translate(-350.651 -165.865)" fill="none" stroke="#000" stroke-linecap="round" stroke-linejoin="round" stroke-miterlimit="10" stroke-width="3"/>
        <path id="Trazado_798968" data-name="Trazado 798968" d="M54.392,200.416a7.116,7.116,0,0,0,5.947,11.918" transform="translate(-52.493 -165.865)" fill="none" stroke="#000" stroke-linecap="round" stroke-linejoin="round" stroke-miterlimit="10" stroke-width="3"/>
        <g id="Grupo_1064547" data-name="Grupo 1064547" transform="translate(3.932 45.749)">
          <path id="Trazado_798969" data-name="Trazado 798969" d="M74.447,262.94v6.8a9.42,9.42,0,0,0,9.42,9.42h4.159" transform="translate(-74.447 -262.94)" fill="none" stroke="#000" stroke-linecap="round" stroke-linejoin="round" stroke-miterlimit="10" stroke-width="3"/>
          <path id="Trazado_798970" data-name="Trazado 798970" d="M361.737,279.159H365.9a9.42,9.42,0,0,0,9.42-9.42v-6.8" transform="translate(-310.283 -262.94)" fill="none" stroke="#000" stroke-linecap="round" stroke-linejoin="round" stroke-miterlimit="10" stroke-width="3"/>
        </g>
        <line id="Línea_1632" data-name="Línea 1632" y2="2.149" transform="translate(25.264 39.635)" fill="none" stroke="#000" stroke-linecap="round" stroke-linejoin="round" stroke-miterlimit="10" stroke-width="3"/>
        <line id="Línea_1633" data-name="Línea 1633" y2="2.149" transform="translate(47.633 39.635)" fill="none" stroke="#000" stroke-linecap="round" stroke-linejoin="round" stroke-miterlimit="10" stroke-width="3"/>
        <path id="Trazado_798971" data-name="Trazado 798971" d="M239.536,240.442a3.908,3.908,0,0,0,5.9,0" transform="translate(-206.037 -198.722)" fill="none" stroke="#000" stroke-linecap="round" stroke-linejoin="round" stroke-miterlimit="10" stroke-width="3"/>
        <g id="Grupo_1064548" data-name="Grupo 1064548" transform="translate(1.897 20.875)">
          <path id="Trazado_798972" data-name="Trazado 798972" d="M63.533,144.765a34.793,34.793,0,0,0-.449,5.57,18.672,18.672,0,0,0,5.626-.74,24.624,24.624,0,0,1,5.4-10.187" transform="translate(-63.084 -136.658)" fill="none" stroke="#000" stroke-linecap="round" stroke-linejoin="round" stroke-miterlimit="10" stroke-width="3"/>
          <path id="Trazado_798973" data-name="Trazado 798973" d="M142.4,125.56a24.148,24.148,0,0,0-1.3,9.464c14.59-1.92,25.524-6.687,31.67-10.969" transform="translate(-127.07 -124.055)" fill="none" stroke="#000" stroke-linecap="round" stroke-linejoin="round" stroke-miterlimit="10" stroke-width="3"/>
          <path id="Trazado_798974" data-name="Trazado 798974" d="M387.351,139.407a24.557,24.557,0,0,1,5.4,10.178,21.462,21.462,0,0,0,5.627.748,34.8,34.8,0,0,0-.449-5.57" transform="translate(-329.275 -136.657)" fill="none" stroke="#000" stroke-linecap="round" stroke-linejoin="round" stroke-miterlimit="10" stroke-width="3"/>
        </g>
        <path id="Trazado_798975" data-name="Trazado 798975" d="M206.443,42.035h-3.813a9.346,9.346,0,0,0-9.321,8.687,87.825,87.825,0,0,1,22.456,0A9.346,9.346,0,0,0,206.443,42.035Z" transform="translate(-168.088 -35.85)" fill="none" stroke="#000" stroke-linecap="round" stroke-linejoin="round" stroke-miterlimit="10" stroke-width="3"/>
        <path id="Trazado_798976" data-name="Trazado 798976" d="M118.5,13.066A34.558,34.558,0,0,0,65.592,36.482c6.6-5.255,19.4-8.818,34.1-8.818s27.5,3.563,34.1,8.818a34.481,34.481,0,0,0-10.368-19.536" transform="translate(-63.246 -7.5)" fill="none" stroke="#000" stroke-linecap="round" stroke-linejoin="round" stroke-miterlimit="10" stroke-width="3"/>
        <path id="Trazado_798977" data-name="Trazado 798977" d="M92.066,196.135a29.457,29.457,0,1,0,57.838-.01" transform="translate(-84.538 -162.342)" fill="none" stroke="#000" stroke-linecap="round" stroke-linejoin="round" stroke-miterlimit="10" stroke-width="3"/>
        <path id="Trazado_798978" data-name="Trazado 798978" d="M199.125,381.9a10.19,10.19,0,0,0,20.373,0" transform="translate(-172.863 -314.844)" fill="none" stroke="#000" stroke-linecap="round" stroke-linejoin="round" stroke-miterlimit="10" stroke-width="3"/>
      </g>
    </g>
  </g>
</svg>
