<svg xmlns="http://www.w3.org/2000/svg" width="70" height="70" viewBox="0 0 70 70">
  <g id="Grupo_1064014" data-name="Grupo 1064014" transform="translate(-755 -1392)">
    <circle id="Elipse_8234" data-name="Elipse 8234" cx="35" cy="35" r="35" transform="translate(755 1392)" fill="#ffebc5"/>
    <g id="Layer_33" data-name="Layer 33" transform="translate(769.421 1406.421)">
      <path id="Trazado_796457" data-name="Trazado 796457" d="M41.717,1a7.717,7.717,0,0,1,7.717,7.717V19.65a5.145,5.145,0,0,1-5.145,5.145H39.145A5.145,5.145,0,0,1,34,19.65V8.717A7.717,7.717,0,0,1,41.717,1Z" transform="translate(-12.135 -0.357)" fill="#c67a60"/>
      <path id="Trazado_796458" data-name="Trazado 796458" d="M22.865,39.453v12.84H3.572A2.572,2.572,0,0,1,1,49.721V39.453a5.145,5.145,0,0,1,3.73-4.947L10,33h3.859l5.273,1.506A5.145,5.145,0,0,1,22.865,39.453Z" transform="translate(-0.357 -11.778)" fill="#62b5e8"/>
      <path id="Trazado_796459" data-name="Trazado 796459" d="M2.929,49.721V39.453a5.145,5.145,0,0,1,3.73-4.947L11.933,33H10L4.73,34.506A5.145,5.145,0,0,0,1,39.453V49.721a2.572,2.572,0,0,0,2.572,2.572H5.5A2.572,2.572,0,0,1,2.929,49.721Z" transform="translate(-0.357 -11.778)" fill="#44a7d8"/>
      <path id="Trazado_796460" data-name="Trazado 796460" d="M35.929,19.648V8.716a7.713,7.713,0,0,1,6.752-7.653A7.67,7.67,0,0,0,34,8.716V19.648a5.145,5.145,0,0,0,5.145,5.145h1.929A5.145,5.145,0,0,1,35.929,19.648Z" transform="translate(-12.135 -0.355)" fill="#b26049"/>
      <path id="Trazado_796461" data-name="Trazado 796461" d="M50.865,39.453V49.721a2.572,2.572,0,0,1-2.572,2.572H29V39.453a5.145,5.145,0,0,1,3.73-4.947L38,33h3.859l5.273,1.506A5.145,5.145,0,0,1,50.865,39.453Z" transform="translate(-10.35 -11.778)" fill="#f2a7b1"/>
      <path id="Trazado_796462" data-name="Trazado 796462" d="M43,28h3.859v3.215a1.929,1.929,0,1,1-3.859,0Z" transform="translate(-15.347 -9.993)" fill="#ffddb0" stroke="#000" stroke-linecap="round" stroke-linejoin="round" stroke-width="2"/>
      <path id="Trazado_796463" data-name="Trazado 796463" d="M9,11H20.576v7.074A5.788,5.788,0,0,1,9,18.074Z" transform="translate(-3.212 -3.926)" fill="#f7d1c6"/>
      <path id="Trazado_796464" data-name="Trazado 796464" d="M20.445,23.812l-1.576-1.253a2.572,2.572,0,0,0-1.6-.559h-4.63a2.572,2.572,0,0,0-1.6.559L9.456,23.812a5.788,5.788,0,0,0,10.989,0Z" transform="translate(-3.375 -7.852)" fill="#c67a60"/>
      <path id="Trazado_796465" data-name="Trazado 796465" d="M7.929,15v3.859a1.929,1.929,0,0,1,0-3.859Z" transform="translate(-2.141 -5.354)" fill="#f4b19f"/>
      <path id="Trazado_796466" data-name="Trazado 796466" d="M1.929,0V3.859A1.929,1.929,0,0,1,1.929,0Z" transform="translate(19.293 13.505) rotate(180)" fill="#f7d1c6"/>
      <path id="Trazado_796467" data-name="Trazado 796467" d="M42.788,23.862A5.788,5.788,0,0,1,37,18.074v-4.5h2.572a5.145,5.145,0,0,0,4.116-2.058L44.074,11l.386.514a5.145,5.145,0,0,0,4.116,2.058v4.5A5.788,5.788,0,0,1,42.788,23.862Z" transform="translate(-13.205 -3.926)" fill="#f7d1c6"/>
      <path id="Trazado_796468" data-name="Trazado 796468" d="M10.929,18.074V11H9v7.074a5.756,5.756,0,0,0,6.753,5.7,5.785,5.785,0,0,1-4.823-5.7Z" transform="translate(-3.212 -3.926)" fill="#f4b19f"/>
      <path id="Trazado_796469" data-name="Trazado 796469" d="M35.929,15v3.859a1.929,1.929,0,1,1,0-3.859Z" transform="translate(-12.135 -5.354)" fill="#f4b19f"/>
      <path id="Trazado_796470" data-name="Trazado 796470" d="M1.929,0V3.859A1.929,1.929,0,0,1,1.929,0Z" transform="translate(37.3 13.505) rotate(180)" fill="#f7d1c6"/>
      <path id="Trazado_796471" data-name="Trazado 796471" d="M17.576,2.922V2.286A1.286,1.286,0,0,0,16.29,1H11.347A5.347,5.347,0,0,0,6,6.347,3.657,3.657,0,0,0,9.657,10a11.576,11.576,0,0,0,7.231-2.536l.045-.036A2.572,2.572,0,0,0,19.505,10v-5.8a1.286,1.286,0,0,0-1.286-1.286Z" transform="translate(-2.141 -0.357)" fill="#c67a60"/>
      <path id="Trazado_796472" data-name="Trazado 796472" d="M57,49.012h3.859v6.423a2.572,2.572,0,0,1-2.572,2.572H57Z" transform="translate(-20.343 -17.493)" fill="#f7d1c6"/>
      <path id="Trazado_796473" data-name="Trazado 796473" d="M17.545,53.031H11.114a5.145,5.145,0,0,0-5.145,5.145v1.266H22.69V58.176A5.145,5.145,0,0,0,17.545,53.031Z" transform="translate(-2.13 -18.927)" fill="#f96464"/>
      <path id="Trazado_796474" data-name="Trazado 796474" d="M17,53h2.572v.643a1.286,1.286,0,1,1-2.572,0Z" transform="translate(-6.067 -18.916)" fill="#f7d1c6"/>
      <path id="Trazado_796475" data-name="Trazado 796475" d="M11,37H21.29v5.145a5.145,5.145,0,1,1-10.29,0Z" transform="translate(-3.926 -13.205)" fill="#f7d1c6"/>
      <path id="Trazado_796476" data-name="Trazado 796476" d="M12.929,42.145V37H11v5.145A5.135,5.135,0,0,0,17.109,47.2,5.145,5.145,0,0,1,12.929,42.145Z" transform="translate(-3.926 -13.205)" fill="#f4b19f"/>
      <path id="Trazado_796477" data-name="Trazado 796477" d="M15.917,27.983a5.981,5.981,0,0,1-.965.084A5.771,5.771,0,0,1,9.46,24.092l1.576-1.254a.386.386,0,0,1,.084-.058,5.78,5.78,0,0,0,4.8,5.2Z" transform="translate(-3.376 -8.13)" fill="#b26049"/>
      <path id="Trazado_796478" data-name="Trazado 796478" d="M9.286,41h.643v2.572H9.286a1.286,1.286,0,0,1,0-2.572Z" transform="translate(-2.855 -14.633)" fill="#f4b19f"/>
      <path id="Trazado_796479" data-name="Trazado 796479" d="M1.286,0h.643V2.572H1.286A1.286,1.286,0,1,1,1.286,0Z" transform="translate(19.293 28.962) rotate(180)" fill="#f7d1c6"/>
      <path id="Trazado_796480" data-name="Trazado 796480" d="M21.29,36.717H18.5a2.572,2.572,0,0,1-1.819-.754l-.532-.532-.532.532a2.572,2.572,0,0,1-1.819.754H11V34.145a5.145,5.145,0,1,1,10.29,0Z" transform="translate(-3.926 -10.35)" fill="#c67a60"/>
      <path id="Trazado_796481" data-name="Trazado 796481" d="M17.109,29.093A5.135,5.135,0,0,0,11,34.145v2.572h1.929V34.145a5.145,5.145,0,0,1,4.18-5.052Z" transform="translate(-3.926 -10.35)" fill="#b26049"/>
      <path id="Trazado_796482" data-name="Trazado 796482" d="M47.148,43H34.286L33,49.431H48.434Z" transform="translate(-11.778 -15.347)" fill="#c67a60"/>
      <path id="Trazado_796483" data-name="Trazado 796483" d="M37,37H47.29v5.145a5.145,5.145,0,1,1-10.29,0Z" transform="translate(-13.205 -13.205)" fill="#f7d1c6"/>
      <g id="Grupo_1063909" data-name="Grupo 1063909" transform="translate(21.865 9.646)">
        <path id="Trazado_796484" data-name="Trazado 796484" d="M38.929,42.145V37H37v5.145A5.135,5.135,0,0,0,43.109,47.2,5.145,5.145,0,0,1,38.929,42.145Z" transform="translate(-35.071 -22.852)" fill="#f4b19f"/>
        <path id="Trazado_796485" data-name="Trazado 796485" d="M35.286,41h.643v2.572h-.643a1.286,1.286,0,0,1,0-2.572Z" transform="translate(-34 -24.279)" fill="#f4b19f"/>
        <path id="Trazado_796486" data-name="Trazado 796486" d="M38.929,19.5V15H37v4.5a5.756,5.756,0,0,0,6.753,5.7,5.785,5.785,0,0,1-4.823-5.7Z" transform="translate(-35.071 -15)" fill="#f4b19f"/>
      </g>
      <path id="Trazado_796487" data-name="Trazado 796487" d="M1.286,0h.643V2.572H1.286A1.286,1.286,0,1,1,1.286,0Z" transform="translate(36.013 28.962) rotate(180)" fill="#f7d1c6"/>
      <path id="Trazado_796488" data-name="Trazado 796488" d="M46.576,36.717H44l-1.286-1.286-1.286,1.286H36.286A1.286,1.286,0,0,1,35,35.431a6.431,6.431,0,0,1,12.862,0A1.286,1.286,0,0,1,46.576,36.717Z" transform="translate(-12.492 -10.35)" fill="#c67a60"/>
      <path id="Trazado_796489" data-name="Trazado 796489" d="M36.929,35.431A6.426,6.426,0,0,1,42.4,29.08,6.385,6.385,0,0,0,35,35.431a1.286,1.286,0,0,0,1.286,1.286h1.929A1.286,1.286,0,0,1,36.929,35.431Z" transform="translate(-12.492 -10.35)" fill="#b26049"/>
      <path id="Trazado_796490" data-name="Trazado 796490" d="M9.865,58.215V56.929A1.929,1.929,0,0,0,7.935,55c-.068,0-.133.014-.2.02a5.129,5.129,0,0,0-1.718,3.3,1.925,1.925,0,0,0,3.848-.108Z" transform="translate(-2.147 -19.63)" fill="#d34444"/>
      <path id="Trazado_796491" data-name="Trazado 796491" d="M43.545,53.031H37.114a5.145,5.145,0,0,0-5.145,5.145v1.266H48.69V58.176A5.145,5.145,0,0,0,43.545,53.031Z" transform="translate(-11.41 -18.927)" fill="#fcab68"/>
      <path id="Trazado_796492" data-name="Trazado 796492" d="M39.043,53.031H37.114a5.145,5.145,0,0,0-5.145,5.145v1.266H33.9V58.176A5.145,5.145,0,0,1,39.043,53.031Z" transform="translate(-11.41 -18.927)" fill="#ea8e49"/>
      <path id="Trazado_796493" data-name="Trazado 796493" d="M43,53h2.572v.643a1.286,1.286,0,1,1-2.572,0Z" transform="translate(-15.347 -18.916)" fill="#f7d1c6"/>
      <rect id="Rect치ngulo_373468" data-name="Rect치ngulo 373468" width="4.423" height="5.308" rx="2.212" transform="translate(2.236 35.384)" fill="#f7d1c6"/>
      <path id="Trazado_796494" data-name="Trazado 796494" d="M5.369,58.215V56.929a1.923,1.923,0,0,1,1.286-1.811A1.908,1.908,0,0,0,6.012,55a1.929,1.929,0,0,0-1.929,1.929v1.286a1.929,1.929,0,0,0,1.929,1.929,1.907,1.907,0,0,0,.643-.118,1.923,1.923,0,0,1-1.286-1.811Z" transform="translate(-1.457 -19.63)" fill="#f4b19f"/>
      <rect id="Rect치ngulo_373469" data-name="Rect치ngulo 373469" width="3.538" height="5.308" rx="1.769" transform="translate(34.966 35.384)" fill="#f7d1c6"/>
      <path id="Trazado_796495" data-name="Trazado 796495" d="M7.929,6.347A5.347,5.347,0,0,1,13.276,1H11.347A5.347,5.347,0,0,0,6,6.347,3.657,3.657,0,0,0,9.657,10a11.54,11.54,0,0,0,1.213-.071,3.657,3.657,0,0,1-2.94-3.585Z" transform="translate(-2.141 -0.357)" fill="#b26049"/>
      <path id="Trazado_796496" data-name="Trazado 796496" d="M55.286,58.215V56.929a1.923,1.923,0,0,1,1.286-1.811A1.9,1.9,0,0,0,55.929,55,1.929,1.929,0,0,0,54,56.929v1.286a1.929,1.929,0,0,0,1.929,1.929,1.9,1.9,0,0,0,.643-.118,1.923,1.923,0,0,1-1.286-1.811Z" transform="translate(-19.273 -19.63)" fill="#f4b19f"/>
      <path id="Trazado_796497" data-name="Trazado 796497" d="M40.643,17a.643.643,0,0,0-.643.643v.612a.643.643,0,1,0,1.286,0v-.612A.643.643,0,0,0,40.643,17Z" transform="translate(-14.276 -6.067)"/>
      <path id="Trazado_796498" data-name="Trazado 796498" d="M50.643,18.929a.643.643,0,0,0,.643-.643v-.643a.643.643,0,0,0-1.286,0v.643A.643.643,0,0,0,50.643,18.929Z" transform="translate(-17.845 -6.067)"/>
      <path id="Trazado_796499" data-name="Trazado 796499" d="M45.761,25.188a.988.988,0,0,1-1.663,0,.643.643,0,1,0-.909.909,2.241,2.241,0,0,0,3.482,0,.643.643,0,1,0-.909-.909Z" transform="translate(-15.347 -8.923)"/>
      <path id="Trazado_796500" data-name="Trazado 796500" d="M12.643,18.929a.643.643,0,0,0,.643-.643v-.643a.643.643,0,0,0-1.286,0v.643A.643.643,0,0,0,12.643,18.929Z" transform="translate(-4.283 -6.067)"/>
      <path id="Trazado_796501" data-name="Trazado 796501" d="M22.643,18.929a.643.643,0,0,0,.643-.643v-.643a.643.643,0,1,0-1.286,0v.643A.643.643,0,0,0,22.643,18.929Z" transform="translate(-7.852 -6.067)"/>
      <path id="Trazado_796502" data-name="Trazado 796502" d="M18.67,25.188a.643.643,0,0,0-.909,0,.988.988,0,0,1-1.663,0,.643.643,0,1,0-.909.909,2.484,2.484,0,0,0,1.741.831,2.484,2.484,0,0,0,1.741-.83.643.643,0,0,0,0-.911Z" transform="translate(-5.354 -8.923)"/>
      <path id="Trazado_796503" data-name="Trazado 796503" d="M37.171,22.179a5.805,5.805,0,0,0,.772-2.886V8.36a8.36,8.36,0,1,0-16.721,0V19.293A5.812,5.812,0,0,0,22,22.187a5.763,5.763,0,0,0-1.415.687,5.743,5.743,0,0,0-1.63-.761l-1.334-.384a5.807,5.807,0,0,0-1.988-2.6,6.462,6.462,0,0,0,2.374-4.982v-.091a2.56,2.56,0,0,0,0-4.962V3.851a1.929,1.929,0,0,0-1.929-1.929A1.929,1.929,0,0,0,14.148,0H9.205a6,6,0,0,0-5.99,5.99,4.289,4.289,0,0,0,1.5,3.255,2.561,2.561,0,0,0,.43,4.812v.091A6.419,6.419,0,0,0,8.21,19.629,5.813,5.813,0,0,0,7,21.31l-2.8.8A5.812,5.812,0,0,0,0,27.675V37.943a3.219,3.219,0,0,0,3.215,3.215H37.943a3.219,3.219,0,0,0,3.215-3.215V27.675A5.81,5.81,0,0,0,37.171,22.179Zm2.7,5.5v3.2h-3.2l-.412-2.062a1.908,1.908,0,0,0-.5-2.787,1.908,1.908,0,0,0,.258-.946,7.034,7.034,0,0,0-.289-1.986l.882.252a4.52,4.52,0,0,1,3.265,4.328ZM37.943,38.586a1.286,1.286,0,0,1-2.572,0V37.3a1.286,1.286,0,0,1,2.572,0Zm-18.65-3.63V29.081a1.9,1.9,0,0,0,.188-2.657,4.481,4.481,0,0,1,2.56-2.89,7.052,7.052,0,0,0-.176,1.547,1.908,1.908,0,0,0,.257.946,1.908,1.908,0,0,0-.5,2.788L20.6,33.959a.643.643,0,0,0,.631.772h.868a5.826,5.826,0,0,0-1.532,1.893,5.815,5.815,0,0,0-1.269-1.668Zm-13.505-7.3a.643.643,0,0,1,.643-.643V28.3A.643.643,0,0,1,5.788,27.653Zm1.929-.643h2.15a3.194,3.194,0,0,0,2.273-.941l.078-.078.078.078a3.194,3.194,0,0,0,2.273.941h2.15v1.929a4.5,4.5,0,1,1-9,0Zm10.933.643a.643.643,0,0,1-.643.643V27.01A.643.643,0,0,1,18.65,27.653Zm-5.788,7.074a.643.643,0,0,1-1.286,0Zm5.107-5.145h.038v4.485a5.723,5.723,0,0,0-2.187-.6,5.781,5.781,0,0,0,2.149-3.88Zm4.54-15.792a2.551,2.551,0,0,0,.643.266v.091a6.382,6.382,0,0,0,2.21,4.841,7.119,7.119,0,0,0-2.379,2.292,4.453,4.453,0,0,1-.473-1.988Zm14.148-2.215a1.286,1.286,0,0,1-.643,1.113V10.463A1.286,1.286,0,0,1,36.657,11.576Zm0,2.215v5.5a4.437,4.437,0,0,1-.781,2.508l-.8-.23a7.115,7.115,0,0,0-1.865-2.118,6.461,6.461,0,0,0,2.806-5.3v-.091a2.55,2.55,0,0,0,.643-.266Zm-.785,19.65h-3.3a5.785,5.785,0,0,0,2.122-3.859h.036a1.961,1.961,0,0,0,.366-.037ZM28.939,27.01a.643.643,0,0,0,.455-.188l.832-.832.832.832a.643.643,0,0,0,.455.188h1.929v1.929a4.5,4.5,0,1,1-9,0V27.01ZM34.727,28.3V27.01a.643.643,0,0,1,0,1.286Zm-11.576,0a.643.643,0,0,1,0-1.286Zm-.364,1.25a1.935,1.935,0,0,0,.364.037h.038a5.785,5.785,0,0,0,2.122,3.859h-3.3Zm11.3-3.822H31.778l-1.1-1.1a.643.643,0,0,0-.909,0l-1.1,1.1H23.795a.643.643,0,0,1-.643-.643,5.788,5.788,0,0,1,11.576,0A.643.643,0,0,1,34.084,25.724Zm.643-12.219v.643A5.161,5.161,0,0,1,31.962,18.7a6.98,6.98,0,0,0-5.287-.313,5.107,5.107,0,0,1-2.237-4.235V10.29h1.929a5.816,5.816,0,0,0,4.5-2.151,5.819,5.819,0,0,0,3.859,2.114Zm-11.576-.816a1.286,1.286,0,0,1,0-2.226Zm6.431,22.038a.643.643,0,0,1-1.286,0Zm6.431,0v.091c-.031.008-.061.019-.091.028-.046-.039-.089-.082-.136-.12ZM29.582,1.286A7.082,7.082,0,0,1,36.657,8.36v1A2.546,2.546,0,0,0,35.37,9a4.524,4.524,0,0,1-3.6-1.8l-.386-.514a.666.666,0,0,0-1.029,0l-.386.514a4.524,4.524,0,0,1-3.6,1.8H23.795a2.546,2.546,0,0,0-1.286.358v-1a7.082,7.082,0,0,1,7.074-7.074ZM18.6,23.344a4.5,4.5,0,0,1,.947.4,5.761,5.761,0,0,0-1.21,2.014,1.933,1.933,0,0,0-.331-.031V23.795a5.95,5.95,0,0,0-.035-.628ZM6.431,10.145a4.281,4.281,0,0,0,1.084.144,12.272,12.272,0,0,0,6.834-2.095,3.224,3.224,0,0,0,2.371,2.022s-.015,4.385-.046,4.608l-.781-.621a3.228,3.228,0,0,0-2-.7H9.261a3.228,3.228,0,0,0-2,.7l-.776.617c-.032-.223-.053-4.675-.053-4.675Zm12.219,1.43a1.286,1.286,0,0,1-.643,1.113V10.463A1.286,1.286,0,0,1,18.65,11.576ZM9.205,1.286h4.943a.643.643,0,0,1,.643.643v.635a.643.643,0,0,0,.643.643h.643a.643.643,0,0,1,.643.643V8.893a1.933,1.933,0,0,1-1.286-1.819.643.643,0,0,0-.386-.562.688.688,0,0,0-.7.1A10.974,10.974,0,0,1,7.515,9,3.017,3.017,0,0,1,4.5,5.99,4.709,4.709,0,0,1,9.205,1.286ZM4.5,11.576a1.286,1.286,0,0,1,.643-1.113v2.226A1.286,1.286,0,0,1,4.5,11.576Zm2.352,4.592,1.2-.957a1.929,1.929,0,0,1,1.2-.419h4.63a1.935,1.935,0,0,1,1.2.419l1.205.958a5.165,5.165,0,0,1-1.9,2.268,5.743,5.743,0,0,0-5.05.338,5.12,5.12,0,0,1-2.494-2.607Zm5.365,3.125a4.507,4.507,0,0,1,4.5,4.5v1.929h-2.15a1.942,1.942,0,0,1-1.364-.565l-.533-.533a.643.643,0,0,0-.909,0l-.533.533a1.942,1.942,0,0,1-1.364.565H7.717V23.795a4.507,4.507,0,0,1,4.5-4.5ZM1.286,37.943V27.675a4.52,4.52,0,0,1,3.265-4.331l1.974-.564a5.762,5.762,0,0,0-.095,1.014v1.929a1.929,1.929,0,0,0,0,3.859h.038A5.788,5.788,0,0,0,8.614,33.46a5.736,5.736,0,0,0-3.4,1.381c-.024-.007-.048-.016-.073-.023V30.226a.643.643,0,0,0-1.286,0v4.593A2.572,2.572,0,0,0,1.929,37.3v1.286a2.551,2.551,0,0,0,.182.934,1.929,1.929,0,0,1-.825-1.578Zm1.929.643V37.3a1.286,1.286,0,0,1,2.572,0v1.286a1.286,1.286,0,0,1-2.572,0ZM19.91,39.872H6.717a2.546,2.546,0,0,0,.358-1.286V37.3a2.554,2.554,0,0,0-.691-1.741,4.464,4.464,0,0,1,2.594-.832H10.29a1.929,1.929,0,1,0,3.859,0h1.26a4.515,4.515,0,0,1,4.5,4.517Zm1.313-.643a4.507,4.507,0,0,1,4.5-4.5H27.01a1.929,1.929,0,1,0,3.859,0h1.286a4.476,4.476,0,0,1,2.613.841,2.556,2.556,0,0,0-.683,1.731v1.286a2.546,2.546,0,0,0,.358,1.286H21.222Zm18.65-1.286a1.929,1.929,0,0,1-.825,1.578,2.551,2.551,0,0,0,.182-.934V37.3A2.572,2.572,0,0,0,37.3,34.819V32.163h2.572Z"/>
      <path id="Trazado_796504" data-name="Trazado 796504" d="M14.643,44.806a.643.643,0,0,0,.643-.643v-.52a.643.643,0,0,0-1.286,0v.52A.643.643,0,0,0,14.643,44.806Z" transform="translate(-4.997 -15.347)"/>
      <path id="Trazado_796505" data-name="Trazado 796505" d="M22.643,44.806a.643.643,0,0,0,.643-.643v-.52a.643.643,0,0,0-1.286,0v.52A.643.643,0,0,0,22.643,44.806Z" transform="translate(-7.852 -15.347)"/>
      <path id="Trazado_796506" data-name="Trazado 796506" d="M16.188,49.1a2.484,2.484,0,0,0,1.741.832,2.484,2.484,0,0,0,1.741-.83.643.643,0,1,0-.909-.909.988.988,0,0,1-1.663,0,.643.643,0,1,0-.909.909Z" transform="translate(-5.71 -17.132)"/>
      <path id="Trazado_796507" data-name="Trazado 796507" d="M40.643,44.806a.643.643,0,0,0,.643-.643v-.52a.643.643,0,1,0-1.286,0v.52A.643.643,0,0,0,40.643,44.806Z" transform="translate(-14.276 -15.347)"/>
      <path id="Trazado_796508" data-name="Trazado 796508" d="M48.643,44.806a.643.643,0,0,0,.643-.643v-.52a.643.643,0,1,0-1.286,0v.52A.643.643,0,0,0,48.643,44.806Z" transform="translate(-17.131 -15.347)"/>
      <path id="Trazado_796509" data-name="Trazado 796509" d="M42.188,49.1a2.241,2.241,0,0,0,3.482,0,.643.643,0,1,0-.909-.909.988.988,0,0,1-1.663,0,.643.643,0,1,0-.909.909Z" transform="translate(-14.99 -17.131)"/>
    </g>
  </g>
</svg>
