<svg xmlns="http://www.w3.org/2000/svg" width="171" height="103.711" viewBox="0 0 171 103.711">
  <g id="Grupo_1064876" data-name="Grupo 1064876" transform="translate(-199 -19108.464)">
    <rect id="Rectángulo_373693" data-name="Rectángulo 373693" width="171" height="86" rx="10" transform="translate(199 19126.176)" fill="#ffebc5"/>
    <g id="Layer_2" transform="translate(239.476 19105.941)">
      <g id="Grupo_1064874" data-name="Grupo 1064874" transform="translate(2.525 2.523)">
        <g id="Grupo_1064872" data-name="Grupo 1064872" transform="translate(0.834 0.834)">
          <g id="Grupo_1064870" data-name="Grupo 1064870" transform="translate(10.039 20.127)">
            <path id="Trazado_798989" data-name="Trazado 798989" d="M130.517,165.476V153.771h-6.852a25.117,25.117,0,0,0-3.044-7.367l4.839-4.839-8.277-8.277-4.829,4.829a25.119,25.119,0,0,0-7.376-3.068v-6.818H93.273v6.8a25.115,25.115,0,0,0-7.411,3.054l-4.8-4.8-8.277,8.277,4.785,4.785a25.114,25.114,0,0,0-3.078,7.421H67.734v11.705H74.5a25.122,25.122,0,0,0,3.078,7.421l-4.785,4.785,8.277,8.277,4.8-4.8a25.123,25.123,0,0,0,7.411,3.054v6.8h11.705V184.2a25.118,25.118,0,0,0,7.376-3.068l4.83,4.83,8.277-8.277-4.839-4.839a25.125,25.125,0,0,0,3.044-7.367h6.852Z" transform="translate(-67.734 -128.232)" fill="#494a47"/>
            <circle id="Elipse_8327" data-name="Elipse 8327" cx="19.154" cy="19.154" r="19.154" transform="translate(12.237 12.237)" fill="#f8d250"/>
            <path id="Trazado_798990" data-name="Trazado 798990" d="M202.276,371.381l-14.569-.01a5.41,5.41,0,0,0-5,5.394v.205a19.154,19.154,0,0,0,24.442,0v-.205A5.412,5.412,0,0,0,202.276,371.381Z" transform="translate(-163.535 -330.83)" fill="#ed74b7"/>
            <path id="Trazado_798991" data-name="Trazado 798991" d="M186.591,376.971v-.205a5.41,5.41,0,0,1,4.976-5.391l-3.86,0a5.41,5.41,0,0,0-5,5.394v.205a19.075,19.075,0,0,0,12.221,4.405,19.384,19.384,0,0,0,1.943-.1,19.067,19.067,0,0,1-10.278-4.307Z" transform="translate(-163.534 -330.831)" fill="#b2568d"/>
            <path id="Trazado_798992" data-name="Trazado 798992" d="M163.6,274.715a3.445,3.445,0,0,0,0,6.887h3.9v-6.887Z" transform="translate(-144.81 -250.29)" fill="#ffb09e"/>
            <path id="Trazado_798993" data-name="Trazado 798993" d="M312.094,274.715a3.445,3.445,0,0,1,0,6.887h-3.9v-6.887Z" transform="translate(-268.1 -250.29)" fill="#ffb09e"/>
            <path id="Trazado_798994" data-name="Trazado 798994" d="M193.019,260.585h-3.282a11.211,11.211,0,0,1-11.211-11.211l.669-5.553a7.6,7.6,0,0,1,7.6-7.6h9.163a7.6,7.6,0,0,1,7.6,7.6l.669,5.553a11.211,11.211,0,0,1-11.211,11.211Z" transform="translate(-160.053 -218.213)" fill="#ffcebf"/>
            <g id="Grupo_1064867" data-name="Grupo 1064867" transform="translate(18.473 18.006)">
              <path id="Trazado_798995" data-name="Trazado 798995" d="M182.412,249.373l.669-5.553a7.6,7.6,0,0,1,7.6-7.6H186.8a7.6,7.6,0,0,0-7.6,7.6l-.669,5.553a11.211,11.211,0,0,0,11.211,11.211h3.282c.1,0,.2-.005.3-.008A11.208,11.208,0,0,1,182.412,249.373Z" transform="translate(-178.525 -236.218)" fill="#ffb09e"/>
              <ellipse id="Elipse_8328" data-name="Elipse 8328" cx="2.645" cy="1.203" rx="2.645" ry="1.203" transform="translate(4.875 11.364)" fill="#ffb09e"/>
              <ellipse id="Elipse_8329" data-name="Elipse 8329" cx="2.645" cy="1.203" rx="2.645" ry="1.203" transform="translate(15.671 11.364)" fill="#ffb09e"/>
            </g>
            <g id="Grupo_1064869" data-name="Grupo 1064869" transform="translate(20.19 11.555)">
              <g id="Grupo_1064868" data-name="Grupo 1064868">
                <path id="Trazado_798996" data-name="Trazado 798996" d="M243.817,205.4h-2.441a1.461,1.461,0,0,1-1.461-1.461v-4.942a1.461,1.461,0,0,1,1.461-1.461h2.441a1.461,1.461,0,0,1,1.461,1.461v4.942A1.462,1.462,0,0,1,243.817,205.4Z" transform="translate(-231.395 -197.531)" fill="#ed74b7"/>
                <path id="Trazado_798997" data-name="Trazado 798997" d="M277.992,205.366l-5.906-.964v-5.877l5.906-.964a2.251,2.251,0,0,1,2.613,2.221v3.362A2.25,2.25,0,0,1,277.992,205.366Z" transform="translate(-258.202 -197.531)" fill="#ed74b7"/>
                <path id="Trazado_798998" data-name="Trazado 798998" d="M191.434,205.366l5.906-.964v-5.877l-5.906-.964a2.251,2.251,0,0,0-2.613,2.221v3.362A2.25,2.25,0,0,0,191.434,205.366Z" transform="translate(-188.821 -197.531)" fill="#ed74b7"/>
              </g>
              <path id="Trazado_798999" data-name="Trazado 798999" d="M192.708,203.146v-3.362a2.243,2.243,0,0,1,.975-1.854l-2.249-.367a2.251,2.251,0,0,0-2.613,2.221v3.362a2.251,2.251,0,0,0,2.613,2.221l2.249-.367A2.244,2.244,0,0,1,192.708,203.146Z" transform="translate(-188.822 -197.532)" fill="#b2568d"/>
            </g>
          </g>
          <g id="Grupo_1064871" data-name="Grupo 1064871">
            <path id="Trazado_799000" data-name="Trazado 799000" d="M222.529,18.567,214.156,7.523l-8.373,11.044h3.679v5.606h9.388V18.567Z" transform="translate(-172.725 -7.523)" fill="#47d186"/>
            <path id="Trazado_799001" data-name="Trazado 799001" d="M420.789,73.043,412.416,62l-8.373,11.044h3.679V83.837h9.388V73.043Z" transform="translate(-337.927 -52.916)" fill="#47d186"/>
            <path id="Trazado_799002" data-name="Trazado 799002" d="M24.27,73.043,15.9,62,7.524,73.043H11.2V83.837h9.388V73.043Z" transform="translate(-7.524 -52.916)" fill="#47d186"/>
          </g>
        </g>
        <g id="Grupo_1064873" data-name="Grupo 1064873" transform="translate(0 0)">
          <path id="Trazado_799003" data-name="Trazado 799003" d="M206.894,250.445a6.756,6.756,0,0,0-2.664-5.375c-.055-.006-.111-.011-.166-.02l-5.4-.881a2.29,2.29,0,0,1-1.835.922H194.39a2.291,2.291,0,0,1-1.835-.922l-5.4.881a3.047,3.047,0,0,1-.315.033,6.756,6.756,0,0,0-2.647,5.362.832.832,0,0,1-.006.1l-.663,5.5A10.389,10.389,0,0,0,193.9,266.376h3.283a10.389,10.389,0,0,0,10.377-10.328l-.663-5.5A.905.905,0,0,1,206.894,250.445Zm-18.635,1.928a.834.834,0,0,1-1.667,0,3.622,3.622,0,0,1,7.243,0,.834.834,0,0,1-1.667,0,1.954,1.954,0,0,0-3.908,0Zm7.2,10.336c-2.453,0-4.1-1.441-4.1-3.587a.834.834,0,1,1,1.667,0c0,1.415,1.257,1.919,2.433,1.919s2.433-.5,2.433-1.919a.834.834,0,1,1,1.667,0C199.558,261.268,197.91,262.709,195.457,262.709Zm8.339-9.5a.834.834,0,0,1-.834-.834,1.954,1.954,0,0,0-3.908,0,.834.834,0,0,1-1.667,0,3.622,3.622,0,0,1,7.243,0A.834.834,0,0,1,203.8,253.206Z" transform="translate(-153.346 -203.877)" fill="none"/>
          <path id="Trazado_799004" data-name="Trazado 799004" d="M127.021,158.129a24.257,24.257,0,0,0-2.942-7.122.834.834,0,0,1,.121-1.026l4.249-4.25-7.1-7.1-4.24,4.24a.834.834,0,0,1-1.028.12,24.265,24.265,0,0,0-7.132-2.966.834.834,0,0,1-.64-.811v-5.984H98.273V139.2a.834.834,0,0,1-.643.812,24.256,24.256,0,0,0-7.165,2.952.834.834,0,0,1-1.026-.121l-4.206-4.206-7.1,7.1,4.2,4.2a.833.833,0,0,1,.12,1.028,24.261,24.261,0,0,0-2.976,7.174.834.834,0,0,1-.811.641h-5.93v10.038h5.93a.834.834,0,0,1,.811.641,24.261,24.261,0,0,0,2.976,7.175.833.833,0,0,1-.12,1.028l-4.2,4.2,7.1,7.1,4.206-4.206a.834.834,0,0,1,1.026-.121,24.261,24.261,0,0,0,7.165,2.952.833.833,0,0,1,.643.812v5.963h10.038v-5.984a.834.834,0,0,1,.64-.811,24.259,24.259,0,0,0,7.132-2.966.833.833,0,0,1,1.028.12l4.24,4.24,7.1-7.1L124.2,177.6a.834.834,0,0,1-.121-1.026,24.251,24.251,0,0,0,2.942-7.122.834.834,0,0,1,.811-.641h6.018V158.771h-6.018a.834.834,0,0,1-.811-.641Zm-23.729,25.648a19.979,19.979,0,0,1-12.035-35.933V146.2a3.084,3.084,0,0,1,3.581-3.044l5.4.881a2.291,2.291,0,0,1,1.835-.922h2.441a2.291,2.291,0,0,1,1.835.922l5.4-.881a3.084,3.084,0,0,1,3.581,3.044v1.64a19.979,19.979,0,0,1-12.035,35.934Z" transform="translate(-61.027 -111.438)" fill="none"/>
          <path id="Trazado_799005" data-name="Trazado 799005" d="M126.353,148.772h-6.2a25.914,25.914,0,0,0-2.645-6.4l4.38-4.38a.834.834,0,0,0,0-1.179l-8.277-8.277a.834.834,0,0,0-1.179,0l-4.369,4.369a25.9,25.9,0,0,0-6.414-2.667v-6.168a.834.834,0,0,0-.834-.834H89.109a.834.834,0,0,0-.834.834v6.145a25.9,25.9,0,0,0-6.447,2.657l-4.336-4.336a.833.833,0,0,0-1.179,0l-8.277,8.277a.834.834,0,0,0,0,1.179l4.325,4.325a25.908,25.908,0,0,0-2.678,6.458H63.571a.834.834,0,0,0-.834.834v11.705a.834.834,0,0,0,.834.834h6.113a25.917,25.917,0,0,0,2.678,6.458l-4.325,4.325a.834.834,0,0,0,0,1.179l8.277,8.277a.833.833,0,0,0,1.179,0l4.336-4.336a25.915,25.915,0,0,0,6.447,2.657v6.145a.834.834,0,0,0,.834.834h11.705a.834.834,0,0,0,.834-.834v-6.169a25.9,25.9,0,0,0,6.414-2.667l4.369,4.369a.833.833,0,0,0,1.179,0l8.277-8.277a.834.834,0,0,0,0-1.179l-4.38-4.38a25.914,25.914,0,0,0,2.645-6.4h6.2a.834.834,0,0,0,.834-.834V149.605A.834.834,0,0,0,126.353,148.772Zm-.834,11.705H119.5a.834.834,0,0,0-.811.641,24.255,24.255,0,0,1-2.942,7.122.834.834,0,0,0,.121,1.026l4.249,4.25-7.1,7.1-4.24-4.24a.834.834,0,0,0-1.028-.12,24.265,24.265,0,0,1-7.132,2.966.834.834,0,0,0-.64.811v5.984H89.943v-5.963a.834.834,0,0,0-.643-.812,24.259,24.259,0,0,1-7.165-2.952.833.833,0,0,0-1.026.121L76.9,180.614l-7.1-7.1,4.2-4.2a.833.833,0,0,0,.12-1.028,24.261,24.261,0,0,1-2.976-7.174.834.834,0,0,0-.811-.641H64.4V150.439h5.93a.834.834,0,0,0,.811-.641,24.261,24.261,0,0,1,2.976-7.174A.833.833,0,0,0,74,141.6l-4.2-4.2,7.1-7.1,4.206,4.206a.833.833,0,0,0,1.026.121,24.257,24.257,0,0,1,7.165-2.952.833.833,0,0,0,.643-.812V124.9H99.981v5.984a.834.834,0,0,0,.64.811,24.259,24.259,0,0,1,7.132,2.966.834.834,0,0,0,1.028-.12l4.24-4.24,7.1,7.1-4.249,4.25a.834.834,0,0,0-.121,1.026,24.252,24.252,0,0,1,2.942,7.122.834.834,0,0,0,.811.641h6.018v10.038Z" transform="translate(-52.697 -103.106)"/>
          <path id="Trazado_799006" data-name="Trazado 799006" d="M168.146,197.256v-1.64a3.084,3.084,0,0,0-3.581-3.044l-5.4.881a2.291,2.291,0,0,0-1.835-.922H154.89a2.291,2.291,0,0,0-1.835.922l-5.4-.881a3.084,3.084,0,0,0-3.581,3.044v1.64a19.988,19.988,0,1,0,24.07,0Zm1.484,14.831-.569-4.721c0-.088-.006-.175-.009-.262a2.605,2.605,0,0,1,.577,4.983Zm-1.567.933a10.389,10.389,0,0,1-10.377,10.328H154.4a10.389,10.389,0,0,1-10.377-10.328l.663-5.5a.827.827,0,0,0,.006-.1,6.756,6.756,0,0,1,2.647-5.362,3.138,3.138,0,0,0,.315-.033l5.4-.881a2.29,2.29,0,0,0,1.835.922h2.441a2.291,2.291,0,0,0,1.835-.922l5.4.881c.055.009.111.014.166.02a6.756,6.756,0,0,1,2.664,5.375.832.832,0,0,0,.006.1Zm-2.785,16.039-.105.061q-.191.109-.385.214c-.143.077-.286.152-.431.225l-.191.1c-.2.1-.4.191-.6.28l-.02.009a18.369,18.369,0,0,1-5.887,1.514l-.018,0q-.36.03-.721.046l-.1,0c-.236.009-.473.015-.711.015s-.474-.006-.71-.015l-.1,0c-.241-.011-.481-.026-.721-.046l-.018,0a18.367,18.367,0,0,1-5.886-1.514l-.021-.009c-.2-.089-.4-.183-.6-.28l-.191-.1c-.145-.073-.288-.148-.431-.225s-.257-.141-.384-.213l-.106-.061a18.394,18.394,0,0,1-2.215-1.512,4.6,4.6,0,0,1,3.489-4.246,11.97,11.97,0,0,0,6.187,1.715h3.283a11.972,11.972,0,0,0,6.228-1.739,4.555,4.555,0,0,1,3.58,4.27,18.4,18.4,0,0,1-2.216,1.512Zm-24.3-19.38a2.629,2.629,0,0,1,2.06-2.55c0,.079-.007.158-.008.238l-.562,4.664A2.625,2.625,0,0,1,140.977,209.679Zm18.651-14.61,5.207-.85a1.417,1.417,0,0,1,1.645,1.4v3.362a1.417,1.417,0,0,1-1.645,1.4l-5.207-.85Zm-4.737-.869h2.441a.628.628,0,0,1,.628.628v4.942a.628.628,0,0,1-.628.628h-2.441a.628.628,0,0,1-.628-.628v-4.942A.628.628,0,0,1,154.891,194.2Zm-9.147,1.417a1.416,1.416,0,0,1,1.645-1.4l5.207.85v4.459l-5.207.85a1.417,1.417,0,0,1-1.645-1.4ZM137.791,213.2a18.282,18.282,0,0,1,6.314-13.825,3.077,3.077,0,0,0,1.058,1.952,3.127,3.127,0,0,0,.27.2,8.428,8.428,0,0,0-2.16,3.881,4.276,4.276,0,0,0-.882,8.371,12.024,12.024,0,0,0,4.2,8.343,6.3,6.3,0,0,0-3.345,4.105A18.265,18.265,0,0,1,137.791,213.2Zm31.191,13.025a6.213,6.213,0,0,0-3.426-4.148,12.021,12.021,0,0,0,4.143-8.259,4.276,4.276,0,0,0-.881-8.415,8.427,8.427,0,0,0-2.108-3.822,3.033,3.033,0,0,0,1.409-2.207,18.29,18.29,0,0,1,.864,26.85Z" transform="translate(-113.847 -160.85)"/>
          <path id="Trazado_799007" data-name="Trazado 799007" d="M237.854,328.849a.834.834,0,0,0-.834.834c0,1.415-1.257,1.919-2.433,1.919s-2.433-.5-2.433-1.919a.834.834,0,1,0-1.667,0c0,2.145,1.648,3.587,4.1,3.587s4.1-1.441,4.1-3.587A.834.834,0,0,0,237.854,328.849Z" transform="translate(-192.476 -274.437)"/>
          <path id="Trazado_799008" data-name="Trazado 799008" d="M207.483,275.272a.834.834,0,1,0,1.667,0,3.622,3.622,0,0,0-7.243,0,.834.834,0,1,0,1.667,0,1.954,1.954,0,0,1,3.908,0Z" transform="translate(-168.662 -226.777)"/>
          <path id="Trazado_799009" data-name="Trazado 799009" d="M270.275,271.651a3.626,3.626,0,0,0-3.621,3.621.834.834,0,1,0,1.667,0,1.954,1.954,0,0,1,3.908,0,.834.834,0,1,0,1.667,0A3.626,3.626,0,0,0,270.275,271.651Z" transform="translate(-222.613 -226.777)"/>
          <path id="Trazado_799010" data-name="Trazado 799010" d="M201.617,15.234h2.845v4.773a.834.834,0,0,0,.834.834h9.389a.834.834,0,0,0,.834-.834V15.234h2.845a.834.834,0,0,0,.664-1.337L210.655,2.853a.834.834,0,0,0-1.329,0L200.953,13.9a.834.834,0,0,0,.664,1.337Zm8.373-10.5,6.695,8.83h-2a.834.834,0,0,0-.834.834v4.773H206.13V14.4a.834.834,0,0,0-.834-.834h-2Z" transform="translate(-167.726 -2.523)"/>
          <path id="Trazado_799011" data-name="Trazado 799011" d="M417.288,68.374,408.915,57.33a.834.834,0,0,0-1.329,0l-8.373,11.044a.834.834,0,0,0,.664,1.337h2.845v9.961a.834.834,0,0,0,.834.834h9.388a.834.834,0,0,0,.834-.834V69.711h2.845a.834.834,0,0,0,.664-1.337Zm-4.343-.33a.834.834,0,0,0-.834.834v9.961H404.39V68.877a.834.834,0,0,0-.834-.834h-2l6.695-8.83,6.695,8.83Z" transform="translate(-332.928 -47.916)"/>
          <path id="Trazado_799012" data-name="Trazado 799012" d="M17.26,79.671V69.711H20.1a.834.834,0,0,0,.664-1.337L12.4,57.33a.834.834,0,0,0-1.329,0L2.694,68.374a.834.834,0,0,0,.664,1.337H6.2v9.961a.834.834,0,0,0,.834.834h9.388A.834.834,0,0,0,17.26,79.671ZM15.592,68.877v9.961H7.871V68.877a.834.834,0,0,0-.834-.834h-2l6.695-8.83,6.695,8.83h-2A.834.834,0,0,0,15.592,68.877Z" transform="translate(-2.525 -47.916)"/>
        </g>
      </g>
    </g>
  </g>
</svg>
