<svg xmlns="http://www.w3.org/2000/svg" width="171" height="103.711" viewBox="0 0 171 103.711">
  <g id="Grupo_1065020" data-name="Grupo 1065020" transform="translate(-199 -19108.465)">
    <rect id="Rectángulo_373693" data-name="Rectángulo 373693" width="171" height="86" rx="10" transform="translate(199 19126.176)" fill="#ffebc5"/>
    <g id="oido" transform="translate(245 19108.465)">
      <g id="Grupo_1065045" data-name="Grupo 1065045" transform="translate(1.27 1.27)">
        <g id="Grupo_1065024" data-name="Grupo 1065024" transform="translate(38.095)">
          <path id="Trazado_799101" data-name="Trazado 799101" d="M49.26,16.035l-3.022,4.013a6.764,6.764,0,0,1-4.521-3.809h-.559a5.078,5.078,0,0,0-5.079,5.079H33.54A5.066,5.066,0,0,0,31,22V11.159a5.073,5.073,0,0,1,5.079-5.079A5.078,5.078,0,0,1,41.159,1h12.7a12.7,12.7,0,0,1,12.7,12.7V22a5.066,5.066,0,0,0-2.54-.686h-2.54V20.251A5.5,5.5,0,0,0,60.422,17a5.573,5.573,0,0,0-2.756-2.032l-3.809,5.079A6.709,6.709,0,0,1,49.26,16.035Z" transform="translate(-31 -1)" fill="#b27946"/>
        </g>
        <g id="Grupo_1065025" data-name="Grupo 1065025" transform="translate(0 40.635)">
          <path id="Trazado_799102" data-name="Trazado 799102" d="M11.159,58.4v1.27a1.274,1.274,0,0,1-1.27,1.27H2.27A1.274,1.274,0,0,1,1,59.666V34.27A1.274,1.274,0,0,1,2.27,33H9.889a1.274,1.274,0,0,1,1.27,1.27V58.4Z" transform="translate(-1 -33)" fill="#fcd770"/>
        </g>
        <g id="Grupo_1065026" data-name="Grupo 1065026" transform="translate(0 2.54)">
          <path id="Trazado_799103" data-name="Trazado 799103" d="M28.936,4.27V20.778H25.127a1.274,1.274,0,0,0-1.27,1.27v1.27H18.778l-1.968,3.949a2.065,2.065,0,0,1-3.683,0l-1.968-3.949H2.27A1.274,1.274,0,0,1,1,22.047V4.27A1.274,1.274,0,0,1,2.27,3h25.4A1.274,1.274,0,0,1,28.936,4.27Z" transform="translate(-1 -3)" fill="#e6e9ed"/>
        </g>
        <g id="Grupo_1065027" data-name="Grupo 1065027" transform="translate(35.555 44.381)">
          <path id="Trazado_799104" data-name="Trazado 799104" d="M36.619,67.759H29V57.6a2.547,2.547,0,0,0,2.54-2.54A2.558,2.558,0,0,0,29,52.521a2.547,2.547,0,0,0,2.54-2.54A2.558,2.558,0,0,0,29,47.442a2.547,2.547,0,0,0,2.54-2.54c0-.127-.013-.254-.025-.381a20.022,20.022,0,0,1,9.257-8.571l2.2,7.682,6.349-3.809,6.349,3.809,2.2-7.67a20.121,20.121,0,0,1,11.771,18.3v13.5H36.619Z" transform="translate(-29 -35.95)" fill="#b4dd7f"/>
        </g>
        <g id="Grupo_1065028" data-name="Grupo 1065028" transform="translate(55.873 43.174)">
          <path id="Trazado_799105" data-name="Trazado 799105" d="M53.546,36.219l-2.2,7.67L45,40.079,50.079,35A20.015,20.015,0,0,1,53.546,36.219Z" transform="translate(-45 -35)" fill="#a0d468"/>
        </g>
        <g id="Grupo_1065029" data-name="Grupo 1065029" transform="translate(47.327 43.174)">
          <path id="Trazado_799106" data-name="Trazado 799106" d="M46.816,40.079l-6.349,3.809-2.2-7.682A18.972,18.972,0,0,1,41.737,35Z" transform="translate(-38.27 -35)" fill="#a0d468"/>
        </g>
        <g id="Grupo_1065030" data-name="Grupo 1065030" transform="translate(68.571 20.317)">
          <path id="Trazado_799107" data-name="Trazado 799107" d="M60.079,17.686a5.054,5.054,0,0,1,2.54,4.394,5.073,5.073,0,0,1-5.079,5.079H55V17h2.54A5.066,5.066,0,0,1,60.079,17.686Z" transform="translate(-55 -17)" fill="#f0d0b4"/>
        </g>
        <g id="Grupo_1065031" data-name="Grupo 1065031" transform="translate(43.174 13.968)">
          <path id="Trazado_799108" data-name="Trazado 799108" d="M45.159,17.079l3.022-4.013a6.709,6.709,0,0,0,4.6,4.013L56.587,12a5.573,5.573,0,0,1,2.756,2.032A5.5,5.5,0,0,1,60.4,17.282V28.508A9.127,9.127,0,0,1,52.778,37.4v3.809L47.7,46.285l-5.079-5.079V37.4A9.11,9.11,0,0,1,35,28.508V18.349a5.078,5.078,0,0,1,5.079-5.079h.559A6.764,6.764,0,0,0,45.159,17.079Z" transform="translate(-35 -12)" fill="#f0d0b4"/>
        </g>
        <g id="Grupo_1065032" data-name="Grupo 1065032" transform="translate(36.038 25.397)">
          <path id="Trazado_799109" data-name="Trazado 799109" d="M33.977,26.079a5.078,5.078,0,0,1-4.6-2.921l5.879-.737A1.439,1.439,0,0,0,36.516,21v5.079Z" transform="translate(-29.38 -21)" fill="#f0d0b4"/>
        </g>
        <g id="Grupo_1065033" data-name="Grupo 1065033" transform="translate(36.038 20.317)">
          <path id="Trazado_799110" data-name="Trazado 799110" d="M35.259,20.657l-5.879-.737A5.1,5.1,0,0,1,33.977,17h2.54v5.079a1.439,1.439,0,0,0-1.257-1.422Z" transform="translate(-29.38 -17)" fill="#f0d0b4"/>
        </g>
        <g id="Grupo_1065034" data-name="Grupo 1065034" transform="translate(30.476 60.952)">
          <path id="Trazado_799111" data-name="Trazado 799111" d="M30.079,49a2.558,2.558,0,0,1,2.54,2.54,2.547,2.547,0,0,1-2.54,2.54H27.54A2.558,2.558,0,0,1,25,51.54,2.547,2.547,0,0,1,27.54,49Z" transform="translate(-25 -49)" fill="#f0d0b4"/>
        </g>
        <g id="Grupo_1065035" data-name="Grupo 1065035" transform="translate(30.476 55.873)">
          <path id="Trazado_799112" data-name="Trazado 799112" d="M30.079,45a2.558,2.558,0,0,1,2.54,2.54,2.547,2.547,0,0,1-2.54,2.54H27.54A2.558,2.558,0,0,1,25,47.54,2.547,2.547,0,0,1,27.54,45Z" transform="translate(-25 -45)" fill="#f0d0b4"/>
        </g>
        <g id="Grupo_1065036" data-name="Grupo 1065036" transform="translate(30.476 50.793)">
          <path id="Trazado_799113" data-name="Trazado 799113" d="M30.079,41a2.483,2.483,0,0,1,1.79.749,2.518,2.518,0,0,1,.724,1.41c.013.127.025.254.025.381a2.547,2.547,0,0,1-2.54,2.54H27.54A2.547,2.547,0,0,1,25,43.54,2.558,2.558,0,0,1,27.54,41Z" transform="translate(-25 -41)" fill="#f0d0b4"/>
        </g>
        <g id="Grupo_1065037" data-name="Grupo 1065037" transform="translate(30.476 45.714)">
          <path id="Trazado_799114" data-name="Trazado 799114" d="M28.809,37h1.27a2.558,2.558,0,0,1,2.54,2.54,2.547,2.547,0,0,1-2.54,2.54H27.54A2.558,2.558,0,0,1,25,39.54,2.547,2.547,0,0,1,27.54,37Z" transform="translate(-25 -37)" fill="#f0d0b4"/>
        </g>
        <g id="Grupo_1065038" data-name="Grupo 1065038" transform="translate(10.159 40.635)">
          <path id="Trazado_799115" data-name="Trazado 799115" d="M21.7,38.079V58.4H9V35.54A15.166,15.166,0,0,1,17.394,33H35.666a1.274,1.274,0,0,1,1.27,1.27,3.8,3.8,0,0,1-3.809,3.809H21.7Z" transform="translate(-9 -33)" fill="#f0d0b4"/>
        </g>
        <g id="Grupo_1065039" data-name="Grupo 1065039" transform="translate(25.397 68.571)">
          <path id="Trazado_799116" data-name="Trazado 799116" d="M26.079,55v2.54a2.558,2.558,0,0,1-2.54,2.54A2.547,2.547,0,0,1,21,57.54V55Z" transform="translate(-21 -55)" fill="#969faa"/>
        </g>
        <g id="Grupo_1065040" data-name="Grupo 1065040" transform="translate(22.857 45.714)">
          <path id="Trazado_799117" data-name="Trazado 799117" d="M26.619,39.54a2.558,2.558,0,0,0,2.54,2.54,2.558,2.558,0,0,0-2.54,2.54,2.547,2.547,0,0,0,2.54,2.54,2.547,2.547,0,0,0-2.54,2.54,2.558,2.558,0,0,0,2.54,2.54,2.547,2.547,0,0,0-2.54,2.54,2.558,2.558,0,0,0,2.54,2.54,2.547,2.547,0,0,1-2.54,2.54H21.54A2.547,2.547,0,0,1,19,57.317V37H29.159A2.547,2.547,0,0,0,26.619,39.54Z" transform="translate(-19 -37)" fill="#aab2bd"/>
        </g>
        <g id="Grupo_1065041" data-name="Grupo 1065041" transform="translate(22.857 35.555)">
          <path id="Trazado_799118" data-name="Trazado 799118" d="M29.159,30.27v3.809H19V30.27A1.274,1.274,0,0,1,20.27,29h7.619A1.274,1.274,0,0,1,29.159,30.27Z" transform="translate(-19 -29)" fill="#aab2bd"/>
        </g>
        <g id="Grupo_1065042" data-name="Grupo 1065042" transform="translate(22.857 20.317)">
          <path id="Trazado_799119" data-name="Trazado 799119" d="M29.159,24.619v1.27a1.274,1.274,0,0,1-1.27,1.27H20.27A1.274,1.274,0,0,1,19,25.889V18.27A1.274,1.274,0,0,1,20.27,17h7.619a1.274,1.274,0,0,1,1.27,1.27v6.349Z" transform="translate(-19 -17)" fill="#aab2bd"/>
        </g>
        <g id="Grupo_1065043" data-name="Grupo 1065043" transform="translate(25.397 30.476)">
          <path id="Trazado_799120" data-name="Trazado 799120" d="M21,25h5.079v5.079H21Z" transform="translate(-21 -25)" fill="#ccd1d9"/>
        </g>
        <g id="Grupo_1065044" data-name="Grupo 1065044" transform="translate(33.016 22.857)">
          <path id="Trazado_799121" data-name="Trazado 799121" d="M30.022,19.381l5.879.737a1.433,1.433,0,0,1,0,2.844l-5.879.737L27,24.079V19Z" transform="translate(-27 -19)" fill="#ccd1d9"/>
        </g>
      </g>
      <g id="Grupo_1065046" data-name="Grupo 1065046" transform="translate(0 0)">
        <path id="Trazado_799122" data-name="Trazado 799122" d="M11,14.284,8.089,11.372l-1.8,1.8L11,17.875l9.787-9.787-1.8-1.8Z" transform="translate(1.698 1.698)"/>
        <path id="Trazado_799123" data-name="Trazado 799123" d="M8,26h2.54v2.54H8Z" transform="translate(2.159 7.016)"/>
        <path id="Trazado_799124" data-name="Trazado 799124" d="M4,26H6.54v2.54H4Z" transform="translate(1.079 7.016)"/>
        <path id="Trazado_799125" data-name="Trazado 799125" d="M0,26H2.54v2.54H0Z" transform="translate(0 7.016)"/>
        <circle id="Elipse_8342" data-name="Elipse 8342" cx="1" cy="1" r="1" transform="translate(51 23)"/>
        <circle id="Elipse_8343" data-name="Elipse 8343" cx="1" cy="1" r="1" transform="translate(61 23)"/>
        <path id="Trazado_799126" data-name="Trazado 799126" d="M47.469,23.213l-1.44-.72A12.08,12.08,0,0,0,46.9,18h-2.54a9.539,9.539,0,0,1-1,4.244l-.7,1.4,3.676,1.837Z" transform="translate(11.51 4.857)"/>
        <path id="Trazado_799127" data-name="Trazado 799127" d="M48.591,24.821a2.84,2.84,0,0,1-5.079,0l-.133-.268L41.1,25.688l.135.269a5.381,5.381,0,0,0,9.624,0L51,25.688l-2.273-1.134Z" transform="translate(11.091 6.625)"/>
        <path id="Trazado_799128" data-name="Trazado 799128" d="M63.492,43.476V41.654a10.342,10.342,0,0,0,7.521-8.639H72.38a6.327,6.327,0,0,0,3.809-11.4V13.968A13.985,13.985,0,0,0,62.222,0h-12.7a6.361,6.361,0,0,0-6.242,5.186,6.361,6.361,0,0,0-5.186,6.242V21.611a6.341,6.341,0,0,0-1.468,1.529l-1.072-.135v-.149a2.542,2.542,0,0,0-2.54-2.54h-2.54V5.079a2.542,2.542,0,0,0-2.54-2.54H2.54A2.542,2.542,0,0,0,0,5.079V22.857A2.542,2.542,0,0,0,2.54,25.4h8.1l1.62,3.241a3.325,3.325,0,0,0,5.948,0l1.62-3.242h3.025v5.079a2.542,2.542,0,0,0,2.54,2.54v2.54a2.542,2.542,0,0,0-2.54,2.54v2.54H19.816a16.324,16.324,0,0,0-7.27,1.708,2.534,2.534,0,0,0-2.387-1.708H2.54A2.542,2.542,0,0,0,0,43.174v25.4a2.542,2.542,0,0,0,2.54,2.54h7.619a2.542,2.542,0,0,0,2.54-2.54H23.091A3.806,3.806,0,0,0,25.4,70.877v1.5a3.809,3.809,0,1,0,7.619,0v-1.5a3.806,3.806,0,0,0,2.306-2.306h.234V78.729H78.729V63.961A21.355,21.355,0,0,0,63.492,43.476Zm.659,2.926-1.426,4.99-3.535-2.121,3.4-3.4q.8.23,1.564.527ZM38.095,64.761a1.272,1.272,0,0,1-1.27,1.27h-2.54a1.27,1.27,0,0,1,0-2.54h2.54A1.272,1.272,0,0,1,38.095,64.761Zm-6.349,3.809H26.666A1.272,1.272,0,0,1,25.4,67.3V48.254h5.3a3.773,3.773,0,0,0,.773,3.809,3.776,3.776,0,0,0-.018,5.079,3.776,3.776,0,0,0,.018,5.079,3.773,3.773,0,0,0,1.183,5.966,1.258,1.258,0,0,1-.9.383Zm1.27-19.047a1.272,1.272,0,0,1,1.27-1.27h2.54a1.27,1.27,0,1,1,0,2.54h-2.54A1.272,1.272,0,0,1,33.016,49.523ZM38.095,54.6a1.272,1.272,0,0,1-1.27,1.27h-2.54a1.27,1.27,0,0,1,0-2.54h2.54A1.272,1.272,0,0,1,38.095,54.6Zm0,5.079a1.272,1.272,0,0,1-1.27,1.27h-2.54a1.27,1.27,0,0,1,0-2.54h2.54A1.272,1.272,0,0,1,38.095,59.682Zm1.168-13.061a5.042,5.042,0,0,0,1.371-3.446,2.542,2.542,0,0,0-2.54-2.54h-2.54v-2.54a2.542,2.542,0,0,0-2.54-2.54v-2.54a2.542,2.542,0,0,0,2.54-2.54v-.149l1.073-.135A6.381,6.381,0,0,0,41.9,33.016h1.368a10.338,10.338,0,0,0,7.521,8.639v1.823a21.483,21.483,0,0,0-10.228,6.736,3.7,3.7,0,0,0-1.3-3.594Zm3.911-16.145H41.9a3.805,3.805,0,0,1-2.147-.674l3.417-.427ZM51.7,45.88l3.39,3.39-3.535,2.121L50.134,46.4C50.647,46.205,51.172,46.035,51.7,45.88ZM68.571,31.64a7.823,7.823,0,0,1-6.559,7.741l-1.06.178v4.359l-3.809,3.809-3.809-3.809V39.559l-1.06-.177a7.824,7.824,0,0,1-6.559-7.742V21.587a3.8,3.8,0,0,1,3.619-3.79A7.953,7.953,0,0,0,54.3,21.549l.818.2L57.479,18.6a7.949,7.949,0,0,0,4.436,2.95l.818.2,3.709-4.945a4.3,4.3,0,0,1,2.13,3.716Zm3.809-1.164h-1.27v-1.86l3.244-2.163L72.947,24.34l-1.836,1.224V22.857h1.27a3.809,3.809,0,1,1,0,7.619ZM40.635,11.428a3.814,3.814,0,0,1,3.809-3.809h1.27V6.349A3.814,3.814,0,0,1,49.523,2.54h12.7A11.442,11.442,0,0,1,73.65,13.968v6.477a6.343,6.343,0,0,0-1.27-.128H71.094a6.825,6.825,0,0,0-4.662-6.284l-.869-.29-3.812,5.084a5.429,5.429,0,0,1-3.34-5.016V12.7h-2.54v1.114a7.943,7.943,0,0,0,.343,2.239l-2.083,2.777a5.429,5.429,0,0,1-3.34-5.016V12.7h-2.54v1.114a8,8,0,0,0,.163,1.538A6.354,6.354,0,0,0,43.3,20.317H41.9a6.218,6.218,0,0,0-1.27.146ZM41.9,22.857h1.27v1.1l-3.417-.427A3.805,3.805,0,0,1,41.9,22.857ZM43.027,26.5a.169.169,0,0,1,0,.335l-7.472.933v-2.2Zm-10.01,3.977H25.4V22.857h7.619Zm-10.16-7.619H18.263L15.94,27.5a.814.814,0,0,1-1.4,0l-2.324-4.646H2.54V5.079h25.4V20.317H25.4A2.542,2.542,0,0,0,22.857,22.857Zm5.079,10.159h2.54v2.54h-2.54ZM25.4,38.095h7.619v2.54H25.4ZM2.54,68.571v-25.4h7.619v25.4ZM12.7,45.153a13.8,13.8,0,0,1,7.117-1.978H38.095a2.542,2.542,0,0,1-2.54,2.54h-12.7v1.27a3.814,3.814,0,0,1-3.809,3.809h-1.27v2.54h1.27a6.3,6.3,0,0,0,3.809-1.3V66.031H12.7Zm16.508,28.5a1.272,1.272,0,0,1-1.27-1.27v-1.27h2.54v1.27A1.272,1.272,0,0,1,29.206,73.65ZM76.19,76.19H71.111V60.952h-2.54v2.54H60.952v2.54h7.619V76.19H45.714V60.952h-2.54V76.19H38.095V68.337a3.774,3.774,0,0,0,1.549-6.116,3.751,3.751,0,0,0,0-5.079,3.779,3.779,0,0,0,.99-2.54c0-.018-.005-.034-.005-.053a18.9,18.9,0,0,1,7.178-7.042l2.218,7.766,5.846-3.507v6.646h2.54V51.766l5.846,3.507,2.226-7.793A18.814,18.814,0,0,1,76.19,63.961Z" transform="translate(0 0)"/>
      </g>
    </g>
  </g>
</svg>
