<svg xmlns="http://www.w3.org/2000/svg" width="70" height="70" viewBox="0 0 70 70">
  <g id="Grupo_1064016" data-name="Grupo 1064016" transform="translate(-755 -1392)">
    <circle id="Elipse_8234" data-name="Elipse 8234" cx="35" cy="35" r="35" transform="translate(755 1392)" fill="#ffebc5"/>
    <g id="filled_outline" data-name="filled outline" transform="translate(754.597 1391.592)">
      <path id="Trazado_796548" data-name="Trazado 796548" d="M116.3,88h-.664a5.315,5.315,0,0,0-3.757,1.556h0a4.161,4.161,0,0,1-5.885,0h0A5.315,5.315,0,0,0,102.234,88h-.664a4.284,4.284,0,0,0-3.9,2.511h0A18.634,18.634,0,0,0,96,98.223h0a18.635,18.635,0,0,0,1.967,8.334l2.879,5.757a2.814,2.814,0,0,0,2.517,1.556h0a2.814,2.814,0,0,0,2.73-2.132l.745-2.98a2.161,2.161,0,0,1,2.1-1.637h0a2.161,2.161,0,0,1,2.1,1.637l.745,2.98a2.814,2.814,0,0,0,2.73,2.132h0a2.814,2.814,0,0,0,2.517-1.556l2.878-5.757a18.634,18.634,0,0,0,1.967-8.334h0a18.634,18.634,0,0,0-1.67-7.711h0A4.285,4.285,0,0,0,116.3,88Z" transform="translate(-73.532 -66.174)" fill="#eaeae8"/>
      <path id="Trazado_796549" data-name="Trazado 796549" d="M33.293,456h35.57v2.587H33.293A1.293,1.293,0,0,1,32,457.293h0A1.293,1.293,0,0,1,33.293,456Z" transform="translate(-14.706 -404.425)" fill="#fbb540"/>
      <rect id="Rectángulo_373470" data-name="Rectángulo 373470" width="10.336" height="5.513" transform="translate(18.757 46.326)" fill="#eaeae8"/>
      <rect id="Rectángulo_373471" data-name="Rectángulo 373471" width="2.067" height="3.445" transform="translate(21.514 48.393)" fill="#cbcbcb"/>
      <rect id="Rectángulo_373472" data-name="Rectángulo 373472" width="2.756" height="4.824" transform="translate(26.337 47.015)" fill="#cbcbcb"/>
      <path id="Trazado_796550" data-name="Trazado 796550" d="M25.94,343.114l-.523-.348A3.183,3.183,0,0,1,24,340.117h0a3.183,3.183,0,0,1,1.195-2.486L27.234,336l.115.345a2.333,2.333,0,0,0,2.213,1.6H34.08a2.208,2.208,0,0,1,1.561.647h0a2.208,2.208,0,0,1,.647,1.561v.758a2.208,2.208,0,0,1-.647,1.561h0a2.208,2.208,0,0,1-1.561.647Z" transform="translate(-7.352 -294.126)" fill="#2ad3b3"/>
      <path id="Trazado_796551" data-name="Trazado 796551" d="M360.646,297.936a.647.647,0,0,1-.578-.936l.137-.273c.058-.116.114-.234.167-.351a.647.647,0,0,1,1.178.534c-.06.132-.123.265-.189.4l-.137.273A.647.647,0,0,1,360.646,297.936Z" transform="translate(-316.189 -257.355)" fill="#fbfdff"/>
      <path id="Trazado_796552" data-name="Trazado 796552" d="M372.818,243.88a.647.647,0,0,1-.629-.8,10.323,10.323,0,0,0,.291-2.434.647.647,0,1,1,1.293,0,11.617,11.617,0,0,1-.328,2.738A.647.647,0,0,1,372.818,243.88Z" transform="translate(-327.377 -205.887)" fill="#fbfdff"/>
      <path id="Trazado_796553" data-name="Trazado 796553" d="M411.234,24l-.379.758A4.937,4.937,0,0,1,408,27.234h0a4.937,4.937,0,0,1,2.855,2.476l.379.758.379-.758a4.937,4.937,0,0,1,2.855-2.476h0a4.937,4.937,0,0,1-2.855-2.476Z" transform="translate(-360.31 -7.348)" fill="#fbb540"/>
      <path id="Trazado_796554" data-name="Trazado 796554" d="M370.587,112l-.3.606A3.95,3.95,0,0,1,368,114.587h0a3.949,3.949,0,0,1,2.284,1.981l.3.606.3-.606a3.95,3.95,0,0,1,2.284-1.981h0a3.95,3.95,0,0,1-2.284-1.981Z" transform="translate(-323.543 -88.234)" fill="#fbb540"/>
      <circle id="Elipse_8243" data-name="Elipse 8243" cx="1.293" cy="1.293" r="1.293" transform="translate(28.935 30.076)" fill="#cbcbcb"/>
      <circle id="Elipse_8244" data-name="Elipse 8244" cx="1.293" cy="1.293" r="1.293" transform="translate(39.283 30.076)" fill="#cbcbcb"/>
      <path id="Trazado_796555" data-name="Trazado 796555" d="M226.586,256.152a3.38,3.38,0,0,1-2.4-.991.647.647,0,1,1,.915-.915,2.1,2.1,0,0,0,2.966,0,.647.647,0,0,1,.915.915A3.38,3.38,0,0,1,226.586,256.152Z" transform="translate(-191.184 -218.807)" fill="#cbcbcb"/>
      <path id="Trazado_796556" data-name="Trazado 796556" d="M54.158,109.749H29.582v-2.6c.083.006.166.009.249.009a3.456,3.456,0,0,0,3.358-2.622l.745-2.98a1.514,1.514,0,0,1,2.938,0l.745,2.98a3.461,3.461,0,0,0,6.453.708l2.878-5.757a19.254,19.254,0,0,0,1.56-12.871,3.288,3.288,0,0,1,1.327-.833.647.647,0,0,0,0-1.227,3.282,3.282,0,0,1-1.91-1.657l-.3-.606a.643.643,0,0,0-.88-.281A4.943,4.943,0,0,0,42.767,80H42.1a5.923,5.923,0,0,0-4.215,1.746,3.518,3.518,0,0,1-4.97,0A5.923,5.923,0,0,0,28.7,80h-.664a4.941,4.941,0,0,0-4.489,2.89,19.153,19.153,0,0,0-1.728,7.979,19.379,19.379,0,0,0,2.036,8.623l1.248,2.5h-2.9a1.684,1.684,0,0,1-1.6-1.153l-.115-.345a.647.647,0,0,0-1.018-.3l-2.039,1.631A3.83,3.83,0,0,0,17.707,108l.234.156v1.705a1.94,1.94,0,0,0,.647,3.769h35.57a.647.647,0,0,0,.647-.647V110.4A.647.647,0,0,0,54.158,109.749ZM47.044,83.96a4.55,4.55,0,0,0,1.17,1.213,4.55,4.55,0,0,0-1.17,1.213,4.55,4.55,0,0,0-1.17-1.213A4.55,4.55,0,0,0,47.044,83.96ZM25.014,98.913a18.08,18.08,0,0,1-1.9-8.044,17.868,17.868,0,0,1,1.612-7.444,3.645,3.645,0,0,1,3.311-2.132H28.7A4.637,4.637,0,0,1,32,82.66a4.813,4.813,0,0,0,6.8,0,4.637,4.637,0,0,1,3.3-1.367h.664a3.646,3.646,0,0,1,3.212,1.931,3.278,3.278,0,0,1-1.726,1.336.647.647,0,0,0,0,1.227,3.282,3.282,0,0,1,1.91,1.657l.3.606a.645.645,0,0,0,1.029.173,17.979,17.979,0,0,1-1.7,10.691l-2.879,5.757a2.168,2.168,0,0,1-4.042-.444l-.745-2.98a2.808,2.808,0,0,0-5.447,0l-.745,2.98a2.151,2.151,0,0,1-2.352,1.626.641.641,0,0,0-.006-.07c0-.06.006-.121.006-.182v-.758a2.855,2.855,0,0,0-2.855-2.855h-.176Zm-5.638,4.352.635-.953a2.974,2.974,0,0,0,2.2.969h4.518a1.559,1.559,0,0,1,1.537,1.293H20.077a.843.843,0,0,1-.7-1.31Zm8.913,4.726v1.758H27v-1.306A2.826,2.826,0,0,0,28.289,107.991Zm-10.994-3.18a2.522,2.522,0,0,1,.784-1.833,2.136,2.136,0,0,0,2,2.89h8.187a1.559,1.559,0,0,1-1.537,1.293H18.783l-.36-.24A2.532,2.532,0,0,1,17.294,104.812Zm8.407,3.644v1.293H24.408v-1.293Zm-2.587,0v1.293H21.821v-1.293Zm-2.587,0v1.293H19.234v-1.293Zm32.983,3.88H18.588a.647.647,0,0,1,0-1.293H53.511Z" transform="translate(0 -58.821)"/>
      <path id="Trazado_796557" data-name="Trazado 796557" d="M360.356,297.869a.646.646,0,0,0,.868-.289l.137-.273c.065-.13.129-.263.189-.4a.647.647,0,0,0-1.178-.534c-.053.117-.11.236-.167.351l-.137.273A.647.647,0,0,0,360.356,297.869Z" transform="translate(-316.189 -257.357)"/>
      <path id="Trazado_796558" data-name="Trazado 796558" d="M372.663,243.862a.646.646,0,0,0,.781-.476,11.62,11.62,0,0,0,.328-2.74.647.647,0,1,0-1.293,0,10.325,10.325,0,0,1-.291,2.433.647.647,0,0,0,.475.783Z" transform="translate(-327.375 -205.887)"/>
      <path id="Trazado_796559" data-name="Trazado 796559" d="M407.32,19.272a4.263,4.263,0,0,1-2.481-2.151l-.379-.758a.647.647,0,0,0-1.157,0l-.379.758a4.263,4.263,0,0,1-2.481,2.151.647.647,0,0,0,0,1.227,4.263,4.263,0,0,1,2.481,2.152l.379.758a.647.647,0,0,0,1.157,0l.379-.758A4.263,4.263,0,0,1,407.32,20.5a.647.647,0,0,0,0-1.227Zm-3.438,2.435a5.534,5.534,0,0,0-1.751-1.821,5.534,5.534,0,0,0,1.751-1.821,5.535,5.535,0,0,0,1.751,1.821A5.534,5.534,0,0,0,403.881,21.707Z" transform="translate(-352.957 0)"/>
      <circle id="Elipse_8245" data-name="Elipse 8245" cx="1.293" cy="1.293" r="1.293" transform="translate(28.935 30.076)"/>
      <circle id="Elipse_8246" data-name="Elipse 8246" cx="1.293" cy="1.293" r="1.293" transform="translate(39.283 30.076)"/>
      <path id="Trazado_796560" data-name="Trazado 796560" d="M226.587,256.152a3.38,3.38,0,0,0,2.4-.991.647.647,0,1,0-.915-.915,2.1,2.1,0,0,1-2.966,0,.647.647,0,0,0-.915.915A3.38,3.38,0,0,0,226.587,256.152Z" transform="translate(-191.184 -218.807)"/>
    </g>
  </g>
</svg>
