<svg xmlns="http://www.w3.org/2000/svg" width="64.655" height="64.655" viewBox="0 0 64.655 64.655">
  <g id="layer1" transform="translate(-0.529 -280.596)">
    <path id="path15777-4" d="M63.294,284.035H.794v47.414A2.151,2.151,0,0,0,2.949,333.6h58.19a2.151,2.151,0,0,0,2.155-2.155Z" transform="translate(0.813 10.567)" fill="#dbe9ee"/>
    <path id="rect2181-6" d="M2.949,280.86a2.15,2.15,0,0,0-2.155,2.155v10.776h62.5V283.015a2.15,2.15,0,0,0-2.155-2.155Z" transform="translate(0.813 0.811)" fill="#33658a"/>
    <g id="Grupo_1065063" data-name="Grupo 1065063" transform="translate(5.917 285.983)">
      <path id="path2185-5" d="M6.162,284.074a2.155,2.155,0,1,1-2.155-2.155A2.155,2.155,0,0,1,6.162,284.074Z" transform="translate(-1.852 -281.919)" fill="#5b91b8"/>
      <path id="circle2187-5" d="M8.279,284.074a2.155,2.155,0,1,1-2.155-2.155,2.155,2.155,0,0,1,2.155,2.155Z" transform="translate(4.652 -281.919)" fill="#5b91b8"/>
      <path id="circle2189-2" d="M10.4,284.074a2.155,2.155,0,1,1-2.155-2.155,2.155,2.155,0,0,1,2.155,2.155Z" transform="translate(11.156 -281.919)" fill="#5b91b8"/>
    </g>
    <path id="rect2197-2" d="M9.79,281.919H31.341v4.31H9.79Z" transform="translate(28.455 4.065)" fill="#dbe9ee"/>
    <path id="rect2118" d="M2.381,285.623H51.95V313.64H2.381Z" transform="translate(5.691 15.447)" fill="#ff6b6b"/>
    <path id="path2126" d="M7.408,298.515l8.621-5.388-8.621-5.388Z" transform="translate(21.138 21.949)" fill="#dbe9ee"/>
    <path id="path13073-4" d="M3.76,280.6a3.244,3.244,0,0,0-3.231,3.229v58.188a3.253,3.253,0,0,0,3.231,3.239h58.2a3.252,3.252,0,0,0,3.229-3.239V283.825a3.243,3.243,0,0,0-3.229-3.229Zm0,2.155h58.2a1.045,1.045,0,0,1,1.073,1.073v9.7H2.686v-9.7a1.045,1.045,0,0,1,1.073-1.073Zm4.31,2.155a3.23,3.23,0,1,0,3.239,3.231A3.244,3.244,0,0,0,8.07,284.906Zm8.623,0a3.23,3.23,0,1,0,3.231,3.231A3.244,3.244,0,0,0,16.693,284.906Zm8.623,0a3.23,3.23,0,1,0,3.231,3.231A3.251,3.251,0,0,0,25.316,284.906Zm12.876,0a1.085,1.085,0,0,0-1.023,1.073v4.312a1.077,1.077,0,0,0,1.073,1.073H59.8a1.077,1.077,0,0,0,1.073-1.073V285.98a1.078,1.078,0,0,0-1.073-1.073ZM8.07,287.064A1.078,1.078,0,1,1,7,288.137,1.062,1.062,0,0,1,8.07,287.064Zm8.623,0a1.078,1.078,0,0,1,0,2.155,1.078,1.078,0,1,1,0-2.155Zm8.623,0a1.078,1.078,0,0,1,0,2.155,1.078,1.078,0,1,1,0-2.155Zm14.009,0H58.717v2.155H39.324ZM2.686,295.678H63.029v46.334a1.054,1.054,0,0,1-1.073,1.084H3.76a1.054,1.054,0,0,1-1.073-1.084Zm5.388,4.315a1.078,1.078,0,0,0-1.082,1.073v28.026a1.078,1.078,0,0,0,1.082,1.073H57.639a1.078,1.078,0,0,0,1.082-1.073V301.066a1.077,1.077,0,0,0-1.082-1.073Zm1.073,2.157H56.566v25.86H9.148ZM28.5,308.615a1.079,1.079,0,0,0-1.035,1.073v10.78a1.078,1.078,0,0,0,1.648.913l8.623-5.392a1.078,1.078,0,0,0,0-1.823l-8.623-5.392a1.078,1.078,0,0,0-.612-.16Zm1.12,3.016,5.521,3.452-5.521,3.445ZM18.829,332.305a1.079,1.079,0,0,0-1.059,1.088v1.084H8.018a1.078,1.078,0,1,0,0,2.155h9.753v1.073a1.078,1.078,0,1,0,2.155,0v-4.312A1.077,1.077,0,0,0,18.829,332.305Zm4.327,4.327H57.639a1.078,1.078,0,1,0,0-2.155H23.1a1.078,1.078,0,0,0,.052,2.155Z"/>
  </g>
</svg>
