<svg id="Recurso_1" data-name="Recurso 1" xmlns="http://www.w3.org/2000/svg" xmlns:xlink="http://www.w3.org/1999/xlink" width="400" height="400" viewBox="0 0 400 400">
  <defs>
    <clipPath id="clip-path">
      <circle id="Elipse_8251" data-name="Elipse 8251" cx="200" cy="200" r="200" fill="none"/>
    </clipPath>
    <clipPath id="clip-path-2">
      <rect id="Rectángulo_373478" data-name="Rectángulo 373478" width="1188.665" height="792.443" fill="none"/>
    </clipPath>
  </defs>
  <g id="Capa_2" data-name="Capa 2" transform="translate(0 0)">
    <g id="OBJECTS">
      <g id="Grupo_1063967" data-name="Grupo 1063967" clip-path="url(#clip-path)">
        <g id="Grupo_1063966" data-name="Grupo 1063966" transform="translate(-332.936 -391.917)">
          <g id="Grupo_1063950" data-name="Grupo 1063950">
            <rect id="Rectángulo_373477" data-name="Rectángulo 373477" width="1188.665" height="792.443" fill="#fffcf5"/>
            <g id="Grupo_1063949" data-name="Grupo 1063949" clip-path="url(#clip-path-2)">
              <path id="Trazado_796677" data-name="Trazado 796677" d="M42.13,250.867c0,19.408-13.214,36.122-32.2,43.6L6.365,400.129H-340.858l-7.557-401.76v-.03a62.628,62.628,0,0,1-.825-10.211c0-30.962,22.1-56.048,49.346-56.048s49.356,25.086,49.356,56.048a61.961,61.961,0,0,1-5.737,26.259A38.868,38.868,0,0,1-246.69,30.8a40.257,40.257,0,0,1,25.245-9.128c25.464,0,46.1,25.016,46.1,55.889,0,28.775-17.927,52.468-40.994,55.551l.159,6.194a97.251,97.251,0,0,1,29.729-4.524c23.217,0,43.768,7.716,56.356,19.577,9.565-18.762,29.908-31.718,53.463-31.718,32.742,0,59.289,25.036,59.289,55.918A53.051,53.051,0,0,1-23.9,204.146a62.57,62.57,0,0,1,11.444-1.054c30.147,0,54.586,21.4,54.586,47.8Z" transform="translate(334.932 392.305)" fill="#f4ebd9"/>
            </g>
          </g>
          <g id="Grupo_1063965" data-name="Grupo 1063965">
            <g id="Grupo_1063956" data-name="Grupo 1063956" clip-path="url(#clip-path-2)">
              <g id="Grupo_1063955" data-name="Grupo 1063955" transform="translate(239.339 507.958)">
                <g id="Grupo_1063952" data-name="Grupo 1063952" transform="translate(318.672 26.062)">
                  <path id="Trazado_796678" data-name="Trazado 796678" d="M226.37,230.974a34.389,34.389,0,0,1,51.623-29.7,43.905,43.905,0,0,1,21.138-36.848c5.488-3.241,12.051-5.26,18.275-3.888,7.537,1.67,13.3,8.074,16.266,15.2s3.569,14.974,4.136,22.67c.348-7.6,4.275-15.551,11.335-18.374s16.744,1.869,17.052,9.466c-1.342-14.457,4.464-29.679,15.9-38.628s28.367-10.738,40.875-3.361c16.2,9.565,21.447,30.5,22.1,49.3A173.783,173.783,0,0,1,432.2,268.617c-.527,1.273-1.422,2.764-2.794,2.615s-.646-2.983.318-2.008" transform="translate(-226.37 -142.92)" fill="#4c9e75"/>
                  <g id="Grupo_1063951" data-name="Grupo 1063951" transform="translate(11.443 35.839)">
                    <path id="Trazado_796679" data-name="Trazado 796679" d="M385.627,185.821l-.109-5.856a1.035,1.035,0,0,0-2.068,0l-.109,5.856c-.03,1.531-.308,2.9.666,4.156a.69.69,0,0,0,.974,0c.964-1.243.686-2.625.666-4.156Z" transform="translate(-238.71 -178.965)" fill="#522a68"/>
                    <path id="Trazado_796680" data-name="Trazado 796680" d="M318.483,188.237c-.03-1.561-.159-3.112-.259-4.673a1.159,1.159,0,0,0-2.317,0c-.1,1.561-.229,3.112-.259,4.673-.03,1.382-.278,2.774.418,4.007a1.164,1.164,0,0,0,2,0c.686-1.243.447-2.625.418-4.007Z" transform="translate(-238.323 -178.985)" fill="#522a68"/>
                    <path id="Trazado_796681" data-name="Trazado 796681" d="M350.381,207.716c-.229-1.153-1.73-.875-2.078,0a19.752,19.752,0,0,0-.865,5c-.179,1.551-.746,3.212.089,4.613a1.152,1.152,0,0,0,1.79.229c1.114-1.253.895-2.9,1.014-4.514a20.427,20.427,0,0,0,.05-5.339Z" transform="translate(-238.503 -179.125)" fill="#522a68"/>
                    <path id="Trazado_796682" data-name="Trazado 796682" d="M380.684,229.7c.04-2.138.08-4.285.119-6.423.03-1.551-2.307-1.531-2.4,0-.119,2.138-.249,4.285-.368,6.423-.1,1.78-.487,3.54.368,5.16a.9.9,0,0,0,1.541,0c.964-1.541.7-3.4.726-5.16Z" transform="translate(-238.679 -179.212)" fill="#522a68"/>
                    <path id="Trazado_796683" data-name="Trazado 796683" d="M319.593,221.214c-.149-1.69-.2-3.381-.179-5.071s-2.446-1.641-2.605,0a49.114,49.114,0,0,0-.239,5.409c.03,1.521-.109,3.062,1.014,4.186a1.171,1.171,0,0,0,1.82-.239C320.209,224.167,319.722,222.7,319.593,221.214Z" transform="translate(-238.329 -179.17)" fill="#522a68"/>
                    <path id="Trazado_796684" data-name="Trazado 796684" d="M258.516,213.575c-.179-1.829-.487-3.639-.766-5.459-.149-.994-1.71-.726-1.72.229,0,2.018-.02,4.017.08,6.035a14.036,14.036,0,0,0,.656,4.952c.368.865,1.72.557,1.929-.249C259.162,217.323,258.695,215.375,258.516,213.575Z" transform="translate(-237.983 -179.128)" fill="#522a68"/>
                    <path id="Trazado_796685" data-name="Trazado 796685" d="M241.28,219.742c-.328-1.879-.666-3.758-.994-5.638-.278-1.571-2.655-.9-2.386.656.3,1.76.607,3.51.9,5.27a14.293,14.293,0,0,0,1.2,4.643.924.924,0,0,0,1.67-.219,13.745,13.745,0,0,0-.4-4.713Z" transform="translate(-237.879 -179.161)" fill="#522a68"/>
                  </g>
                </g>
                <g id="Grupo_1063954" data-name="Grupo 1063954">
                  <path id="Trazado_796686" data-name="Trazado 796686" d="M170.24,238.957c.736-18.9-2.366-68.486-10.659-85.389-4.305-8.78-10.122-17.32-18.722-21.765s-20.482-3.48-26.378,4.325c-4.862,6.443-4.524,15.332-3.957,23.415-2.963-7.646-6.841-15.123-12.767-20.7s-14.2-9.038-22.163-7.606-15.083,8.541-15.143,16.774c-5.29-11.564-13.353-22.351-24.658-27.87S9.613,115.517.744,124.595c-9.4,9.615-9.744,24.738-9.5,38.27a18.448,18.448,0,0,0-22.471-1.68,19.231,19.231,0,0,0-6.8,21.864A52.7,52.7,0,0,0-66.7,175.86c-4.087.169-8.322.885-11.663,3.281-3.609,2.585-5.737,6.781-7.457,10.917a108.957,108.957,0,0,0-7.228,57.062" transform="translate(94.134 -116.709)" fill="#4c9e75"/>
                  <g id="Grupo_1063953" data-name="Grupo 1063953" transform="translate(99.717 23.621)">
                    <path id="Trazado_796687" data-name="Trazado 796687" d="M135.794,154.436c-.716-2.7-1.074-5.478-1.521-8.233-.259-1.591-2.824-1.571-2.893.109a35.821,35.821,0,0,0,.955,9.257c.567,2.535,1.094,5.459,3.241,7.109a1.188,1.188,0,0,0,1.859-.835c.388-2.516-1-5-1.641-7.4Z" transform="translate(-6.872 -140.491)" fill="#522a68"/>
                    <path id="Trazado_796688" data-name="Trazado 796688" d="M123.876,191.787c-.457-2.118-.925-4.246-1.382-6.363-.388-1.77-3.142-1.312-2.784.477.428,2.128.845,4.256,1.273,6.383.348,1.75.348,3.878,1.611,5.21a1.092,1.092,0,0,0,1.839-.3c.646-1.76-.169-3.639-.547-5.419Z" transform="translate(-6.805 -140.716)" fill="#522a68"/>
                    <path id="Trazado_796689" data-name="Trazado 796689" d="M150.029,205.408l-1.879-7.616c-.547-2.217-4.027-1.67-3.54.607.517,2.436,1.044,4.862,1.561,7.3.288,1.362.716,4.106,2.754,3.739,1.9-.338,1.412-2.774,1.1-4.027Z" transform="translate(-6.948 -140.785)" fill="#522a68"/>
                    <path id="Trazado_796690" data-name="Trazado 796690" d="M101.152,212.54c-.249-3.013-1.521-6.065-2.257-9.008-.756-3.013-1.382-6.035-1.849-9.118-.259-1.7-2.605-1.173-2.545.437.219,5.826.388,13.542,3.44,18.693a1.708,1.708,0,0,0,3.221-.994Z" transform="translate(-6.661 -140.768)" fill="#522a68"/>
                    <path id="Trazado_796691" data-name="Trazado 796691" d="M22.245,150.383,19.113,141.4c-.676-1.929-3.5-.587-2.873,1.322.925,2.844,1.859,5.687,2.784,8.521.736,2.257,1.114,4.971,3.122,6.423a.945.945,0,0,0,1.422-.418C24.273,154.917,23.02,152.61,22.245,150.383Z" transform="translate(-6.213 -140.465)" fill="#522a68"/>
                    <path id="Trazado_796692" data-name="Trazado 796692" d="M12.156,193.283q-1.536-4.534-3.082-9.068c-.646-1.909-3.43-.577-2.834,1.3.915,2.854,1.82,5.717,2.734,8.571.8,2.5,1.243,5.488,2.983,7.487a1.235,1.235,0,0,0,2.158-.656c.209-2.635-1.133-5.17-1.969-7.636Z" transform="translate(-6.156 -140.71)" fill="#522a68"/>
                  </g>
                </g>
              </g>
            </g>
            <g id="Grupo_1063964" data-name="Grupo 1063964" transform="translate(0 609.512)">
              <path id="Trazado_796693" data-name="Trazado 796693" d="M853.815,401.778H-334.85V269.956A5282.14,5282.14,0,0,1,853.815,238.527V401.778Z" transform="translate(334.85 -218.847)" fill="#66b892"/>
              <g id="Grupo_1063963" data-name="Grupo 1063963" transform="translate(376.932 20.042)">
                <g id="Grupo_1063957" data-name="Grupo 1063957" transform="translate(11.966 126.204)">
                  <path id="Trazado_796694" data-name="Trazado 796694" d="M62.256,373.506,59.541,367c-.785-1.889-3.917-1.074-3.132.855.945,2.307,1.889,4.623,2.834,6.93.726,1.77,1.143,3.977,2.883,4.991a1.115,1.115,0,0,0,1.621-.656c.537-1.969-.746-3.818-1.491-5.618Z" transform="translate(-56.284 -365.933)" fill="#522a68"/>
                  <path id="Trazado_796695" data-name="Trazado 796695" d="M71.075,367.806a22.807,22.807,0,0,0-2.068,5.518c-.358,1.611-.984,3.838.1,5.24a1.278,1.278,0,0,0,2.158,0c.935-1.213.616-2.933.855-4.395a19.05,19.05,0,0,1,1.511-4.882c.776-1.69-1.67-3.192-2.555-1.481Z" transform="translate(-56.354 -365.939)" fill="#522a68"/>
                  <path id="Trazado_796696" data-name="Trazado 796696" d="M81.942,372.889a11.03,11.03,0,0,0-4.773,7.03c-.418,2.346,3.192,3.351,3.609.994a9.249,9.249,0,0,1,3-5.648c1.283-1.124-.418-3.361-1.839-2.376Z" transform="translate(-56.403 -365.971)" fill="#522a68"/>
                </g>
                <g id="Grupo_1063958" data-name="Grupo 1063958" transform="translate(0 27.161)">
                  <path id="Trazado_796697" data-name="Trazado 796697" d="M50.086,274.708c-.845-2.426-2.565-4.663-3.888-6.871a1.041,1.041,0,0,0-1.8,1.044c1.293,2.217,2.426,4.792,4.146,6.711a.922.922,0,0,0,1.531-.885Z" transform="translate(-44.249 -266.326)" fill="#522a68"/>
                  <path id="Trazado_796698" data-name="Trazado 796698" d="M54.628,267.046c-.457,1.253-.9,2.506-1.362,3.758-.4,1.1-.974,2.356-.5,3.5a1.169,1.169,0,0,0,1.909.507c.974-.756,1.094-2.108,1.283-3.261.219-1.312.447-2.635.666-3.947a1.042,1.042,0,0,0-2.008-.547Z" transform="translate(-44.297 -266.32)" fill="#522a68"/>
                  <path id="Trazado_796699" data-name="Trazado 796699" d="M61.439,269.107c-1.521,1.541-4.3,3.679-3.55,6.125a.95.95,0,0,0,.885.666c2.545.179,4.047-3.043,5.21-4.832,1-1.551-1.273-3.251-2.545-1.959Z" transform="translate(-44.326 -266.334)" fill="#522a68"/>
                </g>
                <g id="Grupo_1063959" data-name="Grupo 1063959" transform="translate(165.807)">
                  <path id="Trazado_796700" data-name="Trazado 796700" d="M218.944,245.036c-1.8-1.909-3.729-3.7-5.6-5.538a1.368,1.368,0,0,0-1.939,1.929c1.829,1.879,3.6,3.828,5.5,5.638A1.439,1.439,0,0,0,218.944,245.036Z" transform="translate(-211.009 -239.004)" fill="#522a68"/>
                  <path id="Trazado_796701" data-name="Trazado 796701" d="M224.29,242.888c-.02-.805-.119-1.621-.2-2.426a1.523,1.523,0,0,0-3.042,0c-.08.805-.179,1.611-.2,2.426a3.123,3.123,0,0,0,.636,2.535,1.555,1.555,0,0,0,2.168,0A3.123,3.123,0,0,0,224.29,242.888Z" transform="translate(-211.066 -239.004)" fill="#522a68"/>
                  <path id="Trazado_796702" data-name="Trazado 796702" d="M229.579,242.125a37.43,37.43,0,0,0-1.9,4.285c-.706,2.028,2.585,3.45,3.52,1.472a36.383,36.383,0,0,0,1.651-4.385c.616-1.9-2.366-3.192-3.271-1.372Z" transform="translate(-211.104 -239.017)" fill="#522a68"/>
                </g>
                <g id="Grupo_1063960" data-name="Grupo 1063960" transform="translate(285.426 50.451)">
                  <path id="Trazado_796703" data-name="Trazado 796703" d="M338.031,297.058a14.349,14.349,0,0,0-3.569-6.692c-1.621-1.839-4.216.815-2.675,2.665a15.028,15.028,0,0,1,2.506,5.051,1.945,1.945,0,0,0,3.748-1.024Z" transform="translate(-331.316 -289.745)" fill="#522a68"/>
                  <path id="Trazado_796704" data-name="Trazado 796704" d="M345.886,291.814a1.562,1.562,0,0,0-2.814-.368c-.487.835-.646,1.8-1.114,2.655a19.6,19.6,0,0,1-1.591,2.525c-1.422,1.889,1.8,4.385,3.311,2.535C345.22,297.272,346.712,294.319,345.886,291.814Z" transform="translate(-331.366 -289.751)" fill="#522a68"/>
                  <path id="Trazado_796705" data-name="Trazado 796705" d="M350.605,294.967c-1.561,1.631-3.361,3.182-4.226,5.3-.646,1.581,1.5,3,2.834,2.168,1.909-1.193,3.122-3.351,4.434-5.14s-1.551-3.9-3.042-2.337Z" transform="translate(-331.402 -289.772)" fill="#522a68"/>
                </g>
                <g id="Grupo_1063961" data-name="Grupo 1063961" transform="translate(188.127 125.355)">
                  <path id="Trazado_796706" data-name="Trazado 796706" d="M235.757,367.618c-1.084-.964-2.923.268-2.088,1.6a14.7,14.7,0,0,1,2.267,5.906c.109.964,0,1.939.945,2.526a1.661,1.661,0,0,0,1.74,0,1.68,1.68,0,0,0,.855-1.481,11.124,11.124,0,0,0-3.709-8.551Z" transform="translate(-233.458 -365.092)" fill="#522a68"/>
                  <path id="Trazado_796707" data-name="Trazado 796707" d="M245.887,365.935c-.338-1.024-2.128-1.253-2.327,0a40.688,40.688,0,0,1-1.511,7.4,1.738,1.738,0,0,0,.457,1.71,1.444,1.444,0,0,0,1.253.517,1.837,1.837,0,0,0,1.7-1.293A13.225,13.225,0,0,0,245.887,365.935Z" transform="translate(-233.506 -365.079)" fill="#522a68"/>
                  <path id="Trazado_796708" data-name="Trazado 796708" d="M255.558,368.838c-3.092,2.058-6.493,5.379-7.328,9.128-.487,2.2,2.6,3.689,3.768,1.581a49.266,49.266,0,0,1,2.287-4.365,16.181,16.181,0,0,1,3.44-3.55c1.591-1.243-.487-3.917-2.168-2.794Z" transform="translate(-233.542 -365.099)" fill="#522a68"/>
                </g>
                <g id="Grupo_1063962" data-name="Grupo 1063962" transform="translate(118.325 71.97)">
                  <path id="Trazado_796709" data-name="Trazado 796709" d="M169.216,320.81a56.2,56.2,0,0,0-2.774-7.537c-.716-1.889-3.758-1.124-3.092.845a58.229,58.229,0,0,0,2.824,7.964c.895,1.74,3.43.487,3.042-1.273Z" transform="translate(-163.255 -311.392)" fill="#522a68"/>
                  <path id="Trazado_796710" data-name="Trazado 796710" d="M175.525,312.086c-1.7,2.287-3.291,6.015-2.138,8.859.6,1.462,3.162,1.979,3.53,0,.467-2.526.1-4.882,1.263-7.308a1.539,1.539,0,0,0-2.655-1.551Z" transform="translate(-163.31 -311.387)" fill="#522a68"/>
                  <path id="Trazado_796711" data-name="Trazado 796711" d="M188.193,313.956c-1.929,2.028-4.047,3.987-5.827,6.145-1.74,2.118,1.094,5.111,3.082,3.062,1.959-2.018,3.679-4.335,5.488-6.493,1.571-1.869-.994-4.554-2.734-2.724Z" transform="translate(-163.361 -311.398)" fill="#522a68"/>
                </g>
              </g>
            </g>
          </g>
        </g>
      </g>
      <g id="Grupo_1064013" data-name="Grupo 1064013" transform="translate(27.215 45.695)">
        <g id="Grupo_1063987" data-name="Grupo 1063987" transform="translate(0 3.423)">
          <g id="Grupo_1063968" data-name="Grupo 1063968" transform="translate(0 240.028)">
            <path id="Trazado_796712" data-name="Trazado 796712" d="M175.179,286.505c0,4.3-33.537,7.765-74.909,7.765s-74.909-3.48-74.909-7.765,33.537-7.765,74.909-7.765S175.179,282.22,175.179,286.505Z" transform="translate(-25.36 -278.74)" fill="#4c9e75" opacity="0.61"/>
            <path id="Trazado_796713" data-name="Trazado 796713" d="M210.113,297.656c0,4.246-18.175,7.686-40.6,7.686s-40.6-3.44-40.6-7.686,18.175-7.686,40.6-7.686S210.113,293.41,210.113,297.656Z" transform="translate(-25.952 -278.804)" fill="#4c9e75" opacity="0.61"/>
          </g>
          <g id="Grupo_1063986" data-name="Grupo 1063986" transform="translate(9.189)">
            <g id="Grupo_1063970" data-name="Grupo 1063970" transform="translate(106.317 189.588)">
              <g id="Grupo_1063969" data-name="Grupo 1063969" transform="translate(27.138 47.21)">
                <path id="Trazado_796714" data-name="Trazado 796714" d="M172.837,299.1c5.4-.855,32.105-14.308,31.628-20.671a2.443,2.443,0,0,0-.676-1.541c-1.81-1.939-7.736-1.521-13.2-.607s-10.48,2.317-10.48,2.317l-11.056,9.108s-.9,6.9.915,9.983a2.633,2.633,0,0,0,2.854,1.422Z" transform="translate(-168.824 -275.492)" fill="#929293"/>
                <path id="Trazado_796715" data-name="Trazado 796715" d="M172.844,299.112c5.4-.855,32.105-14.308,31.628-20.671a2.443,2.443,0,0,0-.676-1.541c-4.087,4.474-15.093,14.656-33.816,20.8a2.633,2.633,0,0,0,2.854,1.422Z" transform="translate(-168.83 -275.5)" fill="#30202d"/>
                <path id="Trazado_796716" data-name="Trazado 796716" d="M182.74,283.064a9.924,9.924,0,0,1,1.362-5.777.9.9,0,0,1,1.67.656,10.552,10.552,0,0,0-1.044,4.753c.129,1.332-1.829,1.72-1.989.368Z" transform="translate(-168.903 -275.499)" fill="#30202d"/>
                <path id="Trazado_796717" data-name="Trazado 796717" d="M186.18,282.076a17.245,17.245,0,0,1,1.491-5.4.956.956,0,0,1,1.78.7,17.319,17.319,0,0,0-1.233,4.9,1.029,1.029,0,1,1-2.048-.2Z" transform="translate(-168.923 -275.495)" fill="#30202d"/>
                <path id="Trazado_796718" data-name="Trazado 796718" d="M189.76,281.665a13.569,13.569,0,0,1,1.6-5.866.729.729,0,0,1,1.312.507c-.219,1.869-.825,3.649-.994,5.548a.964.964,0,1,1-1.919-.189Z" transform="translate(-168.943 -275.492)" fill="#30202d"/>
              </g>
              <path id="Trazado_796719" data-name="Trazado 796719" d="M181.928,277.8c-4.226,4.763-7.815,7.716-13.085,9.913,0,0-4.484-8.322-9.058-16.6s-9.207-16.515-9.207-16.515l-1.511-2.655-.03-.06-7.5-13.1,18.006-10.758,6.662,14.338.05.089,1.273,2.794s3.639,8.123,7.278,16.257c3.569,8.153,7.129,16.306,7.129,16.306Z" transform="translate(-141.53 -228.01)" fill="#ff9982"/>
              <path id="Trazado_796720" data-name="Trazado 796720" d="M166.238,242.447a136.946,136.946,0,0,1-17.181,9.485l-.03-.06-7.5-13.1,18.006-10.758,6.662,14.338.05.089Z" transform="translate(-141.53 -228.01)" fill="#df4f67"/>
            </g>
            <g id="Grupo_1063972" data-name="Grupo 1063972" transform="translate(11.351 175.47)">
              <g id="Grupo_1063971" data-name="Grupo 1063971" transform="translate(0 52.717)">
                <path id="Trazado_796721" data-name="Trazado 796721" d="M88.178,283.236c-5.767,1.949-39.085,2.635-41.919-3.908a2.77,2.77,0,0,1-.139-1.869c.776-2.854,6.831-5.528,12.7-7.467S70.35,266.83,70.35,266.83l15.63,3.231s4.474,6.334,4.285,10.3a2.909,2.909,0,0,1-2.078,2.874Z" transform="translate(-46.018 -266.83)" fill="#929293"/>
                <path id="Trazado_796722" data-name="Trazado 796722" d="M88.178,283.3c-5.767,1.949-39.085,2.635-41.919-3.908a2.77,2.77,0,0,1-.139-1.869c6.353,2.287,22.491,6.592,44.136,2.9a2.909,2.909,0,0,1-2.078,2.874Z" transform="translate(-46.018 -266.891)" fill="#30202d"/>
                <path id="Trazado_796723" data-name="Trazado 796723" d="M70.255,272.56a11.142,11.142,0,0,0-4.345-4.991c-1.054-.736-2.337.607-1.312,1.511a11.633,11.633,0,0,1,3.5,4.146c.567,1.382,2.695.746,2.158-.666Z" transform="translate(-46.122 -266.833)" fill="#30202d"/>
                <path id="Trazado_796724" data-name="Trazado 796724" d="M66.345,273.362a19,19,0,0,0-4.285-4.544c-1.1-.845-2.5.686-1.392,1.621a19.817,19.817,0,0,1,3.758,4.186,1.142,1.142,0,1,0,1.909-1.253Z" transform="translate(-46.1 -266.84)" fill="#30202d"/>
                <path id="Trazado_796725" data-name="Trazado 796725" d="M62.617,274.821a15.349,15.349,0,0,0-4.623-4.961.809.809,0,0,0-1.024,1.183c1.183,1.73,2.714,3.172,3.858,4.961A1.073,1.073,0,1,0,62.617,274.821Z" transform="translate(-46.08 -266.847)" fill="#30202d"/>
              </g>
              <path id="Trazado_796726" data-name="Trazado 796726" d="M68.26,267.034a43.106,43.106,0,0,0,13.274,3.082c1.084.05,2.168.04,3.241-.01.229-.01,1.352.07,1.531-.109.04-.04-.01-.229,0-.278a6.559,6.559,0,0,0,.02-1.531c.01-1.034.02-2.078.04-3.112q.075-7.129.259-14.258c.06-2.436.05-4.912.249-7.338a3.365,3.365,0,0,1,.288-1.322,2.769,2.769,0,0,1,.994-.825c1.6-1.064,3.072-2.287,4.723-3.311a57.532,57.532,0,0,1,5.638-3.112c-3.48-6.96-6.96-13.95-10.032-21.1-6.582,3.858-13.244,8.61-17.967,14.7a20.612,20.612,0,0,0-3.291,5.807c-.845,2.426-.666,4.991-.577,7.517.2,5.359.577,10.718.945,16.068.219,3.042.437,6.095.686,9.137Z" transform="translate(-46.136 -213.81)" fill="#ff9982"/>
              <path id="Trazado_796727" data-name="Trazado 796727" d="M73.82,224.847c4.285,5.926,9.416,11.146,14.4,16.465l.03-.03s.447-.368,1.263-.974,2.038-1.452,3.391-2.277,2.784-1.641,3.868-2.217,1.77-.895,1.77-.895-2.615-5.22-5.13-10.49c-1.263-2.635-2.5-5.28-3.41-7.268s-1.491-3.331-1.491-3.331-.259.149-.716.418c-.437.258-1.044.636-1.76,1.094-1.442.915-3.321,2.187-5.14,3.54s-3.589,2.794-4.872,3.937-2.1,1.959-2.1,1.959l-.089.08Z" transform="translate(-46.177 -213.81)" fill="#df4f67"/>
            </g>
            <g id="Grupo_1063973" data-name="Grupo 1063973" transform="translate(0 58.501)">
              <path id="Trazado_796728" data-name="Trazado 796728" d="M57.449,115.817s1.67-2.307,3.212-4.574c1.531-2.3,2.953-4.574,1.949-5.18s-2.6.189-3.927,1.193a17.4,17.4,0,0,0-2.386,2.227s.07-2.963-.04-5.976c-.139-3.023-.428-6.085-1.959-6.522-1.044-.318-1.82,1.621-2.217,3.748a27.477,27.477,0,0,0-.447,4.325s-.666-2.227-1.541-4.474S48.132,96.1,46.85,96.17c-1.3.089-1.581,2.575-1.4,5a30.669,30.669,0,0,0,.776,4.792s-1.3-1.939-2.724-3.858c-1.432-1.9-3-3.848-3.878-3.381-1.571.865-1.243,3.48-.418,5.777a23.337,23.337,0,0,0,2.1,4.3,31.826,31.826,0,0,0-2.426-2.675c-1.312-1.273-2.854-2.446-3.848-1.74s-.1,3.46,1.163,5.926a37.556,37.556,0,0,0,2.864,4.663,11.882,11.882,0,0,0,.487,3.3,7.249,7.249,0,0,0,3.768,4.782c2.108.935,5.27.01,8.054-1.571s5.28-3.778,6.095-5.657Z" transform="translate(-34.602 -96.168)" fill="#ff9982"/>
              <path id="Trazado_796729" data-name="Trazado 796729" d="M55.568,109.558a6.064,6.064,0,0,0-4.126-.07,5.051,5.051,0,0,0-.994.467,5.42,5.42,0,0,0-2.108,2.277.482.482,0,0,0,.219.646.471.471,0,0,0,.636-.219,4.7,4.7,0,0,1,1.75-1.909,4.855,4.855,0,0,1,.825-.4,5.077,5.077,0,0,1,3.45.03.494.494,0,0,0,.616-.259.421.421,0,0,0-.249-.577Z" transform="translate(-34.68 -96.243)" fill="#4a1813"/>
              <path id="Trazado_796730" data-name="Trazado 796730" d="M93.233,138.272q.865,7.7,1.72,15.391l.239,2.177c-9.724.607-19.8-.527-28.874-4.226-11.285-4.6-18.424-16.018-22.461-26.995-.109-.308-.607-1.253-.418-1.481.169-.209.8-.338,1.054-.447q2.252-.955,4.514-1.909c2.426-1.024,4.852-2.018,7.288-3.023,2.416,5.876,5.727,11.772,10.7,15.869a19.41,19.41,0,0,0,3.8,2.525,20.811,20.811,0,0,0,4.434,1.362A51.579,51.579,0,0,0,84.3,138.7a52.7,52.7,0,0,0,8.939-.428Z" transform="translate(-34.652 -96.292)" fill="#ff9982"/>
              <path id="Trazado_796731" data-name="Trazado 796731" d="M93.459,138.39l1.969,17.569s-.815.05-2.028.129c-1.213.05-2.814.1-4.385.05-3.152-.07-6.2-.437-6.2-.437l1.481-16.893s2.347.119,4.653.01c1.153-.04,2.287-.149,3.132-.249s1.392-.179,1.392-.179Z" transform="translate(-34.877 -96.41)" fill="#df4f67"/>
            </g>
            <g id="Grupo_1063974" data-name="Grupo 1063974" transform="translate(140.043 70.319)">
              <path id="Trazado_796732" data-name="Trazado 796732" d="M227.708,119.8s.447-2.973,1.084-5.846c.626-2.913,1.472-5.648,2.675-5.4,1.223.278,1.75,2.068,1.939,3.818a17.757,17.757,0,0,1,.02,3.43s.567-.557,1.422-1.392,2.048-1.9,3.251-2.973c2.476-2.088,5.071-4.047,6.493-3.172.974.577.01,2.555-1.352,4.355a24.615,24.615,0,0,1-2.018,2.4c-.587.636-1,1.044-1,1.044s.547-.278,1.382-.666,1.979-.885,3.152-1.342c2.356-.9,4.852-1.641,5.687-.6.845,1.064-.885,3.013-2.864,4.574a27.912,27.912,0,0,1-2.834,1.979c-.805.5-1.352.805-1.352.805s.6-.089,1.5-.229c.9-.119,2.118-.278,3.351-.408,2.466-.219,5.041-.368,5.3.636a2.6,2.6,0,0,1-1,2.486,11.2,11.2,0,0,1-3.052,1.849,27.38,27.38,0,0,1-3.192,1.074,14.222,14.222,0,0,1-1.472.328s.457-.03,1.153-.05a24.757,24.757,0,0,1,2.555.02c1.879.129,3.838.5,4.007,1.75s-2.486,2.456-5.16,3.212c-1.342.378-2.675.686-3.679.865s-1.68.259-1.68.259a12.4,12.4,0,0,1-2.615,2.008,7.226,7.226,0,0,1-5.936.736c-2.177-.845-4-3.719-5.071-6.89s-1.432-6.6-.646-8.67Z" transform="translate(-175.747 -108.055)" fill="#ff9982"/>
              <path id="Trazado_796733" data-name="Trazado 796733" d="M234.056,116.47a6.244,6.244,0,0,1,3.082,3.023,6.091,6.091,0,0,1,.378,1.084,5.651,5.651,0,0,1-.159,3.221.5.5,0,0,1-.636.308.492.492,0,0,1-.308-.626,4.93,4.93,0,0,0,.139-2.685,4.856,4.856,0,0,0-.308-.9,5.2,5.2,0,0,0-2.555-2.535.5.5,0,0,1-.259-.646.452.452,0,0,1,.626-.239Z" transform="translate(-175.781 -108.103)" fill="#4a1813"/>
              <path id="Trazado_796734" data-name="Trazado 796734" d="M175.46,135.464l1.422,18.364,5.9-.835c.736-.109,1.472-.209,2.158-.308s1.312-.259,1.859-.358c1.084-.219,1.81-.368,1.81-.368s.746-.149,2.038-.418c.646-.139,1.432-.3,2.337-.487s1.889-.487,2.983-.776c2.168-.607,4.753-1.193,7.4-2.108,1.332-.437,2.714-.885,4.106-1.332s2.774-1.024,4.176-1.531c1.382-.537,2.794-1.034,4.136-1.6s2.655-1.143,3.937-1.69q.955-.418,1.879-.805l1.76-.835c1.143-.547,2.227-1.064,3.221-1.541,2-.955,3.6-1.859,4.753-2.436l1.79-.935-6.135-13.274s-.616.3-1.71.776-2.645,1.193-4.534,1.969c-3.8,1.521-8.869,3.51-14.079,5.031-1.3.378-2.585.815-3.868,1.143s-2.555.646-3.788.955c-2.436.676-4.773,1.034-6.741,1.452-.984.189-1.889.388-2.695.517-.805.109-1.511.209-2.1.288l-1.82.249s-.636.089-1.591.219c-.477.06-1.034.159-1.631.209s-1.243.089-1.879.139l-5.1.378Z" transform="translate(-175.45 -108.136)" fill="#ff9982"/>
              <path id="Trazado_796735" data-name="Trazado 796735" d="M175.46,135.535l1.422,18.364,5.9-.835c.736-.109,1.472-.209,2.158-.308s1.312-.259,1.859-.358c1.084-.219,1.81-.368,1.81-.368l-2.943-17.43s-.636.089-1.591.219c-.477.06-1.034.159-1.631.209s-1.243.089-1.879.139l-5.1.378Z" transform="translate(-175.45 -108.207)" fill="#df4f67"/>
            </g>
            <path id="Trazado_796736" data-name="Trazado 796736" d="M168.538,235.223c-8.541,6.254-19.577,9.615-32.274,11.046l-13.274-17.957-15.978,11.832-3.341,2.476c-9.187-3.858-18.454-14.049-27.731-25.394l4.007-2.933,18.424-13.473,2.177-1.581,54.855,5.767.348.8,12.777,29.421Z" transform="translate(-34.838 -38.257)" fill="#522a68"/>
            <path id="Trazado_796737" data-name="Trazado 796737" d="M155.89,205.8c-7.139,1.79-36.391,7.944-57.38-4.971l2.177-1.581,54.855,5.767.348.8Z" transform="translate(-34.967 -38.257)" fill="#321544"/>
            <g id="Grupo_1063976" data-name="Grupo 1063976" transform="translate(58.436 158.626)">
              <g id="Grupo_1063975" data-name="Grupo 1063975" transform="translate(29.375 2.264)">
                <path id="Trazado_796738" data-name="Trazado 796738" d="M123.328,227.815a.5.5,0,0,1-.408-.547l3.092-27.671a.5.5,0,0,1,.557-.447.49.49,0,0,1,.447.557l-3.092,27.671a.5.5,0,0,1-.557.447h-.03Z" transform="translate(-122.917 -199.147)" fill="#321544"/>
                <path id="Trazado_796739" data-name="Trazado 796739" d="M124.845,219.165c-.159-.03-.308-.07-.447-.1a.509.509,0,0,1-.348-.616.518.518,0,0,1,.616-.348c.139.04,3.3.895,4.156-1.959.974-3.281,1.581-16.316,1.581-16.455a.5.5,0,0,1,1,.05c-.02.537-.607,13.294-1.621,16.694a4.056,4.056,0,0,1-4.942,2.744Z" transform="translate(-122.923 -199.147)" fill="#321544"/>
              </g>
              <path id="Trazado_796740" data-name="Trazado 796740" d="M157.172,214.328a4.571,4.571,0,0,1-1.79-.766c-3.758-2.655-4.822-10.818-4.862-11.166a.5.5,0,0,1,.437-.557.5.5,0,0,1,.557.438c0,.08,1.054,8.074,4.444,10.47a3.337,3.337,0,0,0,2.774.567.5.5,0,0,1,.209.984,4.314,4.314,0,0,1-1.78.04Z" transform="translate(-93.7 -196.898)" fill="#321544"/>
              <path id="Trazado_796741" data-name="Trazado 796741" d="M95.219,206.236a4.315,4.315,0,0,1-1.621-.666.5.5,0,0,1-.139-.7.507.507,0,0,1,.7-.139,3.443,3.443,0,0,0,3.162.328c3.729-1.253,7.417-7.04,7.716-7.785a.5.5,0,0,1,.994.07c.03.666-3.51,6.035-7.04,8.054a5.577,5.577,0,0,1-3.778.845Z" transform="translate(-93.373 -196.87)" fill="#321544"/>
            </g>
            <path id="Trazado_796742" data-name="Trazado 796742" d="M156.114,193.084l-.626,11.544c-16.535,2.516-35.029.07-54.855-5.767l6.145-22.57,2.814-10.35-20.651-.05.1-30.047,15.481-.756,69.331-3.4L183,131.23l-.547,28.954-24.738,3.311-1.6,29.59Z" transform="translate(-34.912 -37.868)" fill="#e9b40f"/>
            <path id="Trazado_796743" data-name="Trazado 796743" d="M173.941,131.68c-5.329,5.926-19.16,14.626-38.121,15.978A37.19,37.19,0,0,1,104.61,135.08l69.331-3.4Z" transform="translate(-35.002 -37.871)" fill="#d69f07"/>
            <g id="Grupo_1063977" data-name="Grupo 1063977" transform="translate(85.061 92.249)">
              <path id="Trazado_796744" data-name="Trazado 796744" d="M134.756,145.869c.626-.646-12.051-3.072-14.566,1.094,0,0-.746-14.208,4.4-16.346s7.9,3.192,7.9,3.192l2.257,12.061Z" transform="translate(-120.152 -130.111)" fill="#e9b40f"/>
              <path id="Trazado_796745" data-name="Trazado 796745" d="M136.42,145.831s3.888-13.393,4.8-13.612,7.517.02,8.879,2.287,1.67,12.6,1.67,12.6a19.568,19.568,0,0,0-15.362-1.273Z" transform="translate(-120.245 -130.123)" fill="#e9b40f"/>
              <path id="Trazado_796746" data-name="Trazado 796746" d="M125.22,133.67s4.206,11.315,9.565,12.22,11.842-9.993,11.842-9.993L125.22,133.67Z" transform="translate(-120.181 -130.132)" fill="#df4f67"/>
            </g>
            <g id="Grupo_1063985" data-name="Grupo 1063985" transform="translate(49.263)">
              <g id="Grupo_1063979" data-name="Grupo 1063979" transform="translate(84.187 67.818)">
                <path id="Trazado_796747" data-name="Trazado 796747" d="M187.99,113.653c-.249,4.792-4.743,8.939-10.032,9.267s-9.376-3.3-9.128-8.093,4.743-8.939,10.042-9.267,9.376,3.3,9.128,8.093Z" transform="translate(-168.819 -105.539)" fill="#ff9982"/>
                <g id="Grupo_1063978" data-name="Grupo 1063978" transform="translate(3.729 6.512)">
                  <path id="Trazado_796748" data-name="Trazado 796748" d="M172.57,117.29c.457-.587,3.391-8.531,11.206-3.589" transform="translate(-172.57 -112.089)" fill="none" stroke="#4a1813" stroke-linecap="round" stroke-linejoin="round" stroke-width="1.17"/>
                  <path id="Trazado_796749" data-name="Trazado 796749" d="M180.222,118.451s-.815-5.131-4.832-4.981" transform="translate(-172.586 -112.097)" fill="none" stroke="#4a1813" stroke-linecap="round" stroke-linejoin="round" stroke-width="1.17"/>
                </g>
              </g>
              <path id="Trazado_796750" data-name="Trazado 796750" d="M180.808,89.908a42.819,42.819,0,1,0-83.719,9.734,36.371,36.371,0,0,1,1.2,13.622c-.7,8.282,4.087,22.043,36.629,24.082,33.12,2.078,39.7-9.476,39.95-17.8A50.652,50.652,0,0,1,178,102.695,42.729,42.729,0,0,0,180.8,89.908Z" transform="translate(-84.212 -37.372)" fill="#ff9982"/>
              <path id="Trazado_796751" data-name="Trazado 796751" d="M99.15,106.52s12.965-21.4,12.18-32.6c0,0,35.237,9.843,57.47,3.967,0,0,8.282,16.764,9.227,24.857,0,0,8.8-31.738-1.939-38.459s-60.641-13.035-65.036-8.392S92.468,93.733,99.15,106.52Z" transform="translate(-84.224 -37.428)" fill="#df4f67"/>
              <path id="Trazado_796752" data-name="Trazado 796752" d="M176.961,105.637c.736-6.2-4.663-32.871-4.663-32.871-44.971,3.043-65.225-5.5-65.225-5.5,2.953,18.533-8.67,40.626-8.67,40.626-20-35.695,2.456-47.209,2.456-47.209a24.832,24.832,0,0,1,4.554-13.274c5.707-7.885,18.543-14.775,47.477-5.946,28.606,8.73,33.07,27.2,31.27,42.1a64.169,64.169,0,0,1-7.189,22.073Z" transform="translate(-84.182 -37.331)" fill="#30202d"/>
              <path id="Trazado_796753" data-name="Trazado 796753" d="M184.237,83.564c-3.132-12.438-12.478-25.394-37.9-35.655-20.93-8.441-33.885-4.743-40.845-.5,5.707-7.885,18.543-14.775,47.477-5.946C181.573,50.2,186.037,68.67,184.237,83.564Z" transform="translate(-84.27 -37.331)" fill="#b15941" opacity="0.35"/>
              <g id="Grupo_1063980" data-name="Grupo 1063980" transform="translate(45.436 81.893)">
                <path id="Trazado_796754" data-name="Trazado 796754" d="M147.856,131.363c-1.76,1.82-4.673,3.013-9.237,2.446-4.961-.607-7.358-2.784-8.282-5.26a9.009,9.009,0,0,1,1.064-7.934c.5-.676,1.034-1.024,1.462-.875,1.81.656,14.3,2.655,15.889,2.337a.751.751,0,0,1,.736.358c1.064,1.312,1.253,5.956-1.631,8.929Z" transform="translate(-129.846 -119.696)" fill="#4a1813"/>
                <path id="Trazado_796755" data-name="Trazado 796755" d="M147.859,131.4c-1.76,1.82-4.673,3.013-9.237,2.446-4.961-.607-7.358-2.784-8.282-5.26a15.539,15.539,0,0,1,7.865-2.5,11.1,11.1,0,0,1,8.949,4.256,11.444,11.444,0,0,1,.706,1.054Z" transform="translate(-129.848 -119.732)" fill="#bd6455"/>
                <path id="Trazado_796756" data-name="Trazado 796756" d="M149.5,122.424a4.95,4.95,0,0,1-1.959,1.084,16.6,16.6,0,0,1-4.733.616,19.914,19.914,0,0,1-7.576-1,10.735,10.735,0,0,1-3.818-2.516c.5-.676,1.034-1.024,1.462-.875,1.81.656,14.3,2.655,15.889,2.337A.751.751,0,0,1,149.5,122.424Z" transform="translate(-129.855 -119.696)" fill="#fff"/>
              </g>
              <g id="Grupo_1063982" data-name="Grupo 1063982" transform="translate(0 66.585)">
                <path id="Trazado_796757" data-name="Trazado 796757" d="M84.568,114.849c1.561,4.534,7.02,7.288,12.2,6.145s8.1-5.747,6.552-10.291-7.02-7.288-12.2-6.145-8.113,5.747-6.552,10.291Z" transform="translate(-84.148 -104.3)" fill="#ff9982"/>
                <g id="Grupo_1063981" data-name="Grupo 1063981" transform="translate(3.999 6.272)">
                  <path id="Trazado_796758" data-name="Trazado 796758" d="M99.057,113.086c-.6-.437-5.618-5.508-10.887.259" transform="translate(-88.17 -110.608)" fill="none" stroke="#4a1813" stroke-linecap="round" stroke-linejoin="round" stroke-width="1.17"/>
                  <path id="Trazado_796759" data-name="Trazado 796759" d="M92.91,116.837s-.885-4.842,3.013-5.807" transform="translate(-88.197 -110.61)" fill="none" stroke="#4a1813" stroke-linecap="round" stroke-linejoin="round" stroke-width="1.17"/>
                </g>
              </g>
              <path id="Trazado_796760" data-name="Trazado 796760" d="M142.67,110.05l.318,4.852s3.221-.487,3.719,1-2.655,2.416-2.655,2.416" transform="translate(-84.483 -37.747)" fill="none" stroke="#4a1813" stroke-linecap="round" stroke-linejoin="round" stroke-width="1.17"/>
              <path id="Trazado_796761" data-name="Trazado 796761" d="M168.321,103.583s-4.454-10.708-13.811-5.906C154.51,97.677,165.7,85.686,168.321,103.583Z" transform="translate(-84.551 -37.654)" fill="#dd541d"/>
              <path id="Trazado_796762" data-name="Trazado 796762" d="M132.174,97.057s-9.336-6.88-14.884,2.058C117.29,99.115,120.7,83.077,132.174,97.057Z" transform="translate(-84.338 -37.64)" fill="#dd541d"/>
              <g id="Grupo_1063983" data-name="Grupo 1063983" transform="translate(34.292 63.692)">
                <path id="Trazado_796763" data-name="Trazado 796763" d="M154.63,109.862c.467.487,2.883-2.655,6.8-2.575,3.609.07,5.727,2.8,6.125,2.376.527-.567-2.138-6.443-6.572-6.373-4.415.07-6.93,5.986-6.353,6.582Z" transform="translate(-118.843 -101.4)" fill="#00112f"/>
                <path id="Trazado_796764" data-name="Trazado 796764" d="M118.72,107.972c.467.487,2.883-2.655,6.8-2.575,3.609.07,5.727,2.8,6.125,2.376.527-.567-2.148-6.443-6.572-6.383s-6.93,5.986-6.353,6.582Z" transform="translate(-118.638 -101.39)" fill="#00112f"/>
              </g>
              <g id="Grupo_1063984" data-name="Grupo 1063984" transform="translate(11.775 54.175)">
                <path id="Trazado_796765" data-name="Trazado 796765" d="M158.315,124.969c-.437-.08-.865-.179-1.3-.3a15.991,15.991,0,1,1,1.293.288Zm5.349-29.262a13.915,13.915,0,1,0,1.124.259c-.378-.1-.746-.189-1.124-.259Z" transform="translate(-96.273 -91.827)" fill="#522a68"/>
                <path id="Trazado_796766" data-name="Trazado 796766" d="M118.205,123.329c-.437-.08-.865-.179-1.3-.3a15.893,15.893,0,0,1-11.186-19.478,15.916,15.916,0,0,1,19.478-11.186,15.893,15.893,0,0,1,11.186,19.478h0a15.884,15.884,0,0,1-18.175,11.474Zm5.339-29.262a13.871,13.871,0,1,0,10.9,17.271h0a13.871,13.871,0,0,0-9.774-17.012c-.378-.1-.746-.189-1.124-.259Z" transform="translate(-96.043 -91.818)" fill="#522a68"/>
                <path id="Trazado_796767" data-name="Trazado 796767" d="M136.472,103.27,135.1,101.8c.06-.05,5.479-4.971,13.025.726l-1.213,1.6C140.757,99.482,136.641,103.111,136.472,103.27Z" transform="translate(-96.214 -91.863)" fill="#522a68"/>
                <rect id="Rectángulo_373480" data-name="Rectángulo 373480" width="10.788" height="2.008" transform="translate(0 13.155) rotate(-13.96)" fill="#522a68"/>
              </g>
            </g>
            <path id="Trazado_796768" data-name="Trazado 796768" d="M134.17,243.153l2.436,3.3s12.429,2.506,32.264-11.046l-1.67-3.838c-1.869,2.575-23.1,12.667-33.04,11.593Z" transform="translate(-35.171 -38.442)" fill="#321544"/>
            <path id="Trazado_796769" data-name="Trazado 796769" d="M107.021,240.231l-3.341,2.476c-9.187-3.858-18.454-14.049-27.731-25.394l4.007-2.933c4.613,5.926,16.754,20.651,27.064,25.841Z" transform="translate(-34.838 -38.344)" fill="#321544"/>
            <path id="Trazado_796770" data-name="Trazado 796770" d="M158.32,162.511c-.7-5.747-1.412-11.3.219-16.992.07-.229-.318-.358-.408-.129a30.862,30.862,0,0,0-.736,17.2c.119.567.994.527.925-.08Z" transform="translate(-35.299 -37.949)" fill="#d69f07"/>
            <path id="Trazado_796771" data-name="Trazado 796771" d="M163.559,145.779a54.674,54.674,0,0,0-3.689,13.642.375.375,0,0,0,.736.139c1.024-4.594,2.058-9.128,3.311-13.661.06-.2-.268-.308-.348-.119Z" transform="translate(-35.318 -37.951)" fill="#d69f07"/>
            <path id="Trazado_796772" data-name="Trazado 796772" d="M109.856,143.229c-.1-.4-.756-.249-.7.149.935,6.324,1.511,12.14.229,18.494a.617.617,0,0,0,1.213.219,43.659,43.659,0,0,0-.746-18.871Z" transform="translate(-35.028 -37.936)" fill="#d69f07"/>
            <path id="Trazado_796773" data-name="Trazado 796773" d="M115.606,150.85c0-.109-.149-.1-.179,0a87.08,87.08,0,0,1-3.977,11.3.465.465,0,0,0,.835.408,24.782,24.782,0,0,0,3.321-11.7Z" transform="translate(-35.041 -37.98)" fill="#d69f07"/>
            <path id="Trazado_796774" data-name="Trazado 796774" d="M156.181,193.343a65.459,65.459,0,0,1-24.708-1.9c-9.376-2.575-18.732-7.179-24.638-14.894l-6.145,22.57c19.826,5.826,38.33,8.272,54.855,5.767l.626-11.544Z" transform="translate(-34.98 -38.127)" fill="#d69f07"/>
          </g>
        </g>
        <g id="Grupo_1064012" data-name="Grupo 1064012" transform="translate(164.635)">
          <path id="Trazado_796775" data-name="Trazado 796775" d="M362.4,301.3c0,4.783-37.365,8.65-83.45,8.65s-83.45-3.878-83.45-8.65,37.365-8.65,83.45-8.65S362.4,296.528,362.4,301.3Z" transform="translate(-190.967 -35.369)" fill="#4c9e75" opacity="0.61"/>
          <g id="Grupo_1064011" data-name="Grupo 1064011">
            <g id="Grupo_1063989" data-name="Grupo 1063989" transform="translate(13.278 103.792)">
              <path id="Trazado_796776" data-name="Trazado 796776" d="M313.333,186.761l-12.041-9.247s3.4-7.02,3.112-8.521c-.974-5.131-19.031-9.128-19.458-9.118l8.849,37.057-55.909,4.4,1.124-34.6c-.239.089-14,6.781-14.715,9.137-.736,2.406,1.6,4.7,1.6,4.7l-10.987,12.18s-11.2-11.643-10.589-20.035c.557-7.6,12.727-15.352,22.62-21.884a60.539,60.539,0,0,1,22.332-8.6l14.676-2.764a70.462,70.462,0,0,1,16.2-1.124c8.531.388,31.807,7.338,40.5,22.123,4.653,7.9-7.3,26.3-7.3,26.3Z" transform="translate(-204.296 -138.277)" fill="#fc4d0a"/>
              <g id="Grupo_1063988" data-name="Grupo 1063988" transform="translate(74.824 2.83)">
                <path id="Trazado_796777" data-name="Trazado 796777" d="M280.1,141.329c-.089-.338-.626-.229-.537.119,1.342,5.538,2.187,11.742,4.375,17,.089.229.388.07.368-.139-.567-5.648-2.774-11.494-4.206-16.992Z" transform="translate(-279.55 -141.124)" fill="#ce3a0d"/>
                <path id="Trazado_796778" data-name="Trazado 796778" d="M289.115,146.769a44.6,44.6,0,0,0-4.3,11.842c-.04.209.268.328.328.109a45.13,45.13,0,0,1,4.584-11.554c.239-.418-.408-.825-.616-.408Z" transform="translate(-279.58 -141.155)" fill="#ce3a0d"/>
              </g>
              <path id="Trazado_796779" data-name="Trazado 796779" d="M239.8,147.738c-.08-.467-.805-.308-.726.159a56.711,56.711,0,0,1,.487,16.247,37.341,37.341,0,0,0-6.672-10.9c-.209-.249-.567.089-.368.338a43.726,43.726,0,0,1,6.542,11.733.363.363,0,0,0,.368.229.413.413,0,0,0,.8-.1,58.18,58.18,0,0,0-.428-17.718Z" transform="translate(-204.457 -138.33)" fill="#ce3a0d"/>
            </g>
            <g id="Grupo_1063991" data-name="Grupo 1063991" transform="translate(15.352 244.853)">
              <path id="Trazado_796780" data-name="Trazado 796780" d="M249.413,294.229c-5.528,2.734-38.876,7.895-42.615,1.71a2.766,2.766,0,0,1-.388-1.859c.4-2.963,6.115-6.463,11.742-9.207S229.3,280.15,229.3,280.15l16.117,1.143s5.349,5.747,5.687,9.764a2.935,2.935,0,0,1-1.7,3.162Z" transform="translate(-206.381 -280.15)" fill="#302427"/>
              <g id="Grupo_1063990" data-name="Grupo 1063990" transform="translate(6.799 3.471)">
                <path id="Trazado_796781" data-name="Trazado 796781" d="M229.287,285.837c-2.486-2.605-6.761-2.346-10.052-1.939-1.4.169-.915,2.327.477,2.148,2.386-.3,6.115-.646,7.944,1.273C228.631,288.343,230.272,286.871,229.287,285.837Z" transform="translate(-213.249 -283.641)" fill="#806e70"/>
                <path id="Trazado_796782" data-name="Trazado 796782" d="M224.853,288.7a16.428,16.428,0,0,0-10.8-1.73c-1.392.249-.915,2.4.477,2.148a13.962,13.962,0,0,1,9.118,1.432c1.243.666,2.456-1.183,1.2-1.849Z" transform="translate(-213.22 -283.659)" fill="#806e70"/>
              </g>
              <path id="Trazado_796783" data-name="Trazado 796783" d="M249.413,294.292c-5.528,2.734-38.876,7.895-42.615,1.71a2.766,2.766,0,0,1-.388-1.859c6.692,1.442,23.465,3.589,44.7-3.023a2.935,2.935,0,0,1-1.7,3.162Z" transform="translate(-206.381 -280.213)" fill="#806e70"/>
            </g>
            <g id="Grupo_1063993" data-name="Grupo 1063993" transform="translate(93.868 246.295)">
              <path id="Trazado_796784" data-name="Trazado 796784" d="M286.812,294.088c5.23,3.261,37.932,11.643,42.247,5.846a2.726,2.726,0,0,0,.567-1.81c-.109-2.993-5.459-7.03-10.788-10.3s-10.639-5.787-10.639-5.787l-16.157-.437s-5.886,5.2-6.612,9.167a2.938,2.938,0,0,0,1.382,3.311Z" transform="translate(-285.349 -281.6)" fill="#302427"/>
              <g id="Grupo_1063992" data-name="Grupo 1063992" transform="translate(18.378 2.728)">
                <path id="Trazado_796785" data-name="Trazado 796785" d="M318.423,287c-3.44-.05-6.88.428-9.5,2.844a1.1,1.1,0,0,0,1.481,1.631c2.187-2.018,5.051-2.317,7.9-2.277C319.726,289.217,319.845,287.02,318.423,287Z" transform="translate(-303.86 -284.358)" fill="#806e70"/>
                <path id="Trazado_796786" data-name="Trazado 796786" d="M314.747,284.37a15.7,15.7,0,0,0-10.51,3.231c-1.133.855.358,2.486,1.481,1.631a13.367,13.367,0,0,1,8.919-2.665,1.1,1.1,0,0,0,.109-2.2Z" transform="translate(-303.833 -284.343)" fill="#806e70"/>
              </g>
              <path id="Trazado_796787" data-name="Trazado 796787" d="M286.812,294.141c5.23,3.261,37.932,11.643,42.247,5.846a2.726,2.726,0,0,0,.567-1.81c-6.791.776-23.7,1.293-44.2-7.358a2.938,2.938,0,0,0,1.382,3.311Z" transform="translate(-285.349 -281.653)" fill="#806e70"/>
            </g>
            <path id="Trazado_796788" data-name="Trazado 796788" d="M248.32,132.226c.457,1.133,1.372,11.713,1.372,11.713l6.662,4.2a5.429,5.429,0,0,0,6.344-1.253l5.787-6.363-2.874-12.389-17.3,4.087Z" transform="translate(-191.269 -34.428)" fill="#8f3f36"/>
            <g id="Grupo_1064003" data-name="Grupo 1064003">
              <g id="Grupo_1063994" data-name="Grupo 1063994" transform="translate(0 88.541)">
                <path id="Trazado_796789" data-name="Trazado 796789" d="M222.1,135.478c-3.46,4.246-12.011,3-12.011,3s-2.943-8.123.517-12.369,12.011-3,12.011-3S225.564,131.232,222.1,135.478Z" transform="translate(-191.044 -122.94)" fill="#30202d"/>
                <path id="Trazado_796790" data-name="Trazado 796790" d="M214.3,145.879c-2.893,4.653-11.534,4.5-11.534,4.5s-3.957-7.686-1.064-12.339,11.534-4.5,11.534-4.5S217.195,141.226,214.3,145.879Z" transform="translate(-190.997 -123)" fill="#30202d"/>
                <path id="Trazado_796791" data-name="Trazado 796791" d="M204.522,164.451c-2.436,4.9-15.72-1.69-13.284-6.592s13.721-10.589,13.721-10.589S206.958,159.539,204.522,164.451Z" transform="translate(-190.941 -123.079)" fill="#30202d"/>
                <path id="Trazado_796792" data-name="Trazado 796792" d="M207.652,151.811c-.945,1.929-2.645,1.989-5.26.7s-3.659-2.565-2.714-4.494,2.337-1.2,4.952.089,3.967,1.78,3.023,3.709Z" transform="translate(-190.989 -123.076)" fill="#f8b2d4"/>
              </g>
              <g id="Grupo_1063995" data-name="Grupo 1063995" transform="translate(93.65 76.691)">
                <path id="Trazado_796793" data-name="Trazado 796793" d="M290.8,124.87c4.812,2.456,11.772-2.118,11.772-2.118s-.855-8.551-5.667-11.007-11.772,2.118-11.772,2.118S285.985,122.414,290.8,124.87Z" transform="translate(-285.13 -111.021)" fill="#30202d"/>
                <path id="Trazado_796794" data-name="Trazado 796794" d="M302.005,131.163c4.484,3.052,11.981-.557,11.981-.557s.219-8.561-4.265-11.613-11.981.557-11.981.557S297.521,128.111,302.005,131.163Z" transform="translate(-285.202 -111.06)" fill="#30202d"/>
                <path id="Trazado_796795" data-name="Trazado 796795" d="M318.366,144.081c4.2,3.47,13.035-7.855,8.839-11.325s-16.465-4.077-16.465-4.077,3.43,11.931,7.626,15.4Z" transform="translate(-285.276 -111.122)" fill="#30202d"/>
                <path id="Trazado_796796" data-name="Trazado 796796" d="M310.345,133.848c1.641,1.372,3.142.736,4.892-1.481s2.128-3.8.477-5.16-2.545-.149-4.285,2.068-2.724,3.212-1.084,4.574Z" transform="translate(-285.269 -111.11)" fill="#f8b2d4"/>
              </g>
              <g id="Grupo_1064002" data-name="Grupo 1064002" transform="translate(9.644)">
                <g id="Grupo_1063996" data-name="Grupo 1063996" transform="translate(0 73.161)">
                  <path id="Trazado_796797" data-name="Trazado 796797" d="M200.7,114.251c-.577,4.822,3.182,9.744,8.412,10.987s9.933-1.66,10.51-6.493-3.182-9.744-8.412-10.987-9.933,1.66-10.51,6.493Z" transform="translate(-200.641 -107.471)" fill="#b15941"/>
                  <path id="Trazado_796798" data-name="Trazado 796798" d="M214.7,119.03c-.348-.666-2.685-7.5-10.042-4.564" transform="translate(-200.664 -107.507)" fill="none" stroke="#302427" stroke-linecap="round" stroke-linejoin="round" stroke-width="1.18"/>
                  <path id="Trazado_796799" data-name="Trazado 796799" d="M207.43,119.737s1.332-4.8,5.309-3.967" transform="translate(-200.68 -107.518)" fill="none" stroke="#302427" stroke-linecap="round" stroke-linejoin="round" stroke-width="1.18"/>
                </g>
                <g id="Grupo_1063997" data-name="Grupo 1063997" transform="translate(83.38 61.566)">
                  <path id="Trazado_796800" data-name="Trazado 796800" d="M303.183,101.975c.945,4.773-2.436,9.963-7.547,11.593s-10.022-.9-10.977-5.667,2.436-9.963,7.547-11.593,10.032.9,10.977,5.667Z" transform="translate(-284.501 -95.809)" fill="#b15941"/>
                  <path id="Trazado_796801" data-name="Trazado 796801" d="M289.64,107.807c.3-.686,2.108-7.686,9.664-5.319" transform="translate(-284.53 -95.844)" fill="none" stroke="#302427" stroke-linecap="round" stroke-linejoin="round" stroke-width="1.18"/>
                  <path id="Trazado_796802" data-name="Trazado 796802" d="M296.968,107.959s-1.69-4.693-5.6-3.55" transform="translate(-284.54 -95.857)" fill="#302427"/>
                </g>
                <path id="Trazado_796803" data-name="Trazado 796803" d="M290.994,77.674a43.37,43.37,0,1,0-81.1,26.537,34.735,34.735,0,0,1,3.818,12.956c.885,8.362,8.253,21.278,41.2,16.774,35.317-4.832,37.942-18.911,35.794-27.114a31.321,31.321,0,0,1-.239-14.338,43.12,43.12,0,0,0,.527-14.815Z" transform="translate(-200.664 -33.925)" fill="#b15941"/>
                <g id="Grupo_1063998" data-name="Grupo 1063998" transform="translate(44.258 81.904)">
                  <path id="Trazado_796804" data-name="Trazado 796804" d="M259.9,124.115a9.652,9.652,0,0,1-5.3,2.237c-4.385.537-7.179-1.024-8.5-2.943-1.2-1.72-1.233-3.709-.2-4.7a2.5,2.5,0,0,1,2.048-.616c5.061.467,12.081-1.72,12.081-1.72a1.864,1.864,0,0,1,.915-.08c2.118.338,2.237,4.932-1.044,7.825Z" transform="translate(-245.154 -116.264)" fill="#302427"/>
                  <path id="Trazado_796805" data-name="Trazado 796805" d="M260.943,116.29a6.314,6.314,0,0,1-2.446,1.989,15.287,15.287,0,0,1-12.608.428,2.5,2.5,0,0,1,2.048-.616c5.061.467,12.081-1.72,12.081-1.72a1.864,1.864,0,0,1,.915-.08Z" transform="translate(-245.158 -116.264)" fill="#fff"/>
                  <path id="Trazado_796806" data-name="Trazado 796806" d="M259.9,124.145a9.652,9.652,0,0,1-5.3,2.237c-4.385.537-7.179-1.024-8.5-2.943a10.374,10.374,0,0,1,3.172-1.521,12.852,12.852,0,0,1,6.413-.01,9.422,9.422,0,0,1,2.923,1.163,6.354,6.354,0,0,1,1.293,1.064Z" transform="translate(-245.159 -116.294)" fill="#a14038"/>
                </g>
                <path id="Trazado_796807" data-name="Trazado 796807" d="M289.792,98.661s-7.02-11.892-10.072-13.284c0,0-23.912-.646-32.762-11.116,0,0-9.028,18.852-29.172,22.342l-4.773,13.582s-16.127-48.392,27.243-51.176S289.593,80.207,289.792,98.661Z" transform="translate(-200.695 -34.031)" fill="#8f3f36"/>
                <path id="Trazado_796808" data-name="Trazado 796808" d="M252.46,105.77l.865,4.852s3.192-.845,3.858.607-2.406,2.724-2.406,2.724" transform="translate(-200.938 -34.3)" fill="none" stroke="#302427" stroke-linecap="round" stroke-linejoin="round" stroke-width="1.18"/>
                <path id="Trazado_796809" data-name="Trazado 796809" d="M287.821,113.455c.746,4.146-2.476,8.2-7.189,9.048s-9.147-1.829-9.883-5.986,2.476-8.2,7.189-9.048S287.085,109.3,287.821,113.455Z" transform="translate(-201.041 -34.309)" fill="#933a25"/>
                <path id="Trazado_796810" data-name="Trazado 796810" d="M236.67,122.855c-.08,4.216-4.027,7.557-8.819,7.477s-8.61-3.579-8.531-7.8,4.027-7.557,8.819-7.477,8.61,3.579,8.531,7.8Z" transform="translate(-200.748 -34.353)" fill="#933a25"/>
                <path id="Trazado_796811" data-name="Trazado 796811" d="M294.056,83.167a53.792,53.792,0,0,1-4.265,18.136c-1.8-5.479-4.514-14.338-7.407-18.315-13.453-2.187-33.13-7.079-37.494-16.644-2.8,13.6-14.825,22.421-29.093,29.391-1.66,4.633-2.436,11.385-2.625,17.161,0,0-15.511-17.39-11.166-39.135a44.409,44.409,0,0,1,8.5-18.225c18.842-24.8,28.347-19.219,31.012-16.644,1.581-3.082,8.9-12.389,34.681,6.632,15.531,11.454,18.533,26.2,17.867,37.644Z" transform="translate(-200.645 -33.889)" fill="#30202d"/>
                <path id="Trazado_796812" data-name="Trazado 796812" d="M294.061,83.167c-5.7-27.044-26.458-37.375-36.212-41.909-10.251-4.763-15.66,3.788-15.66,3.788-13.91-7.3-31.539,15.58-40.189,28.715a44.409,44.409,0,0,1,8.5-18.225c18.842-24.8,28.347-19.219,31.012-16.644,1.581-3.082,8.9-12.389,34.681,6.632C291.724,56.977,294.727,71.722,294.061,83.167Z" transform="translate(-200.649 -33.889)" fill="#c6c6c6" opacity="0.14"/>
                <g id="Grupo_1063999" data-name="Grupo 1063999" transform="translate(61.505 53.992)">
                  <path id="Trazado_796813" data-name="Trazado 796813" d="M277.235,96.582s-6.562-9.565-14.735-2.943C262.5,93.639,270.991,79.609,277.235,96.582Z" transform="translate(-262.5 -88.192)" fill="#b15941"/>
                </g>
                <g id="Grupo_1064000" data-name="Grupo 1064000" transform="translate(25.592 59.399)">
                  <path id="Trazado_796814" data-name="Trazado 796814" d="M240.519,97.617s-10.549-4.812-14.139,5.071C226.38,102.688,226.42,86.292,240.519,97.617Z" transform="translate(-226.38 -93.629)" fill="#b15941"/>
                </g>
                <g id="Grupo_1064001" data-name="Grupo 1064001" transform="translate(28.62 63.414)">
                  <path id="Trazado_796815" data-name="Trazado 796815" d="M265.129,105.535c.557.378,2.277-3.192,6.135-3.917,3.54-.666,6.174,1.571,6.473,1.064.4-.666-3.42-5.866-7.736-4.892s-5.548,7.278-4.872,7.745Z" transform="translate(-229.629 -97.668)" fill="#00112f"/>
                  <path id="Trazado_796816" data-name="Trazado 796816" d="M229.6,111.075c.557.378,2.277-3.192,6.135-3.917,3.54-.666,6.174,1.571,6.473,1.064.4-.666-3.42-5.866-7.736-4.892S228.923,110.607,229.6,111.075Z" transform="translate(-229.426 -97.7)" fill="#00112f"/>
                </g>
              </g>
            </g>
            <path id="Trazado_796817" data-name="Trazado 796817" d="M284.492,282.436,267.32,228.983l-16.167,53.274-29-3.4,15.859-77.395,5.657-28.436a6.565,6.565,0,0,1,5.28-5.409l27.84-4.116a6.013,6.013,0,0,1,6.433,4.106l10.708,29.441s17.062,79,17.977,81.491-27.4,3.878-27.4,3.878Z" transform="translate(-191.12 -34.63)" fill="#f8b2d4"/>
            <g id="Grupo_1064004" data-name="Grupo 1064004" transform="translate(78.159 102.019)">
              <path id="Trazado_796818" data-name="Trazado 796818" d="M269.55,137.345l5,31.091L280,167.77l-4.643-31.1a10.379,10.379,0,0,0-5.8.676Z" transform="translate(-269.55 -136.495)" fill="#f8b2d4"/>
              <path id="Trazado_796819" data-name="Trazado 796819" d="M278.821,166.23a1.633,1.633,0,1,1-1.551-1.71A1.627,1.627,0,0,1,278.821,166.23Z" transform="translate(-269.584 -136.655)" fill="#f8b2d4"/>
            </g>
            <g id="Grupo_1064005" data-name="Grupo 1064005" transform="translate(51.89 106.827)">
              <path id="Trazado_796820" data-name="Trazado 796820" d="M252.9,171.536c.02-.467-4.415-30.206-4.415-30.206a9.284,9.284,0,0,0-5.359,1.68l4.146,29.5,5.638-.964Z" transform="translate(-243.13 -141.33)" fill="#f8b2d4"/>
              <path id="Trazado_796821" data-name="Trazado 796821" d="M251.631,170.44a1.672,1.672,0,1,1-1.591-1.75A1.675,1.675,0,0,1,251.631,170.44Z" transform="translate(-243.16 -141.486)" fill="#f8b2d4"/>
            </g>
            <g id="Grupo_1064006" data-name="Grupo 1064006" transform="translate(46.54 138.957)">
              <path id="Trazado_796822" data-name="Trazado 796822" d="M239.077,202.09a.512.512,0,0,1,.04-1.024,239.449,239.449,0,0,0,53.592-4.216.507.507,0,1,1,.2.994,240.317,240.317,0,0,1-53.821,4.236h0Z" transform="translate(-237.753 -173.777)" fill="#db77b0"/>
              <path id="Trazado_796823" data-name="Trazado 796823" d="M243.8,205.858q-2.8-.134-5.578-.358a.511.511,0,0,1-.467-.547.517.517,0,0,1,.547-.467,184.553,184.553,0,0,0,55.411-4.126.509.509,0,1,1,.219.994,187.4,187.4,0,0,1-50.132,4.514Z" transform="translate(-237.749 -173.797)" fill="#db77b0"/>
              <path id="Trazado_796824" data-name="Trazado 796824" d="M263.059,195.126a11.838,11.838,0,0,1-7.219-2.535c-3.937-3.271-4.763-9.088-5.061-14.874a.51.51,0,0,1,.437-.527l26.11-3.54a.5.5,0,0,1,.567.428c1.024,6.642,1.631,12.458-1.3,16.366-1.81,2.426-4.832,3.888-9.227,4.474a24.307,24.307,0,0,1-4.315.219Zm-11.235-16.992c.308,5.4,1.133,10.738,4.673,13.671,2.456,2.038,5.976,2.724,10.748,2.088,4.106-.547,6.91-1.879,8.551-4.067,2.625-3.5,2.118-8.9,1.183-15.1l-25.145,3.41Z" transform="translate(-237.823 -173.645)" fill="#db77b0"/>
            </g>
            <path id="Trazado_796825" data-name="Trazado 796825" d="M282.34,277.726l2.545,9.436c7.895.288,18.315-1.074,29.848-3.162l-3.4-12.19c-10.6,3.371-20.5,5.717-28.993,5.916Z" transform="translate(-191.464 -35.249)" fill="#f490c5"/>
            <path id="Trazado_796826" data-name="Trazado 796826" d="M254.178,275.726c-9.048-.626-19.766-2.874-31.25-5.836l-3.818,12.339c12.687,2.376,24.778,4.425,32.145,4.464l2.923-10.967Z" transform="translate(-191.102 -35.238)" fill="#f490c5"/>
            <g id="Grupo_1064008" data-name="Grupo 1064008" transform="translate(96.356 144.182)">
              <g id="Grupo_1064007" data-name="Grupo 1064007" transform="translate(0 0.744)">
                <path id="Trazado_796827" data-name="Trazado 796827" d="M306.8,185.208c-1.392-2.456-8.312-8.352-14.517-4.007-2.535,1.78-2.675,3.579-1.372,5.061a8.66,8.66,0,0,0-2.943,4.265c-.418,1.621.268,4.176,2.148,4.077a3.123,3.123,0,0,0,.03,2.018c.527,1.462,2.446,2.7,3.977,2.038.01,0,.02-.02.03-.03a2.657,2.657,0,0,0,1.611,2.6,3.366,3.366,0,0,0,3.649-.229,1.708,1.708,0,0,0,1.263,1.74c2.893,1.233,7.159-3.43,8.183-5.409,2.128-4.077.03-8.461-2.058-12.13Z" transform="translate(-287.851 -179.648)" fill="#b15941"/>
                <path id="Trazado_796828" data-name="Trazado 796828" d="M297.245,182.2a23.993,23.993,0,0,0-3.6,1.73,3.612,3.612,0,0,1,.517-1.73.229.229,0,0,0-.378-.259,3.259,3.259,0,0,0-.577,2.267,11.617,11.617,0,0,0-2.068,1.7.067.067,0,0,0,.09.1,19.744,19.744,0,0,1,6.264-3.311c.328-.129.089-.626-.239-.5Z" transform="translate(-287.87 -179.661)" fill="#302427"/>
              </g>
              <path id="Trazado_796829" data-name="Trazado 796829" d="M302.03,181.8l1.342-2.9,8.978,6.9-3.9,6.622Z" transform="translate(-287.932 -178.9)" fill="#b15941"/>
            </g>
            <g id="Grupo_1064010" data-name="Grupo 1064010" transform="translate(26.417 146.426)">
              <g id="Grupo_1064009" data-name="Grupo 1064009" transform="translate(3.72 0)">
                <path id="Trazado_796830" data-name="Trazado 796830" d="M222.96,200.847c1.372,1.75,6.423,5.558,9.038,3.808a1.706,1.706,0,0,0,.925-1.939,3.356,3.356,0,0,0,3.629-.447,2.638,2.638,0,0,0,1.1-2.844c.01,0,.02.02.03.02,1.621.368,3.281-1.2,3.54-2.734a3.081,3.081,0,0,0-.348-1.989c1.869-.239,2.068-2.883,1.362-4.395a8.684,8.684,0,0,0-3.669-3.659c1-1.7.537-3.44-2.277-4.723-6.9-3.142-12.617,3.937-13.542,6.6-1.372,3.987-2.635,8.68.209,12.309Z" transform="translate(-221.251 -181.157)" fill="#b15941"/>
                <path id="Trazado_796831" data-name="Trazado 796831" d="M231.678,183.834a25.04,25.04,0,0,1,3.858,1.034,3.834,3.834,0,0,0-.825-1.611.232.232,0,0,1,.328-.328,3.23,3.23,0,0,1,.984,2.118,11.552,11.552,0,0,1,2.347,1.293c.07.05,0,.169-.07.119a19.625,19.625,0,0,0-6.761-2.1C231.191,184.292,231.33,183.765,231.678,183.834Z" transform="translate(-221.309 -181.166)" fill="#302427"/>
              </g>
              <path id="Trazado_796832" data-name="Trazado 796832" d="M226.886,184.325l-1.79-2.535-7.586,8.4,5.011,5.747Z" transform="translate(-217.51 -181.16)" fill="#b15941"/>
            </g>
          </g>
        </g>
      </g>
    </g>
  </g>
</svg>
