<svg xmlns="http://www.w3.org/2000/svg" width="85" height="85" viewBox="0 0 85 85">
  <g id="Grupo_1065134" data-name="Grupo 1065134" transform="translate(-180 -446)">
    <rect id="Rectángulo_373435" data-name="Rectángulo 373435" width="85" height="85" rx="5" transform="translate(180 446)" fill="#ffa69d"/>
    <g id="emocional" transform="translate(185.75 391.253)">
      <g id="Grupo_1065266" data-name="Grupo 1065266" transform="translate(7.5 76.068)">
        <g id="Grupo_1065264" data-name="Grupo 1065264" transform="translate(0)">
          <path id="Trazado_799665" data-name="Trazado 799665" d="M343.513,120.015l-3.527,5.436-7.441.9a16.549,16.549,0,0,0-6.072-6.072v-7.131l6.333-3.838a29.461,29.461,0,0,1,10.708,10.708Z" transform="translate(-288.928 -105.395)" fill="#fe76a8"/>
          <path id="Trazado_799666" data-name="Trazado 799666" d="M252.482,79.98,246.15,90.949a16.555,16.555,0,0,0-8.172-2.2h-.123l-2.421-5.23,2.421-7.448A29.223,29.223,0,0,1,252.482,79.98Z" transform="translate(-208.605 -76.068)" fill="#fe93bb"/>
          <path id="Trazado_799667" data-name="Trazado 799667" d="M392.065,288.135a16.624,16.624,0,0,0,.415-3.7l4.78-5.354,7.9,5.354a29.379,29.379,0,0,1-.736,6.535,6.336,6.336,0,0,1-9.266,4.109h0A6.336,6.336,0,0,1,392.065,288.135Z" transform="translate(-346.66 -255.184)" fill="#fb2b3a"/>
          <path id="Trazado_799668" data-name="Trazado 799668" d="M392.943,214.91H380.265a16.563,16.563,0,0,0-2.2-8.3l10.969-6.333A29.219,29.219,0,0,1,392.943,214.91Z" transform="translate(-334.444 -185.66)" fill="#fd4755" stroke="#fe646f" stroke-miterlimit="10" stroke-width="2"/>
          <path id="Trazado_799669" data-name="Trazado 799669" d="M57.8,120.3a16.659,16.659,0,0,0-6.066,6.066l-7.448-.008-3.534-6.331a29.436,29.436,0,0,1,10.708-10.708l5.788,3.534Z" transform="translate(-36.836 -105.403)" fill="#fee45a"/>
          <path id="Trazado_799670" data-name="Trazado 799670" d="M8.244,296.293a29.382,29.382,0,0,1-.743-6.569l6.63-4.648,6.048,4.648a16.635,16.635,0,0,0,.421,3.727,6.336,6.336,0,0,1-3.115,6.966h0A6.338,6.338,0,0,1,8.244,296.293Z" transform="translate(-7.501 -260.475)" fill="#3ec3a4"/>
          <path id="Trazado_799671" data-name="Trazado 799671" d="M22.4,206.631a16.5,16.5,0,0,0-2.218,8.288H7.5a29.211,29.211,0,0,1,3.914-14.628Z" transform="translate(-7.501 -185.669)" fill="#6fd7a3"/>
          <path id="Trazado_799672" data-name="Trazado 799672" d="M146.353,76.068V88.745a16.5,16.5,0,0,0-8.288,2.218l-6.34-10.982A29.211,29.211,0,0,1,146.353,76.068Z" transform="translate(-117.103 -76.068)" fill="#fea713"/>
        </g>
        <g id="Grupo_1065265" data-name="Grupo 1065265" transform="translate(0)">
          <path id="Trazado_799673" data-name="Trazado 799673" d="M53.449,110.532a29.23,29.23,0,0,0-10.606,13.242l-2.092-3.749a29.436,29.436,0,0,1,10.708-10.708Z" transform="translate(-36.836 -105.403)" fill="#ffd15b"/>
          <path id="Trazado_799674" data-name="Trazado 799674" d="M16.38,314.455a6.237,6.237,0,0,1-1.951.313,6.335,6.335,0,0,1-6.184-4.918,29.332,29.332,0,0,1-.744-6.569l4.051-2.84c-.091.944-.137,1.892-.137,2.84a29.334,29.334,0,0,0,.744,6.569A6.3,6.3,0,0,0,16.38,314.455Z" transform="translate(-7.501 -274.032)" fill="#3ec3a4"/>
          <path id="Trazado_799675" data-name="Trazado 799675" d="M14.406,202.02a29.24,29.24,0,0,0-2.991,12.9H7.5a29.211,29.211,0,0,1,3.914-14.628Z" transform="translate(-7.501 -185.67)" fill="#3ec3a4"/>
          <path id="Trazado_799676" data-name="Trazado 799676" d="M146.354,76.068v.262A29.112,29.112,0,0,0,132.8,81.849l-1.079-1.867A29.21,29.21,0,0,1,146.354,76.068Z" transform="translate(-117.104 -76.068)" fill="#fe9901"/>
        </g>
        <path id="Trazado_799677" data-name="Trazado 799677" d="M93.078,83.236a29.25,29.25,0,0,1,47.689,28.628,6.334,6.334,0,0,1-9.265,4.1h0a6.336,6.336,0,0,1-3.091-6.942,16.772,16.772,0,0,0-.632-9.536" transform="translate(-83.005 -76.073)" fill="none" stroke="#000" stroke-linecap="round" stroke-linejoin="round" stroke-miterlimit="10" stroke-width="2"/>
        <path id="Trazado_799678" data-name="Trazado 799678" d="M14.662,161.651A29.237,29.237,0,0,0,8.245,187.4a6.339,6.339,0,0,0,12.353-2.85,16.588,16.588,0,0,1,29.028-14.188" transform="translate(-7.5 -151.577)" fill="none" stroke="#000" stroke-linecap="round" stroke-linejoin="round" stroke-miterlimit="10" stroke-width="2"/>
        <line id="Línea_1703" data-name="Línea 1703" y1="12.677" transform="translate(29.25)" fill="none" stroke="#000" stroke-linecap="round" stroke-linejoin="round" stroke-miterlimit="10" stroke-width="2"/>
        <line id="Línea_1704" data-name="Línea 1704" x1="6.34" y1="10.982" transform="translate(14.622 3.914)" fill="none" stroke="#000" stroke-linecap="round" stroke-linejoin="round" stroke-miterlimit="10" stroke-width="2"/>
        <line id="Línea_1705" data-name="Línea 1705" x1="10.982" y1="6.34" transform="translate(3.914 14.622)" fill="none" stroke="#000" stroke-linecap="round" stroke-linejoin="round" stroke-miterlimit="10" stroke-width="2"/>
        <line id="Línea_1706" data-name="Línea 1706" x1="12.679" transform="translate(45.821 29.25)" fill="none" stroke="#000" stroke-linecap="round" stroke-linejoin="round" stroke-miterlimit="10" stroke-width="2"/>
        <line id="Línea_1707" data-name="Línea 1707" x1="12.677" transform="translate(0 29.25)" fill="none" stroke="#000" stroke-linecap="round" stroke-linejoin="round" stroke-miterlimit="10" stroke-width="2"/>
        <line id="Línea_1708" data-name="Línea 1708" x1="2.894" y2="1.671" transform="translate(51.691 14.621)" fill="none" stroke="#000" stroke-linecap="round" stroke-linejoin="round" stroke-miterlimit="10" stroke-width="2"/>
        <line id="Línea_1709" data-name="Línea 1709" x1="6.333" y2="10.969" transform="translate(37.545 3.912)" fill="none" stroke="#000" stroke-linecap="round" stroke-linejoin="round" stroke-miterlimit="10" stroke-width="2"/>
      </g>
      <g id="Grupo_1065268" data-name="Grupo 1065268" transform="translate(40.918 90.065)">
        <g id="Grupo_1065267" data-name="Grupo 1065267" transform="translate(0 0)">
          <path id="Trazado_799679" data-name="Trazado 799679" d="M302.515,195.031l6.474,1.733a1.189,1.189,0,0,1,.841,1.456l-1.733,6.474a1.189,1.189,0,0,1-2.178.287l-1.038-1.8-9.98,5.766a1.638,1.638,0,0,1-2.238-.6l-1.027-1.778a1.638,1.638,0,0,1,.6-2.238l9.98-5.766-1.038-1.8A1.189,1.189,0,0,1,302.515,195.031Z" transform="translate(-291.417 -194.989)" fill="#685e68"/>
        </g>
        <path id="Trazado_799680" data-name="Trazado 799680" d="M339.368,201.549l5.155-2.979-1.038-1.8a1.189,1.189,0,0,1,1.337-1.743l1.593.426" transform="translate(-333.724 -194.988)" fill="none" stroke="#000" stroke-linecap="round" stroke-linejoin="round" stroke-miterlimit="10" stroke-width="2"/>
        <path id="Trazado_799681" data-name="Trazado 799681" d="M370.258,208.011l.908.242a1.189,1.189,0,0,1,.842,1.456l-1.733,6.474a1.189,1.189,0,0,1-2.179.287l-1.037-1.795-5.171,2.986" transform="translate(-353.593 -206.478)" fill="none" stroke="#000" stroke-linecap="round" stroke-linejoin="round" stroke-miterlimit="10" stroke-width="2"/>
      </g>
      <circle id="Elipse_8432" data-name="Elipse 8432" cx="13.109" cy="13.109" r="13.109" transform="translate(23.64 92.209)" fill="#fee45a"/>
      <path id="Trazado_799682" data-name="Trazado 799682" d="M160.24,239.175a13.109,13.109,0,1,1,0-25.741,13.112,13.112,0,0,0,0,25.741Z" transform="translate(-120.987 -120.987)" fill="#ffd15b"/>
      <g id="Grupo_1065269" data-name="Grupo 1065269" transform="translate(28.127 99.964)">
        <path id="Trazado_799683" data-name="Trazado 799683" d="M188.921,282.168a3.087,3.087,0,1,0-6.174,0" transform="translate(-182.747 -279.081)" fill="none" stroke="#000" stroke-linecap="round" stroke-linejoin="round" stroke-miterlimit="10" stroke-width="2"/>
        <path id="Trazado_799684" data-name="Trazado 799684" d="M282.967,282.168a3.087,3.087,0,0,0-6.174,0" transform="translate(-265.723 -279.081)" fill="none" stroke="#000" stroke-linecap="round" stroke-linejoin="round" stroke-miterlimit="10" stroke-width="2"/>
      </g>
      <path id="Trazado_799685" data-name="Trazado 799685" d="M211.027,331.725a5.293,5.293,0,0,0,10.586,0" transform="translate(-179.571 -225.565)" fill="none" stroke="#000" stroke-linecap="round" stroke-linejoin="round" stroke-miterlimit="10" stroke-width="2"/>
      <path id="Trazado_799686" data-name="Trazado 799686" d="M149.861,236.78A13.112,13.112,0,1,0,147,233.826" transform="translate(-120.988 -120.983)" fill="none" stroke="#000" stroke-linecap="round" stroke-linejoin="round" stroke-miterlimit="10" stroke-width="2"/>
    </g>
  </g>
</svg>
