<svg xmlns="http://www.w3.org/2000/svg" xmlns:xlink="http://www.w3.org/1999/xlink" width="76.999" height="76.999" viewBox="0 0 76.999 76.999">
  <defs>
    <clipPath id="clip-path">
      <path id="path591" d="M0-682.665H47.414v47.414H0Z" transform="translate(0 682.665)"/>
    </clipPath>
  </defs>
  <g id="Grupo_1064101" data-name="Grupo 1064101" transform="translate(-200 -4369.103)">
    <circle id="Elipse_4724" data-name="Elipse 4724" cx="38.5" cy="38.5" r="38.5" transform="translate(200 4369.103)" fill="#fec759"/>
    <g id="g585" transform="translate(214.793 5066.56)">
      <g id="g587" transform="translate(0 -682.665)">
        <g id="g589" transform="translate(0 0)" clip-path="url(#clip-path)">
          <g id="g595" transform="translate(5.386 26.049)">
            <path id="path597" d="M-111.242-189.985a18.749,18.749,0,0,0,6.225,2.568,1.876,1.876,0,0,0,2.262-1.839,1.887,1.887,0,0,0-1.5-1.84,15,15,0,0,1-3.1-1.035v-3.32a1.736,1.736,0,0,0-.676-1.378,11.106,11.106,0,0,1-2.056-2.056,1.736,1.736,0,0,0-1.378-.676h-3.32a15,15,0,0,1-1.035-3.1,1.887,1.887,0,0,0-1.84-1.5A1.876,1.876,0,0,0-119.5-201.9q.114.533.258,1.054" transform="translate(119.545 204.165)" fill="none" stroke="#7053e8" stroke-linecap="round" stroke-linejoin="round" stroke-miterlimit="10" stroke-width="1.6"/>
          </g>
          <g id="g599" transform="translate(6.774 32.323)">
            <path id="path601" d="M0,0A18.845,18.845,0,0,0,1.091,2.007" fill="none" stroke="#7053e8" stroke-linecap="round" stroke-linejoin="round" stroke-miterlimit="10" stroke-width="1.6"/>
          </g>
          <g id="g603" transform="translate(25.578 5.857)">
            <path id="path605" d="M-86.781-19.893A18.732,18.732,0,0,0-91-21.336,1.876,1.876,0,0,0-93.258-19.5a1.887,1.887,0,0,0,1.5,1.84,15,15,0,0,1,3.1,1.035v3.32a1.736,1.736,0,0,0,.676,1.378,11.109,11.109,0,0,1,2.056,2.056,1.735,1.735,0,0,0,1.378.676h3.32a15,15,0,0,1,1.035,3.1,1.887,1.887,0,0,0,1.84,1.5A1.876,1.876,0,0,0-76.51-6.85a18.733,18.733,0,0,0-1.595-4.523" transform="translate(93.258 21.378)" fill="none" stroke="#7053e8" stroke-linecap="round" stroke-linejoin="round" stroke-miterlimit="10" stroke-width="1.6"/>
          </g>
          <g id="g607" transform="translate(25.578 26.049)">
            <path id="path609" d="M-192.662-109.454a18.75,18.75,0,0,0,2.368-5.908,1.876,1.876,0,0,0-1.839-2.262,1.887,1.887,0,0,0-1.84,1.5,15,15,0,0,1-1.035,3.1h-3.32a1.735,1.735,0,0,0-1.378.676,11.11,11.11,0,0,1-2.056,2.056,1.735,1.735,0,0,0-.676,1.378v3.32a15,15,0,0,1-3.1,1.035,1.887,1.887,0,0,0-1.5,1.84,1.876,1.876,0,0,0,2.262,1.839,18.76,18.76,0,0,0,6.308-2.621" transform="translate(207.042 117.624)" fill="none" stroke="#7053e8" stroke-linecap="round" stroke-linejoin="round" stroke-miterlimit="10" stroke-width="1.6"/>
          </g>
          <g id="g611" transform="translate(5.386 5.857)">
            <path id="path613" d="M-34.942-111.271a18.755,18.755,0,0,0-2.566,6.223,1.876,1.876,0,0,0,1.839,2.262,1.887,1.887,0,0,0,1.84-1.5,15,15,0,0,1,1.035-3.1h3.32a1.736,1.736,0,0,0,1.378-.676,11.1,11.1,0,0,1,2.056-2.056,1.736,1.736,0,0,0,.676-1.378v-3.32a15,15,0,0,1,3.1-1.035,1.887,1.887,0,0,0,1.5-1.84,1.876,1.876,0,0,0-2.262-1.839,18.753,18.753,0,0,0-6.054,2.459" transform="translate(37.55 119.576)" fill="none" stroke="#7053e8" stroke-linecap="round" stroke-linejoin="round" stroke-miterlimit="10" stroke-width="1.6"/>
          </g>
          <g id="g615" transform="translate(41.515 34.529)">
            <path id="path617" d="M0-12.581a1.5,1.5,0,0,1,.331-.5,1.505,1.505,0,0,1,2.129,0,1.505,1.505,0,0,1,0,2.129,1.5,1.5,0,0,1-.49.327" transform="translate(0 13.52)" fill="none" stroke="#7053e8" stroke-linecap="round" stroke-linejoin="round" stroke-miterlimit="10" stroke-width="1.6"/>
          </g>
          <g id="g619" transform="translate(34.357 41.719)">
            <path id="path621" d="M-38.864-25.86a1.5,1.5,0,0,1-.331.5,1.505,1.505,0,0,1-2.129,0,1.505,1.505,0,0,1,0-2.129,1.5,1.5,0,0,1,.426-.3" transform="translate(41.765 27.791)" fill="none" stroke="#7053e8" stroke-linecap="round" stroke-linejoin="round" stroke-miterlimit="10" stroke-width="1.6"/>
          </g>
          <g id="g623" transform="translate(33.67 33.842)">
            <path id="path625" d="M-42.822-124.754l-1.93-1.93a4.308,4.308,0,0,1-1.266-3.058,4.308,4.308,0,0,1,1.266-3.058,4.324,4.324,0,0,1,6.115,0l3.173,3.173" transform="translate(46.019 134.066)" fill="none" stroke="#7053e8" stroke-linecap="round" stroke-linejoin="round" stroke-miterlimit="10" stroke-width="1.6"/>
          </g>
          <g id="g627" transform="translate(36.609 36.782)">
            <path id="path629" d="M-20.1-.349A1.245,1.245,0,0,0-21.24-.01a1.245,1.245,0,0,0-.339,1.136" transform="translate(21.605 0.375)" fill="none" stroke="#7053e8" stroke-linecap="round" stroke-linejoin="round" stroke-miterlimit="10" stroke-width="1.6"/>
          </g>
          <g id="g631" transform="translate(36.962 38.375)">
            <path id="path633" d="M-100.268-72.471a1.078,1.078,0,0,0,0-1.525,2.6,2.6,0,0,0,.939-.585l.195-.195a1.3,1.3,0,0,0,0-1.841L-100.4-77.88l-1.116,1.116a1.942,1.942,0,0,1-1.651.533,2.418,2.418,0,0,0-2.049.686l-2.54,2.54,3.088,3.088a1.3,1.3,0,0,0,1.794.043Z" transform="translate(107.752 77.88)" fill="none" stroke="#7053e8" stroke-linecap="round" stroke-linejoin="round" stroke-miterlimit="10" stroke-width="1.6"/>
          </g>
          <g id="g635" transform="translate(39.958 37.261)">
            <path id="path637" d="M-.61-.61-.656-.656" transform="translate(0.656 0.656)" fill="none" stroke="#7053e8" stroke-linecap="round" stroke-linejoin="round" stroke-miterlimit="10" stroke-width="1.6"/>
          </g>
          <g id="g639" transform="translate(37.089 40.13)">
            <path id="path641" d="M-.609-.61-.655-.656" transform="translate(0.655 0.656)" fill="none" stroke="#7053e8" stroke-linecap="round" stroke-linejoin="round" stroke-miterlimit="10" stroke-width="1.6"/>
          </g>
          <g id="g643" transform="translate(10.731 4.038)">
            <path id="path645" d="M0-11.638a1.469,1.469,0,0,1,.3-.438,1.471,1.471,0,0,1,2.081,0,1.471,1.471,0,0,1,0,2.081,1.47,1.47,0,0,1-.419.294" transform="translate(0 12.506)" fill="none" stroke="#7053e8" stroke-linecap="round" stroke-linejoin="round" stroke-miterlimit="10" stroke-width="1.6"/>
          </g>
          <g id="g647" transform="translate(3.679 11.07)">
            <path id="path649" d="M-37.983-25.689a1.464,1.464,0,0,1-.323.487,1.471,1.471,0,0,1-2.081,0,1.471,1.471,0,0,1,0-2.081,1.466,1.466,0,0,1,.487-.323" transform="translate(40.818 27.607)" fill="none" stroke="#7053e8" stroke-linecap="round" stroke-linejoin="round" stroke-miterlimit="10" stroke-width="1.6"/>
          </g>
          <g id="g651" transform="translate(4.247 4.15)">
            <path id="path653" d="M-73.958,0l3.194,3.194a4.226,4.226,0,0,1,0,5.977,4.226,4.226,0,0,1-5.977,0l-2.738-2.738" transform="translate(79.478)" fill="none" stroke="#7053e8" stroke-linecap="round" stroke-linejoin="round" stroke-miterlimit="10" stroke-width="1.6"/>
          </g>
          <g id="g655" transform="translate(1.452 0.695)">
            <path id="path657" d="M-5.293-74.778a1.349,1.349,0,0,0,0,1.908l2.319,2.319,4.6-4.6a2.938,2.938,0,0,0,0-4.154l-.944-.944a.355.355,0,0,0-.5,0Z" transform="translate(5.688 80.359)" fill="none" stroke="#7053e8" stroke-linecap="round" stroke-linejoin="round" stroke-miterlimit="10" stroke-width="1.6"/>
          </g>
          <g id="g659" transform="translate(7.799 11.069)">
            <path id="path661" d="M0,0,.044.044" fill="none" stroke="#7053e8" stroke-linecap="round" stroke-linejoin="round" stroke-miterlimit="10" stroke-width="1.6"/>
          </g>
          <g id="g663" transform="translate(10.709 8.158)">
            <path id="path665" d="M0,0,.044.045" fill="none" stroke="#7053e8" stroke-linecap="round" stroke-linejoin="round" stroke-miterlimit="10" stroke-width="1.6"/>
          </g>
          <g id="g667" transform="translate(9.916 10.276)">
            <path id="path669" d="M0-19.309a1.217,1.217,0,0,0,1.11-.331,1.217,1.217,0,0,0,.331-1.11" transform="translate(0 20.751)" fill="none" stroke="#7053e8" stroke-linecap="round" stroke-linejoin="round" stroke-miterlimit="10" stroke-width="1.6"/>
          </g>
          <g id="g671" transform="translate(3.62 34.579)">
            <path id="path673" d="M-12.3-37.984a1.467,1.467,0,0,1-.487-.323,1.471,1.471,0,0,1,0-2.081,1.471,1.471,0,0,1,2.081,0,1.467,1.467,0,0,1,.323.487" transform="translate(13.214 40.82)" fill="none" stroke="#7053e8" stroke-linecap="round" stroke-linejoin="round" stroke-miterlimit="10" stroke-width="1.6"/>
          </g>
          <g id="g675" transform="translate(10.661 41.61)">
            <path id="path677" d="M-25.565,0a1.469,1.469,0,0,1,.487.323,1.471,1.471,0,0,1,0,2.081,1.471,1.471,0,0,1-2.081,0,1.467,1.467,0,0,1-.314-.465" transform="translate(27.473)" fill="none" stroke="#7053e8" stroke-linecap="round" stroke-linejoin="round" stroke-miterlimit="10" stroke-width="1.6"/>
          </g>
          <g id="g679" transform="translate(3.249 33.925)">
            <path id="path681" d="M-16.584-129.34h0a4.226,4.226,0,0,1,0-5.977l2.439-2.439a4.226,4.226,0,0,1,5.977,0,4.226,4.226,0,0,1,0,5.977l-2.439,2.439A4.226,4.226,0,0,1-16.584-129.34Z" transform="translate(17.822 138.994)" fill="none" stroke="#7053e8" stroke-linecap="round" stroke-linejoin="round" stroke-miterlimit="10" stroke-width="1.6"/>
          </g>
          <g id="g683" transform="translate(10.487 40.444)">
            <path id="path685" d="M0-.6.045-.64" transform="translate(0 0.64)" fill="none" stroke="#7053e8" stroke-linecap="round" stroke-linejoin="round" stroke-miterlimit="10" stroke-width="1.6"/>
          </g>
          <g id="g687" transform="translate(7.577 37.534)">
            <path id="path689" d="M0-.6.044-.64" transform="translate(0 0.64)" fill="none" stroke="#7053e8" stroke-linecap="round" stroke-linejoin="round" stroke-miterlimit="10" stroke-width="1.6"/>
          </g>
          <g id="g691" transform="translate(9.694 36.905)">
            <path id="path693" d="M-19.308-19.649a1.217,1.217,0,0,0-.331-1.11,1.217,1.217,0,0,0-1.11-.331" transform="translate(20.749 21.116)" fill="none" stroke="#7053e8" stroke-linecap="round" stroke-linejoin="round" stroke-miterlimit="10" stroke-width="1.6"/>
          </g>
          <g id="g695" transform="translate(36.403 2.631)">
            <path id="path697" d="M0-155.7l1.581,1.581a1.85,1.85,0,0,0,2.616,0l3.191-3.191a5.978,5.978,0,0,0,0-8.453,5.947,5.947,0,0,0-2.721-1.558" transform="translate(0 167.317)" fill="none" stroke="#7053e8" stroke-linecap="round" stroke-linejoin="round" stroke-miterlimit="10" stroke-width="1.6"/>
          </g>
          <g id="g699" transform="translate(31.606 2.668)">
            <path id="path701" d="M-84.626,0a5.948,5.948,0,0,0-2.584,1.52L-90.4,4.711a1.85,1.85,0,0,0,0,2.616l1.613,1.613" transform="translate(90.942)" fill="none" stroke="#7053e8" stroke-linecap="round" stroke-linejoin="round" stroke-miterlimit="10" stroke-width="1.6"/>
          </g>
          <g id="g703" transform="translate(33.68 5.971)">
            <path id="path705" d="M-111.6-69.555l-2.063,2.063a3.671,3.671,0,0,1-5.191,0,3.671,3.671,0,0,1,0-5.191l2.063-2.063,2.717,2.717a.354.354,0,0,0,.25.1h1.379a.351.351,0,0,1,.248.6l-.337.337a.354.354,0,0,0,0,.5Z" transform="translate(119.927 74.746)" fill="none" stroke="#7053e8" stroke-linecap="round" stroke-linejoin="round" stroke-miterlimit="10" stroke-width="1.6"/>
          </g>
          <g id="g707" transform="translate(36.627 8.787)">
            <path id="path709" d="M-.517,0-.556.039" transform="translate(0.556)" fill="none" stroke="#7053e8" stroke-linecap="round" stroke-linejoin="round" stroke-miterlimit="10" stroke-width="1.6"/>
          </g>
          <g id="g711" transform="translate(39.155 11.315)">
            <path id="path713" d="M-.517,0-.556.039" transform="translate(0.556)" fill="none" stroke="#7053e8" stroke-linecap="round" stroke-linejoin="round" stroke-miterlimit="10" stroke-width="1.6"/>
          </g>
          <g id="g715" transform="translate(36.08 10.626)">
            <path id="path717" d="M-.3,0A1.058,1.058,0,0,0,.956,1.252" transform="translate(0.318)" fill="none" stroke="#7053e8" stroke-linecap="round" stroke-linejoin="round" stroke-miterlimit="10" stroke-width="1.6"/>
          </g>
          <g id="g719" transform="translate(20.584 22.086)">
            <path id="path721" d="M0,0V.091" fill="none" stroke="#7053e8" stroke-linecap="round" stroke-linejoin="round" stroke-miterlimit="10" stroke-width="1.6"/>
          </g>
          <g id="g723" transform="translate(26.557 22.086)">
            <path id="path725" d="M0,0V.091" fill="none" stroke="#7053e8" stroke-linecap="round" stroke-linejoin="round" stroke-miterlimit="10" stroke-width="1.6"/>
          </g>
          <g id="g727" transform="translate(21.797 24.1)">
            <path id="path729" d="M-47.527,0A1.774,1.774,0,0,1-49.3,1.774,1.774,1.774,0,0,1-51.075,0" transform="translate(51.075)" fill="none" stroke="#7053e8" stroke-linecap="round" stroke-linejoin="round" stroke-miterlimit="10" stroke-width="1.6"/>
          </g>
          <g id="g731" transform="translate(15.969 15.97)">
            <path id="path733" d="M-188.194-155.8a7.564,7.564,0,0,0,1.156-4.027,7.6,7.6,0,0,0-7.6-7.6,7.6,7.6,0,0,0-7.6,7.6,7.6,7.6,0,0,0,7.6,7.6,7.564,7.564,0,0,0,4.307-1.339" transform="translate(202.241 167.428)" fill="none" stroke="#7053e8" stroke-linecap="round" stroke-linejoin="round" stroke-miterlimit="10" stroke-width="1.6"/>
          </g>
        </g>
      </g>
    </g>
  </g>
</svg>
