<svg xmlns="http://www.w3.org/2000/svg" xmlns:xlink="http://www.w3.org/1999/xlink" width="76.999" height="76.999" viewBox="0 0 76.999 76.999">
  <defs>
    <clipPath id="clip-path">
      <path id="path3219" d="M0-682.665H46.17v46.17H0Z" transform="translate(0 682.665)" fill="#7053e8"/>
    </clipPath>
  </defs>
  <g id="Grupo_1064102" data-name="Grupo 1064102" transform="translate(-515.5 -4369.103)">
    <circle id="Elipse_4724" data-name="Elipse 4724" cx="38.5" cy="38.5" r="38.5" transform="translate(515.5 4369.103)" fill="#fec759"/>
    <g id="g3213" transform="translate(530.915 5067.433)">
      <g id="g3215" transform="translate(0 -682.665)">
        <g id="g3217" clip-path="url(#clip-path)">
          <g id="g3223" transform="translate(10.566 14.665)">
            <path id="path3225" d="M-345.185-82.619v6.877a9.125,9.125,0,0,1-9.125,9.125H-361.1a9.125,9.125,0,0,1-9.125-9.125v-6.8c4.738-.136,14.9-2.321,18.653-6.071C-351.572-88.612-349.078-83.517-345.185-82.619Z" transform="translate(370.224 88.612)" fill="none" stroke="#7053e8" stroke-linecap="round" stroke-linejoin="round" stroke-miterlimit="10" stroke-width="1.5"/>
          </g>
          <g id="g3227" transform="translate(35.606 23.183)">
            <path id="path3229" d="M0-26.643a1.932,1.932,0,0,1,3.816-.425,3.92,3.92,0,0,1,.1.865A3.912,3.912,0,0,1,0-22.29" transform="translate(0 28.576)" fill="none" stroke="#7053e8" stroke-linejoin="round" stroke-miterlimit="10" stroke-width="1.5"/>
          </g>
          <g id="g3231" transform="translate(6.655 23.183)">
            <path id="path3233" d="M-53.936-86.646h0a3.912,3.912,0,0,1-3.912-3.912,3.919,3.919,0,0,1,.1-.865A1.932,1.932,0,0,1-53.936-91" transform="translate(57.848 92.931)" fill="none" stroke="#7053e8" stroke-linejoin="round" stroke-miterlimit="10" stroke-width="1.5"/>
          </g>
          <g id="g3235" transform="translate(20.712 29.192)">
            <path id="path3237" d="M0,0A2.577,2.577,0,0,0,2.374,1.576,2.576,2.576,0,0,0,4.749,0" fill="none" stroke="#7053e8" stroke-linecap="round" stroke-linejoin="round" stroke-miterlimit="10" stroke-width="1.5"/>
          </g>
          <g id="g3239" transform="translate(20.09 36.66)">
            <path id="path3241" d="M-41.315-68.616h0a3,3,0,0,1-3-3v-1.98h5.994v1.98A3,3,0,0,1-41.315-68.616Z" transform="translate(44.312 73.593)" fill="none" stroke="#7053e8" stroke-linecap="round" stroke-linejoin="round" stroke-miterlimit="10" stroke-width="1.5"/>
          </g>
          <g id="g3243" transform="translate(12.255 38.64)">
            <path id="path3245" d="M-190.633,0h2.058a5.357,5.357,0,0,1,5.247,4.279l.528,2.574h-21.662l.529-2.574A5.357,5.357,0,0,1-198.685,0h2.058" transform="translate(204.461)" fill="none" stroke="#7053e8" stroke-linecap="round" stroke-linejoin="round" stroke-miterlimit="10" stroke-width="1.5"/>
          </g>
          <g id="g3247" transform="translate(8.494 25.422)">
            <path id="path3249" d="M-28.573-12.856s-.907-1.3-2.073-.83" transform="translate(30.645 13.789)" fill="none" stroke="#7053e8" stroke-linecap="round" stroke-linejoin="round" stroke-miterlimit="10" stroke-width="1.5"/>
          </g>
          <g id="g3251" transform="translate(35.606 25.422)">
            <path id="path3253" d="M0-12.856s.907-1.3,2.073-.83" transform="translate(0 13.789)" fill="none" stroke="#7053e8" stroke-linecap="round" stroke-linejoin="round" stroke-miterlimit="10" stroke-width="1.5"/>
          </g>
          <g id="g3255" transform="translate(21.867 26.112)">
            <path id="path3257" d="M0,0H2.438" fill="none" stroke="#7053e8" stroke-linecap="round" stroke-linejoin="round" stroke-miterlimit="10" stroke-width="1.5"/>
          </g>
          <g id="g3259" transform="translate(14.51 22.426)">
            <path id="path3261" d="M-29.69,0a.712.712,0,0,0-.123.011h-1.355a.676.676,0,0,0-.676.676.676.676,0,0,0,.676.676h.362a3.16,3.16,0,0,0-.054.586c0,1.077.524,1.95,1.17,1.95s1.17-.873,1.17-1.95S-29.044,0-29.69,0" transform="translate(31.844)" fill="#7053e8"/>
          </g>
          <g id="g3263" transform="translate(14.51 22.426)">
            <path id="path3265" d="M-29.69,0a.712.712,0,0,0-.123.011h-1.355a.676.676,0,0,0-.676.676.676.676,0,0,0,.676.676h.362a3.16,3.16,0,0,0-.054.586c0,1.077.524,1.95,1.17,1.95s1.17-.873,1.17-1.95S-29.044,0-29.69,0Z" transform="translate(31.844)" fill="none" stroke="#7053e8" stroke-miterlimit="10" stroke-width="1.5"/>
          </g>
          <g id="g3267" transform="translate(28.34 22.426)">
            <path id="path3269" d="M-37.735-.149H-39.18A.714.714,0,0,0-39.3-.16c-.646,0-1.17.873-1.17,1.95s.524,1.95,1.17,1.95,1.17-.873,1.17-1.95a3.16,3.16,0,0,0-.054-.586h.452a.676.676,0,0,0,.676-.676.676.676,0,0,0-.676-.676" transform="translate(40.472 0.16)" fill="#7053e8"/>
          </g>
          <g id="g3271" transform="translate(28.34 22.426)">
            <path id="path3273" d="M-37.735-.149H-39.18A.714.714,0,0,0-39.3-.16c-.646,0-1.17.873-1.17,1.95s.524,1.95,1.17,1.95,1.17-.873,1.17-1.95a3.16,3.16,0,0,0-.054-.586h.452a.676.676,0,0,0,.676-.676A.676.676,0,0,0-37.735-.149Z" transform="translate(40.472 0.16)" fill="none" stroke="#7053e8" stroke-miterlimit="10" stroke-width="1.5"/>
          </g>
          <g id="g3275" transform="translate(8.442 28.841)">
            <path id="path3277" d="M0,0V11.507H5.668" fill="none" stroke="#7053e8" stroke-linecap="round" stroke-linejoin="round" stroke-miterlimit="10" stroke-width="1.5"/>
          </g>
          <g id="g3279" transform="translate(32.064 38.206)">
            <path id="path3281" d="M-78.12,0V2.142h-5.667" transform="translate(83.786)" fill="none" stroke="#7053e8" stroke-linecap="round" stroke-linejoin="round" stroke-miterlimit="10" stroke-width="1.5"/>
          </g>
          <g id="g3283" transform="translate(37.73 28.842)">
            <path id="path3285" d="M0-91.807v-6.659" transform="translate(0 98.466)" fill="none" stroke="#7053e8" stroke-linecap="round" stroke-linejoin="round" stroke-miterlimit="10" stroke-width="1.5"/>
          </g>
          <g id="g3287" transform="translate(37.7 16.935)">
            <path id="path3289" d="M0,0C.02.29.03.584.03.88V6.255" fill="none" stroke="#7053e8" stroke-linecap="round" stroke-linejoin="round" stroke-miterlimit="10" stroke-width="1.5"/>
          </g>
          <g id="g3291" transform="translate(8.442 16.935)">
            <path id="path3293" d="M0-86.238v-5.375c0-.3.01-.59.03-.88" transform="translate(0 92.493)" fill="none" stroke="#7053e8" stroke-linecap="round" stroke-linejoin="round" stroke-miterlimit="10" stroke-width="1.5"/>
          </g>
          <g id="g3295" transform="translate(16.392 4.854)">
            <path id="path3297" d="M0-13.849a12.9,12.9,0,0,1,5.01-1H8.377a12.918,12.918,0,0,1,5.009,1" transform="translate(0 14.853)" fill="none" stroke="#7053e8" stroke-linecap="round" stroke-linejoin="round" stroke-miterlimit="10" stroke-width="1.5"/>
          </g>
          <g id="g3299" transform="translate(0.678 0.676)">
            <path id="path3301" d="M-59.9-211.349a8.092,8.092,0,0,0,3.788.935,8.133,8.133,0,0,0,8.133-8.133,8.133,8.133,0,0,0-8.133-8.133,8.133,8.133,0,0,0-8.133,8.133,8.105,8.105,0,0,0,2.239,5.6" transform="translate(64.241 226.679)" fill="none" stroke="#7053e8" stroke-linecap="round" stroke-linejoin="round" stroke-miterlimit="10" stroke-width="1.5"/>
          </g>
          <g id="g3303" transform="translate(29.226 0.676)">
            <path id="path3305" d="M-224.246-112.123a8.133,8.133,0,0,1-8.133,8.133,8.133,8.133,0,0,1-8.133-8.133,8.133,8.133,0,0,1,8.133-8.133A8.133,8.133,0,0,1-224.246-112.123Z" transform="translate(240.513 120.256)" fill="none" stroke="#7053e8" stroke-linecap="round" stroke-linejoin="round" stroke-miterlimit="10" stroke-width="1.5"/>
          </g>
          <g id="g3307" transform="translate(5.848 10.096)">
            <path id="path3309" d="M0,0A3.171,3.171,0,0,0,2.922,1.94,3.171,3.171,0,0,0,5.843,0" fill="none" stroke="#7053e8" stroke-linecap="round" stroke-linejoin="round" stroke-miterlimit="10" stroke-width="1.5"/>
          </g>
          <g id="g3311" transform="translate(3.135 5.583)">
            <path id="path3313" d="M-46.243-15.35a1.82,1.82,0,0,0-1.677-1.113A1.82,1.82,0,0,0-49.6-15.35" transform="translate(49.597 16.464)" fill="none" stroke="#7053e8" stroke-linecap="round" stroke-linejoin="round" stroke-miterlimit="10" stroke-width="1.5"/>
          </g>
          <g id="g3315" transform="translate(11.133 5.583)">
            <path id="path3317" d="M-46.244-15.35a1.82,1.82,0,0,0-1.677-1.113A1.82,1.82,0,0,0-49.6-15.35" transform="translate(49.599 16.464)" fill="none" stroke="#7053e8" stroke-linecap="round" stroke-linejoin="round" stroke-miterlimit="10" stroke-width="1.5"/>
          </g>
          <g id="g3319" transform="translate(34.396 10.998)">
            <path id="path3321" d="M-80.555-26.739a3.171,3.171,0,0,0-2.922-1.94,3.171,3.171,0,0,0-2.922,1.94" transform="translate(86.398 28.679)" fill="none" stroke="#7053e8" stroke-linecap="round" stroke-linejoin="round" stroke-miterlimit="10" stroke-width="1.5"/>
          </g>
          <g id="g3323" transform="translate(39.681 7.386)">
            <path id="path3325" d="M0,0A1.82,1.82,0,0,0,1.677,1.113,1.82,1.82,0,0,0,3.354,0" fill="none" stroke="#7053e8" stroke-linecap="round" stroke-linejoin="round" stroke-miterlimit="10" stroke-width="1.5"/>
          </g>
          <g id="g3327" transform="translate(31.682 7.386)">
            <path id="path3329" d="M0,0A1.82,1.82,0,0,0,1.677,1.113,1.82,1.82,0,0,0,3.354,0" fill="none" stroke="#7053e8" stroke-linecap="round" stroke-linejoin="round" stroke-miterlimit="10" stroke-width="1.5"/>
          </g>
        </g>
      </g>
    </g>
  </g>
</svg>
