<svg xmlns="http://www.w3.org/2000/svg" width="85" height="85" viewBox="0 0 85 85">
  <g id="Grupo_1063897" data-name="Grupo 1063897" transform="translate(-180 -446)">
    <rect id="Rectángulo_373435" data-name="Rectángulo 373435" width="85" height="85" rx="5" transform="translate(180 446)" fill="#ffa69d"/>
    <g id="playtime" transform="translate(195.655 459.418)">
      <path id="Trazado_796423" data-name="Trazado 796423" d="M188.813,297.786v4.9a14.77,14.77,0,0,0,3.871-.116v-.386a8.805,8.805,0,0,1,1.543-5.1,9.745,9.745,0,0,1-5.415.709Zm0,0" transform="translate(-166.92 -263.329)" fill="#a2f9f9"/>
      <path id="Trazado_796424" data-name="Trazado 796424" d="M226,286.924a3.06,3.06,0,0,1-.234,3.831v5.431h1.738a2.422,2.422,0,0,1,4.547-.828,2.423,2.423,0,0,1,4.548.828h7.039V283.945a8.515,8.515,0,0,0-3.86-7.312,11.579,11.579,0,0,1-5.047,1.151h-3.417a13.224,13.224,0,0,1-4.874-.887,8.666,8.666,0,0,0-3.551,7.162V285.5l.289.029h.006l-.084-.224a.938.938,0,0,1,.546-1.209l.239-.09a.938.938,0,0,1,1.21.547Zm0,0" transform="translate(-197.126 -245.207)" fill="#48e5e1"/>
      <path id="Trazado_796425" data-name="Trazado 796425" d="M223.18,287.589h.006l-.085-.224a.938.938,0,0,1,.547-1.209l.239-.091a.938.938,0,0,1,1.209.546l.907,2.372a3.151,3.151,0,0,1,.274.473l.1.024v-3.362a8.669,8.669,0,0,1,2.7-6.447,12.439,12.439,0,0,1-2.641-.714,8.666,8.666,0,0,0-3.551,7.162v1.441Zm0,0" transform="translate(-197.127 -247.266)" fill="#41ceca"/>
      <path id="Trazado_796426" data-name="Trazado 796426" d="M248.513,436.123v-3.665a2.367,2.367,0,0,1,.272-1.1,2.422,2.422,0,0,0-4.547.828H242.5v5.606a.732.732,0,0,1-.734.727H246.8v-.008a2.42,2.42,0,0,0,1.981-1.284,2.366,2.366,0,0,1-.272-1.1Zm0,0" transform="translate(-213.857 -381.206)" fill="#a2f9f9"/>
      <path id="Trazado_796427" data-name="Trazado 796427" d="M303.41,438.511v.008h9.8a3.167,3.167,0,1,0,0-6.333h-7.235a2.419,2.419,0,0,0-4.82.273v3.665a2.4,2.4,0,0,0,2.254,2.388Zm0,0" transform="translate(-266.501 -381.206)" fill="#a2f9f9"/>
      <path id="Trazado_796428" data-name="Trazado 796428" d="M304.621,436.123v-3.665a2.377,2.377,0,0,1,.687-1.671,2.42,2.42,0,0,0-4.147,1.671v3.665a2.4,2.4,0,0,0,2.253,2.388v.008h3.46v-.008A2.4,2.4,0,0,1,304.621,436.123Zm0,0" transform="translate(-266.504 -381.206)" fill="#91e0e0"/>
      <path id="Trazado_796429" data-name="Trazado 796429" d="M288.237,286.112h-3.417a14.589,14.589,0,0,1-1.569-.084,2.764,2.764,0,0,0,5.525.071C288.6,286.107,288.417,286.112,288.237,286.112Zm0,0" transform="translate(-250.629 -253.534)" fill="#ffd5b3"/>
      <path id="Trazado_796430" data-name="Trazado 796430" d="M221.662,91.019h-.046V89.4c0-.125,0-.249-.007-.373a2.885,2.885,0,0,1-.84.463,6.026,6.026,0,0,1-2,.368c-3.47,0-5.04-3.652-5.056-3.689l-.107-.256-.1.258c-.019.047-1.922,4.735-5.1,4.735a3.532,3.532,0,0,1-1.061-.169c-1.506-.475-2-1.621-1.48-3.405l-.206-.091c-.977,1.631-2.476,3.575-4.066,3.575a1.959,1.959,0,0,1-.551-.079,1.919,1.919,0,0,1-1.258-1.025,4.46,4.46,0,0,1,.264-3.455l-.208-.092c-1.317,2.761-2.718,4.1-4.283,4.1a2.776,2.776,0,0,1-.539-.054v6.965c0,7.5,5.19,11.551,11.593,11.551h3.417a11.59,11.59,0,0,0,11.208-8.591,2.845,2.845,0,0,0,.432.034c1.985,0,3.595-2.051,3.595-4.58s-1.61-4.579-3.595-4.579Zm0,0" transform="translate(-172.415 -76.157)" fill="#ffd5b3"/>
      <path id="Trazado_796431" data-name="Trazado 796431" d="M198.489,118.115v-7.779c0-.271.01-.539.028-.8-.915,1.175-2.073,2-3.506,1.732v6.851c0,7.5,5.19,11.551,11.593,11.551h3.437c-6.384-.017-11.552-4.065-11.552-11.551Zm0,0" transform="translate(-172.415 -97.088)" fill="#e5bfa1"/>
      <path id="Trazado_796432" data-name="Trazado 796432" d="M266.018,218.663a3.888,3.888,0,0,1-3.9-3.866.73.73,0,0,1,.734-.727h6.336a.73.73,0,0,1,.734.727A3.888,3.888,0,0,1,266.018,218.663Zm0,0" transform="translate(-231.897 -189.751)" fill="#fb8276"/>
      <path id="Trazado_796433" data-name="Trazado 796433" d="M265.619,214.8a.73.73,0,0,1,.734-.727h-3.5a.73.73,0,0,0-.734.727,3.905,3.905,0,0,0,5.652,3.453A3.865,3.865,0,0,1,265.619,214.8Zm0,0" transform="translate(-231.897 -189.752)" fill="#e1756a"/>
      <path id="Trazado_796434" data-name="Trazado 796434" d="M198.456,7.5h-3.7a12.518,12.518,0,0,0-12.541,12.5v.187a3.39,3.39,0,0,0,.822.458c2.657,1.053,4.453-1.621,5.555-3.932-.821,1.988-.793,4.089,1.068,4.632,1.8.525,3.519-1.5,4.746-3.546-.42,1.432-.327,2.952,1.555,3.546,3.961,1.249,6.3-4.632,6.3-4.632s2.161,5.168,7.2,3.384a2.919,2.919,0,0,0,1.483-1.141A12.522,12.522,0,0,0,198.456,7.5Zm0,0" transform="translate(-161.075 -6.648)" fill="#f7931e"/>
      <path id="Trazado_796435" data-name="Trazado 796435" d="M185.686,20.183V20A12.518,12.518,0,0,1,198.227,7.5h-3.464A12.518,12.518,0,0,0,182.223,20v.187a3.378,3.378,0,0,0,.822.458,2.926,2.926,0,0,0,2.856-.31c-.075-.047-.146-.1-.214-.148Zm0,0" transform="translate(-161.079 -6.649)" fill="#de841b"/>
      <path id="Trazado_796436" data-name="Trazado 796436" d="M101.81,247.523v-.829a1.607,1.607,0,0,0-1.614-1.6H95.5a1.607,1.607,0,0,0-1.614,1.6v.829Zm0,0" transform="translate(-82.778 -217.251)" fill="#89c947"/>
      <path id="Trazado_796437" data-name="Trazado 796437" d="M97.408,247.523v-.829a1.607,1.607,0,0,1,1.614-1.6H95.5a1.607,1.607,0,0,0-1.614,1.6v.829Zm0,0" transform="translate(-82.778 -217.251)" fill="#7bb540"/>
      <path id="Trazado_796438" data-name="Trazado 796438" d="M82.349,279.266a.733.733,0,0,1-.734.727H69.437a.732.732,0,0,1-.734-.727V267.2a.732.732,0,0,1,.734-.727H81.615a.733.733,0,0,1,.734.727Zm0,0" transform="translate(-60.456 -236.201)" fill="#d5e962"/>
      <path id="Trazado_796439" data-name="Trazado 796439" d="M72.215,279.266v-5.153l-.687-.66a1.262,1.262,0,0,1,.687-2.158v-4.1a.732.732,0,0,1,.734-.727H69.437a.732.732,0,0,0-.734.727v12.067a.732.732,0,0,0,.734.726h3.512a.732.732,0,0,1-.734-.726Zm0,0" transform="translate(-60.455 -236.201)" fill="#bfd158"/>
      <path id="Trazado_796440" data-name="Trazado 796440" d="M103.119,303.32a.418.418,0,0,1-.194-.048l-1.731-.9-1.731.9a.421.421,0,0,1-.44-.031.408.408,0,0,1-.166-.4l.33-1.9-1.4-1.345a.407.407,0,0,1-.106-.422.418.418,0,0,1,.337-.281l1.935-.277.865-1.728a.42.42,0,0,1,.749,0l.866,1.728,1.935.277a.416.416,0,0,1,.337.281.406.406,0,0,1-.106.422l-1.4,1.345.331,1.9a.409.409,0,0,1-.166.4.422.422,0,0,1-.246.079Zm0,0" transform="translate(-86.124 -262.956)" fill="#89c947"/>
      <path id="Trazado_796441" data-name="Trazado 796441" d="M21.645,398.282a.733.733,0,0,1-.734.727H8.734A.732.732,0,0,1,8,398.282V386.215a.732.732,0,0,1,.734-.727H20.911a.733.733,0,0,1,.734.727Zm0,0" transform="translate(-6.648 -341.696)" fill="#fb8276"/>
      <path id="Trazado_796442" data-name="Trazado 796442" d="M11.479,398.282v-4.849l-.545-.533a2.68,2.68,0,0,1,0-3.84,2.786,2.786,0,0,1,.545-.414v-2.43a.732.732,0,0,1,.734-.727H8.734a.732.732,0,0,0-.734.727v12.066a.732.732,0,0,0,.734.727h3.479A.732.732,0,0,1,11.479,398.282Zm0,0" transform="translate(-6.648 -341.696)" fill="#e1756a"/>
      <path id="Trazado_796443" data-name="Trazado 796443" d="M38.033,423.749a.349.349,0,0,1-.244-.1l-3.05-2.983a1.827,1.827,0,0,1,0-2.622,1.925,1.925,0,0,1,2.68,0l.613.6.613-.6a1.925,1.925,0,0,1,2.68,0,1.827,1.827,0,0,1,0,2.622l-3.05,2.983A.35.35,0,0,1,38.033,423.749Zm0,0" transform="translate(-29.859 -370.074)" fill="#ef5050"/>
      <path id="Trazado_796444" data-name="Trazado 796444" d="M139.053,388.272l-2.824-.284a.869.869,0,0,1-.778-.952l.024-.236a.87.87,0,0,1,.952-.778l2.04.205.016-.152-2.49-.251a.865.865,0,0,1-.6-.336h-6.548a.732.732,0,0,0-.734.727v12.066a.732.732,0,0,0,.734.727h12.178a.732.732,0,0,0,.734-.727V387.244a3.206,3.206,0,0,1-2.7,1.028Zm0,0" transform="translate(-113.113 -341.696)" fill="#ffc502"/>
      <path id="Trazado_796445" data-name="Trazado 796445" d="M131.579,398.282v-3.934l-.606-1.041a2.223,2.223,0,0,1,0-2.117l.606-1.041v-3.934a.732.732,0,0,1,.734-.727h-3.466a.732.732,0,0,0-.734.727v12.066a.732.732,0,0,0,.734.727h3.466a.732.732,0,0,1-.734-.727Zm0,0" transform="translate(-113.116 -341.696)" fill="#e5b102"/>
      <path id="Trazado_796446" data-name="Trazado 796446" d="M160.748,424.019a1.413,1.413,0,0,1-1.1-.629l-1.063-1.825a1.384,1.384,0,0,1,0-1.259l1.063-1.825a1.413,1.413,0,0,1,1.1-.629h2.127a1.411,1.411,0,0,1,1.1.629l1.063,1.825a1.384,1.384,0,0,1,0,1.259l-1.063,1.825a1.411,1.411,0,0,1-1.1.629Zm0,0" transform="translate(-139.992 -370.383)" fill="#fcdb67"/>
      <path id="Trazado_796447" data-name="Trazado 796447" d="M262.015,318.344a2.321,2.321,0,0,0-3.086,1.056,9.108,9.108,0,0,1-10.364,4.765,3.055,3.055,0,0,1-.53,3.381l.021-.022v1.219a13.755,13.755,0,0,0,15.012-7.342,2.272,2.272,0,0,0-1.053-3.056Zm0,0" transform="translate(-219.415 -281.975)" fill="#a2f9f9"/>
      <path id="Trazado_796448" data-name="Trazado 796448" d="M190.862,347.6l.024-.236a.87.87,0,0,1,.953-.778l2.039.205.016-.152-2.489-.251a.87.87,0,0,1-.778-.952l.024-.236a.87.87,0,0,1,.952-.778l2.489.25.015-.152-2.04-.205a.87.87,0,0,1-.778-.952l.024-.236a.87.87,0,0,1,.952-.778l2.312.232h.005l-.084-.223a.939.939,0,0,1,.546-1.21l.239-.091a.939.939,0,0,1,1.21.547l.907,2.371a3.071,3.071,0,0,1,.548,2.078,3.153,3.153,0,0,1-3.484,2.782l-2.823-.284a.869.869,0,0,1-.778-.952Zm0,0" transform="translate(-168.523 -302.259)" fill="#ffd5b3"/>
      <path id="Trazado_796449" data-name="Trazado 796449" d="M49.443,24.867c2.362-.125,4.251-2.511,4.251-5.426,0-2.659-1.573-4.878-3.641-5.342v-.694a3.87,3.87,0,0,0,.528-.624.853.853,0,0,0,.143-.548A13.374,13.374,0,0,0,37.381,0h-3.7A13.386,13.386,0,0,0,20.291,13.347v.187a.853.853,0,0,0,.334.676,4.26,4.26,0,0,0,1.026.575c.031.012.062.022.093.033v6.208a12.178,12.178,0,0,0,3.667,9.213A11.133,11.133,0,0,0,27.761,31.9a9.585,9.585,0,0,0-1,1.152,8.819,8.819,0,0,1-3.379.667c-.215,0-.429-.009-.642-.025V31a1.584,1.584,0,0,0-1.586-1.579H19.883a2.461,2.461,0,0,0-2.465-2.429h-4.7a2.461,2.461,0,0,0-2.466,2.429H8.981A1.584,1.584,0,0,0,7.4,31V42.94H2.085A1.584,1.584,0,0,0,.5,44.519V56.586a1.584,1.584,0,0,0,1.586,1.579H32.946a.839.839,0,0,0,.189-.022,3.261,3.261,0,0,0,1.791-.782,3.264,3.264,0,0,0,1.789.782.835.835,0,0,0,.193.022h9.8a4.016,4.016,0,0,0,.657-7.983V48.508a.852.852,0,0,0-1.7,0v1.619H40.141A3.278,3.278,0,0,0,34.927,48.8a3.278,3.278,0,0,0-5.214,1.322h-.22V47.769a14.438,14.438,0,0,0,1.837.118A14.59,14.59,0,0,0,44.417,39.8a3.124,3.124,0,0,0-1.447-4.2,3.179,3.179,0,0,0-4.22,1.446,8.131,8.131,0,0,1-3.323,3.5.852.852,0,1,0,.834,1.486,9.829,9.829,0,0,0,4.017-4.23,1.469,1.469,0,0,1,1.951-.666,1.419,1.419,0,0,1,.66,1.911,12.892,12.892,0,0,1-13.4,7v-.184a3.917,3.917,0,0,0,.778-1.981,3.826,3.826,0,0,0,.012-.625,9.919,9.919,0,0,0,1.756.038.852.852,0,1,0-.117-1.7,8.164,8.164,0,0,1-2.21-.152c-.025-.04-.05-.081-.076-.121l-.87-2.275a1.783,1.783,0,0,0-2.1-1.1,7.8,7.8,0,0,1,2.786-5.3,13.57,13.57,0,0,0,2.405.6,3.621,3.621,0,0,0,7.035.113,12.437,12.437,0,0,0,3.673-.96,7.74,7.74,0,0,1,3.1,6.337v5.794a.852.852,0,0,0,1.7,0V38.738a9.3,9.3,0,0,0-3.165-7.2,12.394,12.394,0,0,0,5.242-6.675ZM35.508,51.252a1.567,1.567,0,0,1,3.121-.176.852.852,0,0,0,.846.755H46.71a2.315,2.315,0,1,1,0,4.629H37.026l-.06-.006a1.555,1.555,0,0,1-1.458-1.538Zm-6.014.579h.886a.851.851,0,0,0,.846-.755,1.57,1.57,0,0,1,2.739-.832,3.208,3.208,0,0,0-.162,1.007v3.665a3.2,3.2,0,0,0,.162,1,1.569,1.569,0,0,1-1.077.533l-.06.006H29.494ZM22.745,35.406c.213.013.427.021.642.021a10.622,10.622,0,0,0,2.2-.232,9.91,9.91,0,0,0-.668,3.3,14.03,14.03,0,0,1-1.532.084c-.215,0-.429-.006-.642-.016Zm.138,12.915a.613.613,0,0,1,.364.206l1.063,1.825a.584.584,0,0,1,0,.4l-1.063,1.824a.613.613,0,0,1-.364.206H20.756a.613.613,0,0,1-.364-.206l-1.063-1.825a.583.583,0,0,1,0-.4l1.063-1.825a.613.613,0,0,1,.364-.206h2.127ZM12.723,28.7h4.7a.755.755,0,0,1,.761.725H11.962a.755.755,0,0,1,.761-.725ZM9.1,31.124H21.04V42.941H9.1Zm5.045,25.337H2.2V44.644H14.145Zm13.645,0H15.849V44.644H21.6a1.707,1.707,0,0,0-.082.374l-.024.237a1.717,1.717,0,0,0,.471,1.361H20.756a2.252,2.252,0,0,0-1.837,1.053l-1.063,1.825a2.223,2.223,0,0,0,0,2.117l1.063,1.825a2.253,2.253,0,0,0,1.837,1.053h2.127a2.25,2.25,0,0,0,1.836-1.053l1.063-1.824a2.225,2.225,0,0,0,0-2.117l-1.063-1.825a1.946,1.946,0,0,0-.306-.39l1.442.145c.138.014.278.021.416.021a4.089,4.089,0,0,0,1.519-.29ZM26.739,40.835a.852.852,0,0,0,.117-.813l-.085-.223a.084.084,0,0,1,0-.066.085.085,0,0,1,.049-.045l.238-.09a.088.088,0,0,1,.031-.006.09.09,0,0,1,.082.059l.907,2.371a.838.838,0,0,0,.1.186,2.228,2.228,0,0,1,.4,1.5,2.285,2.285,0,0,1-2.306,2.032c-.081,0-.163,0-.245-.012L23.2,45.445a.018.018,0,0,1-.016-.019l.024-.236a.018.018,0,0,1,.019-.016h0l2.039.205a.852.852,0,0,0,.933-.762l.015-.151a.852.852,0,0,0-.762-.934l-2.489-.251a.02.02,0,0,1-.016-.019l.024-.236c0-.013.014-.015.02-.016l2.489.251a.852.852,0,0,0,.933-.762l.015-.152a.852.852,0,0,0-.762-.933l-2.04-.205a.02.02,0,0,1-.016-.02l.024-.236c0-.013.014-.014.019-.016l2.312.233.022,0A.85.85,0,0,0,26.739,40.835Zm8.645-6.473a1.914,1.914,0,0,1-1.651-.94c.152,0,.3.007.457.007h2.841a1.913,1.913,0,0,1-1.647.933Zm2.223-2.637H34.19c-6.525,0-10.741-4.2-10.741-10.7V15.064A4.2,4.2,0,0,0,25.9,13.922q.212-.19.417-.41a3.186,3.186,0,0,0,.179.465,2.885,2.885,0,0,0,1.858,1.534c1.387.406,2.788-.19,4.18-1.772a3.179,3.179,0,0,0,2.1,1.767A4.506,4.506,0,0,0,36,15.722a5.5,5.5,0,0,0,4.189-2.336,11.832,11.832,0,0,0,1.067-1.549A7.812,7.812,0,0,0,42.7,13.368a.852.852,0,1,0,1.059-1.335,6.639,6.639,0,0,1-1.78-2.3.852.852,0,0,0-.786-.524h-.007a.854.854,0,0,0-.785.537c-.02.051-2.085,5.134-5.253,4.135-.781-.246-1.509-.735-.993-2.493A.852.852,0,0,0,32.6,10.71c-1.383,2.308-2.758,3.464-3.777,3.166a1.184,1.184,0,0,1-.8-.636,3.83,3.83,0,0,1,.281-2.853.852.852,0,0,0-1.557-.692c-2.117,4.439-3.89,3.737-4.472,3.506a2.906,2.906,0,0,1-.28-.129A11.681,11.681,0,0,1,33.685,1.7h3.7A11.735,11.735,0,0,1,48.995,12.052a2.071,2.071,0,0,1-.887.589,5.826,5.826,0,0,1-1.037.268.852.852,0,0,0,.266,1.683,7.416,7.416,0,0,0,1.011-.237v.507a.851.851,0,0,0,.852.852h.055c1.508.007,2.734,1.676,2.734,3.728s-1.231,3.727-2.743,3.727a1.993,1.993,0,0,1-.3-.024.852.852,0,0,0-.952.623,10.739,10.739,0,0,1-10.384,7.957Zm0,0" transform="translate(0 0)"/>
      <path id="Trazado_796450" data-name="Trazado 796450" d="M343.528,156.6a.852.852,0,0,0-.852.852v1.4a.852.852,0,0,0,1.7,0v-1.4A.852.852,0,0,0,343.528,156.6Zm0,0" transform="translate(-303.304 -138.808)"/>
      <path id="Trazado_796451" data-name="Trazado 796451" d="M232.711,156.6a.852.852,0,0,0-.852.852v1.4a.852.852,0,1,0,1.7,0v-1.4A.852.852,0,0,0,232.711,156.6Zm0,0" transform="translate(-205.076 -138.808)"/>
      <path id="Trazado_796452" data-name="Trazado 796452" d="M283.807,168.584h.552a.852.852,0,0,0,0-1.7h-.253v-.79a.852.852,0,0,0-1.7,0v1.074A1.414,1.414,0,0,0,283.807,168.584Zm0,0" transform="translate(-249.878 -146.467)"/>
      <path id="Trazado_796453" data-name="Trazado 796453" d="M262.539,206.566H256.2a1.584,1.584,0,0,0-1.586,1.579,4.754,4.754,0,0,0,9.507,0,1.584,1.584,0,0,0-1.586-1.579Zm-3.168,4.593a3.038,3.038,0,0,1-3.047-2.889h6.094A3.038,3.038,0,0,1,259.371,211.159Zm0,0" transform="translate(-225.249 -183.1)"/>
      <path id="Trazado_796454" data-name="Trazado 796454" d="M97.846,291.4l-1.493-.213-.666-1.329a1.273,1.273,0,0,0-2.273,0l-.666,1.329-1.5.214a1.263,1.263,0,0,0-.7,2.16l1.073,1.031-.253,1.453a1.27,1.27,0,0,0,1.837,1.337l1.339-.694,1.334.691a1.276,1.276,0,0,0,.591.145,1.267,1.267,0,0,0,1.251-1.48l-.253-1.453,1.073-1.03a1.263,1.263,0,0,0-.7-2.161Zm-1.879,2.277a.85.85,0,0,0-.249.76l.179,1.029-.954-.494a.852.852,0,0,0-.784,0l-.954.494.179-1.029a.853.853,0,0,0-.249-.761l-.747-.717,1.044-.149a.853.853,0,0,0,.641-.462l.478-.955.478.955a.852.852,0,0,0,.641.462l1.043.149Zm0,0" transform="translate(-79.481 -256.307)"/>
      <path id="Trazado_796455" data-name="Trazado 796455" d="M30.547,417.616a1.2,1.2,0,0,0,1.679,0l3.05-2.983a2.678,2.678,0,0,0,0-3.839,2.778,2.778,0,0,0-3.871,0l-.018.017-.017-.017a2.778,2.778,0,0,0-3.871,0,2.679,2.679,0,0,0,0,3.84Zm-1.858-5.6a1.074,1.074,0,0,1,1.489,0l.613.6a.853.853,0,0,0,1.192,0l.613-.6a1.073,1.073,0,0,1,1.489,0,.975.975,0,0,1,0,1.4l-2.7,2.638-2.7-2.638a.975.975,0,0,1,0-1.4Zm0,0" transform="translate(-23.213 -363.43)"/>
      <path id="Trazado_796456" data-name="Trazado 796456" d="M422.309,158.648a.847.847,0,0,0,.4-.1c1.82-.983,1.522-3.043,1.111-4a.852.852,0,0,0-1.564.676c.024.054.56,1.325-.357,1.82a.852.852,0,0,0,.406,1.6Zm0,0" transform="translate(-373.134 -136.538)"/>
    </g>
  </g>
</svg>
