<svg xmlns="http://www.w3.org/2000/svg" width="190" height="116.005" viewBox="0 0 190 116.005">
  <g id="Grupo_1064332" data-name="Grupo 1064332" transform="translate(-180 -6362.995)">
    <rect id="Rectángulo_373693" data-name="Rectángulo 373693" width="190" height="86" rx="10" transform="translate(180 6393)" fill="#ffebc5"/>
    <g id="neurona" transform="translate(201.93 6357.001)">
      <g id="Grupo_1065280" data-name="Grupo 1065280" transform="translate(30.088 7.499)">
        <path id="Trazado_799747" data-name="Trazado 799747" d="M221.7,73.158a2.856,2.856,0,0,1-.615,3.991,11.072,11.072,0,0,1-3.873,1.787,1.905,1.905,0,0,0-1.2,2.853,8.293,8.293,0,0,0,.575.805,2.874,2.874,0,0,1,.181,3.333,2.841,2.841,0,0,1-4.612.3,19.66,19.66,0,0,1-3.129-6.125c-1.549-4.364-6.694-5.282-11.129-3.822-5.01,1.646-9.3,3.58-12.827,7.073-44.268-17.414-13.325-55.72-13.042-56.07l0,0a19.343,19.343,0,0,0,3.447-3.354,3.347,3.347,0,0,0,.978-2.408,2.876,2.876,0,0,0-1.047-2.05c-.194-.16-.375-.318-.541-.476-1.943-1.846-2.176-3.656-3.114-5.246a2.861,2.861,0,1,1,4.924-2.914c1.233,2.208,1.485,4.225,3.236,4.315a1.864,1.864,0,0,0,1.443-.563c.826-.845,1.23-1.593.883-3.782a2.855,2.855,0,0,1,5.64-.893c.9,5.7-1.683,8.034-3.569,9.737a3.894,3.894,0,0,0-.39,5.371c3.8,4.547,9.831,6.435,15.409,8.268,4.458,1.464,8.148.525,9.7-3.824a19.782,19.782,0,0,1,3.125-6.123,2.841,2.841,0,0,1,4.612.3,2.871,2.871,0,0,1-.181,3.331,7.961,7.961,0,0,0-.573.805,1.907,1.907,0,0,0,1.2,2.855,11.055,11.055,0,0,1,3.873,1.787,2.855,2.855,0,1,1-3.388,4.6c-3.243-2.364-6.153-.415-8.194,3.559a32.8,32.8,0,0,0-3,14.21c0,13.672,6.77,21.015,11.211,17.76A2.854,2.854,0,0,1,221.7,73.158Z" transform="translate(-136.285 -7.502)" fill="#c7aee4"/>
        <path id="Trazado_799748" data-name="Trazado 799748" d="M233.345,68.353c-.194-.16-.375-.318-.541-.476Z" transform="translate(-194.22 -56.386)" fill="#fcf5af"/>
        <path id="Trazado_799749" data-name="Trazado 799749" d="M77.6,163.059a2.8,2.8,0,0,1-1.939-1.389c-.565-1.009-.916-1.957-1.294-2.7a2.64,2.64,0,0,0-1.452-1.521,1.878,1.878,0,0,0-1.932.472c-.885.908-1.214,1.69-.883,3.784a2.855,2.855,0,0,1-5.64.891c-.9-5.7,1.683-8.032,3.569-9.737a3.892,3.892,0,0,0,.4-5.352l-.006-.008s0,0-.008-.01c-3.8-4.549-8.4-6.437-13.976-8.268-4.418-1.45-9.574-.558-11.133,3.822a19.761,19.761,0,0,1-3.125,6.123,2.84,2.84,0,0,1-4.612-.3,2.874,2.874,0,0,1,.181-3.333,7.756,7.756,0,0,0,.573-.805,1.9,1.9,0,0,0-1.2-2.853,11.124,11.124,0,0,1-3.873-1.787,2.855,2.855,0,1,1,3.388-4.6,4.742,4.742,0,0,0,4.583.63c6.808-2.779,6.6-18.4,6.614-18.4,0-13.828-6.837-20.967-11.211-17.762a2.854,2.854,0,0,1-3.375-4.6,11.072,11.072,0,0,1,3.873-1.787,1.907,1.907,0,0,0,1.2-2.855,8.29,8.29,0,0,0-.575-.805,2.874,2.874,0,0,1-.181-3.333,2.841,2.841,0,0,1,4.612-.3A19.68,19.68,0,0,1,43.312,92.4c1.555,4.378,5.282,5.274,9.7,3.824,4.475-1.473,9.113-3.173,12.827-6.007-4.49,12.589-9.456,37.806,13.04,56.072a23.016,23.016,0,0,0-2.451,2.861,2.854,2.854,0,0,0,.506,3.885c2.45,2.006,2.634,3.993,3.654,5.721A2.889,2.889,0,0,1,77.6,163.059Z" transform="translate(-30.088 -70.437)" fill="#b18cd9"/>
        <path id="Trazado_799750" data-name="Trazado 799750" d="M217.164,354.277l0,0c.021.025.032.038.036.044S217.179,354.294,217.164,354.277Z" transform="translate(-181.557 -288.274)" fill="#fcf5af"/>
        <path id="Trazado_799751" data-name="Trazado 799751" d="M205.873,169.743a20.1,20.1,0,0,1-22.6,19.916c-26.211-12.6-7.423-37.591-7.423-37.591C189.249,144.363,205.873,154.407,205.873,169.743Z" transform="translate(-142.827 -122.404)" fill="#fcf5af"/>
        <path id="Trazado_799752" data-name="Trazado 799752" d="M163.2,199.7c.021.025.032.038.036.044s-.025-.029-.04-.046A20.935,20.935,0,0,1,150.5,180.774a20.05,20.05,0,0,1,10.1-17.417c-2.122,10.849-1.991,25.021,7.423,37.591A19.985,19.985,0,0,1,163.2,199.7Z" transform="translate(-127.585 -133.693)" fill="#fbd788"/>
        <ellipse id="Elipse_8457" data-name="Elipse 8457" cx="3.126" cy="3.498" rx="3.126" ry="3.498" transform="translate(39.969 44.192)" fill="#495560"/>
      </g>
      <g id="Grupo_1065282" data-name="Grupo 1065282" transform="translate(30.088 7.499)">
        <path id="Trazado_799753" data-name="Trazado 799753" d="M166.265,150.925a20.065,20.065,0,1,1-5.732,2.222" transform="translate(-127.583 -123.245)" fill="none" stroke="#000" stroke-linecap="round" stroke-linejoin="round" stroke-miterlimit="10" stroke-width="3"/>
        <g id="Grupo_1065281" data-name="Grupo 1065281" transform="translate(28.652 43.176)">
          <ellipse id="Elipse_8458" data-name="Elipse 8458" cx="3.126" cy="3.498" rx="3.126" ry="3.498" transform="translate(11.317 1.215)" fill="none" stroke="#000" stroke-linecap="round" stroke-linejoin="round" stroke-miterlimit="10" stroke-width="3"/>
          <path id="Trazado_799754" data-name="Trazado 799754" d="M185.866,236.965a2.62,2.62,0,1,0-5.24,0" transform="translate(-180.626 -234.345)" fill="none" stroke="#000" stroke-linecap="round" stroke-linejoin="round" stroke-miterlimit="10" stroke-width="3"/>
          <path id="Trazado_799755" data-name="Trazado 799755" d="M303.671,236.965a2.62,2.62,0,1,1,5.24,0" transform="translate(-280.251 -234.345)" fill="none" stroke="#000" stroke-linecap="round" stroke-linejoin="round" stroke-miterlimit="10" stroke-width="3"/>
        </g>
        <path id="Trazado_799756" data-name="Trazado 799756" d="M91.7,76.277c4.413-1.451,9.574-.556,11.129,3.822a19.652,19.652,0,0,0,3.128,6.125,2.842,2.842,0,0,0,4.612-.3,2.876,2.876,0,0,0-.181-3.334,7.83,7.83,0,0,1-.574-.8,1.906,1.906,0,0,1,1.2-2.854,11.065,11.065,0,0,0,3.874-1.788,2.855,2.855,0,1,0-3.376-4.605c-4.374,3.206-11.21-3.934-11.21-17.761,0-11.018,4.99-22.294,11.2-17.769a2.855,2.855,0,1,0,3.388-4.6,11.07,11.07,0,0,0-3.873-1.787,1.906,1.906,0,0,1-1.2-2.855,7.892,7.892,0,0,1,.574-.8,2.872,2.872,0,0,0,.18-3.331,2.84,2.84,0,0,0-4.613-.3,19.729,19.729,0,0,0-3.125,6.122c-1.559,4.38-5.282,5.273-9.7,3.823-5.579-1.832-11.61-3.72-15.41-8.268a3.894,3.894,0,0,1,.39-5.37c1.887-1.7,4.47-4.039,3.569-9.737a2.855,2.855,0,1,0-5.64.892c.331,2.092,0,2.876-.884,3.783a1.891,1.891,0,0,1-2.9-.242c-.676-.959-1.041-2.19-1.778-3.511a2.861,2.861,0,1,0-4.924,2.914c1.019,1.727,1.2,3.715,3.653,5.721a2.852,2.852,0,0,1,.506,3.884c-3.92,5.391-10.476,7.884-16.711,9.934-4.413,1.451-8.141.556-9.7-3.822a19.652,19.652,0,0,0-3.128-6.125,2.842,2.842,0,0,0-4.612.3,2.876,2.876,0,0,0,.181,3.333,7.852,7.852,0,0,1,.574.8,1.906,1.906,0,0,1-1.2,2.854,11.065,11.065,0,0,0-3.874,1.788,2.855,2.855,0,0,0,3.376,4.605c4.374-3.206,11.21,3.934,11.21,17.761-.019,0,.194,15.621-6.615,18.4a4.744,4.744,0,0,1-4.583-.631,2.855,2.855,0,1,0-3.388,4.6,11.07,11.07,0,0,0,3.873,1.787,1.906,1.906,0,0,1,1.2,2.855,7.89,7.89,0,0,1-.574.8,2.872,2.872,0,0,0-.18,3.331,2.84,2.84,0,0,0,4.613.3A19.73,19.73,0,0,0,43.308,80.1c1.559-4.38,6.715-5.273,11.132-3.823C60.02,78.109,64.618,80,68.418,84.544a3.894,3.894,0,0,1-.39,5.37c-1.887,1.7-4.47,4.039-3.569,9.737a2.855,2.855,0,1,0,5.64-.892c-.331-2.092,0-2.876.884-3.783a1.891,1.891,0,0,1,2.9.242c.676.959,1.041,2.19,1.778,3.511a2.861,2.861,0,1,0,4.924-2.914c-1.019-1.727-1.2-3.715-3.653-5.721a2.852,2.852,0,0,1-.506-3.884A23.885,23.885,0,0,1,85.969,78.5" transform="translate(-30.089 -7.499)" fill="none" stroke="#000" stroke-linecap="round" stroke-linejoin="round" stroke-miterlimit="10" stroke-width="3"/>
      </g>
    </g>
  </g>
</svg>
