<svg xmlns="http://www.w3.org/2000/svg" xmlns:xlink="http://www.w3.org/1999/xlink" width="270" height="770" viewBox="0 0 270 770">
  <defs>
    <clipPath id="clip-path">
      <rect id="Rectángulo_373894" data-name="Rectángulo 373894" width="94.674" height="172.865" fill="none"/>
    </clipPath>
    <clipPath id="clip-path-3">
      <rect id="Rectángulo_373879" data-name="Rectángulo 373879" width="26.577" height="44.532" fill="none"/>
    </clipPath>
    <clipPath id="clip-path-4">
      <rect id="Rectángulo_373880" data-name="Rectángulo 373880" width="22.888" height="45.82" fill="none"/>
    </clipPath>
    <clipPath id="clip-path-5">
      <rect id="Rectángulo_373885" data-name="Rectángulo 373885" width="19.682" height="12.182" fill="none"/>
    </clipPath>
    <clipPath id="clip-path-6">
      <rect id="Rectángulo_373881" data-name="Rectángulo 373881" width="16.146" height="11.29" fill="none"/>
    </clipPath>
    <clipPath id="clip-path-7">
      <rect id="Rectángulo_373882" data-name="Rectángulo 373882" width="16.059" height="8.731" fill="none"/>
    </clipPath>
    <clipPath id="clip-path-8">
      <rect id="Rectángulo_373883" data-name="Rectángulo 373883" width="17.421" height="12.182" fill="none"/>
    </clipPath>
    <clipPath id="clip-path-9">
      <rect id="Rectángulo_373884" data-name="Rectángulo 373884" width="19.657" height="11.586" fill="none"/>
    </clipPath>
    <clipPath id="clip-path-10">
      <rect id="Rectángulo_373890" data-name="Rectángulo 373890" width="19.779" height="12.077" fill="none"/>
    </clipPath>
    <clipPath id="clip-path-11">
      <rect id="Rectángulo_373886" data-name="Rectángulo 373886" width="16.212" height="11.193" fill="none"/>
    </clipPath>
    <clipPath id="clip-path-12">
      <rect id="Rectángulo_373887" data-name="Rectángulo 373887" width="16.151" height="8.56" fill="none"/>
    </clipPath>
    <clipPath id="clip-path-13">
      <rect id="Rectángulo_373888" data-name="Rectángulo 373888" width="17.493" height="12.077" fill="none"/>
    </clipPath>
    <clipPath id="clip-path-14">
      <rect id="Rectángulo_373889" data-name="Rectángulo 373889" width="19.761" height="11.408" fill="none"/>
    </clipPath>
    <clipPath id="clip-path-15">
      <rect id="Rectángulo_373891" data-name="Rectángulo 373891" width="53.941" height="36.902" fill="none"/>
    </clipPath>
    <clipPath id="clip-path-16">
      <rect id="Rectángulo_373892" data-name="Rectángulo 373892" width="10.698" height="30.351" fill="none"/>
    </clipPath>
    <clipPath id="clip-path-17">
      <rect id="Rectángulo_373906" data-name="Rectángulo 373906" width="100.459" height="172.823" fill="none"/>
    </clipPath>
    <clipPath id="clip-path-19">
      <rect id="Rectángulo_373899" data-name="Rectángulo 373899" width="19.72" height="12.141" fill="none"/>
    </clipPath>
    <clipPath id="clip-path-20">
      <rect id="Rectángulo_373895" data-name="Rectángulo 373895" width="16.171" height="11.253" fill="none"/>
    </clipPath>
    <clipPath id="clip-path-21">
      <rect id="Rectángulo_373896" data-name="Rectángulo 373896" width="16.095" height="8.665" fill="none"/>
    </clipPath>
    <clipPath id="clip-path-22">
      <rect id="Rectángulo_373897" data-name="Rectángulo 373897" width="17.449" height="12.141" fill="none"/>
    </clipPath>
    <clipPath id="clip-path-23">
      <rect id="Rectángulo_373898" data-name="Rectángulo 373898" width="19.698" height="11.518" fill="none"/>
    </clipPath>
    <clipPath id="clip-path-24">
      <rect id="Rectángulo_373904" data-name="Rectángulo 373904" width="19.746" height="12.113" fill="none"/>
    </clipPath>
    <clipPath id="clip-path-25">
      <rect id="Rectángulo_373900" data-name="Rectángulo 373900" width="16.189" height="11.227" fill="none"/>
    </clipPath>
    <clipPath id="clip-path-26">
      <rect id="Rectángulo_373901" data-name="Rectángulo 373901" width="16.119" height="8.62" fill="none"/>
    </clipPath>
    <clipPath id="clip-path-27">
      <rect id="Rectángulo_373902" data-name="Rectángulo 373902" width="17.468" height="12.113" fill="none"/>
    </clipPath>
    <clipPath id="clip-path-28">
      <rect id="Rectángulo_373903" data-name="Rectángulo 373903" width="19.725" height="11.47" fill="none"/>
    </clipPath>
  </defs>
  <g id="Grupo_1065340" data-name="Grupo 1065340" transform="translate(4026 5205)">
    <path id="Trazado_801013" data-name="Trazado 801013" d="M10,0H260a10,10,0,0,1,10,10V760a10,10,0,0,1-10,10H10A10,10,0,0,1,0,760V10A10,10,0,0,1,10,0Z" transform="translate(-4026 -5205)" fill="#fff"/>
    <g id="Grupo_1065255" data-name="Grupo 1065255" transform="translate(-3938.112 -5087.52)">
      <g id="Grupo_1065210" data-name="Grupo 1065210" clip-path="url(#clip-path)">
        <g id="Grupo_1065209" data-name="Grupo 1065209">
          <g id="Grupo_1065208" data-name="Grupo 1065208" clip-path="url(#clip-path)">
            <path id="Trazado_799581" data-name="Trazado 799581" d="M94.85,85.437c-1.27-5.315-2.642-10.679-4.292-15.888-1.432-4.521-.774-7.415.031-12.131A60.375,60.375,0,0,0,87.6,25.089c-3.728-9.48-6.422-13.121-15.726-17.7-20.531-10.1-55.615-2.566-64.4,20.359-3.92,10.229-.2,21.192.931,31.617A89.731,89.731,0,0,1,6.6,90.318c-1.98,7.907-3.887,16.583,4.309,21.731,3.534,2.219,7.044,3.331,10.637.433,2.711,7.575,11.513,2.581,15.149-1.482,2.544,2.373,5.764,5.473,9.314,5.908,4.066.5,6.063-2.988,8.853-2.989,2.867,0,4.767,3.231,8.443,2.683,2.9-.434,6.3-3.862,8.483-5.588,4.432,5.683,12.2,2.383,15.55-2.624C99.1,110.9,97.935,98.352,94.85,85.437" transform="translate(-2.258 -1.388)" fill="#a36148"/>
            <g id="Grupo_1065168" data-name="Grupo 1065168" transform="translate(63.772 62.646)" opacity="0.5">
              <g id="Grupo_1065167" data-name="Grupo 1065167">
                <g id="Grupo_1065166" data-name="Grupo 1065166" clip-path="url(#clip-path-3)">
                  <path id="Trazado_799582" data-name="Trazado 799582" d="M139.736,156.674c4.976-3.234-.249-9.205-.5-13.186-3.234,5.722-6.219,11.2-2.986,17.664-7.214-1.244-8.21-11.444-8.458-17.415-2.736,1.99-4.975,7.712-2.736,11.2-4.229-5.224-6.966-9.205-6.219-16.419.746-6.468,2.239-11.942,2.239-18.658,4.727,6.717,8.21,11.942,10.7,19.9,2.986-7.961-.5-15.176.249-23.137a30.673,30.673,0,0,1,5.225,10.7,61.82,61.82,0,0,1,.5-9.7c-.315,1.893,15.7,44.876,1.99,39.058" transform="translate(-118.716 -116.62)" fill="#cb806d"/>
                </g>
              </g>
            </g>
            <g id="Grupo_1065171" data-name="Grupo 1065171" transform="translate(7.918 64.636)" opacity="0.5">
              <g id="Grupo_1065170" data-name="Grupo 1065170">
                <g id="Grupo_1065169" data-name="Grupo 1065169" clip-path="url(#clip-path-4)">
                  <path id="Trazado_799583" data-name="Trazado 799583" d="M21.707,160.877c-7.237,1.277-6.89-9.271-6.13-13.676,1.591-9.217,7.125-17.3,7.125-26.875.5,6.468,2.488,13.185,2.737,19.9,3.732.249,4.975-4.727,6.966-7.215.747,6.468-7.961,29.853,5.225,30.1-4.727,9.951-13.434-7.463-14.181-11.444-2.239,1.99-2.488,6.469-.5,8.956-4.229,1.244-7.961-2.985-8.21-6.966" transform="translate(-14.741 -120.325)" fill="#cb806d"/>
                </g>
              </g>
            </g>
            <path id="Trazado_799584" data-name="Trazado 799584" d="M1.108,98.769c3.244-4.792,8.613-2.465,11.246,1.463,1.973,2.942,2.836,9.292-1.357,10.838-2.62.966-6.517-.711-8.351-2.614-2.454-2.546-3.687-6.511-1.537-9.686" transform="translate(0 -44.469)" fill="#fbbb9e"/>
            <path id="Trazado_799585" data-name="Trazado 799585" d="M158.722,101.638c-3.071-4.905-8.519-2.772-11.291,1.058-2.077,2.87-3.167,9.185.968,10.88,2.584,1.059,6.537-.477,8.44-2.313,2.544-2.456,3.918-6.374,1.883-9.625" transform="translate(-67.379 -45.72)" fill="#fbbb9e"/>
            <path id="Trazado_799586" data-name="Trazado 799586" d="M90.413,27.818c-4.251-8.614-15.877-10.046-24.428-11-13.857-1.537-26.826-2.692-39.791,4.1-15.544,8.148-8.317,32.427-8.565,46.314C17.4,80.1,27.395,84.348,35.72,86.211s13.817,3.23,13.336,6.222-2.862,11.333,3.78,11.452c.07,0,.132,0,.2,0l.2.006c6.642.119,4.842-8.412,3.929-11.459-.87-2.9,5.276-4.028,13.663-5.592,7.733-1.442,16.664-5.7,18.584-14.172,1.05-3.343,1.2-11.619,1.2-11.62.567-9.665,3.954-23.084.239-32.263q-.2-.5-.434-.967" transform="translate(-7.481 -7.241)" fill="#fed0b5"/>
            <path id="Trazado_799587" data-name="Trazado 799587" d="M84.472,113.05a3.994,3.994,0,0,1-1.692.488,4.3,4.3,0,0,1-1.816-.5c-.74-.315-1.714-.784-1.1-1.758.365-.579,1.093-.432,1.649-.275a4.528,4.528,0,0,0,2.018.259,12.443,12.443,0,0,1,1.891-.589c.837-.038.939,1.082.5,1.587a4.177,4.177,0,0,1-1.41.768l-.044.023" transform="translate(-36.873 -51.221)" fill="#e5a088"/>
            <g id="Grupo_1065186" data-name="Grupo 1065186" transform="translate(13.081 54.351)" opacity="0.5">
              <g id="Grupo_1065185" data-name="Grupo 1065185">
                <g id="Grupo_1065184" data-name="Grupo 1065184" clip-path="url(#clip-path-5)">
                  <g id="Grupo_1065174" data-name="Grupo 1065174" transform="translate(1.709 0.695)" opacity="0.5">
                    <g id="Grupo_1065173" data-name="Grupo 1065173">
                      <g id="Grupo_1065172" data-name="Grupo 1065172" clip-path="url(#clip-path-6)">
                        <path id="Trazado_799588" data-name="Trazado 799588" d="M43.583,109.969c.684-2.944-2.333-6.16-6.738-7.183s-8.53.534-9.214,3.479,2.333,6.16,6.738,7.183,8.53-.534,9.214-3.478" transform="translate(-27.534 -102.471)" fill="#eb7376"/>
                      </g>
                    </g>
                  </g>
                  <g id="Grupo_1065177" data-name="Grupo 1065177" transform="translate(2.586 2.168)" opacity="0.5">
                    <g id="Grupo_1065176" data-name="Grupo 1065176">
                      <g id="Grupo_1065175" data-name="Grupo 1065175" clip-path="url(#clip-path-7)">
                        <path id="Trazado_799589" data-name="Trazado 799589" d="M45.172,111.431c.507-2.183-2.653-4.781-7.059-5.8s-8.387-.083-8.894,2.1,2.653,4.781,7.058,5.8,8.388.083,8.894-2.1" transform="translate(-29.166 -105.213)" fill="#eb7376"/>
                      </g>
                    </g>
                  </g>
                  <g id="Grupo_1065180" data-name="Grupo 1065180" opacity="0.5">
                    <g id="Grupo_1065179" data-name="Grupo 1065179">
                      <g id="Grupo_1065178" data-name="Grupo 1065178" clip-path="url(#clip-path-8)">
                        <path id="Trazado_799590" data-name="Trazado 799590" d="M41.669,109.267c.738-3.176-2.517-6.647-7.27-7.75s-9.2.576-9.942,3.753,2.517,6.647,7.27,7.75,9.2-.576,9.942-3.753" transform="translate(-24.352 -101.178)" fill="#ffbd94"/>
                      </g>
                    </g>
                  </g>
                  <g id="Grupo_1065183" data-name="Grupo 1065183" transform="translate(0.025 0.563)" opacity="0.5">
                    <g id="Grupo_1065182" data-name="Grupo 1065182">
                      <g id="Grupo_1065181" data-name="Grupo 1065181" clip-path="url(#clip-path-9)">
                        <path id="Trazado_799591" data-name="Trazado 799591" d="M43.976,110.284c.684-2.944-3.127-6.344-8.512-7.594s-10.3.122-10.987,3.066,3.127,6.345,8.511,7.6,10.3-.123,10.988-3.067" transform="translate(-24.398 -102.227)" fill="#eb7376"/>
                      </g>
                    </g>
                  </g>
                </g>
              </g>
            </g>
            <g id="Grupo_1065201" data-name="Grupo 1065201" transform="translate(61.263 55.309)" opacity="0.5">
              <g id="Grupo_1065200" data-name="Grupo 1065200">
                <g id="Grupo_1065199" data-name="Grupo 1065199" clip-path="url(#clip-path-10)">
                  <g id="Grupo_1065189" data-name="Grupo 1065189" transform="translate(1.847 0.653)" opacity="0.5">
                    <g id="Grupo_1065188" data-name="Grupo 1065188">
                      <g id="Grupo_1065187" data-name="Grupo 1065187" clip-path="url(#clip-path-11)">
                        <path id="Trazado_799592" data-name="Trazado 799592" d="M117.553,111.337c-.578-2.967,2.553-6.072,6.991-6.937s8.506.84,9.083,3.806-2.552,6.072-6.991,6.937-8.506-.84-9.084-3.807" transform="translate(-117.484 -104.176)" fill="#eb7376"/>
                      </g>
                    </g>
                  </g>
                  <g id="Grupo_1065192" data-name="Grupo 1065192" transform="translate(1.037 2.133)" opacity="0.5">
                    <g id="Grupo_1065191" data-name="Grupo 1065191">
                      <g id="Grupo_1065190" data-name="Grupo 1065190" clip-path="url(#clip-path-12)">
                        <path id="Trazado_799593" data-name="Trazado 799593" d="M116.015,112.776c-.429-2.2,2.822-4.683,7.262-5.547s8.384.218,8.812,2.417-2.823,4.683-7.262,5.547-8.385-.218-8.812-2.417" transform="translate(-115.977 -106.931)" fill="#eb7376"/>
                      </g>
                    </g>
                  </g>
                  <g id="Grupo_1065195" data-name="Grupo 1065195" transform="translate(2.286)" opacity="0.5">
                    <g id="Grupo_1065194" data-name="Grupo 1065194">
                      <g id="Grupo_1065193" data-name="Grupo 1065193" clip-path="url(#clip-path-13)">
                        <path id="Trazado_799594" data-name="Trazado 799594" d="M118.376,110.689c-.623-3.2,2.754-6.552,7.544-7.485s9.178.906,9.8,4.107-2.754,6.553-7.544,7.485-9.178-.906-9.8-4.107" transform="translate(-118.302 -102.961)" fill="#ffbd94"/>
                      </g>
                    </g>
                  </g>
                  <g id="Grupo_1065198" data-name="Grupo 1065198" transform="translate(0 0.559)" opacity="0.5">
                    <g id="Grupo_1065197" data-name="Grupo 1065197">
                      <g id="Grupo_1065196" data-name="Grupo 1065196" clip-path="url(#clip-path-14)">
                        <path id="Trazado_799595" data-name="Trazado 799595" d="M114.1,111.62c-.577-2.967,3.353-6.228,8.778-7.285s10.292.492,10.87,3.458-3.353,6.229-8.778,7.285-10.292-.492-10.87-3.459" transform="translate(-114.046 -104.002)" fill="#eb7376"/>
                      </g>
                    </g>
                  </g>
                </g>
              </g>
            </g>
            <path id="Trazado_799596" data-name="Trazado 799596" d="M44.845,102.511c3.142.655,4.259-5.045,1.4-6.081-3.84-1.392-4.515,5.433-1.4,6.081" transform="translate(-19.846 -44.543)" fill="#65253e"/>
            <path id="Trazado_799597" data-name="Trazado 799597" d="M121.156,103.931c3.2.276,3.627-5.517.666-6.2-3.979-.924-3.835,5.932-.666,6.2" transform="translate(-54.985 -45.19)" fill="#65253e"/>
            <path id="Trazado_799598" data-name="Trazado 799598" d="M67.206,117.068c.886,2.922,3.535,4.582,6.341,5.409a12.554,12.554,0,0,0,5.07.192,15.464,15.464,0,0,0,5.009-1.44c.27-.133.178-1.056-.144-.908a19.767,19.767,0,0,1-4.766,1.742,11.283,11.283,0,0,1-4.952-.459c-2.569-.7-5.374-2.168-6.44-4.749-.071-.172-.141.14-.119.213" transform="translate(-31.102 -54.059)" fill="#ca526a"/>
            <path id="Trazado_799599" data-name="Trazado 799599" d="M25.408,43.791c10.414-4.647,21.2-2.905,32.294-5.948,7.245-1.987,13.86-2.635,17.306-10.646-2.323,5.4,2.634,12.127,5.367,16.264,4.183,6.331,3.708,10.426,5.07,17.517.334-.735,1.09-1.611,1.442-2.453-.1.888-.011,1.964-.144,2.84,3.348-11.3,5.933-20.058,3.636-32.034C85.577,4.305,52.971,4.35,33.522,8.777,13.588,13.314,2.879,36.729,12.53,54.823c2.877-2.86,5.08-6.5,8.8-8.85a32.186,32.186,0,0,1,4.076-2.181" transform="translate(-4.135 -3.024)" fill="#a36148"/>
            <path id="Trazado_799600" data-name="Trazado 799600" d="M49.824,67.654a4.109,4.109,0,0,0-4.573-1.46,3.769,3.769,0,0,0-2.631,3.652c.015.26.3,1,.555.448.652-1.4,1.122-2.345,2.765-2.7a4.858,4.858,0,0,1,3.733.851c.292.2.262-.654.15-.8" transform="translate(-19.723 -30.535)" fill="#cb806d"/>
            <path id="Trazado_799601" data-name="Trazado 799601" d="M117.628,69.745a5.22,5.22,0,0,1,3.512-.762c1.667.188,2.315,1.336,2.866,2.732.195.494.534.279.579-.17.388-3.97-4.815-5.392-7.146-2.587-.125.151-.112.974.189.788" transform="translate(-54.318 -31.237)" fill="#cb806d"/>
            <path id="Trazado_799602" data-name="Trazado 799602" d="M73.086,243.064c-.966-2.736-3.76-5.536-6.6-3.572-3.674,2.538-2.949,12.055-2.759,16.035.148,3.119.75,6.315,1.191,9.419.347,2.441-.333,6.576,1.139,8.678,1.18,1.685,4.492,2.23,6.083.815,1.923-1.711,1.391-4.366,1.2-6.583a85.778,85.778,0,0,1-.459-13.065c.246-3.907,1.6-7.775.211-11.727" transform="translate(-29.406 -110.537)" fill="#fed0b5"/>
            <path id="Trazado_799603" data-name="Trazado 799603" d="M90.426,255.4c-.046-2.671-.558-5.252-.862-7.942a7.528,7.528,0,0,1,2.144-6.507c1.413-1.452,4.155-2.735,6.113-1.382,2.26,1.562,2.251,5.116,2.233,7.551-.023,3.032.208,5.892.064,8.923-.18,3.79-.82,7.393-1.028,11.195-.1,1.774.536,4.6-.505,6.161-1.214,1.824-4.777,2.579-6.419,1.118-1.445-1.286-1.01-3.262-1.1-5.04-.23-4.64-.562-9.476-.641-14.076" transform="translate(-41.421 -110.611)" fill="#fed0b5"/>
            <path id="Trazado_799604" data-name="Trazado 799604" d="M66.055,295.279c.07.056.133.106.183.145a3.359,3.359,0,0,0,1.926.706,7.874,7.874,0,0,0,4.028-.72c.633-.289,2.705-2,2.363-.153-.105.568-.49,1.044-.634,1.6-.157.6.021.868-.575,1.274a8.673,8.673,0,0,1-2.979,1.429c-1.3.263-3.657.2-4.668-.839-.616-.632-.308-1.532-.447-2.262-.093-.49-1.087-1.066-.594-1.6.362-.39,1.006.11,1.4.421" transform="translate(-29.862 -136.26)" fill="#fff"/>
            <path id="Trazado_799605" data-name="Trazado 799605" d="M71.188,298.066c-.186,1.3-1.74,1.84-2.835,2.121-1.873.48-5.694.47-5.98-2.123a13.308,13.308,0,0,0-1.651,2.549c-.532.917-1.054,1.841-1.509,2.8a5.851,5.851,0,0,0-.889,3.285c.069.566-.048,1.341.293,1.836a3.2,3.2,0,0,0,1.484.822,16.506,16.506,0,0,0,6.869.4,4.49,4.49,0,0,0,2.32-.55,3.8,3.8,0,0,0,1.211-1.5c.861-2.025,2.131-5.071,1.492-7.29-.177-.613-.166-2.016-.806-2.349" transform="translate(-26.982 -137.95)" fill="#e13929"/>
            <path id="Trazado_799606" data-name="Trazado 799606" d="M58.339,310.381s.653,1.306,4.851,1.368,5.8-.28,6.512-1.009c.983-1.008,2.242-5.552,2.4-7.076a10.953,10.953,0,0,1,0,2.27c-.147.746-1.018,6.095-2.51,6.686a16.148,16.148,0,0,1-6.313.746c-2.3-.155-4.509-.9-4.82-1.555a1.6,1.6,0,0,1-.125-1.431" transform="translate(-26.948 -140.542)" fill="#d4d4d4"/>
            <path id="Trazado_799607" data-name="Trazado 799607" d="M99.079,295.279c-.071.056-.133.106-.184.145a3.356,3.356,0,0,1-1.925.706,7.874,7.874,0,0,1-4.028-.72c-.633-.289-2.7-2-2.363-.153.105.568.49,1.044.634,1.6.157.6-.021.868.575,1.274a8.676,8.676,0,0,0,2.98,1.429c1.3.263,3.656.2,4.667-.839.616-.632.308-1.532.447-2.262.094-.49,1.087-1.066.594-1.6-.362-.39-1.007.11-1.4.421" transform="translate(-41.904 -136.26)" fill="#fff"/>
            <path id="Trazado_799608" data-name="Trazado 799608" d="M90.675,298.225c.186,1.3,1.74,1.84,2.836,2.121,1.872.48,5.693.47,5.98-2.123a13.308,13.308,0,0,1,1.651,2.549c.532.917,1.054,1.841,1.509,2.8a5.851,5.851,0,0,1,.889,3.285c-.069.566.048,1.341-.293,1.836a3.191,3.191,0,0,1-1.484.822,16.509,16.509,0,0,1-6.87.4,4.486,4.486,0,0,1-2.32-.55,3.792,3.792,0,0,1-1.211-1.5c-.862-2.025-2.132-5.071-1.492-7.29.177-.613.165-2.016.806-2.349" transform="translate(-41.513 -138.023)" fill="#e13929"/>
            <path id="Trazado_799609" data-name="Trazado 799609" d="M103.454,310.381s-.653,1.306-4.851,1.368-5.8-.28-6.512-1.009c-.983-1.008-2.242-5.552-2.4-7.076a10.953,10.953,0,0,0,0,2.27c.147.746,1.018,6.095,2.51,6.686a16.148,16.148,0,0,0,6.313.746c2.3-.155,4.509-.9,4.82-1.555a1.6,1.6,0,0,0,.125-1.431" transform="translate(-41.478 -140.542)" fill="#d4d4d4"/>
            <path id="Trazado_799610" data-name="Trazado 799610" d="M64.4,303.584c-.315.154-.231,1.477.11,1.388a10.256,10.256,0,0,1,3.555-.287,6.585,6.585,0,0,0-3.754.725c-.192.106-.132.9.068.836a7.5,7.5,0,0,1,3.44-.277c1.27.153,2.418.732,3.663.886.533.066.33-1.34.234-1.562a2.987,2.987,0,0,0-.88-1.158,2.34,2.34,0,0,1,1.2.845c.372.534.639-1.151.335-1.557-1.629-2.174-5.986-.813-7.972.16" transform="translate(-29.711 -139.892)" fill="#d4d4d4"/>
            <path id="Trazado_799611" data-name="Trazado 799611" d="M102.3,305.408a6.51,6.51,0,0,0-3.6-.733,10.371,10.371,0,0,1,3.459.3c.332.087.357-1.238.042-1.392-2-.98-6.344-2.324-7.977-.147-.3.4.028,2.088.411,1.538a2.286,2.286,0,0,1,1.12-.816,3.023,3.023,0,0,0-.868,1.151c-.1.243-.216,1.614.31,1.548,1.07-.132,2.06-.64,3.138-.813a7.8,7.8,0,0,1,3.893.19c.278.094.28-.713.075-.825" transform="translate(-43.55 -139.893)" fill="#d4d4d4"/>
            <path id="Trazado_799612" data-name="Trazado 799612" d="M68.773,161.57a9.909,9.909,0,0,1,.168,8.807c-.48.965-1.425,2.747-2.686,2.826-2.318.146-1.492-3.445-1.153-5.378s2.773-7.742,3.672-6.255" transform="translate(-29.934 -74.666)" fill="#fed0b5"/>
            <path id="Trazado_799613" data-name="Trazado 799613" d="M96.644,161.466a10.731,10.731,0,0,0-.33,9.179c.48.966,1.422,2.826,2.686,2.826,2.3,0,1.492-3.444,1.153-5.378s-2.61-8.114-3.508-6.627" transform="translate(-44.172 -74.624)" fill="#fed0b5"/>
            <path id="Trazado_799614" data-name="Trazado 799614" d="M87.347,198.873a17.2,17.2,0,0,0-.558-1.842,37.635,37.635,0,0,1-1.955-9.038c-.394-3.9-1.1-7.744-1.567-11.653-.1-.873-1.108-5.755-.71-6.139a1.566,1.566,0,0,1-2.288-.069c-2.071-2.116-1.724-7.049-1.131-9.692-.941-.314-2.209-1.175-3.2-1.016.1.827.626,1.895.231,2.712a2.8,2.8,0,0,1-1.269,1.169,7.119,7.119,0,0,1-5.233.661c-2.185-.542-2.415-2.446-2.061-4.569a6.259,6.259,0,0,0-3.375,1.172c2.118,2.49,1.371,7.973-1.023,10.031a2.007,2.007,0,0,1-2.345.362c.3.141-.519,9.532-.538,10.372a74.284,74.284,0,0,1-.986,11.4c-.962,5.359-.315,11.266-2.264,16.4-.69,1.817-1.437,3.264,1.079,4.142,2.6.907,5.784-.393,8.442-.581,3.206-.226,6.414-.378,9.45.875,4.464,1.843,8.835-.829,12.992-2.489q.833-.333,1.669-.659c-.357-2.067-1.367-3.876-2.02-5.829-.629-1.883-.866-3.822-1.337-5.719" transform="translate(-26.106 -73.769)" fill="#e13929"/>
            <path id="Trazado_799615" data-name="Trazado 799615" d="M109.825,178.692l-.074-.162c-1.722-3.767-3.261-7.833-5.474-11.307-.5-.785-4.749-6.336-5.183-3.78-.82,4.821,1.559,8.326,2.641,11.348,2.5,6.977,8.255,13.9,7.146,21.718a20.433,20.433,0,0,1-.775,3.231c-.244.753-1.541,1.85-1.214,2.717.538,1.426,2.512.008,2.917-.775.277-.535.417-1.327.943-1.7.616-.436,1.049.357,1.432.7a23.733,23.733,0,0,1,1.964,1.921,4.075,4.075,0,0,0,1.358,1.192,1.075,1.075,0,0,0,1.405-.845c.2-.773-.338-1.27-.852-1.739-.682-.623-1.447-1.264-2.074-1.933a33.691,33.691,0,0,1,2.927,2.281c.533.53,1.077,1.113,1.826.543.338-.257.772-.781.622-1.24-.186-.57-.986-1.051-1.429-1.39-.924-.706-1.891-1.358-2.852-2.014a16.484,16.484,0,0,0,2.325,1.258c.781.356,2.022,1.2,2.609.086.451-.859-.414-1.138-1.086-1.408a16.636,16.636,0,0,0-2.728-.983c.676-.111,1.377.042,2.043-.078,1.671-.3.57-1.668-.715-1.467a21,21,0,0,1-3.972.1,34.852,34.852,0,0,0-.1-4.038,38.21,38.21,0,0,0-3.63-12.245" transform="translate(-45.784 -75.336)" fill="#fed0b5"/>
            <path id="Trazado_799616" data-name="Trazado 799616" d="M44.867,187.177c1.646-4.243,4.166-8.1,5.7-12.386,1.082-3.023,3.461-6.527,2.641-11.349-.435-2.555-4.683,3-5.183,3.781-2.214,3.473-3.753,7.539-5.474,11.307l-.074.162a38.215,38.215,0,0,0-3.63,12.244,51.576,51.576,0,0,0-.512,5.406c-.133.021-.265.039-.4.063a19.666,19.666,0,0,0-4.275,1.206c-.476.209-.9.5-1.363.716-.271.876.017,1.847,1.064,1.505-.928.7-.592,2.848.805,2.14-.231.117-.19.7-.106.88a1.217,1.217,0,0,0,.538.542,1.336,1.336,0,0,0,1.353-.105c-.212.5.3.924.727,1.056a1.931,1.931,0,0,0,1.557-.4c1.161-1,2.04-3.491,3.975-2.7,1.144.468,1.517,2.248,3.043,1.615,1.847-.767-.745-2.5-1.528-3.036.223.153.181-2.258-.037-2.6a2.166,2.166,0,0,0-.363-.421,10.46,10.46,0,0,1-.141-3.123,29.9,29.9,0,0,1,1.681-6.507" transform="translate(-14.905 -75.335)" fill="#fed0b5"/>
            <g id="Grupo_1065204" data-name="Grupo 1065204" transform="translate(6.719 6.461)" opacity="0.5">
              <g id="Grupo_1065203" data-name="Grupo 1065203">
                <g id="Grupo_1065202" data-name="Grupo 1065202" clip-path="url(#clip-path-15)">
                  <path id="Trazado_799617" data-name="Trazado 799617" d="M62.491,13.455c-9.245-2.929-20.2-1.021-28.929,2.711a37.781,37.781,0,0,0-11.26,7.39,40.342,40.342,0,0,0-5.3,5.7c-1.289,1.8-1.879,5.326-3.262,6.75,3.584-3.688,10.48-6.829,15.62-6.839C23,33.428,14.967,37.623,12.508,45.516a24.331,24.331,0,0,1,12.119-6.9c-2.967,3.3-6.116,6.024-7.964,10.316a56.084,56.084,0,0,1,14.305-8.115c11.476-4.467,26.275-1.826,35.481-11.449-6.468,1.99-12.688-1.742-19.156-.746,1.113-.171,4.275-3.593,5.679-4.3,2.286-1.148,4.8-1.8,7.1-2.9-3.889-1.319-10.115-2.762-13.99-.55,4.27-4.126,10.715-7.473,16.409-7.413" transform="translate(-12.508 -12.027)" fill="#cb806d"/>
                </g>
              </g>
            </g>
            <g id="Grupo_1065207" data-name="Grupo 1065207" transform="translate(73.099 13.885)" opacity="0.5">
              <g id="Grupo_1065206" data-name="Grupo 1065206">
                <g id="Grupo_1065205" data-name="Grupo 1065205" clip-path="url(#clip-path-16)">
                  <path id="Trazado_799618" data-name="Trazado 799618" d="M146.777,56.2c-1.609-2.816-5.733-3.071-7.483-6.768A31.408,31.408,0,0,1,136.329,35.3a40.5,40.5,0,0,0,4.229,5.473c0-5.473-1.99-10.2-4.478-14.927,6.468,5.473,8.956,13.434,10.449,21.4a13.371,13.371,0,0,0-3.981-2.488c0,3.981,2.239,7.961,4.229,11.444" transform="translate(-136.079 -25.848)" fill="#cb806d"/>
                </g>
              </g>
            </g>
            <path id="Trazado_799619" data-name="Trazado 799619" d="M12.515,53.845S-1.428,29.569,20.248,14.864,65.628,5.11,73.8,10.347,91.272,26.294,86.625,54.4c0,0,12.173-25.64-6.686-42.428s-46.4-10.739-62.359-.081-13.825,31.7-5.065,41.954" transform="translate(-2.659 -0.704)" fill="#cb468b"/>
            <path id="Trazado_799620" data-name="Trazado 799620" d="M116.949,5.375c3.575-2.255,10.751,4.579,11.7,6.157C131.507,9.393,130.3-.89,128.226.062c-4.033,1.855-7.634,3.016-11.277,5.313" transform="translate(-54.126 0)" fill="#ff93cb"/>
            <path id="Trazado_799621" data-name="Trazado 799621" d="M151.037,31.347c.512-4.191-8-7.853-9.691-8.051.69-3.495,9.795-6.693,9.795-4.413,0,4.439.417,8.2-.1,12.465" transform="translate(-65.418 -8.384)" fill="#ff93cb"/>
            <path id="Trazado_799622" data-name="Trazado 799622" d="M133.406,14.819c-2.237,1.31-3.478,3.15-2.162,5.572.362.664,4.656,4.615,5.123,4.36,2.307-1.263,5.989-2.652,4.143-5.788-1.48-2.516-4.44-5.92-7.1-4.144" transform="translate(-60.493 -6.63)" fill="#ed80b5"/>
          </g>
        </g>
      </g>
    </g>
    <path id="Icon_awesome-long-arrow-alt-up" data-name="Icon awesome-long-arrow-alt-up" d="M3.64,6.961V214.638a.623.623,0,0,0,.623.623H7.171a.623.623,0,0,0,.623-.623V6.961h2.392a1.246,1.246,0,0,0,.881-2.127L6.6.365a1.246,1.246,0,0,0-1.762,0L.367,4.833a1.246,1.246,0,0,0,.881,2.127Z" transform="translate(-3885.678 -4890.017) rotate(180)" fill="#7053e8"/>
    <path id="Trazado_801014" data-name="Trazado 801014" d="M5.42-8.068,7.4-12.086h3.329L7.346-6.093,10.816,0H7.454L5.42-4.092,3.387,0H.033L3.495-6.093.125-12.086h3.32Z" transform="translate(-3896.112 -5120.552)" fill="#7053e8"/>
    <path id="Trazado_801015" data-name="Trazado 801015" d="M14.082,13.211A4.025,4.025,0,0,1,12.727,16.1,4.76,4.76,0,0,1,9.5,17.156a4.28,4.28,0,0,1-3.441-1.473,6.038,6.038,0,0,1-1.254-4.043v-.7a6.819,6.819,0,0,1,.578-2.891A4.332,4.332,0,0,1,7.039,6.137a4.629,4.629,0,0,1,2.5-.668,4.637,4.637,0,0,1,3.172,1.055A4.326,4.326,0,0,1,14.1,9.484H11.754a2.376,2.376,0,0,0-.613-1.6,2.271,2.271,0,0,0-1.605-.5,1.991,1.991,0,0,0-1.754.84,4.707,4.707,0,0,0-.6,2.605V11.7a5.038,5.038,0,0,0,.559,2.7,1.954,1.954,0,0,0,1.762.852,2.314,2.314,0,0,0,1.621-.5,2.241,2.241,0,0,0,.613-1.535Zm5.281,3.945a4.15,4.15,0,0,1-3.027-1.141,4.054,4.054,0,0,1-1.168-3.039v-.219a5.106,5.106,0,0,1,.492-2.277,3.612,3.612,0,0,1,1.395-1.547,3.914,3.914,0,0,1,2.059-.543,3.508,3.508,0,0,1,2.73,1.094,4.444,4.444,0,0,1,1,3.1v.922H17.457a2.1,2.1,0,0,0,.66,1.328,2,2,0,0,0,1.395.5,2.437,2.437,0,0,0,2.039-.945l1.109,1.242a3.389,3.389,0,0,1-1.375,1.121A4.511,4.511,0,0,1,19.363,17.156Zm-.258-6.937a1.414,1.414,0,0,0-1.09.453,2.341,2.341,0,0,0-.535,1.3h3.141v-.18a1.669,1.669,0,0,0-.406-1.16A1.459,1.459,0,0,0,19.105,10.219ZM19.309,5H21.77L19.605,7.422H17.77Zm5.43,12V10.2H23.48V8.547h1.258V7.828a2.918,2.918,0,0,1,.816-2.207,3.162,3.162,0,0,1,2.285-.785,5.278,5.278,0,0,1,1.148.156l-.023,1.75a2.878,2.878,0,0,0-.687-.07Q27,6.672,27,7.867v.68h1.68V10.2H27V17Zm10.016,0a2.507,2.507,0,0,1-.227-.758,2.732,2.732,0,0,1-2.133.914,3,3,0,0,1-2.059-.719,2.312,2.312,0,0,1-.816-1.812,2.389,2.389,0,0,1,1-2.062,4.915,4.915,0,0,1,2.879-.727h1.039v-.484a1.393,1.393,0,0,0-.3-.937,1.183,1.183,0,0,0-.949-.352,1.345,1.345,0,0,0-.895.273.929.929,0,0,0-.324.75H29.707a2.268,2.268,0,0,1,.453-1.359,3,3,0,0,1,1.281-.98A4.669,4.669,0,0,1,33.3,8.391a3.689,3.689,0,0,1,2.48.785,2.747,2.747,0,0,1,.918,2.207v3.664a4.041,4.041,0,0,0,.336,1.82V17Zm-1.867-1.57a1.945,1.945,0,0,0,.922-.223,1.462,1.462,0,0,0,.625-.6V13.156H33.59q-1.7,0-1.8,1.172l-.008.133a.9.9,0,0,0,.3.7A1.153,1.153,0,0,0,32.887,15.43ZM40.816,17H38.551V5h2.266Zm1.508-4.3a5.013,5.013,0,0,1,.484-2.242A3.546,3.546,0,0,1,44.2,8.93a4.069,4.069,0,0,1,2.113-.539,3.849,3.849,0,0,1,2.793,1.047,4.2,4.2,0,0,1,1.207,2.844l.016.578a4.418,4.418,0,0,1-1.086,3.121,4.209,4.209,0,0,1-5.832,0,4.5,4.5,0,0,1-1.09-3.187Zm2.258.164a3.151,3.151,0,0,0,.453,1.84,1.629,1.629,0,0,0,2.578.008,3.448,3.448,0,0,0,.461-2.012,3.12,3.12,0,0,0-.461-1.828,1.5,1.5,0,0,0-1.3-.648,1.475,1.475,0,0,0-1.281.645A3.506,3.506,0,0,0,44.582,12.859Zm15.516.18H55.7v-1.82h4.4Zm14.875.172A4.025,4.025,0,0,1,73.617,16.1a4.76,4.76,0,0,1-3.223,1.055,4.28,4.28,0,0,1-3.441-1.473A6.038,6.038,0,0,1,65.7,11.641v-.7a6.819,6.819,0,0,1,.578-2.891A4.332,4.332,0,0,1,67.93,6.137a5.164,5.164,0,0,1,5.668.387,4.326,4.326,0,0,1,1.391,2.961H72.645a2.376,2.376,0,0,0-.613-1.6,2.271,2.271,0,0,0-1.605-.5,1.991,1.991,0,0,0-1.754.84,4.707,4.707,0,0,0-.6,2.605V11.7a5.038,5.038,0,0,0,.559,2.7,1.954,1.954,0,0,0,1.762.852,2.314,2.314,0,0,0,1.621-.5,2.241,2.241,0,0,0,.613-1.535ZM81.262,17a2.507,2.507,0,0,1-.227-.758,2.732,2.732,0,0,1-2.133.914,3,3,0,0,1-2.059-.719,2.312,2.312,0,0,1-.816-1.812,2.389,2.389,0,0,1,1-2.062,4.915,4.915,0,0,1,2.879-.727h1.039v-.484a1.393,1.393,0,0,0-.3-.937,1.183,1.183,0,0,0-.949-.352,1.345,1.345,0,0,0-.895.273.929.929,0,0,0-.324.75H76.215a2.268,2.268,0,0,1,.453-1.359,3,3,0,0,1,1.281-.98,4.669,4.669,0,0,1,1.859-.355,3.689,3.689,0,0,1,2.48.785,2.747,2.747,0,0,1,.918,2.207v3.664a4.041,4.041,0,0,0,.336,1.82V17Zm-1.867-1.57a1.945,1.945,0,0,0,.922-.223,1.462,1.462,0,0,0,.625-.6V13.156H80.1q-1.7,0-1.8,1.172l-.008.133a.9.9,0,0,0,.3.7A1.153,1.153,0,0,0,79.395,15.43ZM90,16.141a2.831,2.831,0,0,1-2.312,1.016,2.67,2.67,0,0,1-2.074-.781,3.335,3.335,0,0,1-.73-2.289V8.547h2.258v5.461q0,1.32,1.2,1.32a1.631,1.631,0,0,0,1.578-.8V8.547h2.266V17H90.066Zm3.539-3.43a5.094,5.094,0,0,1,.887-3.148,2.877,2.877,0,0,1,2.426-1.172,2.589,2.589,0,0,1,2.039.922V5h2.266V17H99.121l-.109-.9a2.657,2.657,0,0,1-2.172,1.055,2.869,2.869,0,0,1-2.395-1.176A5.258,5.258,0,0,1,93.543,12.711Zm2.258.164a3.328,3.328,0,0,0,.414,1.82,1.349,1.349,0,0,0,1.2.633,1.511,1.511,0,0,0,1.477-.883V11.109a1.489,1.489,0,0,0-1.461-.883Q95.8,10.227,95.8,12.875ZM107.809,17a2.507,2.507,0,0,1-.227-.758,2.732,2.732,0,0,1-2.133.914,3,3,0,0,1-2.059-.719,2.312,2.312,0,0,1-.816-1.812,2.389,2.389,0,0,1,1-2.062,4.915,4.915,0,0,1,2.879-.727h1.039v-.484a1.393,1.393,0,0,0-.3-.937,1.183,1.183,0,0,0-.949-.352,1.345,1.345,0,0,0-.895.273.929.929,0,0,0-.324.75h-2.258a2.268,2.268,0,0,1,.453-1.359,3,3,0,0,1,1.281-.98,4.669,4.669,0,0,1,1.859-.355,3.689,3.689,0,0,1,2.48.785,2.747,2.747,0,0,1,.918,2.207v3.664a4.041,4.041,0,0,0,.336,1.82V17Zm-1.867-1.57a1.945,1.945,0,0,0,.922-.223,1.462,1.462,0,0,0,.625-.6V13.156h-.844q-1.7,0-1.8,1.172l-.008.133a.9.9,0,0,0,.3.7A1.153,1.153,0,0,0,105.941,15.43Zm7.93,1.57h-2.266V5h2.266Z" transform="translate(-3950 -5175)" fill="#12263f"/>
    <g id="Grupo_1065256" data-name="Grupo 1065256" transform="translate(-3990.112 -4865)">
      <path id="Trazado_799664" data-name="Trazado 799664" d="M5.42-8.068,7.4-12.086h3.329L7.346-6.093,10.816,0H7.454L5.42-4.092,3.387,0H.033L3.495-6.093.125-12.086h3.32Z" transform="translate(3.949 15.086)" fill="#7053e8"/>
      <text id="Inicio_del_desarrollo" data-name="Inicio del desarrollo" transform="translate(30.982)" fill="#12263f" font-size="16" font-family="Roboto-Regular, Roboto"><tspan x="0" y="17">Inicio del desarrollo</tspan></text>
      <text id="Dirección_del_desarrollo" data-name="Dirección del desarrollo" transform="translate(30.982 26)" fill="#12263f" font-size="16" font-family="Roboto-Regular, Roboto"><tspan x="0" y="17">Dirección del desarrollo</tspan></text>
      <path id="Icon_awesome-long-arrow-alt-right" data-name="Icon awesome-long-arrow-alt-right" d="M14.341,13.461H.548A.548.548,0,0,0,0,14.009v2.558a.548.548,0,0,0,.548.548H14.341v2.1a1.1,1.1,0,0,0,1.872.775l3.931-3.931a1.1,1.1,0,0,0,0-1.55l-3.931-3.931a1.1,1.1,0,0,0-1.872.775Z" transform="translate(0 20.212)" fill="#7053e8"/>
    </g>
    <path id="Trazado_801016" data-name="Trazado 801016" d="M0,0H111V4H0Z" transform="translate(-3946 -5156)" fill="#7053e8"/>
    <g id="Grupo_1065253" data-name="Grupo 1065253" transform="translate(-3941.112 -4713.582)">
      <g id="Grupo_1065244" data-name="Grupo 1065244" clip-path="url(#clip-path-17)">
        <g id="Grupo_1065243" data-name="Grupo 1065243">
          <g id="Grupo_1065242" data-name="Grupo 1065242" clip-path="url(#clip-path-17)">
            <path id="Trazado_799623" data-name="Trazado 799623" d="M112.092,171.307c-.165.145-.327.3-.483.455,2.032,3.478,4.922,6.222,7.468,9.295,1.849,2.232,5.106,4.712,2.616,7.558a87.011,87.011,0,0,1-9.681,9.313c-.98.781-5.971,3.524-5.336,4.823.5,1.028,2.68,1.269,3.734,1.251,3.307-.056,5.5-2.191,7.934-4.072,3.461-2.679,6.492-5.843,9.7-8.783,4.915-4.5,2.769-7.387.881-10.772-1.207-2.165-2.958-3.79-4.246-5.906a31.222,31.222,0,0,0-4.41-6.313c-1.332-1.307-1.465-.833-3.047.078a30.518,30.518,0,0,0-5.131,3.075" transform="translate(-49.346 -77.452)" fill="#ac7755"/>
            <path id="Trazado_799624" data-name="Trazado 799624" d="M53.566,162.253c-3.094,3.478-7.277,5.357-11.084,8.032-3.44,2.418-4.349,5.078-7.689,2.677a87.61,87.61,0,0,1-10.558-9.09c-.891-.931-4.062-5.752-5.478-5.031-1.119.57-1.324,2.769-1.274,3.825.157,3.311,2.577,5.371,4.724,7.684,3.057,3.292,6.637,6.122,9.973,9.144,5.111,4.629,8.235,2.288,11.917.175,4.3-2.47,8.172-6.811,11.475-9.181,2.064-1.481-.5-9.93-2.006-8.237" transform="translate(-8.088 -73.482)" fill="#ac7755"/>
            <path id="Trazado_799625" data-name="Trazado 799625" d="M71.58,177.508c-.868-.117-1.677-1.5-2.269-2.061a25.414,25.414,0,0,0-2.912-2.5c-.64-.443-2.124-.631-2.479-1.4-.9-2.161,3.513-4.867,4.8-6.007,2.513-2.234,6.034-4.487,9.578-3.971,2.611.38,1.512,2.33.618,4.114a37.473,37.473,0,0,1-3.726,6.729c-.44.548-3.025,5.176-3.607,5.1" transform="translate(-29.528 -74.742)" fill="#cecece"/>
            <path id="Trazado_799626" data-name="Trazado 799626" d="M118.932,175.762A46.872,46.872,0,0,1,124.416,172c.335-.263,1.307-.879,1.446-1.25.531-1.558-2.5-4.293-3.518-5.231-2.531-2.331-7.174-4.8-10.728-4.029-3.852.834.571,8.614,1.75,10.243.306.423,3.852,5.928,4.458,5.178a9.968,9.968,0,0,1,1.107-1.149" transform="translate(-50.943 -74.674)" fill="#cecece"/>
            <path id="Trazado_799627" data-name="Trazado 799627" d="M108.186,297.283c.2,1.3,1.764,1.817,2.863,2.083,1.879.456,5.7.395,5.951-2.2a13.223,13.223,0,0,1,1.684,2.526c.545.91,1.079,1.827,1.546,2.78a5.849,5.849,0,0,1,.932,3.273c-.061.567.066,1.34-.269,1.84a3.2,3.2,0,0,1-1.473.842,16.5,16.5,0,0,1-6.865.492,4.48,4.48,0,0,1-2.326-.519A3.785,3.785,0,0,1,109,306.911c-.888-2.013-2.2-5.042-1.588-7.269.169-.615.139-2.018.775-2.359" transform="translate(-49.639 -137.534)" fill="#e13929"/>
            <path id="Trazado_799628" data-name="Trazado 799628" d="M112.677,314.346c.749,1.595,2.7,1.234,4.108,1.174,1.881-.08,3.884.249,5.634-.641,1.99-1.012.327-3.323-1.023-4a7.833,7.833,0,0,0-5.834-.153c-1.271.478-3.655,1.976-2.885,3.616" transform="translate(-52.08 -143.586)" fill="#fff"/>
            <path id="Trazado_799629" data-name="Trazado 799629" d="M121.1,309.724s-.635,1.381-4.832,1.5-5.8-.218-6.525-.974c-1-1.046-2.318-5.806-2.5-7.405a12.156,12.156,0,0,0,.032,2.386c.157.783,1.1,6.392,2.6,6.994a15.423,15.423,0,0,0,6.323.7c2.3-.193,4.5-1.007,4.8-1.7a1.757,1.757,0,0,0,.1-1.505" transform="translate(-49.613 -140.163)" fill="#d4d4d4"/>
            <path id="Trazado_799630" data-name="Trazado 799630" d="M119.714,301.206a2.79,2.79,0,0,0-1.4-.616,8.762,8.762,0,0,0-4.368.838,18.941,18.941,0,0,0-2.032,1.014c-.29.172-.053,1.265.271,1.144a11.828,11.828,0,0,1,3.449-.729,7.491,7.491,0,0,0-3.594,1.122c-.176.115-.024.772.165.688a13.744,13.744,0,0,1,3.709-.871,19.753,19.753,0,0,1,4.352-.252c.726.061.469-.519-.064-.625a1.148,1.148,0,0,1-.791-.374c.069.081.647-.26.7-.346a.532.532,0,0,0-.076-.623,1.788,1.788,0,0,0-.327-.37" transform="translate(-51.737 -139.099)" fill="#d4d4d4"/>
            <path id="Trazado_799631" data-name="Trazado 799631" d="M86.582,299.036c.024.087.047.176.067.266.911,3.986-4.2,4.879-6.964,5.127-.834.075-1.673.1-2.506.184a28.807,28.807,0,0,1-9.852-.6c-.244-.06,1.243-2.864,1.428-3.116a5.847,5.847,0,0,1,2.313-2.089c1.558-.654,4.133-.692,4.7-2.674,1.24.973,2.725.288,3.852-.5a7,7,0,0,0,2.87-2.843c.025-.055,1.5,1.891,1.627,2.071.495.734,1.054,1.406,1.536,2.162a7.464,7.464,0,0,1,.93,2" transform="translate(-31.148 -135.512)" fill="#fff"/>
            <path id="Trazado_799632" data-name="Trazado 799632" d="M71.471,310.44a36.52,36.52,0,0,1-5.621-.743c0-.045-.011-.082-.01-.129a4.581,4.581,0,0,1,2.725-4.036c2.165.406,3.331,2.241,2.906,4.908" transform="translate(-30.472 -141.406)" fill="#fff"/>
            <path id="Trazado_799633" data-name="Trazado 799633" d="M100.968,303.139a5.71,5.71,0,0,0,.084.706,8.664,8.664,0,0,1,.225,3.131,26.89,26.89,0,0,1-2.683.965,3.614,3.614,0,0,1,2.374-4.8" transform="translate(-45.513 -140.299)" fill="#fff"/>
            <path id="Trazado_799634" data-name="Trazado 799634" d="M87.541,300.962a3.584,3.584,0,0,0-.678.579,4.235,4.235,0,0,0-.858,1.034,3.7,3.7,0,0,0-.1,2.889c-3.737,1.15-7.817,2.232-11.974,2,.425-2.668-.849-5.113-3.015-5.52a13.181,13.181,0,0,1,1.436-.68c1.714-.7,3.877-1.177,4.952-2.734.984.915,3.486.887,4.723.98a8.712,8.712,0,0,0,2.676-.036c.336-.09,2.122-1.171,1.586-1.693.285.278.608.481.872.788s.444.668.7.977a4.344,4.344,0,0,1,.427,1.182,1.314,1.314,0,0,0-.743.23" transform="translate(-32.82 -137.82)" fill="#e13929"/>
            <path id="Trazado_799635" data-name="Trazado 799635" d="M86.237,310.283c-.09.535.031,1.93-.466,2.237-3.914,2.418-9.757,2.808-13.988,2.577-.5-.027-5.9-.307-5.915-1.288-.011-.835.02-1.465-.027-2.043,3.228,1.187,6.919,1.1,10.531.827a31.108,31.108,0,0,0,9.864-2.31" transform="translate(-30.472 -143.605)" fill="#b3b3b3"/>
            <path id="Trazado_799636" data-name="Trazado 799636" d="M78.528,300.633a3.352,3.352,0,0,1,1.547,1.844c.047.374-.215.673-.729.759a1.324,1.324,0,0,1-.29.01.641.641,0,0,1-.645.318,1.337,1.337,0,0,1-1.189-.764c-.006-.02-.014-.041-.022-.062l-.009-.013c-.034-.055-.075-.11-.116-.164-.01-.012-.013-.018-.019-.026l-.024-.025a3.651,3.651,0,0,0-.309-.292l-.023-.02-.065-.044c-.073-.052-.152-.1-.232-.146-.48-.283-.619-.783-.369-1.057a.924.924,0,0,1,.943-.138,1.247,1.247,0,0,1,1.55-.179" transform="translate(-35.134 -139.05)" fill="#d4d4d4"/>
            <path id="Trazado_799637" data-name="Trazado 799637" d="M95.6,218.721c-4.719-.45-9.578-1.064-13.742-.009-4.838,1.225-4.258,4.481-4.294,8.843-.059,7.057-.6,13.793.568,20.8.445,2.662,1.319,5.587.9,8.3-.092.595-.569,1.119-.543,1.73.04.924.642,2.062.8,3.017.257,1.584.262,1.608,1.9,1.952,4.52.948,10.119.5,8.829-5.426-1.35-6.21-2.738-15.194-.362-21.335.618-1.6.714-.517,2.193-1.192-.62.288,1.416,6.855,1.556,7.547.7,3.485.187,7.705.123,11.282-.012.7-.048,5.3.675,5.619-.488-.217-.093,2.547.2,2.88a4.67,4.67,0,0,0,2.277,1.046,7.5,7.5,0,0,0,5.97-.931c1.9-1.231,1.4-2.354,1.612-4.409.288-2.831-.618-5.694-.177-8.5a47.463,47.463,0,0,0,.455-7.375c0-1.82-.272-23.6-1.83-23.528a50.4,50.4,0,0,1-7.108-.312" transform="translate(-35.817 -100.955)" fill="#7d7197"/>
            <path id="Trazado_799638" data-name="Trazado 799638" d="M16.183,99.613c3.181-4.834,8.58-2.578,11.264,1.314,2.011,2.916,2.958,9.253-1.214,10.855-2.607,1-6.525-.625-8.385-2.5-2.488-2.513-3.773-6.462-1.665-9.665" transform="translate(-6.999 -44.832)" fill="#9e684a"/>
            <path id="Trazado_799639" data-name="Trazado 799639" d="M173.861,100.369c-3.135-4.864-8.555-2.659-11.276,1.208-2.039,2.9-3.046,9.226,1.111,10.866,2.6,1.025,6.531-.563,8.408-2.424,2.511-2.49,3.833-6.426,1.756-9.649" transform="translate(-74.429 -45.161)" fill="#9e684a"/>
            <path id="Trazado_799640" data-name="Trazado 799640" d="M104.78,27.168c-4.365-8.557-16.009-9.835-24.572-10.671C66.333,15.143,53.35,14.16,40.476,21.127,25.041,29.48,32.588,53.661,32.523,67.55c-.061,12.857,9.991,16.977,18.34,18.729s13.859,3.047,13.416,6.045-2.711,11.369,3.932,11.4l.2,0,.2,0c6.643.031,4.731-8.475,3.778-11.51-.908-2.891,5.222-4.1,13.587-5.771,7.713-1.544,16.588-5.924,18.395-14.418,1.006-3.356,1.046-11.633,1.046-11.633.439-9.672,3.649-23.135-.187-32.264q-.209-.5-.446-.962" transform="translate(-14.225 -7.188)" fill="#ac7755"/>
            <path id="Trazado_799641" data-name="Trazado 799641" d="M95.073,130.244a8.085,8.085,0,0,1-4.062-.914c-1.527-.822-4-2.935-3.014-4.913.773-1.555,2.648-.386,3.782.084,1.883.781,3.574,1.19,5.53.308,1.435-.647,3.543-2.7,5.055-1.022,1.949,2.168-2.525,5.156-4.119,5.8a9.263,9.263,0,0,1-3.173.659" transform="translate(-40.623 -56.992)" fill="#d04e56"/>
            <path id="Trazado_799642" data-name="Trazado 799642" d="M91.136,130.778a8.689,8.689,0,0,0,1.432.986,8.081,8.081,0,0,0,4.061.914,9.263,9.263,0,0,0,3.173-.659,10.805,10.805,0,0,0,2.113-1.237,7.294,7.294,0,0,0-10.779,0" transform="translate(-42.179 -59.427)" fill="#ff6e85"/>
            <path id="Trazado_799643" data-name="Trazado 799643" d="M89.842,126.7c1.411.5,3.831.571,7.459.436s4.7-.177,4.839-1.164a13.594,13.594,0,0,0-.254-2.8c-1.33-.2-2.845,1.139-3.957,1.641-1.955.882-3.647.472-5.53-.309-.9-.374-2.277-1.188-3.189-.718-.169,1.14-.211,2.611.631,2.912" transform="translate(-41.243 -56.998)" fill="#fff"/>
            <path id="Trazado_799644" data-name="Trazado 799644" d="M101.071,111.949a3.986,3.986,0,0,1-1.686.51,4.289,4.289,0,0,1-1.822-.478c-.744-.306-1.724-.762-1.123-1.743.357-.584,1.087-.447,1.645-.3a4.523,4.523,0,0,0,2.021.232,12.47,12.47,0,0,1,1.883-.614c.836-.049.953,1.07.524,1.581a4.185,4.185,0,0,1-1.4.786l-.044.023" transform="translate(-44.548 -50.705)" fill="#884e3d"/>
            <g id="Grupo_1065226" data-name="Grupo 1065226" transform="translate(21.223 54.58)" opacity="0.5">
              <g id="Grupo_1065225" data-name="Grupo 1065225">
                <g id="Grupo_1065224" data-name="Grupo 1065224" clip-path="url(#clip-path-19)">
                  <g id="Grupo_1065214" data-name="Grupo 1065214" transform="translate(1.713 0.678)" opacity="0.5">
                    <g id="Grupo_1065213" data-name="Grupo 1065213">
                      <g id="Grupo_1065212" data-name="Grupo 1065212" clip-path="url(#clip-path-20)">
                        <path id="Trazado_799645" data-name="Trazado 799645" d="M58.783,110.241c.645-2.953-2.414-6.129-6.832-7.093s-8.523.647-9.168,3.6,2.414,6.128,6.832,7.093,8.523-.647,9.168-3.6" transform="translate(-42.697 -102.867)" fill="#a95555"/>
                      </g>
                    </g>
                  </g>
                  <g id="Grupo_1065217" data-name="Grupo 1065217" transform="translate(2.588 2.155)" opacity="0.5">
                    <g id="Grupo_1065216" data-name="Grupo 1065216">
                      <g id="Grupo_1065215" data-name="Grupo 1065215" clip-path="url(#clip-path-21)">
                        <path id="Trazado_799646" data-name="Trazado 799646" d="M60.373,111.7c.478-2.189-2.716-4.746-7.134-5.71s-8.388.027-8.866,2.217,2.716,4.745,7.134,5.71,8.388-.028,8.866-2.217" transform="translate(-44.326 -105.616)" fill="#a95555"/>
                      </g>
                    </g>
                  </g>
                  <g id="Grupo_1065220" data-name="Grupo 1065220" opacity="0.5">
                    <g id="Grupo_1065219" data-name="Grupo 1065219">
                      <g id="Grupo_1065218" data-name="Grupo 1065218" clip-path="url(#clip-path-22)">
                        <path id="Trazado_799647" data-name="Trazado 799647" d="M56.865,109.559c.7-3.186-2.6-6.613-7.372-7.654s-9.2.7-9.891,3.884,2.6,6.613,7.372,7.654,9.2-.7,9.892-3.884" transform="translate(-39.508 -101.604)" fill="#a95555"/>
                      </g>
                    </g>
                  </g>
                  <g id="Grupo_1065223" data-name="Grupo 1065223" transform="translate(0.022 0.562)" opacity="0.5">
                    <g id="Grupo_1065222" data-name="Grupo 1065222">
                      <g id="Grupo_1065221" data-name="Grupo 1065221" clip-path="url(#clip-path-23)">
                        <path id="Trazado_799648" data-name="Trazado 799648" d="M59.177,110.544c.645-2.953-3.211-6.3-8.611-7.482s-10.3.259-10.946,3.212,3.21,6.3,8.611,7.482,10.3-.259,10.946-3.212" transform="translate(-39.55 -102.65)" fill="#a95555"/>
                      </g>
                    </g>
                  </g>
                </g>
              </g>
            </g>
            <g id="Grupo_1065241" data-name="Grupo 1065241" transform="translate(69.447 54.832)" opacity="0.5">
              <g id="Grupo_1065240" data-name="Grupo 1065240">
                <g id="Grupo_1065239" data-name="Grupo 1065239" clip-path="url(#clip-path-24)">
                  <g id="Grupo_1065229" data-name="Grupo 1065229" transform="translate(1.84 0.668)" opacity="0.5">
                    <g id="Grupo_1065228" data-name="Grupo 1065228">
                      <g id="Grupo_1065227" data-name="Grupo 1065227" clip-path="url(#clip-path-25)">
                        <path id="Trazado_799649" data-name="Trazado 799649" d="M132.785,110.6c-.617-2.959,2.472-6.106,6.9-7.028s8.516.727,9.133,3.686-2.472,6.106-6.9,7.028-8.516-.727-9.133-3.686" transform="translate(-132.707 -103.316)" fill="#a95555"/>
                      </g>
                    </g>
                  </g>
                  <g id="Grupo_1065232" data-name="Grupo 1065232" transform="translate(1.037 2.146)" opacity="0.5">
                    <g id="Grupo_1065231" data-name="Grupo 1065231">
                      <g id="Grupo_1065230" data-name="Grupo 1065230" clip-path="url(#clip-path-26)">
                        <path id="Trazado_799650" data-name="Trazado 799650" d="M131.256,112.049c-.457-2.194,2.761-4.72,7.188-5.643s8.387.107,8.844,2.3-2.761,4.72-7.188,5.643-8.387-.107-8.844-2.3" transform="translate(-131.212 -106.068)" fill="#a95555"/>
                      </g>
                    </g>
                  </g>
                  <g id="Grupo_1065235" data-name="Grupo 1065235" transform="translate(2.278)" opacity="0.5">
                    <g id="Grupo_1065234" data-name="Grupo 1065234">
                      <g id="Grupo_1065233" data-name="Grupo 1065233" clip-path="url(#clip-path-27)">
                        <path id="Trazado_799651" data-name="Trazado 799651" d="M133.606,109.933c-.666-3.192,2.667-6.588,7.444-7.584s9.188.785,9.854,3.977-2.667,6.588-7.444,7.584-9.189-.785-9.855-3.977" transform="translate(-133.521 -102.073)" fill="#a95555"/>
                      </g>
                    </g>
                  </g>
                  <g id="Grupo_1065238" data-name="Grupo 1065238" transform="translate(0 0.561)" opacity="0.5">
                    <g id="Grupo_1065237" data-name="Grupo 1065237">
                      <g id="Grupo_1065236" data-name="Grupo 1065236" clip-path="url(#clip-path-28)">
                        <path id="Trazado_799652" data-name="Trazado 799652" d="M129.346,110.9c-.617-2.959,3.27-6.272,8.681-7.4s10.3.356,10.915,3.315-3.27,6.272-8.681,7.4-10.3-.356-10.915-3.315" transform="translate(-129.281 -103.117)" fill="#a95555"/>
                      </g>
                    </g>
                  </g>
                </g>
              </g>
            </g>
            <path id="Trazado_799653" data-name="Trazado 799653" d="M59.433,102.694c3.017,1.094,4.932-4.389,2.25-5.821-3.6-1.923-5.241,4.736-2.25,5.821" transform="translate(-26.787 -44.675)" fill="#65253e"/>
            <path id="Trazado_799654" data-name="Trazado 799654" d="M136.789,103.229c3.185-.39,2.411-6.147-.629-6.209-4.083-.083-2.529,6.6.629,6.209" transform="translate(-61.878 -44.903)" fill="#65253e"/>
            <path id="Trazado_799655" data-name="Trazado 799655" d="M61.351,69.584c-.076-5.188-6.649-1.3-7.659,1.472.5-.256,7.644-2.513,7.659-1.472" transform="translate(-24.85 -31.025)" fill="#9d6036"/>
            <path id="Trazado_799656" data-name="Trazado 799656" d="M131.521,70.4c-1.809-4.863,5.725-3.622,7.672-1.4-.562-.057-8.035.427-7.672,1.4" transform="translate(-60.742 -31.031)" fill="#9d6036"/>
            <path id="Trazado_799657" data-name="Trazado 799657" d="M31.6,35.894c3.989,1.629,6.4-3.988,3.452-6.428a2.959,2.959,0,0,0,.88-4.557c2.469.642,5.247,1.03,6.432-1.782-.232,3.819,5.58,4.066,7.675,1.938-1.131,4.19,4.174,5.749,6.241,2.4a4.026,4.026,0,0,0,6.742,1.41,2.659,2.659,0,0,0,4.8.733c.009,4.126,6.625,4.171,7.211.042q-.021-.276-.019,0c1.361,3.505,7.09,2.448,7.263-.976.618,2.217,4.627,4.009,5.451,1.056q-.01-.276-.013,0c.236,2.584,3.168,3.08,5.156,1.942-1.837,2.308.951,4.93,2.126,2.191-.006-.183-.011-.183-.012,0a3.1,3.1,0,0,0,2.257,2.8c-1.667,1.256-1.788,3.721.255,4.656-2.509,1.577-.792,4.752,1.256,3-1.578,1.392-.63,3.227,1.178,3.661-2.072.762-2.954,4.29-.089,4.734a9.879,9.879,0,0,0,.489,2.1c2-.7,7.08-5.18,4.361-7.36,2.146-1.181,3.349-4.668,1.174-6.3,1.786-1.641,3.47-5.309.6-6.713.989-2.01,1.905-5.282-1.012-5.953,1.161-2.1,1.631-5.639-1.142-6.466,2.156-2.319,1.417-6.434-2.308-6.171,1.738-.123-4.784-5.556-4.669-5.465-2.6-2.06-4.2-4.827-8.134-3.566-.543-2.608-4.194-4.889-6.3-2.709a4.09,4.09,0,0,0-6.177-1.847,3.991,3.991,0,0,0-6.052-.989c-1.882-1.607-6.322-2.018-7.4.646.088-.217-6.709-2.486-7.548,1.057C53.5,1.247,48.522.948,48.975,4.861,46.6,3.869,41.2,3.165,41.9,7.2q.241.137.079-.014c-2.8-1.367-6.19-.922-6.214,2.839q.221.053.16-.166c-2.4-.36-5.591.2-5.5,3.016-2.858-.032-7.81,4.111-4.632,6.774-2.294.444-3.312,3.441-1.175,4.722-2.453.825-3.707,4.894-.624,5.532-1.09,2.108-3.544,5.292-.2,6.858-2.009,1.665-3.015,5.134.313,5.775-1.258,1.657-1.342,4.058.805,4.715-3.04-.93,1.541,4.836,1.33,4.554.865,1.158,1.6,3.079,2.448,4.143,3.151,3.954,3.176-.8,1.2-3.891,2.451-1.356,3.672-5.24.395-6.612a2.172,2.172,0,0,0,.194-3.74c2.841-.38,3.768-4.482,1.125-5.811" transform="translate(-10.151 0)" fill="#562f1e"/>
            <path id="Trazado_799658" data-name="Trazado 799658" d="M94.287,159.455c2.06,2.041,2.864,4.84,3.784,7.623a99.8,99.8,0,0,1,3.951,19.121c.693,5.593,2.12,11.093,2.662,16.669-6.992,5.584-20.671,1.505-28.932,1.361-.409-8.775.728-17.986,1.759-26.726a41.151,41.151,0,0,1,4.793-15.871,12.458,12.458,0,0,1,1.293-1.925c.286-.337,1.031-1.3,1.488-1.372-.493,2.15-.185,4.241,2.292,4.831,1.927.459,5.164.018,5.979-2.126a4.246,4.246,0,0,0-.176-2.752,10.077,10.077,0,0,1,1.106,1.167" transform="translate(-35.02 -73.259)" fill="#ff4c3b"/>
            <path id="Trazado_799659" data-name="Trazado 799659" d="M92.222,158.222s-.7,2.779.792,3.846,6.482.627,6.991-.743a7.638,7.638,0,0,0,.307-3.067l.515.491s.972,4.083-.659,4.91a10.824,10.824,0,0,1-7.021.49c-2.023-.717-2.6-4.353-1.579-5.455Z" transform="translate(-42.151 -73.228)" fill="#fff"/>
            <path id="Trazado_799660" data-name="Trazado 799660" d="M17.43,151.442c.531-1.217,1.018-2.485-.526-2.787-2.612-.512-2.674,4.685-4.255,3.968-2-.91-4.809-7.268-7.429-4.787-1.915,1.814,3.286,5.749,4.181,6.869-1.6-.854-6.142-6-8.224-3.036-1.389,1.981,4.213,4.306,6.376,5.953-1.45-.033-7.47-3.675-7.553-.4-.035,1.405,1.136,2.148,2.346,2.459,1.411.364,2.875.357,4.288.743q.045,0,0,0c-1.311.306-3.943.046-4.539,1.631a1.58,1.58,0,0,0,.725,1.938c.772.386,1.678-.011,2.445-.2a6.068,6.068,0,0,1,2.887-.028c.893.223,1.662.8,2.573.972a4.407,4.407,0,0,0,3.5-.818c1.541-1.145,3.712-2.5,4.086-4.529.393-2.13-1.42-4.032-1.465-6.15a5.234,5.234,0,0,1,.587-1.789" transform="translate(0 -68.157)" fill="#ac7755"/>
            <path id="Trazado_799661" data-name="Trazado 799661" d="M121.242,221.287a1.835,1.835,0,0,0,.288-.611c.619-2.1-1.758-5.835-3.619-6.706-2.141-1-3.435.149-5.222,1.443-.662.48-1.97,1.185-1.745,2.2.233,1.054,1.4.8,1.976.195-.479.542-1.238.848-1.27,1.671a1.264,1.264,0,0,0,1.436,1.316c-.995,1.43.959,1.394,1.7,1.471-.336.58.146,1.07.744,1.041,1.07-.053,1.976-1.675,3.186-1.829.987-.126,1.953.547,2.526-.193" transform="translate(-51.335 -98.854)" fill="#ac7755"/>
          </g>
        </g>
      </g>
    </g>
    <g id="Grupo_1065254" data-name="Grupo 1065254" transform="translate(-3973.112 -4624.906)">
      <path id="Icon_awesome-long-arrow-alt-up-2" data-name="Icon awesome-long-arrow-alt-up" d="M3.64,6.961v52.6a.623.623,0,0,0,.623.623H7.171a.623.623,0,0,0,.623-.623V6.961h2.392a1.246,1.246,0,0,0,.881-2.127L6.6.365a1.246,1.246,0,0,0-1.762,0L.367,4.833a1.246,1.246,0,0,0,.881,2.127Z" transform="translate(164.677 4.621) rotate(90)" fill="#fec759"/>
      <path id="Icon_awesome-long-arrow-alt-up-3" data-name="Icon awesome-long-arrow-alt-up" d="M3.64,53.224V.623A.623.623,0,0,1,4.263,0H7.171a.623.623,0,0,1,.623.623v52.6h2.391a1.246,1.246,0,0,1,.881,2.127L6.6,59.82a1.246,1.246,0,0,1-1.762,0L.367,55.351a1.246,1.246,0,0,1,.881-2.127Z" transform="translate(60.185 4.622) rotate(90)" fill="#fec759"/>
      <g id="Grupo_1065251" data-name="Grupo 1065251" transform="translate(77.169 0)">
        <text id="X" transform="translate(0 16)" fill="#fec759" font-size="17" font-family="Roboto-Black, Roboto" font-weight="800"><tspan x="0" y="0">X</tspan></text>
      </g>
    </g>
    <path id="Trazado_801017" data-name="Trazado 801017" d="M14.984,12.992V17H12.641V5.625h4.438a5.134,5.134,0,0,1,2.254.469,3.454,3.454,0,0,1,1.5,1.332,3.714,3.714,0,0,1,.523,1.965,3.266,3.266,0,0,1-1.145,2.637,4.767,4.767,0,0,1-3.168.965Zm0-1.9h2.094a2.059,2.059,0,0,0,1.418-.437,1.591,1.591,0,0,0,.488-1.25,1.876,1.876,0,0,0-.492-1.352,1.839,1.839,0,0,0-1.359-.531H14.984Zm12.578-.43a6.134,6.134,0,0,0-.812-.062,1.654,1.654,0,0,0-1.68.867V17H22.813V8.547h2.133l.063,1.008a2.092,2.092,0,0,1,1.883-1.164,2.366,2.366,0,0,1,.7.1ZM28.3,12.7a5.013,5.013,0,0,1,.484-2.242A3.546,3.546,0,0,1,30.176,8.93a4.069,4.069,0,0,1,2.113-.539,3.849,3.849,0,0,1,2.793,1.047,4.2,4.2,0,0,1,1.207,2.844l.016.578a4.418,4.418,0,0,1-1.086,3.121A3.775,3.775,0,0,1,32.3,17.156a3.793,3.793,0,0,1-2.918-1.172A4.5,4.5,0,0,1,28.3,12.8Zm2.258.164a3.151,3.151,0,0,0,.453,1.84,1.629,1.629,0,0,0,2.578.008,3.448,3.448,0,0,0,.461-2.012,3.12,3.12,0,0,0-.461-1.828,1.5,1.5,0,0,0-1.3-.648,1.475,1.475,0,0,0-1.281.645A3.506,3.506,0,0,0,30.555,12.859ZM32.734,5H35.2L33.031,7.422H31.2Zm8.18,6.07,1.422-2.523H44.75l-2.406,4.141L44.852,17H42.43l-1.508-2.656L39.422,17h-2.43L39.5,12.688,37.1,8.547h2.422Zm7.3,5.93H45.953V8.547h2.266ZM45.82,6.359a1.112,1.112,0,0,1,.34-.836,1.465,1.465,0,0,1,1.848,0,1.105,1.105,0,0,1,.344.836A1.108,1.108,0,0,1,48,7.2a1.448,1.448,0,0,1-1.836,0A1.108,1.108,0,0,1,45.82,6.359ZM52.2,8.547l.07.945a2.971,2.971,0,0,1,2.43-1.1A2.255,2.255,0,0,1,56.938,9.68a2.9,2.9,0,0,1,2.539-1.289,2.521,2.521,0,0,1,2.047.8A3.681,3.681,0,0,1,62.2,11.6V17H59.93V11.609a1.61,1.61,0,0,0-.281-1.051,1.246,1.246,0,0,0-.992-.332,1.409,1.409,0,0,0-1.406.969l.008,5.8H55V11.617a1.59,1.59,0,0,0-.289-1.062,1.259,1.259,0,0,0-.984-.328,1.463,1.463,0,0,0-1.391.8V17H50.078V8.547ZM63.578,12.7a5.013,5.013,0,0,1,.484-2.242A3.546,3.546,0,0,1,65.457,8.93a4.069,4.069,0,0,1,2.113-.539,3.849,3.849,0,0,1,2.793,1.047,4.2,4.2,0,0,1,1.207,2.844l.016.578A4.418,4.418,0,0,1,70.5,15.98a4.209,4.209,0,0,1-5.832,0,4.5,4.5,0,0,1-1.09-3.187Zm2.258.164a3.151,3.151,0,0,0,.453,1.84,1.629,1.629,0,0,0,2.578.008,3.448,3.448,0,0,0,.461-2.012,3.12,3.12,0,0,0-.461-1.828,1.5,1.5,0,0,0-1.3-.648,1.475,1.475,0,0,0-1.281.645A3.506,3.506,0,0,0,65.836,12.859Zm15.516.18h-4.4v-1.82h4.4ZM87.3,17V5.625h3.5A5.315,5.315,0,0,1,93.48,6.3a4.712,4.712,0,0,1,1.848,1.922,5.928,5.928,0,0,1,.664,2.832v.523a5.945,5.945,0,0,1-.652,2.82,4.672,4.672,0,0,1-1.84,1.914A5.355,5.355,0,0,1,90.82,17Zm2.344-9.477v7.594h1.133a2.545,2.545,0,0,0,2.1-.9,4.06,4.06,0,0,0,.742-2.57v-.6A4.124,4.124,0,0,0,92.9,8.418a2.537,2.537,0,0,0-2.1-.895ZM99.93,17H97.664V8.547H99.93Zm-2.4-10.641a1.112,1.112,0,0,1,.34-.836,1.465,1.465,0,0,1,1.848,0,1.105,1.105,0,0,1,.344.836,1.108,1.108,0,0,1-.348.844,1.448,1.448,0,0,1-1.836,0A1.108,1.108,0,0,1,97.531,6.359Zm8.836,8.3a.727.727,0,0,0-.41-.652,4.659,4.659,0,0,0-1.316-.426q-3.016-.633-3.016-2.562a2.323,2.323,0,0,1,.934-1.879A3.766,3.766,0,0,1,105,8.391a4.053,4.053,0,0,1,2.574.758,2.388,2.388,0,0,1,.965,1.969h-2.258a1.092,1.092,0,0,0-.312-.8,1.322,1.322,0,0,0-.977-.316,1.351,1.351,0,0,0-.883.258.814.814,0,0,0-.312.656.7.7,0,0,0,.355.605,3.657,3.657,0,0,0,1.2.4,9.8,9.8,0,0,1,1.422.379,2.336,2.336,0,0,1,1.789,2.273,2.2,2.2,0,0,1-.992,1.871,4.28,4.28,0,0,1-2.562.715,4.47,4.47,0,0,1-1.887-.379,3.166,3.166,0,0,1-1.293-1.039,2.414,2.414,0,0,1-.469-1.426H103.5a1.179,1.179,0,0,0,.445.922,1.766,1.766,0,0,0,1.109.32,1.635,1.635,0,0,0,.98-.246A.766.766,0,0,0,106.367,14.664Zm6.352-8.2V8.547h1.445V10.2h-1.445v4.219a1.007,1.007,0,0,0,.18.672.9.9,0,0,0,.688.2,3.6,3.6,0,0,0,.664-.055v1.711a4.648,4.648,0,0,1-1.367.2,2.156,2.156,0,0,1-2.422-2.4V10.2h-1.234V8.547h1.234V6.469ZM120.32,17a2.507,2.507,0,0,1-.227-.758,2.732,2.732,0,0,1-2.133.914,3,3,0,0,1-2.059-.719,2.312,2.312,0,0,1-.816-1.812,2.389,2.389,0,0,1,1-2.062,4.915,4.915,0,0,1,2.879-.727H120v-.484a1.393,1.393,0,0,0-.3-.937,1.183,1.183,0,0,0-.949-.352,1.345,1.345,0,0,0-.895.273.929.929,0,0,0-.324.75h-2.258a2.268,2.268,0,0,1,.453-1.359,3,3,0,0,1,1.281-.98,4.669,4.669,0,0,1,1.859-.355,3.689,3.689,0,0,1,2.48.785,2.747,2.747,0,0,1,.918,2.207v3.664a4.041,4.041,0,0,0,.336,1.82V17Zm-1.867-1.57a1.945,1.945,0,0,0,.922-.223,1.462,1.462,0,0,0,.625-.6V13.156h-.844q-1.7,0-1.8,1.172l-.008.133a.9.9,0,0,0,.3.7A1.153,1.153,0,0,0,118.453,15.43Zm7.93,1.57h-2.266V5h2.266Z" transform="translate(-3960.112 -4760.345)" fill="#12263f"/>
    <g id="Grupo_1065257" data-name="Grupo 1065257" transform="translate(-3990.112 -4518.345)">
      <path id="Trazado_799663" data-name="Trazado 799663" d="M5.42-8.068,7.4-12.086h3.329L7.346-6.093,10.816,0H7.454L5.42-4.092,3.387,0H.033L3.495-6.093.125-12.086h3.32Z" transform="translate(3.949 15.086)" fill="#fec759"/>
      <text id="Inicio_del_desarrollo-2" data-name="Inicio del desarrollo" transform="translate(30.982)" fill="#12263f" font-size="16" font-family="Roboto-Regular, Roboto"><tspan x="0" y="17">Inicio del desarrollo</tspan></text>
      <text id="Dirección_del_desarrollo-2" data-name="Dirección del desarrollo" transform="translate(30.982 26)" fill="#12263f" font-size="16" font-family="Roboto-Regular, Roboto"><tspan x="0" y="17">Dirección del desarrollo</tspan></text>
      <path id="Icon_awesome-long-arrow-alt-right-2" data-name="Icon awesome-long-arrow-alt-right" d="M14.341,13.461H.548A.548.548,0,0,0,0,14.009v2.558a.548.548,0,0,0,.548.548H14.341v2.1a1.1,1.1,0,0,0,1.872.775l3.931-3.931a1.1,1.1,0,0,0,0-1.55l-3.931-3.931a1.1,1.1,0,0,0-1.872.775Z" transform="translate(0 20.212)" fill="#fec759"/>
    </g>
    <path id="Trazado_801018" data-name="Trazado 801018" d="M0,0H114V4H0Z" transform="translate(-3948.112 -4741.345)" fill="#fec759"/>
  </g>
</svg>
