<svg xmlns="http://www.w3.org/2000/svg" width="100" height="100" viewBox="0 0 100 100">
  <g id="Grupo_1065289" data-name="Grupo 1065289" transform="translate(-830 -2417)">
    <circle id="Elipse_8455" data-name="Elipse 8455" cx="50" cy="50" r="50" transform="translate(830 2417)" fill="#fec759"/>
    <g id="nino_2_" data-name="nino(2)" transform="translate(851.425 2439.324)">
      <path id="Trazado_799687" data-name="Trazado 799687" d="M43.477,376.387a34.739,34.739,0,0,1-15.984-4.018,4.457,4.457,0,0,1,3.859-8.034,25.973,25.973,0,0,0,12.125,3.139,4.457,4.457,0,1,1,0,8.913Z" transform="translate(-22.179 -323.991)" fill="#6ad5bc"/>
      <path id="Trazado_799688" data-name="Trazado 799688" d="M31.352,364.334a4.457,4.457,0,0,0-3.859,8.034c.524.252,1.063.505,1.618.757a12.769,12.769,0,0,0,3.876-8.029C32.436,364.85,31.893,364.594,31.352,364.334Z" transform="translate(-22.178 -323.991)" fill="#ffdacc"/>
      <path id="Trazado_799689" data-name="Trazado 799689" d="M285.721,376.387a34.739,34.739,0,0,0,15.984-4.018,4.457,4.457,0,0,0-3.859-8.034,25.973,25.973,0,0,1-12.125,3.139,4.457,4.457,0,1,0,0,8.913Z" transform="translate(-249.869 -323.991)" fill="#6ad5bc"/>
      <path id="Trazado_799690" data-name="Trazado 799690" d="M416.8,364.334a4.457,4.457,0,0,1,3.859,8.034c-.524.252-1.063.505-1.618.757a12.769,12.769,0,0,1-3.876-8.029C415.715,364.85,416.258,364.594,416.8,364.334Z" transform="translate(-368.822 -323.991)" fill="#ffdacc"/>
      <path id="Trazado_799691" data-name="Trazado 799691" d="M163.543,393.275a1.882,1.882,0,0,0,1.862-2.183,13.172,13.172,0,0,0-25.979,0,1.882,1.882,0,0,0,1.862,2.183Z" transform="translate(-123.841 -338.393)" fill="#8ce0df"/>
      <ellipse id="Elipse_8443" data-name="Elipse 8443" cx="6.817" cy="6.371" rx="6.817" ry="6.371" transform="translate(0.837 21.315)" fill="#ffc8bb"/>
      <ellipse id="Elipse_8444" data-name="Elipse 8444" cx="6.817" cy="6.371" rx="6.817" ry="6.371" transform="translate(42.68 21.315)" fill="#ffc8bb"/>
      <path id="Trazado_799692" data-name="Trazado 799692" d="M174.985,387.049a25.082,25.082,0,0,0,10.179-2.128,13.169,13.169,0,0,0-20.359,0A25.082,25.082,0,0,0,174.985,387.049Z" transform="translate(-146.41 -338.394)" fill="#6ad5bc"/>
      <ellipse id="Elipse_8445" data-name="Elipse 8445" cx="20.124" cy="18.273" rx="20.124" ry="18.273" transform="translate(8.452 8.76)" fill="#ffdacc"/>
      <path id="Trazado_799693" data-name="Trazado 799693" d="M80.322,17.777a16.685,16.685,0,0,1,4.495-3.767.774.774,0,0,1,1.137.668,14.3,14.3,0,0,0,.885,4.272.775.775,0,0,0,1.075.4c1.941-.993,5.973-1.975,8.878-1.115a.776.776,0,0,1,.238,1.368,9.069,9.069,0,0,0-2.662,3.264.773.773,0,0,0,.406,1.043c8.729,3.566,7.67,12.415,5.819,16.413a.775.775,0,0,1-1.412-.024c-1.252-2.884-3.9-8.08-6.632-10.33a.783.783,0,0,0-1.245.354,8.339,8.339,0,0,1-2.973,3.946.775.775,0,0,1-1.194-.441c-1.018-3.911-3.145-8.355-7.011-5.911a.767.767,0,0,1-.818,0c-3.866-2.444-5.993,2-7.011,5.911a.775.775,0,0,1-1.194.441,8.339,8.339,0,0,1-2.973-3.946.784.784,0,0,0-1.245-.354c-2.735,2.249-5.38,7.446-6.632,10.33a.775.775,0,0,1-1.412.024c-1.852-4-2.911-12.847,5.819-16.413a.773.773,0,0,0,.406-1.043A9.067,9.067,0,0,0,62.406,19.6a.776.776,0,0,1,.238-1.368c2.9-.86,6.937.122,8.878,1.115a.775.775,0,0,0,1.075-.4,14.3,14.3,0,0,0,.885-4.272.774.774,0,0,1,1.137-.668,16.685,16.685,0,0,1,4.495,3.767A.778.778,0,0,0,80.322,17.777Z" transform="translate(-51.142 -13.081)" fill="#e48895"/>
      <path id="Trazado_799694" data-name="Trazado 799694" d="M80.322,17.777a16.685,16.685,0,0,1,4.495-3.767.774.774,0,0,1,1.137.668,14.3,14.3,0,0,0,.885,4.272.775.775,0,0,0,1.075.4c1.941-.993,5.973-1.975,8.878-1.115a.776.776,0,0,1,.238,1.368,9.069,9.069,0,0,0-2.662,3.264.773.773,0,0,0,.406,1.043c8.729,3.566,7.67,12.415,5.819,16.413a.775.775,0,0,1-1.412-.024c-1.252-2.884-3.9-8.08-6.632-10.33a.783.783,0,0,0-1.245.354,8.339,8.339,0,0,1-2.973,3.946.775.775,0,0,1-1.194-.441c-1.018-3.911-3.145-8.355-7.011-5.911a.767.767,0,0,1-.818,0c-3.866-2.444-5.993,2-7.011,5.911a.775.775,0,0,1-1.194.441,8.339,8.339,0,0,1-2.973-3.946.784.784,0,0,0-1.245-.354c-2.735,2.249-5.38,7.446-6.632,10.33a.775.775,0,0,1-1.412.024c-1.852-4-2.911-12.847,5.819-16.413a.773.773,0,0,0,.406-1.043A9.067,9.067,0,0,0,62.406,19.6a.776.776,0,0,1,.238-1.368c2.9-.86,6.937.122,8.878,1.115a.775.775,0,0,0,1.075-.4,14.3,14.3,0,0,0,.885-4.272.774.774,0,0,1,1.137-.668,16.685,16.685,0,0,1,4.495,3.767A.778.778,0,0,0,80.322,17.777Z" transform="translate(-51.142 -13.081)" fill="#e48895"/>
      <path id="Trazado_799695" data-name="Trazado 799695" d="M72.047,51.143a.777.777,0,0,1-.527-.066c-1.941-.993-5.973-1.975-8.878-1.115a.776.776,0,0,0-.238,1.368,9.069,9.069,0,0,1,2.662,3.264.773.773,0,0,1-.406,1.043C55.93,59.2,56.989,68.051,58.84,72.049a.775.775,0,0,0,1.412-.024c1.252-2.884,3.9-8.08,6.632-10.33a.783.783,0,0,1,1.245.354A8.339,8.339,0,0,0,71.1,66a.775.775,0,0,0,1.194-.441,13.643,13.643,0,0,1,2.434-5.335C72.4,58.736,71.115,53.714,72.047,51.143Z" transform="translate(-51.14 -44.807)" fill="#e06e7e"/>
      <g id="Grupo_1065273" data-name="Grupo 1065273" transform="translate(15.922 26.397)">
        <g id="Grupo_1065272" data-name="Grupo 1065272">
          <path id="Trazado_799696" data-name="Trazado 799696" d="M149.463,252.565c0,1.5-1.526,2.717-3.409,2.718s-3.411-1.214-3.412-2.714,1.526-2.717,3.409-2.718S149.462,251.065,149.463,252.565Z" transform="translate(-142.642 -249.074)" fill="#eda1ab"/>
          <path id="Trazado_799697" data-name="Trazado 799697" d="M308.251,252.487c0,1.5,1.528,2.715,3.412,2.714s3.41-1.218,3.409-2.718-1.528-2.715-3.412-2.714-3.41,1.218-3.409,2.718Z" transform="translate(-289.765 -249.002)" fill="#eda1ab"/>
          <path id="Trazado_799698" data-name="Trazado 799698" d="M232.732,245.152c0-2.066-1.5-2.259-3.344-2.258s-3.343.2-3.342,2.262a3.364,3.364,0,1,0,6.686,0Z" transform="translate(-216.736 -242.894)" fill="#4f5c6f"/>
        </g>
      </g>
      <path id="Trazado_799699" data-name="Trazado 799699" d="M35.829,30.877h0a2.463,2.463,0,0,0-2.459,2.462.837.837,0,0,0,.837.837h0a.837.837,0,0,0,.837-.838.787.787,0,0,1,.786-.787h0a.786.786,0,0,1,.786.786.837.837,0,0,0,.837.837h0a.837.837,0,0,0,.837-.838,2.461,2.461,0,0,0-2.46-2.459ZM47.614,46a32.987,32.987,0,0,1-5.85,2.3,19.461,19.461,0,0,0,6.015-7.178C52.6,42.167,57.151,38.7,57.151,34.1a7.278,7.278,0,0,0-5.593-6.94A12.347,12.347,0,0,0,50.4,22.244a.837.837,0,0,0-1.51.723,12.855,12.855,0,0,1-.136,10.2c-1.423-3.247-4.06-8.252-6.813-10.516a1.621,1.621,0,0,0-2.574.746,7.491,7.491,0,0,1-2.582,3.462c-1.01-3.83-2.479-6.15-4.368-6.9a4.144,4.144,0,0,0-3.839.551,4.144,4.144,0,0,0-3.839-.551c-1.889.746-3.358,3.066-4.368,6.9A7.49,7.49,0,0,1,17.786,23.4a1.621,1.621,0,0,0-2.574-.746C12.467,24.911,9.832,29.9,8.4,33.169a13.038,13.038,0,0,1-.407-9.578,9.954,9.954,0,0,1,5.843-5.576,1.611,1.611,0,0,0,.847-2.175,9.885,9.885,0,0,0-2.823-3.506c2.67-.73,6.416.21,8.139,1.092a1.613,1.613,0,0,0,2.234-.835,15.088,15.088,0,0,0,.941-4.463,15.938,15.938,0,0,1,4.15,3.509,1.615,1.615,0,0,0,2.507,0,15.942,15.942,0,0,1,4.15-3.509,15.085,15.085,0,0,0,.941,4.463,1.613,1.613,0,0,0,2.234.835c1.723-.881,5.469-1.821,8.139-1.092a9.884,9.884,0,0,0-2.823,3.506,1.611,1.611,0,0,0,.847,2.175,11.719,11.719,0,0,1,3.4,2.072.837.837,0,1,0,1.116-1.248,13.346,13.346,0,0,0-3.82-2.348A8.272,8.272,0,0,1,46.389,13.6a1.614,1.614,0,0,0-.5-2.841c-3.119-.923-7.368.1-9.438,1.143a13.62,13.62,0,0,1-.8-3.921A1.612,1.612,0,0,0,33.284,6.6a17.432,17.432,0,0,0-4.709,3.924A17.437,17.437,0,0,0,23.866,6.6,1.612,1.612,0,0,0,21.5,7.984a13.617,13.617,0,0,1-.8,3.921c-2.07-1.038-6.319-2.066-9.438-1.143a1.614,1.614,0,0,0-.5,2.841,8.27,8.27,0,0,1,2.376,2.888A11.438,11.438,0,0,0,5.6,27.154,7.28,7.28,0,0,0,0,34.1c0,4.6,4.554,8.069,9.372,7.023A19.46,19.46,0,0,0,15.386,48.3,32.995,32.995,0,0,1,9.536,46a5.294,5.294,0,1,0-4.584,9.544,40.138,40.138,0,0,0,9.8,3.471,2.719,2.719,0,0,0,2.694,3.116h1.183a.837.837,0,0,0,0-1.674H17.448a1.045,1.045,0,0,1-1.036-1.208,12.39,12.39,0,0,1,4.854-7.886,23,23,0,0,0,14.62,0,12.39,12.39,0,0,1,4.854,7.886A1.045,1.045,0,0,1,39.7,60.457H22.609a.837.837,0,1,0,0,1.674H39.7A2.719,2.719,0,0,0,42.4,59.015a40.144,40.144,0,0,0,9.8-3.471A5.294,5.294,0,0,0,47.614,46Zm1.87-11.239a1.58,1.58,0,0,0,.641-.6,5.679,5.679,0,0,1,1.428.483.837.837,0,0,0,.794-1.474,6.936,6.936,0,0,0-1.58-.58,15.911,15.911,0,0,0,.751-3.7A5.571,5.571,0,0,1,55.476,34.1c0,3.422-3.351,6.055-7.029,5.447a17.615,17.615,0,0,0,1.037-4.783ZM1.674,34.1a5.574,5.574,0,0,1,3.967-5.21,16.075,16.075,0,0,0,.746,3.7,6.935,6.935,0,0,0-1.583.581.837.837,0,0,0,.4,1.575c.425,0,.537-.313,1.824-.583a1.581,1.581,0,0,0,.641.6A17.617,17.617,0,0,0,8.7,39.544c-3.679.608-7.029-2.026-7.029-5.447Zm4,19.937A3.619,3.619,0,0,1,8.811,47.51q.551.265,1.117.527A12.128,12.128,0,0,1,6.75,54.542q-.55-.256-1.073-.508Zm9.448,3.347A33.634,33.634,0,0,1,8.36,55.26a13.752,13.752,0,0,0,3.161-6.526,24.854,24.854,0,0,0,7.935,1.932A14.112,14.112,0,0,0,15.125,57.382Zm13.45-6.5c-10.564,0-18.586-7.5-19.239-16.243a1.61,1.61,0,0,0,.544-.674c2.341-5.389,4.8-8.671,6.339-9.969a9.2,9.2,0,0,0,3.26,4.291,1.612,1.612,0,0,0,2.486-.915c.844-3.242,2.046-5.318,3.386-5.848a2.562,2.562,0,0,1,2.368.434,1.61,1.61,0,0,0,1.712,0,2.561,2.561,0,0,1,2.368-.433c1.34.529,2.542,2.606,3.386,5.848a1.612,1.612,0,0,0,2.486.915,9.2,9.2,0,0,0,3.26-4.291c2.33,1.955,4.8,6.421,6.339,9.97a1.612,1.612,0,0,0,.544.674C47.159,43.415,39.1,50.88,28.575,50.88Zm13.45,6.5a14.111,14.111,0,0,0-4.33-6.716,24.856,24.856,0,0,0,7.933-1.932,13.749,13.749,0,0,0,3.162,6.526A33.64,33.64,0,0,1,42.025,57.382Zm9.448-3.347q-.523.251-1.072.507a12.122,12.122,0,0,1-3.179-6.506q.567-.261,1.117-.527a3.619,3.619,0,0,1,3.134,6.525ZM31.316,32.415a6.031,6.031,0,0,0-2.731-.444h-.012c-1.357,0-4.18,0-4.179,3.1a4.788,4.788,0,0,0,1.194,3.2,3.979,3.979,0,0,0,2.987,1.374h0a3.979,3.979,0,0,0,2.987-1.377,4.787,4.787,0,0,0,1.19-3.2,2.714,2.714,0,0,0-1.439-2.651Zm-.236,2.652a3.117,3.117,0,0,1-.765,2.088,2.327,2.327,0,0,1-1.739.817h0a2.327,2.327,0,0,1-1.739-.815,3.117,3.117,0,0,1-.767-2.087c0-1.085.345-1.423,2.505-1.424h.013a4.913,4.913,0,0,1,1.972.264c.27.137.521.372.521,1.158Zm-9.762-4.183h0a2.46,2.46,0,0,0-2.459,2.462.837.837,0,0,0,.837.837h0a.837.837,0,0,0,.837-.838.786.786,0,0,1,.786-.787h0a.786.786,0,0,1,.786.786.837.837,0,0,0,.837.837h0a.837.837,0,0,0,.837-.838,2.461,2.461,0,0,0-2.46-2.459Z" transform="translate(0 -6.411)"/>
    </g>
  </g>
</svg>
