<svg id="Grupo_1065163" data-name="Grupo 1065163" xmlns="http://www.w3.org/2000/svg" xmlns:xlink="http://www.w3.org/1999/xlink" width="295" height="193.403" viewBox="0 0 295 193.403">
  <defs>
    <clipPath id="clip-path">
      <rect id="Rectángulo_373877" data-name="Rectángulo 373877" width="295" height="193.403" fill="none"/>
    </clipPath>
  </defs>
  <g id="Grupo_1065162" data-name="Grupo 1065162" clip-path="url(#clip-path)">
    <path id="Trazado_799469" data-name="Trazado 799469" d="M249.644,168.7c-2.213,1.5-4.556,2.906-6.984,4.223H34.9c-9.574-6.565-21.739-15.469-26.786-29.411C-7.433,100.583,29.4,70.127,54.684,77.387,35.7,19.173,78.6-3.353,109.387,25.169c5.841-15.387,28.825-20.325,40.381-11.656,11.188-8.669,24.806-3.024,24.18,11.391,27.41,1.118,38.463,24.112,38.463,24.112,27-4.018,50.735.7,65.677,29.653,13.607,26.359-11.515,58.308-11.515,58.308s9.047,14.1-16.93,31.724" transform="translate(0.074 0.156)" fill="#fffcbb"/>
    <path id="Trazado_799470" data-name="Trazado 799470" d="M127.023,50.317l1.373-3.374,1,2.582,3.58-2.965s-2.7,4.575-2.252,4.691,7.375-.142,7.375-.142l-5.737,1.829,5.547,5.413-6.587-3.117-.33,9.5-1.524-8.028-4.352,6.926,2.4-7.411-5.935,6.123L126.031,54l-6.98,3.193,5.44-4.407-5.712-.756Z" transform="translate(2.003 0.785)" fill="#fff"/>
    <path id="Trazado_799471" data-name="Trazado 799471" d="M238.022,56.946A130.671,130.671,0,0,1,172.161,39c-19.819-11.551-30.825-24.65-30.934-24.781a.619.619,0,1,1,.952-.792c.109.13,11,13.088,30.648,24.528a129.165,129.165,0,0,0,85.139,16.237.62.62,0,0,1,.186,1.225,134.267,134.267,0,0,1-20.131,1.532" transform="translate(2.38 0.223)" fill="#b3b1e0"/>
    <path id="Trazado_799472" data-name="Trazado 799472" d="M216.655,53.5l-2.371,12.386-6.1-4.345-7.942,1.391,3.027-12.352Z" transform="translate(3.377 0.853)" fill="#ef7089"/>
    <path id="Trazado_799473" data-name="Trazado 799473" d="M216.614,53.5l-.317,1.657L202.644,52.47l.585-1.894Z" transform="translate(3.418 0.853)" fill="#c65940"/>
    <path id="Trazado_799474" data-name="Trazado 799474" d="M157.258,27.1l-8.977,10.628-3.515-7.476L136.377,27.3l9.588-10.241Z" transform="translate(2.3 0.288)" fill="#977bdb"/>
    <path id="Trazado_799475" data-name="Trazado 799475" d="M157.126,27.1l-1.2,1.422-11.679-9.959,1.586-1.506Z" transform="translate(2.433 0.288)" fill="#6255a7"/>
    <path id="Trazado_799476" data-name="Trazado 799476" d="M183.287,42.806l-5.956,12.133-5.076-6.217-8.6-.808L170.275,36Z" transform="translate(2.76 0.607)" fill="#96d7ea"/>
    <path id="Trazado_799477" data-name="Trazado 799477" d="M183.2,42.806l-.8,1.623-13.355-6.634L170.184,36Z" transform="translate(2.851 0.607)" fill="#79bccc"/>
    <path id="Trazado_799478" data-name="Trazado 799478" d="M243.48,53.139l1.838,11.93-6.9-1.961-6.714,3.805L230.473,54.8Z" transform="translate(3.887 0.896)" fill="#ede35f"/>
    <path id="Trazado_799479" data-name="Trazado 799479" d="M243.48,53.139l.246,1.6L230.554,56.7l-.081-1.9Z" transform="translate(3.887 0.896)" fill="#e0d146"/>
    <path id="Trazado_799480" data-name="Trazado 799480" d="M4.811,101.9a.754.754,0,0,1-.216-.033.745.745,0,0,1-.5-.928c.077-.254,7.979-25.415,34.309-28.925,6.579-6.362,8.385-21.452,4.095-34.527a.745.745,0,0,1,1.416-.464c4.569,13.923,2.561,29.5-4.666,36.242a.737.737,0,0,1-.414.194C13.29,76.725,5.6,101.126,5.524,101.373a.745.745,0,0,1-.713.529" transform="translate(0.069 0.616)" fill="#ffe6a1"/>
    <path id="Trazado_799481" data-name="Trazado 799481" d="M7.354,168.777a.745.745,0,0,1-.466-1.327l7.34-5.866C2.917,155.512.121,132.568.005,131.565a.745.745,0,0,1,1.48-.173c.029.246,2.99,24.563,14.424,29.344A.744.744,0,0,1,16.087,162l-8.268,6.609a.741.741,0,0,1-.465.164" transform="translate(0 2.205)" fill="#ffe6a1"/>
    <path id="Trazado_799482" data-name="Trazado 799482" d="M285.573,160.638a.759.759,0,0,1-.178-.021l-19.89-4.883a.746.746,0,0,1-.463-1.105l5.443-9.136a.741.741,0,0,1,.286-.275l17.8-9.588L274.829,121.31a.746.746,0,0,1-.062-.959c.215-.29,21.22-29.225,2.095-47.926A.745.745,0,0,1,277.9,71.36c8.317,8.133,10.6,19.36,6.617,32.47a63.781,63.781,0,0,1-8.189,16.894l13.992,14.582a.746.746,0,0,1-.184,1.172l-18.479,9.955-4.822,8.093,18.912,4.643a.745.745,0,0,1-.177,1.469" transform="translate(4.469 1.2)" fill="#ffe6a1"/>
    <path id="Trazado_799483" data-name="Trazado 799483" d="M52.449,20.074a.745.745,0,0,1-.518-1.281L63.106,8c9.987-9.641,25.677-10.7,36.5-2.469a28.2,28.2,0,0,1,8.386,10.423C118.683,3.423,133.417.772,147.621,8.9a.745.745,0,0,1-.74,1.293c-13.856-7.931-28.247-5.084-38.5,7.618a.745.745,0,0,1-1.263-.172A26.957,26.957,0,0,0,98.7,6.719C88.462-1.072,73.6-.061,64.141,9.076L52.967,19.864a.74.74,0,0,1-.518.209" transform="translate(0.872 0)" fill="#ffe6a1"/>
    <path id="Trazado_799484" data-name="Trazado 799484" d="M207.939,37.133a.745.745,0,0,1-.606-.31c-13.182-18.371-32.452-15.649-32.644-15.62a.742.742,0,0,1-.822-.5l-2.207-6.646a.745.745,0,0,1,1.414-.47l2.017,6.075c3.532-.317,21.092-.932,33.452,16.293a.745.745,0,0,1-.605,1.18" transform="translate(2.895 0.221)" fill="#ffe6a1"/>
    <path id="Trazado_799485" data-name="Trazado 799485" d="M275.8,67.892a.747.747,0,0,1-.53-.221l-3.791-3.83a.745.745,0,0,1-.027-1.018l5.539-6.254-8.586-1.235a.746.746,0,0,1-.54-1.109l3.484-6.053-12.505-.783a.746.746,0,0,1-.7-.744v-8.6l-7.979,11.468a.745.745,0,0,1-1.135.1c-9.756-9.619-26.618-8.457-26.784-8.444a.745.745,0,0,1-.113-1.486c.7-.055,17.018-1.173,27.3,8.261l8.841-12.706a.745.745,0,0,1,1.357.426V45.945l13.006.815a.745.745,0,0,1,.6,1.116l-3.534,6.142,8.867,1.275a.746.746,0,0,1,.451,1.232l-5.993,6.765,3.3,3.332a.745.745,0,0,1-.53,1.27" transform="translate(3.735 0.589)" fill="#ffe6a1"/>
    <path id="Trazado_799486" data-name="Trazado 799486" d="M11.405,80.735a.745.745,0,0,1-.653-1.1C14.8,72.243,20.618,65.3,35.559,64.459c1.911-2.779,1.288-7.562,1.079-9.168-.038-.289-.064-.5-.07-.614a.745.745,0,1,1,1.489-.078c.005.094.028.264.059.5.26,2,.955,7.327-1.579,10.547a.742.742,0,0,1-.549.284c-15.2.748-20.318,7.836-23.928,14.419a.743.743,0,0,1-.654.387M35.95,65.184h0Z" transform="translate(0.18 0.909)" fill="#ffe6a1"/>
    <path id="Trazado_799487" data-name="Trazado 799487" d="M181.55,137.378c-.421-.126-.872-.263-1.367-.414l-15.292-4.644a5.135,5.135,0,0,0-2.984,9.826l15.292,4.645c1.771.538,3.164.951,4.351,1.26Z" transform="translate(2.669 2.228)" fill="#ff9e5c"/>
    <path id="Trazado_799488" data-name="Trazado 799488" d="M170.709,132.835c12.023,4.434,16.87,7.6,23.582,5.627l2.7-.428a11.729,11.729,0,0,1-1.8,16.466l-.189.146c-9.436.772-17.635-2.733-29.086-9.526,7.227-2.376,5.438-13.48,4.8-12.286" transform="translate(2.798 2.239)" fill="#f08b89"/>
    <path id="Trazado_799489" data-name="Trazado 799489" d="M165.246,129.112l.016-.015c-.022-.016-.026-.009-.016.015" transform="translate(2.787 2.177)" fill="#ff9e5c"/>
    <path id="Trazado_799490" data-name="Trazado 799490" d="M165.479,129.21l0,0a9.917,9.917,0,0,0-5.192-5.756,1.7,1.7,0,0,0-1.931.483c-.025.032-.051.064-.074.1a1.278,1.278,0,0,0-.209.48,12.483,12.483,0,0,0-1.969-.592,1.78,1.78,0,0,0-1.678.581,1.456,1.456,0,0,0-.227.359,1.068,1.068,0,0,0,.354,1.35,8.372,8.372,0,0,0-1.345,0,1.86,1.86,0,0,0-1.245.633,1.406,1.406,0,0,0-.35.8,1.075,1.075,0,0,0,.595,1.056,1.816,1.816,0,0,0-.433.361,1.529,1.529,0,0,0-.32.612,1.17,1.17,0,0,0,1.162,1.465c2.993.17,4.5,2.951,5.223,5.088a10.17,10.17,0,0,1-1.641-2.851,1.405,1.405,0,0,0-1.911-.743,1.891,1.891,0,0,0-.811.582,1.452,1.452,0,0,0-.31,1.313c.073.251,1.947,6.406,8.421,7.764a1.7,1.7,0,0,0,1.046-.13,3.492,3.492,0,0,0,2.624-1.763,9.686,9.686,0,0,0,.226-11.2" transform="translate(2.554 2.08)" fill="#ff9e5c"/>
    <path id="Trazado_799491" data-name="Trazado 799491" d="M189.609,180.486h43.839c.263-10.579-.234-34.855-14.175-43.429l-7.152-4.006-15.368,4.083a9.14,9.14,0,0,0-6.787,9.14l.789,23.434Z" transform="translate(3.198 2.244)" fill="#f08b89"/>
    <path id="Trazado_799492" data-name="Trazado 799492" d="M210.248,143.241a8.064,8.064,0,0,0,5.28-1.511,3.884,3.884,0,0,0,1.462-2.579.247.247,0,0,0-.235-.26.251.251,0,0,0-.261.234,3.46,3.46,0,0,1-1.3,2.234c-1.479,1.227-4.038,1.648-7.4,1.217-4.506-.578-5.049-3.95-5.073-5.372a.249.249,0,0,0-.5.008c.056,3.233,2.114,5.421,5.507,5.856a19.937,19.937,0,0,0,2.517.173" transform="translate(3.411 2.31)" fill="#db5877"/>
    <path id="Trazado_799493" data-name="Trazado 799493" d="M210.572,121.274a7.463,7.463,0,0,1-.351.723c-1.287,2.459-5.565,9.877-5.565,9.877s-1.736,5.482,3.441,7.87,7.584-.889,7.584-.889l6.97-12.842Z" transform="translate(3.447 2.045)" fill="#ff9e5c"/>
    <path id="Trazado_799494" data-name="Trazado 799494" d="M222.96,130.09s-16.048,10.971-25.162,2.255,6.872-28.078,11.8-30.757,19.467,1.54,20.6,15.025c.648,7.682-7.243,13.477-7.243,13.477" transform="translate(3.29 1.701)" fill="#ffab6d"/>
    <path id="Trazado_799495" data-name="Trazado 799495" d="M200.515,117.152a1.735,1.735,0,0,1,2.329-.289.171.171,0,0,0,.183-.013l1.97-1.489a.172.172,0,0,1,.245.043l.01.014a.171.171,0,0,1-.032.239l-2.159,1.632a.187.187,0,0,1-.215.007c-.055-.037-1.353-.881-2.029.07-.44.621.124,1.381.578,1.84a.167.167,0,0,1,.037.186l-.013.032a.17.17,0,0,1-.278.055c-.532-.536-1.227-1.48-.626-2.327" transform="translate(3.378 1.945)" fill="#603f36"/>
    <path id="Trazado_799496" data-name="Trazado 799496" d="M203.332,114.151a1.087,1.087,0,0,1-2.056-.7,1.087,1.087,0,0,1,2.056.7" transform="translate(3.394 1.902)" fill="#603f36"/>
    <path id="Trazado_799497" data-name="Trazado 799497" d="M209.775,118.7a1.087,1.087,0,0,1-2.056-.7,1.087,1.087,0,0,1,2.056.7" transform="translate(3.502 1.978)" fill="#603f36"/>
    <path id="Trazado_799498" data-name="Trazado 799498" d="M199.374,101.93c1.2,3.366,2.536,7.609,6.572,11.664a5.692,5.692,0,0,0,6.393,1.163,3.528,3.528,0,0,1,1.085-.335,10.428,10.428,0,0,0-2.144,2.537q.412.377.831.742c.949-1.476,2.674-3.679,4.594-3.861a14.777,14.777,0,0,0-3.424,4.871,133.515,133.515,0,0,0,14.9,10.651s10.241-13.891,1.452-21.222c-13.642-17.556-23.155-3.492-30.258-6.211" transform="translate(3.363 1.672)" fill="#6255a7"/>
    <path id="Trazado_799499" data-name="Trazado 799499" d="M221.232,124.494c2.57-.451,6.736,1.24,5.173,4.961-1.705,4.057-7.7,1.495-9.533.6Z" transform="translate(3.658 2.099)" fill="#ffab6d"/>
    <path id="Trazado_799500" data-name="Trazado 799500" d="M220.111,127.968a.261.261,0,0,0,.279.039,2.335,2.335,0,0,1,3.125.986.261.261,0,0,0,.459-.249,2.892,2.892,0,0,0-3.8-1.211.261.261,0,0,0-.127.347.265.265,0,0,0,.067.088" transform="translate(3.711 2.146)" fill="#ee7035"/>
    <path id="Trazado_799501" data-name="Trazado 799501" d="M207.645,126a2,2,0,0,1-.221.179,4.353,4.353,0,0,1-5.706-1.241,5.367,5.367,0,0,1-.787-1.441,1,1,0,0,1,1.181-1.393,5.716,5.716,0,0,0,4.082.031c2.324-1.112,3.214,2.292,1.451,3.865" transform="translate(3.388 2.056)" fill="#fff"/>
    <path id="Trazado_799502" data-name="Trazado 799502" d="M207.63,125.963a2,2,0,0,1-.221.179A4.353,4.353,0,0,1,201.7,124.9c1.591-.658,6.111-2.236,5.926,1.062" transform="translate(3.402 2.09)" fill="#fff"/>
    <path id="Trazado_799503" data-name="Trazado 799503" d="M231.263,125.788a.206.206,0,0,1-.084-.017.215.215,0,0,1-.114-.283c2.6-6.111,3.035-10.864,1.292-14.125a7.261,7.261,0,0,0-4.607-3.607.216.216,0,1,1,.079-.425,7.568,7.568,0,0,1,4.9,3.821c1.813,3.382,1.384,8.262-1.272,14.5a.217.217,0,0,1-.2.131" transform="translate(3.838 1.81)" fill="#6255a7"/>
    <path id="Trazado_799504" data-name="Trazado 799504" d="M229.516,110.205a.215.215,0,0,1-.213-.181c-.02-.12-2.153-11.963-15.981-11.509a.216.216,0,0,1-.014-.432q.4-.012.781-.012c13.533,0,15.62,11.762,15.639,11.883a.216.216,0,0,1-.178.248l-.035,0" transform="translate(3.594 1.654)" fill="#6255a7"/>
    <path id="Trazado_799505" data-name="Trazado 799505" d="M207.015,135.524c-3.881,0-8.335-1.223-11.058-5.954a.215.215,0,1,1,.373-.216c5.428,9.426,18.057,4.414,18.184,4.362a.216.216,0,0,1,.163.4,22.911,22.911,0,0,1-7.661,1.407" transform="translate(3.305 2.18)" fill="#ee7035"/>
    <path id="Trazado_799506" data-name="Trazado 799506" d="M121.362,113.011a183.377,183.377,0,0,1,9.923,21.365c2.607,7.091,4.993,15.265-2.478,17.942a7.621,7.621,0,0,1-7.491-1.459c-3.686-2.983-7.319-9.374-10.435-13.652-4.158-5.7-7.139-10.847-7.139-10.847s-4.153-11.9,4.925-16.727,12.7,3.379,12.7,3.379" transform="translate(1.734 1.823)" fill="#f8b283"/>
    <path id="Trazado_799507" data-name="Trazado 799507" d="M147.683,95.44a13.225,13.225,0,0,0-.948,1.106,1.438,1.438,0,0,0-1.975.078c-2.887,3.151-3.44,7.671-3.406,10.861-.005,0-.005.005-.005.011l.006.005a22.732,22.732,0,0,0,.327,3.765,1.587,1.587,0,0,0,.071.28c.075.414.162.848.272,1.3a16.422,16.422,0,0,0,6.015,9.565c1.34.991,2.329,1.169,3.058.834a1.307,1.307,0,0,0,1.152-.353,10.9,10.9,0,0,0,1.9-2.574c2.7-5.006,1.755-11.522,1.707-11.846-.1-.685-.33-6.823-.905-7.838a2.47,2.47,0,0,0-.626-.737,1.666,1.666,0,0,0-1.21-.378,2.318,2.318,0,0,0,.228-2.133,2.168,2.168,0,0,0-.678-.965,1.334,1.334,0,0,0-1.424-.2,6.882,6.882,0,0,0-.879.518,1.2,1.2,0,0,0-.255-.873,2.316,2.316,0,0,0-.435-.439,1.437,1.437,0,0,0-1.99.01m-3,13.844-.022-.014c-.01-.069-.024-.138-.036-.213.021.073.038.154.058.227" transform="translate(2.384 1.603)" fill="#f8b283"/>
    <path id="Trazado_799508" data-name="Trazado 799508" d="M154.51,120.046c.125.2.191.3.191.3s-7.8,14.366-17.8,25.318c-1.208,1.324-2.448,2.6-3.71,3.79a7.206,7.206,0,0,1-10.334-.428c-2.352-2.675-4.1-6.048-1.665-8.811,1.128-1.28,2.306-2.586,3.5-3.9,6.979-7.684,14.524-15.662,16.119-20.645a8.776,8.776,0,0,1,1.577-3.1c4.049-4.681,10.9,5.555,12.124,7.472" transform="translate(2.024 1.878)" fill="#f8b283"/>
    <path id="Trazado_799509" data-name="Trazado 799509" d="M121.507,113.216c-7.23-11.381-13.858-21.866-23.057-15-4.137,3.089-8.9,8.2,5.435,28.344Z" transform="translate(1.589 1.62)" fill="#fff"/>
    <path id="Trazado_799510" data-name="Trazado 799510" d="M58.7,66.706s4.509,27.956,16.261,24.122c1.707-.557,4.335,1.975,6.083,1.557,8.2-1.962,8.082-14.63,1.849-24.776-7.013-11.415-24.513-15.533-24.192-.9" transform="translate(0.99 0.966)" fill="#555a94"/>
    <path id="Trazado_799511" data-name="Trazado 799511" d="M76.286,82.181S92.675,85.7,98.17,63.27c.528-2.154,1.266-3.525.11-5.84C92,44.86,82.444,42.469,69.967,51.606,58.006,60.363,59.943,81.5,76.286,82.181" transform="translate(1.051 0.777)" fill="#555a94"/>
    <path id="Trazado_799512" data-name="Trazado 799512" d="M68.895,81.822a11.235,11.235,0,0,0,.011-10.969,2.855,2.855,0,0,0-1.371-1.259c-2.728-1.134-5.293,3.012-5.608,7.658-.353,5.227,4.056,9.4,6.968,4.57" transform="translate(1.044 1.171)" fill="#555a94"/>
    <path id="Trazado_799513" data-name="Trazado 799513" d="M99.662,61.462c2.04,10.693,5.923,23.359,13.121,24.519-2.939,11.351-9.282,9.628-9.282,9.628A29.87,29.87,0,0,1,98.248,88.6c1.367,3.878,5.087,7.911,5.087,7.911s-3.468,3.895-7.95,4.911-18.684,6.727-26.436,3.27c1.867-4.315-1.318-14.724-1.318-14.724s2.643,12.991-.605,14.418c-6.057,1.009-13.318-5.72-13.318-5.72s6.836-6.408,3.072-28.5C53.5,50.91,71.31,38.255,88.064,45.646c4.769,2.1,10.539,10.26,11.6,15.815" transform="translate(0.906 0.734)" fill="#6255a7"/>
    <path id="Trazado_799514" data-name="Trazado 799514" d="M42.663,182.553h83.845l-9.151-35.218c-.067-6.475-6.007-38.116-7.741-47.227a4.062,4.062,0,0,0-2.961-3.173C94.609,93.8,82.109,94.966,64.167,97.1l-.1.012c-7.724.948-19.365,7.39-18.568,15.13Z" transform="translate(0.72 1.602)" fill="#fff"/>
    <path id="Trazado_799515" data-name="Trazado 799515" d="M89.128,106.217h0a10.031,10.031,0,0,1-12.8-6.127L68.36,77.468,87.282,70.8l7.973,22.624a10.032,10.032,0,0,1-6.127,12.8" transform="translate(1.153 1.194)" fill="#ffab6d"/>
    <path id="Trazado_799516" data-name="Trazado 799516" d="M91.833,90.6c-6.852,2.415-13.75-2.365-13.826-2.419a.286.286,0,1,1,.33-.468c.082.057,8.28,5.731,15.463,1.314a.286.286,0,1,1,.3.488A11.817,11.817,0,0,1,91.833,90.6" transform="translate(1.314 1.478)" fill="#603f36"/>
    <path id="Trazado_799517" data-name="Trazado 799517" d="M67.525,77.55S79.97,95.577,93.08,90.093,97.2,57.782,93.1,52.971,72,46.722,65.354,60.447c-3.787,7.819,2.171,17.1,2.171,17.1" transform="translate(1.081 0.836)" fill="#ffab6d"/>
    <path id="Trazado_799518" data-name="Trazado 799518" d="M94.962,75.986c.769-.27,2.783-1.144,2.374-2.744-.37-1.451-1.943-1.569-2.85-1.414l-2.342-3.763a.225.225,0,0,0-.382.237l2.424,3.9a.225.225,0,0,0,.24.1c.085-.019,2.091-.446,2.474,1.054s-2.316,2.284-2.344,2.291a.225.225,0,0,0,.122.433c.021-.006.127-.036.284-.092" transform="translate(1.547 1.146)" fill="#603f36"/>
    <path id="Trazado_799519" data-name="Trazado 799519" d="M94.7,67.222a1.182,1.182,0,0,0,2.359.092,1.182,1.182,0,0,0-2.359-.092" transform="translate(1.597 1.115)" fill="#603f36"/>
    <path id="Trazado_799520" data-name="Trazado 799520" d="M86.391,69.328a1.182,1.182,0,0,0,2.359.092,1.182,1.182,0,0,0-2.359-.092" transform="translate(1.457 1.151)" fill="#603f36"/>
    <path id="Trazado_799521" data-name="Trazado 799521" d="M66.749,49.773a23.226,23.226,0,0,1,11.665-2.487,18.416,18.416,0,0,1,9.967,1.936c5.724,2.741,9.157,7.386,8.364,9.833A22.437,22.437,0,0,1,99.5,65.266a25.712,25.712,0,0,0-4.662.505c-.612.108-1.286.241-2.018.4-.366.081-.749.169-1.144.267-.61.145-1.255.313-1.935.5-1.571.435-15.563,2.258-13.381,15.22-4.225-3.007-3.629-4.994-4.071-7.25l-.092.032c-2.319-.189-7.653,4-9.332,2.949-8.122-5.1-5.23-23.424,3.885-28.119" transform="translate(0.98 0.796)" fill="#6255a7"/>
    <path id="Trazado_799522" data-name="Trazado 799522" d="M71.766,74.544c-2.368-.593-7.681-1.36-7.54,3.241.118,3.83,4.417,4.622,7.54,4.69Z" transform="translate(1.083 1.25)" fill="#ffab6d"/>
    <path id="Trazado_799523" data-name="Trazado 799523" d="M67.782,75.231a.27.27,0,0,1-.2.22,2.377,2.377,0,0,0-1.847,2.906.269.269,0,0,1-.215.323.292.292,0,0,1-.344-.208,2.94,2.94,0,0,1,2.24-3.544.293.293,0,0,1,.357.187.251.251,0,0,1,.009.116" transform="translate(1.098 1.264)" fill="#ee7035"/>
    <path id="Trazado_799524" data-name="Trazado 799524" d="M86.181,74.257a1.349,1.349,0,1,1-1.721-.824,1.349,1.349,0,0,1,1.721.824" transform="translate(1.409 1.237)" fill="#ee7035"/>
    <path id="Trazado_799525" data-name="Trazado 799525" d="M55.851,49.522a9.133,9.133,0,1,0,5.578-11.649,9.133,9.133,0,0,0-5.578,11.649" transform="translate(0.933 0.63)" fill="#6255a7"/>
    <path id="Trazado_799526" data-name="Trazado 799526" d="M98.9,55.242a.434.434,0,0,0,.316-.645c-3.5-6.222-7.949-10.1-13.225-11.539a19.964,19.964,0,0,0-14.2,1.767.436.436,0,0,0,.438.754A19.44,19.44,0,0,1,85.77,43.9c5.039,1.375,9.306,5.117,12.684,11.124a.436.436,0,0,0,.443.218" transform="translate(1.207 0.716)" fill="#6255a7"/>
    <path id="Trazado_799527" data-name="Trazado 799527" d="M58.31,53.765c.125,0,.251,0,.38-.011a.436.436,0,0,0,.231-.787c-7.416-5.438-2.983-12.052-2.79-12.331a.436.436,0,0,0-.717-.5c-.05.071-4.636,6.87,1.9,12.653-3.1-.629-4.774-3.987-4.792-4.025a.436.436,0,0,0-.784.381c.095.194,2.3,4.616,6.572,4.616" transform="translate(0.872 0.674)" fill="#6255a7"/>
    <path id="Trazado_799528" data-name="Trazado 799528" d="M59.5,54.425a.434.434,0,0,0,.118-.016C70.66,51.3,73.542,44.272,73.659,43.974a.436.436,0,0,0-.81-.319c-.033.082-2.878,6.937-13.468,9.915a.436.436,0,0,0,.118.855" transform="translate(0.996 0.732)" fill="#977bdb"/>
    <path id="Trazado_799529" data-name="Trazado 799529" d="M86.788,109.335c-11.252,0-14.4-7-16.515-11.68l-.27-.6a.372.372,0,0,1,.676-.308l.271.6c2.222,4.929,5.248,11.671,16.929,11.22,4.992-.2,8.455-2.2,10.3-5.968a13.279,13.279,0,0,0,1.288-5.682.372.372,0,0,1,.357-.386.368.368,0,0,1,.385.356,13.129,13.129,0,0,1-3.171,8.7c-2.136,2.315-5.207,3.568-9.127,3.723-.381.014-.757.022-1.121.022" transform="translate(1.18 1.628)" fill="#fff"/>
    <path id="Trazado_799530" data-name="Trazado 799530" d="M185.008,173.752H34.872s-18.586,8.907,14.747,10.885S255,187.7,255.963,180.023s-70.955-6.271-70.955-6.271" transform="translate(0.501 2.929)" fill="#6255a7"/>
    <path id="Trazado_799531" data-name="Trazado 799531" d="M59.249,132.075a183.315,183.315,0,0,1-9.475,21.568c-3.6,6.643-6.97,10.712-10.112,11.584a4.9,4.9,0,0,1-4.989-1.584c-1.585-1.574-2.281-4.342-2.414-7.666-.2-4.738.755-10.61,1.906-15.776,1.53-6.889,3.42-12.526,3.42-12.526s6.189-10.985,15.808-7.361,5.856,11.761,5.856,11.761" transform="translate(0.544 2.017)" fill="#f8b283"/>
    <path id="Trazado_799532" data-name="Trazado 799532" d="M88.354,182.314a13.233,13.233,0,0,0-1.044-1.018,1.437,1.437,0,0,0,.048-1.975c-2.96-3.083-7.435-3.924-10.62-4.095,0-.006-.005-.006-.01-.006l-.006.006a22.819,22.819,0,0,0-3.779.085,1.537,1.537,0,0,0-.284.054c-.418.048-.857.107-1.317.187a16.422,16.422,0,0,0-9.931,5.39c-1.076,1.274-1.317,2.248-1.027,3a1.3,1.3,0,0,0,.278,1.172,10.9,10.9,0,0,0,2.447,2.061c4.823,3.019,11.386,2.489,11.712,2.462.691-.059,6.831.108,7.881-.4a2.454,2.454,0,0,0,.776-.578,1.662,1.662,0,0,0,.455-1.184,2.314,2.314,0,0,0,2.115.364,2.154,2.154,0,0,0,1.006-.615,1.332,1.332,0,0,0,.29-1.407,6.994,6.994,0,0,0-.461-.91,1.2,1.2,0,0,0,.889-.2,2.34,2.34,0,0,0,.466-.407,1.437,1.437,0,0,0,.118-1.986M74.73,178.433l.016-.021c.069-.005.139-.016.214-.021-.074.016-.155.026-.23.043" transform="translate(1.017 2.955)" fill="#f8b283"/>
    <path id="Trazado_799533" data-name="Trazado 799533" d="M63.59,187.709c-.2.113-.316.171-.316.171s-13.838-8.7-24.126-19.389a56.476,56.476,0,0,1-7.4-9.249c-.2-4.738.755-10.61,1.906-15.776,4,1.66,9.721,7.355,15.61,13.441,7.221,7.457,14.7,15.5,19.571,17.409a8.793,8.793,0,0,1,2.992,1.771c4.411,4.342-6.242,10.525-8.233,11.622" transform="translate(0.535 2.42)" fill="#f8b283"/>
    <path id="Trazado_799534" data-name="Trazado 799534" d="M59.16,132.326c3.761-12.949,7.248-24.852-3.986-27.215-5.053-1.063-12.038-1.265-17.677,22.813Z" transform="translate(0.632 1.767)" fill="#fff"/>
    <path id="Trazado_799535" data-name="Trazado 799535" d="M88.187,78.627a1.2,1.2,0,0,0,.065.19,3.079,3.079,0,0,0,3.881,1.414,3.787,3.787,0,0,0,1.016-.564.709.709,0,0,0-.18-1.279,4.048,4.048,0,0,1-2.454-1.525c-.969-1.544-2.789.157-2.329,1.764" transform="translate(1.486 1.286)" fill="#fff"/>
    <path id="Trazado_799536" data-name="Trazado 799536" d="M88.186,78.6a1.2,1.2,0,0,0,.065.19,3.079,3.079,0,0,0,3.881,1.414c-.7-.994-2.811-3.647-3.946-1.6" transform="translate(1.487 1.313)" fill="#fff"/>
    <path id="Trazado_799537" data-name="Trazado 799537" d="M140.074,101.867a3.356,3.356,0,0,1-1.3-.753l-7.584-7.052a3.376,3.376,0,0,1,4.6-4.944l7.583,7.051a3.377,3.377,0,0,1-3.3,5.7" transform="translate(2.195 1.488)" fill="#c19bc4"/>
    <path id="Trazado_799538" data-name="Trazado 799538" d="M157.407,104.993a3.376,3.376,0,0,1,1.459-6.32l10.34-.568a3.376,3.376,0,0,1,.37,6.742l-10.339.568a3.369,3.369,0,0,1-1.829-.422" transform="translate(2.626 1.655)" fill="#c19bc4"/>
    <path id="Trazado_799539" data-name="Trazado 799539" d="M161.97,106.749c-2.03,6.576-9.5,10.109-16.685,7.892s-11.363-9.347-9.334-15.922,9.5-10.11,16.684-7.892,11.364,9.346,9.335,15.922" transform="translate(2.284 1.521)" fill="#c19bc4"/>
    <path id="Trazado_799540" data-name="Trazado 799540" d="M135.993,98.577a38.385,38.385,0,0,1-3.039,15.777c7.56,13.991,22.37,9,22.37,9s8.163-11.4,7.2-18.11-26.531-6.671-26.531-6.671" transform="translate(2.242 1.663)" fill="#c19bc4"/>
    <path id="Trazado_799541" data-name="Trazado 799541" d="M157.144,104c-1.064,3.444-5.479,5.14-9.863,3.787s-7.076-5.242-6.014-8.687,5.479-5.139,9.864-3.787,7.076,5.243,6.013,8.687" transform="translate(2.379 1.6)" fill="#d7c4d8"/>
    <path id="Trazado_799542" data-name="Trazado 799542" d="M173.189,89.588c-2.668,8.646-13.223,13.066-23.574,9.871S133.036,86.664,135.7,78.018s13.223-13.065,23.574-9.871,16.579,12.794,13.911,21.441" transform="translate(2.278 1.132)" fill="#c19bc4"/>
    <path id="Trazado_799543" data-name="Trazado 799543" d="M150.231,68.375a5.538,5.538,0,1,1-3.659-6.925,5.538,5.538,0,0,1,3.659,6.925" transform="translate(2.351 1.032)" fill="#c19bc4"/>
    <path id="Trazado_799544" data-name="Trazado 799544" d="M176.686,76.54a5.538,5.538,0,1,1-3.659-6.925,5.539,5.539,0,0,1,3.659,6.925" transform="translate(2.797 1.17)" fill="#c19bc4"/>
    <path id="Trazado_799545" data-name="Trazado 799545" d="M165.655,91.616c-1.439,4.663-8.234,6.707-15.175,4.565s-11.4-7.66-9.962-12.323,8.234-6.707,15.175-4.565,11.4,7.66,9.962,12.323" transform="translate(2.365 1.323)" fill="#d7c4d8"/>
    <path id="Trazado_799546" data-name="Trazado 799546" d="M152.9,82.123l2.813.838a1.729,1.729,0,0,0,2.159-1.073l.006-.018c.4-1.343-.662-2.845-2.372-3.355s-3.42.167-3.82,1.51l-.005.019a1.728,1.728,0,0,0,1.22,2.078" transform="translate(2.557 1.321)" fill="#2c221c"/>
    <path id="Trazado_799547" data-name="Trazado 799547" d="M146.57,74.323a1.385,1.385,0,1,1-.914-1.732,1.385,1.385,0,0,1,.914,1.732" transform="translate(2.426 1.223)" fill="#2c221c"/>
    <path id="Trazado_799548" data-name="Trazado 799548" d="M168.255,81.016a1.385,1.385,0,1,1-.916-1.732,1.385,1.385,0,0,1,.916,1.732" transform="translate(2.792 1.336)" fill="#2c221c"/>
    <path id="Trazado_799549" data-name="Trazado 799549" d="M150.358,89a.234.234,0,0,1-.138-.119.231.231,0,0,1,.107-.309l2.436-1.19,1.556-5.093a.231.231,0,0,1,.289-.154h0a.231.231,0,0,1,.152.289l-1.585,5.19a.233.233,0,0,1-.119.14l-2.528,1.233a.232.232,0,0,1-.171.012" transform="translate(2.533 1.385)" fill="#2c221c"/>
    <path id="Trazado_799550" data-name="Trazado 799550" d="M152.739,87.609a.231.231,0,0,1,.348-.305l1.847,2.1a.231.231,0,0,1-.244.373Z" transform="translate(2.575 1.471)" fill="#603f36"/>
    <path id="Trazado_799551" data-name="Trazado 799551" d="M142.683,69.722s3.131-2.469,5.984-1.972c-.159-3.751-3.188-4.324-4.273-3.911s-4.06,1.975-1.711,5.883" transform="translate(2.392 1.075)" fill="#d7c4d8"/>
    <path id="Trazado_799552" data-name="Trazado 799552" d="M168.161,73.169s3.48-4.33,6.2-.66-1.058,5.412-2.375,6.182c-.586-3.082-3.822-5.522-3.822-5.522" transform="translate(2.836 1.198)" fill="#d7c4d8"/>
    <path id="Trazado_799553" data-name="Trazado 799553" d="M150.2,98.608,144.554,94.5a1.136,1.136,0,0,0-1.839.54l-.893,3.2a1.482,1.482,0,0,0,1.622,1.827Z" transform="translate(2.391 1.589)" fill="#ef7089"/>
    <path id="Trazado_799554" data-name="Trazado 799554" d="M148.109,98.019l4.979,4.957a1.264,1.264,0,0,0,2.085-.451l1.15-3.116a1.265,1.265,0,0,0-1.243-1.7Z" transform="translate(2.498 1.648)" fill="#ef7089"/>
    <path id="Trazado_799555" data-name="Trazado 799555" d="M149.6,100.57l-1.4-.479a.954.954,0,0,1-.595-1.211L148,97.746a.954.954,0,0,1,1.066-.631l1.479.257a.953.953,0,0,1,.739,1.248l-.463,1.356a.954.954,0,0,1-1.211.594" transform="translate(2.489 1.638)" fill="#ef7089"/>
    <path id="Trazado_799556" data-name="Trazado 799556" d="M150.17,97.811a1.366,1.366,0,0,0,.069.189,3.078,3.078,0,0,0,3.91,1.332,3.763,3.763,0,0,0,1-.586.709.709,0,0,0-.206-1.275A4.05,4.05,0,0,1,152.461,96c-1-1.523-2.785.215-2.291,1.812" transform="translate(2.531 1.609)" fill="#2c221c"/>
    <path id="Trazado_799557" data-name="Trazado 799557" d="M150.169,97.784a1.366,1.366,0,0,0,.069.189,3.078,3.078,0,0,0,3.91,1.332c-.724-.98-2.887-3.588-3.979-1.521" transform="translate(2.533 1.636)" fill="#ef7089"/>
    <path id="Trazado_799558" data-name="Trazado 799558" d="M205,188.5l0-.022c-.022.014-.023.021,0,.022" transform="translate(3.457 3.179)" fill="#ff9e5c"/>
    <path id="Trazado_799559" data-name="Trazado 799559" d="M211.686,179.583a3.489,3.489,0,0,0-1.055-2.979,1.684,1.684,0,0,0-.763-.728c-6.006-2.769-11.18,1.057-11.389,1.214a1.452,1.452,0,0,0-.533,1.239,1.9,1.9,0,0,0,.3.952,1.406,1.406,0,0,0,1.978.541,10.219,10.219,0,0,1,3.017-1.311c-1.854,1.286-4.722,2.62-7.227.973a1.168,1.168,0,0,0-1.806.483,1.542,1.542,0,0,0-.108.682,1.822,1.822,0,0,0,.132.548,1.076,1.076,0,0,0-1.106.493,1.413,1.413,0,0,0-.2.852,1.863,1.863,0,0,0,.621,1.251,8.388,8.388,0,0,0,1.08.8,1.068,1.068,0,0,0-1.089.872,1.45,1.45,0,0,0-.033.424,1.781,1.781,0,0,0,1,1.466,12.428,12.428,0,0,0,1.934.7,1.3,1.3,0,0,0-.118.51c0,.042,0,.083,0,.124a1.7,1.7,0,0,0,1.262,1.539,9.917,9.917,0,0,0,7.6-1.527v0a9.684,9.684,0,0,0,6.492-9.124" transform="translate(3.254 2.949)" fill="#ff9e5c"/>
    <path id="Trazado_799560" data-name="Trazado 799560" d="M206.8,186.959a5.122,5.122,0,0,0,3.652-1.992l6.5-8.479c.049-.063.1-.128.142-.194a57.25,57.25,0,0,0,9.36-22.507l1.275-5.552a5.135,5.135,0,0,0-10.009-2.3l-1.3,5.667c-.018.078-.034.157-.048.235a47.044,47.044,0,0,1-7.643,18.5l-6.428,8.38a5.135,5.135,0,0,0,4.5,8.243" transform="translate(3.394 2.394)" fill="#ff9e5c"/>
    <path id="Trazado_799561" data-name="Trazado 799561" d="M201.594,170.416s8.128,6.041,15.466,11.023c7.138-8.429,18.31-31.774,9.776-39.234a6.89,6.89,0,0,0-7.872-.966c-7.749,4.338-5.19,20.683-17.37,29.177" transform="translate(3.4 2.368)" fill="#f08b89"/>
    <path id="Trazado_799562" data-name="Trazado 799562" d="M217.038,181.577a.3.3,0,0,1-.187-.063l-13.878-10.506a.3.3,0,0,1-.123-.237.307.307,0,0,1,.108-.243c.094-.08,9.355-8.176,11.268-19.8a.308.308,0,1,1,.608.1c-1.758,10.69-9.6,18.437-11.193,19.913l13.583,10.283a.309.309,0,0,1-.186.554" transform="translate(3.421 2.538)" fill="#db5877"/>
    <path id="Trazado_799563" data-name="Trazado 799563" d="M190.991,174.472a.308.308,0,0,1-.308-.3c-.631-24.529,1.9-30.483,2.005-30.725a.308.308,0,0,1,.563.251c-.026.059-2.578,6.149-1.952,30.458a.307.307,0,0,1-.3.316Z" transform="translate(3.214 2.416)" fill="#db5877"/>
    <path id="Trazado_799564" data-name="Trazado 799564" d="M72.606,175.718l27.949,13V160.33L72.606,149.116Z" transform="translate(1.225 2.515)" fill="#96d7ea"/>
    <path id="Trazado_799565" data-name="Trazado 799565" d="M123.464,150.251l-23.374,10.06V188.7l24.141-12.231Z" transform="translate(1.688 2.534)" fill="#f08b89"/>
    <path id="Trazado_799566" data-name="Trazado 799566" d="M157.387,158.59l-34.311-8.339.769,26.217,34.3,13.21Z" transform="translate(2.076 2.534)" fill="#b3b1e0"/>
    <path id="Trazado_799567" data-name="Trazado 799567" d="M187.425,147.9,156.819,158.63l.754,31.088L187.685,177Z" transform="translate(2.645 2.495)" fill="#c19bc4"/>
    <path id="Trazado_799568" data-name="Trazado 799568" d="M110.69,167.353l.111.965a1.28,1.28,0,0,0,1.8,1.019l1.849-.842a1.28,1.28,0,0,0,.735-1.357l-.128-.849a1.28,1.28,0,0,0-1.739-1l-1.831.727a1.28,1.28,0,0,0-.8,1.336" transform="translate(1.867 2.786)" fill="#b3b1e0"/>
    <path id="Trazado_799569" data-name="Trazado 799569" d="M111.2,166.811l-6.555-1.462a1.378,1.378,0,0,0-1.388.472,2.791,2.791,0,0,0-.543,2.086c-.73,1.855-.3,3.345,1.155,3.954a2.008,2.008,0,0,0,.244,1.644,1.425,1.425,0,0,0,2.172.258l5.021-4.687Z" transform="translate(1.727 2.788)" fill="#b3b1e0"/>
    <path id="Trazado_799570" data-name="Trazado 799570" d="M114.36,165.434l3.227-4.024a1,1,0,0,1,1.433-.137,1.807,1.807,0,0,1,.559.956,2.2,2.2,0,0,1,1.034,3.039,2.684,2.684,0,0,1,.175,2.787.848.848,0,0,1-.835.379l-5.241-.7Z" transform="translate(1.929 2.716)" fill="#b3b1e0"/>
    <path id="Trazado_799571" data-name="Trazado 799571" d="M83.461,161.288l-6.679-.369,5.561,5.49-3.36,5.526,6.835-3.419,8.341,10.138-4.694-11.567,6.548-.871-7.59-2.885-2.605-4.953Z" transform="translate(1.295 2.671)" fill="#ffeaa9"/>
    <path id="Trazado_799572" data-name="Trazado 799572" d="M80.38,166.1s-6.516-1.491-5.561,0,5.561,0,5.561,0" transform="translate(1.26 2.79)" fill="#fff"/>
    <path id="Trazado_799573" data-name="Trazado 799573" d="M85.243,170.371c-.26.434.116,8.515,1.014,6.082s-1.014-6.082-1.014-6.082" transform="translate(1.436 2.874)" fill="#fff"/>
    <path id="Trazado_799574" data-name="Trazado 799574" d="M95.775,169.027a39.1,39.1,0,0,1-4.808-1.389c4.258,5.821,7.27,2.693,4.808,1.389" transform="translate(1.534 2.827)" fill="#fff"/>
    <path id="Trazado_799575" data-name="Trazado 799575" d="M81.815,159.847s-5.831-3.823-4.305-4.258,4.305,4.258,4.305,4.258" transform="translate(1.303 2.624)" fill="#fff"/>
    <path id="Trazado_799576" data-name="Trazado 799576" d="M89.514,162.007s5.04-1.216,5.3,0-5.3,0-5.3,0" transform="translate(1.51 2.723)" fill="#fff"/>
    <path id="Trazado_799577" data-name="Trazado 799577" d="M132.866,164.676v8.644l13.988,4.156V167.335Z" transform="translate(2.241 2.777)" fill="#96d7ea"/>
    <path id="Trazado_799578" data-name="Trazado 799578" d="M136.391,166.94v4.215l6.82,2.026v-4.944Z" transform="translate(2.3 2.816)" fill="#fffcbb"/>
    <path id="Trazado_799579" data-name="Trazado 799579" d="M138.712,159.71l-5.846,4.175,13.988,2.738Z" transform="translate(2.241 2.694)" fill="#c19bc4"/>
    <path id="Trazado_799580" data-name="Trazado 799580" d="M181.153,163c0-1.7-1.075-3.081-2.4-3.081a1.99,1.99,0,0,0-1.146.373,4.15,4.15,0,0,0-2.767-1.022,3.72,3.72,0,0,0-3.914,3.489,3.131,3.131,0,0,0,.169,1.01,4.5,4.5,0,0,0-2.078-.5c-2.162,0-3.914,1.45-3.914,3.239a2.725,2.725,0,0,0,.153.887,2.643,2.643,0,0,0-2.465,2.352c0,1.325,1.38,2.4,3.082,2.4a3.685,3.685,0,0,0,1.788-.448c.1,1.716,1.806,3.084,3.9,3.084,2.162,0,3.914-1.45,3.914-3.238a2.668,2.668,0,0,0-.068-.587,4.333,4.333,0,0,0,1.433.244,3.72,3.72,0,0,0,3.914-3.489,3.228,3.228,0,0,0-.772-2.073A3.327,3.327,0,0,0,181.153,163" transform="translate(2.746 2.686)" fill="#fff"/>
  </g>
</svg>
