<svg xmlns="http://www.w3.org/2000/svg" width="70" height="70" viewBox="0 0 70 70">
  <g id="Grupo_1064017" data-name="Grupo 1064017" transform="translate(-388.455 -1387.455)">
    <circle id="Elipse_8234" data-name="Elipse 8234" cx="35" cy="35" r="35" transform="translate(388.455 1387.455)" fill="#ffebc5"/>
    <g id="Layer_31" data-name="Layer 31" transform="translate(396.179 1399.613)">
      <path id="Trazado_796561" data-name="Trazado 796561" d="M13,21H40.125v8.566a5.711,5.711,0,0,1-5.711,5.711h-15.7A5.711,5.711,0,0,1,13,29.566Z" transform="translate(-0.286 -6.01)" fill="#b26049"/>
      <path id="Trazado_796562" data-name="Trazado 796562" d="M15.855,23h1.428v5.711H15.855A2.855,2.855,0,0,1,13,25.855h0A2.855,2.855,0,0,1,15.855,23Z" transform="translate(-0.286 -6.582)" fill="#f9b995"/>
      <path id="Trazado_796563" data-name="Trazado 796563" d="M2.855,0H4.283V5.711H2.855A2.855,2.855,0,0,1,0,2.855H0A2.855,2.855,0,0,1,2.855,0Z" transform="translate(39.839 22.128) rotate(180)" fill="#ffd3b6"/>
      <rect id="Rect치ngulo_373473" data-name="Rect치ngulo 373473" width="4" height="5" transform="translate(24.277 28.842)" fill="#f9b995"/>
      <path id="Trazado_796564" data-name="Trazado 796564" d="M24.421,47H28.7A11.421,11.421,0,0,1,40.125,58.421H13A11.421,11.421,0,0,1,24.421,47Z" transform="translate(-0.286 -13.451)" fill="#f2a7b1"/>
      <path id="Trazado_796565" data-name="Trazado 796565" d="M17.283,50.609q.106-.166.214-.311A11.39,11.39,0,0,0,13,59.365H40.125a11.44,11.44,0,0,0-.208-2.141H21.055a4.364,4.364,0,0,1-3.772-6.615Z" transform="translate(-0.286 -14.394)" fill="#ea96a4"/>
      <path id="Trazado_796566" data-name="Trazado 796566" d="M17,13H38.415V23.707A10.707,10.707,0,0,1,27.707,34.415h0A10.707,10.707,0,0,1,17,23.707Z" transform="translate(-1.431 -3.72)" fill="#ffd3b6"/>
      <path id="Trazado_796567" data-name="Trazado 796567" d="M19.141,24.852V17H17v7.852A10.707,10.707,0,0,0,27.707,35.559c.361,0,.719-.019,1.071-.054a10.707,10.707,0,0,1-9.637-10.653Z" transform="translate(-1.431 -4.865)" fill="#f9b995"/>
      <path id="Trazado_796568" data-name="Trazado 796568" d="M21.428,24h4.283a1.428,1.428,0,0,1,1.428,1.428v.714a3.569,3.569,0,0,1-3.569,3.569h0A3.569,3.569,0,0,1,20,26.141v-.714A1.428,1.428,0,0,1,21.428,24Z" transform="translate(-2.289 -6.868)" fill="#98deea"/>
      <path id="Trazado_796569" data-name="Trazado 796569" d="M35.428,24h4.283a1.428,1.428,0,0,1,1.428,1.428v.714a3.569,3.569,0,0,1-3.569,3.569h0A3.569,3.569,0,0,1,34,26.141v-.714A1.428,1.428,0,0,1,35.428,24Z" transform="translate(-6.296 -6.868)" fill="#98deea"/>
      <path id="Trazado_796570" data-name="Trazado 796570" d="M30.283,37.855h0A4.62,4.62,0,0,1,26.151,35.3L26,35h8.566l-.151.3a4.62,4.62,0,0,1-4.132,2.554Z" transform="translate(-4.007 -10.016)" fill="#f96464"/>
      <path id="Trazado_796571" data-name="Trazado 796571" d="M40.125,14.563V16.7a37.423,37.423,0,0,0-6.21-2.013l-.928-3.7-.835,3.348a32.24,32.24,0,0,0-4.511-.471l-1.078-4.3-1.078,4.3a32.238,32.238,0,0,0-4.511.471l-.835-3.348-.928,3.7A37.423,37.423,0,0,0,13,16.7V14.563A13.563,13.563,0,0,1,26.563,1h0A13.563,13.563,0,0,1,40.125,14.563Z" transform="translate(-0.286 -0.286)" fill="#c67a60"/>
      <path id="Trazado_796572" data-name="Trazado 796572" d="M15.141,14.563A13.555,13.555,0,0,1,27.633,1.054C27.276,1.026,26.924,1,26.563,1A13.563,13.563,0,0,0,13,14.563V16.7c.714-.3,1.428-.571,2.141-.821Z" transform="translate(-0.286 -0.286)" fill="#b26049"/>
      <path id="Trazado_796573" data-name="Trazado 796573" d="M28.283,49.5l-2.4.8A1.428,1.428,0,0,1,24,48.951V47.2a1.428,1.428,0,0,1,1.879-1.356l2.4.8Z" transform="translate(-3.434 -13.099)" fill="#f96464"/>
      <path id="Trazado_796574" data-name="Trazado 796574" d="M34,49.5l2.4.8a1.428,1.428,0,0,0,1.879-1.355V47.2A1.428,1.428,0,0,0,36.4,45.846l-2.4.8Z" transform="translate(-6.296 -13.099)" fill="#f96464"/>
      <rect id="Rect치ngulo_373474" data-name="Rect치ngulo 373474" width="2" height="3" transform="translate(25.277 33.842)" fill="#ea5050"/>
      <path id="Trazado_796575" data-name="Trazado 796575" d="M24.714,26a.714.714,0,0,0-.714.714v1.428a.714.714,0,0,0,1.428,0V26.714A.714.714,0,0,0,24.714,26Z" transform="translate(-3.434 -7.441)"/>
      <path id="Trazado_796576" data-name="Trazado 796576" d="M38.714,28.855a.714.714,0,0,0,.714-.714V26.714a.714.714,0,1,0-1.428,0v1.428A.714.714,0,0,0,38.714,28.855Z" transform="translate(-7.441 -7.441)"/>
      <path id="Trazado_796577" data-name="Trazado 796577" d="M34.279,34H25.714a.714.714,0,0,0-.639,1.033l.151.3a5.334,5.334,0,0,0,9.542,0l.151-.3A.714.714,0,0,0,34.279,34ZM30,36.855a3.882,3.882,0,0,1-3.021-1.428h6.042A3.881,3.881,0,0,1,30,36.855Z" transform="translate(-3.72 -9.73)"/>
      <path id="Trazado_796578" data-name="Trazado 796578" d="M26.276,0A14.293,14.293,0,0,0,12,14.276v9.28a6.413,6.413,0,0,0,4.858,6.232.732.732,0,0,0,.174.021A.714.714,0,0,0,17.2,28.4a4.988,4.988,0,0,1-3.777-4.847V22.11a3.528,3.528,0,0,0,1.795.7,11.441,11.441,0,0,0,8.2,8.225v1.289l-.75-.25a2.141,2.141,0,0,0-2.76,1.53A12.1,12.1,0,0,0,12,44.971a.714.714,0,0,0,.714.714H39.839a.714.714,0,0,0,.714-.714A12.1,12.1,0,0,0,32.642,33.6a2.141,2.141,0,0,0-2.76-1.53l-.75.25V31.032a11.441,11.441,0,0,0,8.2-8.225,3.528,3.528,0,0,0,1.795-.7v1.446a5,5,0,0,1-3.733,4.835.714.714,0,0,0,.357,1.381,6.424,6.424,0,0,0,4.8-6.217v-9.28A14.293,14.293,0,0,0,26.276,0Zm0,1.428A12.864,12.864,0,0,1,39.125,14.276v2.16a3.536,3.536,0,0,0-1.428-.66v-.429a.714.714,0,0,0-.489-.677c-.989-.329-1.994-.617-2.994-.857l-.822-3.279a.714.714,0,0,0-.692-.54h0a.714.714,0,0,0-.692.541l-.675,2.713a33.222,33.222,0,0,0-3.416-.35l-.949-3.79a.714.714,0,0,0-1.385,0l-.949,3.787a33.222,33.222,0,0,0-3.416.35l-.675-2.713a.714.714,0,0,0-.692-.538h0a.714.714,0,0,0-.692.54l-.822,3.276c-1,.24-2,.528-2.994.857a.714.714,0,0,0-.489.681v.428a3.536,3.536,0,0,0-1.428.66V14.276A12.864,12.864,0,0,1,26.276,1.428Zm7.138,14.99H29.132a2.141,2.141,0,0,0-2.141,2.141v.27a4,4,0,0,0-1.428,0v-.27a2.141,2.141,0,0,0-2.141-2.141H19.138A2.141,2.141,0,0,0,17,18.559v.094l-.714-.476V15.862c.928-.294,1.869-.55,2.8-.762a.714.714,0,0,0,.534-.523l.236-.93.143.58a.714.714,0,0,0,.817.53,31.75,31.75,0,0,1,4.411-.461.714.714,0,0,0,.669-.54l.385-1.538.385,1.538a.714.714,0,0,0,.669.54,31.751,31.751,0,0,1,4.411.461.714.714,0,0,0,.817-.53l.143-.58.233.928a.714.714,0,0,0,.534.523c.928.214,1.87.468,2.8.762v2.315l-.714.476v-.092A2.141,2.141,0,0,0,33.415,16.418Zm-5,2.855v-.714a.714.714,0,0,1,.714-.714h4.283a.714.714,0,0,1,.714.714v.714a2.855,2.855,0,0,1-5.711,0Zm-4.283,0a2.855,2.855,0,1,1-5.711,0v-.714a.714.714,0,0,1,.714-.714h4.283a.714.714,0,0,1,.714.714Zm-10.707,0a2.141,2.141,0,0,1,1.428-2.01v2.724a11.551,11.551,0,0,0,.083,1.322,2.137,2.137,0,0,1-1.51-2.036Zm8.148,14.251a.7.7,0,0,1,.415-.136.714.714,0,0,1,.228.037l1.916.639V35.89l-1.916.639a.714.714,0,0,1-.939-.677V34.1A.706.706,0,0,1,21.576,33.524ZM39.1,44.257H34.842V40.688a.714.714,0,1,0-1.428,0v3.569H19.138V40.688a.714.714,0,0,0-1.428,0v3.569H13.451a10.678,10.678,0,0,1,6.4-9.1v.692a2.134,2.134,0,0,0,2.819,2.029l2.294-.762h2.623l2.294.764A2.143,2.143,0,0,0,32.7,35.851v-.692A10.678,10.678,0,0,1,39.1,44.257ZM26.99,35.691H25.563V34.263H26.99Zm3.344-2.266a.714.714,0,0,1,.939.677v1.749a.714.714,0,0,1-.939.677l-1.916-.639V34.064ZM27.7,32.8l-.116.039H24.965l-.116-.039V31.309a10.321,10.321,0,0,0,2.855,0ZM26.276,29.98a10,10,0,0,1-9.993-9.993v-.094l.892.595a4.279,4.279,0,0,0,8.245-.143,2.658,2.658,0,0,1,1.713,0,4.279,4.279,0,0,0,8.247.143l.89-.594v.094a10,10,0,0,1-9.993,9.993Zm11.338-8.671a11.55,11.55,0,0,0,.083-1.322V17.263a2.128,2.128,0,0,1-.083,4.046Z" transform="translate(0)"/>
      <ellipse id="Elipse_8247" data-name="Elipse 8247" cx="3" cy="1" rx="3" ry="1" transform="translate(15.277 21.842)" fill="#f2a7b1"/>
      <ellipse id="Elipse_8248" data-name="Elipse 8248" cx="3" cy="1" rx="3" ry="1" transform="translate(31.277 21.842)" fill="#f2a7b1"/>
    </g>
  </g>
</svg>
