<svg xmlns="http://www.w3.org/2000/svg" width="70" height="70" viewBox="0 0 70 70">
  <g id="Grupo_1064018" data-name="Grupo 1064018" transform="translate(-755 -1392)">
    <circle id="Elipse_8234" data-name="Elipse 8234" cx="35" cy="35" r="35" transform="translate(755 1392)" fill="#ffebc5"/>
    <g id="trabajador" transform="translate(762.946 1400.946)">
      <g id="Grupo_1063914" data-name="Grupo 1063914" transform="translate(7.5 7.5)">
        <path id="Trazado_796579" data-name="Trazado 796579" d="M227.018,443.379a6.212,6.212,0,0,0,.1,4.81h3.555a5.667,5.667,0,0,0,.1-4.78Z" transform="translate(-209.344 -409.08)" fill="#eeecff"/>
        <path id="Trazado_796580" data-name="Trazado 796580" d="M231.378,404.685a2.022,2.022,0,0,1-.075,2.638,3.232,3.232,0,0,1-3.555,0,2.33,2.33,0,0,1-.122-2.667A3.387,3.387,0,0,1,231.378,404.685Z" transform="translate(-209.971 -372.894)" fill="#efa889"/>
        <path id="Trazado_796581" data-name="Trazado 796581" d="M280.288,406.076a1.2,1.2,0,0,0-1.7.315v7.22h3.555l2.418-2.963A8.321,8.321,0,0,0,280.288,406.076Z" transform="translate(-257.259 -374.503)" fill="#79da7d"/>
        <path id="Trazado_796582" data-name="Trazado 796582" d="M157.5,411.329a8.321,8.321,0,0,1,4.276-4.572,1.374,1.374,0,0,1,1.7.315v7.22h-3.555Z" transform="translate(-145.7 -375.184)" fill="#79da7d"/>
        <path id="Trazado_796583" data-name="Trazado 796583" d="M224.213,7.53a2.482,2.482,0,0,0-1.854,3.184l15.786,9.708a2.03,2.03,0,0,0,1.59,1.672c.678.191,2.277-.073,2.512-.835A17.781,17.781,0,0,0,224.213,7.53Z" transform="translate(-205.376 -7.515)" fill="#5e566f"/>
        <path id="Trazado_796584" data-name="Trazado 796584" d="M35.924,21.428a2.623,2.623,0,0,0,2.7.035l1.745-.737,10.3-9.843A25.237,25.237,0,0,1,52.525,7.7,17.782,17.782,0,0,0,35.924,21.428Z" transform="translate(-33.687 -7.683)" fill="#464356"/>
        <path id="Trazado_796585" data-name="Trazado 796585" d="M458.028,180.758c-.961.243-1.121,8.05,0,8.287a3.074,3.074,0,0,0,2.937-3.071v-2.146A3.071,3.071,0,0,0,458.028,180.758Z" transform="translate(-421.856 -167.124)" fill="#f7eb49"/>
        <path id="Trazado_796586" data-name="Trazado 796586" d="M445.728,180.992c0-.1,0-.2-.013-.291-.214-.01.1,0-1.833,0l.03.3v8c1.748,0,1.654,0,1.8,0C445.74,188.692,445.723,189.068,445.728,180.992Z" transform="translate(-409.543 -167.067)" fill="#ffcf54"/>
        <path id="Trazado_796587" data-name="Trazado 796587" d="M191.112,134.145c-4.123-5.28-12.14-5.435-17.059-.553a2.119,2.119,0,0,0-.5.786c-2.475,6.87.506,15.083,7.473,17.921.5-.069,1.222-.2,1.7-.315a12.4,12.4,0,0,0,9.113-8.664Z" transform="translate(-159.694 -120.41)" fill="#ffdfcf"/>
        <path id="Trazado_796588" data-name="Trazado 796588" d="M200.793,55.907a1.67,1.67,0,0,0,1.352-1.287,13.952,13.952,0,0,0-15.786-9.248,9.762,9.762,0,0,0-2.541,10.681,11.162,11.162,0,0,0,5.112-2.567C191.9,56.231,196.755,57.016,200.793,55.907Z" transform="translate(-169.375 -42.171)" fill="#ff8b5e"/>
        <path id="Trazado_796589" data-name="Trazado 796589" d="M103.5,170.77a5.977,5.977,0,0,0-6.752-.146l-.724,9.174c1.7,6.176,7.89,9.78,14.366,8.979.08-.01-.08.011,0,0A25.1,25.1,0,0,1,103.5,170.77Z" transform="translate(-89.061 -156.889)" fill="#ffcebf"/>
        <path id="Trazado_796590" data-name="Trazado 796590" d="M88.044,57.415A1.51,1.51,0,0,0,89.4,58.7a14.109,14.109,0,0,0,6.752.146A25.149,25.149,0,0,1,98.69,48.167,13.959,13.959,0,0,0,88.044,57.415Z" transform="translate(-81.706 -44.967)" fill="#f76d4a"/>
        <path id="Trazado_796591" data-name="Trazado 796591" d="M10.437,180.758a3.071,3.071,0,0,0-2.937,3.07v2.146a3.074,3.074,0,0,0,2.937,3.071C11.6,188.8,11.381,181,10.437,180.758Z" transform="translate(-7.5 -167.124)" fill="#f7eb49"/>
        <path id="Trazado_796592" data-name="Trazado 796592" d="M47.246,188.989v-8l.03-.3c-2.77,0-2.4-.005-2.624,0-.025.291-.008-.082-.013,7.995,0,.1.005.2.014.293C44.8,188.992,44.668,188.988,47.246,188.989Z" transform="translate(-41.715 -167.065)" fill="#ffcf54"/>
        <path id="Trazado_796593" data-name="Trazado 796593" d="M409.557,167.115v7.7a1.481,1.481,0,1,1-2.963,0c0-8.137-.011-7.723.013-7.893a1.481,1.481,0,0,1,2.95.19Z" transform="translate(-375.189 -153.19)" fill="#ffb623"/>
        <path id="Trazado_796594" data-name="Trazado 796594" d="M70.7,174.818a1.481,1.481,0,0,1-2.963,0v-7.7a1.481,1.481,0,0,1,2.95-.19C70.715,167.091,70.7,166.666,70.7,174.818Z" transform="translate(-63.002 -153.19)" fill="#ffb623"/>
        <path id="Trazado_796595" data-name="Trazado 796595" d="M153.539,469.267v.545h-2.963a8.268,8.268,0,0,1,.545-2.963A2.418,2.418,0,0,1,153.539,469.267Z" transform="translate(-139.317 -430.703)" fill="#3fcb52"/>
        <path id="Trazado_796596" data-name="Trazado 796596" d="M326.736,469.811h-2.963v-.545a2.418,2.418,0,0,1,2.418-2.418A8.271,8.271,0,0,1,326.736,469.811Z" transform="translate(-298.886 -430.702)" fill="#3fcb52"/>
        <path id="Trazado_796597" data-name="Trazado 796597" d="M308.723,237.054a1.895,1.895,0,1,1-2.32,1.846A2.123,2.123,0,0,1,308.723,237.054Z" transform="translate(-282.883 -218.991)" fill="#ffa1ac"/>
        <path id="Trazado_796598" data-name="Trazado 796598" d="M148.968,237.054a1.895,1.895,0,1,1-2.319,1.846A2.124,2.124,0,0,1,148.968,237.054Z" transform="translate(-135.699 -218.991)" fill="#ffa1ac"/>
        <path id="Trazado_796599" data-name="Trazado 796599" d="M160.76,305.558a13.242,13.242,0,0,0,4.019,1.746,14.43,14.43,0,0,0,6.95,0,12.4,12.4,0,0,0,9.113-8.664" transform="translate(-148.7 -275.73)" fill="none" stroke="#000" stroke-linecap="round" stroke-linejoin="round" stroke-miterlimit="10" stroke-width="1.8"/>
        <path id="Trazado_796600" data-name="Trazado 796600" d="M99,303.812a11.943,11.943,0,0,1-2.969-5.172" transform="translate(-89.064 -275.73)" fill="none" stroke="#000" stroke-linecap="round" stroke-linejoin="round" stroke-miterlimit="10" stroke-width="1.8"/>
        <path id="Trazado_796601" data-name="Trazado 796601" d="M157.094,416.28h-6.518a8.3,8.3,0,0,1,4.821-7.535" transform="translate(-139.317 -377.171)" fill="none" stroke="#000" stroke-linecap="round" stroke-linejoin="round" stroke-miterlimit="10" stroke-width="1.8"/>
        <path id="Trazado_796602" data-name="Trazado 796602" d="M280.288,408.745a8.3,8.3,0,0,1,4.821,7.535h-6.518" transform="translate(-257.259 -377.171)" fill="none" stroke="#000" stroke-linecap="round" stroke-linejoin="round" stroke-miterlimit="10" stroke-width="1.8"/>
        <path id="Trazado_796603" data-name="Trazado 796603" d="M105.233,153.7c4.053,1.113,8.9.315,11.864-2.422,2.973,2.746,7.826,3.531,11.864,2.422" transform="translate(-97.542 -139.964)" fill="none" stroke="#000" stroke-linecap="round" stroke-linejoin="round" stroke-miterlimit="10" stroke-width="1.8"/>
        <path id="Trazado_796604" data-name="Trazado 796604" d="M12.24,180.993v-.3H10.575A3.075,3.075,0,0,0,7.5,183.772v2.146a3.074,3.074,0,0,0,3.075,3.075H12.24v-.3" transform="translate(-7.5 -167.068)" fill="none" stroke="#000" stroke-linecap="round" stroke-linejoin="round" stroke-miterlimit="10" stroke-width="1.8"/>
        <path id="Trazado_796605" data-name="Trazado 796605" d="M67.742,174.821a1.481,1.481,0,0,0,2.963,0c0-8.137.011-7.723-.013-7.893a1.481,1.481,0,0,0-2.95.19Z" transform="translate(-63.002 -153.192)" fill="none" stroke="#000" stroke-linecap="round" stroke-linejoin="round" stroke-miterlimit="10" stroke-width="1.8"/>
        <path id="Trazado_796606" data-name="Trazado 796606" d="M444.258,180.993v-.3h1.665A3.075,3.075,0,0,1,449,183.772v2.146a3.074,3.074,0,0,1-3.075,3.075h-1.665v-.3" transform="translate(-409.89 -167.068)" fill="none" stroke="#000" stroke-linecap="round" stroke-linejoin="round" stroke-miterlimit="10" stroke-width="1.8"/>
        <path id="Trazado_796607" data-name="Trazado 796607" d="M409.569,174.821a1.481,1.481,0,0,1-2.963,0v-7.7a1.481,1.481,0,0,1,2.963,0Z" transform="translate(-375.201 -153.192)" fill="none" stroke="#000" stroke-linecap="round" stroke-linejoin="round" stroke-miterlimit="10" stroke-width="1.8"/>
        <path id="Trazado_796608" data-name="Trazado 796608" d="M35.924,21.245a17.782,17.782,0,0,1,34.635,0" transform="translate(-33.687 -7.5)" fill="none" stroke="#000" stroke-linecap="round" stroke-linejoin="round" stroke-miterlimit="10" stroke-width="1.8"/>
        <path id="Trazado_796609" data-name="Trazado 796609" d="M372.624,91.562a13.967,13.967,0,0,0-4.384-6.332" transform="translate(-339.854 -79.113)" fill="none" stroke="#000" stroke-linecap="round" stroke-linejoin="round" stroke-miterlimit="10" stroke-width="1.8"/>
        <path id="Trazado_796610" data-name="Trazado 796610" d="M88.04,54.636a13.953,13.953,0,0,1,19.76-7.858" transform="translate(-81.702 -42.187)" fill="none" stroke="#000" stroke-linecap="round" stroke-linejoin="round" stroke-miterlimit="10" stroke-width="1.8"/>
        <line id="Línea_1595" data-name="Línea 1595" y2="0.948" transform="translate(14.62 17.184)" fill="none" stroke="#000" stroke-linecap="round" stroke-linejoin="round" stroke-miterlimit="10" stroke-width="1.8"/>
        <line id="Línea_1596" data-name="Línea 1596" y2="0.948" transform="translate(24.488 17.184)" fill="none" stroke="#000" stroke-linecap="round" stroke-linejoin="round" stroke-miterlimit="10" stroke-width="1.8"/>
        <path id="Trazado_796611" data-name="Trazado 796611" d="M239.473,237.566a1.723,1.723,0,0,0,2.6,0" transform="translate(-221.219 -219.462)" fill="none" stroke="#000" stroke-linecap="round" stroke-linejoin="round" stroke-miterlimit="10" stroke-width="1.8"/>
        <path id="Trazado_796612" data-name="Trazado 796612" d="M236.964,412.751v7.22h-3.555v-7.22" transform="translate(-215.632 -380.862)" fill="none" stroke="#000" stroke-linecap="round" stroke-linejoin="round" stroke-miterlimit="10" stroke-width="1.8"/>
        <path id="Trazado_796613" data-name="Trazado 796613" d="M157.5,466.849a2.418,2.418,0,0,1,2.418,2.418v.545" transform="translate(-145.7 -430.703)" fill="none" stroke="#000" stroke-linecap="round" stroke-linejoin="round" stroke-miterlimit="10" stroke-width="1.8"/>
        <path id="Trazado_796614" data-name="Trazado 796614" d="M323.773,469.811v-.545a2.418,2.418,0,0,1,2.418-2.418" transform="translate(-298.886 -430.702)" fill="none" stroke="#000" stroke-linecap="round" stroke-linejoin="round" stroke-miterlimit="10" stroke-width="1.8"/>
        <path id="Trazado_796615" data-name="Trazado 796615" d="M233.409,445.021a3.232,3.232,0,0,0,3.555,0" transform="translate(-215.632 -410.593)" fill="none" stroke="#000" stroke-linecap="round" stroke-linejoin="round" stroke-miterlimit="10" stroke-width="1.8"/>
      </g>
    </g>
  </g>
</svg>
