<svg xmlns="http://www.w3.org/2000/svg" width="70" height="70" viewBox="0 0 70 70">
  <g id="Grupo_1064019" data-name="Grupo 1064019" transform="translate(-755 -1392)">
    <circle id="Elipse_8234" data-name="Elipse 8234" cx="35" cy="35" r="35" transform="translate(755 1392)" fill="#ffebc5"/>
    <g id="padres" transform="translate(766.614 1407.11)">
      <path id="Trazado_796616" data-name="Trazado 796616" d="M36.691,27.688a4.917,4.917,0,0,1-.9,2.844h0a4.936,4.936,0,0,1-7.959.149H16.452a4.936,4.936,0,1,1-4.487-7.9v-5.01a10.176,10.176,0,0,1,20.353,0v5.01a4.936,4.936,0,0,1,4.373,4.9Zm0,0" transform="translate(-6.9 -6.904)" fill="#aa6952"/>
      <path id="Trazado_796617" data-name="Trazado 796617" d="M217.369,185.524a4.936,4.936,0,0,1-7.959.149h-1.981v-1.805l3.227-5.7C210.656,180.981,212.387,185.523,217.369,185.524Zm0,0" transform="translate(-188.48 -161.896)" fill="#89412b"/>
      <path id="Trazado_796618" data-name="Trazado 796618" d="M22.063,7.605c-1.674.035-3.186,1.167-4.286,2.98a14.1,14.1,0,0,0-1.809,7.2v5.01c-1.493.28-2.652,2.367-2.652,4.9a5.94,5.94,0,0,0,1.566,4.34,4.936,4.936,0,1,1-2.916-9.243v-5.01a10.175,10.175,0,0,1,10.1-10.176Zm0,0" transform="translate(-6.901 -6.911)" fill="#89412b"/>
      <path id="Trazado_796619" data-name="Trazado 796619" d="M92.243,262.218v7.554H75.566v-7.554a8.339,8.339,0,1,1,16.677,0Zm0,0" transform="translate(-68.663 -230.686)" fill="#31ad7a"/>
      <path id="Trazado_796620" data-name="Trazado 796620" d="M129.931,264.365v7.554H117.043v-7.554a8.343,8.343,0,0,1,6.444-8.123,8.344,8.344,0,0,1,6.444,8.123Zm0,0" transform="translate(-106.351 -232.833)" fill="#4ccc9b"/>
      <path id="Trazado_796621" data-name="Trazado 796621" d="M133.607,275.637c.372,2.99-1.016,5.177-3.648,6.847-2.631-1.67-4.02-3.856-3.649-6.846" transform="translate(-114.718 -250.456)" fill="#e8b182"/>
      <path id="Trazado_796622" data-name="Trazado 796622" d="M92.244,93.729v1.56a8.335,8.335,0,0,1-8.111,8.336h-.011c-.079,0-.159,0-.24,0a8.337,8.337,0,0,1-8.316-8.338v-1.56c0-4.575,8.339-5.21,8.339-8.318C83.906,88.518,92.244,89.154,92.244,93.729Zm0,0" transform="translate(-68.663 -77.608)" fill="#ffd0a6"/>
      <path id="Trazado_796623" data-name="Trazado 796623" d="M85.341,146.706a8.4,8.4,0,0,1-1.207.121h-.011c-.08,0-.159,0-.24,0a8.336,8.336,0,0,1-8.316-8.338v-1.56c0-1.809,1.3-3,2.879-3.975v5.535a8.34,8.34,0,0,0,6.895,8.214Zm0,0" transform="translate(-68.664 -120.811)" fill="#e8b182"/>
      <path id="Trazado_796624" data-name="Trazado 796624" d="M280.082,267.119v8.856H258.121v-8.856a6.522,6.522,0,0,1,5.333-6.412h11.294A6.521,6.521,0,0,1,280.082,267.119Zm0,0" transform="translate(-234.541 -236.89)" fill="#ccc"/>
      <path id="Trazado_796625" data-name="Trazado 796625" d="M310.086,267.119v8.856H291.141v-8.856a6.522,6.522,0,0,1,5.332-6.412h8.278A6.521,6.521,0,0,1,310.086,267.119Zm0,0" transform="translate(-264.544 -236.89)" fill="#e6e6e6"/>
      <path id="Trazado_796626" data-name="Trazado 796626" d="M266.5,21.374C264.54,10.042,271.739,7.6,276.416,7.6s11.876,2.446,9.914,13.777" transform="translate(-241.855 -6.903)" fill="#2e5968"/>
      <path id="Trazado_796627" data-name="Trazado 796627" d="M271.04,21.381H266.5c-1.954-11.29,5.185-13.759,9.862-13.776C273.826,7.639,269.985,10.128,271.04,21.381Zm0,0" transform="translate(-241.853 -6.91)" fill="#1a414c"/>
      <path id="Trazado_796628" data-name="Trazado 796628" d="M275.262,158.474a2.731,2.731,0,0,1-2.51,2.723c-.073.006-.148.009-.223.009a2.711,2.711,0,0,1-.558-.057H255.513a2.711,2.711,0,0,1-.558.057h0a2.732,2.732,0,0,1-.255-5.452,2.548,2.548,0,0,1,.257-.012,2.791,2.791,0,0,1,.339.02h16.9a2.79,2.79,0,0,1,.339-.02,2.731,2.731,0,0,1,2.732,2.732Zm0,0" transform="translate(-229.182 -141.515)" fill="#ffd0a6"/>
      <path id="Trazado_796629" data-name="Trazado 796629" d="M296.435,155.783v3.461a7.639,7.639,0,0,1-.253,1.952c-.074.006-.148.01-.223.01a2.71,2.71,0,0,1-.558-.057H278.944a2.71,2.71,0,0,1-.558.057h0a7.666,7.666,0,0,1-.254-1.962v-3.49a2.44,2.44,0,0,1,.257-.012,2.782,2.782,0,0,1,.338.02h16.9a2.783,2.783,0,0,1,.339-.02A2.74,2.74,0,0,1,296.435,155.783Zm0,0" transform="translate(-252.721 -141.514)" fill="#e8b182"/>
      <path id="Trazado_796630" data-name="Trazado 796630" d="M343.873,275.785l-.48,4.045-3.37-3.223-3.371,3.223-.48-4.045" transform="translate(-305.462 -250.591)" fill="#fff"/>
      <path id="Trazado_796631" data-name="Trazado 796631" d="M303.717,108.219v3.433a8.335,8.335,0,0,1-8.11,8.336H295.6c-.08,0-.159,0-.24,0a8.337,8.337,0,0,1-8.316-8.338v-3.433l2.238-4.8a16.267,16.267,0,0,0,12.2,0Zm0,0" transform="translate(-260.817 -93.971)" fill="#ffd0a6"/>
      <path id="Trazado_796632" data-name="Trazado 796632" d="M296.813,119.866a8.4,8.4,0,0,1-1.207.121h-.011c-.08,0-.159,0-.24,0a8.336,8.336,0,0,1-8.316-8.338v-3.433l2.238-4.8c.275.112.554.216.834.312a8.333,8.333,0,0,0-.192,1.787v6.135a8.34,8.34,0,0,0,6.895,8.214Zm0,0" transform="translate(-260.817 -93.97)" fill="#e8b182"/>
      <path id="Trazado_796633" data-name="Trazado 796633" d="M380.408,197.484H378.32a3.131,3.131,0,0,0,3.131,3.131h2.087A3.131,3.131,0,0,0,380.408,197.484Zm0,0" transform="translate(-343.759 -179.443)" fill="#2e5968"/>
      <path id="Trazado_796634" data-name="Trazado 796634" d="M324.331,197.484h2.087a3.131,3.131,0,0,1-3.131,3.131H321.2A3.131,3.131,0,0,1,324.331,197.484Zm0,0" transform="translate(-291.857 -179.443)" fill="#2e5968"/>
      <path id="Trazado_796635" data-name="Trazado 796635" d="M136.259,212.536a2.972,2.972,0,0,1-4.2,0,.694.694,0,0,0-.982.982,4.36,4.36,0,0,0,6.166,0,.694.694,0,0,0-.982-.982Zm0,0" transform="translate(-118.916 -192.935)"/>
      <path id="Trazado_796636" data-name="Trazado 796636" d="M120.873,153.123v-2.05a.694.694,0,0,0-1.389,0v2.05a.694.694,0,0,0,1.389,0Zm0,0" transform="translate(-108.57 -136.641)"/>
      <path id="Trazado_796637" data-name="Trazado 796637" d="M199.709,150.379a.694.694,0,0,0-.694.694v2.05a.694.694,0,0,0,1.389,0v-2.05A.694.694,0,0,0,199.709,150.379Zm0,0" transform="translate(-180.835 -136.641)"/>
      <path id="Trazado_796638" data-name="Trazado 796638" d="M68.667,395.844a.694.694,0,0,0-.694.694v2.23a.694.694,0,1,0,1.388,0v-2.23A.694.694,0,0,0,68.667,395.844Zm0,0" transform="translate(-61.763 -359.682)"/>
      <path id="Trazado_796639" data-name="Trazado 796639" d="M110.139,352.992a.694.694,0,0,0-.694.694v6.144a.694.694,0,1,0,1.388,0v-6.144A.694.694,0,0,0,110.139,352.992Zm0,0" transform="translate(-99.447 -320.745)"/>
      <path id="Trazado_796640" data-name="Trazado 796640" d="M209.744,352.992a.694.694,0,0,0-.694.694v6.144a.694.694,0,0,0,1.388,0v-6.144A.694.694,0,0,0,209.744,352.992Zm0,0" transform="translate(-189.953 -320.745)"/>
      <path id="Trazado_796641" data-name="Trazado 796641" d="M331.651,153.817a.694.694,0,0,0,.694-.694v-2.05a.694.694,0,1,0-1.388,0v2.05A.694.694,0,0,0,331.651,153.817Zm0,0" transform="translate(-300.723 -136.641)"/>
      <path id="Trazado_796642" data-name="Trazado 796642" d="M411.182,153.817a.694.694,0,0,0,.694-.694v-2.05a.694.694,0,0,0-1.388,0v2.05A.694.694,0,0,0,411.182,153.817Zm0,0" transform="translate(-372.989 -136.641)"/>
      <path id="Trazado_796643" data-name="Trazado 796643" d="M316.383,194.4a3.823,3.823,0,0,0,3.131-1.632,3.823,3.823,0,0,0,3.131,1.632h2.087a.694.694,0,0,0,.694-.694,3.829,3.829,0,0,0-3.825-3.825h-4.174a3.829,3.829,0,0,0-3.825,3.825.694.694,0,0,0,.694.694Zm5.218-3.131a2.441,2.441,0,0,1,2.336,1.743h-1.292a2.442,2.442,0,0,1-2.336-1.743Zm-4.174,0h1.293a2.442,2.442,0,0,1-2.336,1.743H315.09A2.442,2.442,0,0,1,317.427,191.271Zm0,0" transform="translate(-284.953 -172.536)"/>
      <path id="Trazado_796644" data-name="Trazado 796644" d="M41.505,23.454a9.055,9.055,0,0,0,1.675-3.074c.055,0,.11.006.166.006A3.425,3.425,0,0,0,45.238,14.1c.548-3.562.233-6.534-.941-8.84a.694.694,0,1,0-1.237.629,12.941,12.941,0,0,1,.851,7.686,3.428,3.428,0,0,0-.565-.047h-.014L41.292,9.155A.694.694,0,0,0,40.4,8.8a15.5,15.5,0,0,1-11.682,0,.7.7,0,0,0-.89.35l-2.041,4.379h-.013a3.411,3.411,0,0,0-.567.048c-.558-3.973.05-7.045,1.812-9.139.773-.918,3.055-3.054,7.54-3.054a10.227,10.227,0,0,1,6.985,2.464.694.694,0,0,0,.958-1A11.6,11.6,0,0,0,34.562,0c-1.689,0-5.907.346-8.6,3.548A9.057,9.057,0,0,0,24.7,5.512,10.872,10.872,0,0,0,4.372,10.87v4.425a5.631,5.631,0,1,0,3.942,10.44,9.024,9.024,0,0,0-2.1,5.8v2.551a.694.694,0,1,0,1.388,0V31.532a7.642,7.642,0,0,1,3.025-6.091c.078.047.157.092.236.136-.19,2.859,1.156,5.225,4.011,7.037a.7.7,0,0,0,.744,0c2.853-1.81,4.2-4.174,4.011-7.03.081-.045.16-.092.24-.139a7.773,7.773,0,0,1,.783.682,7.6,7.6,0,0,1,2.239,5.406v7.554a.694.694,0,1,0,1.388,0V30.229a5.822,5.822,0,0,1,4.449-5.661,9.093,9.093,0,0,0,1.325.936l.453,3.817a.694.694,0,0,0,1.169.42l2.2-2.1V39.086a.694.694,0,0,0,1.389,0V27.641l2.2,2.1a.694.694,0,0,0,1.169-.42l.453-3.815a9.015,9.015,0,0,0,1.329-.936,5.82,5.82,0,0,1,4.445,5.66v8.856a.694.694,0,0,0,1.389,0V30.229a7.211,7.211,0,0,0-4.73-6.775ZM43.5,18.992a9.05,9.05,0,0,0,.1-1.311V17.1a.4.4,0,0,1,.219.214.694.694,0,0,0,1.273-.553,1.776,1.776,0,0,0-1.493-1.079v-.748a2.037,2.037,0,0,1-.1,4.054ZM26.916,14.4l1.9-4.075a16.86,16.86,0,0,0,11.491,0l1.9,4.075v1.815a.693.693,0,0,0,0,.393l0,.013v1.057a7.642,7.642,0,0,1-7.426,7.642h-.022c-.072,0-.145,0-.218,0a7.653,7.653,0,0,1-7.623-7.645ZM16.693,25.187a7.727,7.727,0,0,1-1.233.135h-.017l-.222,0A7.653,7.653,0,0,1,7.6,17.681V16.121c0-2.09,2.237-3.272,4.4-4.415a11.525,11.525,0,0,0,3.244-2.17,11.531,11.531,0,0,0,3.244,2.17c1.871.989,3.8,2.01,4.283,3.611a3.419,3.419,0,0,0,.05,3.37,7.682,7.682,0,0,1-6.126,6.5Zm7.045-8.228a2.04,2.04,0,0,1,1.79-2.022v.752a1.781,1.781,0,0,0-1.492,1.076.694.694,0,1,0,1.273.554.4.4,0,0,1,.219-.216v.578a9.079,9.079,0,0,0,.1,1.311,2.041,2.041,0,0,1-1.886-2.033Zm.305-9.62a16.765,16.765,0,0,0-.16,6.766l-.091.063c-.894-1.7-2.874-2.746-4.657-3.689-1.645-.869-3.2-1.69-3.2-2.676,0,0,0-.006,0-.009V1.415a9.532,9.532,0,0,1,8.107,5.924ZM1.388,20.783A4.237,4.237,0,0,1,5.145,16.57a.694.694,0,0,0,.616-.69V10.87a9.482,9.482,0,0,1,8.788-9.457V7.8h0c0,.986-1.554,1.807-3.2,2.676-2.29,1.21-5.14,2.716-5.14,5.643v1.559a9,9,0,0,0,2.4,6.121A4.2,4.2,0,0,1,5.63,25.026a4.247,4.247,0,0,1-4.242-4.243Zm14.548,9.892V29.285a.694.694,0,0,0-1.389,0v1.391a5.653,5.653,0,0,1-2.32-4.48,8.973,8.973,0,0,0,2.992.518l.248,0h.022a9.059,9.059,0,0,0,2.766-.512,5.65,5.65,0,0,1-2.32,4.478Zm6.234-4.94a5.572,5.572,0,0,0,1.846.615A7.216,7.216,0,0,0,23.38,27.6a9.011,9.011,0,0,0-1.211-1.869Zm2.94-.717c-.084,0-.17.008-.255.008a4.205,4.205,0,0,1-2.975-1.22l.016-.017A8.947,8.947,0,0,0,24,19.89a3.4,3.4,0,0,0,1.774.5c.055,0,.11,0,.165,0a9.034,9.034,0,0,0,1.678,3.071,7.179,7.179,0,0,0-2.51,1.565Zm6.418,1.172a8.9,8.9,0,0,0,1.445.384l-1.257,1.2Zm5.878,1.587-1.259-1.2.129-.022a9.01,9.01,0,0,0,1.319-.361Zm0,0"/>
      <path id="Trazado_796645" data-name="Trazado 796645" d="M389.335,321.246a.694.694,0,1,0-.286.861A.7.7,0,0,0,389.335,321.246Zm0,0" transform="translate(-352.556 -291.519)"/>
      <path id="Trazado_796646" data-name="Trazado 796646" d="M445.713,342.484a.694.694,0,0,0-.694.694v7.1a.694.694,0,0,0,1.388,0v-7.1A.694.694,0,0,0,445.713,342.484Zm0,0" transform="translate(-404.365 -311.197)"/>
      <path id="Trazado_796647" data-name="Trazado 796647" d="M297.116,342.484a.694.694,0,0,0-.694.694v7.1a.694.694,0,0,0,1.388,0v-7.1A.694.694,0,0,0,297.116,342.484Zm0,0" transform="translate(-269.343 -311.197)"/>
    </g>
  </g>
</svg>
