<svg xmlns="http://www.w3.org/2000/svg" xmlns:xlink="http://www.w3.org/1999/xlink" width="70" height="70" viewBox="0 0 70 70">
  <defs>
    <clipPath id="clip-path">
      <path id="path33" d="M0-682.665H44.836v44.836H0Z" transform="translate(0 682.665)"/>
    </clipPath>
  </defs>
  <g id="Grupo_1064021" data-name="Grupo 1064021" transform="translate(-755 -1392)">
    <circle id="Elipse_8234" data-name="Elipse 8234" cx="35" cy="35" r="35" transform="translate(755 1392)" fill="#ffebc5"/>
    <g id="g15" transform="translate(767.582 2087.247)">
      <g id="g17" transform="translate(7.627 -656.139)">
        <path id="path19" d="M-67.789-96.171l-4.765-5.1,1.778-1.662,4.765,5.1Z" transform="translate(72.554 102.932)" fill="#fed2a4"/>
      </g>
      <g id="g21" transform="translate(30.666 -656.139)">
        <path id="path23" d="M-25.3-96.171l4.765-5.1-1.778-1.662-4.765,5.1Z" transform="translate(27.073 102.932)" fill="#fed2a4"/>
      </g>
      <path id="path25" d="M306.551-253.769H301.3v-4h5.254Z" transform="translate(-281.508 -396.99)" fill="#fed2a4"/>
      <path id="path27" d="M341.3-253.769h2.627v-4H341.3Z" transform="translate(-318.881 -396.99)" fill="#ffbd86"/>
      <g id="g29" transform="translate(0 -682.665)">
        <g id="g31" clip-path="url(#clip-path)">
          <g id="g37" transform="translate(10.333 15.457)">
            <path id="path39" d="M-69.192-48.794c0,1.894-1.163,3.43-2.6,3.43s-2.267-1.763-2.267-3.658.833-3.2,2.267-3.2,2.6,1.536,2.6,3.43" transform="translate(74.056 52.224)" fill="#ffbd86"/>
          </g>
          <g id="g41" transform="translate(29.639 15.457)">
            <path id="path43" d="M0-48.794c0,1.894,1.163,3.43,2.6,3.43s2.267-1.763,2.267-3.658-.833-3.2-2.267-3.2S0-50.688,0-48.794" transform="translate(0 52.224)" fill="#ffbd86"/>
          </g>
          <g id="g45" transform="translate(14.067 6.808)">
            <path id="path47" d="M0-199.644v-5.683a8.351,8.351,0,0,1,8.351-8.351,8.351,8.351,0,0,1,8.351,8.351v5.651a8.367,8.367,0,0,1-8.367,8.367A8.336,8.336,0,0,1,0-199.644" transform="translate(0 213.678)" fill="#fed2a4"/>
          </g>
          <g id="g49" transform="translate(21.09 6.808)">
            <path id="path51" d="M-18.892,0h0a8.413,8.413,0,0,0-1.314.1,8.353,8.353,0,0,1,7.038,8.248V14a8.369,8.369,0,0,1-7.052,8.264,8.386,8.386,0,0,0,1.312.1h0A8.367,8.367,0,0,0-10.541,14V8.351A8.351,8.351,0,0,0-18.892,0" transform="translate(20.22)" fill="#ffbd86"/>
          </g>
          <g id="g53" transform="translate(10.875 0.657)">
            <path id="path55" d="M-315.561-140.883a.155.155,0,0,1,.036-.236,1.864,1.864,0,0,0,.868-1.576,1.868,1.868,0,0,0-1.868-1.868h0a.153.153,0,0,1-.145-.211,2.1,2.1,0,0,0,.161-.765,2.129,2.129,0,0,0-2.112-2.158,2.1,2.1,0,0,0-.888.2.153.153,0,0,1-.217-.148q0-.056,0-.112a2.326,2.326,0,0,0-2.326-2.326,2.321,2.321,0,0,0-1.759.8.152.152,0,0,1-.257-.045,2.286,2.286,0,0,0-2.13-1.457,2.286,2.286,0,0,0-2.13,1.457.152.152,0,0,1-.257.045,2.321,2.321,0,0,0-1.759-.8,2.326,2.326,0,0,0-2.326,2.326c0,.038,0,.075,0,.112a.153.153,0,0,1-.218.148,2.1,2.1,0,0,0-.888-.2,2.129,2.129,0,0,0-2.112,2.158,2.1,2.1,0,0,0,.161.765.153.153,0,0,1-.145.211h0a1.868,1.868,0,0,0-1.868,1.868,1.864,1.864,0,0,0,.868,1.576.155.155,0,0,1,.036.236,1.859,1.859,0,0,0-.512,1.283,1.865,1.865,0,0,0,1.014,1.66,1.065,1.065,0,0,1,.585.833,10.18,10.18,0,0,0,1.2,4.337,2.423,2.423,0,0,0,2.188-2.425c-.014-2.2-.135-5.353,6.163-5.353s6.177,3.157,6.164,5.353a2.422,2.422,0,0,0,2.188,2.425,10.184,10.184,0,0,0,1.2-4.337,1.065,1.065,0,0,1,.585-.833,1.865,1.865,0,0,0,1.014-1.66,1.859,1.859,0,0,0-.512-1.283" transform="translate(337.743 150.786)" fill="#9b5e5e"/>
          </g>
          <g id="g57" transform="translate(25.251 1.355)">
            <path id="path59" d="M-111.557-127.588a1.876,1.876,0,0,0,.77-2.191,1.837,1.837,0,0,0-1.758-1.253h-.011a.155.155,0,0,1-.146-.214,2.1,2.1,0,0,0,.16-.776,2.129,2.129,0,0,0-2.113-2.144,2.1,2.1,0,0,0-.887.2.153.153,0,0,1-.218-.147,2.248,2.248,0,0,0-.043-.564,2.322,2.322,0,0,0-2.3-1.874,2.314,2.314,0,0,0-1.293.406,1.828,1.828,0,0,1,1.031,1.3.862.862,0,0,0,.88.693c.078,0,.148,0,.2,0a2.129,2.129,0,0,1,2.113,2.158,2.1,2.1,0,0,1-.175.8.127.127,0,0,0,.114.179h0a1.9,1.9,0,0,1,1.909,1.773,1.864,1.864,0,0,1-.866,1.671.155.155,0,0,0-.036.236,1.859,1.859,0,0,1,.512,1.283,1.865,1.865,0,0,1-1.014,1.66,1.072,1.072,0,0,0-.586.842,14.109,14.109,0,0,1-.58,2.9,2.584,2.584,0,0,0,2.008,1.429,10.183,10.183,0,0,0,1.2-4.337,1.065,1.065,0,0,1,.585-.833,1.865,1.865,0,0,0,1.014-1.66,1.859,1.859,0,0,0-.512-1.283.155.155,0,0,1,.036-.236" transform="translate(119.398 136.557)" fill="#855151"/>
          </g>
          <g id="g61" transform="translate(4.203 22.734)">
            <path id="path63" d="M-42.834-79.026H-44.3a1.547,1.547,0,0,1-1.543-1.543v-2.47A1.547,1.547,0,0,1-44.3-84.581h1.468a1.547,1.547,0,0,1,1.543,1.543v2.47a1.547,1.547,0,0,1-1.543,1.543" transform="translate(45.845 84.581)" fill="#fed2a4"/>
          </g>
          <g id="g65" transform="translate(36.079 22.734)">
            <path id="path67" d="M-21.945-79.026h1.468a1.547,1.547,0,0,0,1.543-1.543v-2.47a1.547,1.547,0,0,0-1.543-1.543h-1.468a1.547,1.547,0,0,0-1.543,1.543v2.47a1.547,1.547,0,0,0,1.543,1.543" transform="translate(23.488 84.581)" fill="#fed2a4"/>
          </g>
          <g id="g69" transform="translate(6.426 25.254)">
            <path id="path71" d="M-5.407-48.535h0a1.307,1.307,0,0,1,0-1.843l1.189-1.189a1.307,1.307,0,0,1,1.843,0,1.307,1.307,0,0,1,0,1.843l-1.189,1.189a1.307,1.307,0,0,1-1.843,0" transform="translate(5.787 51.947)" fill="#ffbd86"/>
          </g>
          <g id="g73" transform="translate(34.618 25.254)">
            <path id="path75" d="M-48.534-48.535h0a1.307,1.307,0,0,0,0-1.843l-1.189-1.189a1.307,1.307,0,0,0-1.843,0,1.307,1.307,0,0,0,0,1.843l1.189,1.189a1.307,1.307,0,0,0,1.843,0" transform="translate(51.946 51.947)" fill="#ffbd86"/>
          </g>
          <g id="g77" transform="translate(10.764 30.38)">
            <path id="path79" d="M-331.572-40.437l-2.845,3.624a2.431,2.431,0,0,0-.519,1.5v5.832h-16.58v-5.832a2.431,2.431,0,0,0-.519-1.5l-2.845-3.624,3.287-2.843,3.514,3.272,4.852.007,4.953-.106,3.414-3.173Z" transform="translate(354.879 43.28)" fill="#8379c1"/>
          </g>
          <g id="g81" transform="translate(28.081 32.049)">
            <path id="path83" d="M-65.919,0l-4.115,4.8a2.43,2.43,0,0,0-.519,1.5V12.13h2.627V6.3a2.43,2.43,0,0,1,.519-1.5l2.845-3.624Z" transform="translate(70.553)" fill="#6e61b6"/>
          </g>
          <g id="g85" transform="translate(17.339 31.296)">
            <path id="path87" d="M-133-4.835a.739.739,0,0,0-.781-.326,19.063,19.063,0,0,1-3.489.31,19.062,19.062,0,0,1-3.489-.31.739.739,0,0,0-.781.326l-.739,1.315a.588.588,0,0,0,.482.845,25.488,25.488,0,0,0,4.527.451,25.489,25.489,0,0,0,4.527-.451.588.588,0,0,0,.482-.845Z" transform="translate(142.352 5.175)" fill="#eae7ea"/>
          </g>
          <g id="g89" transform="translate(19.788 28.759)">
            <path id="path91" d="M0-38.27v-2.69" transform="translate(0 40.96)" fill="none" stroke="#000" stroke-linecap="round" stroke-linejoin="round" stroke-miterlimit="10" stroke-width="1.8"/>
          </g>
          <g id="g93" transform="translate(25.042 28.752)">
            <path id="path95" d="M0-38.382v-2.7" transform="translate(0 41.08)" fill="none" stroke="#000" stroke-linecap="round" stroke-linejoin="round" stroke-miterlimit="10" stroke-width="1.8"/>
          </g>
          <g id="g97" transform="translate(10.333 15.457)">
            <path id="path99" d="M-38.295-.648a2.016,2.016,0,0,0-.425-.046c-1.434,0-2.267,1.308-2.267,3.2s.833,3.658,2.267,3.658a2.2,2.2,0,0,0,1.508-.637" transform="translate(40.987 0.693)" fill="none" stroke="#000" stroke-linecap="round" stroke-linejoin="round" stroke-miterlimit="10" stroke-width="1.8"/>
          </g>
          <g id="g101" transform="translate(30.725 15.457)">
            <path id="path103" d="M-15.447-.648a2.016,2.016,0,0,1,.425-.046c1.434,0,2.267,1.308,2.267,3.2s-.833,3.658-2.267,3.658a2.2,2.2,0,0,1-1.511-.639" transform="translate(16.533 0.693)" fill="none" stroke="#000" stroke-linecap="round" stroke-linejoin="round" stroke-miterlimit="10" stroke-width="1.8"/>
          </g>
          <g id="g105" transform="translate(14.066 18.672)">
            <path id="path107" d="M-237.616-.012V2.125a8.367,8.367,0,0,1-8.367,8.367,8.31,8.31,0,0,1-5.894-2.441,8.31,8.31,0,0,1-2.441-5.894V-.013" transform="translate(254.319 0.013)" fill="none" stroke="#000" stroke-linecap="round" stroke-linejoin="round" stroke-miterlimit="10" stroke-width="1.8"/>
          </g>
          <g id="g109" transform="translate(18.76 23.883)">
            <path id="path111" d="M-104,0a5.108,5.108,0,0,1-3.68,1.628A5.093,5.093,0,0,1-111.314.006" transform="translate(111.314)" fill="none" stroke="#000" stroke-linecap="round" stroke-linejoin="round" stroke-miterlimit="10" stroke-width="1.8"/>
          </g>
          <g id="g113" transform="translate(21.592 22.328)">
            <path id="path115" d="M0,0A2.745,2.745,0,0,0,1.652,0" fill="none" stroke="#000" stroke-linecap="round" stroke-linejoin="round" stroke-miterlimit="10" stroke-width="1.8"/>
          </g>
          <g id="g117" transform="translate(18.08 16.095)">
            <path id="path119" d="M-31.793-2.449a3.713,3.713,0,0,0-2.235,0" transform="translate(34.028 2.621)" fill="none" stroke="#000" stroke-linecap="round" stroke-linejoin="round" stroke-miterlimit="10" stroke-width="1.8"/>
          </g>
          <g id="g121" transform="translate(24.521 16.095)">
            <path id="path123" d="M0-2.449a3.713,3.713,0,0,1,2.235,0" transform="translate(0 2.621)" fill="none" stroke="#000" stroke-linecap="round" stroke-linejoin="round" stroke-miterlimit="10" stroke-width="1.8"/>
          </g>
          <g id="g125" transform="translate(19.353 19.286)">
            <path id="path127" d="M0,0V.438" fill="none" stroke="#000" stroke-linecap="round" stroke-linejoin="round" stroke-miterlimit="10" stroke-width="1.8"/>
          </g>
          <g id="g129" transform="translate(25.483 19.286)">
            <path id="path131" d="M0,0V.438" fill="none" stroke="#000" stroke-linecap="round" stroke-linejoin="round" stroke-miterlimit="10" stroke-width="1.8"/>
          </g>
          <g id="g133" transform="translate(10.139 27.311)">
            <path id="path135" d="M-46.226-49.472l-3.249-3.478" transform="translate(49.476 52.949)" fill="none" stroke="#000" stroke-linecap="round" stroke-linejoin="round" stroke-miterlimit="10" stroke-width="1.8"/>
          </g>
          <g id="g137" transform="translate(8.351 28.963)">
            <path id="path139" d="M-45.116-48.274l-3.171-3.393" transform="translate(48.288 51.668)" fill="none" stroke="#000" stroke-linecap="round" stroke-linejoin="round" stroke-miterlimit="10" stroke-width="1.8"/>
          </g>
          <g id="g141" transform="translate(33.29 28.979)">
            <path id="path143" d="M-45.232,0l-3.18,3.4" transform="translate(48.412)" fill="none" stroke="#000" stroke-linecap="round" stroke-linejoin="round" stroke-miterlimit="10" stroke-width="1.8"/>
          </g>
          <g id="g145" transform="translate(31.432 27.274)">
            <path id="path147" d="M-46.939,0l-3.3,3.531" transform="translate(50.239)" fill="none" stroke="#000" stroke-linecap="round" stroke-linejoin="round" stroke-miterlimit="10" stroke-width="1.8"/>
          </g>
          <g id="g149" transform="translate(10.875 0.657)">
            <path id="path151" d="M-241.395-171.546a5.726,5.726,0,0,1,.738,3.532,2.422,2.422,0,0,0,2.188,2.425,10.183,10.183,0,0,0,1.2-4.337,1.064,1.064,0,0,1,.585-.833,1.865,1.865,0,0,0,1.014-1.66,1.859,1.859,0,0,0-.512-1.283.155.155,0,0,1,.036-.236,1.864,1.864,0,0,0,.868-1.576,1.868,1.868,0,0,0-1.868-1.868h0a.153.153,0,0,1-.145-.211,2.1,2.1,0,0,0,.161-.765,2.129,2.129,0,0,0-2.113-2.158,2.1,2.1,0,0,0-.888.2.153.153,0,0,1-.217-.147q0-.056,0-.112a2.326,2.326,0,0,0-2.326-2.326,2.321,2.321,0,0,0-1.759.8.152.152,0,0,1-.257-.045,2.286,2.286,0,0,0-2.13-1.457,2.286,2.286,0,0,0-2.13,1.457.152.152,0,0,1-.257.045,2.321,2.321,0,0,0-1.759-.8,2.326,2.326,0,0,0-2.326,2.326q0,.056,0,.112a.153.153,0,0,1-.218.147,2.1,2.1,0,0,0-.888-.2,2.129,2.129,0,0,0-2.113,2.158,2.1,2.1,0,0,0,.161.765.153.153,0,0,1-.145.211h0a1.868,1.868,0,0,0-1.868,1.868,1.864,1.864,0,0,0,.868,1.576.155.155,0,0,1,.036.236,1.859,1.859,0,0,0-.512,1.283,1.865,1.865,0,0,0,1.014,1.66,1.065,1.065,0,0,1,.585.833,10.178,10.178,0,0,0,1.2,4.337,2.423,2.423,0,0,0,2.188-2.425c-.014-2.2-.135-5.353,6.163-5.353a12.1,12.1,0,0,1,2.861.294" transform="translate(258.363 183.605)" fill="none" stroke="#000" stroke-linecap="round" stroke-linejoin="round" stroke-miterlimit="10" stroke-width="1.8"/>
          </g>
          <g id="g153" transform="translate(4.203 22.735)">
            <path id="path155" d="M-31.815-79.019h-.693a1.548,1.548,0,0,1-1.543-1.542v-2.47a1.547,1.547,0,0,1,1.543-1.542h1.468A1.547,1.547,0,0,1-29.5-83.031v.886" transform="translate(34.052 84.573)" fill="none" stroke="#000" stroke-linecap="round" stroke-linejoin="round" stroke-miterlimit="10" stroke-width="1.8"/>
          </g>
          <g id="g157" transform="translate(36.079 22.735)">
            <path id="path159" d="M0-34.62v-.891a1.547,1.547,0,0,1,1.543-1.542H3.011a1.547,1.547,0,0,1,1.543,1.542v2.47A1.547,1.547,0,0,1,3.011-31.5h-.66" transform="translate(0 37.053)" fill="none" stroke="#000" stroke-linecap="round" stroke-linejoin="round" stroke-miterlimit="10" stroke-width="1.8"/>
          </g>
          <g id="g161" transform="translate(6.426 25.254)">
            <path id="path163" d="M-5.407-48.535h0a1.307,1.307,0,0,1,0-1.843l1.189-1.189a1.307,1.307,0,0,1,1.843,0,1.307,1.307,0,0,1,0,1.843l-1.189,1.189A1.307,1.307,0,0,1-5.407-48.535Z" transform="translate(5.787 51.947)" fill="none" stroke="#000" stroke-linecap="round" stroke-linejoin="round" stroke-miterlimit="10" stroke-width="1.8"/>
          </g>
          <g id="g165" transform="translate(34.618 25.254)">
            <path id="path167" d="M-48.534-48.535h0a1.307,1.307,0,0,0,0-1.843l-1.189-1.189a1.307,1.307,0,0,0-1.843,0,1.307,1.307,0,0,0,0,1.843l1.189,1.189A1.307,1.307,0,0,0-48.534-48.535Z" transform="translate(51.946 51.947)" fill="none" stroke="#000" stroke-linecap="round" stroke-linejoin="round" stroke-miterlimit="10" stroke-width="1.8"/>
          </g>
          <g id="g169" transform="translate(19.721 30.38)">
            <path id="path171" d="M0-196.307H10.987v-5.832a2.436,2.436,0,0,1,.518-1.5l2.845-3.624-3.287-2.842-3.41,3.169" transform="translate(0 210.106)" fill="none" stroke="#000" stroke-linecap="round" stroke-linejoin="round" stroke-miterlimit="10" stroke-width="1.8"/>
          </g>
          <g id="g173" transform="translate(10.764 30.38)">
            <path id="path175" d="M-96.758-46.542l-.08-.074-3.434-3.2-3.287,2.842,2.845,3.624a2.436,2.436,0,0,1,.518,1.5v5.832h2.522" transform="translate(103.56 49.813)" fill="none" stroke="#000" stroke-linecap="round" stroke-linejoin="round" stroke-miterlimit="10" stroke-width="1.8"/>
          </g>
          <g id="g177" transform="translate(17.339 31.296)">
            <path id="path179" d="M-133-4.835a.739.739,0,0,0-.781-.326,19.063,19.063,0,0,1-3.489.31,19.062,19.062,0,0,1-3.489-.31.739.739,0,0,0-.781.326l-.739,1.315a.588.588,0,0,0,.482.845,25.488,25.488,0,0,0,4.527.451,25.489,25.489,0,0,0,4.527-.451.588.588,0,0,0,.482-.845Z" transform="translate(142.352 5.175)" fill="none" stroke="#000" stroke-linecap="round" stroke-linejoin="round" stroke-miterlimit="10" stroke-width="1.8"/>
          </g>
        </g>
      </g>
    </g>
  </g>
</svg>
