<svg xmlns="http://www.w3.org/2000/svg" width="85" height="85" viewBox="0 0 85 85">
  <g id="Grupo_1064031" data-name="Grupo 1064031" transform="translate(-180 -446)">
    <rect id="Rectángulo_373435" data-name="Rectángulo 373435" width="85" height="85" rx="5" transform="translate(180 446)" fill="#ffa69d"/>
    <g id="case-file" transform="translate(190.5 453.125)">
      <g id="Grupo_1064032" data-name="Grupo 1064032" transform="translate(44.47 10.875)">
        <path id="Trazado_796834" data-name="Trazado 796834" d="M387.761,15.569V12.363a1.488,1.488,0,0,0-1.488-1.488H380.1v4.694Z" transform="translate(-380.098 -10.875)" fill="#ffc344"/>
        <path id="Trazado_796835" data-name="Trazado 796835" d="M414.319,10.875h-3.086a1.488,1.488,0,0,1,1.488,1.488v3.206h3.086V12.363A1.488,1.488,0,0,0,414.319,10.875Z" transform="translate(-408.144 -10.875)" fill="#feb237"/>
        <path id="Trazado_796836" data-name="Trazado 796836" d="M380.2,10.875v4.6h7.564V12.363a1.488,1.488,0,0,0-1.488-1.488H380.2Z" transform="translate(-380.098 -10.875)" fill="none" stroke="#000" stroke-linecap="round" stroke-linejoin="round" stroke-miterlimit="10" stroke-width="2"/>
        <path id="Trazado_796837" data-name="Trazado 796837" d="M380.1,453.813v4.695h6.175a1.488,1.488,0,0,0,1.488-1.488v-3.206Z" transform="translate(-380.098 -409.864)" fill="#ffc344"/>
        <path id="Trazado_796838" data-name="Trazado 796838" d="M412.721,453.812v3.206a1.488,1.488,0,0,1-1.488,1.488h3.086a1.488,1.488,0,0,0,1.488-1.488v-3.206Z" transform="translate(-408.144 -409.863)" fill="#feb237"/>
        <path id="Trazado_796839" data-name="Trazado 796839" d="M381.1,454.812v4.6h6.076a1.488,1.488,0,0,0,1.488-1.488v-3.107Z" transform="translate(-380.998 -410.764)" fill="none" stroke="#000" stroke-linecap="round" stroke-linejoin="round" stroke-miterlimit="10" stroke-width="2"/>
      </g>
      <g id="Grupo_1064038" data-name="Grupo 1064038" transform="translate(44.47 15.47)">
        <path id="Trazado_796840" data-name="Trazado 796840" d="M391.945,57.188H380.1v3.293a.669.669,0,0,0,.46.636l1.406.465a2.311,2.311,0,0,1,1.589,2.2V73.988a2.312,2.312,0,0,1-1.589,2.2l-1.406.465a.669.669,0,0,0-.46.636V96.641h11.847a.5.5,0,0,0,.5-.5V57.684A.5.5,0,0,0,391.945,57.188Z" transform="translate(-380.098 -57.188)" fill="#f9f3f1"/>
        <path id="Trazado_796841" data-name="Trazado 796841" d="M462.118,57.188H458a.5.5,0,0,1,.5.5V96.145a.5.5,0,0,1-.5.5h4.118a.5.5,0,0,0,.5-.5V57.684A.5.5,0,0,0,462.118,57.188Z" transform="translate(-450.27 -57.188)" fill="#f3eae6"/>
        <path id="Trazado_796842" data-name="Trazado 796842" d="M381.1,209.069h11.748a.5.5,0,0,0,.5-.5V182" transform="translate(-380.998 -169.616)" fill="none" stroke="#000" stroke-linecap="round" stroke-linejoin="round" stroke-miterlimit="10" stroke-width="2"/>
        <path id="Trazado_796843" data-name="Trazado 796843" d="M393.341,66.1V57.684a.5.5,0,0,0-.5-.5H381.1" transform="translate(-380.998 -57.188)" fill="none" stroke="#000" stroke-linecap="round" stroke-linejoin="round" stroke-miterlimit="10" stroke-width="2"/>
        <g id="Grupo_1064037" data-name="Grupo 1064037" transform="translate(0.099 5.573)">
          <g id="Grupo_1064034" data-name="Grupo 1064034" transform="translate(0 16.721)">
            <g id="Grupo_1064033" data-name="Grupo 1064033">
              <line id="Línea_1597" data-name="Línea 1597" x2="6.854" fill="none" stroke="#000" stroke-linecap="round" stroke-linejoin="round" stroke-miterlimit="10" stroke-width="2"/>
              <line id="Línea_1598" data-name="Línea 1598" x2="6.854" transform="translate(0 3.862)" fill="none" stroke="#000" stroke-linecap="round" stroke-linejoin="round" stroke-miterlimit="10" stroke-width="2"/>
              <line id="Línea_1599" data-name="Línea 1599" x2="6.854" transform="translate(0 7.724)" fill="none" stroke="#000" stroke-linecap="round" stroke-linejoin="round" stroke-miterlimit="10" stroke-width="2"/>
            </g>
            <line id="Línea_1600" data-name="Línea 1600" x2="3.066" transform="translate(0 11.586)" fill="none" stroke="#000" stroke-linecap="round" stroke-linejoin="round" stroke-miterlimit="10" stroke-width="2"/>
            <line id="Línea_1601" data-name="Línea 1601" x2="1.406" transform="translate(5.448 11.586)" fill="none" stroke="#000" stroke-linecap="round" stroke-linejoin="round" stroke-miterlimit="10" stroke-width="2"/>
          </g>
          <g id="Grupo_1064036" data-name="Grupo 1064036" transform="translate(3.455)">
            <g id="Grupo_1064035" data-name="Grupo 1064035">
              <line id="Línea_1602" data-name="Línea 1602" x2="3.399" fill="none" stroke="#000" stroke-linecap="round" stroke-linejoin="round" stroke-miterlimit="10" stroke-width="2"/>
              <line id="Línea_1603" data-name="Línea 1603" x2="3.399" transform="translate(0 3.862)" fill="none" stroke="#000" stroke-linecap="round" stroke-linejoin="round" stroke-miterlimit="10" stroke-width="2"/>
              <line id="Línea_1604" data-name="Línea 1604" x2="3.399" transform="translate(0 7.724)" fill="none" stroke="#000" stroke-linecap="round" stroke-linejoin="round" stroke-miterlimit="10" stroke-width="2"/>
            </g>
            <line id="Línea_1605" data-name="Línea 1605" x2="3.399" transform="translate(0 11.586)" fill="none" stroke="#000" stroke-linecap="round" stroke-linejoin="round" stroke-miterlimit="10" stroke-width="2"/>
          </g>
        </g>
      </g>
      <path id="Trazado_796844" data-name="Trazado 796844" d="M46.367,19.77l-1.406-.465a.571.571,0,0,1-.392-.542V10.875H8.988A1.488,1.488,0,0,0,7.5,12.363V58.03a1.488,1.488,0,0,0,1.488,1.488H44.569V35.57a.571.571,0,0,1,.392-.542l1.406-.465a2.415,2.415,0,0,0,1.657-2.293V22.063A2.415,2.415,0,0,0,46.367,19.77Z" fill="#ffe177"/>
      <path id="Trazado_796845" data-name="Trazado 796845" d="M8.988,10.875A1.488,1.488,0,0,0,7.5,12.363V58.03a1.488,1.488,0,0,0,1.488,1.488h2.629V10.875Z" fill="#fff0ad"/>
      <path id="Trazado_796846" data-name="Trazado 796846" d="M354.52,19.77l-1.406-.465a.571.571,0,0,1-.392-.542V10.875H349.6v8.254a1.488,1.488,0,0,0,1.021,1.413l.776.256a2.415,2.415,0,0,1,1.657,2.293v8.136a2.415,2.415,0,0,1-1.657,2.293l-.776.256A1.488,1.488,0,0,0,349.6,35.19V59.519h3.125V35.57a.571.571,0,0,1,.392-.542l1.406-.465a2.415,2.415,0,0,0,1.657-2.293V22.063A2.415,2.415,0,0,0,354.52,19.77Z" transform="translate(-308.154)" fill="#ffd15b"/>
      <path id="Trazado_796847" data-name="Trazado 796847" d="M46.367,19.77l-1.406-.465a.571.571,0,0,1-.392-.542V10.875H8.988A1.488,1.488,0,0,0,7.5,12.363V58.03a1.488,1.488,0,0,0,1.488,1.488H44.569V35.57a.571.571,0,0,1,.392-.542l1.406-.465a2.415,2.415,0,0,0,1.657-2.293V22.063A2.415,2.415,0,0,0,46.367,19.77Z" fill="none" stroke="#000" stroke-linecap="round" stroke-linejoin="round" stroke-miterlimit="10" stroke-width="2"/>
      <line id="Línea_1606" data-name="Línea 1606" y1="37.221" transform="translate(11.618 22.298)" fill="none" stroke="#000" stroke-linecap="round" stroke-linejoin="round" stroke-miterlimit="10" stroke-width="2"/>
      <line id="Línea_1607" data-name="Línea 1607" y1="7.95" transform="translate(11.618 10.875)" fill="none" stroke="#000" stroke-linecap="round" stroke-linejoin="round" stroke-miterlimit="10" stroke-width="2"/>
      <g id="Grupo_1064039" data-name="Grupo 1064039" transform="translate(24.629 18.491)">
        <line id="Línea_1608" data-name="Línea 1608" x2="13" transform="translate(0.446 0.205)" fill="none" stroke="#000" stroke-linecap="round" stroke-linejoin="round" stroke-miterlimit="10" stroke-width="2"/>
        <line id="Línea_1609" data-name="Línea 1609" x1="13.608" transform="translate(0 4.05)" fill="none" stroke="#000" stroke-linecap="round" stroke-linejoin="round" stroke-miterlimit="10" stroke-width="2"/>
      </g>
      <path id="Trazado_796848" data-name="Trazado 796848" d="M118.915,402.875h-20.8a.5.5,0,0,1-.5-.5v-4.773a.5.5,0,0,1,.5-.5h20.8a.5.5,0,0,1,.5.5v4.773A.5.5,0,0,1,118.915,402.875Z" transform="translate(-81.175 -347.912)" fill="#fff"/>
      <path id="Trazado_796849" data-name="Trazado 796849" d="M284.1,397.11H281a.5.5,0,0,1,.5.5v4.773a.5.5,0,0,1-.5.5h3.1a.5.5,0,0,0,.5-.5v-4.773A.5.5,0,0,0,284.1,397.11Z" transform="translate(-246.363 -347.912)" fill="#f3eae6"/>
      <path id="Trazado_796850" data-name="Trazado 796850" d="M115.415,402.875h3.5a.5.5,0,0,0,.5-.5v-4.773a.5.5,0,0,0-.5-.5h-20.8a.5.5,0,0,0-.5.5v4.773a.5.5,0,0,0,.5.5h13.83" transform="translate(-81.175 -347.912)" fill="none" stroke="#000" stroke-linecap="round" stroke-linejoin="round" stroke-miterlimit="10" stroke-width="2"/>
      <g id="Grupo_1064043" data-name="Grupo 1064043" transform="translate(16.867 28.537)">
        <line id="Línea_1610" data-name="Línea 1610" x2="17.162" transform="translate(2.776 1.075)" fill="none" stroke="#000" stroke-linecap="round" stroke-linejoin="round" stroke-miterlimit="10" stroke-width="2"/>
        <g id="Grupo_1064042" data-name="Grupo 1064042" transform="translate(0 1.075)">
          <g id="Grupo_1064040" data-name="Grupo 1064040">
            <path id="Trazado_796851" data-name="Trazado 796851" d="M116.063,206.255l-2.881-6.547-2.881,6.547Z" transform="translate(-109.468 -199.708)" fill="none" stroke="#000" stroke-linecap="round" stroke-linejoin="round" stroke-miterlimit="10" stroke-width="2"/>
            <path id="Trazado_796852" data-name="Trazado 796852" d="M102.355,265.69a.449.449,0,0,0-.447.506,3.744,3.744,0,0,0,7.42,0,.449.449,0,0,0-.447-.506Z" transform="translate(-101.904 -259.143)" fill="#e9b665"/>
            <path id="Trazado_796853" data-name="Trazado 796853" d="M131.42,265.69h-2.463a.449.449,0,0,1,.447.506,3.748,3.748,0,0,1-2.479,3.03,3.745,3.745,0,0,0,4.941-3.03A.449.449,0,0,0,131.42,265.69Z" transform="translate(-124.442 -259.143)" fill="#d8aa5e"/>
            <path id="Trazado_796854" data-name="Trazado 796854" d="M102.355,265.69a.449.449,0,0,0-.447.506,3.744,3.744,0,0,0,7.42,0,.449.449,0,0,0-.447-.506Z" transform="translate(-101.904 -259.143)" fill="none" stroke="#000" stroke-linecap="round" stroke-linejoin="round" stroke-miterlimit="10" stroke-width="2"/>
          </g>
          <g id="Grupo_1064041" data-name="Grupo 1064041" transform="translate(15.285)">
            <path id="Trazado_796855" data-name="Trazado 796855" d="M270.116,206.255l-2.881-6.547-2.881,6.547Z" transform="translate(-263.521 -199.708)" fill="none" stroke="#000" stroke-linecap="round" stroke-linejoin="round" stroke-miterlimit="10" stroke-width="2"/>
            <path id="Trazado_796856" data-name="Trazado 796856" d="M256.408,265.69a.449.449,0,0,0-.447.506,3.744,3.744,0,0,0,7.42,0,.449.449,0,0,0-.447-.506Z" transform="translate(-255.957 -259.143)" fill="#e9b665"/>
            <path id="Trazado_796857" data-name="Trazado 796857" d="M285.473,265.69H283.01a.449.449,0,0,1,.447.506,3.748,3.748,0,0,1-2.479,3.03,3.745,3.745,0,0,0,4.941-3.03A.449.449,0,0,0,285.473,265.69Z" transform="translate(-278.495 -259.143)" fill="#d8aa5e"/>
            <path id="Trazado_796858" data-name="Trazado 796858" d="M256.408,265.69a.449.449,0,0,0-.447.506,3.744,3.744,0,0,0,7.42,0,.449.449,0,0,0-.447-.506Z" transform="translate(-255.957 -259.143)" fill="none" stroke="#000" stroke-linecap="round" stroke-linejoin="round" stroke-miterlimit="10" stroke-width="2"/>
          </g>
        </g>
        <line id="Línea_1611" data-name="Línea 1611" y2="15.047" transform="translate(11.357 0)" fill="none" stroke="#000" stroke-linecap="round" stroke-linejoin="round" stroke-miterlimit="10" stroke-width="2"/>
        <line id="Línea_1612" data-name="Línea 1612" x2="9.076" transform="translate(6.819 15.047)" fill="none" stroke="#000" stroke-linecap="round" stroke-linejoin="round" stroke-miterlimit="10" stroke-width="2"/>
      </g>
      <path id="Trazado_796859" data-name="Trazado 796859" d="M87,71.008v2.713a3.783,3.783,0,0,0,1.207,2.771l1.659,1.542a.63.63,0,0,0,.858,0l1.659-1.542a3.783,3.783,0,0,0,1.207-2.771V71.008a.63.63,0,0,0-.63-.63H87.63A.63.63,0,0,0,87,71.008Z" transform="translate(-71.612 -53.599)" fill="#0067c5"/>
      <path id="Trazado_796860" data-name="Trazado 796860" d="M109.01,70.378h-1.858a.635.635,0,0,1,.008.1v2.713a3.783,3.783,0,0,1-1.207,2.771l-1.135,1.055,1.1,1.021a.63.63,0,0,0,.858,0l1.659-1.542a3.783,3.783,0,0,0,1.207-2.771V71.008A.631.631,0,0,0,109.01,70.378Z" transform="translate(-87.662 -53.599)" fill="#0055a3"/>
      <path id="Trazado_796861" data-name="Trazado 796861" d="M87,71.008v2.713a3.783,3.783,0,0,0,1.207,2.771l1.659,1.542a.63.63,0,0,0,.858,0l1.659-1.542a3.783,3.783,0,0,0,1.207-2.771V71.008a.63.63,0,0,0-.63-.63H87.63A.63.63,0,0,0,87,71.008Z" transform="translate(-71.612 -53.599)" fill="none" stroke="#000" stroke-linecap="round" stroke-linejoin="round" stroke-miterlimit="10" stroke-width="2"/>
    </g>
  </g>
</svg>
