<svg xmlns="http://www.w3.org/2000/svg" width="85" height="85" viewBox="0 0 85 85">
  <g id="Grupo_1065262" data-name="Grupo 1065262" transform="translate(-180 -446)">
    <rect id="Rectángulo_373435" data-name="Rectángulo 373435" width="85" height="85" rx="5" transform="translate(180 446)" fill="#ffa69d"/>
    <g id="inteligencia-artificial" transform="translate(194.725 460.725)">
      <g id="Grupo_1065284" data-name="Grupo 1065284" transform="translate(0.884 0.884)">
        <path id="Trazado_799757" data-name="Trazado 799757" d="M26.625,4.534V52.249a3.532,3.532,0,0,1-5.743,2.757,3.537,3.537,0,0,1-2.209.778,3.49,3.49,0,0,1-2.35-.9,1.714,1.714,0,0,1-.3.018,3.54,3.54,0,0,1-3.075-1.794A3.536,3.536,0,0,1,9.836,49.6a.5.5,0,0,1,.009-.115,3.531,3.531,0,0,1-2.571-2.624,3.535,3.535,0,0,1-2.739-3.446,3.429,3.429,0,0,1,.23-1.246,3.513,3.513,0,0,1-2-3.172,3.61,3.61,0,0,1,.15-1.034,3.539,3.539,0,0,1-.61-4.179c-.044-.035-.08-.071-.124-.106A3.509,3.509,0,0,1,1,31.043a3.537,3.537,0,0,1,.778-2.209,3.534,3.534,0,0,1,.256-4.71,3.61,3.61,0,0,1-.15-1.034,3.557,3.557,0,0,1,1.034-2.5c-.009-.027-.018-.062-.027-.088a3.7,3.7,0,0,1-.124-.945,3.287,3.287,0,0,1,.133-.937,3.547,3.547,0,0,1,1.661-2.138,3.493,3.493,0,0,1,1.97-2.748,3.429,3.429,0,0,1-.23-1.246A3.549,3.549,0,0,1,9.836,8.952,3.533,3.533,0,0,1,13.37,5.418a3.411,3.411,0,0,1,.954.133,4.421,4.421,0,0,1,6.088-3.314A3.476,3.476,0,0,1,23.09,1,3.533,3.533,0,0,1,26.625,4.534Z" transform="translate(-1 -1)" fill="#ffc14f"/>
        <path id="Trazado_799758" data-name="Trazado 799758" d="M26.165,54.563a3.525,3.525,0,0,1-5.284,1.025,3.537,3.537,0,0,1-2.209.778,3.49,3.49,0,0,1-2.35-.9,1.714,1.714,0,0,1-.3.018,3.54,3.54,0,0,1-3.075-1.794,3.536,3.536,0,0,1-3.11-3.508.5.5,0,0,1,.009-.115,3.531,3.531,0,0,1-2.571-2.624A3.535,3.535,0,0,1,4.534,44a3.429,3.429,0,0,1,.23-1.246,3.513,3.513,0,0,1-2-3.172,3.61,3.61,0,0,1,.15-1.034,3.539,3.539,0,0,1-.61-4.179A3.5,3.5,0,0,1,1,31.625a3.537,3.537,0,0,1,.778-2.209,3.534,3.534,0,0,1,.256-4.71,3.61,3.61,0,0,1-.15-1.034,3.557,3.557,0,0,1,1.034-2.5,3.61,3.61,0,0,1-.15-1.034,3.54,3.54,0,0,1,1.794-3.075,3.493,3.493,0,0,1,1.97-2.748,3.429,3.429,0,0,1-.23-1.246A3.533,3.533,0,0,1,9.836,9.534,3.533,3.533,0,0,1,13.37,6a2.683,2.683,0,0,1,.459.035,3.5,3.5,0,0,0-.459,1.732A3.533,3.533,0,0,0,9.836,11.3a3.429,3.429,0,0,0,.23,1.246A3.493,3.493,0,0,0,8.1,15.3,3.54,3.54,0,0,0,6.3,18.37a3.61,3.61,0,0,0,.15,1.034,3.557,3.557,0,0,0-1.034,2.5,3.61,3.61,0,0,0,.15,1.034,3.534,3.534,0,0,0-.256,4.71,3.537,3.537,0,0,0-.778,2.209A3.5,3.5,0,0,0,5.842,32.6a3.539,3.539,0,0,0,.61,4.179A3.61,3.61,0,0,0,6.3,37.81a3.513,3.513,0,0,0,2,3.172,3.429,3.429,0,0,0-.23,1.246,3.535,3.535,0,0,0,2.739,3.446A3.531,3.531,0,0,0,13.379,48.3a.5.5,0,0,0-.009.115,3.536,3.536,0,0,0,3.11,3.508,3.54,3.54,0,0,0,3.075,1.794,1.714,1.714,0,0,0,.3-.018,3.49,3.49,0,0,0,2.35.9,3.537,3.537,0,0,0,2.209-.778A3.458,3.458,0,0,0,26.165,54.563Z" transform="translate(-1 -1.582)" fill="#ffb52d"/>
        <g id="Grupo_1065283" data-name="Grupo 1065283" transform="translate(29.159)">
          <ellipse id="Elipse_8459" data-name="Elipse 8459" cx="2" cy="1.5" rx="2" ry="1.5" transform="translate(2.233 0.392)" fill="#07a9f0"/>
          <ellipse id="Elipse_8460" data-name="Elipse 8460" cx="2" cy="1.5" rx="2" ry="1.5" transform="translate(13.233 5.392)" fill="#07a9f0"/>
          <circle id="Elipse_8461" data-name="Elipse 8461" cx="2" cy="2" r="2" transform="translate(13.233 12.392)" fill="#07a9f0"/>
          <circle id="Elipse_8462" data-name="Elipse 8462" cx="1.5" cy="1.5" r="1.5" transform="translate(14.233 21.392)" fill="#07a9f0"/>
          <ellipse id="Elipse_8463" data-name="Elipse 8463" cx="1.5" cy="2" rx="1.5" ry="2" transform="translate(22.233 19.392)" fill="#07a9f0"/>
          <circle id="Elipse_8464" data-name="Elipse 8464" cx="1.5" cy="1.5" r="1.5" transform="translate(0.233 14.392)" fill="#07a9f0"/>
          <ellipse id="Elipse_8465" data-name="Elipse 8465" cx="2" cy="1.5" rx="2" ry="1.5" transform="translate(5.233 21.392)" fill="#07a9f0"/>
          <circle id="Elipse_8466" data-name="Elipse 8466" cx="1.5" cy="1.5" r="1.5" transform="translate(15.233 28.392)" fill="#07a9f0"/>
          <circle id="Elipse_8467" data-name="Elipse 8467" cx="2" cy="2" r="2" transform="translate(11.233 40.392)" fill="#07a9f0"/>
          <ellipse id="Elipse_8468" data-name="Elipse 8468" cx="2" cy="1.5" rx="2" ry="1.5" transform="translate(18.233 44.392)" fill="#07a9f0"/>
          <ellipse id="Elipse_8469" data-name="Elipse 8469" cx="1.5" cy="2" rx="1.5" ry="2" transform="translate(22.233 31.392)" fill="#07a9f0"/>
          <circle id="Elipse_8470" data-name="Elipse 8470" cx="1.5" cy="1.5" r="1.5" transform="translate(0.233 30.392)" fill="#07a9f0"/>
          <ellipse id="Elipse_8471" data-name="Elipse 8471" cx="1.5" cy="2" rx="1.5" ry="2" transform="translate(0.233 40.392)" fill="#07a9f0"/>
          <circle id="Elipse_8472" data-name="Elipse 8472" cx="1.5" cy="1.5" r="1.5" transform="translate(0.233 51.392)" fill="#07a9f0"/>
        </g>
        <path id="Trazado_799759" data-name="Trazado 799759" d="M37.375,61.513a1.765,1.765,0,1,1-2.333-2.333,1.671,1.671,0,0,0-.159.725,1.772,1.772,0,0,0,1.767,1.767A1.671,1.671,0,0,0,37.375,61.513Z" transform="translate(-4.841 -7.772)" fill="#0691ce"/>
        <path id="Trazado_799760" data-name="Trazado 799760" d="M37.375,49.513a1.765,1.765,0,1,1-2.333-2.333,1.671,1.671,0,0,0-.159.725,1.772,1.772,0,0,0,1.767,1.767A1.671,1.671,0,0,0,37.375,49.513Z" transform="translate(-4.841 -6.375)" fill="#0691ce"/>
        <path id="Trazado_799761" data-name="Trazado 799761" d="M50.375,49.513a1.765,1.765,0,1,1-2.333-2.333,1.671,1.671,0,0,0-.159.725,1.772,1.772,0,0,0,1.767,1.767A1.671,1.671,0,0,0,50.375,49.513Z" transform="translate(-6.354 -6.375)" fill="#0691ce"/>
        <path id="Trazado_799762" data-name="Trazado 799762" d="M58.375,53.513a1.765,1.765,0,1,1-2.333-2.333,1.671,1.671,0,0,0-.159.725,1.772,1.772,0,0,0,1.767,1.767A1.671,1.671,0,0,0,58.375,53.513Z" transform="translate(-7.285 -6.841)" fill="#0691ce"/>
        <path id="Trazado_799763" data-name="Trazado 799763" d="M62.375,39.513a1.765,1.765,0,1,1-2.333-2.333,1.671,1.671,0,0,0-.159.725,1.772,1.772,0,0,0,1.767,1.767A1.671,1.671,0,0,0,62.375,39.513Z" transform="translate(-7.751 -5.211)" fill="#0691ce"/>
        <path id="Trazado_799764" data-name="Trazado 799764" d="M54.375,35.513a1.765,1.765,0,1,1-2.333-2.333,1.671,1.671,0,0,0-.159.725,1.772,1.772,0,0,0,1.767,1.767A1.671,1.671,0,0,0,54.375,35.513Z" transform="translate(-6.82 -4.746)" fill="#0691ce"/>
        <path id="Trazado_799765" data-name="Trazado 799765" d="M37.375,37.513a1.765,1.765,0,1,1-2.333-2.333,1.671,1.671,0,0,0-.159.725,1.772,1.772,0,0,0,1.767,1.767A1.671,1.671,0,0,0,37.375,37.513Z" transform="translate(-4.841 -4.978)" fill="#0691ce"/>
        <path id="Trazado_799766" data-name="Trazado 799766" d="M43.375,27.513a1.765,1.765,0,1,1-2.333-2.333,1.671,1.671,0,0,0-.159.725,1.772,1.772,0,0,0,1.767,1.767A1.671,1.671,0,0,0,43.375,27.513Z" transform="translate(-5.539 -3.814)" fill="#0691ce"/>
        <path id="Trazado_799767" data-name="Trazado 799767" d="M53.375,27.513a1.765,1.765,0,1,1-2.333-2.333,1.671,1.671,0,0,0-.159.725,1.772,1.772,0,0,0,1.767,1.767A1.671,1.671,0,0,0,53.375,27.513Z" transform="translate(-6.703 -3.814)" fill="#0691ce"/>
        <path id="Trazado_799768" data-name="Trazado 799768" d="M62.375,25.513a1.765,1.765,0,1,1-2.333-2.333,1.671,1.671,0,0,0-.159.725,1.772,1.772,0,0,0,1.767,1.767A1.671,1.671,0,0,0,62.375,25.513Z" transform="translate(-7.751 -3.582)" fill="#0691ce"/>
        <path id="Trazado_799769" data-name="Trazado 799769" d="M52.375,17.513a1.765,1.765,0,1,1-2.333-2.333,1.671,1.671,0,0,0-.159.725,1.772,1.772,0,0,0,1.767,1.767A1.671,1.671,0,0,0,52.375,17.513Z" transform="translate(-6.587 -2.65)" fill="#0691ce"/>
        <path id="Trazado_799770" data-name="Trazado 799770" d="M37.375,19.513a1.765,1.765,0,1,1-2.333-2.333,1.671,1.671,0,0,0-.159.725,1.772,1.772,0,0,0,1.767,1.767A1.671,1.671,0,0,0,37.375,19.513Z" transform="translate(-4.841 -2.883)" fill="#0691ce"/>
        <path id="Trazado_799771" data-name="Trazado 799771" d="M52.375,9.513A1.765,1.765,0,1,1,50.043,7.18a1.671,1.671,0,0,0-.159.725,1.772,1.772,0,0,0,1.767,1.767A1.671,1.671,0,0,0,52.375,9.513Z" transform="translate(-6.587 -1.719)" fill="#0691ce"/>
        <path id="Trazado_799772" data-name="Trazado 799772" d="M40.375,3.513A1.765,1.765,0,1,1,38.043,1.18a1.671,1.671,0,0,0-.159.725,1.772,1.772,0,0,0,1.767,1.767A1.671,1.671,0,0,0,40.375,3.513Z" transform="translate(-5.19 -1.021)" fill="#0691ce"/>
      </g>
      <g id="Grupo_1065285" data-name="Grupo 1065285" transform="translate(0 0)">
        <path id="Trazado_799773" data-name="Trazado 799773" d="M22.974,0a4.42,4.42,0,0,0-2.916,1.1,5.365,5.365,0,0,0-1.5-.212,5.291,5.291,0,0,0-5,3.543c-.1-.009-.194-.009-.3-.009A4.436,4.436,0,0,0,8.907,8.023,4.436,4.436,0,0,0,5.3,12.37a4.338,4.338,0,0,0,.08.831A4.3,4.3,0,0,0,3.64,15.834a4.415,4.415,0,0,0-1.873,3.605,4.836,4.836,0,0,0,.071.8,4.393,4.393,0,0,0-.954,2.739,4.836,4.836,0,0,0,.071.8A4.393,4.393,0,0,0,0,26.508a4.494,4.494,0,0,0,.592,2.209A4.494,4.494,0,0,0,0,30.926a4.377,4.377,0,0,0,1.131,2.951,4.646,4.646,0,0,0-.247,1.467,4.393,4.393,0,0,0,.954,2.739,4.836,4.836,0,0,0-.071.8,4.441,4.441,0,0,0,1.847,3.587,4.271,4.271,0,0,0-.08.831A4.405,4.405,0,0,0,6.45,47.458a4.365,4.365,0,0,0,2.421,2.554A4.417,4.417,0,0,0,12.3,53.794,4.415,4.415,0,0,0,15.9,55.667h.009a4.491,4.491,0,0,0,4.851.292,4.494,4.494,0,0,0,2.209.592,4.42,4.42,0,0,0,4.418-4.418V4.418A4.42,4.42,0,0,0,22.974,0Zm2.651,7.952H19.439A3.533,3.533,0,0,0,15.9,11.487a.884.884,0,0,0,1.767,0A1.772,1.772,0,0,1,19.439,9.72h6.185V27.392H9.72a2.659,2.659,0,0,1-2.651-2.651.884.884,0,0,0-1.767,0A4.42,4.42,0,0,0,9.72,29.159h15.9v1.767H19.439A3.533,3.533,0,0,0,15.9,34.461a.884.884,0,0,0,1.767,0,1.772,1.772,0,0,1,1.767-1.767h6.185V52.133A2.653,2.653,0,0,1,21.313,54.2a.869.869,0,0,0-1.1,0,2.7,2.7,0,0,1-3.42-.088.919.919,0,0,0-.751-.212h-.071A2.678,2.678,0,0,1,13.6,52.548a.906.906,0,0,0-.663-.433A2.653,2.653,0,0,1,10.6,49.491a.89.89,0,0,0-.663-.981,2.676,2.676,0,0,1-1.926-1.97.853.853,0,0,0-.663-.654A2.649,2.649,0,0,1,5.3,43.3a2.539,2.539,0,0,1,.168-.928.877.877,0,0,0-.442-1.113,2.642,2.642,0,0,1-1.493-2.377,2.55,2.55,0,0,1,.115-.778.889.889,0,0,0-.221-.875,2.667,2.667,0,0,1-.459-3.146.009.009,0,0,1,.009-.009c0-.009.009-.009.009-.018a2.125,2.125,0,0,1,2.836-1.122.883.883,0,0,0,1.166-.442.873.873,0,0,0-.442-1.166,3.615,3.615,0,0,0-4.418.91,2.6,2.6,0,0,1-.362-1.308,2.68,2.68,0,0,1,.583-1.661.877.877,0,0,0,0-1.1,2.662,2.662,0,0,1,.194-3.543.889.889,0,0,0,.221-.875,2.55,2.55,0,0,1-.115-.778A2.624,2.624,0,0,1,3.4,21.136a3.626,3.626,0,0,1,4.065-.08.88.88,0,1,0,.972-1.467,5.1,5.1,0,0,0-4.851-.521,2.624,2.624,0,0,1,1.3-1.935.882.882,0,0,0,.433-.663,2.66,2.66,0,0,1,1.476-2.059A.877.877,0,0,0,7.237,13.3a2.539,2.539,0,0,1-.168-.928A2.629,2.629,0,0,1,8.977,9.843a4.675,4.675,0,0,0,3.11,3.367,1.1,1.1,0,0,0,.283.044.88.88,0,0,0,.839-.6.893.893,0,0,0-.557-1.122A2.967,2.967,0,0,1,10.6,8.836a2.647,2.647,0,0,1,3.358-2.554.887.887,0,0,0,.716-.1.9.9,0,0,0,.406-.6,3.512,3.512,0,0,1,3.473-2.934,3.584,3.584,0,0,1,1.4.283.891.891,0,0,0,1.025-.247,2.594,2.594,0,0,1,2-.919,2.659,2.659,0,0,1,2.651,2.651Z" transform="translate(0 0)" fill="#000935"/>
        <path id="Trazado_799774" data-name="Trazado 799774" d="M12.884,27.3A4.42,4.42,0,0,0,17.3,22.884a.884.884,0,0,0-1.767,0,2.659,2.659,0,0,1-2.651,2.651.884.884,0,0,0,0,1.767Z" transform="translate(-1.397 -2.561)" fill="#000935"/>
        <path id="Trazado_799775" data-name="Trazado 799775" d="M13.826,19.934A3.535,3.535,0,0,1,19.985,22.3a.884.884,0,0,0,1.767,0A5.305,5.305,0,0,0,12.51,18.75a.882.882,0,1,0,1.308,1.184Z" transform="translate(-1.429 -1.979)" fill="#000935"/>
        <path id="Trazado_799776" data-name="Trazado 799776" d="M23,27.651a.884.884,0,0,0,1.767,0,.886.886,0,0,1,.884-.884.884.884,0,0,0,0-1.767A2.659,2.659,0,0,0,23,27.651Z" transform="translate(-2.677 -2.91)" fill="#000935"/>
        <path id="Trazado_799777" data-name="Trazado 799777" d="M22.884,17.534a.886.886,0,0,0,.884-.884.886.886,0,0,1,.884-.884.884.884,0,0,0,0-1.767A2.659,2.659,0,0,0,22,16.651.886.886,0,0,0,22.884,17.534Z" transform="translate(-2.561 -1.63)" fill="#000935"/>
        <path id="Trazado_799778" data-name="Trazado 799778" d="M20.418,50a.886.886,0,0,0-.884.884,2.659,2.659,0,0,1-2.651,2.651.884.884,0,0,0,0,1.767A4.42,4.42,0,0,0,21.3,50.884.886.886,0,0,0,20.418,50Z" transform="translate(-1.862 -5.82)" fill="#000935"/>
        <path id="Trazado_799779" data-name="Trazado 799779" d="M12.418,36a.886.886,0,0,0-.884.884,2.659,2.659,0,0,1-2.651,2.651.884.884,0,0,0,0,1.767A4.42,4.42,0,0,0,13.3,36.884.886.886,0,0,0,12.418,36Z" transform="translate(-0.931 -4.19)" fill="#000935"/>
        <path id="Trazado_799780" data-name="Trazado 799780" d="M16.727,48.207a3.545,3.545,0,0,1,1.034-2.686,3.625,3.625,0,0,1,5,0,.881.881,0,0,0,1.246-1.246,5.3,5.3,0,0,0-9.039,4.02.89.89,0,0,0,.884.839H15.9a.887.887,0,0,0,.839-.928Z" transform="translate(-1.741 -4.972)" fill="#000935"/>
        <path id="Trazado_799781" data-name="Trazado 799781" d="M24.651,54A2.659,2.659,0,0,0,22,56.651a.884.884,0,0,0,1.767,0,.886.886,0,0,1,.884-.884.884.884,0,0,0,0-1.767Z" transform="translate(-2.561 -6.285)" fill="#000935"/>
        <path id="Trazado_799782" data-name="Trazado 799782" d="M10.256,44.846a.88.88,0,0,0,0,1.246.9.9,0,0,1,0,1.255.88.88,0,0,0,0,1.246.868.868,0,0,0,.627.256.905.905,0,0,0,.627-.256,2.645,2.645,0,0,0,0-3.746.88.88,0,0,0-1.246,0Z" transform="translate(-1.164 -5.19)" fill="#000935"/>
        <path id="Trazado_799783" data-name="Trazado 799783" d="M50.651,14a2.651,2.651,0,1,0,2.492,3.534h2.271l2.174,4.347a2.643,2.643,0,1,0,1.9-.813,1.947,1.947,0,0,0-.318.035l-2.43-4.842a.883.883,0,0,0-.786-.486h-2.81a2.643,2.643,0,0,0-2.492-1.767Zm9.72,9.72a.884.884,0,1,1-.884-.884A.886.886,0,0,1,60.37,23.72Zm-9.72-6.185a.884.884,0,1,1,.884-.884A.886.886,0,0,1,50.651,17.534Z" transform="translate(-5.587 -1.63)" fill="#000935"/>
        <path id="Trazado_799784" data-name="Trazado 799784" d="M35.65,21.3a2.66,2.66,0,0,0,2.492-1.767h4.215L47.4,24.58a2.576,2.576,0,0,0-.265,1.14,2.671,2.671,0,1,0,1.511-2.386l-5.31-5.31a.875.875,0,0,0-.627-.256H38.133A2.648,2.648,0,1,0,35.641,21.3ZM50.671,25.72a.884.884,0,1,1-1.767,0,.875.875,0,0,1,.256-.619h.009v-.009a.86.86,0,0,1,.619-.256.886.886,0,0,1,.884.884ZM35.65,17.767a.884.884,0,1,1-.884.884A.886.886,0,0,1,35.65,17.767Z" transform="translate(-3.84 -1.862)" fill="#000935"/>
        <path id="Trazado_799785" data-name="Trazado 799785" d="M47.254,46a2.66,2.66,0,0,0-2.492,1.767H41.069a.886.886,0,0,0-.884.884v4.418h-5.3a.884.884,0,0,0,0,1.767h6.185a.886.886,0,0,0,.884-.884V49.534h2.81A2.648,2.648,0,1,0,47.254,46Zm0,3.534a.884.884,0,1,1,.884-.884A.886.886,0,0,1,47.254,49.534Z" transform="translate(-3.957 -5.354)" fill="#000935"/>
        <path id="Trazado_799786" data-name="Trazado 799786" d="M57.3,49.228v-2.81a.913.913,0,0,0-.256-.627l-3.534-3.534A.881.881,0,0,0,52.266,43.5l3.278,3.278v2.448a2.651,2.651,0,1,0,1.767,0ZM56.419,52.6a.884.884,0,1,1,.884-.884A.886.886,0,0,1,56.419,52.6Z" transform="translate(-6.053 -4.888)" fill="#000935"/>
        <path id="Trazado_799787" data-name="Trazado 799787" d="M61.534,35.461V30.884a.884.884,0,0,0-1.767,0v4.577a2.651,2.651,0,1,0,1.767,0Zm-.884,3.375a.884.884,0,1,1,.884-.884A.886.886,0,0,1,60.651,38.836Z" transform="translate(-6.751 -3.492)" fill="#000935"/>
        <path id="Trazado_799788" data-name="Trazado 799788" d="M35.651,38.953a2.66,2.66,0,0,0,2.492-1.767h2.81a.913.913,0,0,0,.627-.256L46,32.512a.881.881,0,0,0-1.246-1.246L40.59,35.428H38.143a2.648,2.648,0,1,0-2.492,3.534Zm0-3.534a.884.884,0,1,1-.884.884A.886.886,0,0,1,35.651,35.419Z" transform="translate(-3.841 -3.609)" fill="#000935"/>
        <path id="Trazado_799789" data-name="Trazado 799789" d="M35.652,49.672a2.646,2.646,0,0,0,.884-5.143V42.6H43.6a.913.913,0,0,0,.627-.256l5.31-5.31a2.576,2.576,0,0,0,1.14.265A2.671,2.671,0,1,0,48.3,35.791l-5.045,5.045h-7.59a.886.886,0,0,0-.884.884v2.81a2.646,2.646,0,0,0,.884,5.143Zm15.021-15.9a.884.884,0,0,1,0,1.767.875.875,0,0,1-.619-.256v-.009c0-.009,0,0-.009,0a.86.86,0,0,1-.256-.619A.886.886,0,0,1,50.673,33.767ZM35.652,46.138a.884.884,0,1,1-.884.884A.886.886,0,0,1,35.652,46.138Z" transform="translate(-3.842 -3.725)" fill="#000935"/>
        <path id="Trazado_799790" data-name="Trazado 799790" d="M33.884,8.836H38.3a.886.886,0,0,0,.884-.884V5.143a2.651,2.651,0,1,0-1.767,0V7.069H33.884a.884.884,0,0,0,0,1.767ZM38.3,1.767a.884.884,0,1,1-.884.884A.886.886,0,0,1,38.3,1.767Z" transform="translate(-3.841 0)" fill="#000935"/>
        <path id="Trazado_799791" data-name="Trazado 799791" d="M33.884,13.069h7.069a.9.9,0,0,0,.707-.353l2.386-3.181h2.368a2.651,2.651,0,1,0,0-1.767H43.6a.9.9,0,0,0-.707.353L40.511,11.3H33.884a.884.884,0,0,0,0,1.767ZM48.9,7.767a.884.884,0,1,1-.884.884A.886.886,0,0,1,48.9,7.767Z" transform="translate(-3.841 -0.698)" fill="#000935"/>
        <path id="Trazado_799792" data-name="Trazado 799792" d="M33.884,27.534h4.577a2.651,2.651,0,1,0,0-1.767H33.884a.884.884,0,0,0,0,1.767Zm7.069-1.767a.884.884,0,1,1-.884.884A.886.886,0,0,1,40.952,25.767Z" transform="translate(-3.841 -2.793)" fill="#000935"/>
        <path id="Trazado_799793" data-name="Trazado 799793" d="M46.448,55.335l-3.269,4.082H38.143a2.651,2.651,0,1,0,0,1.767H43.6a.884.884,0,0,0,.689-.336l3.534-4.418a.887.887,0,1,0-1.387-1.1Zm-10.8,5.849a.884.884,0,1,1,.884-.884A.886.886,0,0,1,35.651,61.184Z" transform="translate(-3.841 -6.401)" fill="#000935"/>
      </g>
    </g>
  </g>
</svg>
