<svg xmlns="http://www.w3.org/2000/svg" xmlns:xlink="http://www.w3.org/1999/xlink" width="190" height="190" viewBox="0 0 190 190">
  <defs>
    <clipPath id="clip-path">
      <circle id="Elipse_8274" data-name="Elipse 8274" cx="95" cy="95" r="95" transform="translate(285 4911)" fill="#fff" stroke="#707070" stroke-width="1"/>
    </clipPath>
    <clipPath id="clip-path-2">
      <rect id="Rectángulo_373642" data-name="Rectángulo 373642" width="196" height="125.89" fill="none"/>
    </clipPath>
    <clipPath id="clip-path-3">
      <path id="Trazado_798189" data-name="Trazado 798189" d="M81.05,6.259c-1.051,2.96-.286,9.116.191,10.885s2.851,5.07,2.851,5.07a6.382,6.382,0,0,0-.657-2.16c-.858-2.911-.19-4.868.956-4.9a3.92,3.92,0,0,1,2.958,1.991,38.278,38.278,0,0,1,.717,4.2l1,.5c0-.268-.573-4.936-.239-5.128a12.851,12.851,0,0,1,2.721,0,1.986,1.986,0,0,0,.669-.381c.334-.287,0-7.255,0-7.59s1.765-.906,1.765-.906c-1.826-2.345-5.442-3.49-8.4-3.49-2.225,0-4.08.646-4.53,1.915" transform="translate(-80.523 -4.344)" fill="none"/>
    </clipPath>
    <linearGradient id="linear-gradient" x1="-5.087" y1="8.076" x2="-5.022" y2="8.076" gradientUnits="objectBoundingBox">
      <stop offset="0" stop-color="#49515e"/>
      <stop offset="0.013" stop-color="#49515e"/>
      <stop offset="1" stop-color="#786d61"/>
    </linearGradient>
  </defs>
  <g id="Enmascarar_grupo_1059023" data-name="Enmascarar grupo 1059023" transform="translate(-285 -4911)" clip-path="url(#clip-path)">
    <rect id="Rectángulo_373640" data-name="Rectángulo 373640" width="1240" height="422" rx="10" transform="translate(180 4768)" fill="#e3eefc"/>
    <circle id="Elipse_8273" data-name="Elipse 8273" cx="95" cy="95" r="95" transform="translate(285 4911)" fill="#ffe0dd"/>
    <g id="Grupo_1064212" data-name="Grupo 1064212" transform="translate(279 4945.818)">
      <g id="Grupo_1064207" data-name="Grupo 1064207" transform="translate(0 0)">
        <g id="Grupo_1064206" data-name="Grupo 1064206" clip-path="url(#clip-path-2)">
          <path id="Trazado_798146" data-name="Trazado 798146" d="M155.156,56.754c0,17.637-11.42,22.053-22.1,22.053s-15.094-10.068-15.094-22.49,8.661-22.489,19.347-22.489,17.852,10.505,17.852,22.926" transform="translate(23.664 6.786)" fill="#6f79bf"/>
          <path id="Trazado_798147" data-name="Trazado 798147" d="M152.866,56.923c0,10.8-7.622,19.46-16.524,21.395a17.506,17.506,0,0,1-3.712.4c-10.385,0-14.675-9.954-14.675-22.227,0-8.117,3.682-15.218,9.181-19.1a16.6,16.6,0,0,1,9.624-3.126c10.387,0,16.106,10.38,16.106,22.654" transform="translate(23.663 6.875)" fill="#434b80"/>
          <path id="Trazado_798148" data-name="Trazado 798148" d="M146.2,59.3a22.275,22.275,0,0,1-9.856,18.541,17.5,17.5,0,0,1-3.712.4c-10.385,0-14.675-9.953-14.675-22.227,0-8.117,3.683-15.218,9.181-19.1a16.215,16.215,0,0,1,2.961-.273c10.385,0,16.1,10.38,16.1,22.654" transform="translate(23.663 7.352)" fill="#363c66"/>
          <path id="Trazado_798149" data-name="Trazado 798149" d="M25.739,56.57c.306,14.782,9.109,25.353,20.87,24.821,11.891-.538,20-12.9,20-26.53S56.964,30.184,45.061,30.184,25.406,40.528,25.739,56.57" transform="translate(5.161 6.055)" fill="#6f79bf"/>
          <path id="Trazado_798150" data-name="Trazado 798150" d="M27.95,55.478c0,13.468,10.306,23.964,21.875,23.964s16.343-10.92,16.343-24.388S56.79,30.666,45.221,30.666,27.95,42.009,27.95,55.478" transform="translate(5.607 6.152)" fill="#434b80"/>
          <path id="Trazado_798151" data-name="Trazado 798151" d="M87.726,41.832c.155.537-1.7,14.538.833,24.376,13.673,0,10.582.012,10.582.012s-.868-9.335.9-31.617c-7.612,1.025-12.315,7.229-12.315,7.229" transform="translate(17.496 6.942)" fill="#cfdfec"/>
          <path id="Trazado_798152" data-name="Trazado 798152" d="M100.072,34.6s-9.676,19.381-8.384,31.6c-2.681.936-3.931.16-3.931.16s-.672-7.518-.7-18.569C95.935,39.186,100.072,34.6,100.072,34.6" transform="translate(17.465 6.942)" fill="#aac9e0"/>
          <path id="Trazado_798153" data-name="Trazado 798153" d="M131.566,113.1H164.33V63.734L131.566,82.187Z" transform="translate(26.394 12.786)" fill="#fce7c5"/>
          <path id="Trazado_798154" data-name="Trazado 798154" d="M164.325,63.733v9.584L131.631,92.674h-.061V82.191Z" transform="translate(26.395 12.786)" fill="#deb97d"/>
          <rect id="Rectángulo_373641" data-name="Rectángulo 373641" width="142.334" height="30.917" transform="translate(15.626 94.973)" fill="#e3bf7a"/>
          <path id="Trazado_798155" data-name="Trazado 798155" d="M188.112,73.312l-32.7,19.359H13.015V82.187l175.1-18.453v9.578Z" transform="translate(2.611 12.786)" fill="#d6ad60"/>
          <path id="Trazado_798156" data-name="Trazado 798156" d="M164.325,63.733v9.584L131.631,92.674h-.061V82.191Z" transform="translate(26.395 12.786)" fill="#e3bf7a"/>
          <path id="Trazado_798157" data-name="Trazado 798157" d="M196,60.855v4.333L162.621,85.395H0V81.062L180.71,63.108Z" transform="translate(0 12.208)" fill="#785224"/>
          <path id="Trazado_798158" data-name="Trazado 798158" d="M168.827,60.855v4.333L135.449,85.395V81.062l18.088-17.954Z" transform="translate(27.173 12.208)" fill="#9f7336"/>
          <path id="Trazado_798159" data-name="Trazado 798159" d="M196,60.855H46.495L0,81.061H162.626Z" transform="translate(0 12.208)" fill="#fce7c5"/>
          <path id="Trazado_798160" data-name="Trazado 798160" d="M115.663,74.085c-.06.341.128,2.692.128,2.692L124.3,65.9l-.229-1.964Z" transform="translate(23.201 12.826)" fill="#d7f0fc"/>
          <path id="Trazado_798161" data-name="Trazado 798161" d="M67.077,73.65V75.8h58.458V70.891s-19.15-2.64-34.28-2C73.9,69.632,67.31,73.665,67.077,73.65" transform="translate(13.456 13.801)" fill="#b2c7d1"/>
          <path id="Trazado_798162" data-name="Trazado 798162" d="M107.939,64,96.284,74.93a4.628,4.628,0,0,0-2.273-.989c-7.222-1.606-26.937.828-26.937.828l15.08-11.181s18.261-2.394,24.281-.4a3.609,3.609,0,0,1,1.5.818" transform="translate(13.456 12.517)" fill="#fff"/>
          <path id="Trazado_798163" data-name="Trazado 798163" d="M72.8,72.373s15.112-2.716,20.146-.711l9.188-7.8s-3.746-1.905-18.93.261Z" transform="translate(14.604 12.656)" fill="#d6dfe5"/>
          <path id="Trazado_798164" data-name="Trazado 798164" d="M103.438,63.87,91.783,74.8a4.628,4.628,0,0,0-2.273-.989l12.424-10.756a3.609,3.609,0,0,1,1.5.818" transform="translate(17.957 12.649)" fill="#e9f7fd"/>
          <path id="Trazado_798165" data-name="Trazado 798165" d="M128.852,64.361s-22.51-3.76-25.79-.394L91.4,74.9c3.281-3.367,29.122-.539,29.122-.539Z" transform="translate(18.337 12.552)" fill="#fff"/>
          <path id="Trazado_798166" data-name="Trazado 798166" d="M77.029,23.39l1.581-4.8a7.077,7.077,0,0,1,4.775,1.337C86.339,22.11,95.47,33.909,95.47,33.909L80.686,53.074l-12.48.8Z" transform="translate(13.683 3.723)" fill="#c1d0dc"/>
          <path id="Trazado_798167" data-name="Trazado 798167" d="M59.921,23.574s14.1-4.06,17.949-2.987c3.244,3.628,4.464,25.258,4.464,25.258L94.9,37.893l2.245-3.707,10.164-4.357s1.431,5.9-.994,8.864C104.132,41.149,94.2,50.558,94.2,50.558s-6.551,12.211-7.88,18.3H51.467Z" transform="translate(10.325 4.094)" fill="#900"/>
          <path id="Trazado_798168" data-name="Trazado 798168" d="M88.682,37.99l.5,3.8s.6-.69,1.442-9.8l-1.941-.6Z" transform="translate(17.791 6.297)" fill="#cfdfec"/>
          <path id="Trazado_798169" data-name="Trazado 798169" d="M78.605,41.979c-.62.4,9.966-7.842,11.812-8.284s1.317,3.461.79,7.637c-1.581-4-1.748-4.667-1.748-4.667a52.046,52.046,0,0,0-10.854,5.314" transform="translate(15.764 6.753)" fill="#820000"/>
          <path id="Trazado_798170" data-name="Trazado 798170" d="M74.816,30.82,72.8,33.565a31.235,31.235,0,0,1,3.788.794c.312.227,1.468,9.492,1.468,9.492S80.691,35.364,79.42,31.8c-1.689-2.524-4.6-.98-4.6-.98" transform="translate(14.604 6.089)" fill="#820000"/>
          <path id="Trazado_798171" data-name="Trazado 798171" d="M55.93,35.912c-.312.388-10.826,18.1-11.45,30.278,14.668,0,14.668-.114,14.668-.114S61.036,49.693,66.2,36.544c-7.768-4.721-10.266-.633-10.266-.633" transform="translate(8.923 6.875)" fill="#820000"/>
          <path id="Trazado_798172" data-name="Trazado 798172" d="M38.032,57.007s-5.758-5.448-6.679-8.469A11.567,11.567,0,0,1,32.1,42.1c.7-1.4,19.772-18.048,32.5-19.051,4.764,3.264,5.458,10.7,4.925,14.064a2.42,2.42,0,0,1-1.778,1.958c-5.57,1.466-20.582,6.528-20.582,6.528l.246.648Z" transform="translate(6.252 4.623)" fill="#cfdfec"/>
          <path id="Trazado_798173" data-name="Trazado 798173" d="M70.586,57.668l-.675-3.644,4.79,2.314L78.12,59.63l3.463,5.639s-1.629,1.719-3.969-1.865c-.6-.421-.66-.836-1.653-1.968a23.411,23.411,0,0,1-5.374-3.769" transform="translate(14.025 10.838)" fill="#f4a47f"/>
          <path id="Trazado_798174" data-name="Trazado 798174" d="M63,59.065l1.581.527,2.51,2.507.417.867v2.91s.91,1.364,1.638,1.183a20.79,20.79,0,0,1,1.022-3.547l-1.075-3.041a8.384,8.384,0,0,1,1.735,2.306,11.115,11.115,0,0,1,.006,2.368S70.062,68.039,72.223,68a17.536,17.536,0,0,0,1.022-4.756L72.9,60.34l1.288,3.288s-1.277,4.31,1.309,4.243a10.661,10.661,0,0,0,.868-5.4l-.766-4.6-4.3-3.849Z" transform="translate(12.639 10.838)" fill="#f4a47f"/>
          <path id="Trazado_798175" data-name="Trazado 798175" d="M65.07,57.152c-4.828,5.454-6.151,5.777-6.151,5.777a54.567,54.567,0,0,1-10.6-3.394A36.3,36.3,0,0,1,37.87,52.9c-.02-.02-.05-.04-.071-.06,0-3.93,10.02-8.363,10.02-8.363s.12.121.333.343c.293.293.758.768,1.364,1.364C53.252,49.86,62.1,58.141,65.07,57.152" transform="translate(7.583 8.922)" fill="#f4a47f"/>
          <path id="Trazado_798176" data-name="Trazado 798176" d="M48.312,59.478a36.3,36.3,0,0,1-10.454-6.636l10.282-8.08c.293.293.758.767,1.364,1.364,0,0-9.6,8.959-1.192,13.352" transform="translate(7.595 8.98)" fill="#df8a65"/>
          <path id="Trazado_798177" data-name="Trazado 798177" d="M67.47,60.252s.843-.243.873-.654a15.678,15.678,0,0,0-2.06-2.447A6.211,6.211,0,0,0,65.1,58.172c1.012.964,2.366,2.081,2.366,2.081" transform="translate(13.061 11.465)" fill="#f8c9a4"/>
          <path id="Trazado_798178" data-name="Trazado 798178" d="M61.545,55.259s-3.8,3.044-5.58,4.185c-1.142,1.269-.433,1.849,0,2.664,1.722,3.239,9.551-1.186,10.654-2.791.92-1.337,6.214-4.715,6.214-5.274-.381-.559-11.288,1.216-11.288,1.216" transform="translate(11.103 10.82)" fill="#f8c9a4"/>
          <path id="Trazado_798179" data-name="Trazado 798179" d="M45.59,43.069l-6.545-7.433a66.948,66.948,0,0,0,5.942,4.926,13.492,13.492,0,0,0,3.746,1.458Z" transform="translate(7.833 7.149)" fill="#87aac3"/>
          <path id="Trazado_798180" data-name="Trazado 798180" d="M49.282,46.626a1.073,1.073,0,0,1-.193.172c-2.474,1.626-6.535,6.606-8.452,9.039a1.9,1.9,0,0,1-2.668.334,14.245,14.245,0,0,1-3.2-3.707c-.059-.09-.121-.191-.181-.293,0-6.039,9.928-11.029,11.463-10.745s1.556,1.019,3.374,3.706a1.175,1.175,0,0,1-.14,1.495" transform="translate(6.938 8.308)" fill="#aac9e0"/>
          <path id="Trazado_798181" data-name="Trazado 798181" d="M49.251,46.342a1.073,1.073,0,0,1-.193.172c-2.474,1.626-6.535,6.606-8.452,9.039a1.9,1.9,0,0,1-2.668.334,14.245,14.245,0,0,1-3.2-3.707c1.343-5.382,9.868-9.594,11.282-9.342,1.5.273,1.556.989,3.233,3.5" transform="translate(6.968 8.592)" fill="#cfdfec"/>
          <path id="Trazado_798182" data-name="Trazado 798182" d="M89.18,31.136l2.246.541-.269,3.046s-1.083-.86-3.793,1.305-7.395,5.147-7.395,5.147Z" transform="translate(16.043 6.246)" fill="#cfdfec"/>
          <path id="Trazado_798183" data-name="Trazado 798183" d="M73.591,20.953s-.264,11.581-.794,14.974c4.628-1.765,6.623-1.765,6.623-1.765S79.143,20.2,77.69,18.585a46.756,46.756,0,0,1-4.1,2.368" transform="translate(14.604 3.728)" fill="#cfdfec"/>
          <path id="Trazado_798184" data-name="Trazado 798184" d="M94.434,36.205c-.172-.11-.334-.222-.495-.323a9.966,9.966,0,0,0-6.232-1.636c-3.4.273-6.08,2.333-8.049,3.09,0-.626-.97-9.6-1.263-14.018a7.634,7.634,0,0,1-.01-2.424c3.393-.4,5.1-1.323,5.867-1.92a2.607,2.607,0,0,0,.576-.555l5.292-2.9s3.191,7.05,4.232,19.575a2.846,2.846,0,0,0,.02.3c.019.263.04.535.06.808" transform="translate(15.71 3.113)" fill="#f4a47f"/>
          <path id="Trazado_798185" data-name="Trazado 798185" d="M84.425,18.781s-1.1,3.535-6.029,3.96a7.7,7.7,0,0,1-.011-2.424c3.394-.4,5.1-1.323,5.869-1.92Z" transform="translate(15.71 3.691)" fill="#f8c9a4"/>
          <path id="Trazado_798186" data-name="Trazado 798186" d="M93.217,34.326s-.02.03-.06.091a2.6,2.6,0,0,1-.435.484,9.972,9.972,0,0,0-6.232-1.635c-4.747-4.576-.01-12.857-.01-12.857,1.495.343,6,11.979,6.656,13.7.05.142.08.213.08.213" transform="translate(16.927 4.094)" fill="#df8a65"/>
          <path id="Trazado_798187" data-name="Trazado 798187" d="M82.035,16.959s1.343,7.808,4.915,6.972C85.758,28.6,85.758,32.039,89.051,35s5.775,4.439,6.3,4.391,3.315-.239,3.8-1.432c.3-1.24-.083-1.718.156-1.718s4.059-7.35,4.44-8.162a12.872,12.872,0,0,0,.641-2.625,49.09,49.09,0,0,0,1.7-4.83c.095-1.185.421-5.541.429-6.291s-2.633-5.28-2.633-5.28L85.567,5.267Z" transform="translate(16.457 1.057)" fill="#f8c9a4"/>
          <path id="Trazado_798188" data-name="Trazado 798188" d="M96.924,30.1a5.688,5.688,0,0,1-3.675-1c.43,2.387,2.862,2.455,3.675,1" transform="translate(18.707 5.838)" fill="#f2987c"/>
        </g>
      </g>
      <g id="Grupo_1064209" data-name="Grupo 1064209" transform="translate(96.677 5.215)">
        <g id="Grupo_1064208" data-name="Grupo 1064208" clip-path="url(#clip-path-3)">
          <rect id="Rectángulo_373643" data-name="Rectángulo 373643" width="18.461" height="14.748" transform="translate(-1.299 17.836) rotate(-87.51)" fill="url(#linear-gradient)"/>
        </g>
      </g>
      <g id="Grupo_1064211" data-name="Grupo 1064211" transform="translate(0 0)">
        <g id="Grupo_1064210" data-name="Grupo 1064210" clip-path="url(#clip-path-2)">
          <path id="Trazado_798190" data-name="Trazado 798190" d="M80.967,7.131s6.4-.608,9.307.532,11.789,7.9,13.078,8.506a6.764,6.764,0,0,0,4.661-3.024c.191-.858-2.428-5.93-4.189-7.762-2.266-2.5-7.181-5.657-10.909-5.364C90.89,0,85.166,1.315,82.255,3.8a3.833,3.833,0,0,0-1.288,3.334" transform="translate(16.237 0)" fill="#002539"/>
          <path id="Trazado_798191" data-name="Trazado 798191" d="M99.039,6.726s2.958,3.431,2.49,4.757c1.093-.78.479-3.2-2.49-5.069Z" transform="translate(19.868 1.287)" fill="#525a6a"/>
          <path id="Trazado_798192" data-name="Trazado 798192" d="M87.641,2.941s4.008-1.973,14.367,9.721l.335-.621S94.848,3.593,92.08,2.735c-2.863-.858-4.439.207-4.439.207" transform="translate(17.582 0.482)" fill="#525a6a"/>
          <path id="Trazado_798193" data-name="Trazado 798193" d="M98.218,28.86a8.9,8.9,0,0,1-1.543,0,23.692,23.692,0,0,1-4.9-2.91c-.083-.062-.158-.121-.228-.176a5.242,5.242,0,0,0,3.884,4.183c2.381.353,2.531-.665,2.789-1.1" transform="translate(18.365 5.17)" fill="#b61c45"/>
          <path id="Trazado_798194" data-name="Trazado 798194" d="M92.453,25.359a3.178,3.178,0,0,1-.417.265,2.932,2.932,0,0,0-.381.25,3.988,3.988,0,0,1-.312.28c-.115.073-.227.136-.4.229a.531.531,0,0,1,.085-.558.939.939,0,0,1,.451-.271,3.18,3.18,0,0,1,.478-.143l.46-.077c.044.016.042.022.038.025" transform="translate(18.234 5.082)" fill="#d06d54"/>
          <path id="Trazado_798195" data-name="Trazado 798195" d="M95.546,20.656a1.721,1.721,0,0,0-.114-2.387,1.9,1.9,0,0,0-2.455.648,1.816,1.816,0,0,0,.294,2.459,1.715,1.715,0,0,0,2.275-.72" transform="translate(18.583 3.619)" fill="#f2987c"/>
          <path id="Trazado_798196" data-name="Trazado 798196" d="M95.448,20.69a1.6,1.6,0,0,0-.04-2.207,1.759,1.759,0,0,0-2.242.668,1.675,1.675,0,0,0,.2,2.268,1.6,1.6,0,0,0,2.081-.729" transform="translate(18.622 3.67)" fill="#fff"/>
          <path id="Trazado_798197" data-name="Trazado 798197" d="M95.315,20.724c.455-.653.495-1.412.089-1.7s-1.1.017-1.558.67-.495,1.413-.089,1.7,1.1-.018,1.558-.671" transform="translate(18.753 3.796)" fill="#002539"/>
          <path id="Trazado_798198" data-name="Trazado 798198" d="M99.522,19.887a26.422,26.422,0,0,1,.382,2.946,5.19,5.19,0,0,1-.192,1.5c-.115.485-.25.963-.4,1.438a14.338,14.338,0,0,1-.5,1.418,1.867,1.867,0,0,1-.208.377.4.4,0,0,1-.076.071.33.33,0,0,1-.114.054.515.515,0,0,1-.163.02,1.063,1.063,0,0,1-.233-.037,3.118,3.118,0,0,1-.731-.315,5.084,5.084,0,0,1-1.189-.966,2.9,2.9,0,0,1-.713-1.331,4.612,4.612,0,0,0,.935,1.109,5.538,5.538,0,0,0,1.181.791,3.016,3.016,0,0,0,.63.252.713.713,0,0,0,.132.02,1.6,1.6,0,0,0,.133-.24c.209-.426.391-.885.562-1.342s.323-.926.459-1.4a4.937,4.937,0,0,0,.252-1.418,26.657,26.657,0,0,0-.2-2.941c.032-.028.043-.019.046-.007" transform="translate(19.136 3.987)" fill="#d06d54"/>
          <path id="Trazado_798199" data-name="Trazado 798199" d="M92.575,26.516a4.056,4.056,0,0,0,3.32,2.86c1.943.275,1.9-.312,2.117-.665-.174.313-3.218.037-5.436-2.195" transform="translate(18.572 5.319)" fill="#fff"/>
          <path id="Trazado_798200" data-name="Trazado 798200" d="M101.133,17.206s-.507.744-.364.776a10.233,10.233,0,0,1,1.434.669c.136.1.229-.635.214-.706-.064-.088-.7-.849-1.283-.738" transform="translate(20.21 3.45)" fill="#002539"/>
          <path id="Trazado_798201" data-name="Trazado 798201" d="M93.524,16.216s-.323.575-.216.844a32.785,32.785,0,0,1,3.629.216,1.052,1.052,0,0,0,0-.988,3.627,3.627,0,0,0-3.413-.072" transform="translate(18.714 3.169)" fill="#002539"/>
          <path id="Trazado_798202" data-name="Trazado 798202" d="M94.591,19.648a.359.359,0,1,1-.359-.36.359.359,0,0,1,.359.36" transform="translate(18.832 3.869)" fill="#fff"/>
          <path id="Trazado_798203" data-name="Trazado 798203" d="M101.252,21.581c.539-.86.6-1.85.125-2.213s-1.424-.008-1.963.851a1.838,1.838,0,0,0,.008,2.261c.472.363,1.291-.04,1.83-.9" transform="translate(19.868 3.857)" fill="#f2987c"/>
          <path id="Trazado_798204" data-name="Trazado 798204" d="M101.172,21.622c.51-.812.585-1.731.167-2.052s-1.289.035-1.8.846a1.724,1.724,0,0,0-.048,2.094c.418.321,1.169-.077,1.68-.888" transform="translate(19.894 3.902)" fill="#fff"/>
          <path id="Trazado_798205" data-name="Trazado 798205" d="M101.113,21.693c.394-.653.429-1.412.077-1.7s-.957.017-1.352.67-.429,1.413-.077,1.7.958-.017,1.352-.67" transform="translate(19.965 3.99)" fill="#002539"/>
          <path id="Trazado_798206" data-name="Trazado 798206" d="M100.459,20.7a.277.277,0,1,1-.275-.318.3.3,0,0,1,.275.318" transform="translate(20.043 4.088)" fill="#fff"/>
          <path id="Trazado_798207" data-name="Trazado 798207" d="M96.109,26.606s1.386.51,1.767,0c-1.322-.921-2.023-1.274-2.419-2.419-.588.954-.3,2.565.652,2.419" transform="translate(19.089 4.852)" fill="#f2987c"/>
          <path id="Trazado_798208" data-name="Trazado 798208" d="M83.851,17.782c.277,1.328,1.007,2.243,1.63,2.058a.867.867,0,0,0,.481-.46c-.378-.022-.682-.467-.683-1.006,0-.561.328-1.021.725-1.021a.358.358,0,0,1,.161.034c-.01-.092-.029-.195-.048-.3-.277-1.328-1.007-2.255-1.64-2.058s-.9,1.423-.627,2.751" transform="translate(16.8 3.01)" fill="#f2987c"/>
          <path id="Trazado_798209" data-name="Trazado 798209" d="M114.577,59.516c-.827.914-7.145,4.32-11.3,3.159-4.029-1.129-8.284-7.306-8.284-7.306s1.611-3.847,3.222-3.536c1.86,2.171,6.705,4.437,7.854,4.824.065.022.119.032.162.043a39.112,39.112,0,0,0,4.383-2.428,17,17,0,0,1,2.825,3.213,12.659,12.659,0,0,1,1.139,2.03" transform="translate(19.056 10.395)" fill="#f4a47f"/>
          <path id="Trazado_798210" data-name="Trazado 798210" d="M111.8,57.075a30.2,30.2,0,0,1-8.66,3.3c2.364-1.277,1.923-3.094,1.289-4.125.065.022.118.032.161.043a39.179,39.179,0,0,0,4.383-2.429,17.027,17.027,0,0,1,2.826,3.213" transform="translate(20.692 10.805)" fill="#f7be94"/>
          <path id="Trazado_798211" data-name="Trazado 798211" d="M99.72,50.063c.065,1.418.742,4.147-.516,5.189-.945,1.773-3.2,2.546-4.018,1.677-.193-.205-.419-.451-.654-.71A27.676,27.676,0,0,0,92.21,53.9a4.923,4.923,0,0,0-2.064-.086c-.966.591-1.654.559-1.794,0s1.934-1.73,3.513-1.3c-.6-.365-1.311-.676-3.954-.645-1.107-.752,2.224-2.3,4.835-.311.032-.043.183-.247.065-.376a8.035,8.035,0,0,0-4.127-1.763c-1.279-1.107,2.418-2.1,5.115.71a.374.374,0,0,0,.376-.3,6.319,6.319,0,0,0-2.847-2.557c-.87-1.031,1.923-1.945,4.34,1.591.784.806,1.644,2.073,2.214,1.719a.852.852,0,0,0,.311-.451s.13-3.7,1.891-3.675c.666.215.366,1.107-.365,3.61" transform="translate(17.592 9.297)" fill="#f8c9a4"/>
          <path id="Trazado_798212" data-name="Trazado 798212" d="M112.006,59.981c-.384.095-1.47-.674-2.442-1.782-1.071-1.211-2-2.826-1.723-4.128.968-.561,4.1-2.9,5.558-4,.466-.348.76-.574.76-.574L115.3,50.91c.469,2.821-2.488,8.867-3.292,9.071" transform="translate(21.624 9.93)" fill="#eece21"/>
          <path id="Trazado_798213" data-name="Trazado 798213" d="M113.4,49.974a14.8,14.8,0,0,1-3.08,8.46c-.271-.108-.52-.217-.754-.33-1.072-1.211-2-2.826-1.723-4.128.968-.561,4.1-2.9,5.556-4" transform="translate(21.624 10.025)" fill="#fff01f"/>
          <path id="Trazado_798214" data-name="Trazado 798214" d="M133.741,63.551H109.9c1.8-2.418,3.287-11.743,3.836-13.635.741-1.342,6.587-2.525,6.843-2.525.785.011,2.418.151,4.19.377,3.052.387,6.543,1.021,6.91,1.622.612,1.611,2.063,14.161,2.063,14.161" transform="translate(22.047 9.507)" fill="#fff01f"/>
          <path id="Trazado_798215" data-name="Trazado 798215" d="M129.587,59.153l-2.8-3.686s5.541-2.285,6.3-1.784a23.456,23.456,0,0,1,2.682,2.883,8.521,8.521,0,0,1-6.183,2.587" transform="translate(25.435 10.755)" fill="#f4a47f"/>
          <path id="Trazado_798216" data-name="Trazado 798216" d="M123.026,63.488c3.245-8.456,1.342-11.429,1.342-11.429l-2.084-4.355c3.052.387,6.543,1.021,6.91,1.622.612,1.611,2.063,14.161,2.063,14.161Z" transform="translate(24.532 9.57)" fill="#f5d422"/>
          <path id="Trazado_798217" data-name="Trazado 798217" d="M127.133,57.679s-2.01-3.022-3.011-4.7c-.734-1.813,2.649-4.835,4.718-3.895s5.04,5.249,5.04,5.249-1.665,3.062-6.747,3.346" transform="translate(24.88 9.811)" fill="#fff01f"/>
          <path id="Trazado_798218" data-name="Trazado 798218" d="M138.843,59.942c-.193,1.192-3.363,2.868-5.588,3.331a21.221,21.221,0,0,1-6.114-.289c-.708-.119-1.289-.237-1.644-.334a1.468,1.468,0,0,1-.333-.107,29.191,29.191,0,0,1-2.568-3.471s.515-.182,1.343-.484c3.19-1.127,10.99-3.814,11.571-3.385a13.06,13.06,0,0,1,3.244,4.127,1.17,1.17,0,0,1,.086.612" transform="translate(24.595 11.065)" fill="#f8c9a4"/>
          <path id="Trazado_798219" data-name="Trazado 798219" d="M127.984,61.862a1.015,1.015,0,0,1-.172.72,3.355,3.355,0,0,1-1.365,1.268c1.129.2.011,2.3-1.923,2.191-1.525.108-4.716-3.191-5.265-3.685,0,0,.011-1.795.377-2.192s3.631-3.685,4.19-2.89a11.793,11.793,0,0,0,.784.912c.86.914,2.128,2.2,2.848,3a3.561,3.561,0,0,1,.526.677" transform="translate(23.925 11.465)" fill="#f8c9a4"/>
          <path id="Trazado_798220" data-name="Trazado 798220" d="M137.023,41.932,132.1,50.19a3.1,3.1,0,0,0-1.2.158c-2.808,2.406-4.949.67-4.949.67l-.495.686s-3.1,3.8-6.871,4a2.226,2.226,0,0,1-2.234-1.764l.191-3.25-1.987-1.274c-1.495-1.2-2.037-4.065-1.563-6.181S116.21,37.3,116.21,37.3a51.687,51.687,0,0,1,2.854-5.134c1.829-2.547,7.5-2.632,7.5-2.632,10.46,1.546,10.463,12.394,10.463,12.394" transform="translate(22.633 5.926)" fill="#fed1a7"/>
          <path id="Trazado_798221" data-name="Trazado 798221" d="M128.436,45.343c.234.574-.421,1.383-1.461,1.807s-2.073.3-2.308-.27.419-1.383,1.46-1.807,2.073-.3,2.309.27" transform="translate(25 8.991)" fill="#f4a47f"/>
          <path id="Trazado_798222" data-name="Trazado 798222" d="M116.449,47.725a.308.308,0,0,0,.241.116c1.555.076,2.6.731,4.65,3.092,3.381-1.909,3.751-3.1,3.751-3.1s-3.958,0-7.13-.228Z" transform="translate(23.361 9.551)" fill="#f4a47f"/>
          <path id="Trazado_798223" data-name="Trazado 798223" d="M118.728,47.923a10.885,10.885,0,0,1-4.684-2.028,8.287,8.287,0,0,0,2.142,2.006l-.037,2.312a3.981,3.981,0,0,1,2.579-2.291" transform="translate(22.879 9.207)" fill="#d06d54"/>
          <path id="Trazado_798224" data-name="Trazado 798224" d="M124.79,48.5a2.016,2.016,0,0,1-.366-2.365c-.833,1.938-3.4,1.9-3.4,1.9Z" transform="translate(24.28 9.254)" fill="#d06d54"/>
          <path id="Trazado_798225" data-name="Trazado 798225" d="M123.836,47.449l-.5.442.82.522a10.723,10.723,0,0,0,4.2-.753c.311-.144-.079-.471-.327-.262-3.01,1.354-4.191.05-4.191.05" transform="translate(24.743 9.495)" fill="#804a2b"/>
          <path id="Trazado_798226" data-name="Trazado 798226" d="M137.924,44.124a9.561,9.561,0,0,1-.645,1.359c-1.269,2.243-3.692,4.532-7.84,5.9-.311.047-.239-.231-.426-.257,1.785-1.012,2.687-2.794,1.183-4.374-.944-.987-2.9.376-2.9.376l-.795-.795c3.093-1.675,2.333-3.682,1.979-4.724-.347-1.022,1.264-2.226,3.589-3.482-.646-.795-6.114-3.871-6.114-3.871l1.106-.355c-5.212-.986-6.189-2.2-6.189-2.2s-.056-.376,1.256-.752c-1.71-.419-2.752.03-4.2,1.44a4.74,4.74,0,0,1,1.538-2.213,5.017,5.017,0,0,1,1.418-.83c.12-.05.239-.1.359-.14a9.43,9.43,0,0,1,3.828-.363,21.6,21.6,0,0,1,10.21,3.746c1.222,1.436,2.718,3.682,2.743,5.6a2.967,2.967,0,0,1-.158,1.069c.68.718.9,2.67.06,4.874" transform="translate(23.658 5.777)" fill="#804a2b"/>
          <path id="Trazado_798227" data-name="Trazado 798227" d="M122.467,33.348a11.577,11.577,0,0,1,1.708-.369,10.475,10.475,0,0,1,1.77-.079,5.554,5.554,0,0,1,1.767.321,3.6,3.6,0,0,1,1.441,1.072c-.569-.221-1.073-.439-1.608-.6a13.321,13.321,0,0,0-1.636-.393,10.169,10.169,0,0,0-1.712-.071,12.022,12.022,0,0,0-1.732.17c-.011-.046,0-.049,0-.049" transform="translate(24.567 6.598)" fill="#8c5131"/>
          <path id="Trazado_798228" data-name="Trazado 798228" d="M123.645,34.339a11.15,11.15,0,0,1,3.6-.31,6.183,6.183,0,0,1,1.8.363,4.191,4.191,0,0,1,1.519,1.042c-.6-.19-1.126-.412-1.684-.573a16.361,16.361,0,0,0-1.686-.436,11.37,11.37,0,0,0-1.764-.14,11.5,11.5,0,0,0-1.781.1c-.031-.031-.023-.044-.01-.048" transform="translate(24.802 6.82)" fill="#8c5131"/>
          <path id="Trazado_798229" data-name="Trazado 798229" d="M124.74,46.141c.239-.227.522-.491.806-.714a5.5,5.5,0,0,1,.947-.593,1.812,1.812,0,0,1,1.163-.225,1.144,1.144,0,0,1,.87.795,2.307,2.307,0,0,0-.942-.3,2.761,2.761,0,0,0-.947.1,5.323,5.323,0,0,0-.956.43c-.323.164-.591.37-.944.557a.037.037,0,0,1,0-.05" transform="translate(25.022 8.943)" fill="#d06d54"/>
          <path id="Trazado_798230" data-name="Trazado 798230" d="M114.264,41.68a8.042,8.042,0,0,0,1.964,1.2c.351.151.723.211,1.07.336s.711.2,1.106.327a1.943,1.943,0,0,1-1.22.158,3.411,3.411,0,0,1-1.131-.463,6.589,6.589,0,0,1-1.825-1.528c.012-.042.026-.041.036-.034" transform="translate(22.916 8.361)" fill="#d06d54"/>
          <path id="Trazado_798231" data-name="Trazado 798231" d="M117.878,42.557a2.174,2.174,0,0,1,.038.873.924.924,0,0,1-.132.436.669.669,0,0,1-.391.27,1.151,1.151,0,0,1,.061-.443,3.183,3.183,0,0,1,.174-.343,3.167,3.167,0,0,0,.213-.789c.028-.017.035-.011.037,0" transform="translate(23.55 8.536)" fill="#d06d54"/>
          <path id="Trazado_798232" data-name="Trazado 798232" d="M117.075,38.417c-.633.059-1.261.108-1.9.113l.076-.012a.593.593,0,0,0-.207.469,1.956,1.956,0,0,0,.09.61,2.94,2.94,0,0,0,.658,1.162,1.467,1.467,0,0,1-1.151-1.011,1.571,1.571,0,0,1-.031-.827.949.949,0,0,1,.513-.725c.693.059,1.328.108,1.957.172.022.038.012.048,0,.049" transform="translate(22.983 7.663)" fill="#d06d54"/>
          <path id="Trazado_798233" data-name="Trazado 798233" d="M118.651,33.785s-.119.713-.3.6a1.575,1.575,0,0,0-1.528-.532c-.1-.319.621-.6.927-.646a.842.842,0,0,1,.9.574" transform="translate(23.434 6.661)" fill="#002539"/>
          <path id="Trazado_798234" data-name="Trazado 798234" d="M123.572,38.293s-.119.718-.325.394a4.842,4.842,0,0,0-1.688-1.916.785.785,0,0,1,.413-.79s1.141-.055,1.6,2.312" transform="translate(24.385 7.218)" fill="#002539"/>
          <path id="Trazado_798235" data-name="Trazado 798235" d="M116.865,36.551a1.584,1.584,0,0,1-1.52,1.935c-.527-.223-.131-1.542.275-1.958s.965-.645,1.245.023" transform="translate(23.089 7.248)" fill="#fff"/>
          <path id="Trazado_798236" data-name="Trazado 798236" d="M121.26,39.045a2.356,2.356,0,0,1,.216,2.1c-.495.987-2.072.067-2.159-.185s-.33-1.393,1.486-2.164c.283-.059.456.252.456.252" transform="translate(23.924 7.781)" fill="#fff"/>
          <path id="Trazado_798237" data-name="Trazado 798237" d="M116.566,37.658s.226-1.518-1.007-1.736a1.113,1.113,0,0,1,1.3.481,1.269,1.269,0,0,1-.288,1.255" transform="translate(23.183 7.201)" fill="#002539"/>
          <path id="Trazado_798238" data-name="Trazado 798238" d="M121.322,41.016s.163-1.668-.885-2.3c.8-.2,1.6,1.143.885,2.3" transform="translate(24.161 7.764)" fill="#002539"/>
          <path id="Trazado_798239" data-name="Trazado 798239" d="M119.416,39.759c-.3.551-.25,1.153.1,1.343s.882-.1,1.179-.652.25-1.153-.1-1.343-.882.1-1.179.652" transform="translate(23.917 7.834)" fill="#002539"/>
          <path id="Trazado_798240" data-name="Trazado 798240" d="M119.905,40.049a.371.371,0,1,0,.378-.364.371.371,0,0,0-.378.364" transform="translate(24.054 7.961)" fill="#fff"/>
          <path id="Trazado_798241" data-name="Trazado 798241" d="M115.146,37.027c-.3.551-.28,1.136.036,1.306s.814-.138,1.111-.689.28-1.136-.037-1.306-.813.138-1.109.689" transform="translate(23.057 7.28)" fill="#002539"/>
          <path id="Trazado_798242" data-name="Trazado 798242" d="M115.518,37.251a.371.371,0,1,0,.378-.364.371.371,0,0,0-.378.364" transform="translate(23.174 7.4)" fill="#fff"/>
          <path id="Trazado_798243" data-name="Trazado 798243" d="M133.115,36.088a11.974,11.974,0,0,0,4.413,2.1,2.971,2.971,0,0,1-.158,1.069,19.708,19.708,0,0,1-4.268-2.368c-3.891-2.879-8.834-6.156-12.708-7.543.115-.048.234-.095.354-.137a8.567,8.567,0,0,1,3.828-.364,38.742,38.742,0,0,1,8.54,7.246" transform="translate(24.152 5.773)" fill="#9e6443"/>
          <path id="Trazado_798244" data-name="Trazado 798244" d="M135.889,42.566a9.561,9.561,0,0,1-.645,1.359,23.89,23.89,0,0,1-7.169-5.729s-.17-.342,1.957-1.632a29.626,29.626,0,0,0,5.857,6" transform="translate(25.693 7.335)" fill="#9e6443"/>
          <path id="Trazado_798245" data-name="Trazado 798245" d="M139.513,59.244c-.193,1.192-3.363,2.868-5.588,3.331a21.221,21.221,0,0,1-6.114-.289,3.351,3.351,0,0,1-1.364,1.268c1.127.2.011,2.3-1.923,2.191-1.526.108-4.717-3.191-5.265-3.685,0,0,.011-1.795.376-2.192,0,0,3.664,3.449,4.524,3.309a6.307,6.307,0,0,0,2.009-1.225c.7-.547,1.289-1.064,1.289-1.064s8.628-.58,11.969-2.256a1.17,1.17,0,0,1,.086.612" transform="translate(23.925 11.762)" fill="#f4a47f"/>
          <path id="Trazado_798246" data-name="Trazado 798246" d="M114.53,41.934a5.371,5.371,0,0,1-.2,2.817c.016.712,2.224.926,3.454-1.067-.363-.2-2.338-.52-3.254-1.749" transform="translate(22.936 8.412)" fill="#b0173c"/>
          <path id="Trazado_798247" data-name="Trazado 798247" d="M114.687,42.29a9.505,9.505,0,0,0,2.6,1.168c-1.257.892-2.9-.2-2.6-1.168" transform="translate(23.001 8.484)" fill="#fff"/>
          <path id="Trazado_798248" data-name="Trazado 798248" d="M114.49,44.193a1.367,1.367,0,0,1,.857-.563c.693-.22,1.551.217,1.491.5a1.723,1.723,0,0,1-2.348.067" transform="translate(22.968 8.741)" fill="#f3796a"/>
          <path id="Trazado_798249" data-name="Trazado 798249" d="M114.467,43.878c.1-.016,1.2.694,1.8.561-1.352.768-1.933-.078-1.933-.078Z" transform="translate(22.936 8.802)" fill="#fff"/>
          <path id="Trazado_798250" data-name="Trazado 798250" d="M97.883,54.64a5.073,5.073,0,0,0-3.352,1.58A27.494,27.494,0,0,0,92.21,53.9a4.9,4.9,0,0,0-2.063-.086c-.968.591-1.654.558-1.795,0s1.934-1.73,3.514-1.3c-.6-.365-1.311-.677-3.955-.645-1.107-.752,2.225-2.3,4.835-.311.032-.043.184-.247.065-.377a8.036,8.036,0,0,0-4.125-1.761c-1.279-1.107,2.417-2.1,5.113.708a.375.375,0,0,0,.377-.3,6.328,6.328,0,0,0-2.848-2.557.476.476,0,0,1,.172-.816c.72-.345,2.536.011,4.17,2.406.784.807,1.644,2.075,2.213,1.719-.72.957-.849,3.341,0,4.062" transform="translate(17.592 9.296)" fill="#f5b688"/>
          <path id="Trazado_798251" data-name="Trazado 798251" d="M95.389,49.418c-.451.139-.505.43-1.053.7s-.623.73-1.192,1.225-.451,1.107-.666,1.386c-.549.688-.291,1.139-.269,1.161a4.917,4.917,0,0,0-2.063-.086c-.968.591-1.654.559-1.795,0s1.934-1.73,3.514-1.3c-.6-.365-1.311-.676-3.955-.645-1.106-.752,2.225-2.3,4.835-.311.032-.043.184-.247.065-.376a8.035,8.035,0,0,0-4.125-1.763c-1.279-1.107,2.417-2.1,5.113.71a.376.376,0,0,0,.377-.3,6.328,6.328,0,0,0-2.848-2.557.477.477,0,0,1,.172-.816c2.075-.468,4.244,2.859,3.89,2.976" transform="translate(17.592 9.308)" fill="#f29a72"/>
          <path id="Trazado_798252" data-name="Trazado 798252" d="M92.825,18.6a9.241,9.241,0,0,0,4,.216c-.587-.288-.587-.216-.587-.216a25.22,25.22,0,0,0-3.415,0" transform="translate(18.622 3.717)" fill="#002539"/>
          <path id="Trazado_798253" data-name="Trazado 798253" d="M99.471,19.936a18.519,18.519,0,0,0,2.877.292c0-.292-.394-.442-.394-.442a3.908,3.908,0,0,0-2.483.15" transform="translate(19.955 3.942)" fill="#002539"/>
          <path id="Trazado_798254" data-name="Trazado 798254" d="M99.231,19.95a16.316,16.316,0,0,0,2.5-.095c-.083-1.065-1.711-1.279-2.5.095" transform="translate(19.907 3.809)" fill="#f8c9a4"/>
          <path id="Trazado_798255" data-name="Trazado 798255" d="M92.575,18.756s3.083-.13,3.4-.065c-.249-.975-2.186-1.582-3.4.065" transform="translate(18.572 3.557)" fill="#f8c9a4"/>
          <path id="Trazado_798256" data-name="Trazado 798256" d="M37.827,73.309a3.185,3.185,0,0,0,.653,2.136H15.548s-.786-.457-.786-2.1a2.517,2.517,0,0,1,.786-2.166H38.48a3.163,3.163,0,0,0-.653,2.131" transform="translate(2.961 14.279)" fill="#94b843"/>
          <path id="Trazado_798257" data-name="Trazado 798257" d="M37.818,73.327A3.6,3.6,0,0,0,38.48,75.5c.062.1,0,.4,0,.4H15.563a3.329,3.329,0,0,1-.8-2.536c0-1.867.8-2.453.8-2.453H38.48a3.844,3.844,0,0,0-.663,2.414" transform="translate(2.962 14.226)" fill="#94b843"/>
          <path id="Trazado_798258" data-name="Trazado 798258" d="M37.773,73.309a3.185,3.185,0,0,0,.653,2.136H15.815s-.786-.457-.786-2.1a2.517,2.517,0,0,1,.786-2.166H38.427a3.163,3.163,0,0,0-.653,2.131" transform="translate(3.015 14.279)" fill="#b2c7d1"/>
          <path id="Trazado_798259" data-name="Trazado 798259" d="M38.378,72.581l15.334-8.015v-.4H32.922L15.276,72.342v.4Z" transform="translate(3.064 12.873)" fill="#94b843"/>
          <path id="Trazado_798260" data-name="Trazado 798260" d="M38.378,72.184l15.334-8.015H32.922L15.276,72.343Z" transform="translate(3.064 12.873)" fill="#9fcc3b"/>
          <path id="Trazado_798261" data-name="Trazado 798261" d="M49.963,64.72a3.975,3.975,0,0,0,0,3.828v.222L34.627,76.784a4.572,4.572,0,0,1-.2-4.267l7.258-3.747L49.963,64.5Z" transform="translate(6.816 12.939)" fill="#fff"/>
          <path id="Trazado_798262" data-name="Trazado 798262" d="M34.518,76.108v.4L49.89,68.224l-.036-.352Z" transform="translate(6.925 13.616)" fill="#94b843"/>
          <path id="Trazado_798263" data-name="Trazado 798263" d="M38.068,68.253a3.185,3.185,0,0,0,.653,2.136H15.789S15,69.932,15,68.288a2.521,2.521,0,0,1,.786-2.167H38.721a3.169,3.169,0,0,0-.653,2.132" transform="translate(3.01 13.265)" fill="#94b843"/>
          <path id="Trazado_798264" data-name="Trazado 798264" d="M38.059,68.272a2.856,2.856,0,0,0,.662,1.969c.062.1,0,.45,0,.45H15.8s-.8-.517-.8-2.381.8-2.453.8-2.453H38.72a3.848,3.848,0,0,0-.662,2.414" transform="translate(3.011 13.212)" fill="#cd661b"/>
          <path id="Trazado_798265" data-name="Trazado 798265" d="M38.042,68.135a2.967,2.967,0,0,0,.621,2.063H16.05s-.779-.442-.754-2.029a2.443,2.443,0,0,1,.82-2.093H38.728a3.047,3.047,0,0,0-.687,2.059" transform="translate(3.068 13.256)" fill="#b2c7d1"/>
          <path id="Trazado_798266" data-name="Trazado 798266" d="M38.457,67.527l15.5-7.8,0-.616H33.163L15.516,67.286v.4Z" transform="translate(3.113 11.859)" fill="#cd661b"/>
          <path id="Trazado_798267" data-name="Trazado 798267" d="M38.618,67.128l15.334-8.015H33.163L15.516,67.287Z" transform="translate(3.113 11.859)" fill="#f99d2f"/>
          <path id="Trazado_798268" data-name="Trazado 798268" d="M50.2,59.841a3.781,3.781,0,0,0-.333,1.849,3.283,3.283,0,0,0,.462,1.848l0,.215-15.46,7.739a4.208,4.208,0,0,1-.162-4.068l7.343-3.671L50.2,59.626Z" transform="translate(6.868 11.962)" fill="#fff"/>
          <path id="Trazado_798269" data-name="Trazado 798269" d="M34.758,70.852v.45l15.493-8.213-.036-.273Z" transform="translate(6.973 12.602)" fill="#cd661b"/>
          <path id="Trazado_798270" data-name="Trazado 798270" d="M95.97,71.694a44.066,44.066,0,0,1,10.092-.145l7.392-7.779a30.453,30.453,0,0,0-9.341.316Z" transform="translate(19.253 12.748)" fill="#d6dfe5"/>
          <path id="Trazado_798271" data-name="Trazado 798271" d="M106.66,69.535c1.456.115,7.2.576,10.813,1.171l-.653.8-11.048-1.017Z" transform="translate(21.219 13.95)" fill="#b2c7d1"/>
          <path id="Trazado_798272" data-name="Trazado 798272" d="M122.69,65.121l-5.062,6.237c-3.563-.576-9.189-1.039-10.757-1.162l5.835-6.262s2.346.187,4.995.414a39.642,39.642,0,0,1,4.99.773" transform="translate(21.44 12.826)" fill="#d6dfe5"/>
          <path id="Trazado_798273" data-name="Trazado 798273" d="M142.457,65.8a.83.83,0,0,1-.671.812L129.7,68.978l-2.276-.307,1.952-1.324.064-.013,12.025-2.354a.832.832,0,0,1,.975.654.744.744,0,0,1,.017.162" transform="translate(25.563 13.032)" fill="#33aed1"/>
          <path id="Trazado_798274" data-name="Trazado 798274" d="M129.76,68.074a2.2,2.2,0,0,1-.06.508l-2.276-.307,1.952-1.324.064-.013a2.1,2.1,0,0,1,.321,1.137" transform="translate(25.563 13.428)" fill="#79d0e6"/>
          <path id="Trazado_798275" data-name="Trazado 798275" d="M137.024,63.322a.831.831,0,0,1-.531.909l-11.546,4.287-2.3.064,1.713-1.622.061-.023,11.49-4.261a.83.83,0,0,1,1.066.489.727.727,0,0,1,.043.157" transform="translate(24.605 12.563)" fill="#d92128"/>
          <path id="Trazado_798276" data-name="Trazado 798276" d="M124.924,67.286a2.23,2.23,0,0,1,.023.511l-2.3.064,1.713-1.622.061-.023a2.094,2.094,0,0,1,.5,1.07" transform="translate(24.605 13.284)" fill="#f4a47f"/>
        </g>
      </g>
    </g>
  </g>
</svg>
