<svg xmlns="http://www.w3.org/2000/svg" xmlns:xlink="http://www.w3.org/1999/xlink" width="190" height="190" viewBox="0 0 190 190">
  <defs>
    <clipPath id="clip-path">
      <circle id="Elipse_8276" data-name="Elipse 8276" cx="95" cy="95" r="95" transform="translate(285 4911)" fill="#fff" stroke="#707070" stroke-width="1"/>
    </clipPath>
    <clipPath id="clip-path-2">
      <rect id="Rectángulo_373668" data-name="Rectángulo 373668" width="201.772" height="138.392" fill="none"/>
    </clipPath>
    <clipPath id="clip-path-4">
      <path id="Trazado_798319" data-name="Trazado 798319" d="M15.8,62.359s1.656,8.063.578,8.891-.6,2.967,1.048,4.37,3.868.228,3.868.228,1.854,2.9,2.2,3.327a8.549,8.549,0,0,0,7.184,1.509c-9.072-5.864-5.8-18.325-5.8-18.325a14.155,14.155,0,0,0-3.559-.345,52.584,52.584,0,0,0-5.513.345" fill="none"/>
    </clipPath>
    <linearGradient id="linear-gradient" x1="-0.531" y1="3.24" x2="-0.486" y2="3.24" gradientUnits="objectBoundingBox">
      <stop offset="0" stop-color="#fdca99"/>
      <stop offset="1" stop-color="#f4a47f"/>
    </linearGradient>
    <clipPath id="clip-path-5">
      <path id="Trazado_798320" data-name="Trazado 798320" d="M13.837,63.652c-.474,1.337.949,6.123,2.372,7.6,1.94-1.586,4.4,1.113,4.4,1.113l.819-.329a26.381,26.381,0,0,1-1.508-2.758,29.112,29.112,0,0,0,2.371-1.829.617.617,0,0,0,.3-.776c-.043-.216-1.509-3.32-1.509-3.751s.776-1.035.776-1.035c-2.156,0-7.546.431-8.021,1.767" fill="none"/>
    </clipPath>
    <linearGradient id="linear-gradient-2" x1="-0.8" y1="5.571" x2="-0.728" y2="5.571" gradientUnits="objectBoundingBox">
      <stop offset="0" stop-color="#784d40"/>
      <stop offset="0.013" stop-color="#784d40"/>
      <stop offset="0.341" stop-color="#b07260"/>
      <stop offset="1" stop-color="#f4a47f"/>
    </linearGradient>
    <clipPath id="clip-path-7">
      <rect id="Rectángulo_373650" data-name="Rectángulo 373650" width="5.538" height="7.665" transform="translate(45.487 67.156)" fill="none"/>
    </clipPath>
    <clipPath id="clip-path-8">
      <path id="Trazado_798406" data-name="Trazado 798406" d="M49.289,74.821l-.99-.658a4.316,4.316,0,0,1-2.135-2.273c-.752-1.736-.952-2.672-.214-4.189.814-1.369,4.6.271,4.6.271l.479,6.6Z" fill="none"/>
    </clipPath>
    <linearGradient id="linear-gradient-3" x1="-4.72" y1="10.266" x2="-4.612" y2="10.266" gradientUnits="objectBoundingBox">
      <stop offset="0" stop-color="#b8c3d5"/>
      <stop offset="0.005" stop-color="#b8c3d5"/>
      <stop offset="1" stop-color="#fff"/>
    </linearGradient>
    <clipPath id="clip-path-9">
      <rect id="Rectángulo_373652" data-name="Rectángulo 373652" width="7.337" height="3.506" transform="translate(48.677 73.615)" fill="none"/>
    </clipPath>
    <clipPath id="clip-path-10">
      <path id="Trazado_798411" data-name="Trazado 798411" d="M56.014,75.892a2.284,2.284,0,0,1-.84,1.123c-.676.466-4.255-.631-6.282-2.56l-.215-.631a2.958,2.958,0,0,0,2.458-.108c1.283-.664,4.879,2.176,4.879,2.176" fill="none"/>
    </clipPath>
    <linearGradient id="linear-gradient-4" x1="-9.176" y1="8.508" x2="-8.991" y2="8.508" xlink:href="#linear-gradient-3"/>
    <clipPath id="clip-path-11">
      <rect id="Rectángulo_373654" data-name="Rectángulo 373654" width="6.032" height="11.913" transform="translate(59.797 64.265)" fill="none"/>
    </clipPath>
    <clipPath id="clip-path-12">
      <path id="Trazado_798414" data-name="Trazado 798414" d="M59.8,75.646l.639.533a8.582,8.582,0,0,0,4.332-4.784,9.223,9.223,0,0,0,.613-7.13c-1.974.008-3.678,1.917-3.678,1.917Z" fill="none"/>
    </clipPath>
    <linearGradient id="linear-gradient-5" x1="-4.464" y1="9.015" x2="-4.385" y2="9.015" xlink:href="#linear-gradient-3"/>
    <clipPath id="clip-path-13">
      <rect id="Rectángulo_373656" data-name="Rectángulo 373656" width="8.104" height="5.082" transform="translate(53.599 72.259)" fill="none"/>
    </clipPath>
    <clipPath id="clip-path-14">
      <path id="Trazado_798417" data-name="Trazado 798417" d="M61.7,73.487l-.128,1.071a3.077,3.077,0,0,1-1.139,1.621c-1.244.649-3.616,1.64-5.257.9a2.861,2.861,0,0,1-1.58-1.572l2.874-3.247Z" fill="none"/>
    </clipPath>
    <linearGradient id="linear-gradient-6" x1="-8.186" y1="7.699" x2="-8.036" y2="7.699" xlink:href="#linear-gradient-3"/>
    <clipPath id="clip-path-15">
      <rect id="Rectángulo_373658" data-name="Rectángulo 373658" width="8.232" height="6.938" transform="translate(48.471 64.41)" fill="none"/>
    </clipPath>
    <clipPath id="clip-path-16">
      <path id="Trazado_798422" data-name="Trazado 798422" d="M53.219,64.41a9.769,9.769,0,0,0-3.142.524,3.384,3.384,0,0,0-1.517,3.427,5.229,5.229,0,0,0,1.724,2.862c.738.417,4.885-.339,4.885-.339L56.7,66.635Z" fill="none"/>
    </clipPath>
    <linearGradient id="linear-gradient-7" x1="-5.798" y1="8.054" x2="-5.678" y2="8.054" xlink:href="#linear-gradient-3"/>
    <clipPath id="clip-path-17">
      <rect id="Rectángulo_373660" data-name="Rectángulo 373660" width="7.216" height="5.925" transform="translate(48.548 58.175)" fill="none"/>
    </clipPath>
    <clipPath id="clip-path-18">
      <path id="Trazado_798425" data-name="Trazado 798425" d="M53.4,58.175s2.058,2.209.244,3.633-4.444,1.4-5.091.694c.055,1.434.9,1.6.9,1.6l3.486-.551a7.536,7.536,0,0,1,2.831-2.69,7.671,7.671,0,0,0-1.141-2.346Z" fill="none"/>
    </clipPath>
    <linearGradient id="linear-gradient-8" x1="-7.087" y1="10.189" x2="-6.941" y2="10.189" xlink:href="#linear-gradient-3"/>
    <clipPath id="clip-path-19">
      <rect id="Rectángulo_373662" data-name="Rectángulo 373662" width="6.269" height="3.732" transform="translate(55.764 59.001)" fill="none"/>
    </clipPath>
    <clipPath id="clip-path-20">
      <path id="Trazado_798426" data-name="Trazado 798426" d="M56.505,60.421c.221.073,2.262,1.357,3.156,1.177s2.877-.6,1.281-2.6a2.834,2.834,0,0,1,1.066,2.636l-2.319,1.1s-3.03-1.566-3.925-1.874Z" fill="none"/>
    </clipPath>
    <linearGradient id="linear-gradient-9" x1="-12.245" y1="11.228" x2="-12.029" y2="11.228" xlink:href="#linear-gradient-3"/>
    <clipPath id="clip-path-21">
      <rect id="Rectángulo_373664" data-name="Rectángulo 373664" width="4.377" height="6.483" transform="translate(60.135 62.382)" fill="none"/>
    </clipPath>
    <clipPath id="clip-path-22">
      <path id="Trazado_798427" data-name="Trazado 798427" d="M62.008,68.842a20.779,20.779,0,0,1-1.7-2.767,4.789,4.789,0,0,1,.2-2.866,3.538,3.538,0,0,1,1.912-.822c.858.118,1.81,1.757,2.023,2.02s-.023,3.5-.658,4.051a2.551,2.551,0,0,1-1.77.384" fill="none"/>
    </clipPath>
    <linearGradient id="linear-gradient-10" x1="-8.021" y1="13.249" x2="-7.884" y2="13.249" xlink:href="#linear-gradient-3"/>
    <clipPath id="clip-path-23">
      <rect id="Rectángulo_373666" data-name="Rectángulo 373666" width="7.16" height="6.764" transform="translate(54.551 67.083)" fill="none"/>
    </clipPath>
    <clipPath id="clip-path-24">
      <path id="Trazado_798428" data-name="Trazado 798428" d="M56.389,67.643a31.975,31.975,0,0,1-1.762,3.913c-.417,1.39.968,2.256,2.233,2.289a7.965,7.965,0,0,0,3.46-.853c.621-.357,1.642-2.629,1.335-3.326a7.285,7.285,0,0,0-1.745-2.345c-.785-.684-3.521.322-3.521.322" fill="none"/>
    </clipPath>
    <linearGradient id="linear-gradient-11" x1="-6.539" y1="8.342" x2="-6.417" y2="8.342" xlink:href="#linear-gradient-3"/>
  </defs>
  <g id="Enmascarar_grupo_1059024" data-name="Enmascarar grupo 1059024" transform="translate(-285 -4911)" clip-path="url(#clip-path)">
    <rect id="Rectángulo_373645" data-name="Rectángulo 373645" width="1240" height="422" rx="10" transform="translate(180 4768)" fill="#e3eefc"/>
    <circle id="Elipse_8275" data-name="Elipse 8275" cx="95" cy="95" r="95" transform="translate(285 4911)" fill="#ffe0dd"/>
    <g id="Grupo_1064267" data-name="Grupo 1064267" transform="translate(293.228 4932)">
      <g id="Grupo_1064266" data-name="Grupo 1064266" clip-path="url(#clip-path-2)">
        <g id="Grupo_1064214" data-name="Grupo 1064214">
          <g id="Grupo_1064213" data-name="Grupo 1064213" clip-path="url(#clip-path-2)">
            <path id="Trazado_798277" data-name="Trazado 798277" d="M128.225,96.125c.326,1.982-.368,9.295-.368,9.295s-7.043.661-9.579-1.191a119.094,119.094,0,0,0-2.126-12.207,5.435,5.435,0,0,1-.688-3.42,3.981,3.981,0,0,1,.888-1.87c1.219-5.271,7.672-14.952,10.766-18.339a1.843,1.843,0,0,1,1.572-.6c3.852.28,10.668,9.17,10.668,9.17s-7.816,7.648-13.808,13.2c1.945,4.508,2.349,3.968,2.675,5.955" fill="#f4a47f"/>
            <path id="Trazado_798278" data-name="Trazado 798278" d="M130.71,69.779s-10.137,9.188-13.724,18.027c-.558.256-1.079.54-1.521.8a3.953,3.953,0,0,1,.888-1.87c1.219-5.271,7.672-14.952,10.765-18.339a1.841,1.841,0,0,1,1.573-.6c.005,0,2.019,1.982,2.019,1.982" fill="#f8c9a4"/>
            <path id="Trazado_798279" data-name="Trazado 798279" d="M164.241,75.748s-1.316,5.661.119,7.428,5.649-1.948,6.913-3.39,6.655-7.288,3.791-10.068-9.429,2.311-10.823,6.03" fill="#0a1a2c"/>
            <path id="Trazado_798280" data-name="Trazado 798280" d="M161,76.027a36.811,36.811,0,0,0,13.974,15.341c1.59,2.532,1.977,3.189,1.977,3.189a13.65,13.65,0,0,0,.964,5.674,70.026,70.026,0,0,0,4.243,6.547,8.457,8.457,0,0,0,8.863-3.175,61.9,61.9,0,0,0-6.682-14.351,5.68,5.68,0,0,0-1.323-3.572c-.926-2.91-5.873-13.313-8.385-15.782S162.189,72.406,161,76.027" fill="#f8c9a4"/>
            <path id="Trazado_798281" data-name="Trazado 798281" d="M187.742,123.283a1.219,1.219,0,0,0-.223,1.214,1.738,1.738,0,0,0,1.3,1.112,1.17,1.17,0,0,1,.892.631,12.621,12.621,0,0,0,1.023,2.241c.348.479,1.175,1.872,5.963,1.088,4.657-.761,4.4-1.545,4.521-2.583s-13.477-3.7-13.477-3.7" fill="#918476"/>
            <path id="Trazado_798282" data-name="Trazado 798282" d="M31.452,86.656s-2.37,3.88-4.664,7.045c-.372.786-1.928,8.006-1.928,8.006a4.136,4.136,0,0,1,.25,3.077,5.176,5.176,0,0,0,1.092,2.225c-.925.941-1.994-.805-2.332-1.859-.894.726-1.472,2.217-1.8,2.475,0,0-1.6,3.464-2.6,2.871-.2-.179.293-1,.707-1.846.272-.556.621-1.227.812-1.593-.053-.035-.1-.081-.151-.116-.529.634-2.887,3.393-3.639,2.687-.163-.223.5-.912,1.083-1.657.4-.5,1.208-1.39,1.648-1.879a.8.8,0,0,1-.136-.137c-.014.021-2.826,2.607-3.523,1.67-.114-.251.65-.8,1.364-1.43.449-.4,1.014-.859,1.342-1.134a.362.362,0,0,0-.072-.086c-.77.619-2.287,1.7-2.765,1.081-.109-.225.6-.731,1.247-1.288.327-.275.72-.591,1.018-.833,1.082-1.018,3.148-3.272,3.148-3.272s-.515-6.951.236-9.08,4.566-7.428,4.566-7.428Z" fill="#e79b67"/>
            <path id="Trazado_798283" data-name="Trazado 798283" d="M30.6,88.237a2.106,2.106,0,0,1-.307-.128c-2.022-1-4.54-5.353-4.54-5.353.961-1.714,3.635-3.337,5.538-2.485a2.455,2.455,0,0,1,.895.664c1.814,2.059,1.172,4.706-1.586,7.3" fill="#f15822"/>
            <path id="Trazado_798284" data-name="Trazado 798284" d="M185.192,103.795c-3.307,1.336-4.663.657-4.663.657s7.124,10.56,7.839,13.511c4.458-1.057,5.765-2.414,5.765-2.414s-2.27-11.427-4.373-15.483c-.545,1.545-1.261,2.393-4.568,3.729" fill="#819499"/>
            <path id="Trazado_798285" data-name="Trazado 798285" d="M117.7,100.024c-.268.179,1.311,9.876.26,15.158-.492,2.415,6.483,3.667,8,3.041s.415-1.521.415-1.521,1.821-10.16,1.821-15.77a15.683,15.683,0,0,1-10.5-.908" fill="#819499"/>
            <path id="Trazado_798286" data-name="Trazado 798286" d="M127.755,124.693s1.965-.3,1.875-1.82a17.838,17.838,0,0,0-1.82-5.1c.39-1.789-.147-3.161-1.041-3.146-.537.374-.39,2.073-.39,2.073s-4.975.894-6.674.357c-.9-2.414-2.4-4.56-3.749-4.292s0,3.845,0,3.845a29.486,29.486,0,0,0-3.852,2.51,40.5,40.5,0,0,1-5.35,3.277,3.17,3.17,0,0,1-2.612.383c-1.338-.536-1.957-1.341-3.216-.357-1.071,1.479,1.878,6.08,6.707,5.1s15.459-2.009,15.459-2.009Z" fill="#002539"/>
            <path id="Trazado_798287" data-name="Trazado 798287" d="M194.449,127.447s-3.13,2.051-6.707-4.164c-.089-3.8.358-4.337.358-4.337s-1.007-3.04-.369-3.308a3.815,3.815,0,0,1,.995,1.264s.114-2.784,2.293-3.321,2.446,1.163,2.446,1.163.448-1.163.984-.269a14.511,14.511,0,0,1,.994,3.219s2.315,3.935,3.388,4.471c1.85,1.374,2.136,2.022,2.136,2.022l.253,1.645c-.959.715-6.771,1.615-6.771,1.615" fill="#002539"/>
            <path id="Trazado_798288" data-name="Trazado 798288" d="M189.078,120.109s2.531-3.666,6.365-1.788c-.726-1.968-5.3-2.325-6.365,1.788" fill="#2790b8"/>
            <path id="Trazado_798289" data-name="Trazado 798289" d="M189.556,122.165s-.447,2.057,1.463.939,5.129-3,7.811-.939l.358.447s-3.4-2.051-8.584,1.747c-1.048,1.025-1.094,1.472-1.094,1.472a4.117,4.117,0,0,1,.046-3.666" fill="#2790b8"/>
            <path id="Trazado_798290" data-name="Trazado 798290" d="M122.656,124.929s3.423-4.918,5.154-7.154l-.325-.179s-4.6,4.684-5.723,6.662Z" fill="#2790b8"/>
            <path id="Trazado_798291" data-name="Trazado 798291" d="M113.714,119.117l7.511,5.142.984-.574-7.4-5.462Z" fill="#2790b8"/>
            <path id="Trazado_798292" data-name="Trazado 798292" d="M106.755,122.873l7.227,3.219,1.975-.578-7.966-3.088Z" fill="#2790b8"/>
            <path id="Trazado_798293" data-name="Trazado 798293" d="M187.73,122.279a25.639,25.639,0,0,0,1.41,2.954l.536.586.055.559s-.587-.922-1-1.1c-.173.087-.927-.653-1.214-1.284-.265-.609-.07-1.805.212-1.719" fill="#e3ceb9"/>
            <path id="Trazado_798294" data-name="Trazado 798294" d="M189.558,125.689s1.809,2.083,2.924,1.758c1.752-.509,3.13-1.7,5.186-2.062s2.721.186,3.347-.887c.626,2.146.856,3.48-3.436,4.374s-7.28.573-8.021-3.183" fill="#e3ceb9"/>
            <path id="Trazado_798295" data-name="Trazado 798295" d="M100.926,122.835a6.6,6.6,0,0,0,5.828,4.382c4.545.268,11.341-2.772,13.308-3.041s7.154.269,9.121-.447a2.42,2.42,0,0,1,.447,2.951c-.268.358-5.857,1.208-7.646.655a6.76,6.76,0,0,0-5.244.044c-2.317.882-8.571,2.163-11.432,1.447a8.433,8.433,0,0,1-5.641-5.007c.007-.716,1.259-.984,1.259-.984" fill="#918476"/>
            <path id="Trazado_798296" data-name="Trazado 798296" d="M100.926,122.426a6.6,6.6,0,0,0,5.828,4.382c4.545.268,11.341-2.773,13.308-3.041s7.154.268,9.121-.447a2.42,2.42,0,0,1,.447,2.951c-.268.358-5.365,1.107-7.154.553s-3.308-1.358-5.544-.285-8.763,2.593-11.624,1.878a8.433,8.433,0,0,1-5.641-5.007c.007-.716,1.259-.984,1.259-.984" fill="#e3ceb9"/>
            <path id="Trazado_798297" data-name="Trazado 798297" d="M57.679,103.452c-.852,1.67-2.131,3.689-3.211,4.173a.851.851,0,0,1-1.046-.149.91.91,0,0,1-.186-.312c-.451-1.037-.889-3.972-1.234-5.21a.459.459,0,0,0-.014-.061,1.5,1.5,0,0,1,.47-1.651,1.726,1.726,0,0,1,.368-.242c.009,0,4.7-1.777,4.7-1.777s0,1.516.047,3.122c.023.73.056,1.479.1,2.107" fill="#f15822"/>
            <path id="Trazado_798298" data-name="Trazado 798298" d="M57.679,103.452a17.208,17.208,0,0,1-1.284,3.88,3.572,3.572,0,0,1-1.927.293,2.066,2.066,0,0,1-1.232-.461,1.192,1.192,0,0,1-.392-.744c-.3-1.912-.758-4.075-.842-4.466-.009-.037-.014-.061-.014-.061s-.884-.669.47-1.651c.117-.084.233-.163.368-.242a.8.8,0,0,1,1.139.484s1.043,4.6,1.671,3.824,1.065-1.354,1.065-1.354.4-1.414.875-1.609c.023.73.056,1.479.1,2.107" fill="#d33e1e"/>
            <path id="Trazado_798299" data-name="Trazado 798299" d="M43.755,113.223s-.122,4.121-.29,4.982c-.057.291-.113.562-.178.8a1.618,1.618,0,0,1-.29.778c-.31.159-5.808,8.851-5.939,10.63a11.287,11.287,0,0,1-3.215.39c-1.882.046-2.884.005-2.884.005s3.221-9.179,5.422-11.867a19.525,19.525,0,0,0-.075-10.026l5.576,3.516Z" fill="#f4a47f"/>
            <path id="Trazado_798300" data-name="Trazado 798300" d="M43.464,114.1l-.178,4.9h-1.4s-7.524,6.684-8.039,11.8c-1.882.047-2.884.006-2.884.006s3.222-9.18,5.422-11.867a19.53,19.53,0,0,0-.075-10.027Z" fill="#f4a47f"/>
            <path id="Trazado_798301" data-name="Trazado 798301" d="M57.529,98.223l-3.563,2.26-1.8.945a24.978,24.978,0,0,1,0-6.526c-.309.487-3.025,3.221-3.025,3.221l-1.826,1.114-.262.159s-5.559-5.445-2.481-7.847c7.771-6.064,10.563-5.206,10.563-5.206A4.089,4.089,0,0,1,57.121,88.3c.628,1.47.408,9.923.408,9.923" fill="#f9c892"/>
            <path id="Trazado_798302" data-name="Trazado 798302" d="M53.966,100.483l-1.8.946a24.988,24.988,0,0,1,0-6.527c-.309.487-3.024,3.221-3.024,3.221l-1.826,1.115-.263-.478.974-2.1a57.084,57.084,0,0,0,5.225-4.335l.225.384s-.346,5.188.487,7.772" fill="#f4a47f"/>
            <path id="Trazado_798303" data-name="Trazado 798303" d="M44.443,101.073c-.084,1.32-.225,2.875-.459,4.476-.365,2.547.4,7.316-.061,9.229a50.619,50.619,0,0,1-10.139-1.3s.349-3.525.349-5.438c0-1.209-.552-3.417,0-3.979.094-.1,1.592.767,1.779.6,2-1.835,8.662-7.388,8.662-7.388s.01,1.564-.131,3.8" fill="#d33e1e"/>
            <path id="Trazado_798304" data-name="Trazado 798304" d="M43.8,105.886s-1.167,5.557-1.916,8.424l2.042.465s-.126-6.487-.126-8.889" fill="#f15822"/>
            <path id="Trazado_798305" data-name="Trazado 798305" d="M49.144,98.123s-.384.421-4.092,3.849a8.307,8.307,0,0,1-8,5.983c-2.847,0-4.963-1.957-6.1-3.333A10.313,10.313,0,0,1,30,103.3c4.157-6.845,12.108-10.094,12.108-10.094a9.423,9.423,0,0,1,3.033-2.36c0,1.555,1.7,4.176,2.885,5.815.627.871,1.114,1.461,1.114,1.461" fill="#f15822"/>
            <path id="Trazado_798306" data-name="Trazado 798306" d="M44.443,101.073c-.084,1.32-.225,2.875-.459,4.476a7.9,7.9,0,0,1-6.639,3.362,6.571,6.571,0,0,1-3.212-.871,8.021,8.021,0,0,1,1.358-2.978c.094-.1.234-.234.421-.4,1.4.375,4.111.431,7.342-2.781.412-.253.8-.524,1.189-.805" fill="#ac321c"/>
            <path id="Trazado_798307" data-name="Trazado 798307" d="M49.144,98.123s-.384.421-4.092,3.849a8.307,8.307,0,0,1-8,5.983c-2.847,0-4.963-1.957-6.1-3.333l1.526-3.128s3.362-4.719,6.967-6.592c-4.729,4.888-4.85,8.4-4.85,8.4s3.614,2.341,8.362-2.378a26.247,26.247,0,0,0,5.066-4.261c.627.871,1.114,1.461,1.114,1.461" fill="#d33e1e"/>
            <path id="Trazado_798308" data-name="Trazado 798308" d="M19.431,90.519a62.4,62.4,0,0,1-6.037,6.759c-.543.731-3.353,5.422-3.353,5.422a4.333,4.333,0,0,1-.374,3.212,5.424,5.424,0,0,0,.665,2.51c-1.143.777-1.883-1.236-2.014-2.387-1.067.561-1.966,1.975-2.359,2.171,0,0-2.351,3.231-3.259,2.416-.169-.225.506-.964,1.105-1.751.393-.515.889-1.133,1.161-1.47-.047-.047-.084-.1-.131-.15-.674.543-3.661,2.894-4.289,2.013-.122-.262.7-.833,1.452-1.479.515-.431,1.526-1.18,2.078-1.592a.883.883,0,0,1-.112-.169c-.019.019-3.437,2.1-3.961.993-.065-.281.833-.693,1.695-1.189.543-.319,1.217-.675,1.611-.89a.38.38,0,0,0-.057-.1c-.917.478-2.7,1.274-3.062.543-.065-.253.768-.627,1.545-1.067.394-.216.862-.459,1.218-.646,1.32-.824,3.9-2.716,3.9-2.716a38.967,38.967,0,0,1,2.517-7.042c1.217-2.032,4.016-5.617,4.016-5.617s2.894-1.133,2.894-1.217Z" fill="#f4a47f"/>
            <path id="Trazado_798309" data-name="Trazado 798309" d="M42.112,93.2c-2.459,1.086-5.9,4.254-9.021,8.808a25.025,25.025,0,0,0-2.406,4.231c-3.609-2.74-9.268-12.706-9.58-13.576s-.677-1.836-.677-1.836a13.734,13.734,0,0,1-2.341-.859c-1.385-.645-2.814-1.665-2.459-3.007a2.885,2.885,0,0,1,.784-1.214,14.509,14.509,0,0,1,4.94-2.835c.73-.279,1.471-.538,2.212-.763a41.231,41.231,0,0,1,4.93-1.171,12.6,12.6,0,0,1,1.869-.225c1.815-.021,2.77,1.644,3.834,4.511A41.969,41.969,0,0,0,42.112,93.2" fill="#ffe51f"/>
            <path id="Trazado_798310" data-name="Trazado 798310" d="M33.094,102.009a25.631,25.631,0,0,0-2.413,4.23C27.075,103.5,19.856,90.847,19.856,90.847s-.583-.309-1.763-.871l.936-2.481.759-1.152A37.8,37.8,0,0,0,31.287,99.8c1.32-3.081,5.272-5.665,5.74-5.16s-4.467,3.2-3.933,7.37" fill="#fcb32f"/>
            <path id="Trazado_798311" data-name="Trazado 798311" d="M23.564,81.734v2.148l-.677.279-7,2.911a.387.387,0,0,1-.258-.108,1.311,1.311,0,0,1-.343-.644A21.607,21.607,0,0,1,21.1,82.292c.708-.354,1.17-.558,1.17-.558Z" fill="#fcb32f"/>
            <path id="Trazado_798312" data-name="Trazado 798312" d="M23.564,81.734l.129,2.019-.806.408a3.494,3.494,0,0,1-1.535-1.246,1.507,1.507,0,0,1-.247-.623c.708-.354,1.17-.558,1.17-.558Z" fill="#b83b19"/>
            <path id="Trazado_798313" data-name="Trazado 798313" d="M30.685,85.483c-4.1-.086-6.455-.666-7.8-1.321l.677-.343.128-.065c1.826-.559,3.48-2.545,4.8-2.771a.156.156,0,0,1,.064.021c1.246.548,2.127,3.609,2.127,4.479" fill="#f15822"/>
            <path id="Trazado_798314" data-name="Trazado 798314" d="M37.685,89.295A19.593,19.593,0,0,0,27.3,96.47a19.341,19.341,0,0,0-1.45,2.341,7.443,7.443,0,0,0-.355.709C24.96,98.661,24.456,97.8,24,96.985a26.8,26.8,0,0,1,1.751-2.073c2.374-2.513,6.7-6.157,11.3-6.2.409.409.627.583.627.583" fill="#f15822"/>
            <path id="Trazado_798315" data-name="Trazado 798315" d="M18.345,93.675a2.085,2.085,0,0,1-.309-.122c-2.041-.955-4.645-5.262-4.645-5.262.927-1.733,3.568-3.409,5.488-2.594a2.461,2.461,0,0,1,.908.646c1.854,2.022,1.264,4.682-1.442,7.332" fill="#f15822"/>
            <path id="Trazado_798316" data-name="Trazado 798316" d="M29.676,84.61a23.993,23.993,0,0,1-5.982-.857,6.466,6.466,0,0,1-.784-.354,3.289,3.289,0,0,1-1.085-.827c.881-2.384,3.995-2.922,6.476-2.943a20.444,20.444,0,0,1,3.276.247s-2.191.967-2.675,1.858a.942.942,0,0,0,0,1.063Z" fill="#f4a47f"/>
            <path id="Trazado_798317" data-name="Trazado 798317" d="M29.579,80.757a12.616,12.616,0,0,0-5.885,3c-.28-.107-.978-.448-1.215-.577a2.2,2.2,0,0,1-.654-.6c1.332-3.759-1.643-6.831-1.643-6.831l1.729-2.169a75.416,75.416,0,0,0,6.39,6.057c.4.355.827.731,1.278,1.128" fill="#ee7d60"/>
            <path id="Trazado_798318" data-name="Trazado 798318" d="M33.676,61.337a4.77,4.77,0,0,1,.837,1.928c.108.948.275,3.187.275,3.187a16.745,16.745,0,0,0,1.9,5.413c.9,1.834-1.515,5.37-3.5,7.138-.816.992-1.695,1.86-2.829,1.749s-6.062-2.29-7.738-8.444a17.833,17.833,0,0,1,0-10.423s6.266-1.312,11.048-.548" fill="#fed9b1"/>
          </g>
        </g>
        <g id="Grupo_1064216" data-name="Grupo 1064216">
          <g id="Grupo_1064215" data-name="Grupo 1064215" clip-path="url(#clip-path-4)">
            <rect id="Rectángulo_373647" data-name="Rectángulo 373647" width="22.311" height="24.29" transform="translate(7.692 65.649) rotate(-25.527)" fill="url(#linear-gradient)"/>
          </g>
        </g>
        <g id="Grupo_1064218" data-name="Grupo 1064218">
          <g id="Grupo_1064217" data-name="Grupo 1064217" clip-path="url(#clip-path-5)">
            <rect id="Rectángulo_373648" data-name="Rectángulo 373648" width="13.883" height="14.037" transform="matrix(0.772, -0.635, 0.635, 0.772, 8.223, 66.111)" fill="url(#linear-gradient-2)"/>
          </g>
        </g>
        <g id="Grupo_1064265" data-name="Grupo 1064265">
          <g id="Grupo_1064264" data-name="Grupo 1064264" clip-path="url(#clip-path-2)">
            <path id="Trazado_798321" data-name="Trazado 798321" d="M34.3,62.36c-.618.558-4.473,1.554-5.738,1.554s-7.053-1.554-8.906-1.335a43.394,43.394,0,0,0-6.087,1.853,1.1,1.1,0,0,1-.179-.468,3.075,3.075,0,0,1,.448-1.9A16.093,16.093,0,0,1,23.2,57.1c5.728-.737,11.037,3.058,11.356,3.537a1.523,1.523,0,0,1,.13.219,1.271,1.271,0,0,1-.379,1.5" fill="#834231"/>
            <path id="Trazado_798322" data-name="Trazado 798322" d="M16.986,60.315s8.275-3.345,14.852,1.743c.757-.82-4.59-5.6-14.852-1.743" fill="#bf7445"/>
            <path id="Trazado_798323" data-name="Trazado 798323" d="M34.3,62.36c-.618.558-4.473,1.554-5.738,1.554s-7.053-1.554-8.906-1.335a43.394,43.394,0,0,0-6.087,1.853,1.1,1.1,0,0,1-.179-.468s6.953-2.082,8.159-2.251c1.783.547,7.88,2.1,13.13-.857a1.271,1.271,0,0,1-.379,1.5" fill="#6a2d1d"/>
            <path id="Trazado_798324" data-name="Trazado 798324" d="M18.846,61.281s6.785-.733,10.633,1.078c-.507-1.94-6.66-2.889-10.633-1.078" fill="#bf7445"/>
            <path id="Trazado_798325" data-name="Trazado 798325" d="M31.744,77.891a2.3,2.3,0,0,1-.787.418,1.237,1.237,0,0,1-1.624-.557,3.173,3.173,0,0,1-.219-1.833,3.8,3.8,0,0,1,.369-1.266l.189-.209a3.569,3.569,0,0,0,3.626.807c.269.269-.857,2.092-1.554,2.64" fill="#b61c45"/>
            <path id="Trazado_798326" data-name="Trazado 798326" d="M32.23,65.624s-.08.4,0,.51,2.162.59,2.181.107-.2-.617-.2-.617a15.886,15.886,0,0,0-1.978,0" fill="#894633"/>
            <path id="Trazado_798327" data-name="Trazado 798327" d="M26.517,68.119s-.134,1.268.134,1.157,1.985-1.425,2.548-1.72a.808.808,0,0,0-.563-.349,4.05,4.05,0,0,0-2.119.912" fill="#894633"/>
            <path id="Trazado_798328" data-name="Trazado 798328" d="M29.626,71.55c-.069.673-.53,1.178-1.03,1.127a1.1,1.1,0,0,1-.782-1.312c.069-.673.53-1.178,1.031-1.127a1.1,1.1,0,0,1,.781,1.312" fill="#f2987c"/>
            <path id="Trazado_798329" data-name="Trazado 798329" d="M29.629,71.517c-.06.588-.468,1.028-.912.982a.966.966,0,0,1-.695-1.146c.06-.588.468-1.028.912-.982a.966.966,0,0,1,.695,1.146" fill="#fff"/>
            <path id="Trazado_798330" data-name="Trazado 798330" d="M27.814,71.365s-.05-.767,1.516-1.442c.056-.321-1.764-.132-1.516,1.442" fill="#002539"/>
            <path id="Trazado_798331" data-name="Trazado 798331" d="M29.625,71.551c-.048.466-.336.818-.644.787s-.52-.435-.473-.9.336-.818.645-.787.519.435.472.9" fill="#002539"/>
            <path id="Trazado_798332" data-name="Trazado 798332" d="M172.165,89.252a20.751,20.751,0,0,0,5.953,2.91,36.137,36.137,0,0,1,0,4.1,18.311,18.311,0,0,1-2.117-3.5c-.677-1.654-3.836-3.506-3.836-3.506" fill="#f4a47f"/>
            <path id="Trazado_798333" data-name="Trazado 798333" d="M122.541,87.922a41.713,41.713,0,0,0,4.767,8.2c1.112-.265-.791-3.837-1.758-5.953-.305.264-1.744-1.191-3.009-2.249" fill="#db7f55"/>
            <path id="Trazado_798334" data-name="Trazado 798334" d="M175.063,69.719c-6.508,1.171-10.488,8.046-10.7,13.458-1.162-1.629-4.692-6.134-7.763-10.029-2.753-3.5-5.15-6.508-5.15-6.508a27.269,27.269,0,0,1-.16-3.792c.169-4.851,1.939-7.539,4.167-8.981,4.074-2.64,9.664-1.1,9.664-1.1l.29.861.272.834a129.778,129.778,0,0,1,9.383,15.252" fill="#1f3446"/>
            <path id="Trazado_798335" data-name="Trazado 798335" d="M163.03,55.478l-.169.169c-.018.018-.028.037-.046.046-1.4,1.414-9.252,9.814-5.628,17.661-.206-.075-.4-.14-.59-.206-6.134-2.107-7.8-2-7.8-2s-10.919,7.613-11.809,8.278c-7.828-3.867-11.368-9.158-10.263-11.48a118.253,118.253,0,0,1,8.559-9.1s.272-2.089.356-3.446a6.5,6.5,0,0,0,.019-.927c-.047-.618,12.033-.646,19.795-.6,3.671.028,6.368.066,6.368.066Z" fill="#0a1a2c"/>
            <path id="Trazado_798336" data-name="Trazado 798336" d="M165.409,53.633a28.924,28.924,0,0,0-2.547,2.013c-.019.019-.028.038-.047.047-2.968,2.538-7.163,6.19-11.527,7.154a9.07,9.07,0,0,1-3.446.131c-5.038-.814-9.673-4.85-12.2-7.585a6.465,6.465,0,0,0,.018-.927c-.047-.618,12.033-.646,19.8-.6,4.073-2.641,9.664-1.1,9.664-1.1Z" fill="#00000f"/>
            <path id="Trazado_798337" data-name="Trazado 798337" d="M165.125,52.765a3.751,3.751,0,0,0-3.716,1.7l-6.626-.129c-20.556-12.727-31.565-39.78-25.915-41.455s22.993.612,25.388,2.1c1.74,2.1,3.781,6.734,5.628,12.19.827,2.438,1.611,5.048,2.309,7.658,1.8,6.766,3.05,13.618,2.932,17.935" fill="#2fb3e5"/>
            <path id="Trazado_798338" data-name="Trazado 798338" d="M162.193,34.829l-.784,1.988s-2.073-.569-5.832-3.491C145.718,30.04,146.62,21.6,146.62,21.6l2.191-.549,11.073,6.122c.827,2.439,1.611,5.048,2.309,7.657" fill="#2790b8"/>
            <path id="Trazado_798339" data-name="Trazado 798339" d="M132.635,22.376s24.8,13.923,28.774,32.089c-6.365,6.233-17.414,10.343-25.746,0,.154-2.784-4.4-10.14-9.813-11.833-5.149-.5-10.652-5.539-14.133-9.582s-3.978-8.082-2.735-10.107,1.886-3.564,8.593-5.977,15.06,5.41,15.06,5.41" fill="#2790b8"/>
            <path id="Trazado_798340" data-name="Trazado 798340" d="M131.466,31.983c-2.449-.106-8.871-5.186-8.871-5.186s-4.3-10.214,4.876-14.135c4.672-.279,8.366-.364,8.366-.364,1.579,2.567,3.77,9.526-4.371,19.685" fill="#fff"/>
            <path id="Trazado_798341" data-name="Trazado 798341" d="M123.486,41.072s15.514,1.061,24.266,0c1.591,3.58-18.7,3.448-24.266,0" fill="#15637f"/>
            <path id="Trazado_798342" data-name="Trazado 798342" d="M185.451,51.653l-.259,3.234,1.262,3.323s1.688,2.632,1.505,4.158c2.01-1.079,1.992-2.781.4-5.467.336-.637,2.849-1.267,6.08-1.061s5.391,1.389,5.956,1.351,1.5-.194,1.369-.753-4.087-4.555-5.663-5.491a31.42,31.42,0,0,0-5.808-1.968Z" fill="#f4a47f"/>
            <path id="Trazado_798343" data-name="Trazado 798343" d="M159.006,30.989a76.831,76.831,0,0,0,9.67,4.556,7.98,7.98,0,0,0,3.6,4.4c1.884,1.295,10.07,9.173,10.51,10.09s2.4,4.856,2.4,4.856,6.645-1.1,9.132-.7c-.276-1.307-2.938-4.347-3.54-4.875a38.908,38.908,0,0,0-4.119-2.187S180.209,33.964,176.1,30.481l-1.166-1.88-1.274-.667s-7.494-5.991-12.377-8.292c-3.517,4.042-2.276,11.347-2.276,11.347" fill="#f8c9a4"/>
            <path id="Trazado_798344" data-name="Trazado 798344" d="M163.69,21.05c-.015-.125,3.678,8.442.551,12.341-3.432-1.012-4.053-1.759-4.053-1.759l2.655-11.183Z" fill="#f4a47f"/>
            <path id="Trazado_798345" data-name="Trazado 798345" d="M88.124,61.732l.947-1.428.6-.793s9.645-10.218,10.607-12.163.751-2.206,1.414-2.864a39.417,39.417,0,0,1,4.258-2.575c-2.006-1.666-3.626-3.474-3.728-5.078-1.129-.472-12.383,8.08-15.72,21.567a11.154,11.154,0,0,0,1.626,3.334" fill="#f4a47f"/>
            <path id="Trazado_798346" data-name="Trazado 798346" d="M87.728,57.374c1.8-3.326,6.265-8.974,8.242-13.617,3.194-3.906,6.248-6.926,6.248-6.926l-.291-4.613a44.264,44.264,0,0,1-5.235,6.112c-3.206,1.872-3.745,2.924-3.921,3.239S88.723,46.816,85.884,56.8c-.349,1.955.047,3.9,1.844.578" fill="#f8c9a4"/>
            <path id="Trazado_798347" data-name="Trazado 798347" d="M71.165,64.877l-.9,1.546s.328,1.2,2.16-.9A4.717,4.717,0,0,0,74,63.79s1.21-.761,1.734-1.195l.434.288-1.471,1.8-1.6,2.342a18.266,18.266,0,0,1-.657,2.106c.353.587,1.647.008,2-1.736A18.15,18.15,0,0,0,76.2,65.6s.955-.94,1.471-1.35c.188.193.472.494.472.494a14.378,14.378,0,0,0-3.076,5.037c1.265-.02,1.029-.229,2.312-1.828a20.415,20.415,0,0,1,2.315-2.589l.574.129a13.935,13.935,0,0,0-2.836,4.126c1.051.086,1.159-.077,2.224-1.794a18.409,18.409,0,0,0,1.793-1.837s5.739-1.841,6.75-2.891a3.518,3.518,0,0,0,1-2.269,3.025,3.025,0,0,0-1.18-2.008c-.983-.564-4.669.035-4.814.018s-5.152-1.549-12.039,6.04" fill="#ec966d"/>
            <path id="Trazado_798348" data-name="Trazado 798348" d="M80.538,59.735l-.749.739a8.388,8.388,0,0,1-1.477,2.954,7.012,7.012,0,0,1-1.684,2.619c-.264,1.088,1.223.928,2.583-.037a10.353,10.353,0,0,0,2.48-3.29s4.018.408,5.177-1.041a4.972,4.972,0,0,0,1.151-2.859s-1.111-1.746-2.134-2.024a11.564,11.564,0,0,0-1.061,1.249s-6.531.831-7.34,1.269a38.248,38.248,0,0,0-3.768,1.862l-2.957,3.5s-.8,1.886-.37,1.937c.6-.119.265-.4,1.167-1.408a31.722,31.722,0,0,0,2.732-2.9l3.675-1.981Z" fill="#f8c9a4"/>
            <path id="Trazado_798349" data-name="Trazado 798349" d="M130.71,30.139a32.763,32.763,0,0,0,4.535-9.589c1.588-5.807-2.231-7.922-2.231-7.922s-2.81.069-4.148.25-4.333,8.86-4.333,8.86Z" fill="#f4a47f"/>
            <path id="Trazado_798350" data-name="Trazado 798350" d="M127.193,19.167s2.271,4.611,2.987,6.772a11.544,11.544,0,0,1,.53,4.2S127.38,28.5,122,32.582c-1.554.035,5.194-13.415,5.194-13.415" fill="#ee7d60"/>
            <path id="Trazado_798351" data-name="Trazado 798351" d="M160.072,32.8s7.446-3.285,2.434-13.243c-3.013-1.2-3.422-1.656-3.422-1.656s-5.486-4.248-9.226-3.58c-3.766.292-5.389,10.063,1,15.121,1.532,1.691,5.451.871,5.451.871a37.843,37.843,0,0,0,3.761,2.487" fill="#76bee6"/>
            <path id="Trazado_798352" data-name="Trazado 798352" d="M108.982,22.942s.421,5.243,1.429,7.806,4.563,5.218,4.563,5.218-7.413,5.922-8.265,6.586c-2.085-.977-6.388-4.884-4.782-10.335,1.688-3,5.256-7.088,7.055-9.275" fill="#2fb3e5"/>
            <path id="Trazado_798353" data-name="Trazado 798353" d="M113.913,6.2a24.576,24.576,0,0,0-1.57,7.834l-.075,1.619.682,2.111c-.195,1.17-.2,2.909-.333,3.689.45,1.684,2.761,7.926,3.08,8.85a15.675,15.675,0,0,0,.967,2.919c.412.4,4.077.46,4.5.1s5.259-5.424,6.339-7.948a23.788,23.788,0,0,0-.343-5.69s.577.815,1.145.516,2.672-2.048,2.757-3.235-.035-3.174-.946-3.706-4.288-8.888-4.288-8.888Z" fill="#f8c9a4"/>
            <path id="Trazado_798354" data-name="Trazado 798354" d="M114.066,16.145s2.157.1,1.973,3.117l-.4,1.172s.076-3.132-1.573-4.289" fill="#f2987c"/>
            <path id="Trazado_798355" data-name="Trazado 798355" d="M116.92,26.615a7.22,7.22,0,0,0,1.57-2.608,3.389,3.389,0,0,1-2.8,1.366,1.072,1.072,0,0,0,1.232,1.242" fill="#f2987c"/>
            <path id="Trazado_798356" data-name="Trazado 798356" d="M111.717,8.323s.437,5.485.626,5.708a48.975,48.975,0,0,0,.738-5.145Z" fill="#525a6a"/>
            <path id="Trazado_798357" data-name="Trazado 798357" d="M125.085,7.519s1,1.112.957,1.291a36.381,36.381,0,0,0-.612,4.434l.13.227,1.578-.095-.957,3.589,1.145-.46a12.953,12.953,0,0,1,1.646-2.849,1.958,1.958,0,0,1,1.149-.4s.8-4.211.535-5.72-5.571-.016-5.571-.016" fill="#525a6a"/>
            <path id="Trazado_798358" data-name="Trazado 798358" d="M111.759,9.024s3.52,2.778,4.491,3.013,4.037-.448,5.464-1.091a11.7,11.7,0,0,1-2.607.333s7.544-4.031,11.549-3.744c.33-2.306-.159-2.629-.159-2.629s-1.832-3.173-4.181-4.2l.65.078a6.079,6.079,0,0,0-1.922-.764C124.1-.1,115.679.287,110.6,6.456c-.407,1.021.873,2.343,1.162,2.568" fill="#002539"/>
            <path id="Trazado_798359" data-name="Trazado 798359" d="M115.886,26.556s.034.092.08.239a.246.246,0,0,1-.08-.239" fill="#e21b4b"/>
            <path id="Trazado_798360" data-name="Trazado 798360" d="M122.257,25.178a15.036,15.036,0,0,1-.512,1.466,7.578,7.578,0,0,1-2.194,3.294c-1.123.677-1.812.446-2.225-.026a1.859,1.859,0,0,1-.35-.523c-.279-.584-.8-2.007-1-2.585.211.24.889.594,3,.711,0,0,.055-.023.155-.075a4.429,4.429,0,0,0,.454-.244,7.892,7.892,0,0,0,2.413-2.3Z" fill="#b61c45"/>
            <path id="Trazado_798361" data-name="Trazado 798361" d="M121.745,26.644a7.569,7.569,0,0,1-2.194,3.293c-1.122.678-1.812.447-2.225-.025a4.34,4.34,0,0,1,1.8-2.473,3.054,3.054,0,0,1,.454-.243,5.669,5.669,0,0,1,2.162-.552" fill="#ef5053"/>
            <path id="Trazado_798362" data-name="Trazado 798362" d="M117.076,29.212s1.086.7,3.121-.188c-.848,1.378-2.787,1.522-3.121.188" fill="#fff"/>
            <path id="Trazado_798363" data-name="Trazado 798363" d="M116.951,28.063a12.323,12.323,0,0,0,2.968-.017,2.441,2.441,0,0,0,1.422-2.305,5,5,0,0,0-.806.921,15.932,15.932,0,0,1-4.43.179l-.223-.283s.325,1.332,1.069,1.5" fill="#fff"/>
            <path id="Trazado_798364" data-name="Trazado 798364" d="M122.016,24.9c-.315.468-.637.929-1,1.369a2.969,2.969,0,0,1-.3.318,1.1,1.1,0,0,1-.413.219,7.774,7.774,0,0,1-.833.214,11.873,11.873,0,0,1-1.7.241,3.47,3.47,0,0,1-1.724-.305,1.412,1.412,0,0,1-.355-.734,3.847,3.847,0,0,0,.5.527,7.024,7.024,0,0,0,1.564.067,13,13,0,0,0,1.657-.11,7.239,7.239,0,0,0,.813-.15.843.843,0,0,0,.339-.147,3.982,3.982,0,0,0,.3-.273c.39-.4.756-.826,1.11-1.261.039,0,.041.016.035.025" fill="#d06d54"/>
            <path id="Trazado_798365" data-name="Trazado 798365" d="M120.025,30.573a1.752,1.752,0,0,1-1.147.726,1.506,1.506,0,0,1-.706.017,1.263,1.263,0,0,1-.6-.364.75.75,0,0,1,.359-.063c.11-.009.213,0,.315,0,.2,0,.4.067.6.065a1.805,1.805,0,0,0,1.15-.41c.039.008.039.018.034.026" fill="#d06d54"/>
            <path id="Trazado_798366" data-name="Trazado 798366" d="M122.582,25.676c-.179-.173-.361-.338-.542-.49-.091-.076-.208-.12-.268-.216a1.115,1.115,0,0,1-.16-.357.472.472,0,0,1,.448.038c.122.067.171.2.241.311a3.008,3.008,0,0,1,.318.692c-.022.03-.031.027-.037.022" fill="#d06d54"/>
            <path id="Trazado_798367" data-name="Trazado 798367" d="M115.13,18.925c.037.616-.241,1.134-.62,1.157s-.718-.458-.755-1.074.241-1.135.62-1.157.718.458.755,1.074" fill="#f2987c"/>
            <path id="Trazado_798368" data-name="Trazado 798368" d="M115.051,18.99c.035.583-.226,1.074-.582,1.095s-.675-.434-.71-1.017.226-1.074.582-1.1.675.434.71,1.017" fill="#fff"/>
            <path id="Trazado_798369" data-name="Trazado 798369" d="M114.732,19.02c.03.494-.166.907-.438.923s-.516-.37-.545-.864.166-.907.438-.923.515.37.545.864" fill="#002539"/>
            <path id="Trazado_798370" data-name="Trazado 798370" d="M121.334,19.807c.037.616-.286,1.137-.721,1.163s-.819-.452-.856-1.068.286-1.137.721-1.163.819.452.856,1.068" fill="#f2987c"/>
            <path id="Trazado_798371" data-name="Trazado 798371" d="M121.243,19.872c.035.583-.268,1.076-.677,1.1s-.77-.428-.805-1.012.268-1.076.678-1.1.769.429.8,1.012" fill="#fff"/>
            <path id="Trazado_798372" data-name="Trazado 798372" d="M121.136,19.146a1.155,1.155,0,0,0-1.235-.368c.5-.593,1.333-.165,1.235.368" fill="#002539"/>
            <path id="Trazado_798373" data-name="Trazado 798373" d="M112.269,15.651a10.44,10.44,0,0,1,1.8.494c.713-.2.744-.647.744-.647a3.109,3.109,0,0,0-2.254-.5c-.353.076-.547.6-.287.653" fill="#002539"/>
            <path id="Trazado_798374" data-name="Trazado 798374" d="M118.194,14.985s-.624.777-.377.882a26.8,26.8,0,0,0,3.2,1.011,2.617,2.617,0,0,0,.017-.534,5.994,5.994,0,0,0-2.836-1.359" fill="#002539"/>
            <path id="Trazado_798375" data-name="Trazado 798375" d="M114.967,18.336a1.155,1.155,0,0,0-1.235-.368c.5-.593,1.333-.165,1.235.368" fill="#002539"/>
            <path id="Trazado_798376" data-name="Trazado 798376" d="M120.975,20.052c.03.493-.216.909-.548.929s-.627-.363-.656-.857.216-.909.548-.929.626.364.656.857" fill="#002539"/>
            <path id="Trazado_798377" data-name="Trazado 798377" d="M115.97,17.754c.059.5.118.987.134,1.49a2.646,2.646,0,0,1-.188.745c-.085.235-.177.467-.27.7-.186.46-.387.92-.524,1.379a1.755,1.755,0,0,0-.054.689c.017.24.049.483.089.724a7.408,7.408,0,0,0,.363,1.4.9.9,0,0,0,.116.221,1,1,0,0,0,.261.09,2.03,2.03,0,0,0,.665.03,1.2,1.2,0,0,0,.6-.2l.584-.448a6.532,6.532,0,0,0,.555-.479,1.683,1.683,0,0,0,.437-.569,2.394,2.394,0,0,1-.792,1.269c-.174.184-.365.349-.554.515a1.592,1.592,0,0,1-.769.34,2.419,2.419,0,0,1-.818-.018,1.132,1.132,0,0,1-.43-.175.945.945,0,0,1-.251-.42,7.654,7.654,0,0,1-.307-1.5c-.031-.251-.053-.5-.06-.759a2.065,2.065,0,0,1,.1-.785c.169-.486.389-.929.6-1.383a5.967,5.967,0,0,0,.526-1.358c.013-.491-.017-.99-.048-1.485.031-.024.041-.015.043,0" fill="#d06d54"/>
            <path id="Trazado_798378" data-name="Trazado 798378" d="M28.9,71.37a.263.263,0,1,1-.262-.262.262.262,0,0,1,.262.262" fill="#fff"/>
            <path id="Trazado_798379" data-name="Trazado 798379" d="M35.174,70.509c-.053.633-.409,1.106-.795,1.058s-.657-.6-.6-1.23.409-1.107.795-1.058.657.6.6,1.23" fill="#f2987c"/>
            <path id="Trazado_798380" data-name="Trazado 798380" d="M35.177,70.478c-.046.551-.361.964-.7.922s-.583-.524-.537-1.076.362-.964.7-.921.583.524.537,1.075" fill="#fff"/>
            <path id="Trazado_798381" data-name="Trazado 798381" d="M33.777,70.336s-.046-.719,1.4-1.353c.051-.3-1.635-.123-1.4,1.353" fill="#002539"/>
            <path id="Trazado_798382" data-name="Trazado 798382" d="M35.174,70.51c-.037.438-.259.769-.5.739s-.4-.409-.364-.845.259-.767.5-.738.4.408.365.844" fill="#002539"/>
            <path id="Trazado_798383" data-name="Trazado 798383" d="M34.613,70.341a.206.206,0,1,1-.2-.246.228.228,0,0,1,.2.246" fill="#fff"/>
            <path id="Trazado_798384" data-name="Trazado 798384" d="M33.182,71.386c.265.186.527.376.783.577.126.1.251.207.374.32.06.057.121.116.181.182a.736.736,0,0,1,.092.13.333.333,0,0,1,.031.223,1.134,1.134,0,0,1-.291.512,1.3,1.3,0,0,1-.446.31,1.248,1.248,0,0,1-1.036-.007,3.929,3.929,0,0,0,.844-.373,4.04,4.04,0,0,0,.343-.241.832.832,0,0,0,.245-.277c.045.034-.077-.162-.17-.264-.1-.121-.207-.239-.315-.356q-.323-.357-.663-.7c.008-.038.02-.039.028-.033" fill="#d06d54"/>
            <path id="Trazado_798385" data-name="Trazado 798385" d="M31.206,77.532a1.363,1.363,0,0,1-.249.777,1.238,1.238,0,0,1-1.624-.558,3.172,3.172,0,0,1-.219-1.833.566.566,0,0,1,.129-.01,1.817,1.817,0,0,1,1.963,1.624" fill="#ee6e6c"/>
            <path id="Trazado_798386" data-name="Trazado 798386" d="M29.494,77.291a4.793,4.793,0,0,0,2.387.327c-.912.96-2.575.665-2.387-.327" fill="#fff"/>
            <path id="Trazado_798387" data-name="Trazado 798387" d="M29.709,75.021a4.865,4.865,0,0,0,3.487.525c-.4,1.182-1.744,1.048-2.28.968s-1.422-.6-1.207-1.493" fill="#fff"/>
            <path id="Trazado_798388" data-name="Trazado 798388" d="M120.964,19.865a.222.222,0,1,1-.235-.206.222.222,0,0,1,.235.206" fill="#fff"/>
            <path id="Trazado_798389" data-name="Trazado 798389" d="M114.669,18.75a.222.222,0,1,1-.235-.206.222.222,0,0,1,.235.206" fill="#fff"/>
            <path id="Trazado_798390" data-name="Trazado 798390" d="M129.687,17.328c-.415,1.028-1.131,1.659-1.6,1.42a.7.7,0,0,1-.317-.439c.305.037.612-.278.691-.711.083-.451-.113-.868-.43-.926a.283.283,0,0,0-.133,0c.021-.073.051-.153.082-.233.415-1.028,1.132-1.667,1.609-1.418s.514,1.275.1,2.3" fill="#f2987c"/>
            <path id="Trazado_798391" data-name="Trazado 798391" d="M119.737,5.873s-4.229,1.517-4.885,2.262a4.5,4.5,0,0,0-.306,1.083s-.557-1.352-.186-1.7a16.458,16.458,0,0,1,5.377-1.646" fill="#525a6a"/>
            <path id="Trazado_798392" data-name="Trazado 798392" d="M117.656,10.145a20.65,20.65,0,0,1,9.768-4.51c-7.04-.009-10.079,3.037-10.079,3.037a1.108,1.108,0,0,0,.311,1.473" fill="#525a6a"/>
            <path id="Trazado_798393" data-name="Trazado 798393" d="M18.009,74.682c.717.8,1.672,1.111,2.138.705a.786.786,0,0,0,.245-.533.8.8,0,0,1-.7-1.428.417.417,0,0,1,.15-.048c-.041-.059-.095-.122-.149-.186-.717-.8-1.676-1.118-2.146-.7s-.257,1.391.46,2.191" fill="#ee7d60"/>
            <path id="Trazado_798394" data-name="Trazado 798394" d="M27.3,96.469c-.526.73-1.945,3.349-1.945,3.349-.526-.87-1.148-1.731-1.6-2.547.376-.494,1.213-1.521,2-2.359.011-.011,1.547,1.557,1.547,1.557" fill="#d33e1e"/>
            <path id="Trazado_798395" data-name="Trazado 798395" d="M18.036,93.553c-2.041-.955-4.645-5.263-4.645-5.263.927-1.732,3.568-3.408,5.488-2.593-.937,1.217-.534,1.376-.534,1.376a6.965,6.965,0,0,1-.309,6.48" fill="#d33e1e"/>
            <path id="Trazado_798396" data-name="Trazado 798396" d="M38.768,126.738l-1.71,3.671s-5.715,3.593-5.918.09c.8-2.408,1.675-3.742,1.816-4.3,0,0,1.64,2.139,5.812.541" fill="#f15822"/>
            <path id="Trazado_798397" data-name="Trazado 798397" d="M35.12,127.273s-1.951,3.636-.455,2.966c.713-.642,1.2-1.39,1.865-1.442.5-.5,1.108-.644,1.156-.323s-3.054,3.114-3.082,3.146-3.759,1.15-3.759,1.15l.3-2.27,1.535-4.442a5.609,5.609,0,0,0,2.445,1.215" fill="#d33e1e"/>
            <path id="Trazado_798398" data-name="Trazado 798398" d="M46.471,71.239,45.409,69.2a8.994,8.994,0,0,1,.624-5.9c.134-1.107,2.043-4.318,4.961-5.567a7.8,7.8,0,0,1,3.751-.526l1.272-.344s4.12.343,6.305,2.7,1.1,4.445,1.1,4.445Z" fill="#fff"/>
            <path id="Trazado_798399" data-name="Trazado 798399" d="M46.421,71.378,45.313,69.25a9.158,9.158,0,0,1,.615-5.98,9.438,9.438,0,0,1,5.023-5.633A8,8,0,0,1,54.74,57.1l1.266-.343c.061.005,4.206.375,6.4,2.738,2.213,2.388,1.13,4.547,1.119,4.569-.054.049-17.1,7.314-17.1,7.314m7.621-14.107a9.032,9.032,0,0,0-3.012.567,9.314,9.314,0,0,0-4.89,5.478,9.01,9.01,0,0,0-.628,5.856L46.52,71.1,63.345,63.93c.13-.281.88-2.149-1.1-4.289-2.058-2.22-5.916-2.637-6.217-2.666l-1.277.346a3.984,3.984,0,0,0-.707-.05" fill="#838587"/>
            <path id="Trazado_798400" data-name="Trazado 798400" d="M53.694,59.277a2.786,2.786,0,0,1,3.3-1.718,9.376,9.376,0,0,1,4.17,1.579c.826.515,2.276,2.276,1.05,3.425s-5.688,2.142-5.688,2.142Z" fill="#fff"/>
            <path id="Trazado_798401" data-name="Trazado 798401" d="M56.467,64.828l-2.891-5.545a2.921,2.921,0,0,1,3.444-1.829,9.381,9.381,0,0,1,4.135,1.552l.064.04a3.567,3.567,0,0,1,1.566,2.3,1.5,1.5,0,0,1-.5,1.3c-1.235,1.155-5.555,2.128-5.738,2.169Zm-2.654-5.557,2.768,5.31c.607-.141,4.455-1.066,5.558-2.1a1.3,1.3,0,0,0,.431-1.12A3.38,3.38,0,0,0,61.1,59.229l-.064-.04a9.233,9.233,0,0,0-4.062-1.524,2.637,2.637,0,0,0-3.166,1.606" fill="#838587"/>
            <path id="Trazado_798402" data-name="Trazado 798402" d="M54.346,58.047a13.146,13.146,0,0,1,1.31,3c.035.742-3.483,5.161-3.483,5.161l-3.684-.469s-.77-2.931-.066-4.049A7.506,7.506,0,0,1,51.058,58.6a3.351,3.351,0,0,1,3.288-.557" fill="#fff"/>
            <path id="Trazado_798403" data-name="Trazado 798403" d="M52.22,66.327l-.061-.007L48.4,65.841l-.018-.07c-.032-.121-.767-2.964-.062-4.119A7.6,7.6,0,0,1,51,58.512c.072-.043.143-.088.215-.134a3.306,3.306,0,0,1,3.159-.435,11.751,11.751,0,0,1,1.388,3.1c.035.761-3.144,4.778-3.507,5.234Zm-3.645-.681,3.551.452c1.4-1.766,3.446-4.531,3.422-5.041a12.486,12.486,0,0,0-1.275-2.918,3.1,3.1,0,0,0-2.941.421c-.073.047-.146.093-.218.136a7.368,7.368,0,0,0-2.587,3.024c-.625,1-.061,3.477.048,3.926" fill="#838587"/>
            <path id="Trazado_798404" data-name="Trazado 798404" d="M49.289,74.821l-.99-.658a4.316,4.316,0,0,1-2.135-2.273c-.751-1.735-.952-2.672-.214-4.189.815-1.369,4.6.272,4.6.272l.478,6.594Z" fill="#fff"/>
            <path id="Trazado_798405" data-name="Trazado 798405" d="M49.264,74.934l-1.025-.681a4.37,4.37,0,0,1-2.175-2.32c-.762-1.759-.959-2.742-.212-4.279.858-1.441,4.58.152,4.738.22l.06.026.49,6.76Zm-2-7.674a1.33,1.33,0,0,0-1.221.5c-.695,1.432-.548,2.318.222,4.091a4.252,4.252,0,0,0,2.074,2.216l.975.646,1.6-.234-.466-6.428a10.069,10.069,0,0,0-3.181-.787" fill="#838587"/>
            <g id="Grupo_1064223" data-name="Grupo 1064223" style="mix-blend-mode: multiply;isolation: isolate">
              <g id="Grupo_1064222" data-name="Grupo 1064222">
                <g id="Grupo_1064221" data-name="Grupo 1064221" clip-path="url(#clip-path-7)">
                  <g id="Grupo_1064220" data-name="Grupo 1064220">
                    <g id="Grupo_1064219" data-name="Grupo 1064219" clip-path="url(#clip-path-8)">
                      <rect id="Rectángulo_373649" data-name="Rectángulo 373649" width="9.218" height="6.942" transform="translate(44.038 74.656) rotate(-81.974)" fill="url(#linear-gradient-3)"/>
                    </g>
                  </g>
                </g>
              </g>
            </g>
            <path id="Trazado_798407" data-name="Trazado 798407" d="M49.274,75.084a3.351,3.351,0,0,1-2.3-1.92c-1.033-1.809,2.4,1.243,2.3,1.92" fill="#292627"/>
            <path id="Trazado_798408" data-name="Trazado 798408" d="M54.048,77.1s.916,1.236,3.481.145c-.79-2.423-3.481-.145-3.481-.145" fill="#292627"/>
            <path id="Trazado_798409" data-name="Trazado 798409" d="M55.636,76.231a2.291,2.291,0,0,1-.84,1.122c-.675.467-4.255-.63-6.282-2.56l-.215-.63a2.955,2.955,0,0,0,2.46-.109c1.282-.663,4.877,2.177,4.877,2.177" fill="#fff"/>
            <path id="Trazado_798410" data-name="Trazado 798410" d="M54.294,77.563a10.741,10.741,0,0,1-5.855-2.692l-.028-.044-.3-.87.23.108a2.874,2.874,0,0,0,2.364-.107c1.329-.686,4.845,2.07,4.994,2.188l.057.045-.021.07a2.382,2.382,0,0,1-.881,1.181,1.032,1.032,0,0,1-.564.121m-5.687-2.83c2.02,1.909,5.515,2.954,6.128,2.532a2.228,2.228,0,0,0,.773-1c-.473-.365-3.582-2.7-4.7-2.119a3.048,3.048,0,0,1-2.333.194Z" fill="#838587"/>
            <g id="Grupo_1064228" data-name="Grupo 1064228" style="mix-blend-mode: multiply;isolation: isolate">
              <g id="Grupo_1064227" data-name="Grupo 1064227">
                <g id="Grupo_1064226" data-name="Grupo 1064226" clip-path="url(#clip-path-9)">
                  <g id="Grupo_1064225" data-name="Grupo 1064225">
                    <g id="Grupo_1064224" data-name="Grupo 1064224" clip-path="url(#clip-path-10)">
                      <rect id="Rectángulo_373651" data-name="Rectángulo 373651" width="5.41" height="7.884" transform="matrix(0.14, -0.99, 0.99, 0.14, 48.065, 77.395)" fill="url(#linear-gradient-4)"/>
                    </g>
                  </g>
                </g>
              </g>
            </g>
            <path id="Trazado_798412" data-name="Trazado 798412" d="M59.8,75.646l.639.533A8.585,8.585,0,0,0,64.768,71.4a9.223,9.223,0,0,0,.613-7.13c-1.974.007-3.678,1.916-3.678,1.916Z" fill="#fff"/>
            <path id="Trazado_798413" data-name="Trazado 798413" d="M60.419,76.3l-.74-.616.013-.064L61.6,66.132a5.955,5.955,0,0,1,3.778-1.975h.069l.029.063a9.254,9.254,0,0,1-.618,7.231,8.74,8.74,0,0,1-4.382,4.827Zm-.5-.7.537.448a8.525,8.525,0,0,0,4.213-4.691,9.232,9.232,0,0,0,.645-6.987A5.825,5.825,0,0,0,61.8,66.233Z" fill="#838587"/>
            <g id="Grupo_1064233" data-name="Grupo 1064233" style="mix-blend-mode: multiply;isolation: isolate">
              <g id="Grupo_1064232" data-name="Grupo 1064232">
                <g id="Grupo_1064231" data-name="Grupo 1064231" clip-path="url(#clip-path-11)">
                  <g id="Grupo_1064230" data-name="Grupo 1064230">
                    <g id="Grupo_1064229" data-name="Grupo 1064229" clip-path="url(#clip-path-12)">
                      <rect id="Rectángulo_373653" data-name="Rectángulo 373653" width="12.692" height="8.006" transform="translate(58.15 75.947) rotate(-81.974)" fill="url(#linear-gradient-5)"/>
                    </g>
                  </g>
                </g>
              </g>
            </g>
            <path id="Trazado_798415" data-name="Trazado 798415" d="M61.7,73.487l-.128,1.071a3.077,3.077,0,0,1-1.139,1.621c-1.244.649-3.617,1.64-5.257.9a2.858,2.858,0,0,1-1.58-1.572l2.874-3.246Z" fill="#fff"/>
            <path id="Trazado_798416" data-name="Trazado 798416" d="M56.533,77.451a3.381,3.381,0,0,1-1.4-.274,2.95,2.95,0,0,1-1.64-1.643l-.015-.056,2.955-3.338.063.015L61.822,73.4l-.139,1.167a3.142,3.142,0,0,1-1.183,1.7,9.349,9.349,0,0,1-3.967,1.184m-2.811-1.92a2.934,2.934,0,0,0,1.506,1.451c1.6.722,3.92-.252,5.159-.9a2.985,2.985,0,0,0,1.084-1.551l.114-.963-5.073-1.19Z" fill="#838587"/>
            <g id="Grupo_1064238" data-name="Grupo 1064238" style="mix-blend-mode: multiply;isolation: isolate">
              <g id="Grupo_1064237" data-name="Grupo 1064237">
                <g id="Grupo_1064236" data-name="Grupo 1064236" clip-path="url(#clip-path-13)">
                  <g id="Grupo_1064235" data-name="Grupo 1064235">
                    <g id="Grupo_1064234" data-name="Grupo 1064234" clip-path="url(#clip-path-14)">
                      <rect id="Rectángulo_373655" data-name="Rectángulo 373655" width="6.637" height="8.801" transform="translate(52.83 77.711) rotate(-81.974)" fill="url(#linear-gradient-6)"/>
                    </g>
                  </g>
                </g>
              </g>
            </g>
            <path id="Trazado_798418" data-name="Trazado 798418" d="M60.331,69.6s3.017.176,3.929-1.212a6.411,6.411,0,0,0,.387-3.721,5.281,5.281,0,0,0-.848-2.2l-1.791-.835a4.238,4.238,0,0,0-2.412.991c-1.382,1.235-.547,6.122.735,6.975" fill="#fff"/>
            <path id="Trazado_798419" data-name="Trazado 798419" d="M60.678,69.718c-.2,0-.33-.007-.354-.008-.864-.558-1.418-2.488-1.527-4.03a3.974,3.974,0,0,1,.726-3.133,4.338,4.338,0,0,1,2.487-1.018c.044.01,1.862.857,1.862.857a5.34,5.34,0,0,1,.883,2.274,6.558,6.558,0,0,1-.4,3.783c-.759,1.154-2.838,1.275-3.677,1.275m-.312-.222c.312.013,2.984.083,3.8-1.165a6.33,6.33,0,0,0,.372-3.642,5.173,5.173,0,0,0-.815-2.133l-1.742-.812a4.287,4.287,0,0,0-2.324.969,3.8,3.8,0,0,0-.649,2.951c.121,1.7.713,3.374,1.354,3.832" fill="#838587"/>
            <path id="Trazado_798420" data-name="Trazado 798420" d="M52.933,63.549a10.576,10.576,0,0,0-3.486.551A3.774,3.774,0,0,0,47.8,67.951,6.092,6.092,0,0,0,49.753,71.2c.827.48,5.426-.324,5.426-.324L56.833,66.1Z" fill="#fff"/>
            <path id="Trazado_798421" data-name="Trazado 798421" d="M50.831,71.46A2.635,2.635,0,0,1,49.7,71.3a6.238,6.238,0,0,1-2-3.316,3.892,3.892,0,0,1,1.692-3.97,10.457,10.457,0,0,1,3.546-.568c.057.017,4.028,2.617,4.028,2.617l-1.7,4.914-.063.011a32.672,32.672,0,0,1-4.366.476m2.051-7.8a10.359,10.359,0,0,0-3.394.543A3.689,3.689,0,0,0,47.9,67.9a6.041,6.041,0,0,0,1.911,3.214c.639.371,3.975-.1,5.29-.327L56.7,66.147l-3.8-2.49Z" fill="#838587"/>
            <g id="Grupo_1064243" data-name="Grupo 1064243" style="mix-blend-mode: multiply;isolation: isolate">
              <g id="Grupo_1064242" data-name="Grupo 1064242">
                <g id="Grupo_1064241" data-name="Grupo 1064241" clip-path="url(#clip-path-15)">
                  <g id="Grupo_1064240" data-name="Grupo 1064240">
                    <g id="Grupo_1064239" data-name="Grupo 1064239" clip-path="url(#clip-path-16)">
                      <rect id="Rectángulo_373657" data-name="Rectángulo 373657" width="8.337" height="9.316" transform="translate(47.314 71.499) rotate(-81.974)" fill="url(#linear-gradient-7)"/>
                    </g>
                  </g>
                </g>
              </g>
            </g>
            <path id="Trazado_798423" data-name="Trazado 798423" d="M55.578,66.757a36.372,36.372,0,0,1-1.934,4.533C53.193,72.9,54.79,73.941,56.234,74a8.733,8.733,0,0,0,3.929-.93c.7-.4,1.823-3.036,1.46-3.859a8.934,8.934,0,0,0-2.035-2.766c-.908-.814-4.01.308-4.01.308" fill="#fff"/>
            <path id="Trazado_798424" data-name="Trazado 798424" d="M56.447,74.115c-.073,0-.146,0-.218,0a3.207,3.207,0,0,1-2.4-1.168,1.9,1.9,0,0,1-.284-1.683,37,37,0,0,0,1.936-4.539l.017-.048.048-.017c.129-.048,3.173-1.136,4.119-.289a9.014,9.014,0,0,1,2.062,2.805c.378.858-.748,3.559-1.506,3.994a8.941,8.941,0,0,1-3.77.949m-2.7-2.784A1.693,1.693,0,0,0,54,72.817a2.983,2.983,0,0,0,2.239,1.078,8.653,8.653,0,0,0,3.871-.916c.662-.38,1.748-2.966,1.416-3.72a8.9,8.9,0,0,0-2.009-2.731c-.791-.709-3.463.178-3.854.314a35.964,35.964,0,0,1-1.918,4.489" fill="#838587"/>
            <g id="Grupo_1064248" data-name="Grupo 1064248" style="mix-blend-mode: multiply;isolation: isolate">
              <g id="Grupo_1064247" data-name="Grupo 1064247">
                <g id="Grupo_1064246" data-name="Grupo 1064246" clip-path="url(#clip-path-17)">
                  <g id="Grupo_1064245" data-name="Grupo 1064245">
                    <g id="Grupo_1064244" data-name="Grupo 1064244" clip-path="url(#clip-path-18)">
                      <rect id="Rectángulo_373659" data-name="Rectángulo 373659" width="6.875" height="7.973" transform="translate(47.729 63.984) rotate(-81.974)" fill="url(#linear-gradient-8)"/>
                    </g>
                  </g>
                </g>
              </g>
            </g>
            <g id="Grupo_1064253" data-name="Grupo 1064253" style="mix-blend-mode: multiply;isolation: isolate">
              <g id="Grupo_1064252" data-name="Grupo 1064252">
                <g id="Grupo_1064251" data-name="Grupo 1064251" clip-path="url(#clip-path-19)">
                  <g id="Grupo_1064250" data-name="Grupo 1064250">
                    <g id="Grupo_1064249" data-name="Grupo 1064249" clip-path="url(#clip-path-20)">
                      <rect id="Rectángulo_373661" data-name="Rectángulo 373661" width="4.641" height="7.229" transform="matrix(0.14, -0.99, 0.99, 0.14, 55.248, 62.66)" fill="url(#linear-gradient-9)"/>
                    </g>
                  </g>
                </g>
              </g>
            </g>
            <g id="Grupo_1064258" data-name="Grupo 1064258" style="mix-blend-mode: multiply;isolation: isolate">
              <g id="Grupo_1064257" data-name="Grupo 1064257">
                <g id="Grupo_1064256" data-name="Grupo 1064256" clip-path="url(#clip-path-21)">
                  <g id="Grupo_1064255" data-name="Grupo 1064255">
                    <g id="Grupo_1064254" data-name="Grupo 1064254" clip-path="url(#clip-path-22)">
                      <rect id="Rectángulo_373663" data-name="Rectángulo 373663" width="7.304" height="5.705" transform="matrix(0.14, -0.99, 0.99, 0.14, 58.905, 68.877)" fill="url(#linear-gradient-10)"/>
                    </g>
                  </g>
                </g>
              </g>
            </g>
            <g id="Grupo_1064263" data-name="Grupo 1064263" style="mix-blend-mode: multiply;isolation: isolate">
              <g id="Grupo_1064262" data-name="Grupo 1064262">
                <g id="Grupo_1064261" data-name="Grupo 1064261" clip-path="url(#clip-path-23)">
                  <g id="Grupo_1064260" data-name="Grupo 1064260">
                    <g id="Grupo_1064259" data-name="Grupo 1064259" clip-path="url(#clip-path-24)">
                      <rect id="Rectángulo_373665" data-name="Rectángulo 373665" width="8.252" height="8.687" transform="translate(53.209 73.737) rotate(-81.974)" fill="url(#linear-gradient-11)"/>
                    </g>
                  </g>
                </g>
              </g>
            </g>
            <path id="Trazado_798429" data-name="Trazado 798429" d="M50.943,58.658a4.554,4.554,0,0,1,3.681-.144,2.7,2.7,0,0,1,2.368-.955c-.443-.606-1.451-1.471-5.593-.125-.877.457-.532,1.036-.456,1.224" fill="#292627"/>
            <path id="Trazado_798430" data-name="Trazado 798430" d="M48.422,61.695a3.727,3.727,0,0,0,1.025,2.4c-1.061,1.468-1.731,2.857-1.643,3.851a13.2,13.2,0,0,0-1.855-.25,4.162,4.162,0,0,1-.4-2.639c.015-.088.486-1.76.486-1.76a3.61,3.61,0,0,1,2.39-1.607" fill="#292627"/>
            <path id="Trazado_798431" data-name="Trazado 798431" d="M49.753,71.2a14.7,14.7,0,0,0,3.984-.335A17.139,17.139,0,0,0,56.234,74c-.9,1.151-1.657,1.929-2.321,1.97a4.913,4.913,0,0,1-3.1-1,4.212,4.212,0,0,1-1.138-1.355,6.333,6.333,0,0,1,0-2.377c.055-.171.08-.042.08-.042" fill="#292627"/>
            <path id="Trazado_798432" data-name="Trazado 798432" d="M61.624,69.216c-.069-.02-.277,2.679-1.585,3.868A6.055,6.055,0,0,0,61.4,74.529s.587.252,1.537-.7,2.649-2.7,1.378-5.333a4.937,4.937,0,0,1-2.692.719" fill="#292627"/>
            <path id="Trazado_798433" data-name="Trazado 798433" d="M61.162,59.138a2.916,2.916,0,0,1,.846,2.5,5.013,5.013,0,0,1,2.668,3.123l.7-.494a4.729,4.729,0,0,0-1.316-2.915c-1.354-1.576-1.524-1.69-2.007-1.921a2.829,2.829,0,0,0-.9-.292" fill="#292627"/>
            <path id="Trazado_798434" data-name="Trazado 798434" d="M52.933,63.549A31.924,31.924,0,0,1,55.346,67.1c2.282-.411,4.243-.656,4.243-.656a7.16,7.16,0,0,0-.079-4.059,6.566,6.566,0,0,0-3.746-1.531s-1.482.343-2.831,2.691" fill="#292627"/>
            <path id="Trazado_798435" data-name="Trazado 798435" d="M29.813,134.607l-.531.329a2.461,2.461,0,0,0-.449,2.229c.326.536,2.569.943,3.63.73.856.02,2.793-.078,3.924.077a42.83,42.83,0,0,0,6.025.291c1.9-.131,5.071-1.221,4.513-2.9-.8-.7-17.112-.753-17.112-.753" fill="#fff"/>
            <path id="Trazado_798436" data-name="Trazado 798436" d="M41.469,138.391a48.3,48.3,0,0,1-5.1-.317,22.621,22.621,0,0,0-2.9-.081c-.4.005-.751.01-1.008,0-1.057.215-3.357-.192-3.714-.779-.264-1.7.438-2.333.468-2.359l.544-.339a.1.1,0,0,1,.054-.016c1.674.006,16.372.079,17.18.779a.105.105,0,0,1,.03.045,1.293,1.293,0,0,1-.176,1.178c-.753,1.124-3.042,1.763-4.427,1.859-.269.018-.593.026-.951.026m-6.99-.611a15.348,15.348,0,0,1,1.923.091,42.792,42.792,0,0,0,6,.289c1.556-.107,3.631-.813,4.271-1.768a1.094,1.094,0,0,0,.161-.969c-.75-.481-10.522-.69-17-.714l-.506.314a2.43,2.43,0,0,0-.4,2.105c.327.467,2.461.878,3.511.666.276,0,.623,0,1.024-.005.319,0,.664-.009,1.012-.009" fill="#3d5897"/>
            <path id="Trazado_798437" data-name="Trazado 798437" d="M44.1,133.679c-.019-.059-.922-.774-.922-.774s-2.19-1.223-3.6-2.108a6.263,6.263,0,0,0-3.589-.58L34.869,131a15.022,15.022,0,0,1-2.671.842c-.571-.019-1.02-1.179-1.142-1.586-.653-.038-1.223.658-1.509,2.051-.168,1.43,5.057,4.681,5.057,4.681s2.589.212,3.364.173c.754-.038,6.463-2.494,6.137-3.481" fill="#cddae0"/>
            <path id="Trazado_798438" data-name="Trazado 798438" d="M37.738,137.268c-.951,0-3.045-.171-3.142-.179-.262-.149-5.324-3.317-5.15-4.795.288-1.407.87-2.173,1.617-2.14a.1.1,0,0,1,.091.072c.174.578.611,1.5,1.048,1.514a15.2,15.2,0,0,0,2.629-.836l1.1-.771a6.18,6.18,0,0,1,3.7.577c1.4.875,3.578,2.094,3.6,2.106.939.743.959.8.97.831a.524.524,0,0,1-.109.462c-.773,1.13-5.388,3.117-6.12,3.154-.067,0-.147.005-.236.005m-3.1-.381c.267.021,2.6.208,3.326.171.583-.029,5.2-1.949,5.962-3.064a.365.365,0,0,0,.087-.269c-.073-.078-.5-.43-.893-.74-.008,0-2.194-1.224-3.594-2.1a6.138,6.138,0,0,0-3.5-.569l-1.1.768a14.505,14.505,0,0,1-2.729.861c-.661-.022-1.113-1.267-1.218-1.587-.588.021-1.083.748-1.334,1.97-.129,1.106,3.537,3.654,4.99,4.56" fill="#3d5897"/>
            <path id="Trazado_798439" data-name="Trazado 798439" d="M37.847,131.145s-1.021-.793-1.377-.754a10.594,10.594,0,0,0-1.6.608,3.1,3.1,0,0,1,.347-.61c.367-.6,1.636-1.138,1.615-1.409a10.375,10.375,0,0,1,1.055-.61l.98,2a1.588,1.588,0,0,1-1.019.773" fill="#ffd127"/>
            <path id="Trazado_798440" data-name="Trazado 798440" d="M39.787,136.445s.791-1.682,1.4-1.972a13.927,13.927,0,0,0,1.59-.619,1.363,1.363,0,0,0,.265-1.084c.714.194,2.631.581,2.631.581s2.3.484-.449,1.76a15.218,15.218,0,0,1-5.439,1.334" fill="#ffd127"/>
            <path id="Trazado_798441" data-name="Trazado 798441" d="M45.675,133.35a.455.455,0,0,1,.285.774c-.408.58-2.018.851-3.14.928-.856.348-1.2.909-1.631.735s0-1.315,0-1.315a10.8,10.8,0,0,0-2.467,1.876,3.922,3.922,0,0,1-.754.812,17.5,17.5,0,0,0,5.688-.077c2.141-.6,3.609-1.083,3.2-2.727-.143-.832-1.182-1.006-1.182-1.006" fill="#3d5897"/>
            <path id="Trazado_798442" data-name="Trazado 798442" d="M34.6,136.987a3.12,3.12,0,0,1-1.223-.291,9.479,9.479,0,0,0-2.243-.677c-.836-.193-1.835-.832-1.856-1.2.164-1.972.265-2.514.265-2.514a3.857,3.857,0,0,0,1.387,1.141c1.009.471,3.221,1.374,3.67,3.54" fill="#3d5897"/>
            <path id="Trazado_798443" data-name="Trazado 798443" d="M39.926,130.927s.387.056.244.241-1.019,1.036-1.019,1.036-.306.251.347.773a1.209,1.209,0,0,0,1.508.194c.184-.213,1.02-1.006.652-1.432a9.854,9.854,0,0,0-1.243-1.064s-.225-.069-.489.252" fill="#fff"/>
            <path id="Trazado_798444" data-name="Trazado 798444" d="M40.465,133.451a1.657,1.657,0,0,1-1.031-.393c-.3-.242-.456-.469-.457-.673a.338.338,0,0,1,.109-.26c.3-.287.894-.879,1-1.02,0-.03-.1-.066-.179-.077a.1.1,0,0,1-.064-.166c.3-.369.586-.288.6-.284a9.176,9.176,0,0,1,1.291,1.094c.384.446-.258,1.139-.567,1.472-.035.038-.065.07-.085.093a.839.839,0,0,1-.619.214m-.344-2.577a.3.3,0,0,1,.17.147.205.205,0,0,1-.039.209c-.146.189-.994,1.012-1.03,1.047a.141.141,0,0,0-.04.113c0,.078.056.248.38.507a1.138,1.138,0,0,0,1.367.207c.022-.026.053-.059.09-.1.226-.244.827-.892.562-1.2a9.448,9.448,0,0,0-1.208-1.034.343.343,0,0,0-.252.1" fill="#3d5897"/>
            <path id="Trazado_798445" data-name="Trazado 798445" d="M39.742,130.526s.387.291-1.1,1.9a.916.916,0,0,1-1.122-.1c-.387-.271-.836-.619-.347-1.064s1.448-1.683.8-1.644l.367-.193Z" fill="#fff"/>
            <path id="Trazado_798446" data-name="Trazado 798446" d="M38.2,132.675a1.315,1.315,0,0,1-.738-.266c-.3-.207-.586-.434-.6-.729a.624.624,0,0,1,.246-.495c.474-.429,1.058-1.247.977-1.44-.012-.028-.079-.028-.106-.026a.1.1,0,0,1-.1-.074.1.1,0,0,1,.051-.118l.367-.194a.1.1,0,0,1,.111.01l1.406,1.1a.248.248,0,0,1,.084.183c.032.358-.374,1-1.172,1.863a.8.8,0,0,1-.517.184m.026-3.078a.25.25,0,0,1,.044.069c.168.4-.763,1.43-1.028,1.671a.427.427,0,0,0-.18.33c.013.2.274.4.517.574a.816.816,0,0,0,1,.1c1.244-1.343,1.11-1.712,1.1-1.741l-1.348-1.056Z" fill="#3d5897"/>
            <path id="Trazado_798447" data-name="Trazado 798447" d="M53.756,110.855l-.318.537s-.334.86.632,2.184c.537.325,2.714-.352,3.555-1.03.77-.379,2.441-1.361,3.516-1.746a42.691,42.691,0,0,0,5.477-2.528c1.625-.994,3.932-3.426,2.66-4.66-1.032-.245-15.522,7.243-15.522,7.243" fill="#fff"/>
            <path id="Trazado_798448" data-name="Trazado 798448" d="M54.495,113.758a.955.955,0,0,1-.478-.1c-1.017-1.38-.689-2.271-.675-2.308l.325-.553a.11.11,0,0,1,.041-.039c1.487-.767,14.562-7.5,15.594-7.251a.118.118,0,0,1,.048.026,1.3,1.3,0,0,1,.389,1.126c-.149,1.344-1.883,2.97-3.067,3.695a42.572,42.572,0,0,1-5.5,2.537,22.618,22.618,0,0,0-2.612,1.27c-.355.192-.662.357-.893.471a6.519,6.519,0,0,1-3.176,1.121m-.355-.261c.506.263,2.589-.361,3.421-1.032.247-.124.553-.288.906-.479a22.789,22.789,0,0,1,2.64-1.283,43.248,43.248,0,0,0,5.458-2.518c1.33-.815,2.844-2.4,2.97-3.543a1.1,1.1,0,0,0-.305-.935c-1.046,0-9.7,4.28-15.4,7.225l-.3.512a2.424,2.424,0,0,0,.614,2.053" fill="#3d5897"/>
            <path id="Trazado_798449" data-name="Trazado 798449" d="M66,103.425c-.044-.043-1.176-.26-1.176-.26s-2.506-.072-4.17-.2a6.26,6.26,0,0,0-3.45,1.145l-.633,1.212a14.958,14.958,0,0,1-1.979,1.981c-.515.247-1.449-.574-1.746-.878-.6.267-.781,1.149-.39,2.516.512,1.346,6.648,1.813,6.648,1.813s2.393-1.009,3.063-1.4c.651-.383,4.578-5.2,3.833-5.924" fill="#cddae0"/>
            <path id="Trazado_798450" data-name="Trazado 798450" d="M59.1,110.852c-.261-.02-6.214-.488-6.743-1.879-.4-1.381-.232-2.343.444-2.646a.1.1,0,0,1,.115.022c.421.432,1.235,1.047,1.628.858a15.17,15.17,0,0,0,1.946-1.956l.62-1.192a6.17,6.17,0,0,1,3.548-1.2c1.643.13,4.141.2,4.166.2,1.177.224,1.219.265,1.244.289a.52.52,0,0,1,.117.459c-.163,1.359-3.337,5.254-3.969,5.625-.668.392-2.978,1.367-3.076,1.408a.11.11,0,0,1-.04.008m-6.277-4.307c-.512.29-.615,1.164-.272,2.363.4,1.042,4.825,1.606,6.532,1.738.247-.1,2.408-1.021,3.029-1.386.5-.3,3.709-4.132,3.87-5.473a.362.362,0,0,0-.047-.279c-.1-.035-.644-.149-1.133-.243-.045,0-2.524-.072-4.16-.2a6.163,6.163,0,0,0-3.363,1.112l-.621,1.19a14.547,14.547,0,0,1-2.022,2.025c-.6.286-1.572-.61-1.813-.845" fill="#3d5897"/>
            <path id="Trazado_798451" data-name="Trazado 798451" d="M59.279,104.071s-1.271-.231-1.57-.032a10.581,10.581,0,0,0-1.138,1.279,3.005,3.005,0,0,1,.025-.7c.05-.7.925-1.766.781-2a10.509,10.509,0,0,1,.654-1.029l1.794,1.323a1.586,1.586,0,0,1-.546,1.156" fill="#ffd127"/>
            <path id="Trazado_798452" data-name="Trazado 798452" d="M63.45,107.873a5.782,5.782,0,0,1,.332-2.4c.408-.54,1.023-.991,1.123-1.284a1.36,1.36,0,0,0-.266-1.083c.723-.159,2.6-.7,2.6-.7s2.266-.635.415,1.769a15.213,15.213,0,0,1-4.206,3.7" fill="#ffd127"/>
            <path id="Trazado_798453" data-name="Trazado 798453" d="M67.241,102.407a.455.455,0,0,1,.611.554c-.094.7-1.4,1.688-2.355,2.275-.6.705-.647,1.362-1.107,1.406s-.608-1.166-.608-1.166a10.8,10.8,0,0,0-1.32,2.8,3.887,3.887,0,0,1-.294,1.068,17.5,17.5,0,0,0,5.008-2.7c1.622-1.521,2.7-2.628,1.579-3.9a1.462,1.462,0,0,0-1.514-.346" fill="#3d5897"/>
            <path id="Trazado_798454" data-name="Trazado 798454" d="M59.1,110.75a3.131,3.131,0,0,1-1.219.308,9.437,9.437,0,0,0-2.3.436c-.83.215-2.012.111-2.2-.205-.767-1.825-.927-2.352-.927-2.352a3.85,3.85,0,0,0,1.757.37c1.113-.049,3.491-.271,4.891,1.443" fill="#3d5897"/>
            <path id="Trazado_798455" data-name="Trazado 798455" d="M61.022,102.916s.369-.129.328.1-.425,1.391-.425,1.391-.155.364.665.525,1.362-.252,1.427-.526.439-1.363-.083-1.57a9.849,9.849,0,0,0-1.595-.369s-.231.043-.317.449" fill="#fff"/>
            <path id="Trazado_798456" data-name="Trazado 798456" d="M61.952,105.071a1.938,1.938,0,0,1-.382-.038.974.974,0,0,1-.715-.385.334.334,0,0,1-.024-.281c.129-.391.387-1.192.419-1.368-.016-.024-.117-.013-.194.014a.1.1,0,0,1-.1-.02.1.1,0,0,1-.033-.1c.1-.467.387-.525.4-.528a9.158,9.158,0,0,1,1.651.374c.546.217.3,1.129.177,1.567-.013.05-.025.092-.032.122a1.17,1.17,0,0,1-1.165.641m-.738-2.293a.266.266,0,0,1,.176.054.2.2,0,0,1,.061.2c-.042.235-.413,1.357-.429,1.4a.148.148,0,0,0,.016.119c.039.068.165.195.572.275a1.139,1.139,0,0,0,1.308-.45c.008-.033.02-.077.034-.129.088-.321.321-1.173-.056-1.323a9.534,9.534,0,0,0-1.549-.359.363.363,0,0,0-.176.208l.043,0" fill="#3d5897"/>
            <path id="Trazado_798457" data-name="Trazado 798457" d="M60.674,102.646s.477.079-.1,2.19a.914.914,0,0,1-1.039.433c-.469-.061-1.028-.163-.8-.783s.506-2.162-.054-1.826l.236-.341Z" fill="#fff"/>
            <path id="Trazado_798458" data-name="Trazado 798458" d="M59.751,105.385a1.713,1.713,0,0,1-.23-.016c-.356-.046-.718-.112-.871-.366a.622.622,0,0,1-.011-.553c.222-.6.361-1.595.2-1.729-.025-.018-.083.013-.108.026a.1.1,0,0,1-.135-.145l.236-.342a.1.1,0,0,1,.1-.042l1.757.327a.254.254,0,0,1,.157.124,3.484,3.484,0,0,1-.177,2.193.927.927,0,0,1-.922.523m-.851-2.862a.227.227,0,0,1,.07.041c.335.277-.016,1.62-.138,1.957a.425.425,0,0,0-.007.376c.106.176.428.231.723.27.459.058.807-.079.931-.372.484-1.767.194-2.031.168-2.05l-1.683-.314Z" fill="#3d5897"/>
            <path id="Trazado_798459" data-name="Trazado 798459" d="M161.827,19.285s2.857,10.226-2.85,12.881l-1.144-.764c5.706-2.654,2.8-12.638,2.8-12.638Z" fill="#fff"/>
            <path id="Trazado_798460" data-name="Trazado 798460" d="M102.441,31.36s-.152,8.669,5.572,10.044l.833-.548s-4.966-.861-5.88-10.3Z" fill="#fff"/>
            <path id="Trazado_798461" data-name="Trazado 798461" d="M179.747,92.757a5.494,5.494,0,0,0,4.311-2.865c.39,4.253-2.682,3.46-4.311,2.865" fill="#f4a47f"/>
            <path id="Trazado_798462" data-name="Trazado 798462" d="M167.368,85.25s-2.032-8.285,7.7-14.874l-.435-.478s-8.354,1.065-10.138,11.892c1.411,1.8,2.878,3.46,2.878,3.46" fill="#f4a47f"/>
            <path id="Trazado_798463" data-name="Trazado 798463" d="M168.266,34.753s1.369.287,2.98-1.427c.161,2.071-1.369,2.8-2.98,1.427" fill="#f4a47f"/>
          </g>
        </g>
      </g>
    </g>
  </g>
</svg>
