<svg xmlns="http://www.w3.org/2000/svg" xmlns:xlink="http://www.w3.org/1999/xlink" width="190" height="114.931" viewBox="0 0 190 114.931">
  <defs>
    <clipPath id="clip-path">
      <rect id="Rectángulo_373692" data-name="Rectángulo 373692" width="163.635" height="114.931" fill="none"/>
    </clipPath>
    <clipPath id="clip-path-3">
      <rect id="Rectángulo_373676" data-name="Rectángulo 373676" width="14.026" height="23.115" fill="none"/>
    </clipPath>
    <clipPath id="clip-path-4">
      <rect id="Rectángulo_373677" data-name="Rectángulo 373677" width="5.446" height="6.278" fill="none"/>
    </clipPath>
    <clipPath id="clip-path-5">
      <rect id="Rectángulo_373678" data-name="Rectángulo 373678" width="10.496" height="16.88" fill="none"/>
    </clipPath>
    <clipPath id="clip-path-6">
      <rect id="Rectángulo_373679" data-name="Rectángulo 373679" width="15.594" height="7.715" fill="none"/>
    </clipPath>
    <clipPath id="clip-path-7">
      <rect id="Rectángulo_373680" data-name="Rectángulo 373680" width="30.257" height="37.676" fill="none"/>
    </clipPath>
    <clipPath id="clip-path-8">
      <rect id="Rectángulo_373681" data-name="Rectángulo 373681" width="9.397" height="10.315" fill="none"/>
    </clipPath>
    <clipPath id="clip-path-9">
      <rect id="Rectángulo_373682" data-name="Rectángulo 373682" width="25.148" height="21.421" fill="none"/>
    </clipPath>
    <clipPath id="clip-path-10">
      <rect id="Rectángulo_373683" data-name="Rectángulo 373683" width="15.865" height="19.977" fill="none"/>
    </clipPath>
    <clipPath id="clip-path-11">
      <rect id="Rectángulo_373684" data-name="Rectángulo 373684" width="3.667" height="6.836" fill="none"/>
    </clipPath>
    <clipPath id="clip-path-12">
      <rect id="Rectángulo_373685" data-name="Rectángulo 373685" width="8.929" height="15.969" fill="none"/>
    </clipPath>
    <clipPath id="clip-path-13">
      <rect id="Rectángulo_373686" data-name="Rectángulo 373686" width="26.497" height="44.514" fill="none"/>
    </clipPath>
    <clipPath id="clip-path-14">
      <rect id="Rectángulo_373687" data-name="Rectángulo 373687" width="48.411" height="31.098" fill="none"/>
    </clipPath>
    <clipPath id="clip-path-15">
      <rect id="Rectángulo_373688" data-name="Rectángulo 373688" width="9.881" height="9.881" fill="none"/>
    </clipPath>
    <clipPath id="clip-path-16">
      <rect id="Rectángulo_373689" data-name="Rectángulo 373689" width="31.979" height="44.96" fill="none"/>
    </clipPath>
    <clipPath id="clip-path-17">
      <rect id="Rectángulo_373690" data-name="Rectángulo 373690" width="23.649" height="16.378" fill="none"/>
    </clipPath>
  </defs>
  <g id="Grupo_1064332" data-name="Grupo 1064332" transform="translate(-180 -6364.069)">
    <rect id="Rectángulo_373693" data-name="Rectángulo 373693" width="190" height="86" rx="10" transform="translate(180 6393)" fill="#ffebc5"/>
    <g id="Grupo_1064284" data-name="Grupo 1064284" transform="translate(193.183 6364.069)">
      <g id="Grupo_1064331" data-name="Grupo 1064331" clip-path="url(#clip-path)">
        <g id="Grupo_1064330" data-name="Grupo 1064330">
          <g id="Grupo_1064329" data-name="Grupo 1064329" clip-path="url(#clip-path)">
            <path id="Trazado_798629" data-name="Trazado 798629" d="M277.1,171.75a7.4,7.4,0,0,0-6.5,5.582c-1.457,5.829-2.325,10.163-2.325,10.163l9.617,5.748,6.378-8.009-2.379-6.243Z" transform="translate(-158.856 -101.697)" fill="#80dded"/>
            <path id="Trazado_798630" data-name="Trazado 798630" d="M262.515,214.025a4.82,4.82,0,0,1-3.009,1.836c-6.222.811-12.454-14.843-12.454-14.843l3.114-4.338,2.824-3.934s16.38,13.339,9.525,21.28" transform="translate(-146.286 -114.129)" fill="#f6b9a8"/>
            <g id="Grupo_1064286" data-name="Grupo 1064286" transform="translate(103.88 78.616)" style="mix-blend-mode: multiply;isolation: isolate">
              <g id="Grupo_1064285" data-name="Grupo 1064285">
                <g id="Grupo_1064284-2" data-name="Grupo 1064284" clip-path="url(#clip-path-3)">
                  <path id="Trazado_798631" data-name="Trazado 798631" d="M267.035,214.025a4.82,4.82,0,0,1-3.009,1.836,16.932,16.932,0,0,0-8.379-18.668c-.356-.195-.676-.36-.961-.513l2.824-3.934s16.38,13.339,9.525,21.28" transform="translate(-254.686 -192.745)" fill="#f5d4cc"/>
                </g>
              </g>
            </g>
            <path id="Trazado_798632" data-name="Trazado 798632" d="M243.956,168.529l-2.923.532-1.857.339s-1.889-3.964-.665-5.765a1.9,1.9,0,0,1,1.229-.792c3.328-.746,4.216,5.685,4.216,5.685" transform="translate(-140.983 -96.388)" fill="#f6b9a8"/>
            <g id="Grupo_1064289" data-name="Grupo 1064289" transform="translate(97.527 66.396)" style="mix-blend-mode: multiply;isolation: isolate">
              <g id="Grupo_1064288" data-name="Grupo 1064288">
                <g id="Grupo_1064287" data-name="Grupo 1064287" clip-path="url(#clip-path-4)">
                  <path id="Trazado_798633" data-name="Trazado 798633" d="M241.782,168.235a5.668,5.668,0,0,0-.15-2.843,2.647,2.647,0,0,0-2.076-1.774,1.64,1.64,0,0,0-.446.018,1.9,1.9,0,0,1,1.229-.791c3.328-.746,4.216,5.685,4.216,5.685l-2.922.532c.053-.276.106-.552.149-.827" transform="translate(-239.11 -162.784)" fill="#f5d4cc"/>
                </g>
              </g>
            </g>
            <path id="Trazado_798634" data-name="Trazado 798634" d="M236.551,190.5a8.954,8.954,0,0,1-2.193.159,8.367,8.367,0,0,1-3.606-15.791,8.976,8.976,0,0,1,2.539-.912c4.708-.927,6.69,2.118,7.593,6.685s.38,8.927-4.332,9.859" transform="translate(-133.96 -102.905)" fill="#f6b9a8"/>
            <path id="Trazado_798635" data-name="Trazado 798635" d="M246.078,205.947c.007-.033.443,0,1.115-.126a12.468,12.468,0,0,0,2.475-.574,4.584,4.584,0,0,0,2.061-1.669,6,6,0,0,0,.758-1.589,22.415,22.415,0,0,1,.542-2.2c.066-.005.167.252.191.686a4.725,4.725,0,0,1-.22,1.678,6.032,6.032,0,0,1-.868,1.716A4.9,4.9,0,0,1,249.8,205.6a10.655,10.655,0,0,1-2.582.426,2.249,2.249,0,0,1-1.14-.082" transform="translate(-145.709 -118.298)" fill="#49074a"/>
            <path id="Trazado_798636" data-name="Trazado 798636" d="M237.661,183.583a8.859,8.859,0,0,1,2.924-1.346,13.343,13.343,0,0,1,2.422-.471,12.212,12.212,0,0,1,1.621-.057c1.128.031,2,.345,1.97.483-.031.153-.912.084-1.989.055a15.159,15.159,0,0,0-1.562.013,14.536,14.536,0,0,0-2.366.345c-1.614.354-2.984,1.049-3.021.978" transform="translate(-140.724 -107.59)" fill="#49074a"/>
            <path id="Trazado_798637" data-name="Trazado 798637" d="M244.159,197.975c0-.077,1.281-.159,2.657-.375,1.379-.2,2.841-.553,3.285-.665.89-.21,1.632-.321,1.678-.177s-.642.485-1.552.7a23.808,23.808,0,0,1-3.367.52,10.606,10.606,0,0,1-2.7,0" transform="translate(-144.573 -116.467)" fill="#49074a"/>
            <path id="Trazado_798638" data-name="Trazado 798638" d="M226.5,184.349a1.917,1.917,0,0,1-.163-.507,10.331,10.331,0,0,1-.257-1.4,8.17,8.17,0,0,1,.016-2.063,8.423,8.423,0,0,1,.705-2.336,9.064,9.064,0,0,1,3.177-3.738A8.027,8.027,0,0,1,233,173.095a6.812,6.812,0,0,1,2.876.1c.715.2,1.106.444,1.08.505s-.46-.038-1.155-.132a9.123,9.123,0,0,0-2.71.055,7.8,7.8,0,0,0-2.846,1.1,8.788,8.788,0,0,0-3.1,3.487,8.327,8.327,0,0,0-.751,2.219,8.455,8.455,0,0,0-.1,2c.078,1.166.261,1.913.212,1.923" transform="translate(-133.834 -102.431)" fill="#49074a"/>
            <g id="Grupo_1064292" data-name="Grupo 1064292" transform="translate(96.792 70.885)" style="mix-blend-mode: multiply;isolation: isolate">
              <g id="Grupo_1064291" data-name="Grupo 1064291">
                <g id="Grupo_1064290" data-name="Grupo 1064290" clip-path="url(#clip-path-5)">
                  <path id="Trazado_798639" data-name="Trazado 798639" d="M243.106,190.5a8.954,8.954,0,0,1-2.193.159c.138-.046.276-.1.412-.15a4.1,4.1,0,0,0,2.7-3.154,2.517,2.517,0,0,0-2.571-2.783c1.15-.822,2.422-1.868,2.408-3.28a3.028,3.028,0,0,0-2.13-2.6,8.861,8.861,0,0,0-3.549-.268,1.978,1.978,0,0,0,.905-2.881,1.864,1.864,0,0,0-1.437-.722.933.933,0,0,0-.343.052,8.976,8.976,0,0,1,2.539-.912c4.709-.927,6.69,2.118,7.593,6.685s.38,8.927-4.332,9.859" transform="translate(-237.306 -173.79)" fill="#f5d4cc"/>
                </g>
              </g>
            </g>
            <path id="Trazado_798640" data-name="Trazado 798640" d="M313.946,208.536c-.054-3.379-3.212-18.538-6.573-27.073-.108-.281-.221-.565-.334-.846-.022-.049-.04-.1-.061-.148-.1-.256-.2-.507-.308-.762-.073-.186-.147-.372-.225-.557-.945-2.273-1.943-4.511-2.914-6.61-.259-.562-.493-1.126-.7-1.68a24.088,24.088,0,0,1-1.41-7.358c-.032-.913-.016-1.733.029-2.431a18.142,18.142,0,0,1,.3-2.482l-3.529-.506-5.178,1.275-.565.225-.619.244-.008,0-9.636,3.825s-4.441,2.113-5.3,44.879Z" transform="translate(-163.968 -93.605)" fill="#80dded"/>
            <g id="Grupo_1064295" data-name="Grupo 1064295" transform="translate(125.51 97.265)" opacity="0.5" style="mix-blend-mode: multiply;isolation: isolate">
              <g id="Grupo_1064294" data-name="Grupo 1064294">
                <g id="Grupo_1064293" data-name="Grupo 1064293" clip-path="url(#clip-path-6)">
                  <path id="Trazado_798641" data-name="Trazado 798641" d="M307.716,241.044l15.254-2.577.34,5.559s-15.5,2.4-15.49,2.137-.1-5.119-.1-5.119" transform="translate(-307.716 -238.467)" fill="#b1cffd"/>
                </g>
              </g>
            </g>
            <g id="Grupo_1064298" data-name="Grupo 1064298" transform="translate(119.721 77.255)" opacity="0.76" style="mix-blend-mode: multiply;isolation: isolate">
              <g id="Grupo_1064297" data-name="Grupo 1064297">
                <g id="Grupo_1064296" data-name="Grupo 1064296" clip-path="url(#clip-path-7)">
                  <path id="Trazado_798642" data-name="Trazado 798642" d="M323.781,227.084c0-3.379-3.4-19.209-6.968-28.067-.175-.441-.354-.878-.533-1.319-.945-2.273-1.943-4.511-2.914-6.61-.259-.562-.493-1.126-.7-1.68-4.535.481-1.823,5.607-1.729,8.775a31.839,31.839,0,0,1-2.725,13.807,30.541,30.541,0,0,1-4.146,6.789,31.013,31.013,0,0,1-10.545,8.3Z" transform="translate(-293.524 -189.408)" fill="#b1cffd"/>
                </g>
              </g>
            </g>
            <path id="Trazado_798643" data-name="Trazado 798643" d="M300.418,159.307l.067,1.418-6.351,8.286-1.04,1.355-3.492-5.982-.217-2.916,2.459-.48Z" transform="translate(-171.352 -94.33)" fill="#f6b9a8"/>
            <g id="Grupo_1064301" data-name="Grupo 1064301" transform="translate(119.728 64.888)" style="mix-blend-mode: multiply;isolation: isolate">
              <g id="Grupo_1064300" data-name="Grupo 1064300">
                <g id="Grupo_1064299" data-name="Grupo 1064299" clip-path="url(#clip-path-8)">
                  <path id="Trazado_798644" data-name="Trazado 798644" d="M302.867,159.089l.072,1.507-6.752,8.808a16.557,16.557,0,0,0-.23-4.827,4.468,4.468,0,0,0-1.071-2.326c-.541-.539-1.592-.4-1.292-1.15a.763.763,0,0,1,.159-.227Z" transform="translate(-293.541 -159.089)" fill="#f5d4cc"/>
                </g>
              </g>
            </g>
            <path id="Trazado_798645" data-name="Trazado 798645" d="M288.569,184.324a4.688,4.688,0,0,1-.766-.825c-.437-.523-1.009-1.247-1.583-2.019-1.155-1.54-2.3-3.287-2.626-3.829-.671-1.08-1.075-2.036-.948-2.108s.74.754,1.405,1.825c.328.538,1.41,2.3,2.479,3.892s2.1,3.017,2.038,3.064" transform="translate(-167.348 -103.94)" fill="#49074a"/>
            <path id="Trazado_798646" data-name="Trazado 798646" d="M310.01,164.528c.116.093-6.939,9.1-8.224,10.7a13.111,13.111,0,0,1-2.537,2.737,13.082,13.082,0,0,1,2.116-3.073c1.285-1.6,8.528-10.457,8.644-10.364" transform="translate(-177.188 -97.421)" fill="#49074a"/>
            <path id="Trazado_798647" data-name="Trazado 798647" d="M347.006,211.211c-.046.013-.093.022-.139.031-.135.021-.27.038-.41.048-.077,0-.154.006-.231,0-2.648.027-4.691-1.91-6.221-4.388a34.929,34.929,0,0,1-3.781-10.3l10.736-9.864s.205.713.507,1.9a87.255,87.255,0,0,1,2.21,11.738c.553,5.243.235,10.154-2.671,10.835" transform="translate(-199.086 -110.573)" fill="#f6b9a8"/>
            <path id="Trazado_798648" data-name="Trazado 798648" d="M342.3,175.073a18.916,18.916,0,0,1-5.129,3.449c-1.127.566-2.31,1.09-3.472,1.565-.128.051-.255.106-.379.152-.169.072-.334.139-.5.2-.462.181-.912.357-1.355.519a12.139,12.139,0,0,1-4.585,1.034,94.916,94.916,0,0,1-4.8-9.165c-1.048-2.944-1.541-6.356-.125-9.322.029-.058.057-.117.086-.171a6.237,6.237,0,0,1,.333-.593,8.445,8.445,0,0,1,1.538-1.868,7.689,7.689,0,0,1,.953-.733,5.684,5.684,0,0,1,3.043-.818,8.148,8.148,0,0,1,1.547.152c.079.018.158.036.24.05,5.229,1.174,8.693,5.6,10.739,10.122a30.151,30.151,0,0,1,1.446,3.839c.05.166.558,1.441.422,1.587" transform="translate(-190.115 -94.34)" fill="#80dded"/>
            <g id="Grupo_1064304" data-name="Grupo 1064304" transform="translate(127.054 64.48)" opacity="0.76" style="mix-blend-mode: multiply;isolation: isolate">
              <g id="Grupo_1064303" data-name="Grupo 1064303">
                <g id="Grupo_1064302" data-name="Grupo 1064302" clip-path="url(#clip-path-9)">
                  <path id="Trazado_798649" data-name="Trazado 798649" d="M336.626,174.342a18.936,18.936,0,0,1-5.127,3.448c-1.125.567-2.31,1.091-3.474,1.564-.128.051-.256.107-.379.154a59.015,59.015,0,0,0-3.392-12.582,8.351,8.351,0,0,0-2.349-3.422,4.887,4.887,0,0,0-.4-.281,7.57,7.57,0,0,0-5.08-.631.355.355,0,0,0-.055.013c-1,.166-4.335,1.193-4.867.1l2.071-2.7-.03-.648,5.161-1.27,3.529.5a8.31,8.31,0,0,1,1.547.153c.081.017.158.038.243.051,5.225,1.172,8.69,5.6,10.736,10.122a29.961,29.961,0,0,1,1.449,3.836c.047.166.554,1.441.418,1.59" transform="translate(-311.502 -158.087)" fill="#b1cffd"/>
                </g>
              </g>
            </g>
            <path id="Trazado_798650" data-name="Trazado 798650" d="M353.5,212.03a2.849,2.849,0,0,1-.285.084c-.046.013-.092.022-.138.03-.135.022-.27.039-.411.048-.077,0-.153.007-.23.005a4.941,4.941,0,0,1-3.073-1.235,6.7,6.7,0,0,1-2.112-2.782c-2.424-6,3.89-15.276,6.424-18.639.611-.812,1-1.278,1-1.278l3.521,3.328.668.63,3.21,3.037s-2.873,15.066-8.58,16.773" transform="translate(-205.292 -111.475)" fill="#f6b9a8"/>
            <g id="Grupo_1064307" data-name="Grupo 1064307" transform="translate(140.918 80.746)" style="mix-blend-mode: multiply;isolation: isolate">
              <g id="Grupo_1064306" data-name="Grupo 1064306">
                <g id="Grupo_1064305" data-name="Grupo 1064305" clip-path="url(#clip-path-10)">
                  <path id="Trazado_798651" data-name="Trazado 798651" d="M352.779,217.775a2.834,2.834,0,0,1-.285.084c-.046.013-.092.022-.138.03-.135.022-.27.039-.411.048-.077,0-.153.007-.23.005-2.648.026-4.691-1.91-6.221-4.389a3.882,3.882,0,0,0,1.037.372,5.527,5.527,0,0,0,3.039-.235c2.75-1.016,4.651-3.648,5.531-6.446.023-.075.046-.146.065-.22a19.34,19.34,0,0,0,.685-3.8,23.62,23.62,0,0,1,.152-3.876,2.145,2.145,0,0,1,2.145-1.383l3.21,3.037s-2.873,15.066-8.58,16.773" transform="translate(-345.494 -197.966)" fill="#f5d4cc"/>
                </g>
              </g>
            </g>
            <path id="Trazado_798652" data-name="Trazado 798652" d="M376.832,162.392l-2.921-.538-1.857-.341s-.363-4.376,1.42-5.626a1.9,1.9,0,0,1,1.43-.3c3.376.482,1.928,6.81,1.928,6.81" transform="translate(-220.285 -92.109)" fill="#f6b9a8"/>
            <g id="Grupo_1064310" data-name="Grupo 1064310" transform="translate(153.189 63.447)" style="mix-blend-mode: multiply;isolation: isolate">
              <g id="Grupo_1064309" data-name="Grupo 1064309">
                <g id="Grupo_1064308" data-name="Grupo 1064308" clip-path="url(#clip-path-11)">
                  <path id="Trazado_798653" data-name="Trazado 798653" d="M376.448,161.134a5.664,5.664,0,0,0,.867-2.712A2.646,2.646,0,0,0,376,156.028a1.633,1.633,0,0,0-.424-.141,1.9,1.9,0,0,1,1.43-.3c3.376.482,1.928,6.81,1.928,6.81l-2.922-.538c.148-.239.3-.479.433-.721" transform="translate(-375.578 -155.556)" fill="#f5d4cc"/>
                </g>
              </g>
            </g>
            <path id="Trazado_798654" data-name="Trazado 798654" d="M379.354,175.3a8.489,8.489,0,0,1-6.542,8.14,9,9,0,0,1-2.185.26c-.069,0-.137,0-.2-.006-4.637-.135-5.931-4.262-5.92-8.853.021-4.656,1.39-8.02,6.187-8a9.121,9.121,0,0,1,2.668.413,8.29,8.29,0,0,1,1.2.48,8.406,8.406,0,0,1,4.8,7.569" transform="translate(-215.832 -98.79)" fill="#f6b9a8"/>
            <path id="Trazado_798655" data-name="Trazado 798655" d="M373.168,200.412a2.246,2.246,0,0,1-1.1.3,10.651,10.651,0,0,1-2.616.071,4.894,4.894,0,0,1-2.621-1.264,6.026,6.026,0,0,1-1.177-1.52,4.7,4.7,0,0,1-.534-1.605c-.058-.431-.009-.7.057-.71.159-.018.359.985.95,2.059a6,6,0,0,0,1.045,1.417,4.583,4.583,0,0,0,2.34,1.248,12.442,12.442,0,0,0,2.539.1c.684,0,1.1-.119,1.118-.088" transform="translate(-216.179 -115.867)" fill="#49074a"/>
            <path id="Trazado_798656" data-name="Trazado 798656" d="M374.612,176.426c-.022.077-1.5-.345-3.151-.387a14.54,14.54,0,0,0-2.388.11,15.238,15.238,0,0,0-1.536.283c-1.052.232-1.9.467-1.963.323-.057-.129.741-.6,1.842-.848a12.279,12.279,0,0,1,1.6-.251,13.328,13.328,0,0,1,2.467,0,8.864,8.864,0,0,1,3.126.767" transform="translate(-216.464 -103.978)" fill="#49074a"/>
            <path id="Trazado_798657" data-name="Trazado 798657" d="M372.725,192.105a10.625,10.625,0,0,1-2.652.515,23.9,23.9,0,0,1-3.4.128c-.934-.039-1.674-.248-1.657-.393s.768-.183,1.681-.144c.456.026,1.959.095,3.351.03,1.392-.049,2.667-.211,2.68-.135" transform="translate(-216.133 -113.739)" fill="#49074a"/>
            <path id="Trazado_798658" data-name="Trazado 798658" d="M382.928,175.651c-.05,0-.012-.768-.157-1.928a8.47,8.47,0,0,0-.481-1.941,8.331,8.331,0,0,0-1.158-2.036,8.788,8.788,0,0,0-3.708-2.835,7.806,7.806,0,0,0-3-.538,9.12,9.12,0,0,0-2.671.459c-.664.224-1.066.417-1.109.348s.3-.371.965-.7a6.812,6.812,0,0,1,2.8-.645,8.035,8.035,0,0,1,3.2.617,9.062,9.062,0,0,1,3.828,3.068,8.4,8.4,0,0,1,1.135,2.16,8.172,8.172,0,0,1,.407,2.022,10.376,10.376,0,0,1,.012,1.422,1.909,1.909,0,0,1-.064.528" transform="translate(-219.465 -98.194)" fill="#49074a"/>
            <g id="Grupo_1064313" data-name="Grupo 1064313" transform="translate(154.593 68.943)" style="mix-blend-mode: multiply;isolation: isolate">
              <g id="Grupo_1064312" data-name="Grupo 1064312">
                <g id="Grupo_1064311" data-name="Grupo 1064311" clip-path="url(#clip-path-12)">
                  <path id="Trazado_798659" data-name="Trazado 798659" d="M387.949,176.6a8.489,8.489,0,0,1-6.542,8.14,9,9,0,0,1-2.185.26c-.069,0-.137,0-.2-.006a4.6,4.6,0,0,0,1.977-1.17,3.33,3.33,0,0,0,.792-3.492,2.563,2.563,0,0,0-2.407-1.53,7,7,0,0,0,2.819-1.366,3.619,3.619,0,0,0,1.313-3.456,2.387,2.387,0,0,0-2.96-1.755,6.082,6.082,0,0,0,1.9-1.115,2.222,2.222,0,0,0,.72-2,.505.505,0,0,0-.025-.079,8.406,8.406,0,0,1,4.8,7.569" transform="translate(-379.02 -169.03)" fill="#f5d4cc"/>
                </g>
              </g>
            </g>
            <path id="Trazado_798660" data-name="Trazado 798660" d="M337.136,198.357a2.091,2.091,0,0,1-.463.272c-.305.155-.746.372-1.293.611a24.164,24.164,0,0,1-4.272,1.4l-.619.14-.331.07-.274.056c-.019,0-.055.028-.059,0l-.029-.064-.058-.127-.292-.638-.252-.578c-.327-.768-.614-1.525-.857-2.222-.49-1.393-.785-2.552-.919-3.092a10.911,10.911,0,0,1-.472-4,25,25,0,0,1,1,3.875c.133.533.409,1.678.866,3.061.227.692.494,1.444.8,2.211l.235.577.221.518c0,.034.028.029.055.023l.291-.053.617-.122a27.255,27.255,0,0,0,4.275-1.223c1.109-.418,1.817-.725,1.834-.688" transform="translate(-193.557 -112.609)" fill="#49074a"/>
            <path id="Trazado_798661" data-name="Trazado 798661" d="M277.557,220.471a4.084,4.084,0,0,1-.01-.755c.017-.481.041-1.172.071-2.01.07-1.676.182-3.943.316-6.307.26-4.727.64-9.84.784-11.4a26.545,26.545,0,0,1,.826-5.6,34.382,34.382,0,0,1-.29,5.65c-.144,1.553-.584,6.655-.941,11.374-.182,2.36-.357,4.622-.486,6.294-.071.836-.131,1.524-.171,2a4.2,4.2,0,0,1-.1.748" transform="translate(-164.339 -115.11)" fill="#49074a"/>
            <path id="Trazado_798662" data-name="Trazado 798662" d="M346.736,214.762a4,4,0,0,1,.049-1.085,21.8,21.8,0,0,1,.427-2.444,24.332,24.332,0,0,1,1.419-4.265c.5-1.129,1.11-1.937,1.234-1.864s-.254.983-.743,2.085a29.992,29.992,0,0,0-1.541,4.14c-.52,1.764-.767,3.443-.845,3.434" transform="translate(-205.3 -121.444)" fill="#49074a"/>
            <path id="Trazado_798663" data-name="Trazado 798663" d="M352.284,118.8a18.3,18.3,0,0,1-12.424,4.032c-2.194-.122-4.593-.8-5.735-2.681a6.911,6.911,0,0,1-.44-5.033c.661-3.07,2.268-6.114,5.016-7.633,2.634-1.457,6.576-.983,8.5,1.5.971,1.253,1.235,3.179,1.9,4.616a26.386,26.386,0,0,0,3.183,5.2" transform="translate(-197.428 -63.158)" fill="#440045"/>
            <path id="Trazado_798664" data-name="Trazado 798664" d="M360.361,89.551a7.432,7.432,0,0,1-8.939,8.284c-.192-.042-.385-.091-.575-.146a7.429,7.429,0,0,1,1.1-14.456l.038-.008a7.423,7.423,0,0,1,8.38,6.327" transform="translate(-204.628 -49.236)" fill="#f6b9a8"/>
            <path id="Trazado_798665" data-name="Trazado 798665" d="M284.272,64.872c-.053.39-.119.773-.206,1.154-1.555,7.063-8.643,12.721-16.9,16.149-10.751,4.471-23.49,5.171-28.6.313-9.82-9.34-4.111-27.671-4.111-27.671l-.131-10.944,5.656-8.149,12.549-6.043,20,1.893a53.733,53.733,0,0,1,4.385,6.187h0a54.331,54.331,0,0,1,6.365,14.346,33.1,33.1,0,0,1,.994,12.766" transform="translate(-137.847 -17.574)" fill="#f6b9a8"/>
            <path id="Trazado_798666" data-name="Trazado 798666" d="M329.738,110.9c.945,2.744-.915,5.794-4.22,6.932s-6.8-.066-7.746-2.81.967-5.891,4.271-7.029,6.749.163,7.695,2.907" transform="translate(-188.018 -63.702)" fill="#ff757a"/>
            <path id="Trazado_798667" data-name="Trazado 798667" d="M250.062,132.971a4.95,4.95,0,0,1-4.859,4.939c-2.918.173-5.566-1.888-5.71-4.31s2.105-4.526,5.023-4.7,5.4,1.649,5.545,4.071" transform="translate(-141.806 -76.318)" fill="#ff757a"/>
            <path id="Trazado_798668" data-name="Trazado 798668" d="M247.757,92.368a.7.7,0,0,0,.616-1.129,2.931,2.931,0,0,0-1.305-.931,4.313,4.313,0,0,0-2.993.171,4.408,4.408,0,0,0-2.805,3.034c-.153.772.033,1.655.845,1.1a17.624,17.624,0,0,1,1.945-1.47,7.119,7.119,0,0,1,3.7-.771" transform="translate(-142.832 -53.358)" fill="#440045"/>
            <path id="Trazado_798669" data-name="Trazado 798669" d="M302.644,76.672a.7.7,0,0,0,.616-1.129,2.931,2.931,0,0,0-1.305-.931,4.311,4.311,0,0,0-2.993.171,4.409,4.409,0,0,0-2.805,3.034c-.153.772.033,1.655.845,1.1a17.626,17.626,0,0,1,1.945-1.47,7.119,7.119,0,0,1,3.7-.771" transform="translate(-175.332 -44.064)" fill="#440045"/>
            <path id="Trazado_798670" data-name="Trazado 798670" d="M252.61,103.334c.679,3.119-.729,5.106-2.9,5.579s-4.274-.75-4.954-3.869.527-6.03,2.695-6.5,4.476,1.674,5.155,4.792" transform="translate(-144.817 -58.31)" fill="#440045"/>
            <path id="Trazado_798671" data-name="Trazado 798671" d="M253.062,105.911c.679,3.119-.728,5.106-2.9,5.579s-4.275-.75-4.954-3.869.527-6.03,2.695-6.5,4.476,1.674,5.155,4.792" transform="translate(-145.084 -59.837)" fill="#fff"/>
            <path id="Trazado_798672" data-name="Trazado 798672" d="M257.774,107.565c.479,2.2-.153,4.206-1.414,4.481-.987.215-2.065-.7-2.716-2.162l1.19-1.679-1.777-.888c-.057-1.669.552-3.014,1.568-3.235,1.261-.275,2.67,1.283,3.149,3.483" transform="translate(-149.839 -61.611)" fill="#440045"/>
            <path id="Trazado_798673" data-name="Trazado 798673" d="M307.157,88.775c.8,3.677-.878,6.024-3.458,6.586s-5.082-.874-5.883-4.551.641-7.113,3.22-7.674,5.32,1.963,6.12,5.64" transform="translate(-176.214 -49.18)" fill="#440045"/>
            <path id="Trazado_798674" data-name="Trazado 798674" d="M307.688,91.814c.8,3.677-.878,6.024-3.458,6.586s-5.082-.874-5.883-4.551.641-7.113,3.22-7.674,5.319,1.963,6.12,5.64" transform="translate(-176.528 -50.98)" fill="#fff"/>
            <path id="Trazado_798675" data-name="Trazado 798675" d="M313.261,93.563c.57,2.619-.182,5.005-1.683,5.332-1.174.256-2.457-.829-3.232-2.572l1.416-2-2.114-1.057c-.067-1.986.657-3.587,1.866-3.85,1.5-.327,3.177,1.526,3.747,4.145" transform="translate(-182.163 -52.925)" fill="#440045"/>
            <path id="Trazado_798676" data-name="Trazado 798676" d="M287.379,125.94a6.541,6.541,0,0,1-2.67,5.76,9.926,9.926,0,0,1-7.134,1.6,9.319,9.319,0,0,1-1.664-.346,5.7,5.7,0,0,1-1.451-.665c-1.689-1.108-2.753-4.323-.308-5.187,1.089-.385,2.274-.45,3.371-.857a14.957,14.957,0,0,0,3.936-2.162,5.354,5.354,0,0,1,2.856-1.5,3.247,3.247,0,0,1,2.9,2.541,5.285,5.285,0,0,1,.164.822" transform="translate(-161.482 -72.58)" fill="#440045"/>
            <path id="Trazado_798677" data-name="Trazado 798677" d="M292.019,130.824a6.541,6.541,0,0,1-2.67,5.76,9.927,9.927,0,0,1-7.134,1.6,9.322,9.322,0,0,1-1.664-.346c1.63-2.24,5.5-6.559,11.467-7.011" transform="translate(-166.122 -77.464)" fill="#ff757a"/>
            <path id="Trazado_798678" data-name="Trazado 798678" d="M273.458,125.351c-.008.031-.153.04-.348-.06a1.228,1.228,0,0,1-.558-.6,1.253,1.253,0,0,1-.024-.951,1.363,1.363,0,0,1,.359-.529.812.812,0,0,1,.522-.212c.152,0,.241.066.248.137.006.151-.21.289-.414.478a1.091,1.091,0,0,0-.26.321.89.89,0,0,0-.073.627,1.2,1.2,0,0,0,.319.56c.126.131.24.193.228.231" transform="translate(-161.322 -72.829)" fill="#49074a"/>
            <g id="Grupo_1064316" data-name="Grupo 1064316" transform="translate(129.309 20.087)" style="mix-blend-mode: multiply;isolation: isolate">
              <g id="Grupo_1064315" data-name="Grupo 1064315">
                <g id="Grupo_1064314" data-name="Grupo 1064314" clip-path="url(#clip-path-13)">
                  <path id="Trazado_798679" data-name="Trazado 798679" d="M343.455,69.475a7.431,7.431,0,0,1-8.939,8.284c-.192-.042-.385-.091-.575-.146-1.555,7.063-8.643,12.721-16.9,16.148a29.311,29.311,0,0,0,9-15.572,25.034,25.034,0,0,0,.4-6.876A25.316,25.316,0,0,0,322.568,59.7a21.9,21.9,0,0,0-3.968-4.647c-.65-.572-1.6-1.016-1.568-1.978.031-1.018,1.284-2.019,2.081-2.464a12.822,12.822,0,0,1,7.672-1.26h0a31.426,31.426,0,0,1,4.3.774l4.194,4.728-.25,8.309.038-.008a7.423,7.423,0,0,1,8.38,6.327" transform="translate(-317.031 -49.247)" fill="#f5d4cc"/>
                </g>
              </g>
            </g>
            <g id="Grupo_1064319" data-name="Grupo 1064319" transform="translate(96.225 16.445)" style="mix-blend-mode: multiply;isolation: isolate">
              <g id="Grupo_1064318" data-name="Grupo 1064318">
                <g id="Grupo_1064317" data-name="Grupo 1064317" clip-path="url(#clip-path-14)">
                  <path id="Trazado_798680" data-name="Trazado 798680" d="M251.872,53.069a24.756,24.756,0,0,0,8.666,10.921q1.73-7.211,3.46-14.422a19.465,19.465,0,0,0,20.113,14.011c1.013-4.693-1.7-9.334-4.561-13.187-2.6-3.5-5.566-6.931-9.535-8.73-6.416-2.908-14.249-.809-19.762,3.577s-9.121,10.7-12.233,17.016c-1.147,2.329-2.437,5.117-2.023,7.789.334,2.153.956,1.431,2.157.183q1.525-1.585,2.994-3.224a119.035,119.035,0,0,0,10.725-13.933" transform="translate(-235.917 -40.319)" fill="#f5d4cc"/>
                </g>
              </g>
            </g>
            <path id="Trazado_798681" data-name="Trazado 798681" d="M311.431,132.725a.831.831,0,0,1-.118.212l-.378.576a20.732,20.732,0,0,1-1.571,1.928,29.772,29.772,0,0,1-6.013,4.968,32.452,32.452,0,0,1-3.881,2.107c-1.323.6-2.626,1.113-3.829,1.552a54.417,54.417,0,0,1-5.348,1.646,36.647,36.647,0,0,1-4.871.885,6.815,6.815,0,0,1-2.054.055,9.107,9.107,0,0,1,2-.432c1.237-.224,2.936-.569,4.795-1.03.929-.231,2.916-.747,5.311-1.591,1.2-.422,2.5-.918,3.814-1.492a32.823,32.823,0,0,0,3.862-2.023,31.056,31.056,0,0,0,6.061-4.789c.725-.733,1.259-1.394,1.637-1.849a6.27,6.27,0,0,1,.582-.722" transform="translate(-167.79 -78.589)" fill="#49074a"/>
            <g id="Grupo_1064322" data-name="Grupo 1064322" transform="translate(143.439 36.402)" style="mix-blend-mode: multiply;isolation: isolate">
              <g id="Grupo_1064321" data-name="Grupo 1064321">
                <g id="Grupo_1064320" data-name="Grupo 1064320" clip-path="url(#clip-path-15)">
                  <path id="Trazado_798682" data-name="Trazado 798682" d="M361.507,93.506a4.94,4.94,0,1,1-5.6-4.2l.023,0a4.939,4.939,0,0,1,5.576,4.208" transform="translate(-351.675 -89.25)" fill="#f5d4cc"/>
                </g>
              </g>
            </g>
            <path id="Trazado_798683" data-name="Trazado 798683" d="M366.244,99.678c0,.046-.285.077-.712.186a7.54,7.54,0,0,0-1.542.555,7.109,7.109,0,0,0-1.48.973,7.182,7.182,0,0,0-.813.819c-.528.593-.908,1.13-1.049,1.062s.063-.759.642-1.414a6.268,6.268,0,0,1,.908-.852,6.851,6.851,0,0,1,1.638-.936,6.125,6.125,0,0,1,1.661-.414,1.7,1.7,0,0,1,.747.021" transform="translate(-213.526 -58.996)" fill="#49074a"/>
            <path id="Trazado_798684" data-name="Trazado 798684" d="M343.175,85.873l2.894,14.59,4.308-13.174Z" transform="translate(-203.203 -50.847)" fill="#440045"/>
            <path id="Trazado_798685" data-name="Trazado 798685" d="M226.859,94.587l1.463,15.293,5.329-15.943Z" transform="translate(-134.329 -55.623)" fill="#440045"/>
            <path id="Trazado_798686" data-name="Trazado 798686" d="M232.112,24.026A196.135,196.135,0,0,1,211.7,52.792s-7.753-17.141,2.416-26.976a15.009,15.009,0,0,0-6.655,5.331S212.193,1.589,251.3,4.014c0,0-.4-4.212,1.72-4.007s.5,3.57.5,3.57,1-3.278,3.566-2.885-.467,3.831-.467,3.831a20.933,20.933,0,0,1,15.783,12.3c5.087,11.211,2.577,25.54,2.577,25.54s-26.52-7.7-31.472-20.943c0,0,1.065,11.733-1.517,17.247,0,0-6.922-.75-9.875-14.646" transform="translate(-122.841 0)" fill="#440045"/>
            <path id="Trazado_798687" data-name="Trazado 798687" d="M228.138,56.065c.006.007-.053.07-.168.183l-.508.478-.8.735c-.077.071-.16.142-.24.22l-.234.256-.507.552a12.974,12.974,0,0,0-1.1,1.285l-.565.743-.294.385c-.1.131-.177.277-.267.417a22.544,22.544,0,0,0-1.986,3.743,33.788,33.788,0,0,0-2.133,8.289c-.35,2.555-.511,4.64-.6,5.613-.167,1.946-.35,3.711-.525,4.983a8.006,8.006,0,0,1-.42,2.042,8.085,8.085,0,0,1,.042-2.081c.077-1.278.2-3.041.367-4.992.087-.974.263-3.065.643-5.638a33.47,33.47,0,0,1,2.273-8.367,22.342,22.342,0,0,1,2.086-3.762c.1-.14.179-.286.28-.416l.306-.384.59-.737a12.661,12.661,0,0,1,1.152-1.267l.529-.539.244-.249c.084-.076.17-.144.251-.213l.842-.7.544-.438a.844.844,0,0,1,.2-.14" transform="translate(-128.932 -33.197)" fill="#5f0760"/>
            <path id="Trazado_798688" data-name="Trazado 798688" d="M285.068,61.341a3.345,3.345,0,0,1-.282-.62c-.171-.4-.388-.987-.633-1.7-.491-1.436-1.058-3.411-1.543-5.5-.981-4.171-1.667-8.754-1.879-10.146a24.222,24.222,0,0,1-.468-5.089,24.613,24.613,0,0,1,1,5.01c.212,1.391.837,5.971,1.718,10.143.435,2.086.943,4.067,1.371,5.516.214.725.4,1.319.536,1.731a3.347,3.347,0,0,1,.18.657" transform="translate(-165.923 -22.669)" fill="#5f0760"/>
            <path id="Trazado_798689" data-name="Trazado 798689" d="M332.986,32.992a.922.922,0,0,1,.224.123l.609.393.944.629,1.177.9a35.759,35.759,0,0,1,5.8,5.818,37.342,37.342,0,0,1,4.689,7.67l.214.453.184.452.351.863c.238.553.413,1.084.573,1.563s.318.906.423,1.282l.257.94c.293.98.451,1.942.626,2.809.144.872.22,1.667.3,2.329a8.539,8.539,0,0,1,0,2.165,8.76,8.76,0,0,1-.374-2.121c-.127-.65-.241-1.428-.41-2.284-.2-.849-.369-1.794-.658-2.759l-.25-.927c-.1-.371-.257-.791-.409-1.266s-.323-1-.554-1.546l-.338-.855-.177-.447-.206-.449A37.589,37.589,0,0,0,335.807,35.2l-1.141-.937-.91-.668-.577-.436a.94.94,0,0,1-.193-.169" transform="translate(-197.169 -19.535)" fill="#5f0760"/>
            <path id="Trazado_798690" data-name="Trazado 798690" d="M81.226,90.908,54.087,86.082A1.881,1.881,0,0,0,51.9,87.607l-.673,3.784a1.88,1.88,0,0,0,1.525,2.185L79.893,98.4a1.884,1.884,0,0,0,2.185-1.525l.673-3.784a1.884,1.884,0,0,0-1.525-2.185m-4.759,4.431a.951.951,0,0,1-1.172.613l-17.38-3.09a.951.951,0,0,1-.889-.98l.221-1.24a.948.948,0,0,1,1.172-.613l17.38,3.09c.57.1.967.537.888.98Z" transform="translate(-30.316 -50.954)" fill="#440045"/>
            <path id="Trazado_798691" data-name="Trazado 798691" d="M51.036,145.773,7.519,137.993A9.124,9.124,0,0,1,.006,129.34a9.253,9.253,0,0,1,.137-1.935l4.284-23.968a9.121,9.121,0,0,1,10.585-7.372l43.524,7.778a9.122,9.122,0,0,1,7.377,10.588L61.629,138.4a9.5,9.5,0,0,1-.434,1.588,9.127,9.127,0,0,1-10.158,5.786" transform="translate(0 -56.797)" fill="#fff"/>
            <g id="Grupo_1064325" data-name="Grupo 1064325" transform="translate(34.077 44.162)" opacity="0.76" style="mix-blend-mode: multiply;isolation: isolate">
              <g id="Grupo_1064324" data-name="Grupo 1064324">
                <g id="Grupo_1064323" data-name="Grupo 1064323" clip-path="url(#clip-path-16)">
                  <path id="Trazado_798692" data-name="Trazado 798692" d="M115.382,121.743,111.1,145.711a9.124,9.124,0,0,1-10.59,7.378l-16.961-3.032a32,32,0,0,0,12.17-8.335c4.624-5.222,7.2-12.409,6.154-19.3l-.016-.089a19.505,19.505,0,0,0-7.8-12.708c-.662-.472-1.512-.916-2.192-1.347L108,111.157a9.123,9.123,0,0,1,7.378,10.586" transform="translate(-83.547 -108.273)" fill="#b1cffd"/>
                </g>
              </g>
            </g>
            <path id="Trazado_798693" data-name="Trazado 798693" d="M71.577,114.428l-.522,2.91-13-2.323L9.568,106.349l.522-2.91a9.124,9.124,0,0,1,10.588-7.374l27.394,4.9L64.2,103.844a9.123,9.123,0,0,1,7.378,10.584" transform="translate(-5.665 -56.797)" fill="#ff757a"/>
            <g id="Grupo_1064328" data-name="Grupo 1064328" transform="translate(42.406 44.163)" style="mix-blend-mode: multiply;isolation: isolate">
              <g id="Grupo_1064327" data-name="Grupo 1064327">
                <g id="Grupo_1064326" data-name="Grupo 1064326" clip-path="url(#clip-path-17)">
                  <path id="Trazado_798694" data-name="Trazado 798694" d="M127.474,121.744l-.522,2.91-13-2.323a19.5,19.5,0,0,0-7.8-12.708c-.656-.472-1.5-.914-2.182-1.348L120.1,111.16a9.123,9.123,0,0,1,7.378,10.584" transform="translate(-103.969 -108.276)" fill="#f5b7a7"/>
                </g>
              </g>
            </g>
            <path id="Trazado_798695" data-name="Trazado 798695" d="M53.091,153.383c-.356,2.066-1.72,3.555-3.047,3.327s-2.114-2.089-1.758-4.154,1.72-3.555,3.047-3.327,2.114,2.089,1.758,4.155" transform="translate(-28.541 -88.348)" fill="#440045"/>
            <path id="Trazado_798696" data-name="Trazado 798696" d="M104.364,162.217c-.356,2.066-1.72,3.555-3.047,3.327s-2.113-2.089-1.758-4.155,1.72-3.555,3.047-3.327,2.114,2.089,1.758,4.155" transform="translate(-58.901 -93.579)" fill="#440045"/>
            <path id="Trazado_798697" data-name="Trazado 798697" d="M77.767,170.245a3.8,3.8,0,0,1-7.556-.789" transform="translate(-41.561 -100.339)" fill="none" stroke="#3e092d" stroke-linecap="round" stroke-linejoin="round" stroke-width="1.313"/>
            <path id="Trazado_798698" data-name="Trazado 798698" d="M77.763,115.262l1.168.209a.642.642,0,0,1,.519.744l-.209,1.168a.642.642,0,0,0,.519.745l1.927.344a.641.641,0,0,0,.744-.519l.209-1.167a.642.642,0,0,1,.745-.519l1.168.208a.641.641,0,0,0,.744-.519l.345-1.926a.642.642,0,0,0-.519-.745l-1.168-.209a.641.641,0,0,1-.519-.744l.209-1.168a.642.642,0,0,0-.519-.745l-1.927-.344a.642.642,0,0,0-.745.519l-.208,1.168a.642.642,0,0,1-.745.519l-1.168-.209a.642.642,0,0,0-.745.519l-.344,1.926a.642.642,0,0,0,.519.745" transform="translate(-45.732 -65.172)" fill="#fff"/>
            <path id="Trazado_798699" data-name="Trazado 798699" d="M122.511,142c-.025.135-12.043-1.969-14.2-2.366a16.055,16.055,0,0,1-3.86-.965,16.113,16.113,0,0,1,3.95.477c2.156.4,14.134,2.72,14.109,2.854" transform="translate(-61.848 -82.085)" fill="#49074a"/>
            <path id="Trazado_798700" data-name="Trazado 798700" d="M152.786,164.762a2.315,2.315,0,0,1,.047-.537l.209-1.42.689-4.451c.515-3.336,1.025-6.954,1.182-8.056a17.333,17.333,0,0,1,.8-3.96,15.952,15.952,0,0,1-.312,4.031c-.157,1.1-.722,4.718-1.326,8.043-.3,1.663-.6,3.254-.845,4.427-.12.587-.224,1.069-.3,1.4a2.3,2.3,0,0,1-.146.519" transform="translate(-90.465 -86.651)" fill="#49074a"/>
            <path id="Trazado_798701" data-name="Trazado 798701" d="M90.781,207.336a4.679,4.679,0,0,1,.765.086l2.028.316,6.358,1.057a36.607,36.607,0,0,0,6.932.834,8.044,8.044,0,0,0,2.652-.533,10.855,10.855,0,0,0,1.562-.826,10.262,10.262,0,0,0,2.9-2.7,15.866,15.866,0,0,1,.939-1.394,3.615,3.615,0,0,1-.645,1.587,8.271,8.271,0,0,1-1.14,1.486,9.692,9.692,0,0,1-1.784,1.443,10.812,10.812,0,0,1-1.647.858,8.432,8.432,0,0,1-2.815.538,35.718,35.718,0,0,1-7.011-.945l-6.33-1.213-2.012-.407a4.681,4.681,0,0,1-.747-.184" transform="translate(-53.754 -120.896)" fill="#49074a"/>
            <path id="Trazado_798702" data-name="Trazado 798702" d="M8.842,144.934l-7.213-1.31a1.832,1.832,0,0,1-1.476-2.131L.7,138.468a1.833,1.833,0,0,1,2.131-1.476l7.213,1.31a1.833,1.833,0,0,1,1.476,2.131l-.549,3.025a1.833,1.833,0,0,1-2.131,1.476" transform="translate(-0.073 -81.099)" fill="#80dded"/>
            <path id="Trazado_798703" data-name="Trazado 798703" d="M143.526,169.394l-7.213-1.31a1.832,1.832,0,0,1-1.476-2.131l.549-3.024a1.833,1.833,0,0,1,2.131-1.476l7.213,1.31a1.833,1.833,0,0,1,1.476,2.131l-.549,3.025a1.833,1.833,0,0,1-2.131,1.476" transform="translate(-79.823 -95.582)" fill="#80dded"/>
            <path id="Trazado_798704" data-name="Trazado 798704" d="M146.426,178.924c-.027.134-4.777-.705-5.627-.876s-1.517-.418-1.49-.552.738-.105,1.588.065,5.556,1.228,5.529,1.362" transform="translate(-82.488 -105.05)" fill="#49074a"/>
            <path id="Trazado_798705" data-name="Trazado 798705" d="M10.5,154.259a13.228,13.228,0,0,1-2.464-.123c-1.28-.123-2.658-.312-3.077-.381-.837-.136-1.494-.367-1.47-.5s.717-.123,1.55.011l3.043.524a17.339,17.339,0,0,1,2.417.471" transform="translate(-2.067 -90.688)" fill="#49074a"/>
          </g>
        </g>
      </g>
    </g>
  </g>
</svg>
