<svg xmlns="http://www.w3.org/2000/svg" width="85" height="85" viewBox="0 0 85 85">
  <g id="Grupo_1064275" data-name="Grupo 1064275" transform="translate(-180 -446)">
    <rect id="Rectángulo_373435" data-name="Rectángulo 373435" width="85" height="85" rx="5" transform="translate(180 446)" fill="#ffa69d"/>
    <g id="aplicacion-de-salud" transform="translate(270.415 536.36)">
      <g id="Grupo_1064283" data-name="Grupo 1064283" transform="translate(-83.415 -83.36)">
        <g id="Grupo_1064279" data-name="Grupo 1064279" transform="translate(0 0)">
          <g id="Grupo_1064276" data-name="Grupo 1064276">
            <circle id="Elipse_8289" data-name="Elipse 8289" cx="24.958" cy="24.958" r="24.958" transform="translate(0 35.291) rotate(-45)" fill="#60b7ff"/>
            <circle id="Elipse_8290" data-name="Elipse 8290" cx="22.328" cy="22.328" r="22.328" transform="translate(3.72 35.291) rotate(-45)" fill="#8ac9fe"/>
            <path id="Trazado_798608" data-name="Trazado 798608" d="M40.958,40.958V16A24.958,24.958,0,0,0,16,40.958Z" transform="translate(-5.662 -5.667)" fill="#ffd064" fill-rule="evenodd"/>
            <path id="Trazado_798609" data-name="Trazado 798609" d="M63.624,63.624V41.3A22.328,22.328,0,0,0,41.3,63.624Z" transform="translate(-28.327 -28.333)" fill="#ffe177" fill-rule="evenodd"/>
            <path id="Trazado_798610" data-name="Trazado 798610" d="M256,16V40.958h24.958A24.958,24.958,0,0,0,256,16Z" transform="translate(-220.703 -5.667)" fill="#00e499" fill-rule="evenodd"/>
            <path id="Trazado_798611" data-name="Trazado 798611" d="M256,41.3V63.624h22.328A22.328,22.328,0,0,0,256,41.3Z" transform="translate(-220.703 -28.333)" fill="#6cf5c2" fill-rule="evenodd"/>
            <path id="Trazado_798612" data-name="Trazado 798612" d="M280.958,256H256v24.958A24.958,24.958,0,0,0,280.958,256Z" transform="translate(-220.703 -220.709)" fill="#fd4755" fill-rule="evenodd"/>
            <path id="Trazado_798613" data-name="Trazado 798613" d="M278.328,256H256v22.328A22.328,22.328,0,0,0,278.328,256Z" transform="translate(-220.703 -220.709)" fill="#fe646f" fill-rule="evenodd"/>
          </g>
          <g id="Grupo_1064277" data-name="Grupo 1064277" transform="translate(30.122 30.121)">
            <circle id="Elipse_8291" data-name="Elipse 8291" cx="4.505" cy="4.505" r="4.505" transform="matrix(0.16, -0.987, 0.987, 0.16, 0, 8.893)" fill="#eceff1"/>
            <path id="Trazado_798614" data-name="Trazado 798614" d="M251.52,212.68a4.5,4.5,0,1,1-.52,8.98,4.505,4.505,0,0,0,0-8.95A4.545,4.545,0,0,1,251.52,212.68Z" transform="translate(-246.346 -212.015)" fill="#d1d1d6" fill-rule="evenodd"/>
          </g>
          <g id="Grupo_1064278" data-name="Grupo 1064278" transform="translate(19.173 38.672)">
            <path id="Trazado_798615" data-name="Trazado 798615" d="M106.663,288.509l-5.707,2.446V295.8a6.917,6.917,0,0,0,5.707,6.783,6.917,6.917,0,0,0,5.707-6.783v-4.843Z" transform="translate(-100.956 -288.509)" fill="#fe646f" fill-rule="evenodd"/>
            <path id="Trazado_798616" data-name="Trazado 798616" d="M149.981,288.509l-.679.291,5.39,2.31v4.843a6.921,6.921,0,0,1-4.9,6.592c.063.013.127.025.191.036a6.917,6.917,0,0,0,5.707-6.783v-4.843Z" transform="translate(-144.274 -288.509)" fill="#fd4755" fill-rule="evenodd"/>
            <path id="Trazado_798617" data-name="Trazado 798617" d="M120.122,307.031l-4.144,1.776v3.517a5.024,5.024,0,0,0,4.144,4.926,5.023,5.023,0,0,0,4.144-4.926v-3.518Z" transform="translate(-114.416 -305.105)" fill="#eceff1" fill-rule="evenodd"/>
            <path id="Trazado_798618" data-name="Trazado 798618" d="M120.122,307.031l-4.144,1.776v3.517a5.024,5.024,0,0,0,4.107,4.919,5.027,5.027,0,0,1-3.3-4.7v-3.517l4-1.713Z" transform="translate(-114.416 -305.105)" fill="#d1d1d6" fill-rule="evenodd"/>
          </g>
        </g>
        <g id="Grupo_1064280" data-name="Grupo 1064280" transform="translate(17.435 18.762)">
          <path id="Trazado_798619" data-name="Trazado 798619" d="M86.6,101.764a2.354,2.354,0,1,0-2.354-2.354A2.359,2.359,0,0,0,86.6,101.764Z" transform="translate(-84.244 -97.055)" fill="#9facba" fill-rule="evenodd"/>
        </g>
        <g id="Grupo_1064281" data-name="Grupo 1064281" transform="translate(41.603 37.91)">
          <path id="Trazado_798620" data-name="Trazado 798620" d="M321.5,290.529v-7.764a1.579,1.579,0,1,0-3.159,0v7.764a3.28,3.28,0,1,0,3.159,0Z" transform="translate(-316.645 -281.186)" fill="#d8ecfe" fill-rule="evenodd"/>
          <path id="Trazado_798621" data-name="Trazado 798621" d="M345.287,290.529v-7.764a1.584,1.584,0,0,0-1.579-1.579,1.564,1.564,0,0,0-.52.089,1.585,1.585,0,0,1,1.059,1.491v7.764a3.281,3.281,0,0,1-1.059,6.115,3.281,3.281,0,0,0,2.1-6.115Z" transform="translate(-340.428 -281.186)" fill="#c4e2ff" fill-rule="evenodd"/>
        </g>
        <g id="Grupo_1064282" data-name="Grupo 1064282" transform="translate(40.07 15.5)">
          <path id="Trazado_798622" data-name="Trazado 798622" d="M302.523,95.03h9.242a.626.626,0,0,1,.624.624v10.789a.626.626,0,0,1-.624.624h-9.242a.626.626,0,0,1-.624-.624V95.654A.626.626,0,0,1,302.523,95.03Z" transform="translate(-301.899 -91.979)" fill="#9facba" fill-rule="evenodd"/>
          <path id="Trazado_798623" data-name="Trazado 798623" d="M386.766,95.03h1.04a.626.626,0,0,1,.624.624v10.789a.626.626,0,0,1-.624.624h-1.04a.626.626,0,0,0,.624-.624V95.654A.626.626,0,0,0,386.766,95.03Z" transform="translate(-377.94 -91.979)" fill="#8d9ca8" fill-rule="evenodd"/>
          <path id="Trazado_798624" data-name="Trazado 798624" d="M337.069,174.791H339.5a.417.417,0,0,1,.416.416v3.326h-3.261v-3.326A.417.417,0,0,1,337.069,174.791Z" transform="translate(-333.039 -163.446)" fill="#eceff1" fill-rule="evenodd"/>
          <path id="Trazado_798625" data-name="Trazado 798625" d="M337.069,174.791h.61a.417.417,0,0,0-.416.416v3.326h-.61v-3.326A.417.417,0,0,1,337.069,174.791Z" transform="translate(-333.039 -163.446)" fill="#d1d1d6" fill-rule="evenodd"/>
          <path id="Trazado_798626" data-name="Trazado 798626" d="M326.048,71.794A3.051,3.051,0,1,0,323,68.744,3.057,3.057,0,0,0,326.048,71.794Z" transform="translate(-320.803 -65.693)" fill="#fe646f" fill-rule="evenodd"/>
          <path id="Trazado_798627" data-name="Trazado 798627" d="M349.108,65.694a3.051,3.051,0,1,1-.374,6.079,3.051,3.051,0,0,0,0-6.056A3.067,3.067,0,0,1,349.108,65.694Z" transform="translate(-343.863 -65.694)" fill="#fd4755" fill-rule="evenodd"/>
        </g>
      </g>
      <path id="Trazado_798628" data-name="Trazado 798628" d="M44.579,22.6a.832.832,0,0,1,.832-.832H46.3a.832.832,0,0,1,0,1.664h-.886A.832.832,0,0,1,44.579,22.6Zm-3.256.832a.832.832,0,0,1,0-1.664h.885a.832.832,0,1,1,0,1.664Zm1.19-5.547a.832.832,0,1,1,0-1.664h.465v-.464a.832.832,0,1,1,1.664,0v.464h.465a.832.832,0,0,1,0,1.664h-.465v.465a.832.832,0,1,1-1.664,0v-.465Zm-3.116,0V28.255h1.95V25.761A1.249,1.249,0,0,1,42.6,24.513h2.429a1.249,1.249,0,0,1,1.247,1.247v2.495h1.951V17.882H47.6a3.882,3.882,0,0,1-7.584,0Zm4.413-3.05a2.219,2.219,0,1,0,2.219,2.218A2.221,2.221,0,0,0,43.81,14.832Zm.8,13.423h-1.6V26.177h1.6Zm-6.043,1.664h10.49a.833.833,0,0,0,.832-.832V17.05a.833.833,0,0,0-.832-.832H47.6a3.882,3.882,0,0,0-7.584,0H38.565a.832.832,0,0,0-.832.832V29.087a.832.832,0,0,0,.832.832ZM49.508,44.181a.832.832,0,0,1-.832.832H47.222a.832.832,0,1,1,0-1.663h1.455A.832.832,0,0,1,49.508,44.181Zm0-2.244a.832.832,0,0,1-.832.832H47.222a.832.832,0,1,1,0-1.664h1.455A.832.832,0,0,1,49.508,41.937Zm0-2.244a.832.832,0,0,1-.832.832H47.222a.832.832,0,1,1,0-1.664h1.455A.832.832,0,0,1,49.508,39.693Zm0-2.244a.832.832,0,0,1-.832.832H47.222a.832.832,0,1,1,0-1.664h1.455A.832.832,0,0,1,49.508,37.449ZM44.523,48.628a1.144,1.144,0,1,1-1.144-1.144A1.144,1.144,0,0,1,44.523,48.628Zm-1.144,2.449a2.449,2.449,0,0,0,1.178-4.6.831.831,0,0,1-.431-.729V37.989a.748.748,0,0,0-1.5,0v7.764a.834.834,0,0,1-.43.729,2.449,2.449,0,0,0,1.178,4.6ZM45.791,45.3V37.989a2.412,2.412,0,0,0-4.823,0V45.3a4.112,4.112,0,1,0,4.823,0ZM18.285,18.457a1.159,1.159,0,1,1-1.158,1.158,1.16,1.16,0,0,1,1.158-1.158Zm-.832,3.856V25.6a6.016,6.016,0,0,0,2.071,4.641,6.719,6.719,0,0,0,4.332,1.59,5.446,5.446,0,0,0,3.629-1.285,5.092,5.092,0,0,0,1.636-3.952v-.721a2.922,2.922,0,0,0,2.315-2.52l.973-4.9a.823.823,0,0,0,.016-.162,1.737,1.737,0,0,0-1.663-1.733.831.831,0,0,0-1.651.139v1.379a.831.831,0,0,0,1.634.219L29.8,23.029c-.056.284-.3,1.212-1.066,1.212h-.9c-.765,0-1.009-.927-1.065-1.212l-.941-4.739a.832.832,0,0,0,1.634-.218V16.694a.831.831,0,0,0-1.651-.139,1.737,1.737,0,0,0-1.664,1.733.824.824,0,0,0,.016.162l.973,4.9a2.921,2.921,0,0,0,2.315,2.52v.721a3.434,3.434,0,0,1-1.074,2.7,3.791,3.791,0,0,1-2.527.868A4.565,4.565,0,0,1,19.117,25.6V22.313a2.823,2.823,0,1,0-1.664,0ZM23.375,41.46a.832.832,0,0,1,.832.832v1.083H25.29a.832.832,0,1,1,0,1.664H24.207v1.083a.832.832,0,1,1-1.664,0V45.039H21.46a.832.832,0,0,1,0-1.664h1.083V42.292A.832.832,0,0,1,23.375,41.46Zm4.355,2.977V40.583l-4.355-1.867-4.355,1.867v3.853a5.488,5.488,0,0,0,4.355,5.318A5.488,5.488,0,0,0,27.73,44.437ZM28.89,39.27,23.7,37.047a.829.829,0,0,0-.655,0L17.861,39.27a.833.833,0,0,0-.5.765v4.4a7.119,7.119,0,0,0,5.876,6.985.838.838,0,0,0,.286,0,7.118,7.118,0,0,0,5.875-6.985v-4.4a.832.832,0,0,0-.5-.765Zm7.649-5.48a.832.832,0,0,1-.832.832H34.624v1.083a.832.832,0,0,1-1.664,0V34.622H31.877a.832.832,0,1,1,0-1.664H32.96V31.875a.832.832,0,0,1,1.664,0v1.083h1.083A.832.832,0,0,1,36.539,33.79ZM34.624,57.9A24.156,24.156,0,0,0,57.9,34.622H39.064a5.349,5.349,0,0,1-4.439,4.44ZM9.682,34.622A24.155,24.155,0,0,0,32.96,57.9V39.062a5.349,5.349,0,0,1-4.439-4.44ZM32.96,9.68A24.155,24.155,0,0,0,9.682,32.958H28.521a5.348,5.348,0,0,1,4.439-4.439Zm.832,27.783a3.673,3.673,0,1,1,3.673-3.673A3.677,3.677,0,0,1,33.792,37.463ZM57.9,32.958A24.156,24.156,0,0,0,34.624,9.68V28.519a5.348,5.348,0,0,1,4.439,4.439H57.9Zm-5.874-17.4A25.791,25.791,0,1,0,59.582,33.79a25.621,25.621,0,0,0-7.554-18.236Z" transform="translate(-81.91 -81.859)" fill-rule="evenodd"/>
    </g>
  </g>
</svg>
