<svg xmlns="http://www.w3.org/2000/svg" width="85" height="85" viewBox="0 0 85 85">
  <g id="Grupo_1064339" data-name="Grupo 1064339" transform="translate(-180 -446)">
    <rect id="Rectángulo_373435" data-name="Rectángulo 373435" width="85" height="85" rx="5" transform="translate(180 446)" fill="#ffa69d"/>
    <g id="map" transform="translate(130.391 454)">
      <g id="Grupo_1064340" data-name="Grupo 1064340" transform="translate(68.97 1.001)">
        <path id="Trazado_798710" data-name="Trazado 798710" d="M166.383,38.862a13.711,13.711,0,0,1,.832-5.412.7.7,0,0,0-.661-.947h-6.916l-2.758-3.163h-7.561A13.852,13.852,0,0,1,147.9,23.6c0-2.789-.965-2.934-3.08-3.178,0,0,1.648-4.91,4.264-7.241,2.789-2.486,4.223-2.194,4.223-3.718A1.98,1.98,0,0,0,151.078,7.5c-1.234,0-2.793,1.357-4.5,2.842-.991.859-2.117,2.032-3.957,1.736a1,1,0,0,0-1.1.615c-.29.737-.776,1.7-1.336,1.7a2.92,2.92,0,0,1-1.519-.64,1.018,1.018,0,0,0-1.2.009c-.889.657-2.261,2.238-1.949,5.623a12.071,12.071,0,0,0-3.766,2.512.61.61,0,0,0-.041.835l-2.822.326s.678,15.091.869,18.955l37.078-1.335A6.057,6.057,0,0,1,166.383,38.862Z" transform="translate(-122.93 -7.5)" fill="#f8e883"/>
        <path id="Trazado_798711" data-name="Trazado 798711" d="M117.064,140.387s-1.044-1.352-.984-2.156c.109-1.463,1.139-3.762.636-6.106a67.707,67.707,0,0,0-2.467-8.092l-.947.109a3.545,3.545,0,0,1-1.308,4.648,24.96,24.96,0,0,1,2.052,6.005c.5,2.344-.527,4.643-.636,6.106a1.776,1.776,0,0,0,.158.752l2.765,1.335Z" transform="translate(-108.295 -108.475)" fill="#eec06b"/>
        <path id="Trazado_798712" data-name="Trazado 798712" d="M134.418,265.64l10.146-2.67.053-.066a13.29,13.29,0,0,0-2.028-1.933l1.552-1.147a1.083,1.083,0,0,0,.151-1.609A7.526,7.526,0,0,1,142.844,256H105.766l.049,1-4.614,7.562,6.537,5.255a25.335,25.335,0,0,1,7.448,3.214l18.7-1.335Z" transform="translate(-98.943 -222.821)" fill="#5a86cc"/>
        <path id="Trazado_798713" data-name="Trazado 798713" d="M101.552,270.037a11.417,11.417,0,0,0-7.652-1.556l-6.389-4.143L92.325,256H89.56a7,7,0,0,0,.826,1.4l-2.659,4.6a3.171,3.171,0,0,0-2.416.73c-1.438,1.106-.942,3.966-.942,3.966l6.859,4.448a11.769,11.769,0,0,1,5.615.544l3.687,1.335L103.7,271.7A17.414,17.414,0,0,0,101.552,270.037Z" transform="translate(-84.287 -222.821)" fill="#3b68b0"/>
        <path id="Trazado_798714" data-name="Trazado 798714" d="M349.981,310.866h7.976l2.17-2.67h-9.91Z" transform="translate(-314.506 -268.047)" fill="#3b68b0"/>
        <path id="Trazado_798715" data-name="Trazado 798715" d="M228.089,374.823l.113-1.272H212.675c.188.127-2.8.26-2.613.4,5.966,4.7,5.927,10.3,9.043,9.125,5.235-1.982,8.267.32,8.267.32l-2.488,4.678,4.317-1.335,1.408-5.432A5.842,5.842,0,0,0,228.089,374.823Z" transform="translate(-193.262 -324.676)" fill="#d97b7b"/>
        <path id="Trazado_798716" data-name="Trazado 798716" d="M201.348,381.912a5.1,5.1,0,0,0-3.586-1.329,8.611,8.611,0,0,0-4.284,1.043,2.752,2.752,0,0,1-3.635-1.415,19.1,19.1,0,0,0-4.653-6.66h-6.856a9.787,9.787,0,0,1,2.037,1.013,18.257,18.257,0,0,1,6.8,8.317,2.752,2.752,0,0,0,3.635,1.415,8.611,8.611,0,0,1,4.284-1.043,5.1,5.1,0,0,1,3.586,1.329l-2.614,4.831h3.113l1.427,1.621,1.113-4.292h-2.982Z" transform="translate(-165.777 -324.676)" fill="#d16161"/>
      </g>
      <g id="Grupo_1064341" data-name="Grupo 1064341" transform="translate(66.61 0)">
        <path id="Trazado_798717" data-name="Trazado 798717" d="M101.917,66.74h-2.66a1,1,0,0,1-.881-1.478l2.208-4.082a4.476,4.476,0,0,0-2.3-.6,9.04,9.04,0,0,0-3.879.957,3.754,3.754,0,0,1-4.957-1.929,1,1,0,1,1,1.834-.8,1.746,1.746,0,0,0,.973.933,1.808,1.808,0,0,0,1.34-.031,11.572,11.572,0,0,1,4.69-1.128,6.112,6.112,0,0,1,4.318,1.647,1,1,0,0,1,.149,1.16l-1.814,3.354h1.433a1,1,0,0,1,.752.34l.179.2,2.047-7.9a4.844,4.844,0,0,0-2.038-5.361,1,1,0,0,1-.511-.964l.016-.182H85.278a18.2,18.2,0,0,1,4.026,4.3A1,1,0,1,1,87.645,56.3a16.2,16.2,0,0,0-4.629-4.574,10.5,10.5,0,0,0-6.919-1.41,1.007,1.007,0,0,1-.73-.144l-8.3-5.382A1,1,0,0,1,68,43.027a4.056,4.056,0,0,1,1.384-2.9,4.437,4.437,0,0,1,2.46-.958l2.038-3.53a4.305,4.305,0,0,1-.8-2.282,8.489,8.489,0,0,1,.33-1.788,9.3,9.3,0,0,0,.326-4.034,24.3,24.3,0,0,0-1.955-5.743,1,1,0,0,1,.35-1.32,2.312,2.312,0,0,0,1.231-2.109,3.3,3.3,0,0,0-.282-1.234,1,1,0,0,1,1.783-.912,4.5,4.5,0,0,1-.941,5.41A27.831,27.831,0,0,1,75.7,27.113a11.034,11.034,0,0,1-.333,4.909c-.1.418-.191.819-.244,1.158h36.4a6.959,6.959,0,0,1-.1-.732A14.592,14.592,0,0,1,112.177,27h-6.5a1,1,0,0,1-.755-.343l-2.459-2.82h-1.519a1,1,0,1,1,0-2h1.975a1,1,0,0,1,.755.343L106.133,25h6.461a1.706,1.706,0,0,1,1.6,2.291,13.7,13.7,0,0,0-.775,4.985,6.126,6.126,0,0,0,1.631,3.434,2.084,2.084,0,0,1-.288,3.1l-.536.4a8.131,8.131,0,0,1,2.957,6.5,1,1,0,1,1-2,0,6.385,6.385,0,0,0-.621-2.925L113.2,44.452a1,1,0,0,1-.777.37h-7.06l-.181,2.05h1.21a1,1,0,0,1,0,2H105l-.155,1.754a6.908,6.908,0,0,1,2.439,7.259l-2.521,9.724a1,1,0,0,1-1.721.41ZM81.7,48.875h21.29l.455-5.143a1,1,0,0,1,1-.913h7.5l1.386-1.705h0a16.3,16.3,0,0,0-1.344-1.182,1,1,0,0,1,.033-1.585l1.552-1.147a.081.081,0,0,0,.034-.061.073.073,0,0,0-.02-.06,8.741,8.741,0,0,1-1.353-1.9H75.986a1,1,0,0,1-.05.9l-2.659,4.6a.95.95,0,0,1-1.064.481,2.269,2.269,0,0,0-1.608.541c-.61.469-.685,1.751-.617,2.586l6.152,3.989a12.912,12.912,0,0,1,5.561.587ZM96.939,23.841h-1.58a1,1,0,0,1-.886-.534,14.8,14.8,0,0,1-1.534-6.2c0-.966-.128-1.562-.381-1.77a4.435,4.435,0,0,0-1.812-.413,1,1,0,0,1-.835-1.314c.071-.211,1.765-5.19,4.547-7.67A17.108,17.108,0,0,1,97.441,3.8c.9-.532.9-.566.9-.832,0-.8-.668-.963-1.228-.963-.855,0-2.434,1.37-3.827,2.578l-.022.019-.247.217A5.271,5.271,0,0,1,88.5,6.568c-.233.571-.925,2.328-2.274,2.328a3.708,3.708,0,0,1-2.106-.83.018.018,0,0,0-.019,0c-.693.513-1.816,1.808-1.547,4.726a1,1,0,0,1-.621,1.02,10.946,10.946,0,0,0-3.206,2.077,5.287,5.287,0,0,1,.26,3.612,1,1,0,0,1-1.95-.459,3.417,3.417,0,0,0-.052-2.165,1.612,1.612,0,0,1,.105-2.2,13.419,13.419,0,0,1,3.424-2.428c-.1-3.406,1.429-5.082,2.4-5.8a2.011,2.011,0,0,1,2.384-.015c.343.248.64.457.79.426s.3-.413.547-1.041a1.991,1.991,0,0,1,2.188-1.237c1.217.2,2.025-.518,2.881-1.275l.261-.229.022-.019C93.876,1.422,95.515,0,97.117,0a2.972,2.972,0,0,1,3.23,2.966c0,1.446-.919,1.986-1.892,2.559a15.332,15.332,0,0,0-2.666,1.907,16.756,16.756,0,0,0-3.547,5.678,3.472,3.472,0,0,1,1.586.677A4.078,4.078,0,0,1,94.941,17.1,12.584,12.584,0,0,0,96,21.838h.943a1,1,0,0,1,0,2ZM74.928,2.74a1,1,0,0,1-.794-1.173l.146-.755a1,1,0,0,1,1.967.38l-.146.755A1,1,0,0,1,74.928,2.74ZM75.32,5.4l-.529,2.74a1,1,0,0,1-1.966-.379l.529-2.74A1,1,0,0,1,75.32,5.4Z" transform="translate(-66.61 0)"/>
      </g>
    </g>
  </g>
</svg>
