<svg xmlns="http://www.w3.org/2000/svg" xmlns:xlink="http://www.w3.org/1999/xlink" width="100" height="100" viewBox="0 0 100 100">
  <defs>
    <clipPath id="clip-path">
      <path id="path16464" d="M0-682.665H60.309v60.309H0Z" transform="translate(0 682.665)"/>
    </clipPath>
  </defs>
  <g id="Grupo_1065287" data-name="Grupo 1065287" transform="translate(-200 -2417)">
    <circle id="Elipse_4724" data-name="Elipse 4724" cx="50" cy="50" r="50" transform="translate(200 2417)" fill="#fec759"/>
    <g id="g16458" transform="translate(220 2437)">
      <g id="g16460" transform="translate(0 0)">
        <g id="g16462" clip-path="url(#clip-path)">
          <g id="g16468" transform="translate(4.575 35.222)">
            <path id="path16470" d="M-209.561-2.128c-.071-.071-.145-.138-.217-.206H-213.2l-16.674,16.073,8.063,8.063a10.51,10.51,0,0,0,6.271-3.023l5.973-5.973a10.56,10.56,0,0,0,0-14.933" transform="translate(229.869 2.335)" fill="#7ce3ff"/>
          </g>
          <g id="g16472" transform="translate(0.883 32.337)">
            <path id="path16474" d="M-119.086-122.6l5.973-5.973a10.511,10.511,0,0,1,6.269-3.022,10.558,10.558,0,0,0-14.716.206l-5.973,5.973a10.563,10.563,0,0,0-1.8,12.542,10.555,10.555,0,0,0,1.8,2.391,10.56,10.56,0,0,0,2.391,1.8,10.569,10.569,0,0,0,6.271,1.228,12.767,12.767,0,0,1-2.01-2.6,10.564,10.564,0,0,1,1.8-12.542" transform="translate(130.626 134.48)" fill="#2ed0fc"/>
          </g>
          <g id="g16476" transform="translate(15.251 9.599)">
            <path id="path16478" d="M-81.253-13.941a4.612,4.612,0,0,0-6.523,0,4.613,4.613,0,0,0,0,6.523,4.613,4.613,0,0,0,6.523,0,4.612,4.612,0,0,0,0-6.523" transform="translate(89.127 15.292)" fill="#ffcbbe"/>
          </g>
          <g id="g16480" transform="translate(41.487 35.835)">
            <path id="path16482" d="M-81.254-13.941a4.612,4.612,0,0,0-6.523,0,4.612,4.612,0,0,0,0,6.523,4.612,4.612,0,0,0,6.523,0,4.612,4.612,0,0,0,0-6.523" transform="translate(89.128 15.292)" fill="#ffcbbe"/>
          </g>
          <g id="g16484" transform="translate(18.013 12.361)">
            <path id="path16486" d="M-310.422-43.381l-4.2-4.2-24.027,1.85-1.85,24.026,4.2,4.2A18.557,18.557,0,0,0-312.417-19.5a18.557,18.557,0,0,0,2-23.883" transform="translate(340.503 47.585)" fill="#ffddcf"/>
          </g>
          <g id="g16488" transform="translate(14.43 8.779)">
            <path id="path16490" d="M-100.94-100.936a18.558,18.558,0,0,1,23.883-2,18.559,18.559,0,0,0-28.231-2.353,18.559,18.559,0,0,0-3.154,22.035,18.548,18.548,0,0,0,3.154,4.2,18.65,18.65,0,0,0,2.354,1.995,18.557,18.557,0,0,1,1.994-23.882" transform="translate(110.721 110.717)" fill="#ffcbbe"/>
          </g>
          <g id="g16492" transform="translate(19.259 20.688)">
            <path id="path16494" d="M-60.055-59.992c-1.122,1.124-3.175.893-4.586-.516s-1.646-3.462-.524-4.585,3.175-.893,4.586.516,1.646,3.462.524,4.585" transform="translate(65.874 65.805)" fill="#ff8e9e"/>
          </g>
          <g id="g16496" transform="translate(33.109 34.512)">
            <path id="path16498" d="M-7.317-7.353c-1.122,1.124-.887,3.177.524,4.585s3.465,1.639,4.586.516.887-3.177-.524-4.585S-6.2-8.477-7.317-7.353" transform="translate(8.026 8.065)" fill="#ff8e9e"/>
          </g>
          <g id="g16500" transform="translate(28.654 28.18)">
            <path id="path16502" d="M-29.728-29.71a1.746,1.746,0,0,0,.165-2.452,1.746,1.746,0,0,0-2.452.17,1.746,1.746,0,0,0-.165,2.452,1.746,1.746,0,0,0,2.452-.17" transform="translate(32.608 32.588)" fill="#4c5699"/>
          </g>
          <g id="g16504" transform="translate(0 0)">
            <path id="path16506" d="M-198.53-140.209a19.563,19.563,0,0,0-2.361,2.859,3.727,3.727,0,0,1,.349-4.871,3.727,3.727,0,0,1,4.871-.349,19.56,19.56,0,0,0-2.859,2.361m7.43,32.132a9.634,9.634,0,0,1-2.411,4.018l-5.506,5.506a14,14,0,0,1-3.926-20.951A19.512,19.512,0,0,0-191.1-108.077m20.056-4.646a19.574,19.574,0,0,0,2.361-2.858,3.734,3.734,0,0,1-.349,4.87,3.734,3.734,0,0,1-4.87.349,19.571,19.571,0,0,0,2.858-2.361m5.854-41.072a8.1,8.1,0,0,0-5.768,2.389,9.917,9.917,0,0,0-2.732,8.979,19.45,19.45,0,0,0-20.4-1.108,5.49,5.49,0,0,0-7.7.065,5.49,5.49,0,0,0-.065,7.7,19.505,19.505,0,0,0-1.815,13.917,11.4,11.4,0,0,0-4.773,2.858l-3.221,3.221a.884.884,0,0,0,0,1.249.884.884,0,0,0,1.25,0l3.221-3.221a9.687,9.687,0,0,1,1.843-1.443A15.781,15.781,0,0,0-200.371-97.3a9.617,9.617,0,0,1-5.967,2.05A9.674,9.674,0,0,1-216-105.173a9.326,9.326,0,0,1,2.834-6.6l.228-.228a.908.908,0,0,0,.045-1.256.884.884,0,0,0-1.268-.02l-.254.253a11.08,11.08,0,0,0-3.351,7.846,11.439,11.439,0,0,0,11.44,11.686,11.371,11.371,0,0,0,8.094-3.349l5.973-5.973a11.4,11.4,0,0,0,2.857-4.772,19.5,19.5,0,0,0,13.917-1.815,5.5,5.5,0,0,0,7.7-.065,5.5,5.5,0,0,0,.065-7.7c.278-.51.536-1.033.766-1.564a.884.884,0,0,0-.459-1.162.883.883,0,0,0-1.162.459,17.651,17.651,0,0,1-3.721,5.461,17.608,17.608,0,0,1-12.491,5.174c-15.709,0-23.6-19.061-12.5-30.161a17.664,17.664,0,0,1,24.987,0,17.66,17.66,0,0,1,4.758,16.331.883.883,0,0,0,.671,1.054.884.884,0,0,0,1.054-.671,19.421,19.421,0,0,0-4.6-17.292c-2.345-2.575-2.441-7.481.7-10.619a6.348,6.348,0,0,1,4.518-1.872c3,0,5.964,2.175,5.964,5.361,0,2.312-1.668,4.594-4.112,4.594-2.79,0-4.26-2.675-3.1-4.573a.9.9,0,0,0-.072-1.051.884.884,0,0,0-1.419.1c-1.878,3.008.333,7.292,4.592,7.292,3.439,0,5.879-3.076,5.879-6.361,0-4.172-3.742-7.128-7.731-7.128" transform="translate(217.769 153.796)"/>
          </g>
          <g id="g16508" transform="translate(24.79 21.107)">
            <path id="path16510" d="M-9.773-.023A.882.882,0,0,0-10.714.8,2.55,2.55,0,0,0-7.992,3.516a.883.883,0,0,0,.82-.943.882.882,0,0,0-.943-.82A.783.783,0,0,1-8.951.918a.883.883,0,0,0-.822-.941" transform="translate(10.72 0.025)"/>
          </g>
          <g id="g16512" transform="translate(35.662 31.958)">
            <path id="path16514" d="M-9.77-.021A.884.884,0,0,0-10.711.8a2.55,2.55,0,0,0,.742,1.978,2.551,2.551,0,0,0,1.98.739.883.883,0,0,0,.82-.943.881.881,0,0,0-.943-.82.787.787,0,0,1-.609-.227A.784.784,0,0,1-8.948.92.883.883,0,0,0-9.77-.021" transform="translate(10.717 0.023)"/>
          </g>
          <g id="g16516" transform="translate(27.773 27.299)">
            <path id="path16518" d="M-21.675-21.691a.888.888,0,0,1,1.2-.169.888.888,0,0,1-.167,1.2.888.888,0,0,1-1.2.169.888.888,0,0,1,.166-1.2m2.286,2.282a2.628,2.628,0,0,0,.164-3.7,2.629,2.629,0,0,0-3.7.171,2.628,2.628,0,0,0-.164,3.7,2.628,2.628,0,0,0,3.7-.171" transform="translate(23.776 23.793)"/>
          </g>
        </g>
      </g>
    </g>
  </g>
</svg>
