<svg xmlns="http://www.w3.org/2000/svg" width="190" height="74" viewBox="0 0 190 74">
  <g id="Grupo_1064388" data-name="Grupo 1064388" transform="translate(-180 -8522)">
    <rect id="Rectángulo_373693" data-name="Rectángulo 373693" width="190" height="74" rx="10" transform="translate(180 8522)" fill="#ffebc5"/>
    <g id="healthcare_2_" data-name="healthcare(2)" transform="translate(251.836 8533.808)">
      <g id="Grupo_1064394" data-name="Grupo 1064394" transform="translate(0.74 0.74)">
        <path id="Trazado_798753" data-name="Trazado 798753" d="M236.717,420.477h.692" transform="translate(-213.159 -379.713)" fill="none" stroke="#000" stroke-linecap="round" stroke-linejoin="round" stroke-miterlimit="10" stroke-width="15"/>
        <g id="Grupo_1064390" data-name="Grupo 1064390" transform="translate(0 32.728)">
          <g id="XMLID_395_">
            <g id="Grupo_1064389" data-name="Grupo 1064389">
              <path id="Trazado_798754" data-name="Trazado 798754" d="M56.164,345.75l-8.011-4.662a2.208,2.208,0,0,0-2.443,3.669l11.94,9.032a7.152,7.152,0,0,0,4.313,1.447h2.374a7.147,7.147,0,0,0,2.757-.554l8.777-3.67h6.673l5.482.017v-9.447H80.233a8.611,8.611,0,0,0-6.088-2.522h-.2a8.608,8.608,0,0,0-6.087,2.522l-.507.506H60.826a4.876,4.876,0,0,0-4.58,3.2A1.345,1.345,0,0,0,56.164,345.75Z" transform="translate(-44.834 -339.06)" fill="#ffe6c4"/>
            </g>
            <path id="Trazado_798755" data-name="Trazado 798755" d="M45.58,362.185c.042.037.085.073.13.107l11.94,9.032a7.152,7.152,0,0,0,4.313,1.447h2.374a7.147,7.147,0,0,0,2.757-.554l8.539-3.571a1.283,1.283,0,0,1,.5-.1h6.415l5.482.017v3.308l-5.482-.017H75.87l-8.777,3.67a7.146,7.146,0,0,1-2.757.554H61.962a7.152,7.152,0,0,1-4.313-1.447L45.71,365.6a2.209,2.209,0,0,1-.13-3.415Z" transform="translate(-44.834 -359.902)" fill="#fed3a7"/>
          </g>
        </g>
        <path id="Trazado_798756" data-name="Trazado 798756" d="M28.081,355.23v-3.424H28.04v-6.682A1.564,1.564,0,0,1,29.6,343.56H35.18v13.586H29.6a1.564,1.564,0,0,1-1.564-1.564v-.393Z" transform="translate(9.668 -310.388)" fill="#d4f2f6"/>
        <path id="Trazado_798757" data-name="Trazado 798757" d="M29.6,425.062H35.18v4.131H29.6a1.564,1.564,0,0,1-1.564-1.564V423.5A1.564,1.564,0,0,0,29.6,425.062Z" transform="translate(9.668 -382.436)" fill="#a7e6ef"/>
        <g id="Grupo_1064391" data-name="Grupo 1064391" transform="translate(44.108 30.943)">
          <path id="Trazado_798758" data-name="Trazado 798758" d="M21.28,339.035a.74.74,0,0,0,.74-.74V321.721a.74.74,0,0,0-1.481,0v16.573A.74.74,0,0,0,21.28,339.035Z" transform="translate(-20.54 -320.981)" fill="#a7e6ef"/>
        </g>
        <path id="Trazado_798759" data-name="Trazado 798759" d="M82.009,10.422a9.975,9.975,0,0,1,14.107,0l.252.252.252-.252a9.975,9.975,0,1,1,14.107,14.107L98.107,37.148a2.46,2.46,0,0,1-3.479,0L82.009,24.528a9.975,9.975,0,0,1,0-14.107Z" transform="translate(-73.838 -7.5)" fill="#fd828a"/>
        <g id="Grupo_1064392" data-name="Grupo 1064392" transform="translate(19.471 0)">
          <path id="Trazado_798760" data-name="Trazado 798760" d="M90.387,24.53A9.978,9.978,0,0,0,86.392,7.98,9.976,9.976,0,0,1,96.5,24.53L83.885,37.15a2.46,2.46,0,0,1-3.479,0l-1.32-1.32Z" transform="translate(-79.087 -7.502)" fill="#fd6773"/>
        </g>
        <ellipse id="Elipse_8307" data-name="Elipse 8307" cx="8.865" cy="8.865" rx="8.865" ry="8.865" transform="translate(13.66 5.916)" fill="#f9f7f8"/>
        <path id="Trazado_798761" data-name="Trazado 798761" d="M172.614,175.694q.231-.231.443-.473a8.876,8.876,0,0,1-6.876,6.906Z" transform="translate(-141.844 -158.666)" fill="#efedef"/>
        <g id="Grupo_1064393" data-name="Grupo 1064393" transform="translate(3.141 10.421)">
          <path id="Trazado_798762" data-name="Trazado 798762" d="M206.277,116.035h2.582v-2.582a.379.379,0,0,1,.379-.379h2.845a.379.379,0,0,1,.379.379v2.582h2.582a.379.379,0,0,1,.379.379v2.845a.379.379,0,0,1-.379.379h-2.582v2.582a.379.379,0,0,1-.379.379h-2.845a.379.379,0,0,1-.379-.379v-2.582h-2.582a.379.379,0,0,1-.379-.379v-2.845A.379.379,0,0,1,206.277,116.035Z" transform="translate(-191.273 -113.074)" fill="#fd828a"/>
          <path id="Trazado_798763" data-name="Trazado 798763" d="M378.619,243.148h1.646V241.5a.421.421,0,0,1,.421-.421h2.167a.421.421,0,0,1,.421.421v1.646h1.646a.421.421,0,0,1,.421.421v2.167a.421.421,0,0,1-.421.421h-1.646V247.8a.421.421,0,0,1-.421.421h-2.167a.421.421,0,0,1-.421-.421v-1.646h-1.646a.421.421,0,0,1-.421-.421v-2.167A.421.421,0,0,1,378.619,243.148Z" transform="translate(-378.198 -228.446)" fill="#fd828a"/>
          <path id="Trazado_798764" data-name="Trazado 798764" d="M65.537,243.148H63.891V241.5a.421.421,0,0,0-.421-.421H61.3a.421.421,0,0,0-.421.421v1.646H59.235a.421.421,0,0,0-.421.421v2.167a.421.421,0,0,0,.421.421h1.646V247.8a.421.421,0,0,0,.421.421H63.47a.421.421,0,0,0,.421-.421v-1.646h1.646a.421.421,0,0,0,.421-.421v-2.167A.421.421,0,0,0,65.537,243.148Z" transform="translate(-27.288 -228.446)" fill="#fd828a"/>
        </g>
      </g>
      <g id="Grupo_1064395" data-name="Grupo 1064395" transform="translate(0 0)">
        <path id="Trazado_798765" data-name="Trazado 798765" d="M229.957,412.977h.692a.74.74,0,1,1,0,1.481h-.692a.74.74,0,1,1,0-1.481Z" transform="translate(-205.658 -372.213)"/>
        <path id="Trazado_798766" data-name="Trazado 798766" d="M21.207,324.834a2.935,2.935,0,0,1,3.764-.681l7.191,4.185a5.64,5.64,0,0,1,5.111-3.285h6.22l.29-.29a9.289,9.289,0,0,1,6.611-2.739h.2a9.284,9.284,0,0,1,6.388,2.522H58.26a2.307,2.307,0,0,1,2.293-2.077h4.836v-.748a.74.74,0,0,1,1.481,0v16.573a.74.74,0,1,1-1.481,0v-.758H60.553a2.307,2.307,0,0,1-2.293-2.077h-5.8l-8.639,3.613a7.85,7.85,0,0,1-3.043.611H38.409a7.936,7.936,0,0,1-4.759-1.6l-11.94-9.032a2.948,2.948,0,0,1-.5-4.218Zm.825,2.041a1.455,1.455,0,0,0,.572,1l11.94,9.032a6.446,6.446,0,0,0,3.866,1.3h2.373a6.376,6.376,0,0,0,2.472-.5l8.776-3.67a.741.741,0,0,1,.286-.057h5.932v-3.4a.74.74,0,0,1,1.481,0v4.655a.825.825,0,0,0,.824.824h4.836V323.949H60.553a.825.825,0,0,0-.824.824v2.648a.74.74,0,0,1-1.481,0v-1.394H56.679a.74.74,0,0,1-.523-.217,7.818,7.818,0,0,0-5.565-2.3h-.2a7.818,7.818,0,0,0-5.565,2.3l-.507.507a.74.74,0,0,1-.523.217H37.273a4.152,4.152,0,0,0-3.885,2.713.606.606,0,0,0,.569.814h8.252a.74.74,0,1,1,0,1.481H33.957a2.089,2.089,0,0,1-2.035-1.63l-7.7-4.478a1.467,1.467,0,0,0-2.195,1.442Z" transform="translate(-20.54 -289.297)"/>
        <path id="Trazado_798767" data-name="Trazado 798767" d="M91.87,30.912a3.2,3.2,0,0,1-4.526,0L83.4,26.967a.74.74,0,0,1,1.047-1.047l3.945,3.945a1.719,1.719,0,0,0,2.432,0l12.62-12.62a9.235,9.235,0,1,0-13.06-13.06l-.252.252a.74.74,0,0,1-1.047,0l-.252-.252a9.235,9.235,0,1,0-13.06,13.06l6.413,6.413a.74.74,0,0,1-1.047,1.047l-6.413-6.413A10.715,10.715,0,0,1,89.607,2.876,10.715,10.715,0,0,1,104.49,18.292Z" transform="translate(-66.337 0)"/>
        <path id="Trazado_798768" data-name="Trazado 798768" d="M175.2,71.36a.74.74,0,0,1,1.444.329,9.609,9.609,0,1,1,.157-3.417.74.74,0,1,1-1.468.194,8.125,8.125,0,1,0-8.054,9.2,8.033,8.033,0,0,0,5.1-1.8A8.157,8.157,0,0,0,175.2,71.36Z" transform="translate(-144.008 -54.023)"/>
        <path id="Trazado_798769" data-name="Trazado 798769" d="M202.48,105.575h2.845a1.121,1.121,0,0,1,1.12,1.12v1.841h1.841a1.121,1.121,0,0,1,1.12,1.12V112.5a1.121,1.121,0,0,1-1.12,1.12h-1.841v1.841a1.121,1.121,0,0,1-1.12,1.12H202.48a1.121,1.121,0,0,1-1.12-1.12v-1.841h-1.841a1.121,1.121,0,0,1-1.12-1.12v-2.845a1.121,1.121,0,0,1,1.12-1.12h1.841v-1.841a1.121,1.121,0,0,1,1.12-1.12Zm-2.6,4.441v2.124H202.1a.74.74,0,0,1,.74.74V115.1h2.124V112.88a.74.74,0,0,1,.74-.74h2.221v-2.124H205.7a.74.74,0,0,1-.74-.74v-2.221h-2.124v2.221a.74.74,0,0,1-.74.74Z" transform="translate(-180.632 -95.154)"/>
        <path id="Trazado_798770" data-name="Trazado 798770" d="M373.927,233.581h2.167a1.163,1.163,0,0,1,1.161,1.161v.906h.906a1.163,1.163,0,0,1,1.161,1.161v2.167a1.163,1.163,0,0,1-1.161,1.161h-.906v.906a1.163,1.163,0,0,1-1.161,1.161h-2.167a1.163,1.163,0,0,1-1.161-1.161v-.906h-.906a1.163,1.163,0,0,1-1.161-1.161V236.81a1.163,1.163,0,0,1,1.161-1.161h.906v-.906A1.163,1.163,0,0,1,373.927,233.581Zm-1.748,3.548v1.529h1.327a.74.74,0,0,1,.74.74v1.327h1.529V239.4a.74.74,0,0,1,.74-.74h1.327v-1.529h-1.327a.74.74,0,0,1-.74-.74v-1.327h-1.529v1.327a.74.74,0,0,1-.74.74Z" transform="translate(-367.557 -210.525)"/>
        <path id="Trazado_798771" data-name="Trazado 798771" d="M58.777,240.138h-.906v.906a1.163,1.163,0,0,1-1.161,1.161H54.543a1.163,1.163,0,0,1-1.161-1.161v-.906h-.906a1.163,1.163,0,0,1-1.161-1.161V236.81a1.163,1.163,0,0,1,1.161-1.161h.906v-.906a1.163,1.163,0,0,1,1.161-1.161H56.71a1.163,1.163,0,0,1,1.161,1.161v.906h.906a1.163,1.163,0,0,1,1.161,1.161v2.167A1.163,1.163,0,0,1,58.777,240.138Zm-.319-3.01H57.131a.74.74,0,0,1-.74-.74v-1.327H54.862v1.327a.74.74,0,0,1-.74.74H52.795v1.529h1.327a.74.74,0,0,1,.74.74v1.327h1.529V239.4a.74.74,0,0,1,.74-.74h1.327Z" transform="translate(-16.647 -210.525)"/>
      </g>
    </g>
  </g>
</svg>
