<svg xmlns="http://www.w3.org/2000/svg" xmlns:xlink="http://www.w3.org/1999/xlink" width="70" height="70" viewBox="0 0 70 70">
  <defs>
    <clipPath id="clip-path">
      <path id="path5910" d="M0-682.665H45.952v45.952H0Z" transform="translate(0 682.665)"/>
    </clipPath>
  </defs>
  <g id="Grupo_1063908" data-name="Grupo 1063908" transform="translate(-755 -1392)">
    <circle id="Elipse_8234" data-name="Elipse 8234" cx="35" cy="35" r="35" transform="translate(755 1392)" fill="#ffebc5"/>
    <g id="g5904" transform="translate(767.024 2084.69)">
      <g id="g5906" transform="translate(0 -682.665)">
        <g id="g5908" clip-path="url(#clip-path)">
          <g id="g5914" transform="translate(11.96 0.673)">
            <path id="path5916" d="M-4.408-106.889l-.318,22.326,21.305.3.318-22.326A7.825,7.825,0,0,0,8.474-114.5l-1.494.115a6.9,6.9,0,0,1-1.254-.018l-1.49-.157a7.825,7.825,0,0,0-8.645,7.67" transform="translate(4.727 114.603)" fill="#fdbd37"/>
          </g>
          <g id="g5918" transform="translate(22.845 0.754)">
            <path id="path5920" d="M-32.088-.325l-1.494.115A6.883,6.883,0,0,1-34.4-.2a7.829,7.829,0,0,1,6.288,7.786l-.317,22.263,4.45.063.318-22.326A7.825,7.825,0,0,0-32.088-.325" transform="translate(34.404 0.348)" fill="#fa9a39"/>
          </g>
          <g id="g5922" transform="translate(6.824 20.077)">
            <path id="path5924" d="M-400.433-124.324h0a28.7,28.7,0,0,0-7.793-2.635,2.188,2.188,0,0,1-1.789-2.153V-133.3h-6.84v4.185a2.188,2.188,0,0,1-1.789,2.153,28.7,28.7,0,0,0-7.793,2.635,5.289,5.289,0,0,0-2.895,4.716l.512,10.9a.644.644,0,0,0,.643.614h30.505a.644.644,0,0,0,.643-.674l-.51-10.839a5.289,5.289,0,0,0-2.895-4.716" transform="translate(429.332 133.297)" fill="#fed6a6"/>
          </g>
          <g id="g5926" transform="translate(6.824 26.415)">
            <path id="path5928" d="M-40.109-36.508h0A5.289,5.289,0,0,0-43-31.792l.512,10.9a.644.644,0,0,0,.643.614h17.428l-7.9-18.864a28.7,28.7,0,0,0-7.793,2.635" transform="translate(43.004 39.143)" fill="#ff94a6"/>
          </g>
          <g id="g5930" transform="translate(21.764 23.378)">
            <path id="path5932" d="M-168.7-161.723c-.641-4.323-4.563-7.087-6.269-8.7a2.187,2.187,0,0,1-1.528-2.086v-.884a8.423,8.423,0,0,1-3.436.968,5.373,5.373,0,0,1-.942-.129v3.089a2.188,2.188,0,0,0,1.789,2.153,28.7,28.7,0,0,1,7.793,2.635,5.288,5.288,0,0,1,2.593,2.955Z" transform="translate(180.87 173.394)" fill="#efc79c"/>
          </g>
          <g id="g5934" transform="translate(23.666 26.352)">
            <path id="path5936" d="M-179.9-45.684a7.113,7.113,0,0,0-1.395-.832,28.7,28.7,0,0,0-7.325-2.4c-.058-.011-.114-.024-.17-.039l-.045-.012-.04-.011c1.714,1.637,5.751,4.434,6.295,8.915.37,3.049-7.842,6.44-10.3,10.012h14.818a.644.644,0,0,0,.643-.674l-.509-10.839a5.289,5.289,0,0,0-1.968-4.117" transform="translate(192.882 48.981)" fill="#ff94a6"/>
          </g>
          <g id="g5938" transform="translate(11.646 31.24)">
            <path id="path5940" d="M-292.668-6.815c-2-1.449-8.461.413-9.056,4.166-9.161.106-12.066,9.382-12.066,9.382h12.3a9.351,9.351,0,0,0,6.6-4.93A5.076,5.076,0,0,0-291.74-.224a4.469,4.469,0,0,0,.714-3.719,5.158,5.158,0,0,0-1.641-2.871" transform="translate(313.79 7.307)" fill="#a393e5"/>
          </g>
          <g id="g5942" transform="translate(11.646 38.322)">
            <path id="path5944" d="M-53.966-12.37a16.01,16.01,0,0,0-3.865,5.976l0,.008-.013.037,0,.008-.007.022,0,0,0,.008h12.3a9.352,9.352,0,0,0,6.6-4.93,5.077,5.077,0,0,0,3.148-2.028,34.206,34.206,0,0,1-18.155.893" transform="translate(57.861 13.263)" fill="#8a84c1"/>
          </g>
          <g id="g5946" transform="translate(23.711 31.24)">
            <path id="path5948" d="M0-64.538C7.333-63.6,9.056-68.7,9.056-68.7,7.052-70.153.6-68.291,0-64.538" transform="translate(0 69.196)" fill="#ffe3c2"/>
          </g>
          <g id="g5950" transform="translate(12.208 10.532)">
            <path id="path5952" d="M-44.247-.248-45.49-.265a1.91,1.91,0,0,0-1.937,1.883l-.013.9A1.91,1.91,0,0,0-45.558,4.46l1.243.018Z" transform="translate(47.44 0.266)" fill="#fed6a6"/>
          </g>
          <g id="g5954" transform="translate(30.333 10.763)">
            <path id="path5956" d="M-.933,0,.311.018A1.91,1.91,0,0,1,2.193,1.956l-.013.9A1.91,1.91,0,0,1,.243,4.743L-1,4.725Z" transform="translate(1)" fill="#fed6a6"/>
          </g>
          <g id="g5958" transform="translate(14.786 6.074)">
            <path id="path5960" d="M-108.834-1.7a14.165,14.165,0,0,1-7.376,3.329.473.473,0,0,0-.412.465l-.066,6.336c-.076,5.339,5.493,7.933,7.919,8.02,2.427-.017,8.068-2.452,8.144-7.791l.114-6.335a.473.473,0,0,0-.4-.476,14.165,14.165,0,0,1-7.278-3.538.475.475,0,0,0-.647-.009" transform="translate(116.689 1.823)" fill="#ffe3c2"/>
          </g>
          <g id="g5962" transform="translate(20.511 8.367)">
            <path id="path5964" d="M-139.32-19.08a14.72,14.72,0,0,1-4.191-1.377l-.1,8.189c-.056,3.956-3.167,6.317-5.763,7.282a7.153,7.153,0,0,0,2.194.509c2.427-.017,8.068-2.452,8.144-7.791l.115-6.335a.473.473,0,0,0-.4-.476" transform="translate(149.374 20.457)" fill="#f7d6b5"/>
          </g>
          <g id="g5966" transform="translate(22.602 14.309)">
            <path id="path5968" d="M-2.4,0l-.172,1.788a.283.283,0,0,0,.254.308l.589.057" transform="translate(2.577)" fill="none" stroke="#000" stroke-linecap="round" stroke-linejoin="round" stroke-miterlimit="10" stroke-width="2"/>
          </g>
          <g id="g5970" transform="translate(20.096 18.975)">
            <path id="path5972" d="M0,0A3.157,3.157,0,0,0,2.667,1.343,3.157,3.157,0,0,0,5.371.077" fill="none" stroke="#000" stroke-linecap="round" stroke-linejoin="round" stroke-miterlimit="10" stroke-width="2"/>
          </g>
          <g id="g5974" transform="translate(26.956 13.958)">
            <path id="path5976" d="M0-9.832l.01-.71" transform="translate(0 10.541)" fill="none" stroke="#000" stroke-linecap="round" stroke-linejoin="round" stroke-miterlimit="10" stroke-width="2"/>
          </g>
          <g id="g5978" transform="translate(19.57 13.483)">
            <path id="path5980" d="M0-10.182l.011-.735" transform="translate(0 10.917)" fill="none" stroke="#000" stroke-linecap="round" stroke-linejoin="round" stroke-miterlimit="10" stroke-width="2"/>
          </g>
          <g id="g5982" transform="translate(37.664 30.736)">
            <path id="path5984" d="M0,0Q.069.1.133.2.068.1,0,0" fill="#efc79c"/>
          </g>
          <g id="g5986" transform="translate(37.493 30.505)">
            <path id="path5988" d="M0,0C.053.067.1.136.153.205.1.136.053.067,0,0" fill="#efc79c"/>
          </g>
          <g id="g5990" transform="translate(37.821 30.974)">
            <path id="path5992" d="M0,0Q.067.108.129.219.067.108,0,0" fill="#efc79c"/>
          </g>
          <g id="g5994" transform="translate(37.293 30.265)">
            <path id="path5996" d="M0,0C.057.064.111.13.165.2.111.13.057.064,0,0" fill="#efc79c"/>
          </g>
          <g id="g5998" transform="translate(36.65 29.649)">
            <path id="path6000" d="M0,0C.069.055.136.113.2.172.136.113.069.055,0,0" fill="#efc79c"/>
          </g>
          <g id="g6002" transform="translate(37.108 30.066)">
            <path id="path6004" d="M0,0Q.084.086.164.176.084.086,0,0" fill="#efc79c"/>
          </g>
          <g id="g6006" transform="translate(37.975 31.239)">
            <path id="path6008" d="M0,0C.042.077.082.154.12.232.082.154.042.077,0,0" fill="#efc79c"/>
          </g>
          <g id="g6010" transform="translate(36.891 29.856)">
            <path id="path6012" d="M-2.561-2.445q-.09-.09-.185-.176.095.086.185.176" transform="translate(2.745 2.621)" fill="#efc79c"/>
          </g>
          <g id="g6014" transform="translate(38.095 31.472)">
            <path id="path6016" d="M0,0C.038.079.073.158.107.239.073.158.038.079,0,0" fill="#efc79c"/>
          </g>
          <g id="g6018" transform="translate(38.585 33.18)">
            <path id="path6020" d="M0,0Q.014.129.022.26.014.129,0,0" fill="#efc79c"/>
          </g>
          <g id="g6022" transform="translate(35.538 28.958)">
            <path id="path6024" d="M-15.4-9.576a5.283,5.283,0,0,0-.926-.6h0l-.185-.092a6.227,6.227,0,0,1,1.112.691" transform="translate(16.513 10.267)" fill="#efc79c"/>
          </g>
          <g id="g6026" transform="translate(38.61 33.495)">
            <path id="path6028" d="M-.107-3.748c0-.091,0-.181-.008-.271,0,.09.008.18.008.271" transform="translate(0.115 4.019)" fill="#efc79c"/>
          </g>
          <g id="g6030" transform="translate(38.618 33.765)">
            <path id="path6032" d="M-4.131-87.889l-.3-6.343Z" transform="translate(4.429 94.232)" fill="#efc79c"/>
          </g>
          <g id="g6034" transform="translate(38.545 32.892)">
            <path id="path6036" d="M0,0Q.02.12.035.242.02.12,0,0" fill="#efc79c"/>
          </g>
          <g id="g6038" transform="translate(38.223 31.76)">
            <path id="path6040" d="M0,0Q.048.118.091.238.048.118,0,0" fill="#efc79c"/>
          </g>
          <g id="g6042" transform="translate(38.489 32.606)">
            <path id="path6044" d="M0,0C.019.084.036.169.051.255.036.169.019.084,0,0" fill="#efc79c"/>
          </g>
          <g id="g6046" transform="translate(38.329 32.042)">
            <path id="path6048" d="M0,0Q.039.114.074.23.039.114,0,0" fill="#efc79c"/>
          </g>
          <g id="g6050" transform="translate(38.411 32.301)">
            <path id="path6052" d="M0,0C.024.083.045.166.065.25.045.166.024.083,0,0" fill="#efc79c"/>
          </g>
          <g id="g6054" transform="translate(34.063 35.456)">
            <path id="path6056" d="M-.107-.4-.115-.425-.107-.4" transform="translate(0.115 0.425)" fill="#efc79c"/>
          </g>
          <g id="g6058" transform="translate(38.795 45.149)">
            <path id="path6060" d="M-1.055,0a.643.643,0,0,1-.076.05A.632.632,0,0,0-1.055,0" transform="translate(1.131)" fill="#efc79c"/>
          </g>
          <g id="g6062" transform="translate(39.106 44.717)">
            <path id="path6064" d="M0-1.19a.648.648,0,0,0,.016-.086A.648.648,0,0,1,0-1.19" transform="translate(0 1.276)" fill="#efc79c"/>
          </g>
          <g id="g6066" transform="translate(39.125 44.605)">
            <path id="path6068" d="M0-1.254a.631.631,0,0,0,0-.09.631.631,0,0,1,0,.09" transform="translate(0 1.344)" fill="#efc79c"/>
          </g>
          <g id="g6070" transform="translate(38.707 45.204)">
            <path id="path6072" d="M-1.088,0a.663.663,0,0,1-.079.035A.663.663,0,0,0-1.088,0" transform="translate(1.167)" fill="#efc79c"/>
          </g>
          <g id="g6074" transform="translate(39.023 44.909)">
            <path id="path6076" d="M0-1.091a.642.642,0,0,0,.044-.079A.63.63,0,0,1,0-1.091" transform="translate(0 1.169)" fill="#efc79c"/>
          </g>
          <g id="g6078" transform="translate(38.961 45.001)">
            <path id="path6080" d="M0-.92A.647.647,0,0,0,.053-.987.647.647,0,0,1,0-.92" transform="translate(0 0.987)" fill="#efc79c"/>
          </g>
          <g id="g6082" transform="translate(39.074 44.803)">
            <path id="path6084" d="M0-1.224a.639.639,0,0,0,.032-.088A.639.639,0,0,1,0-1.224" transform="translate(0 1.312)" fill="#efc79c"/>
          </g>
          <g id="g6086" transform="translate(38.887 45.076)">
            <path id="path6088" d="M0-.848A.653.653,0,0,0,.067-.909.634.634,0,0,1,0-.848" transform="translate(0 0.909)" fill="#efc79c"/>
          </g>
          <g id="g6090" transform="translate(34.12 35.689)">
            <path id="path6092" d="M-.006-.026v0" transform="translate(0.007 0.028)" fill="#efc79c"/>
          </g>
          <g id="g6094" transform="translate(34.217 36.32)">
            <path id="path6096" d="M-.082-.936Q-.085-.97-.088-1c0,.023,0,.045.006.068" transform="translate(0.088 1.004)" fill="#efc79c"/>
          </g>
          <g id="g6098" transform="translate(34.194 36.112)">
            <path id="path6100" d="M-.1-.781C-.1-.8-.1-.819-.1-.837c0,.019,0,.038.007.056" transform="translate(0.103 0.837)" fill="#efc79c"/>
          </g>
          <g id="g6102" transform="translate(34.233 36.537)">
            <path id="path6104" d="M-.046-.877c0-.021,0-.042,0-.063,0,.021,0,.042,0,.063" transform="translate(0.049 0.94)" fill="#efc79c"/>
          </g>
          <g id="g6106" transform="translate(34.163 35.909)">
            <path id="path6108" d="M-.016-.095v0" transform="translate(0.017 0.101)" fill="#efc79c"/>
          </g>
          <g id="g6110" transform="translate(34.004 35.248)">
            <path id="path6112" d="M0,0,.008.027,0,0" fill="#efc79c"/>
          </g>
          <g id="g6114" transform="translate(38.484 45.27)">
            <path id="path6116" d="M0-.116A.644.644,0,0,0,.1-.124.644.644,0,0,1,0-.116" transform="translate(0 0.124)" fill="#efc79c"/>
          </g>
          <g id="g6118" transform="translate(38.602 45.244)">
            <path id="path6120" d="M0-.321A.608.608,0,0,0,.09-.344.605.605,0,0,1,0-.321" transform="translate(0 0.344)" fill="#efc79c"/>
          </g>
          <g id="g6122" transform="translate(22.555 40.108)">
            <path id="path6124" d="M-114.817,0h-3.1A5.189,5.189,0,0,0-123.1,5.171h8.286Z" transform="translate(123.104)" fill="#fed6a6"/>
          </g>
          <g id="g6126" transform="translate(27.676 26.352)">
            <path id="path6128" d="M-155.751-190.612h0l-.3-6.343a5.289,5.289,0,0,0-1.968-4.117,7.111,7.111,0,0,0-1.395-.832,28.7,28.7,0,0,0-7.325-2.4c-.058-.011-.114-.024-.17-.039l-.045-.012-.04-.011c1.2,1.147,3.541,2.865,5.021,5.332.024.016.048.031.071.047a5.158,5.158,0,0,1,1.641,2.871,4.479,4.479,0,0,1-.147,2.66l.077,1.631a1.16,1.16,0,0,1-1.159,1.215h-2.337v5.171h7.642a.644.644,0,0,0,.622-.476.639.639,0,0,0,.021-.2Z" transform="translate(166.992 204.369)" fill="#f4849c"/>
          </g>
          <g id="g6130" transform="translate(17.512 26.415)">
            <path id="path6132" d="M-56.182-134.235l-4.055-9.688" transform="translate(60.237 143.922)" fill="none" stroke="#000" stroke-linecap="round" stroke-linejoin="round" stroke-miterlimit="10" stroke-width="2"/>
          </g>
          <g id="g6134" transform="translate(6.824 23.281)">
            <path id="path6136" d="M-172.881,0V.981a2.188,2.188,0,0,1-1.789,2.153,28.7,28.7,0,0,0-7.793,2.635,5.289,5.289,0,0,0-2.895,4.716l.512,10.9A.644.644,0,0,0-184.2,22H-153.7a.644.644,0,0,0,.643-.674l-.51-10.839a5.289,5.289,0,0,0-2.895-4.716h0a28.7,28.7,0,0,0-7.793-2.635A2.188,2.188,0,0,1-166.041.981V.1" transform="translate(185.358)" fill="none" stroke="#000" stroke-linecap="round" stroke-linejoin="round" stroke-miterlimit="10" stroke-width="2"/>
          </g>
          <g id="g6138" transform="translate(22.555 40.108)">
            <path id="path6140" d="M-114.817,0h-3.1A5.189,5.189,0,0,0-123.1,5.171h8.286Z" transform="translate(123.104)" fill="none" stroke="#000" stroke-linecap="round" stroke-linejoin="round" stroke-miterlimit="10" stroke-width="2"/>
          </g>
          <g id="g6142" transform="translate(27.675 26.352)">
            <path id="path6144" d="M-3.527-.873C-3.585-.884-3.641-.9-3.7-.912l-.045-.013-.04-.011C-2.58.211-.241,1.929,1.24,4.4c.024.016.048.031.071.047A5.158,5.158,0,0,1,2.952,7.315,4.478,4.478,0,0,1,2.8,9.975l.077,1.631a1.16,1.16,0,0,1-1.159,1.215H-.615" transform="translate(3.781 0.936)" fill="none" stroke="#000" stroke-linecap="round" stroke-linejoin="round" stroke-miterlimit="10" stroke-width="2"/>
          </g>
          <g id="g6146" transform="translate(23.711 31.24)">
            <path id="path6148" d="M0-64.538C7.333-63.6,9.056-68.7,9.056-68.7,7.052-70.153.6-68.291,0-64.538Z" transform="translate(0 69.196)" fill="none" stroke="#000" stroke-linecap="round" stroke-linejoin="round" stroke-miterlimit="10" stroke-width="2"/>
          </g>
          <g id="g6150" transform="translate(11.646 31.24)">
            <path id="path6152" d="M-291.683-6.152h0c-2.081-1.358-8.4.5-8.985,4.214-9.161.106-12.066,9.382-12.066,9.382" transform="translate(312.734 6.596)" fill="none" stroke="#000" stroke-linecap="round" stroke-linejoin="round" stroke-miterlimit="10" stroke-width="2"/>
          </g>
          <g id="g6154" transform="translate(31.393 37.264)">
            <path id="path6156" d="M0-39.408a5.168,5.168,0,0,0,2.3-1.787,4.478,4.478,0,0,0,.566-1.058" transform="translate(0 42.252)" fill="none" stroke="#000" stroke-linecap="round" stroke-linejoin="round" stroke-miterlimit="10" stroke-width="2"/>
          </g>
          <g id="g6158" transform="translate(14.786 6.074)">
            <path id="path6160" d="M-108.834-1.7a14.165,14.165,0,0,1-7.376,3.329.473.473,0,0,0-.412.465l-.066,6.336c-.076,5.339,5.493,7.933,7.919,8.02,2.427-.017,8.068-2.452,8.144-7.791l.114-6.335a.473.473,0,0,0-.4-.476,14.165,14.165,0,0,1-7.278-3.538A.475.475,0,0,0-108.834-1.7Z" transform="translate(116.689 1.823)" fill="none" stroke="#000" stroke-linecap="round" stroke-linejoin="round" stroke-miterlimit="10" stroke-width="2"/>
          </g>
          <g id="g6162" transform="translate(30.869 10.771)">
            <path id="path6164" d="M0-65.468l.707.01a1.91,1.91,0,0,0,1.937-1.883l.013-.9A1.91,1.91,0,0,0,.775-70.183l-.689-.01" transform="translate(0 70.193)" fill="none" stroke="#000" stroke-linecap="round" stroke-linejoin="round" stroke-miterlimit="10" stroke-width="2"/>
          </g>
          <g id="g6166" transform="translate(12.208 10.532)">
            <path id="path6168" d="M-36.57-.138l-.689-.01A1.91,1.91,0,0,0-39.2,1.735l-.013.9a1.91,1.91,0,0,0,1.882,1.938l.707.01" transform="translate(39.209 0.148)" fill="none" stroke="#000" stroke-linecap="round" stroke-linejoin="round" stroke-miterlimit="10" stroke-width="2"/>
          </g>
          <g id="g6170" transform="translate(12.044 13.319)">
            <path id="path6172" d="M-2.276,0-2.44,11.527" transform="translate(2.44)" fill="none" stroke="#000" stroke-linecap="round" stroke-linejoin="round" stroke-miterlimit="10" stroke-width="2"/>
          </g>
          <g id="g6174" transform="translate(12.221 0.673)">
            <path id="path6176" d="M-292.812-334.924l.23-16.154A7.825,7.825,0,0,0-301-358.991l-1.494.115a6.9,6.9,0,0,1-1.254-.018l-1.49-.157a7.825,7.825,0,0,0-8.645,7.67l-.057,4.028" transform="translate(313.945 359.095)" fill="none" stroke="#000" stroke-linecap="round" stroke-linejoin="round" stroke-miterlimit="10" stroke-width="2"/>
          </g>
          <g id="g6178" transform="translate(33.513 12.719)">
            <path id="path6180" d="M-.179,0-.192.9" transform="translate(0.192)" fill="none" stroke="#000" stroke-linecap="round" stroke-linejoin="round" stroke-miterlimit="10" stroke-width="2"/>
          </g>
        </g>
      </g>
    </g>
  </g>
</svg>
