<svg xmlns="http://www.w3.org/2000/svg" width="70" height="70" viewBox="0 0 70 70">
  <g id="Grupo_1064015" data-name="Grupo 1064015" transform="translate(-755 -1392)">
    <circle id="Elipse_8234" data-name="Elipse 8234" cx="35" cy="35" r="35" transform="translate(755 1392)" fill="#ffebc5"/>
    <g id="bebe" transform="translate(771.661 1406.525)">
      <path id="Trazado_796510" data-name="Trazado 796510" d="M159.859,196.556h-.367a1.714,1.714,0,0,1-1.719-1.709v-.562a1.712,1.712,0,0,1,1.438-1.685q-.118-.2-.244-.392h-.1a.39.39,0,0,1-.389-.387v-.283a8.338,8.338,0,0,0-1.422-1.409,6.443,6.443,0,0,1-3.245.87h-1.886a6.445,6.445,0,0,1-3.245-.87,8.851,8.851,0,0,0-2.457,3.026h5.567a.988.988,0,1,1,0,1.973H150.54a3.877,3.877,0,0,1-2.009,2.96h11.333a.277.277,0,0,1,0-.046Zm0,0" transform="translate(-134.532 -174.922)" fill="#a2f9f9"/>
      <path id="Trazado_796511" data-name="Trazado 796511" d="M148.11,338.094v-5.469h-3.676v5.359c0,.037,0,.074,0,.11Zm0,0" transform="translate(-132.882 -306.021)" fill="#a2f9f9"/>
      <path id="Trazado_796512" data-name="Trazado 796512" d="M146.343,338.094c0-.037,0-.073,0-.11v-5.359h-1.905v5.359c0,.037,0,.074,0,.11Zm0,0" transform="translate(-132.882 -306.021)" fill="#91e0e0"/>
      <path id="Trazado_796513" data-name="Trazado 796513" d="M271.956,338.094c0-.037,0-.073,0-.11v-5.359h-3.771v5.469Zm0,0" transform="translate(-246.738 -306.021)" fill="#a2f9f9"/>
      <path id="Trazado_796514" data-name="Trazado 796514" d="M281.648,165.641a8.332,8.332,0,0,1,1.422,1.408v-.423a.39.39,0,0,1,.39-.387h2.127v-.411a1.207,1.207,0,0,1,.537-1.011,1.325,1.325,0,0,0,.569-.838,2.637,2.637,0,0,0-1.5-.466h-1.338a6.383,6.383,0,0,1-2.205,2.129Zm0,0" transform="translate(-259.121 -150.434)" fill="#c6a07d"/>
      <path id="Trazado_796515" data-name="Trazado 796515" d="M103.37,168.667a8.853,8.853,0,0,1,2.457-3.026,6.381,6.381,0,0,1-2.205-2.129h-1.338a2.632,2.632,0,0,0-2.64,2.624v2.531Zm0,0" transform="translate(-91.676 -150.434)" fill="#c6a07d"/>
      <path id="Trazado_796516" data-name="Trazado 796516" d="M103.622,163.512h-1.338a2.632,2.632,0,0,0-2.64,2.624v2.531H102.1v-2.531a2.625,2.625,0,0,1,1.65-2.433c-.043-.063-.084-.127-.124-.191Zm0,0" transform="translate(-91.675 -150.434)" fill="#b29070"/>
      <path id="Trazado_796517" data-name="Trazado 796517" d="M148.688,193.155a9.153,9.153,0,0,1,1.683-2.345,6.409,6.409,0,0,1-1.687-.681,8.852,8.852,0,0,0-2.457,3.026Zm0,0" transform="translate(-134.531 -174.922)" fill="#91e0e0"/>
      <path id="Trazado_796518" data-name="Trazado 796518" d="M129.545,14.11h-.516a6.709,6.709,0,0,0-6.792-6.61h-1.1a6.709,6.709,0,0,0-6.792,6.61h-.516a1.492,1.492,0,0,0-1.5,1.475v1.233a1.492,1.492,0,0,0,1.5,1.475h.727a6.382,6.382,0,0,0,6.185,4.685h1.885a6.382,6.382,0,0,0,6.185-4.685h.727a1.492,1.492,0,0,0,1.5-1.475V15.585A1.492,1.492,0,0,0,129.545,14.11Zm0,0" transform="translate(-103.352 -6.9)" fill="#ffd5b3"/>
      <path id="Trazado_796519" data-name="Trazado 796519" d="M152.7,8.89a6.873,6.873,0,0,0-4.161-1.39h-1.1a6.771,6.771,0,0,0-6.521,4.77,1.468,1.468,0,0,0,1.908-.132l.809-.8a1.436,1.436,0,0,0,.411.816,1.469,1.469,0,0,0,2.064,0l.809-.8a1.433,1.433,0,0,0,.411.815,1.468,1.468,0,0,0,2.064,0Zm0,0" transform="translate(-129.651 -6.9)" fill="#775436"/>
      <path id="Trazado_796520" data-name="Trazado 796520" d="M139.988,60.8V58.236a6.459,6.459,0,0,1,.56-2.634,1.439,1.439,0,0,1-.032-.153l-.809.8a1.467,1.467,0,0,1-1.908.132,6.466,6.466,0,0,0-.271,1.853V60.8a6.346,6.346,0,0,0,6.4,6.294h1.886c.1,0,.192,0,.288-.007a6.34,6.34,0,0,1-6.11-6.287Zm0,0" transform="translate(-126.528 -51.014)" fill="#e5bfa1"/>
      <path id="Trazado_796521" data-name="Trazado 796521" d="M147.442,7.5a6.771,6.771,0,0,0-6.521,4.769h0a1.468,1.468,0,0,0,1.908-.132l.809-.8a1.436,1.436,0,0,0,.032.153,6.783,6.783,0,0,1,5.549-3.955c-.225-.022-.452-.033-.683-.033Zm0,0" transform="translate(-129.651 -6.9)" fill="#6b4b30"/>
      <path id="Trazado_796522" data-name="Trazado 796522" d="M199.267,148.321a2.606,2.606,0,0,1-2.61-2.6.427.427,0,0,1,.428-.426h4.365a.427.427,0,0,1,.428.426A2.606,2.606,0,0,1,199.267,148.321Zm0,0" transform="translate(-180.928 -133.679)" fill="#fb8276"/>
      <path id="Trazado_796523" data-name="Trazado 796523" d="M198.39,145.726a.427.427,0,0,1,.428-.426h-1.734a.427.427,0,0,0-.428.426,2.61,2.61,0,0,0,3.476,2.447,2.6,2.6,0,0,1-1.742-2.447Zm0,0" transform="translate(-180.928 -133.679)" fill="#e1756a"/>
      <path id="Trazado_796524" data-name="Trazado 796524" d="M335.133,162.993v-.411a1.206,1.206,0,0,0-.538-1.011,1.326,1.326,0,0,1-.6-1.114v-.328a.145.145,0,0,0-.146-.145h-1.687a.145.145,0,0,0-.146.145v.33a1.325,1.325,0,0,1-.6,1.112,1.206,1.206,0,0,0-.537,1.011v.411Zm0,0" transform="translate(-304.422 -147.188)" fill="#e6e9ed"/>
      <path id="Trazado_796525" data-name="Trazado 796525" d="M292.669,220.719H292.3a1.714,1.714,0,0,0-1.719,1.709v.562A1.714,1.714,0,0,0,292.3,224.7h.367Zm0,0" transform="translate(-267.341 -203.065)" fill="#ffc502"/>
      <path id="Trazado_796526" data-name="Trazado 796526" d="M398.554,220.719h-.367V224.7h.367a1.714,1.714,0,0,0,1.719-1.709v-.562A1.714,1.714,0,0,0,398.554,220.719Zm0,0" transform="translate(-366.34 -203.065)" fill="#ffc502"/>
      <path id="Trazado_796527" data-name="Trazado 796527" d="M316.668,216.121v5.835a.272.272,0,0,0,0,.046h6.511a.275.275,0,0,0,0-.046v-5.835Zm0,0" transform="translate(-291.341 -198.835)" fill="#ffca51"/>
      <path id="Trazado_796528" data-name="Trazado 796528" d="M318.244,222a.275.275,0,0,1,0-.046v-5.835h-1.571v5.835a.275.275,0,0,0,0,.046Zm0,0" transform="translate(-291.34 -198.835)" fill="#e5b549"/>
      <path id="Trazado_796529" data-name="Trazado 796529" d="M308.7,198.7a.39.39,0,0,1-.39.387h-8.5a.39.39,0,0,1-.389-.387v-.706a.389.389,0,0,1,.389-.387h8.5a.39.39,0,0,1,.39.387Zm0,0" transform="translate(-275.477 -181.8)" fill="#ffc502"/>
      <path id="Trazado_796530" data-name="Trazado 796530" d="M48.772,229.492v-1.527H47.545a.988.988,0,1,0,0,1.973H48.8a3.9,3.9,0,0,1-.027-.446Zm0,0" transform="translate(-42.781 -209.732)" fill="#ef5050"/>
      <path id="Trazado_796531" data-name="Trazado 796531" d="M201.406,227.965h-1.228v1.527a3.891,3.891,0,0,1-.026.446h1.254a.988.988,0,1,0,0-1.973Zm0,0" transform="translate(-184.144 -209.732)" fill="#ef5050"/>
      <path id="Trazado_796532" data-name="Trazado 796532" d="M76.945,232.9h5.973a3.872,3.872,0,0,0,2.035-3.406v-1.527H74.91v1.527a3.873,3.873,0,0,0,2.035,3.406Zm0,0" transform="translate(-68.919 -209.732)" fill="#fb8276"/>
      <path id="Trazado_796533" data-name="Trazado 796533" d="M76.945,232.9h2.468a3.87,3.87,0,0,1-2.039-3.406v-1.527H74.91v1.527A3.873,3.873,0,0,0,76.945,232.9Zm0,0" transform="translate(-68.919 -209.732)" fill="#e1756a"/>
      <path id="Trazado_796534" data-name="Trazado 796534" d="M190.4,332.625h6.222v5.469H190.4Zm0,0" transform="translate(-175.17 -306.021)" fill="#775436"/>
      <path id="Trazado_796535" data-name="Trazado 796535" d="M190.4,332.625h2.471v5.469H190.4Zm0,0" transform="translate(-175.17 -306.021)" fill="#6b4b30"/>
      <path id="Trazado_796536" data-name="Trazado 796536" d="M88.76,401H64.308l-1.054,2.8H89.814Zm0,0" transform="translate(-58.195 -368.927)" fill="#c6a07d"/>
      <path id="Trazado_796537" data-name="Trazado 796537" d="M63.254,403.8h2.563V401H64.308Zm0,0" transform="translate(-58.195 -368.927)" fill="#b29070"/>
      <path id="Trazado_796538" data-name="Trazado 796538" d="M12.062,332.625,7.6,344.473a1.413,1.413,0,0,0,2.648.986l4.835-12.834Zm0,0" transform="translate(-6.908 -306.021)" fill="#775436"/>
      <path id="Trazado_796539" data-name="Trazado 796539" d="M9.181,344.473l4.463-11.848H12.062L7.6,344.473a1.4,1.4,0,0,0,.828,1.81,1.418,1.418,0,0,0,1.287-.153,1.4,1.4,0,0,1-.533-1.657Zm0,0" transform="translate(-6.908 -306.021)" fill="#6b4b30"/>
      <path id="Trazado_796540" data-name="Trazado 796540" d="M363.874,344.473l-4.464-11.848h-3.02l4.835,12.834a1.413,1.413,0,0,0,2.648-.986Zm0,0" transform="translate(-327.886 -306.021)" fill="#775436"/>
      <path id="Trazado_796541" data-name="Trazado 796541" d="M50.451,292.679a.4.4,0,0,1-.4.4H16.794a.4.4,0,0,1-.4-.4V290.04a.4.4,0,0,1,.4-.4H50.051a.4.4,0,0,1,.4.4v2.638Zm0,0" transform="translate(-15.083 -266.474)" fill="#c6a07d"/>
      <path id="Trazado_796542" data-name="Trazado 796542" d="M20.082,292.679V290.04a.4.4,0,0,1,.4-.4H16.794a.4.4,0,0,0-.4.4v2.638a.4.4,0,0,0,.4.4h3.687A.4.4,0,0,1,20.082,292.679Zm0,0" transform="translate(-15.084 -266.474)" fill="#b29070"/>
      <path id="Trazado_796543" data-name="Trazado 796543" d="M175.842,101.277a.6.6,0,0,0,.6-.6v-.484a.6.6,0,1,0-1.2,0v.484A.6.6,0,0,0,175.842,101.277Zm0,0" transform="translate(-161.226 -91.628)"/>
      <path id="Trazado_796544" data-name="Trazado 796544" d="M268.948,101.277a.6.6,0,0,0,.6-.6v-.484a.6.6,0,1,0-1.2,0v.484A.6.6,0,0,0,268.948,101.277Zm0,0" transform="translate(-246.885 -91.628)"/>
      <path id="Trazado_796545" data-name="Trazado 796545" d="M217.586,102.627h.433a.6.6,0,0,0,0-1.2h-.233v-.542a.6.6,0,1,0-1.2,0v.742A1,1,0,0,0,217.586,102.627Zm0,0" transform="translate(-199.263 -92.264)"/>
      <path id="Trazado_796546" data-name="Trazado 796546" d="M192.366,142.021a3.206,3.206,0,0,0,3.211-3.195,1.028,1.028,0,0,0-1.028-1.025h-4.365a1.028,1.028,0,0,0-1.028,1.025,3.206,3.206,0,0,0,3.21,3.195Zm2-3.021a2.012,2.012,0,0,1-4.006,0Zm0,0" transform="translate(-174.028 -126.779)"/>
      <path id="Trazado_796547" data-name="Trazado 796547" d="M36.549,38.241,32.392,27.2h2.576a1,1,0,0,0,1-1V23.566a1,1,0,0,0-1-1h-2.52v-.344a2.316,2.316,0,0,0,2.086-2.3v-.562a2.3,2.3,0,0,0-.928-1.844.98.98,0,0,0,.221-.62v-.706a.989.989,0,0,0-.989-.987H31.3a1.8,1.8,0,0,0-.8-1.323.729.729,0,0,1-.328-.614v-.328a.746.746,0,0,0-.745-.745H27.744a.746.746,0,0,0-.679.438,3.233,3.233,0,0,0-1-.157h-.348q.1-.238.188-.486h.284a2.089,2.089,0,0,0,2.1-2.075V8.684a2.089,2.089,0,0,0-2.042-2.074A7.335,7.335,0,0,0,18.886,0h-1.1a7.336,7.336,0,0,0-7.365,6.611A2.089,2.089,0,0,0,8.384,8.684V9.918a2.089,2.089,0,0,0,2.1,2.075h.284q.085.247.189.486h-.348A3.236,3.236,0,0,0,7.369,15.7v1.931H4.763a1.588,1.588,0,1,0,0,3.173h.753a4.455,4.455,0,0,0,.873,1.76H1.711a1,1,0,0,0-1,1V26.2a1,1,0,0,0,1,1H4.287L.129,38.241a2,2,0,0,0,1.18,2.583A2.016,2.016,0,0,0,3.9,39.65l1.574-4.177H9.141a.6.6,0,0,0,0-1.2H5.926l.6-1.6H30.15l.6,1.6H11.94a.6.6,0,0,0,0,1.2H31.2l1.574,4.177a2.016,2.016,0,0,0,2.591,1.174,2,2,0,0,0,1.18-2.583ZM26.278,9.783V7.813a.886.886,0,0,1,.815.871V9.918a.888.888,0,0,1-.89.875A6.847,6.847,0,0,0,26.278,9.783ZM9.584,9.918V8.684a.886.886,0,0,1,.815-.871v1.97a6.809,6.809,0,0,0,.075,1.009.888.888,0,0,1-.89-.875ZM5.391,19.607H4.763a.391.391,0,1,1,0-.774h.628Zm27.943-.244v.562a1.114,1.114,0,0,1-.887,1.085V18.278a1.114,1.114,0,0,1,.887,1.085Zm-6-4.48a1.924,1.924,0,0,0,.862-1.488h.785a1.925,1.925,0,0,0,.862,1.488.6.6,0,0,1,.239.322H27.094a.6.6,0,0,1,.239-.322ZM32.627,16.4v.281H30.736a.6.6,0,0,0,0,1.2h.511v4.681h-5.32V17.886h2.01a.6.6,0,1,0,0-1.2H24.548V16.4Zm-7.9,1.873V21.01a1.114,1.114,0,0,1-.887-1.085v-.562a1.114,1.114,0,0,1,.887-1.085Zm1.342-4.6a2.035,2.035,0,0,1,.7.125.767.767,0,0,1-.1.08,1.8,1.8,0,0,0-.8,1.323H24.338a.986.986,0,0,0-.645.241q-.09-.089-.181-.175a7,7,0,0,0,1.54-1.593ZM17.791,1.2h1.1a6.286,6.286,0,0,1,3.218.879L19.323,4.838a.868.868,0,0,1-1.219,0,.833.833,0,0,1-.239-.476.6.6,0,0,0-1.016-.339l-.809.8a.868.868,0,0,1-1.219,0,.837.837,0,0,1-.24-.477.6.6,0,0,0-1.016-.339l-.809.8a.867.867,0,0,1-.739.238A6.2,6.2,0,0,1,17.791,1.2ZM11.6,7.222a5.883,5.883,0,0,1,.09-1.018A2.071,2.071,0,0,0,13.6,5.663l.193-.192a2.065,2.065,0,0,0,3.09.205l.194-.192a2.036,2.036,0,0,0,.181.2,2.071,2.071,0,0,0,2.909,0L23.083,2.8a5.933,5.933,0,0,1,2,4.423V9.783a5.752,5.752,0,0,1-5.8,5.694H17.4a5.753,5.753,0,0,1-5.8-5.694ZM8.569,15.7a2.035,2.035,0,0,1,2.04-2.025h1.017a6.991,6.991,0,0,0,1.539,1.592,9.616,9.616,0,0,0-1.824,2.364H8.569V15.7ZM6.591,18.833h8.844v.927a3.274,3.274,0,0,1-1.6,2.806H8.188a3.274,3.274,0,0,1-1.6-2.806ZM1.91,26V23.766H16.819a.6.6,0,0,0,0-1.2H15.636a4.455,4.455,0,0,0,.873-1.76h.753a1.588,1.588,0,1,0,0-3.173H12.734a8.1,8.1,0,0,1,1.487-1.708,7.036,7.036,0,0,0,3.175.752h1.886a7.038,7.038,0,0,0,3.174-.751,7.791,7.791,0,0,1,.892.906V16.9a.98.98,0,0,0,.221.62,2.3,2.3,0,0,0-.928,1.844v.562a2.316,2.316,0,0,0,2.086,2.3v.344H19.619a.6.6,0,1,0,0,1.2H34.767V26Zm14.724-6.4v-.774h.628a.391.391,0,1,1,0,.774ZM2.777,39.227a.817.817,0,0,1-1.049.473.806.806,0,0,1-.456-.423.794.794,0,0,1-.02-.613L5.568,27.2H7.307Zm8.175-7.754H6.98L8.588,27.2h2.363Zm3.676,0H12.151V27.2h2.477Zm6.222,0H15.828V27.2H20.85Zm3.771,0H22.05V27.2h2.571Zm1.2,0V27.2h2.269L29.7,31.473Zm9.586,7.8a.806.806,0,0,1-.456.423.817.817,0,0,1-1.049-.473L29.372,27.2h1.738l4.317,11.459a.794.794,0,0,1-.021.613Zm0,0"/>
    </g>
  </g>
</svg>
