<svg xmlns="http://www.w3.org/2000/svg" xmlns:xlink="http://www.w3.org/1999/xlink" width="171" height="103.711" viewBox="0 0 171 103.711">
  <defs>
    <clipPath id="clip-path">
      <path id="path6885" d="M0-682.665H86.594v86.594H0Z" transform="translate(0 682.665)"/>
    </clipPath>
  </defs>
  <g id="Grupo_1064875" data-name="Grupo 1064875" transform="translate(-199 -19108.465)">
    <rect id="Rectángulo_373693" data-name="Rectángulo 373693" width="171" height="86" rx="10" transform="translate(199 19126.176)" fill="#ffebc5"/>
    <g id="g6879" transform="translate(241.203 19791.129)">
      <g id="g6881" transform="translate(0 -682.665)">
        <g id="g6883" transform="translate(0 0)" clip-path="url(#clip-path)">
          <g id="g6889" transform="translate(60.628 45.089)">
            <path id="path6891" d="M-38.676-46.433a8.223,8.223,0,0,1,8.224,8.223h0a8.223,8.223,0,0,1-8.224,8.223h-5.619v6.746h5.619A14.969,14.969,0,0,0-23.707-38.209h0A14.969,14.969,0,0,0-38.676-53.179h-5.619v6.746Z" transform="translate(44.295 53.179)" fill="#e5979d"/>
          </g>
          <g id="g6893" transform="translate(60.628 45.089)">
            <path id="path6895" d="M0,0V6.746H5.619a8.212,8.212,0,0,1,2.715.461V4.949a17.041,17.041,0,0,0-.7-4.812A15.073,15.073,0,0,0,5.619,0Z" fill="#e17f85"/>
          </g>
          <g id="g6897" transform="translate(60.628 67.82)">
            <path id="path6899" d="M-38.676-3.174h-5.619V3.572h5.619a15.052,15.052,0,0,0,2.715-.246v-6.96a8.2,8.2,0,0,1-2.715.461" transform="translate(44.295 3.635)" fill="#e17f85"/>
          </g>
          <g id="g6901" transform="translate(5.378 45.089)">
            <path id="path6903" d="M-103.04-159.646a8.223,8.223,0,0,1-8.224-8.223,8.223,8.223,0,0,1,8.224-8.224h5.619v-6.746h-5.619a14.969,14.969,0,0,0-14.969,14.969A14.969,14.969,0,0,0-103.04-152.9h5.619v-6.746Z" transform="translate(118.009 182.838)" fill="#e5979d"/>
          </g>
          <g id="g6905" transform="translate(17.632 45.089)">
            <path id="path6907" d="M0-49.605a8.2,8.2,0,0,1,2.715-.461H8.334v-6.745H2.715a15.1,15.1,0,0,0-2.02.136A17.043,17.043,0,0,0,0-51.863Z" transform="translate(0 56.812)" fill="#e17f85"/>
          </g>
          <g id="g6909" transform="translate(5.378 45.089)">
            <path id="path6911" d="M-103.04-159.646a8.208,8.208,0,0,1-2.715-.461v6.157a14.974,14.974,0,0,1-9.453-13.92h0a14.969,14.969,0,0,1,14.969-14.969h-2.8a14.969,14.969,0,0,0-14.969,14.969h0A14.969,14.969,0,0,0-103.04-152.9h5.619v-6.746Z" transform="translate(118.009 182.838)" fill="#e17f85"/>
          </g>
          <g id="g6913" transform="translate(5.378 45.089)">
            <path id="path6915" d="M-103.04-159.646a8.223,8.223,0,0,1-8.224-8.223,8.223,8.223,0,0,1,8.224-8.224h5.619v-6.746h-5.619a14.969,14.969,0,0,0-14.969,14.969A14.969,14.969,0,0,0-103.04-152.9h5.619v-6.746Z" transform="translate(118.009 182.838)" fill="none" stroke="#000" stroke-linecap="round" stroke-linejoin="round" stroke-miterlimit="10" stroke-width="2.2"/>
          </g>
          <g id="g6917" transform="translate(60.628 45.089)">
            <path id="path6919" d="M-93.681-15.893a14.9,14.9,0,0,0-7.991-2.309h-5.619v6.745h5.619a8.223,8.223,0,0,1,8.224,8.223h0a8.223,8.223,0,0,1-8.224,8.224h-5.619v6.746h5.619A14.969,14.969,0,0,0-86.7-3.232h0a14.9,14.9,0,0,0-2.877-8.826" transform="translate(107.29 18.201)" fill="none" stroke="#000" stroke-linecap="round" stroke-linejoin="round" stroke-miterlimit="10" stroke-width="2.2"/>
          </g>
          <g id="g6921" transform="translate(30.661 1.268)">
            <path id="path6923" d="M-115.867-62.164l.57-3.4a4.833,4.833,0,0,0-4.766-5.631,4.832,4.832,0,0,0-4.766,5.631l.57,3.4a1.777,1.777,0,0,1-1.753,2.071h-1.147a5.54,5.54,0,0,0-5.54,5.54v5.562h25.273v-5.562a5.54,5.54,0,0,0-5.54-5.54h-1.147a1.777,1.777,0,0,1-1.753-2.071" transform="translate(132.7 71.194)" fill="#ffdd40"/>
          </g>
          <g id="g6925" transform="translate(30.661 1.268)">
            <path id="path6927" d="M-59.423-76.418h1.147a1.777,1.777,0,0,0,1.753-2.071l-.57-3.4a4.835,4.835,0,0,1,3.22-5.378,4.839,4.839,0,0,0-1.546-.253,4.832,4.832,0,0,0-4.766,5.631l.57,3.4a1.777,1.777,0,0,1-1.753,2.071h-1.147a5.54,5.54,0,0,0-5.54,5.54v5.562h3.093v-5.562a5.54,5.54,0,0,1,5.54-5.54" transform="translate(68.056 87.52)" fill="#ffc043"/>
          </g>
          <g id="g6929" transform="translate(30.661 1.268)">
            <path id="path6931" d="M-173.964-145.013v-4.425a5.54,5.54,0,0,0-5.54-5.54h-1.147a1.777,1.777,0,0,1-1.753-2.071l.57-3.4a4.832,4.832,0,0,0-4.766-5.631,4.833,4.833,0,0,0-4.766,5.631l.57,3.4a1.777,1.777,0,0,1-1.753,2.071H-193.7a5.54,5.54,0,0,0-5.54,5.54v4.425" transform="translate(199.237 166.08)" fill="none" stroke="#000" stroke-linecap="round" stroke-linejoin="round" stroke-miterlimit="10" stroke-width="2.2"/>
          </g>
          <g id="g6933" transform="translate(21.861 34.163)">
            <path id="path6935" d="M-295.116-121.645v-3.88a12.845,12.845,0,0,0-4.214-9.513l-4.716-4.279h-25.012l-4.716,4.279a12.845,12.845,0,0,0-4.214,9.513v3.88Z" transform="translate(337.988 139.317)" fill="#b8f0ff"/>
          </g>
          <g id="g6937" transform="translate(21.861 51.835)">
            <path id="path6939" d="M0,0V27.239a6.252,6.252,0,0,0,6.251,6.251h30.37a6.252,6.252,0,0,0,6.251-6.251V0Z" fill="#e9efff"/>
          </g>
          <g id="g6941" transform="translate(21.861 51.834)">
            <path id="path6943" d="M-27.382-187.5v-27.239H-31.36V-187.5a6.252,6.252,0,0,0,6.251,6.251h3.978a6.252,6.252,0,0,1-6.251-6.251" transform="translate(31.36 214.742)" fill="#d3dcfb"/>
          </g>
          <g id="g6945" transform="translate(21.86 34.163)">
            <path id="path6947" d="M-257.113-21.291l-3.409-3.093h-25.012l-4.716,4.279a12.845,12.845,0,0,0-4.214,9.513v3.88h3.978v-3.88a12.845,12.845,0,0,1,4.214-9.513,4.57,4.57,0,0,1,3.071-1.186Z" transform="translate(294.465 24.384)" fill="#8ddcff"/>
          </g>
          <g id="g6949" transform="translate(21.86 34.163)">
            <path id="path6951" d="M-61.472,0l-4.716,4.279A12.845,12.845,0,0,0-70.4,13.792V44.911a6.252,6.252,0,0,0,6.251,6.251h30.37a6.251,6.251,0,0,0,6.251-6.251V13.792a12.846,12.846,0,0,0-3.957-9.273" transform="translate(70.402)" fill="none" stroke="#000" stroke-linecap="round" stroke-linejoin="round" stroke-miterlimit="10" stroke-width="2.2"/>
          </g>
          <g id="g6953" transform="translate(25.818 22.335)">
            <path id="path6955" d="M-240.638-11.642V-3.2a1.691,1.691,0,0,1-1.691,1.691h-31.576A1.691,1.691,0,0,1-275.6-3.2v-8.445a1.691,1.691,0,0,1,1.691-1.691h31.576a1.691,1.691,0,0,1,1.691,1.691" transform="translate(275.597 13.333)" fill="#42c3fc"/>
          </g>
          <g id="g6957" transform="translate(25.818 22.335)">
            <path id="path6959" d="M-27.382-69.773v-8.445a1.691,1.691,0,0,1,1.691-1.691h-3.978a1.691,1.691,0,0,0-1.691,1.691v8.445a1.691,1.691,0,0,0,1.691,1.691h3.978a1.691,1.691,0,0,1-1.691-1.691" transform="translate(31.36 79.909)" fill="#1aa9e8"/>
          </g>
          <g id="g6961" transform="translate(25.818 22.335)">
            <path id="path6963" d="M-65-81.416H-72.75a1.691,1.691,0,0,1-1.691-1.691v-8.445a1.691,1.691,0,0,1,1.691-1.691h31.576a1.691,1.691,0,0,1,1.691,1.691v8.445a1.691,1.691,0,0,1-1.691,1.691H-60.015" transform="translate(74.441 93.244)" fill="none" stroke="#000" stroke-linecap="round" stroke-linejoin="round" stroke-miterlimit="10" stroke-width="2.2"/>
          </g>
          <g id="g6965" transform="translate(21.861 51.835)">
            <path id="path6967" d="M-60.577,0h-8.8" transform="translate(69.377)" fill="none" stroke="#000" stroke-linecap="round" stroke-linejoin="round" stroke-miterlimit="10" stroke-width="2.2"/>
          </g>
          <g id="g6969" transform="translate(35.916 51.835)">
            <path id="path6971" d="M-198.364,0h-28.817" transform="translate(227.181)" fill="none" stroke="#000" stroke-linecap="round" stroke-linejoin="round" stroke-miterlimit="10" stroke-width="2.2"/>
          </g>
          <g id="g6973" transform="translate(60.007 59.726)">
            <path id="path6975" d="M-32.535,0h-4.726" transform="translate(37.261)" fill="none" stroke="#000" stroke-linecap="round" stroke-linejoin="round" stroke-miterlimit="10" stroke-width="2.2"/>
          </g>
          <g id="g6977" transform="translate(60.007 67.572)">
            <path id="path6979" d="M-32.535,0h-4.726" transform="translate(37.261)" fill="none" stroke="#000" stroke-linecap="round" stroke-linejoin="round" stroke-miterlimit="10" stroke-width="2.2"/>
          </g>
          <g id="g6981" transform="translate(60.007 75.418)">
            <path id="path6983" d="M-32.535,0h-4.726" transform="translate(37.261)" fill="none" stroke="#000" stroke-linecap="round" stroke-linejoin="round" stroke-miterlimit="10" stroke-width="2.2"/>
          </g>
          <g id="g6985" transform="translate(32.703 22.335)">
            <path id="path6987" d="M0,0V5.016" fill="none" stroke="#000" stroke-linecap="round" stroke-linejoin="round" stroke-miterlimit="10" stroke-width="2.2"/>
          </g>
          <g id="g6989" transform="translate(39.766 22.335)">
            <path id="path6991" d="M0,0V5.016" fill="none" stroke="#000" stroke-linecap="round" stroke-linejoin="round" stroke-miterlimit="10" stroke-width="2.2"/>
          </g>
          <g id="g6993" transform="translate(46.828 22.335)">
            <path id="path6995" d="M0,0V5.016" fill="none" stroke="#000" stroke-linecap="round" stroke-linejoin="round" stroke-miterlimit="10" stroke-width="2.2"/>
          </g>
          <g id="g6997" transform="translate(53.891 22.335)">
            <path id="path6999" d="M0,0V5.016" fill="none" stroke="#000" stroke-linecap="round" stroke-linejoin="round" stroke-miterlimit="10" stroke-width="2.2"/>
          </g>
          <g id="g7001" transform="translate(33.885 68.245)">
            <path id="path7003" d="M-43.751-21.874A3.178,3.178,0,0,1-46.929-18.7a3.178,3.178,0,0,1-3.178-3.178,3.178,3.178,0,0,1,3.178-3.178,3.178,3.178,0,0,1,3.178,3.178" transform="translate(50.107 25.052)" fill="#d3dcfb"/>
          </g>
          <g id="g7005" transform="translate(33.885 68.245)">
            <path id="path7007" d="M-43.751-21.874A3.178,3.178,0,0,1-46.929-18.7a3.178,3.178,0,0,1-3.178-3.178,3.178,3.178,0,0,1,3.178-3.178A3.178,3.178,0,0,1-43.751-21.874Z" transform="translate(50.107 25.052)" fill="none" stroke="#000" stroke-linecap="round" stroke-linejoin="round" stroke-miterlimit="10" stroke-width="2.2"/>
          </g>
          <g id="g7009" transform="translate(44.593 58.079)">
            <path id="path7011" d="M-53.926-26.962a3.917,3.917,0,0,1-3.917,3.917,3.917,3.917,0,0,1-3.917-3.917,3.917,3.917,0,0,1,3.917-3.917,3.917,3.917,0,0,1,3.917,3.917" transform="translate(61.76 30.879)" fill="#d3dcfb"/>
          </g>
          <g id="g7013" transform="translate(44.593 58.079)">
            <path id="path7015" d="M-53.926-26.962a3.917,3.917,0,0,1-3.917,3.917,3.917,3.917,0,0,1-3.917-3.917,3.917,3.917,0,0,1,3.917-3.917A3.917,3.917,0,0,1-53.926-26.962Z" transform="translate(61.76 30.879)" fill="none" stroke="#000" stroke-linecap="round" stroke-linejoin="round" stroke-miterlimit="10" stroke-width="2.2"/>
          </g>
        </g>
      </g>
    </g>
  </g>
</svg>
