<svg xmlns="http://www.w3.org/2000/svg" width="171" height="103.711" viewBox="0 0 171 103.711">
  <g id="Grupo_1064887" data-name="Grupo 1064887" transform="translate(-199 -19108.465)">
    <rect id="Rectángulo_373693" data-name="Rectángulo 373693" width="171" height="86" rx="10" transform="translate(199 19126.176)" fill="#ffebc5"/>
    <g id="Layer_20" transform="translate(234.622 19108.465)">
      <g id="Grupo_1065019" data-name="Grupo 1065019" transform="translate(10.378 0)">
        <g id="Grupo_1064890" data-name="Grupo 1064890" transform="translate(10.365 33.941)">
          <g id="Grupo_1064889" data-name="Grupo 1064889">
            <path id="Trazado_799044" data-name="Trazado 799044" d="M54.576,111.846v-3.688a12.2,12.2,0,0,1-6.346-9.871,5,5,0,0,1-4.323-1.346,35.814,35.814,0,0,1-3.725,10.968,1.6,1.6,0,0,0,.456,2.073c1.723,1.245,5.631,3.384,12.93,4.262a3.376,3.376,0,0,0,1.008-2.4Z" transform="translate(-39.981 -96.941)" fill="#754e34"/>
          </g>
        </g>
        <g id="Grupo_1064892" data-name="Grupo 1064892" transform="translate(9.491 33.253)">
          <g id="Grupo_1064891" data-name="Grupo 1064891">
            <path id="Trazado_799045" data-name="Trazado 799045" d="M51.67,113.808a.9.9,0,0,1-.11-.007c-7.365-.929-11.342-3.148-13.056-4.388a2.483,2.483,0,0,1-.711-3.2A35.139,35.139,0,0,0,41.39,95.7.875.875,0,1,1,43.113,96a36.11,36.11,0,0,1-3.786,11.048.73.73,0,0,0,.2.943c1.579,1.142,5.271,3.189,12.249,4.069a.875.875,0,0,1-.108,1.744Z" transform="translate(-37.485 -94.974)"/>
          </g>
        </g>
        <g id="Grupo_1064894" data-name="Grupo 1064894" transform="translate(42.873 25.204)">
          <g id="Grupo_1064893" data-name="Grupo 1064893">
            <path id="Trazado_799046" data-name="Trazado 799046" d="M133.641,71.985a5.073,5.073,0,0,0-.78.062v9.206c0,.274-.013.545-.031.815a5.074,5.074,0,1,0,.811-10.083Z" transform="translate(-132.83 -71.985)" fill="#f9d0b4"/>
          </g>
        </g>
        <g id="Grupo_1064896" data-name="Grupo 1064896" transform="translate(18.584 20.952)">
          <g id="Grupo_1064895" data-name="Grupo 1064895">
            <path id="Trazado_799047" data-name="Trazado 799047" d="M85.578,76.525a2.1,2.1,0,0,1,2.1-2.1h.05c.031-.352.05-.707.05-1.066V63.537a.954.954,0,0,0-.748-.926,10.077,10.077,0,0,1-4.437-2.554.807.807,0,0,0-1.159.065c-1.852,2.162-8.419,8.72-17.977,6v7.242a12.148,12.148,0,0,0,22.123,6.946Z" transform="translate(-63.455 -59.843)" fill="#f9d0b4"/>
          </g>
        </g>
        <g id="Grupo_1064898" data-name="Grupo 1064898" transform="translate(12.726 26.164)">
          <g id="Grupo_1064897" data-name="Grupo 1064897">
            <path id="Trazado_799048" data-name="Trazado 799048" d="M52.583,75.794a19.768,19.768,0,0,1-2.572-.934,1.547,1.547,0,0,0-1.682.289,5.061,5.061,0,0,0,4.284,8.7c-.018-.27-.031-.541-.031-.815V75.794Z" transform="translate(-46.725 -74.729)" fill="#f9d0b4"/>
          </g>
        </g>
        <g id="Grupo_1064901" data-name="Grupo 1064901" transform="translate(14.207 7.186)">
          <g id="Grupo_1064900" data-name="Grupo 1064900">
            <g id="Grupo_1064899" data-name="Grupo 1064899">
              <path id="Trazado_799049" data-name="Trazado 799049" d="M51.079,39.923a1.547,1.547,0,0,1,1.682-.289,19.82,19.82,0,0,0,2.572.934c9.557,2.723,16.125-3.836,17.977-6a.807.807,0,0,1,1.159-.065A10.073,10.073,0,0,0,78.9,37.06a.954.954,0,0,1,.748.926V38.6a5.055,5.055,0,0,1,4.376,1.431V37.061a16.536,16.536,0,0,0-33.072,0v2.988C51,40.008,51.036,39.963,51.079,39.923Z" transform="translate(-50.956 -20.525)" fill="#754e34"/>
            </g>
          </g>
        </g>
        <g id="Grupo_1064903" data-name="Grupo 1064903" transform="translate(4.545 45.159)">
          <g id="Grupo_1064902" data-name="Grupo 1064902">
            <path id="Trazado_799050" data-name="Trazado 799050" d="M59.52,170.48V136.83L57.227,135.7a3.381,3.381,0,0,1-1.886-3.032V128.98a12.09,12.09,0,0,1-11.568,0v3.688a3.38,3.38,0,0,1-1.886,3.032l-3.007,1.482a10.609,10.609,0,0,1-2.1.773l-8.695,2.195a4.986,4.986,0,0,0-3.761,4.558l-.961,26.406a1.386,1.386,0,0,0,1.384,1.463h7.7a.937.937,0,0,0,.937-.937V155.135l1.36,4.355a29.519,29.519,0,0,1,1.341,8.8v3.354a.937.937,0,0,0,.937.937h24.6A2.1,2.1,0,0,1,59.52,170.48Z" transform="translate(-23.358 -128.98)" fill="#f9d0b4"/>
          </g>
        </g>
        <g id="Grupo_1064906" data-name="Grupo 1064906" transform="translate(36.528 41.41)">
          <g id="Grupo_1064905" data-name="Grupo 1064905">
            <g id="Grupo_1064904" data-name="Grupo 1064904">
              <path id="Trazado_799051" data-name="Trazado 799051" d="M118.886,118.273a12.287,12.287,0,0,1-4.179,3.748v3.688a3.376,3.376,0,0,0,1.008,2.4c1.141-.137,2.19-.308,3.17-.5Z" transform="translate(-114.707 -118.273)" fill="#754e34"/>
            </g>
          </g>
        </g>
        <g id="Grupo_1064908" data-name="Grupo 1064908" transform="translate(40.707 35.538)">
          <g id="Grupo_1064907" data-name="Grupo 1064907">
            <path id="Trazado_799052" data-name="Trazado 799052" d="M161.658,101.5H128.739a2.1,2.1,0,0,0-2.1,2.1v49.024a2.1,2.1,0,0,0,2.1,2.1h32.919a2.1,2.1,0,0,0,2.1-2.1V103.6A2.1,2.1,0,0,0,161.658,101.5Z" transform="translate(-126.642 -101.5)" fill="#edf4fc"/>
          </g>
        </g>
        <g id="Grupo_1064910" data-name="Grupo 1064910" transform="translate(44.208 39.039)">
          <g id="Grupo_1064909" data-name="Grupo 1064909">
            <path id="Trazado_799053" data-name="Trazado 799053" d="M136.642,111.5h30.111v40.614H136.642Z" transform="translate(-136.642 -111.5)" fill="#c7d7e5"/>
          </g>
        </g>
        <g id="Grupo_1064912" data-name="Grupo 1064912" transform="translate(44.208 79.653)">
          <g id="Grupo_1064911" data-name="Grupo 1064911">
            <path id="Trazado_799054" data-name="Trazado 799054" d="M136.642,227.5h30.111v5.6H136.642Z" transform="translate(-136.642 -227.5)" fill="#f98fa6"/>
          </g>
        </g>
        <g id="Grupo_1064914" data-name="Grupo 1064914" transform="translate(30.744 51.719)">
          <g id="Grupo_1064913" data-name="Grupo 1064913">
            <path id="Trazado_799055" data-name="Trazado 799055" d="M108.15,182.656v-33.65l-2.293-1.131c-.1-.047-.184-.1-.274-.16l-7.159,27.917a7.644,7.644,0,0,0-.237,1.9v7.225h12.06a2.1,2.1,0,0,1-2.1-2.1Z" transform="translate(-98.188 -147.716)" fill="#dae6f1"/>
          </g>
        </g>
        <g id="Grupo_1064916" data-name="Grupo 1064916" transform="translate(4.545 51.719)">
          <g id="Grupo_1064915" data-name="Grupo 1064915">
            <path id="Trazado_799056" data-name="Trazado 799056" d="M42.162,147.715c-.09.055-.178.113-.274.16l-3.007,1.482a10.61,10.61,0,0,1-2.1.773l-8.695,2.195a4.986,4.986,0,0,0-3.761,4.558l-.961,26.406a1.386,1.386,0,0,0,1.384,1.463h7.7a.937.937,0,0,0,.937-.937V167.31l1.36,4.355a29.519,29.519,0,0,1,1.341,8.8v3.354a.937.937,0,0,0,.937.937H49.558v-7.225a7.663,7.663,0,0,0-.237-1.9Z" transform="translate(-23.359 -147.715)" fill="#dae6f1"/>
          </g>
        </g>
        <g id="Grupo_1064918" data-name="Grupo 1064918" transform="translate(30.764 51.719)">
          <g id="Grupo_1064917" data-name="Grupo 1064917">
            <path id="Trazado_799057" data-name="Trazado 799057" d="M108.187,149.006l-2.293-1.131c-.1-.047-.184-.1-.274-.16l-7.159,27.916A7.56,7.56,0,0,0,98.244,177l9.943-12.386v-15.6Z" transform="translate(-98.244 -147.715)" fill="#edf4fc"/>
          </g>
        </g>
        <g id="Grupo_1064920" data-name="Grupo 1064920" transform="translate(17.795 51.719)">
          <g id="Grupo_1064919" data-name="Grupo 1064919">
            <path id="Trazado_799058" data-name="Trazado 799058" d="M73.915,175.632l-7.159-27.916c-.09.055-.178.113-.274.16l-3.007,1.482a10.636,10.636,0,0,1-1.522.608l-.74,5.072a.853.853,0,0,0,.395.89l2.559,1.276a.891.891,0,0,1,.327,1.131l-1.655,3.78a.956.956,0,0,0,.11.953L74.133,177A7.557,7.557,0,0,0,73.915,175.632Z" transform="translate(-61.204 -147.716)" fill="#edf4fc"/>
          </g>
        </g>
        <g id="Grupo_1064922" data-name="Grupo 1064922" transform="translate(25.249 59.128)">
          <g id="Grupo_1064921" data-name="Grupo 1064921">
            <path id="Trazado_799059" data-name="Trazado 799059" d="M87.749,189.384c.052.2.092.407.127.614.007.043.014.087.021.131.031.205.056.412.07.62.012.176.02.354.02.531,0-.178.007-.355.02-.531.014-.208.039-.415.07-.62.007-.044.013-.087.021-.131.035-.207.075-.412.127-.614l5.259-20.507a10.14,10.14,0,0,1-10.992,0Z" transform="translate(-82.491 -168.877)" fill="#fc657e"/>
          </g>
        </g>
        <g id="Grupo_1064924" data-name="Grupo 1064924" transform="translate(42.32 24.329)">
          <g id="Grupo_1064923" data-name="Grupo 1064923">
            <path id="Trazado_799060" data-name="Trazado 799060" d="M132.613,81.392c-.165,0-.331-.008-.506-.025a.875.875,0,1,1,.164-1.743c.113.01.227.017.342.017a4.2,4.2,0,0,0,0-8.4c-.131,0-.267.007-.4.021a.875.875,0,0,1-.174-1.742c.194-.019.388-.029.577-.029a5.952,5.952,0,1,1,0,11.9Z" transform="translate(-131.248 -69.488)"/>
          </g>
        </g>
        <g id="Grupo_1064926" data-name="Grupo 1064926" transform="translate(17.709 20.077)">
          <g id="Grupo_1064925" data-name="Grupo 1064925">
            <path id="Trazado_799061" data-name="Trazado 799061" d="M73.991,84.773A13.05,13.05,0,0,1,60.956,71.737V64.5a.875.875,0,0,1,1.115-.842c9.075,2.586,15.362-3.728,17.072-5.725a1.662,1.662,0,0,1,1.167-.582,1.7,1.7,0,0,1,1.245.439A9.368,9.368,0,0,0,85.6,60.134a1.824,1.824,0,0,1,1.425,1.779v9.824c0,.285-.011.583-.033.885a.875.875,0,1,1-1.746-.125c.019-.265.028-.514.028-.76V61.913a.082.082,0,0,0-.07-.074,11.014,11.014,0,0,1-4.782-2.717c-1.875,2.17-8.328,8.555-17.718,6.5v6.119a11.273,11.273,0,0,0,20.482,6.514.875.875,0,0,1,1.426,1.015,13.079,13.079,0,0,1-10.623,5.507Z" transform="translate(-60.956 -57.343)"/>
          </g>
        </g>
        <g id="Grupo_1064928" data-name="Grupo 1064928" transform="translate(11.851 25.289)">
          <g id="Grupo_1064927" data-name="Grupo 1064927">
            <path id="Trazado_799062" data-name="Trazado 799062" d="M50.178,83.172a5.948,5.948,0,0,1-4.072-10.287,2.417,2.417,0,0,1,2.634-.451,18.972,18.972,0,0,0,2.458.893.875.875,0,0,1-.479,1.684,20.787,20.787,0,0,1-2.686-.975.67.67,0,0,0-.729.126,4.153,4.153,0,0,0-1.327,3.058,4.207,4.207,0,0,0,4.2,4.2,3.654,3.654,0,0,0,.384-.021.875.875,0,0,1,.181,1.742A5.491,5.491,0,0,1,50.178,83.172Z" transform="translate(-44.226 -72.228)"/>
          </g>
        </g>
        <g id="Grupo_1064931" data-name="Grupo 1064931" transform="translate(13.333 6.311)">
          <g id="Grupo_1064930" data-name="Grupo 1064930">
            <g id="Grupo_1064929" data-name="Grupo 1064929">
              <path id="Trazado_799063" data-name="Trazado 799063" d="M49.333,39.21a.875.875,0,0,1-.875-.875v-2.9a17.411,17.411,0,1,1,34.823,0v2.668a.875.875,0,0,1-1.751,0V35.437a15.661,15.661,0,1,0-31.321,0v2.9A.875.875,0,0,1,49.333,39.21Z" transform="translate(-48.458 -18.026)"/>
            </g>
          </g>
        </g>
        <g id="Grupo_1064933" data-name="Grupo 1064933" transform="translate(35.653 44.568)">
          <g id="Grupo_1064932" data-name="Grupo 1064932">
            <path id="Trazado_799064" data-name="Trazado 799064" d="M117.057,136.509a.874.874,0,0,1-.387-.09l-2.09-1.03a4.229,4.229,0,0,1-2.374-3.817v-3.4a.875.875,0,0,1,1.751,0v3.4a2.49,2.49,0,0,0,1.4,2.247l2.09,1.03a.875.875,0,0,1-.388,1.66Z" transform="translate(-112.207 -127.293)"/>
          </g>
        </g>
        <g id="Grupo_1064935" data-name="Grupo 1064935" transform="translate(3.669 44.553)">
          <g id="Grupo_1064934" data-name="Grupo 1064934">
            <path id="Trazado_799065" data-name="Trazado 799065" d="M59.993,172.329h-24.6a1.815,1.815,0,0,1-1.813-1.813v-3.354a28.6,28.6,0,0,0-.95-7.316v10.67a1.815,1.815,0,0,1-1.813,1.813h-7.7a2.261,2.261,0,0,1-2.258-2.387l.96-26.389a5.84,5.84,0,0,1,4.422-5.375l8.694-2.195a9.789,9.789,0,0,0,1.931-.71l3.007-1.482a2.49,2.49,0,0,0,1.4-2.247v-3.418a.875.875,0,0,1,1.751,0v3.418a4.23,4.23,0,0,1-2.374,3.817l-3.007,1.482a11.52,11.52,0,0,1-2.277.837l-8.694,2.195a4.093,4.093,0,0,0-3.1,3.758l-.96,26.389a.52.52,0,0,0,.139.4.506.506,0,0,0,.37.16h7.7a.062.062,0,0,0,.062-.062V154.01a.875.875,0,0,1,1.711-.261l1.36,4.355a30.371,30.371,0,0,1,1.381,9.058v3.354a.062.062,0,0,0,.062.062h24.6a.875.875,0,1,1,0,1.751Z" transform="translate(-20.858 -127.25)"/>
          </g>
        </g>
        <g id="Grupo_1064937" data-name="Grupo 1064937" transform="translate(26.338 37.966)">
          <g id="Grupo_1064936" data-name="Grupo 1064936">
            <path id="Trazado_799066" data-name="Trazado 799066" d="M90.01,111.7a5.491,5.491,0,0,1-4.2-1.826.875.875,0,1,1,1.342-1.125,4.007,4.007,0,0,0,5.719,0,.875.875,0,0,1,1.342,1.125A5.49,5.49,0,0,1,90.01,111.7Z" transform="translate(-85.604 -108.436)"/>
          </g>
        </g>
        <g id="Grupo_1064939" data-name="Grupo 1064939" transform="translate(34.459 30.111)">
          <g id="Grupo_1064938" data-name="Grupo 1064938">
            <circle id="Elipse_8338" data-name="Elipse 8338" cx="1.576" cy="1.576" r="1.576"/>
          </g>
        </g>
        <g id="Grupo_1064941" data-name="Grupo 1064941" transform="translate(23.878 30.111)">
          <g id="Grupo_1064940" data-name="Grupo 1064940">
            <circle id="Elipse_8339" data-name="Elipse 8339" cx="1.576" cy="1.576" r="1.576"/>
          </g>
        </g>
        <g id="Grupo_1064944" data-name="Grupo 1064944" transform="translate(36.928 49.911)">
          <g id="Grupo_1064943" data-name="Grupo 1064943">
            <g id="Grupo_1064942" data-name="Grupo 1064942">
              <path id="Trazado_799067" data-name="Trazado 799067" d="M116.725,144.729a.875.875,0,0,1-.109-1.744c.893-.113,1.758-.25,2.647-.418a.875.875,0,1,1,.327,1.72c-.924.175-1.824.318-2.754.436A.919.919,0,0,1,116.725,144.729Z" transform="translate(-115.85 -142.551)"/>
            </g>
          </g>
        </g>
        <g id="Grupo_1064946" data-name="Grupo 1064946" transform="translate(39.831 34.662)">
          <g id="Grupo_1064945" data-name="Grupo 1064945">
            <path id="Trazado_799068" data-name="Trazado 799068" d="M160.032,153.97H127.114A2.976,2.976,0,0,1,124.141,151V101.973A2.976,2.976,0,0,1,127.114,99h32.919A2.976,2.976,0,0,1,163,101.973V151A2.976,2.976,0,0,1,160.032,153.97Zm-32.918-53.219a1.223,1.223,0,0,0-1.222,1.222V151a1.223,1.223,0,0,0,1.222,1.222h32.919A1.223,1.223,0,0,0,161.255,151V101.973a1.223,1.223,0,0,0-1.222-1.222Z" transform="translate(-124.141 -99)"/>
          </g>
        </g>
        <g id="Grupo_1064948" data-name="Grupo 1064948" transform="translate(55.237 38.776)">
          <g id="Grupo_1064947" data-name="Grupo 1064947">
            <path id="Trazado_799069" data-name="Trazado 799069" d="M175.32,122.3h-6.3a.875.875,0,0,1-.875-.875v-9.8a.875.875,0,0,1,.875-.875h6.3a.875.875,0,0,1,0,1.751h-5.427v8.053h5.427a.875.875,0,0,1,0,1.751Z" transform="translate(-168.142 -110.75)"/>
          </g>
        </g>
        <g id="Grupo_1064950" data-name="Grupo 1064950" transform="translate(55.762 43.678)">
          <g id="Grupo_1064949" data-name="Grupo 1064949">
            <path id="Trazado_799070" data-name="Trazado 799070" d="M176.119,126.5h-5.6a.875.875,0,0,1,0-1.751h5.6a.875.875,0,0,1,0,1.751Z" transform="translate(-169.642 -124.75)"/>
          </g>
        </g>
        <g id="Grupo_1064952" data-name="Grupo 1064952" transform="translate(51.554 52.114)">
          <g id="Grupo_1064951" data-name="Grupo 1064951">
            <path id="Trazado_799071" data-name="Trazado 799071" d="M158.5,156.6a.875.875,0,0,1-.875-.875v-6.01a.875.875,0,0,1,.875-.875h3.864a.875.875,0,1,1,0,1.751h-2.988v5.135A.875.875,0,0,1,158.5,156.6Z" transform="translate(-157.624 -148.844)"/>
          </g>
        </g>
        <g id="Grupo_1064954" data-name="Grupo 1064954" transform="translate(51.877 55.119)">
          <g id="Grupo_1064953" data-name="Grupo 1064953">
            <path id="Trazado_799072" data-name="Trazado 799072" d="M162.854,159.178h-3.434a.875.875,0,0,1,0-1.751h3.434a.875.875,0,0,1,0,1.751Z" transform="translate(-158.544 -157.427)"/>
          </g>
        </g>
        <g id="Grupo_1064957" data-name="Grupo 1064957" transform="translate(61.358 52.114)">
          <g id="Grupo_1064956" data-name="Grupo 1064956">
            <g id="Grupo_1064955" data-name="Grupo 1064955">
              <path id="Trazado_799073" data-name="Trazado 799073" d="M186.5,156.6a.875.875,0,0,1-.875-.875v-6.01a.875.875,0,0,1,.875-.875h2.361a2.378,2.378,0,0,1,0,4.756h-1.486v2.13a.875.875,0,0,1-.875.875Zm.875-4.756h1.486a.627.627,0,0,0,0-1.255h-1.486Z" transform="translate(-185.624 -148.844)"/>
            </g>
          </g>
        </g>
        <g id="Grupo_1064959" data-name="Grupo 1064959" transform="translate(64.559 61.271)">
          <g id="Grupo_1064958" data-name="Grupo 1064958">
            <path id="Trazado_799074" data-name="Trazado 799074" d="M199.143,181.3h-3.5a.875.875,0,0,1-.694-1.409l2.417-3.143h-1.724a.875.875,0,0,1,0-1.751h3.5a.875.875,0,0,1,.694,1.409l-2.417,3.143h1.724a.875.875,0,0,1,0,1.751Z" transform="translate(-194.767 -174.999)"/>
          </g>
        </g>
        <g id="Grupo_1064961" data-name="Grupo 1064961" transform="translate(48.716 61.097)">
          <g id="Grupo_1064960" data-name="Grupo 1064960">
            <path id="Trazado_799075" data-name="Trazado 799075" d="M153.894,176.251h-3.5a.875.875,0,1,1,0-1.751h3.5a.875.875,0,1,1,0,1.751Z" transform="translate(-149.517 -174.5)"/>
          </g>
        </g>
        <g id="Grupo_1064963" data-name="Grupo 1064963" transform="translate(50.467 61.622)">
          <g id="Grupo_1064962" data-name="Grupo 1064962">
            <path id="Trazado_799076" data-name="Trazado 799076" d="M155.392,181.952a.875.875,0,0,1-.875-.875v-4.2a.875.875,0,0,1,1.751,0v4.2A.875.875,0,0,1,155.392,181.952Z" transform="translate(-154.517 -176)"/>
          </g>
        </g>
        <g id="Grupo_1064965" data-name="Grupo 1064965" transform="translate(56.287 60.922)">
          <g id="Grupo_1064964" data-name="Grupo 1064964">
            <path id="Trazado_799077" data-name="Trazado 799077" d="M174.118,180.652a3.347,3.347,0,1,1,2.976-3.326A3.169,3.169,0,0,1,174.118,180.652Zm0-4.9a1.626,1.626,0,1,0,1.225,1.576A1.454,1.454,0,0,0,174.118,175.751Z" transform="translate(-171.142 -174)"/>
          </g>
        </g>
        <g id="Grupo_1064974" data-name="Grupo 1064974" transform="translate(48.497 69.281)">
          <g id="Grupo_1064967" data-name="Grupo 1064967">
            <g id="Grupo_1064966" data-name="Grupo 1064966">
              <path id="Trazado_799078" data-name="Trazado 799078" d="M149.767,201.376a.875.875,0,0,1-.875-.875V198.75a.875.875,0,0,1,1.751,0V200.5A.875.875,0,0,1,149.767,201.376Z" transform="translate(-148.892 -197.875)"/>
            </g>
          </g>
          <g id="Grupo_1064969" data-name="Grupo 1064969" transform="translate(6.594)">
            <g id="Grupo_1064968" data-name="Grupo 1064968">
              <path id="Trazado_799079" data-name="Trazado 799079" d="M168.6,201.376a.875.875,0,0,1-.875-.875V198.75a.875.875,0,0,1,1.751,0V200.5A.875.875,0,0,1,168.6,201.376Z" transform="translate(-167.726 -197.875)"/>
            </g>
          </g>
          <g id="Grupo_1064971" data-name="Grupo 1064971" transform="translate(13.188)">
            <g id="Grupo_1064970" data-name="Grupo 1064970">
              <path id="Trazado_799080" data-name="Trazado 799080" d="M187.434,201.376a.875.875,0,0,1-.875-.875V198.75a.875.875,0,0,1,1.751,0V200.5A.875.875,0,0,1,187.434,201.376Z" transform="translate(-186.559 -197.875)"/>
            </g>
          </g>
          <g id="Grupo_1064973" data-name="Grupo 1064973" transform="translate(19.782)">
            <g id="Grupo_1064972" data-name="Grupo 1064972">
              <path id="Trazado_799081" data-name="Trazado 799081" d="M206.267,201.376a.875.875,0,0,1-.875-.875V198.75a.875.875,0,0,1,1.751,0V200.5A.875.875,0,0,1,206.267,201.376Z" transform="translate(-205.392 -197.875)"/>
            </g>
          </g>
        </g>
        <g id="Grupo_1064985" data-name="Grupo 1064985" transform="translate(48.051 74.453)">
          <g id="Grupo_1064976" data-name="Grupo 1064976">
            <g id="Grupo_1064975" data-name="Grupo 1064975">
              <path id="Trazado_799082" data-name="Trazado 799082" d="M148.494,215.608a.875.875,0,0,1-.875-.875v-1.21a.875.875,0,1,1,1.751,0v1.21A.875.875,0,0,1,148.494,215.608Z" transform="translate(-147.619 -212.648)"/>
            </g>
          </g>
          <g id="Grupo_1064978" data-name="Grupo 1064978" transform="translate(5.169)">
            <g id="Grupo_1064977" data-name="Grupo 1064977">
              <path id="Trazado_799083" data-name="Trazado 799083" d="M163.256,215.608a.875.875,0,0,1-.875-.875v-1.21a.875.875,0,1,1,1.751,0v1.21A.875.875,0,0,1,163.256,215.608Z" transform="translate(-162.381 -212.648)"/>
            </g>
          </g>
          <g id="Grupo_1064980" data-name="Grupo 1064980" transform="translate(10.337)">
            <g id="Grupo_1064979" data-name="Grupo 1064979">
              <path id="Trazado_799084" data-name="Trazado 799084" d="M178.017,215.608a.875.875,0,0,1-.875-.875v-1.21a.875.875,0,1,1,1.751,0v1.21A.876.876,0,0,1,178.017,215.608Z" transform="translate(-177.142 -212.648)"/>
            </g>
          </g>
          <g id="Grupo_1064982" data-name="Grupo 1064982" transform="translate(15.505)">
            <g id="Grupo_1064981" data-name="Grupo 1064981">
              <path id="Trazado_799085" data-name="Trazado 799085" d="M192.778,215.608a.875.875,0,0,1-.875-.875v-1.21a.875.875,0,1,1,1.751,0v1.21A.875.875,0,0,1,192.778,215.608Z" transform="translate(-191.903 -212.648)"/>
            </g>
          </g>
          <g id="Grupo_1064984" data-name="Grupo 1064984" transform="translate(20.673)">
            <g id="Grupo_1064983" data-name="Grupo 1064983">
              <path id="Trazado_799086" data-name="Trazado 799086" d="M207.539,215.608a.875.875,0,0,1-.875-.875v-1.21a.875.875,0,1,1,1.751,0v1.21A.875.875,0,0,1,207.539,215.608Z" transform="translate(-206.664 -212.648)"/>
            </g>
          </g>
        </g>
        <g id="Grupo_1064998" data-name="Grupo 1064998" transform="translate(48.051 82.156)">
          <g id="Grupo_1064987" data-name="Grupo 1064987">
            <g id="Grupo_1064986" data-name="Grupo 1064986">
              <path id="Trazado_799087" data-name="Trazado 799087" d="M148.494,237.608a.875.875,0,0,1-.875-.875v-1.21a.875.875,0,1,1,1.751,0v1.21A.875.875,0,0,1,148.494,237.608Z" transform="translate(-147.619 -234.648)"/>
            </g>
          </g>
          <g id="Grupo_1064989" data-name="Grupo 1064989" transform="translate(4.135)">
            <g id="Grupo_1064988" data-name="Grupo 1064988">
              <path id="Trazado_799088" data-name="Trazado 799088" d="M160.3,237.608a.875.875,0,0,1-.875-.875v-1.21a.875.875,0,1,1,1.751,0v1.21A.875.875,0,0,1,160.3,237.608Z" transform="translate(-159.429 -234.648)"/>
            </g>
          </g>
          <g id="Grupo_1064991" data-name="Grupo 1064991" transform="translate(8.269)">
            <g id="Grupo_1064990" data-name="Grupo 1064990">
              <path id="Trazado_799089" data-name="Trazado 799089" d="M172.112,237.608a.875.875,0,0,1-.875-.875v-1.21a.875.875,0,1,1,1.751,0v1.21A.875.875,0,0,1,172.112,237.608Z" transform="translate(-171.237 -234.648)"/>
            </g>
          </g>
          <g id="Grupo_1064993" data-name="Grupo 1064993" transform="translate(12.404)">
            <g id="Grupo_1064992" data-name="Grupo 1064992">
              <path id="Trazado_799090" data-name="Trazado 799090" d="M183.921,237.608a.875.875,0,0,1-.875-.875v-1.21a.875.875,0,1,1,1.751,0v1.21A.875.875,0,0,1,183.921,237.608Z" transform="translate(-183.046 -234.648)"/>
            </g>
          </g>
          <g id="Grupo_1064995" data-name="Grupo 1064995" transform="translate(16.538)">
            <g id="Grupo_1064994" data-name="Grupo 1064994">
              <path id="Trazado_799091" data-name="Trazado 799091" d="M195.73,237.608a.875.875,0,0,1-.875-.875v-1.21a.875.875,0,1,1,1.751,0v1.21A.875.875,0,0,1,195.73,237.608Z" transform="translate(-194.855 -234.648)"/>
            </g>
          </g>
          <g id="Grupo_1064997" data-name="Grupo 1064997" transform="translate(20.673)">
            <g id="Grupo_1064996" data-name="Grupo 1064996">
              <path id="Trazado_799092" data-name="Trazado 799092" d="M207.539,237.608a.875.875,0,0,1-.875-.875v-1.21a.875.875,0,1,1,1.751,0v1.21A.875.875,0,0,1,207.539,237.608Z" transform="translate(-206.664 -234.648)"/>
            </g>
          </g>
        </g>
        <g id="Grupo_1065000" data-name="Grupo 1065000" transform="translate(47.184 78.778)">
          <g id="Grupo_1064999" data-name="Grupo 1064999">
            <path id="Trazado_799093" data-name="Trazado 799093" d="M168.425,226.751H146.017a.875.875,0,0,1,0-1.751h22.408a.875.875,0,1,1,0,1.751Z" transform="translate(-145.142 -225)"/>
          </g>
        </g>
        <g id="Grupo_1065002" data-name="Grupo 1065002" transform="translate(2.13 37.97)">
          <g id="Grupo_1065001" data-name="Grupo 1065001">
            <path id="Trazado_799094" data-name="Trazado 799094" d="M22.89,111.558a3.886,3.886,0,0,1-3.115-3.052.07.07,0,0,0-.138,0,3.886,3.886,0,0,1-3.115,3.052.068.068,0,0,0,0,.135,3.886,3.886,0,0,1,3.115,3.052.07.07,0,0,0,.138,0,3.887,3.887,0,0,1,3.115-3.052A.068.068,0,0,0,22.89,111.558Z" transform="translate(-16.462 -108.448)" fill="#f5c84c"/>
          </g>
        </g>
        <g id="Grupo_1065004" data-name="Grupo 1065004" transform="translate(53.377 25.716)">
          <g id="Grupo_1065003" data-name="Grupo 1065003">
            <path id="Trazado_799095" data-name="Trazado 799095" d="M166.921,75.427a2.474,2.474,0,0,1-1.983-1.942.045.045,0,0,0-.088,0,2.473,2.473,0,0,1-1.983,1.942.043.043,0,0,0,0,.086,2.474,2.474,0,0,1,1.983,1.942.045.045,0,0,0,.088,0,2.473,2.473,0,0,1,1.983-1.942A.043.043,0,0,0,166.921,75.427Z" transform="translate(-162.83 -73.448)" fill="#f5c84c"/>
          </g>
        </g>
        <g id="Grupo_1065006" data-name="Grupo 1065006" transform="translate(48.216 7.095)">
          <g id="Grupo_1065005" data-name="Grupo 1065005">
            <path id="Trazado_799096" data-name="Trazado 799096" d="M149.194,22.184h.816v-.816a1.105,1.105,0,0,1,2.211,0v.816h.815a1.105,1.105,0,1,1,0,2.211h-.815v.816a1.105,1.105,0,0,1-2.211,0v-.816h-.816a1.105,1.105,0,0,1,0-2.211Z" transform="translate(-148.089 -20.263)" fill="#70d6f9"/>
          </g>
        </g>
        <g id="Grupo_1065008" data-name="Grupo 1065008" transform="translate(0 50.225)">
          <g id="Grupo_1065007" data-name="Grupo 1065007">
            <circle id="Elipse_8340" data-name="Elipse 8340" cx="1.182" cy="1.182" r="1.182" fill="#fc657e"/>
          </g>
        </g>
        <g id="Grupo_1065010" data-name="Grupo 1065010" transform="translate(45.516)">
          <g id="Grupo_1065009" data-name="Grupo 1065009">
            <circle id="Elipse_8341" data-name="Elipse 8341" cx="1.182" cy="1.182" r="1.182" fill="#87d147"/>
          </g>
        </g>
        <g id="Grupo_1065012" data-name="Grupo 1065012" transform="translate(29.869 51.035)">
          <g id="Grupo_1065011" data-name="Grupo 1065011">
            <path id="Trazado_799097" data-name="Trazado 799097" d="M108.622,184.358H96.562a.875.875,0,0,1-.875-.875v-7.226a8.519,8.519,0,0,1,.265-2.113l7.11-27.725a.875.875,0,1,1,1.7.435l-7.11,27.726a6.752,6.752,0,0,0-.21,1.678v6.35h11.185a.875.875,0,1,1,0,1.751Z" transform="translate(-95.687 -145.761)"/>
          </g>
        </g>
        <g id="Grupo_1065014" data-name="Grupo 1065014" transform="translate(30.036 67.95)">
          <g id="Grupo_1065013" data-name="Grupo 1065013">
            <path id="Trazado_799098" data-name="Trazado 799098" d="M97.04,207.815a.875.875,0,0,1-.682-1.423l9.625-11.99a.875.875,0,1,1,1.365,1.1l-9.625,11.99A.874.874,0,0,1,97.04,207.815Z" transform="translate(-96.166 -194.074)"/>
          </g>
        </g>
        <g id="Grupo_1065016" data-name="Grupo 1065016" transform="translate(16.921 51.204)">
          <g id="Grupo_1065015" data-name="Grupo 1065015">
            <path id="Trazado_799099" data-name="Trazado 799099" d="M72.51,176.915a.874.874,0,0,1-.683-.327l-11.182-13.93a1.819,1.819,0,0,1-.229-1.852l1.655-3.78a.09.09,0,0,0,.006-.036l-2.48-1.236a1.726,1.726,0,0,1-.87-1.8l.687-4.708a.875.875,0,1,1,1.732.252l-.687,4.709a.135.135,0,0,0,0,.02l2.48,1.236a1.749,1.749,0,0,1,.737,2.266l-1.655,3.779a.11.11,0,0,0,0,.067l8.83,11-6.472-25.237a.875.875,0,0,1,1.7-.435l7.067,27.555a8.487,8.487,0,0,1,.243,1.522.875.875,0,0,1-.555.875A.855.855,0,0,1,72.51,176.915ZM60.461,154.26h0Z" transform="translate(-58.706 -146.244)"/>
          </g>
        </g>
        <g id="Grupo_1065018" data-name="Grupo 1065018" transform="translate(24.515 58.329)">
          <g id="Grupo_1065017" data-name="Grupo 1065017">
            <path id="Trazado_799100" data-name="Trazado 799100" d="M86.625,169.888a11,11,0,0,1-5.816-1.661.875.875,0,1,1,.925-1.486,9.265,9.265,0,0,0,9.8-.013.875.875,0,0,1,.929,1.484,11,11,0,0,1-5.841,1.676Z" transform="translate(-80.397 -166.595)"/>
          </g>
        </g>
      </g>
    </g>
  </g>
</svg>
