<svg xmlns="http://www.w3.org/2000/svg" width="171" height="103.711" viewBox="0 0 171 103.711">
  <g id="Grupo_1065047" data-name="Grupo 1065047" transform="translate(-199 -19108.465)">
    <rect id="Rectángulo_373693" data-name="Rectángulo 373693" width="171" height="86" rx="10" transform="translate(199 19126.176)" fill="#ffebc5"/>
    <g id="proteccion" transform="translate(247 19108.465)">
      <g id="Grupo_1065057" data-name="Grupo 1065057" transform="translate(1.225 1.225)">
        <g id="Grupo_1065049" data-name="Grupo 1065049" transform="translate(51.448 47.773)">
          <path id="Trazado_799129" data-name="Trazado 799129" d="M65.049,44.9V60.824l-11.025,4.9L43,60.824V44.9L54.025,40Z" transform="translate(-43 -40)" fill="#aab2bd"/>
        </g>
        <g id="Grupo_1065050" data-name="Grupo 1065050" transform="translate(2.45)">
          <path id="Trazado_799130" data-name="Trazado 799130" d="M14.466,22.081l-3.209,1.078A4.884,4.884,0,0,0,7.9,27.8v2.6H5.45a4.815,4.815,0,0,0-1.335.184l-1-8.967A18.906,18.906,0,0,1,3,19.57,18.569,18.569,0,0,1,21.57,1H43.227A18.574,18.574,0,0,1,61.8,19.57a18.9,18.9,0,0,1-.11,2.046l-1,8.967a4.815,4.815,0,0,0-1.335-.184H56.9v-4.03a4.919,4.919,0,0,0-3.075-4.557L51.263,20.8a4.194,4.194,0,0,1-3.185,2.278l-5.586-.012a12.643,12.643,0,0,1-8.06-2.94H34.42a4.857,4.857,0,0,1-4.471,2.928H17.234a4.371,4.371,0,0,1-2.768-.968Z" transform="translate(-3 -1)" fill="#b27946"/>
        </g>
        <g id="Grupo_1065051" data-name="Grupo 1065051" transform="translate(15.924 63.698)">
          <path id="Trazado_799131" data-name="Trazado 799131" d="M45.677,61.6l.171,1.2H14l.171-1.2a10.191,10.191,0,0,1,8.4-8.6l1.47,1.96a7.356,7.356,0,0,0,9.163,2.168,7.152,7.152,0,0,0,2.6-2.168L37.274,53a10.173,10.173,0,0,1,8.4,8.6Z" transform="translate(-14 -53)" fill="#fcd770"/>
        </g>
        <g id="Grupo_1065052" data-name="Grupo 1065052" transform="translate(24.499 60.439)">
          <path id="Trazado_799132" data-name="Trazado 799132" d="M22.09,50.34l6.26.808a24.562,24.562,0,0,0,6.26-.808L35.7,53.6l-1.47,1.96a7.152,7.152,0,0,1-2.6,2.168,7.356,7.356,0,0,1-9.163-2.168L21,53.6Z" transform="translate(-21 -50.34)" fill="#f0d0b4"/>
        </g>
        <g id="Grupo_1065053" data-name="Grupo 1065053" transform="translate(56.225 29.399)">
          <path id="Trazado_799133" data-name="Trazado 799133" d="M50.808,25.184A4.9,4.9,0,0,1,49.472,34.8H46.9a23.105,23.105,0,0,0,.122-2.45V25h2.45A4.815,4.815,0,0,1,50.808,25.184Z" transform="translate(-46.9 -25)" fill="#f0d0b4"/>
        </g>
        <g id="Grupo_1065054" data-name="Grupo 1065054" transform="translate(7.35 19.122)">
          <path id="Trazado_799134" data-name="Trazado 799134" d="M56,26.887v7.35a23.105,23.105,0,0,1-.122,2.45A24.477,24.477,0,0,1,31.5,58.736l-6.26-.808A24.532,24.532,0,0,1,7.122,36.687,23.105,23.105,0,0,1,7,34.237V24.29a4.884,4.884,0,0,1,3.356-4.643l3.209-1.078a4.371,4.371,0,0,0,2.768.968H29.049A4.857,4.857,0,0,0,33.52,16.61h.012a12.643,12.643,0,0,0,8.06,2.94l5.586.012a4.194,4.194,0,0,0,3.185-2.278l2.56,1.017A4.919,4.919,0,0,1,56,22.857Z" transform="translate(-7 -16.61)" fill="#f0d0b4"/>
        </g>
        <g id="Grupo_1065055" data-name="Grupo 1065055" transform="translate(0 29.399)">
          <path id="Trazado_799135" data-name="Trazado 799135" d="M8.472,34.8H5.9a4.9,4.9,0,0,1-1.335-9.616A4.815,4.815,0,0,1,5.9,25H8.35v7.35a23.105,23.105,0,0,0,.122,2.45Z" transform="translate(-1 -25)" fill="#f0d0b4"/>
        </g>
        <g id="Grupo_1065056" data-name="Grupo 1065056" transform="translate(14.699 36.749)">
          <path id="Trazado_799136" data-name="Trazado 799136" d="M47.3,32.225V33.45a17.149,17.149,0,1,1-34.3,0V32.225A1.229,1.229,0,0,1,14.225,31H46.074A1.229,1.229,0,0,1,47.3,32.225Z" transform="translate(-13 -31)" fill="#e6e9ed"/>
        </g>
      </g>
      <g id="Grupo_1065058" data-name="Grupo 1065058">
        <path id="Trazado_799137" data-name="Trazado 799137" d="M63.7,47.657l-8.837,3.928A25.5,25.5,0,0,0,58.5,41.648h1.519a6.109,6.109,0,0,0,2.659-11.616l.894-8.05A19.794,19.794,0,0,0,43.9,0H22.245A19.794,19.794,0,0,0,2.571,21.982l.9,8.049A6.109,6.109,0,0,0,6.125,41.648H7.644A25.775,25.775,0,0,0,25.25,62.471l-.463,1.389a11.36,11.36,0,0,0-8.679,9.488l-.371,2.6H50.412l-.371-2.6a11.36,11.36,0,0,0-8.679-9.488L40.9,62.473a25.759,25.759,0,0,0,10.551-6.53V70.618L63.7,76.063l12.25-5.445V53.1ZM60.023,39.2H58.735c.02-.409.062-.811.062-1.225V31.849h1.225a3.675,3.675,0,1,1,0,7.35Zm-53.9,0a3.675,3.675,0,1,1,0-7.35H7.35v6.125c0,.414.043.816.062,1.225ZM7.35,28.031V29.4H6.125c-.089,0-.173.022-.261.027l-.857-7.712A17.344,17.344,0,0,1,22.245,2.45H43.9A17.342,17.342,0,0,1,61.141,21.711l-.857,7.714c-.088,0-.171-.026-.261-.026H58.8V26.591A6.094,6.094,0,0,0,54.946,20.9l-1.389-.556a6.329,6.329,0,0,0,.341-1.973,6.132,6.132,0,0,0-6.125-6.125h-.42a6.087,6.087,0,0,0-4.331,1.795l-1.014,1.014,1.732,1.732,1.014-1.014a3.658,3.658,0,0,1,2.6-1.077h.42a3.679,3.679,0,0,1,3.675,3.675c0,2.151-1.758,3.687-2.686,3.7l-5.589-.013a11.376,11.376,0,0,1-6.638-2.168,6.038,6.038,0,0,0,.214-1.519,6.132,6.132,0,0,0-6.125-6.125H30.2a6.087,6.087,0,0,0-4.331,1.795l-1.014,1.014L26.59,16.79,27.6,15.776A3.656,3.656,0,0,1,30.2,14.7h.42a3.675,3.675,0,0,1,0,7.35H17.906A3.211,3.211,0,0,1,14.7,18.842v-.179a3.191,3.191,0,0,1,1.773-2.869l-1.1-2.191a5.634,5.634,0,0,0-3.126,5.06v.179a5.6,5.6,0,0,0,.81,2.871l-1.521.507a6.116,6.116,0,0,0-4.188,5.81ZM47.584,73.5H18.563A8.9,8.9,0,0,1,25.229,66.3l.986,1.313a8.573,8.573,0,0,0,13.718,0L40.92,66.3A8.9,8.9,0,0,1,47.584,73.5Zm-8.527-8.8-1.084,1.447a6.124,6.124,0,0,1-9.8,0L27.09,64.7l.532-1.6a25.316,25.316,0,0,0,10.9,0Zm-5.984-3.453A23.3,23.3,0,0,1,9.8,37.974V28.031a3.672,3.672,0,0,1,2.514-3.487l2.662-.887a5.6,5.6,0,0,0,2.931.843H30.624a6.1,6.1,0,0,0,4.814-2.384,13.836,13.836,0,0,0,7.729,2.4l5.61.013a5.052,5.052,0,0,0,3.6-2.01l1.66.664a3.657,3.657,0,0,1,2.31,3.411V37.974A23.3,23.3,0,0,1,33.074,61.248ZM53.9,54.693l8.575-3.81V72.837L53.9,69.027ZM73.5,69.027l-8.575,3.81V50.883l8.575,3.81Z"/>
        <path id="Trazado_799138" data-name="Trazado 799138" d="M46.3,30H14.45A2.452,2.452,0,0,0,12,32.45v1.225a18.374,18.374,0,0,0,36.749,0V32.45A2.452,2.452,0,0,0,46.3,30Zm0,3.675a15.851,15.851,0,0,1-.779,4.9H40.174V32.45H46.3Zm-17.149,7.35v8.512a15.792,15.792,0,0,1-6.125-1.749V41.025Zm-6.125-2.45V32.45h6.125v6.125Zm8.575,2.45h6.125v6.763A15.792,15.792,0,0,1,31.6,49.537Zm0-2.45V32.45h6.125v6.125ZM14.45,32.45h6.125v6.125H15.229a15.851,15.851,0,0,1-.779-4.9Zm1.812,8.575h4.313V46.2A16,16,0,0,1,16.262,41.025ZM40.174,46.2V41.025h4.313A16,16,0,0,1,40.174,46.2Z" transform="translate(2.699 6.749)"/>
        <path id="Trazado_799139" data-name="Trazado 799139" d="M18.9,24.45a2.452,2.452,0,0,1,2.45,2.45H23.8a4.9,4.9,0,1,0-9.8,0h2.45A2.452,2.452,0,0,1,18.9,24.45Z" transform="translate(3.149 4.949)"/>
        <path id="Trazado_799140" data-name="Trazado 799140" d="M36.9,24.45a2.452,2.452,0,0,1,2.45,2.45H41.8a4.9,4.9,0,1,0-9.8,0h2.45A2.452,2.452,0,0,1,36.9,24.45Z" transform="translate(7.198 4.949)"/>
      </g>
    </g>
  </g>
</svg>
