<svg xmlns="http://www.w3.org/2000/svg" width="76.999" height="76.999" viewBox="0 0 76.999 76.999">
  <g id="Grupo_1065153" data-name="Grupo 1065153" transform="translate(-515 -4110)">
    <circle id="Elipse_4724" data-name="Elipse 4724" cx="38.5" cy="38.5" r="38.5" transform="translate(515 4110)" fill="#fec759"/>
    <g id="healthcare_x2C__medical_x2C__protection_1_" transform="translate(528 4123)">
      <g id="XMLID_451_" transform="translate(1 2)">
        <g id="XMLID_493_">
          <g id="XMLID_513_" transform="translate(37.165 18.93)">
            <path id="Trazado_796987" data-name="Trazado 796987" d="M24.322,28.405a.827.827,0,0,1-.659-1.323,15.558,15.558,0,0,0,3.144-9.425,15.782,15.782,0,0,0-.329-3.2.826.826,0,1,1,1.617-.335,17.422,17.422,0,0,1,.363,3.54,17.21,17.21,0,0,1-3.476,10.419A.826.826,0,0,1,24.322,28.405Z" transform="translate(-23.496 -13.459)" fill="#7053e8"/>
          </g>
          <g id="XMLID_511_" transform="translate(7.434 12.417)">
            <path id="Trazado_796988" data-name="Trazado 796988" d="M6.683,24.5a.829.829,0,0,1-.808-.656A17.683,17.683,0,0,1,5.5,20.227,17.193,17.193,0,0,1,8.946,9.849a.826.826,0,1,1,1.323.99,15.549,15.549,0,0,0-3.117,9.388,15.881,15.881,0,0,0,.34,3.273.826.826,0,0,1-.638.978.769.769,0,0,1-.172.018Z" transform="translate(-5.5 -9.516)" fill="#7053e8"/>
          </g>
          <g id="XMLID_508_" transform="translate(16.52 14.868)">
            <path id="Trazado_796989" data-name="Trazado 796989" d="M21.738,27.52H16.782a.826.826,0,0,1-.826-.826v-4.13h-4.13A.826.826,0,0,1,11,21.738V16.782a.826.826,0,0,1,.826-.826h4.13v-4.13A.826.826,0,0,1,16.782,11h4.956a.826.826,0,0,1,.826.826v4.13h4.13a.826.826,0,0,1,.826.826v4.956a.826.826,0,0,1-.826.826h-4.13v4.13A.826.826,0,0,1,21.738,27.52Zm-4.13-1.652h3.3v-4.13a.826.826,0,0,1,.826-.826h4.13v-3.3h-4.13a.826.826,0,0,1-.826-.826v-4.13h-3.3v4.13a.826.826,0,0,1-.826.826h-4.13v3.3h4.13a.826.826,0,0,1,.826.826Z" transform="translate(-11 -11)" fill="#7053e8"/>
          </g>
          <g id="XMLID_501_" transform="translate(0 28.999)">
            <g id="XMLID_506_" transform="translate(0 8.935)">
              <path id="Trazado_796990" data-name="Trazado 796990" d="M29.317,33.285H20.659a10.842,10.842,0,0,1-4.685-1.071L10.187,29.4A10.77,10.77,0,0,0,5.5,28.329H1.826a.826.826,0,0,1,0-1.652H5.5a12.4,12.4,0,0,1,5.41,1.239l5.785,2.81a9.211,9.211,0,0,0,3.968.907h8.493l7.214-2.977a2.168,2.168,0,0,0-.22-1.252c-.484-.833-1.6-.859-2.45-.735a18.137,18.137,0,0,0-3.145.834l-.34.114a.826.826,0,1,1-.52-1.568l.334-.111a19.436,19.436,0,0,1,3.428-.9c3.406-.5,4.257,1.632,4.441,2.295.3,1.092.051,2.458-.892,2.853l-7.37,3.041A.883.883,0,0,1,29.317,33.285Z" transform="translate(-1 -24.962)" fill="#7053e8"/>
            </g>
            <g id="XMLID_504_">
              <path id="Trazado_796991" data-name="Trazado 796991" d="M18.569,25.044a.828.828,0,0,1-.75-.477c-1.619-3.484-5.825-3.983-8.952-2.686a.835.835,0,0,1-.317.063H1.826a.826.826,0,0,1,0-1.652H8.389c4.472-1.776,9.146-.251,10.93,3.58a.828.828,0,0,1-.4,1.1.87.87,0,0,1-.349.074Z" transform="translate(-1 -19.554)" fill="#7053e8"/>
            </g>
            <g id="XMLID_502_" transform="translate(15.114 3.842)">
              <path id="Trazado_796992" data-name="Trazado 796992" d="M20.433,31.368a.833.833,0,0,1-.316-.063l-9.459-3.927a.827.827,0,1,1,.634-1.526l8.628,3.582c.362-1.7-.57-3.028-2.784-3.945l-4.862-2.019a.827.827,0,1,1,.634-1.526l4.86,2.019c3.4,1.411,4.654,3.924,3.426,6.892a.821.821,0,0,1-.448.448.778.778,0,0,1-.316.066Z" transform="translate(-10.149 -21.88)" fill="#7053e8"/>
            </g>
          </g>
          <g id="XMLID_494_" transform="translate(12.547)">
            <g id="XMLID_499_">
              <path id="Trazado_796993" data-name="Trazado 796993" d="M12.19,10.325A3.292,3.292,0,0,1,8.716,7.956c-.3-1.092-.051-2.458.892-2.853l7.37-3.041A.849.849,0,0,1,17.291,2h8.657a10.842,10.842,0,0,1,4.685,1.071L36.42,5.882a10.783,10.783,0,0,0,4.693,1.074h3.669a.826.826,0,0,1,0,1.652H41.114A12.4,12.4,0,0,1,35.7,7.369L29.918,4.561a9.189,9.189,0,0,0-3.968-.909H17.457L10.241,6.629a2.168,2.168,0,0,0,.22,1.252c.486.833,1.6.859,2.45.735a18.136,18.136,0,0,0,3.145-.834l.34-.114a.826.826,0,1,1,.52,1.568l-.334.111a19.436,19.436,0,0,1-3.428.9,6.41,6.41,0,0,1-.965.076Z" transform="translate(-8.595 -2)" fill="#7053e8"/>
            </g>
            <g id="XMLID_497_" transform="translate(18.618 11.765)">
              <path id="Trazado_796994" data-name="Trazado 796994" d="M27.124,14.612A7.691,7.691,0,0,1,19.941,10.3a.827.827,0,0,1,1.5-.7c1.617,3.482,5.822,3.98,8.952,2.686a.867.867,0,0,1,.317-.061h6.724a.826.826,0,1,1,0,1.652H30.871a10.188,10.188,0,0,1-3.747.735Z" transform="translate(-19.864 -9.122)" fill="#7053e8"/>
            </g>
            <g id="XMLID_495_" transform="translate(10.391 3.93)">
              <path id="Trazado_796995" data-name="Trazado 796995" d="M23.95,13.863a.829.829,0,0,1-.317-.063l-4.86-2.019c-3.4-1.411-4.654-3.924-3.426-6.892a.821.821,0,0,1,.448-.448.831.831,0,0,1,.633,0l9.459,3.927A.827.827,0,0,1,25.252,9.9L16.623,6.313c-.362,1.7.57,3.028,2.784,3.945l4.862,2.019a.824.824,0,0,1-.319,1.586Z" transform="translate(-14.885 -4.379)" fill="#7053e8"/>
            </g>
          </g>
        </g>
        <g id="XMLID_491_" transform="translate(34.717 34.721)">
          <path id="Trazado_796996" data-name="Trazado 796996" d="M22.841,24.7a.825.825,0,0,1-.585-1.409.9.9,0,0,1,1.226-.058.761.761,0,0,1,.058,1.11l-.116.116A.823.823,0,0,1,22.841,24.7Z" transform="translate(-22.015 -23.017)" fill="#7053e8"/>
        </g>
        <g id="XMLID_484_" transform="translate(13.241 9.854)">
          <path id="Trazado_796997" data-name="Trazado 796997" d="M9.841,9.733a.826.826,0,0,1-.58-1.414L9.379,8.2a.826.826,0,1,1,1.16,1.176l-.117.116A.822.822,0,0,1,9.841,9.733Z" transform="translate(-9.015 -7.965)" fill="#7053e8"/>
        </g>
      </g>
    </g>
  </g>
</svg>
