<svg xmlns="http://www.w3.org/2000/svg" width="76.999" height="76.999" viewBox="0 0 76.999 76.999">
  <g id="Grupo_1065154" data-name="Grupo 1065154" transform="translate(-831 -4110)">
    <circle id="Elipse_4724" data-name="Elipse 4724" cx="38.5" cy="38.5" r="38.5" transform="translate(831 4110)" fill="#fec759"/>
    <g id="_07-healthy" data-name="07-healthy" transform="translate(839.014 4119)">
      <path id="Trazado_796998" data-name="Trazado 796998" d="M347.387,108.553a3.808,3.808,0,0,0,3.285-1.9.759.759,0,0,0,0-.76,3.793,3.793,0,0,0-6.57,0,.759.759,0,0,0,0,.76A3.808,3.808,0,0,0,347.387,108.553Zm0-3.035a2.285,2.285,0,0,1,1.7.759,2.273,2.273,0,0,1-3.391,0A2.285,2.285,0,0,1,347.387,105.517Z" transform="translate(-304.142 -86.894)" fill="#7053e8"/>
      <path id="Trazado_796999" data-name="Trazado 796999" d="M48.174,46.205c-.5-.409-1.087-.845-1.755-1.3A12.287,12.287,0,0,0,52,34.56c0-3.855-1.519-8.474-4.912-10.1-1.4-.674-3.562-1.024-6.4.529a14.173,14.173,0,0,0-.935-3.552c-.732-2.009-1.311-3.6.023-6.264l-1.357-.679c-1.626,3.252-.846,5.392-.091,7.462a11.013,11.013,0,0,1,.882,3.979l-.112.081a9.33,9.33,0,0,0-5.312-2.128v-4.5a.771.771,0,0,0-.152-.455l-4.4-5.868v-4.3A.759.759,0,0,0,28.476,8H14.817a.759.759,0,0,0-.759.759v4.3l-4.4,5.868a.771.771,0,0,0-.152.455V35.807a3.085,3.085,0,0,0-1.38,1.838c-.321,1.106-.242,2.713,1.955,4.092a10.3,10.3,0,0,0,1.6.8c-2.249,1.223-2.519,2.722-2.511,3.4a3.449,3.449,0,0,0,2.766,3.081,2.719,2.719,0,0,0,.76.1c1.367,0,3.055-.925,5.032-2.76.594-.552,1.138-1.114,1.593-1.61a4.263,4.263,0,0,0,.7,1.882C20.945,48,22.7,48.98,25.9,49.907a73.473,73.473,0,0,0,13.817,2.009c1.148.064,2.228.095,3.221.095a30.211,30.211,0,0,0,3.6-.185c2.33-.288,3.555-.9,3.853-1.93S49.989,47.694,48.174,46.205Zm-9.16-18.482A11.577,11.577,0,0,1,38.6,29.19a2.287,2.287,0,0,1-1.469-1.081l-1.314.76a3.8,3.8,0,0,0,6.572,0l-1.314-.76a2.281,2.281,0,0,1-.793.806,11.282,11.282,0,0,0,.419-2.167c2.138-1.387,4.1-1.71,5.732-.926,2.386,1.147,4.052,4.74,4.052,8.737,0,3.959-2.347,7.921-5.514,9.4-.77-.48-1.612-.976-2.514-1.48A73.452,73.452,0,0,0,29.7,36.788c-.662-.192-1.273-.348-1.839-.471a10.688,10.688,0,0,1-.149-1.757c0-4,1.666-7.59,4.052-8.737,1.913-.919,4.284-.317,6.857,1.741A.754.754,0,0,0,39.014,27.723ZM11.022,20.142H23.164v4.553H11.022Zm13.659,0H32.27v3.9a5.787,5.787,0,0,0-1.159.411c-3.393,1.631-4.912,6.25-4.912,10.1a12.11,12.11,0,0,0,.094,1.493,8.734,8.734,0,0,0-1.612-.045Zm.759-1.518,3.035-4.047,3.035,4.047ZM15.575,9.518H27.717v3.035H15.575ZM15.2,14.071H26.958l-3.415,4.553H11.781ZM11.022,26.212H23.164V36.336c-.059.023-.118.047-.175.072a4.262,4.262,0,0,0-1.6,1.213c-.119-.662-.278-1.426-.485-2.209-.823-3.114-1.992-4.911-3.475-5.341A3.448,3.448,0,0,0,13.446,31.2c-.37.57-.945,1.981.3,4.217a10.321,10.321,0,0,0-1.783-.18h-.028a6.385,6.385,0,0,0-.913.062ZM12.36,47.563c-1.007-.292-1.662-.936-1.671-1.642-.009-.8.873-1.945,3.378-2.736a.759.759,0,0,0-.017-1.452c-3.433-1-4.895-2.194-4.468-3.665.254-.876,1.021-1.312,2.325-1.312a12.82,12.82,0,0,1,3.41.6.759.759,0,0,0,.791-1.218c-1.694-2.008-1.829-3.444-1.391-4.119a2,2,0,0,1,2.29-.494c1.643.476,2.824,5.019,3.16,8.18L19.4,42.34c-1.974,2.492-5.4,5.7-7.044,5.223Zm36.58,1.911c-.106.366-2.012,1.322-9.137.927-1.2-.066-2.443-.166-3.688-.293l.741-2.557L35.4,47.13l-.815,2.811a57.2,57.2,0,0,1-8.259-1.49c-2.791-.809-4.347-1.63-5.043-2.661-.636-.941-.647-2.24-.038-4.342S22.556,38.254,23.6,37.8a4.025,4.025,0,0,1,1.627-.291,15.3,15.3,0,0,1,4.058.739c.228.066.471.142.725.225l-1.9,6.546,1.458.422,1.873-6.462A82.5,82.5,0,0,1,41.714,43.8c.811.452,1.533.876,2.179,1.273l-.784,2.707,1.458.423.66-2.277C48.385,48.039,49.022,49.192,48.94,49.474Z" fill="#7053e8"/>
    </g>
  </g>
</svg>
