<svg xmlns="http://www.w3.org/2000/svg" width="76.999" height="76.999" viewBox="0 0 76.999 76.999">
  <g id="Grupo_1065155" data-name="Grupo 1065155" transform="translate(-1146 -4110)">
    <circle id="Elipse_4724" data-name="Elipse 4724" cx="38.5" cy="38.5" r="38.5" transform="translate(1146 4110)" fill="#fec759"/>
    <g id="auto-crecimiento" transform="translate(1081.721 4117.5)">
      <path id="Trazado_797000" data-name="Trazado 797000" d="M167.162,25.97V23.241a4.176,4.176,0,0,0-4.176-4.176h0a4.176,4.176,0,0,0-2.953,1.223l-2.046,2.046" transform="translate(-64.089 -10.482)" fill="none" stroke="#7053e8" stroke-linecap="round" stroke-linejoin="round" stroke-miterlimit="10" stroke-width="1.8"/>
      <path id="Trazado_797001" data-name="Trazado 797001" d="M255.99,55.612V52.4a4.177,4.177,0,0,1,7.128-2.953l2.045,2.046" transform="translate(-152.917 -36.908)" fill="none" stroke="#7053e8" stroke-linecap="round" stroke-linejoin="round" stroke-miterlimit="10" stroke-width="1.8"/>
      <path id="Trazado_797002" data-name="Trazado 797002" d="M187.883,130.975a3.323,3.323,0,0,0-5-2.18,3.322,3.322,0,0,0-5.687,0,3.322,3.322,0,0,0-5,2.18" transform="translate(-76.964 -108.486)" fill="none" stroke="#7053e8" stroke-linecap="round" stroke-linejoin="round" stroke-miterlimit="10" stroke-width="1.8"/>
      <path id="Trazado_797003" data-name="Trazado 797003" d="M311.382,35.153h0a2.522,2.522,0,0,0-2.522,2.522V38h-.328a2.522,2.522,0,0,0-2.522,2.522h0a2.522,2.522,0,0,0,2.522,2.522H313.9V37.675A2.522,2.522,0,0,0,311.382,35.153Z" transform="translate(-198.255 -25.064)" fill="none" stroke="#7053e8" stroke-linecap="round" stroke-linejoin="round" stroke-miterlimit="10" stroke-width="1.8"/>
      <path id="Trazado_797004" data-name="Trazado 797004" d="M127.061,14.861a2.439,2.439,0,0,0,.234-.206,2.522,2.522,0,0,0-1.783-4.305h-.329v-.329a2.522,2.522,0,0,0-5.044,0v5.372h3.734" transform="translate(-29.784)" fill="none" stroke="#7053e8" stroke-linecap="round" stroke-linejoin="round" stroke-miterlimit="10" stroke-width="1.8"/>
      <path id="Trazado_797005" data-name="Trazado 797005" d="M124.44,419.343a15.822,15.822,0,0,1,10.073,7.969H106.532a15.819,15.819,0,0,1,10.085-7.972" transform="translate(-17.45 -373.288)" fill="none" stroke="#7053e8" stroke-linecap="round" stroke-linejoin="round" stroke-miterlimit="10" stroke-width="1.8"/>
      <path id="Trazado_797006" data-name="Trazado 797006" d="M99.662,192.5a4.07,4.07,0,0,1-.564-2.07v-.99a12.081,12.081,0,0,1-8-9.838,5.136,5.136,0,0,1-3.821-4.965,3.333,3.333,0,0,1,3.332-3.332H91V167.62h24.147V171.3h.388a3.306,3.306,0,0,1,.949.138" transform="translate(0 -145.131)" fill="none" stroke="#7053e8" stroke-linecap="round" stroke-linejoin="round" stroke-miterlimit="10" stroke-width="1.8"/>
      <path id="Trazado_797007" data-name="Trazado 797007" d="M264.378,232.44a3.31,3.31,0,0,1,.138.949,5.136,5.136,0,0,1-3.821,4.965,12.083,12.083,0,0,1-8,9.839v1.055a3.977,3.977,0,0,1-4.045,3.976,3.9,3.9,0,0,1-.683-.071" transform="translate(-145.648 -203.884)" fill="none" stroke="#7053e8" stroke-linecap="round" stroke-linejoin="round" stroke-miterlimit="10" stroke-width="1.8"/>
      <g id="Grupo_1064095" data-name="Grupo 1064095" transform="translate(95.176 31.816)">
        <path id="Trazado_797008" data-name="Trazado 797008" d="M288.726,268.269a3.418,3.418,0,0,1,4.834,0" transform="translate(-277.765 -267.268)" fill="none" stroke="#7053e8" stroke-linecap="round" stroke-linejoin="round" stroke-miterlimit="10" stroke-width="1.8"/>
        <path id="Trazado_797009" data-name="Trazado 797009" d="M171.634,268.269a3.418,3.418,0,0,1,4.834,0" transform="translate(-171.634 -267.268)" fill="none" stroke="#7053e8" stroke-linecap="round" stroke-linejoin="round" stroke-miterlimit="10" stroke-width="1.8"/>
      </g>
      <g id="Grupo_1064096" data-name="Grupo 1064096" transform="translate(89.915 28.822)">
        <path id="Trazado_797010" data-name="Trazado 797010" d="M388.1,237.215a2.843,2.843,0,0,1,.793-1.94" transform="translate(-362.574 -235.275)" fill="none" stroke="#7053e8" stroke-linecap="round" stroke-linejoin="round" stroke-miterlimit="10" stroke-width="1.8"/>
        <path id="Trazado_797011" data-name="Trazado 797011" d="M116.221,237.215a2.842,2.842,0,0,0-.793-1.94" transform="translate(-115.428 -235.275)" fill="none" stroke="#7053e8" stroke-linecap="round" stroke-linejoin="round" stroke-miterlimit="10" stroke-width="1.8"/>
      </g>
      <path id="Trazado_797012" data-name="Trazado 797012" d="M237.705,340.167a3.221,3.221,0,0,1-4.555,0" transform="translate(-132.215 -301.527)" fill="none" stroke="#7053e8" stroke-linecap="round" stroke-linejoin="round" stroke-miterlimit="10" stroke-width="1.8"/>
    </g>
  </g>
</svg>
