<svg xmlns="http://www.w3.org/2000/svg" xmlns:xlink="http://www.w3.org/1999/xlink" width="240.181" height="102.931" viewBox="0 0 240.181 102.931">
  <defs>
    <clipPath id="clip-path">
      <rect id="Rectángulo_373397" data-name="Rectángulo 373397" width="240.181" height="102.931" fill="none"/>
    </clipPath>
  </defs>
  <g id="a1" transform="translate(0 0)">
    <g id="Grupo_1063804" data-name="Grupo 1063804" transform="translate(0 0)" clip-path="url(#clip-path)">
      <path id="Trazado_796382" data-name="Trazado 796382" d="M233.263,62.135A59.679,59.679,0,0,0,219.6,22.792,60.333,60.333,0,0,0,183.444,2.083a64.091,64.091,0,0,0-43.306,8.673,72.082,72.082,0,0,0-28.659,33.869c-2.857,6.883-4.7,14.157-7.632,21.009A85.029,85.029,0,0,1,93.409,83.3c-4.083,5.408-8.791,10.5-14.678,13.86a33.675,33.675,0,0,1-36.765-2.874" transform="translate(5.447 0.167)" fill="none" stroke="#fff" stroke-linecap="round" stroke-miterlimit="10" stroke-width="2.567" stroke-dasharray="8.986 10.27"/>
      <path id="Trazado_796383" data-name="Trazado 796383" d="M37.852,85.618a1.076,1.076,0,0,1-.307-.045.935.935,0,0,1-.125.008.993.993,0,0,1-.67-.264,99.758,99.758,0,0,0-9.787-7.846Q24.3,80.1,21.875,82.984a.955.955,0,0,1-.739.336,1,1,0,0,1-.9-.534,172.465,172.465,0,0,0-20-31.142A1.024,1.024,0,0,1,.1,50.552a.988.988,0,0,1,.9-.567,1.055,1.055,0,0,1,.46.107l.271.132.053,0c.027,0,.1,0,.122.008a419.926,419.926,0,0,1,49.475,9.189,1.008,1.008,0,0,1,.234,1.852A45.753,45.753,0,0,1,42.5,64.962c-1.2,6.123-2.281,12.387-3.2,18.594a.932.932,0,0,1-.5.71c.01.1.019.207.027.311a.949.949,0,0,1-.243.732.99.99,0,0,1-.729.31m-9.42-9.566a102.082,102.082,0,0,1,8.181,6.457,93.7,93.7,0,0,0-2-11.753,1,1,0,0,1-.19.189q-3.11,2.4-5.994,5.108M4.463,53.787A172.28,172.28,0,0,1,17.3,73.01c1.226,2.142,2.416,4.329,3.539,6.5.12.234.218.454.306.652.047.107.105.237.157.341.053-.045.125-.107.217-.194.451-.43.863-.908,1.3-1.415.308-.357.618-.715.939-1.054A82.351,82.351,0,0,1,33.275,69.3a.976.976,0,0,1,.48-.2c-9.564-5.334-19.4-10.477-29.292-15.314M36.346,69.368c.72,2.913,1.3,5.878,1.748,8.861.681-4.237,1.437-8.5,2.255-12.717L20.54,58.888c-1.3-.435-2.641-.858-3.96-1.27,6.548,3.37,13.043,6.859,19.387,10.417a.963.963,0,0,1,.5.813,1.026,1.026,0,0,1-.125.52M9.765,53.318c2.359.842,4.769,1.587,7.13,2.319,1.7.525,3.453,1.069,5.144,1.634l18.879,6.313a.9.9,0,0,1,.217-.143.971.971,0,0,1,.5-.324,44.434,44.434,0,0,0,6.567-2.4c-12.638-3.056-25.536-5.538-38.439-7.4" transform="translate(0 6.488)" fill="#fff"/>
    </g>
  </g>
</svg>
